G04*
G04 #@! TF.GenerationSoftware,Altium Limited,Altium Designer,21.2.0 (30)*
G04*
G04 Layer_Color=16711935*
%FSLAX25Y25*%
%MOIN*%
G70*
G04*
G04 #@! TF.SameCoordinates,74D48CB8-E722-4D7A-A080-E4722F553172*
G04*
G04*
G04 #@! TF.FilePolarity,Positive*
G04*
G01*
G75*
%ADD13C,0.01000*%
D13*
X22845Y290154D02*
G03*
X37449Y279885I14604J5251D01*
G01*
X115Y242551D02*
G03*
X-10153Y257155I-15519J0D01*
G01*
X497653Y257155D02*
G03*
X487385Y242551I5251J-14604D01*
G01*
X450051Y279885D02*
G03*
X464655Y290153I0J15519D01*
G01*
X464655Y-10153D02*
G03*
X450051Y115I-14604J-5251D01*
G01*
X487385Y37449D02*
G03*
X497653Y22845I15519J0D01*
G01*
X37449Y115D02*
G03*
X22845Y-10153I0J-15519D01*
G01*
X-10153Y22845D02*
G03*
X115Y37449I-5251J14604D01*
G01*
X22845Y290154D02*
G03*
X-10153Y257155I-22845J-10153D01*
G01*
X497653D02*
G03*
X464655Y290154I-10153J22845D01*
G01*
Y-10153D02*
G03*
X497653Y22845I22845J10153D01*
G01*
X-10153D02*
G03*
X22845Y-10153I10153J-22845D01*
G01*
X291000Y124500D02*
G03*
X298000Y117500I7000J0D01*
G01*
X454000D02*
G03*
X461000Y124500I0J7000D01*
G01*
Y155500D02*
G03*
X454000Y162500I-7000J0D01*
G01*
X298000D02*
G03*
X291000Y155500I0J-7000D01*
G01*
X238000Y162500D02*
G03*
X231000Y155500I0J-7000D01*
G01*
X281000D02*
G03*
X274000Y162500I-7000J0D01*
G01*
Y117500D02*
G03*
X281000Y124500I0J7000D01*
G01*
X231000D02*
G03*
X238000Y117500I7000J0D01*
G01*
X37449Y115D02*
X450051D01*
X115Y37449D02*
Y242551D01*
X487385Y37449D02*
Y242551D01*
X37449Y279885D02*
X450051D01*
X298000Y117500D02*
X454000D01*
X461000Y124500D02*
Y155500D01*
X298000Y162500D02*
X454000D01*
X291000Y124500D02*
Y155500D01*
X231000Y124500D02*
Y155500D01*
X238000Y162500D02*
X274000D01*
X281000Y124500D02*
Y155500D01*
X238000Y117500D02*
X274000D01*
M02*
