G04*
G04 #@! TF.GenerationSoftware,Altium Limited,Altium Designer,21.2.0 (30)*
G04*
G04 Layer_Color=16711935*
%FSLAX25Y25*%
%MOIN*%
G70*
G04*
G04 #@! TF.SameCoordinates,74D48CB8-E722-4D7A-A080-E4722F553172*
G04*
G04*
G04 #@! TF.FilePolarity,Negative*
G04*
G01*
G75*
%ADD69C,0.32677*%
%ADD70R,0.05512X0.05512*%
%ADD71C,0.05512*%
%ADD72C,0.06299*%
%ADD73R,0.06299X0.06299*%
%ADD74C,0.05709*%
%ADD75R,0.05709X0.05709*%
%ADD76O,0.09252X0.06299*%
%ADD77O,0.06299X0.09252*%
%ADD78R,0.05315X0.05315*%
%ADD79C,0.05315*%
D69*
X0Y280000D02*
D03*
X487500D02*
D03*
Y0D02*
D03*
X0D02*
D03*
D70*
X344126Y16165D02*
D03*
D71*
X352000D02*
D03*
X359874D02*
D03*
D72*
X206000Y252500D02*
D03*
X246000D02*
D03*
X276000D02*
D03*
D73*
X216000D02*
D03*
X236000D02*
D03*
X266000D02*
D03*
D74*
X32563Y172882D02*
D03*
X40437D02*
D03*
X32563Y165008D02*
D03*
Y157134D02*
D03*
X40437Y165008D02*
D03*
Y157134D02*
D03*
X36500Y184398D02*
D03*
X40437Y141386D02*
D03*
Y149260D02*
D03*
X32563Y141386D02*
D03*
Y149260D02*
D03*
X36500Y90500D02*
D03*
X32563Y102016D02*
D03*
Y133512D02*
D03*
Y125638D02*
D03*
Y117764D02*
D03*
Y109890D02*
D03*
X40437Y133512D02*
D03*
Y125638D02*
D03*
Y117764D02*
D03*
Y109890D02*
D03*
D75*
Y102016D02*
D03*
D76*
X313000Y48063D02*
D03*
Y28772D02*
D03*
D77*
X324024Y37827D02*
D03*
D78*
X264138Y237000D02*
D03*
D79*
X274138Y227000D02*
D03*
X264138Y217000D02*
D03*
M02*
