G04*
G04 #@! TF.GenerationSoftware,Altium Limited,Altium Designer,21.2.0 (30)*
G04*
G04 Layer_Physical_Order=2*
G04 Layer_Color=16711680*
%FSLAX25Y25*%
%MOIN*%
G70*
G04*
G04 #@! TF.SameCoordinates,74D48CB8-E722-4D7A-A080-E4722F553172*
G04*
G04*
G04 #@! TF.FilePolarity,Positive*
G04*
G01*
G75*
%ADD13C,0.01000*%
%ADD78R,0.05315X0.05315*%
%ADD79C,0.05315*%
%ADD80C,0.00500*%
%ADD81C,0.01500*%
%ADD82C,0.02000*%
%ADD83C,0.32284*%
%ADD84R,0.05118X0.05118*%
%ADD85C,0.05118*%
%ADD86C,0.05906*%
%ADD87R,0.05906X0.05906*%
%ADD88O,0.08858X0.05906*%
%ADD89O,0.05906X0.08858*%
%ADD90R,0.04921X0.04921*%
%ADD91C,0.04921*%
%ADD92C,0.02500*%
%ADD93C,0.02362*%
%ADD94C,0.04724*%
G36*
X490130Y303339D02*
X492726Y302898D01*
X495257Y302169D01*
X497691Y301161D01*
X499996Y299887D01*
X502144Y298363D01*
X504108Y296608D01*
X505863Y294644D01*
X507387Y292496D01*
X508661Y290191D01*
X509669Y287757D01*
X510398Y285226D01*
X510839Y282630D01*
X510987Y280000D01*
X510839Y277370D01*
X510398Y274774D01*
X509669Y272243D01*
X508661Y269809D01*
X507387Y267504D01*
X505863Y265356D01*
X504108Y263392D01*
X502144Y261637D01*
X499996Y260113D01*
X498279Y259164D01*
X497027Y258564D01*
X496377Y258308D01*
X495759Y258003D01*
X494376Y257321D01*
X492521Y256082D01*
X490844Y254611D01*
X489373Y252934D01*
X488133Y251079D01*
X487147Y249078D01*
X486429Y246965D01*
X485994Y244777D01*
X485848Y242551D01*
X485855D01*
X485855Y37449D01*
X485848D01*
X485994Y35223D01*
X486429Y33035D01*
X487147Y30922D01*
X488133Y28921D01*
X489373Y27066D01*
X490844Y25389D01*
X492521Y23918D01*
X494376Y22679D01*
X495759Y21996D01*
X496377Y21692D01*
X497027Y21436D01*
X498279Y20836D01*
X499996Y19887D01*
X502144Y18363D01*
X504108Y16608D01*
X505863Y14644D01*
X507387Y12496D01*
X508661Y10191D01*
X509669Y7757D01*
X510398Y5226D01*
X510839Y2630D01*
X510987Y0D01*
X510839Y-2630D01*
X510398Y-5226D01*
X509669Y-7757D01*
X508661Y-10191D01*
X507387Y-12496D01*
X505863Y-14644D01*
X504108Y-16608D01*
X502144Y-18363D01*
X499996Y-19887D01*
X497691Y-21161D01*
X495257Y-22169D01*
X492726Y-22898D01*
X490130Y-23339D01*
X487500Y-23487D01*
X484870Y-23339D01*
X482274Y-22898D01*
X479743Y-22169D01*
X477309Y-21161D01*
X475004Y-19887D01*
X472856Y-18363D01*
X470892Y-16608D01*
X469137Y-14644D01*
X467613Y-12496D01*
X466664Y-10779D01*
X466064Y-9527D01*
X465808Y-8877D01*
X465504Y-8259D01*
X464821Y-6876D01*
X463582Y-5021D01*
X462111Y-3344D01*
X460433Y-1873D01*
X458578Y-633D01*
X456578Y353D01*
X454465Y1071D01*
X452277Y1506D01*
X450051Y1652D01*
Y1645D01*
X37449D01*
Y1652D01*
X35223Y1506D01*
X33035Y1071D01*
X30922Y353D01*
X28921Y-633D01*
X27066Y-1873D01*
X25389Y-3344D01*
X23918Y-5021D01*
X22679Y-6876D01*
X21996Y-8259D01*
X21692Y-8877D01*
X21436Y-9527D01*
X20836Y-10779D01*
X19887Y-12496D01*
X18363Y-14644D01*
X16608Y-16608D01*
X14644Y-18363D01*
X12496Y-19887D01*
X10191Y-21161D01*
X7757Y-22169D01*
X5226Y-22898D01*
X2630Y-23339D01*
X-0Y-23487D01*
X-2630Y-23339D01*
X-5226Y-22898D01*
X-7757Y-22169D01*
X-10191Y-21161D01*
X-12496Y-19887D01*
X-14644Y-18363D01*
X-16608Y-16608D01*
X-18363Y-14644D01*
X-19887Y-12496D01*
X-21161Y-10191D01*
X-22169Y-7757D01*
X-22898Y-5226D01*
X-23339Y-2630D01*
X-23487Y0D01*
X-23339Y2630D01*
X-22898Y5226D01*
X-22169Y7757D01*
X-21161Y10191D01*
X-19887Y12496D01*
X-18363Y14644D01*
X-16608Y16608D01*
X-14644Y18363D01*
X-12496Y19887D01*
X-10779Y20836D01*
X-9527Y21436D01*
X-8877Y21692D01*
X-8259Y21996D01*
X-6876Y22679D01*
X-5021Y23918D01*
X-3344Y25389D01*
X-1873Y27066D01*
X-633Y28921D01*
X353Y30922D01*
X1071Y33035D01*
X1506Y35223D01*
X1652Y37449D01*
X1645D01*
Y242551D01*
X1652D01*
X1506Y244777D01*
X1071Y246965D01*
X353Y249078D01*
X-633Y251079D01*
X-1873Y252934D01*
X-3344Y254611D01*
X-5021Y256082D01*
X-6876Y257321D01*
X-8259Y258003D01*
X-8877Y258308D01*
X-9527Y258564D01*
X-10779Y259164D01*
X-12496Y260113D01*
X-14644Y261637D01*
X-16608Y263392D01*
X-18363Y265356D01*
X-19887Y267504D01*
X-21161Y269809D01*
X-22169Y272243D01*
X-22898Y274774D01*
X-23339Y277370D01*
X-23487Y280000D01*
X-23339Y282630D01*
X-22898Y285226D01*
X-22169Y287757D01*
X-21161Y290191D01*
X-19887Y292496D01*
X-18363Y294644D01*
X-16608Y296608D01*
X-14644Y298363D01*
X-12496Y299887D01*
X-10191Y301161D01*
X-7757Y302169D01*
X-5226Y302898D01*
X-2630Y303339D01*
X0Y303487D01*
X2630Y303339D01*
X5226Y302898D01*
X7757Y302169D01*
X10191Y301161D01*
X12496Y299887D01*
X14644Y298363D01*
X16608Y296608D01*
X18363Y294644D01*
X19887Y292496D01*
X20836Y290779D01*
X21436Y289527D01*
X21692Y288877D01*
X21996Y288259D01*
X22679Y286876D01*
X23918Y285021D01*
X25389Y283344D01*
X27066Y281873D01*
X28921Y280633D01*
X30922Y279646D01*
X33035Y278929D01*
X35223Y278494D01*
X37449Y278348D01*
Y278355D01*
X450051D01*
Y278348D01*
X452277Y278494D01*
X454465Y278929D01*
X456578Y279646D01*
X458578Y280633D01*
X460433Y281873D01*
X462111Y283344D01*
X463582Y285021D01*
X464821Y286876D01*
X465503Y288259D01*
X465808Y288877D01*
X466064Y289527D01*
X466664Y290779D01*
X467613Y292496D01*
X469137Y294644D01*
X470892Y296608D01*
X472856Y298363D01*
X475004Y299887D01*
X477309Y301161D01*
X479743Y302169D01*
X482274Y302898D01*
X484870Y303339D01*
X487500Y303487D01*
X490130Y303339D01*
D02*
G37*
%LPC*%
G36*
X487500Y297179D02*
X485258Y297032D01*
X483054Y296593D01*
X480926Y295871D01*
X478911Y294877D01*
X477042Y293629D01*
X475353Y292147D01*
X473871Y290458D01*
X472623Y288589D01*
X471629Y286574D01*
X470907Y284446D01*
X470469Y282242D01*
X470322Y280000D01*
X470469Y277758D01*
X470907Y275554D01*
X471629Y273426D01*
X472623Y271411D01*
X473871Y269542D01*
X475353Y267853D01*
X477042Y266371D01*
X478911Y265123D01*
X480926Y264129D01*
X483054Y263407D01*
X485258Y262968D01*
X487500Y262822D01*
X489742Y262968D01*
X491946Y263407D01*
X494074Y264129D01*
X496089Y265123D01*
X497958Y266371D01*
X499647Y267853D01*
X501129Y269542D01*
X502377Y271411D01*
X503371Y273426D01*
X504093Y275554D01*
X504531Y277758D01*
X504678Y280000D01*
X504531Y282242D01*
X504093Y284446D01*
X503371Y286574D01*
X502377Y288589D01*
X501129Y290458D01*
X499647Y292147D01*
X497958Y293629D01*
X496089Y294877D01*
X494074Y295871D01*
X491946Y296593D01*
X489742Y297032D01*
X487500Y297179D01*
D02*
G37*
G36*
X0D02*
X-2242Y297032D01*
X-4446Y296593D01*
X-6574Y295871D01*
X-8589Y294877D01*
X-10458Y293629D01*
X-12147Y292147D01*
X-13629Y290458D01*
X-14877Y288589D01*
X-15871Y286574D01*
X-16593Y284446D01*
X-17031Y282242D01*
X-17178Y280000D01*
X-17031Y277758D01*
X-16593Y275554D01*
X-15871Y273426D01*
X-14877Y271411D01*
X-13629Y269542D01*
X-12147Y267853D01*
X-10458Y266371D01*
X-8589Y265123D01*
X-6574Y264129D01*
X-4446Y263407D01*
X-2242Y262968D01*
X0Y262822D01*
X2242Y262968D01*
X4446Y263407D01*
X6574Y264129D01*
X8589Y265123D01*
X10458Y266371D01*
X12147Y267853D01*
X13629Y269542D01*
X14877Y271411D01*
X15871Y273426D01*
X16593Y275554D01*
X17031Y277758D01*
X17178Y280000D01*
X17031Y282242D01*
X16593Y284446D01*
X15871Y286574D01*
X14877Y288589D01*
X13629Y290458D01*
X12147Y292147D01*
X10458Y293629D01*
X8589Y294877D01*
X6574Y295871D01*
X4446Y296593D01*
X2242Y297032D01*
X0Y297179D01*
D02*
G37*
G36*
X276750Y256892D02*
Y253250D01*
X280392D01*
X280338Y253662D01*
X279889Y254746D01*
X279176Y255676D01*
X278246Y256389D01*
X277162Y256838D01*
X276750Y256892D01*
D02*
G37*
G36*
X275250D02*
X274838Y256838D01*
X273754Y256389D01*
X272824Y255676D01*
X272111Y254746D01*
X271662Y253662D01*
X271608Y253250D01*
X275250D01*
Y256892D01*
D02*
G37*
G36*
X246750D02*
Y253250D01*
X250392D01*
X250338Y253662D01*
X249889Y254746D01*
X249176Y255676D01*
X248246Y256389D01*
X247162Y256838D01*
X246750Y256892D01*
D02*
G37*
G36*
X245250D02*
X244838Y256838D01*
X243754Y256389D01*
X242824Y255676D01*
X242110Y254746D01*
X241662Y253662D01*
X241608Y253250D01*
X245250D01*
Y256892D01*
D02*
G37*
G36*
X269953Y256453D02*
X262047D01*
Y248547D01*
X269953D01*
Y256453D01*
D02*
G37*
G36*
X239953D02*
X232047D01*
Y248547D01*
X239953D01*
Y256453D01*
D02*
G37*
G36*
X206000Y256487D02*
X204968Y256351D01*
X204007Y255953D01*
X203181Y255319D01*
X202547Y254493D01*
X202149Y253532D01*
X202013Y252500D01*
X202149Y251468D01*
X202547Y250506D01*
X203181Y249681D01*
X204007Y249047D01*
X204968Y248649D01*
X206000Y248513D01*
X207032Y248649D01*
X207993Y249047D01*
X208819Y249681D01*
X209453Y250506D01*
X209851Y251468D01*
X209987Y252500D01*
X209851Y253532D01*
X209453Y254493D01*
X208819Y255319D01*
X207993Y255953D01*
X207032Y256351D01*
X206000Y256487D01*
D02*
G37*
G36*
X280392Y251750D02*
X276750D01*
Y248108D01*
X277162Y248162D01*
X278246Y248610D01*
X279176Y249324D01*
X279889Y250254D01*
X280338Y251338D01*
X280392Y251750D01*
D02*
G37*
G36*
X275250D02*
X271608D01*
X271662Y251338D01*
X272111Y250254D01*
X272824Y249324D01*
X273754Y248610D01*
X274838Y248162D01*
X275250Y248108D01*
Y251750D01*
D02*
G37*
G36*
X250392D02*
X246750D01*
Y248108D01*
X247162Y248162D01*
X248246Y248610D01*
X249176Y249324D01*
X249889Y250254D01*
X250338Y251338D01*
X250392Y251750D01*
D02*
G37*
G36*
X245250D02*
X241608D01*
X241662Y251338D01*
X242110Y250254D01*
X242824Y249324D01*
X243754Y248610D01*
X244838Y248162D01*
X245250Y248108D01*
Y251750D01*
D02*
G37*
G36*
X267598Y240461D02*
X260677D01*
Y233539D01*
X267598D01*
Y240461D01*
D02*
G37*
G36*
X274138Y230490D02*
X273234Y230371D01*
X272393Y230023D01*
X271670Y229468D01*
X271115Y228745D01*
X270766Y227903D01*
X270647Y227000D01*
X270766Y226097D01*
X271115Y225255D01*
X271670Y224532D01*
X272393Y223977D01*
X273234Y223628D01*
X274138Y223510D01*
X275041Y223628D01*
X275883Y223977D01*
X276606Y224532D01*
X277161Y225255D01*
X277509Y226097D01*
X277628Y227000D01*
X277509Y227903D01*
X277161Y228745D01*
X276606Y229468D01*
X275883Y230023D01*
X275041Y230371D01*
X274138Y230490D01*
D02*
G37*
G36*
X264138Y220491D02*
X263234Y220372D01*
X262393Y220023D01*
X261670Y219468D01*
X261115Y218745D01*
X260766Y217903D01*
X260647Y217000D01*
X260766Y216096D01*
X261115Y215255D01*
X261670Y214532D01*
X262393Y213977D01*
X263234Y213628D01*
X264138Y213509D01*
X265041Y213628D01*
X265883Y213977D01*
X266606Y214532D01*
X267161Y215255D01*
X267509Y216096D01*
X267628Y217000D01*
X267509Y217903D01*
X267161Y218745D01*
X266606Y219468D01*
X265883Y220023D01*
X265041Y220372D01*
X264138Y220491D01*
D02*
G37*
G36*
X37250Y188492D02*
Y185148D01*
X40595D01*
X40551Y185483D01*
X40132Y186494D01*
X39465Y187363D01*
X38597Y188029D01*
X37585Y188448D01*
X37250Y188492D01*
D02*
G37*
G36*
X35750D02*
X35415Y188448D01*
X34403Y188029D01*
X33535Y187363D01*
X32868Y186494D01*
X32449Y185483D01*
X32405Y185148D01*
X35750D01*
Y188492D01*
D02*
G37*
G36*
X40595Y183648D02*
X37250D01*
Y180303D01*
X37585Y180347D01*
X38597Y180766D01*
X39465Y181432D01*
X40132Y182301D01*
X40551Y183312D01*
X40595Y183648D01*
D02*
G37*
G36*
X35750D02*
X32405D01*
X32449Y183312D01*
X32868Y182301D01*
X33535Y181432D01*
X34403Y180766D01*
X35415Y180347D01*
X35750Y180303D01*
Y183648D01*
D02*
G37*
G36*
X219953Y256453D02*
X212047D01*
Y248547D01*
X217429D01*
X223216Y242761D01*
Y204000D01*
X223352Y203317D01*
X223738Y202738D01*
X229202Y197274D01*
X228581Y195774D01*
X227000D01*
X226512Y195677D01*
X226099Y195401D01*
X173472Y142774D01*
X164772D01*
X164573Y143072D01*
X163851Y143554D01*
X163000Y143724D01*
X162149Y143554D01*
X161427Y143072D01*
X160945Y142351D01*
X160776Y141500D01*
X160821Y141274D01*
X159979Y139956D01*
X159726Y139775D01*
X86272D01*
X86072Y140073D01*
X85351Y140554D01*
X84500Y140724D01*
X84275Y140679D01*
X82956Y141521D01*
X82775Y141774D01*
Y165000D01*
X82678Y165488D01*
X82401Y165901D01*
X81654Y166648D01*
X81724Y167000D01*
X81555Y167851D01*
X81072Y168572D01*
X80351Y169054D01*
X79500Y169224D01*
X78649Y169054D01*
X77928Y168572D01*
X77446Y167851D01*
X77276Y167000D01*
X77446Y166149D01*
X77928Y165427D01*
X78649Y164945D01*
X79500Y164776D01*
X80225Y163429D01*
Y68500D01*
X80322Y68012D01*
X80599Y67599D01*
X86012Y62186D01*
X85319Y60777D01*
X83928Y60688D01*
X44094Y100521D01*
Y105673D01*
X43414D01*
X42905Y107173D01*
X43046Y107281D01*
X43632Y108045D01*
X44000Y108935D01*
X44126Y109890D01*
X44000Y110845D01*
X43632Y111734D01*
X43046Y112498D01*
X42399Y112994D01*
X42297Y113827D01*
X42399Y114659D01*
X43046Y115155D01*
X43632Y115919D01*
X44000Y116809D01*
X44126Y117764D01*
X44000Y118719D01*
X43632Y119608D01*
X43046Y120372D01*
X42399Y120868D01*
X42297Y121701D01*
X42399Y122533D01*
X43046Y123029D01*
X43632Y123793D01*
X44000Y124683D01*
X44126Y125638D01*
X44000Y126593D01*
X43632Y127482D01*
X43046Y128246D01*
X42399Y128742D01*
X42297Y129575D01*
X42399Y130407D01*
X43046Y130903D01*
X43632Y131667D01*
X44000Y132557D01*
X44126Y133512D01*
X44000Y134467D01*
X43632Y135356D01*
X43046Y136120D01*
X42399Y136616D01*
X42297Y137449D01*
X42399Y138281D01*
X43046Y138777D01*
X43632Y139541D01*
X44000Y140431D01*
X44126Y141386D01*
X44000Y142341D01*
X43632Y143230D01*
X43046Y143994D01*
X42399Y144490D01*
X42297Y145323D01*
X42399Y146155D01*
X43046Y146651D01*
X43632Y147415D01*
X44000Y148305D01*
X44126Y149260D01*
X44000Y150215D01*
X43632Y151104D01*
X43046Y151868D01*
X42399Y152364D01*
X42297Y153197D01*
X42399Y154029D01*
X43046Y154525D01*
X43632Y155289D01*
X44000Y156179D01*
X44126Y157134D01*
X44000Y158089D01*
X43632Y158978D01*
X43046Y159742D01*
X42399Y160238D01*
X42297Y161071D01*
X42399Y161903D01*
X43046Y162399D01*
X43632Y163163D01*
X44000Y164053D01*
X44126Y165008D01*
X44000Y165963D01*
X43632Y166852D01*
X43046Y167616D01*
X42399Y168112D01*
X42297Y168945D01*
X42399Y169778D01*
X43046Y170273D01*
X43632Y171037D01*
X44000Y171927D01*
X44126Y172882D01*
X44000Y173837D01*
X43632Y174726D01*
X43046Y175490D01*
X42281Y176077D01*
X41392Y176445D01*
X40437Y176571D01*
X39482Y176445D01*
X38592Y176077D01*
X37828Y175490D01*
X37684Y175302D01*
X37189Y175195D01*
X36063Y175279D01*
X35908Y175352D01*
X35528Y175847D01*
X34660Y176513D01*
X33648Y176932D01*
X33313Y176977D01*
Y172882D01*
X32563D01*
Y172132D01*
X28468D01*
X28512Y171797D01*
X28931Y170785D01*
X29598Y169917D01*
X29671Y169861D01*
Y168029D01*
X29598Y167973D01*
X28931Y167104D01*
X28512Y166093D01*
X28468Y165758D01*
X32563D01*
Y164258D01*
X28468D01*
X28512Y163923D01*
X28931Y162911D01*
X29598Y162043D01*
X29671Y161987D01*
Y160155D01*
X29598Y160099D01*
X28931Y159230D01*
X28512Y158219D01*
X28468Y157884D01*
X32563D01*
Y156384D01*
X28468D01*
X28512Y156049D01*
X28931Y155037D01*
X29598Y154169D01*
X29671Y154113D01*
Y152281D01*
X29598Y152225D01*
X28931Y151356D01*
X28512Y150345D01*
X28468Y150010D01*
X32563D01*
Y148510D01*
X28468D01*
X28512Y148175D01*
X28931Y147163D01*
X29598Y146295D01*
X29671Y146239D01*
Y144407D01*
X29598Y144351D01*
X28931Y143482D01*
X28512Y142471D01*
X28468Y142136D01*
X32563D01*
Y140636D01*
X28468D01*
X28512Y140301D01*
X28931Y139289D01*
X29598Y138421D01*
X29671Y138365D01*
Y136533D01*
X29598Y136477D01*
X28931Y135608D01*
X28512Y134597D01*
X28468Y134262D01*
X32563D01*
Y132762D01*
X28468D01*
X28512Y132427D01*
X28931Y131415D01*
X29598Y130547D01*
X29671Y130491D01*
Y128659D01*
X29598Y128603D01*
X28931Y127734D01*
X28512Y126723D01*
X28468Y126388D01*
X32563D01*
Y124888D01*
X28468D01*
X28512Y124552D01*
X28931Y123541D01*
X29598Y122673D01*
X29671Y122617D01*
Y120785D01*
X29598Y120729D01*
X28931Y119860D01*
X28512Y118849D01*
X28468Y118514D01*
X32563D01*
Y117014D01*
X28468D01*
X28512Y116678D01*
X28931Y115667D01*
X29598Y114799D01*
X29671Y114743D01*
Y112911D01*
X29598Y112855D01*
X28931Y111986D01*
X28512Y110975D01*
X28468Y110640D01*
X32563D01*
Y109140D01*
X28468D01*
X28512Y108804D01*
X28931Y107793D01*
X29598Y106925D01*
X30093Y106545D01*
X30166Y106389D01*
X30250Y105263D01*
X30143Y104769D01*
X29954Y104624D01*
X29368Y103860D01*
X29000Y102971D01*
X28874Y102016D01*
X29000Y101061D01*
X29368Y100171D01*
X29954Y99407D01*
X30718Y98821D01*
X31608Y98452D01*
X32563Y98327D01*
X33518Y98452D01*
X34407Y98821D01*
X35171Y99407D01*
X35280Y99548D01*
X36779Y99039D01*
Y98358D01*
X41932D01*
X82871Y57419D01*
X83367Y57087D01*
X83953Y56971D01*
X179500D01*
X180085Y57087D01*
X180581Y57419D01*
X188956Y65793D01*
X189122Y65724D01*
X190000Y65609D01*
X190878Y65724D01*
X191696Y66063D01*
X192398Y66602D01*
X192937Y67304D01*
X193276Y68122D01*
X193391Y69000D01*
X193276Y69878D01*
X192937Y70696D01*
X192398Y71398D01*
X191696Y71937D01*
X190878Y72276D01*
X190000Y72391D01*
X189122Y72276D01*
X188304Y71937D01*
X187602Y71398D01*
X187063Y70696D01*
X186724Y69878D01*
X186609Y69000D01*
X186724Y68122D01*
X186793Y67956D01*
X178867Y60029D01*
X91807D01*
X90724Y61500D01*
X90554Y62351D01*
X90073Y63073D01*
X89351Y63555D01*
X88500Y63724D01*
X88148Y63654D01*
X82775Y69028D01*
Y75531D01*
X83078Y75767D01*
X84275Y76196D01*
X84649Y75945D01*
X85500Y75776D01*
X86351Y75945D01*
X87072Y76428D01*
X87272Y76726D01*
X116000D01*
X116488Y76823D01*
X116901Y77099D01*
X227028Y187225D01*
X339228D01*
X339427Y186927D01*
X340149Y186445D01*
X341000Y186276D01*
X341851Y186445D01*
X342572Y186927D01*
X343055Y187649D01*
X343224Y188500D01*
X343763Y189157D01*
X346383D01*
X347776Y188500D01*
X347945Y187649D01*
X348428Y186927D01*
X349149Y186445D01*
X350000Y186276D01*
X350851Y186445D01*
X351572Y186927D01*
X352055Y187649D01*
X352224Y188500D01*
X352055Y189351D01*
X351572Y190073D01*
X350851Y190554D01*
X350000Y190724D01*
X349648Y190654D01*
X348970Y191332D01*
X348557Y191609D01*
X348069Y191706D01*
X337990D01*
X337447Y192582D01*
X337809Y193226D01*
X354472D01*
X358846Y188851D01*
X358776Y188500D01*
X358945Y187649D01*
X359427Y186927D01*
X360149Y186445D01*
X361000Y186276D01*
X361851Y186445D01*
X362573Y186927D01*
X363055Y187649D01*
X363224Y188500D01*
X363055Y189351D01*
X362573Y190073D01*
X361851Y190554D01*
X361000Y190724D01*
X360648Y190654D01*
X357087Y194216D01*
X357708Y195716D01*
X369216D01*
Y187739D01*
X356261Y174784D01*
X296000D01*
X296000Y174784D01*
X295317Y174648D01*
X294738Y174262D01*
X294738Y174262D01*
X284738Y164262D01*
X284351Y163683D01*
X284216Y163000D01*
Y88239D01*
X273267Y77290D01*
X272500Y77391D01*
X271622Y77276D01*
X270804Y76937D01*
X270102Y76398D01*
X269563Y75696D01*
X269224Y74878D01*
X269109Y74000D01*
X269224Y73122D01*
X269563Y72304D01*
X270102Y71602D01*
X270804Y71063D01*
X271622Y70724D01*
X272500Y70609D01*
X273378Y70724D01*
X274196Y71063D01*
X274898Y71602D01*
X275437Y72304D01*
X275776Y73122D01*
X275891Y74000D01*
X275790Y74767D01*
X287262Y86238D01*
X287262Y86238D01*
X287649Y86817D01*
X287784Y87500D01*
Y162261D01*
X296739Y171216D01*
X357000D01*
X357683Y171352D01*
X358262Y171738D01*
X372262Y185738D01*
X372649Y186317D01*
X372784Y187000D01*
X372784Y187000D01*
Y198000D01*
X372784Y198000D01*
X372784Y198000D01*
Y200631D01*
X373398Y201102D01*
X373937Y201804D01*
X374276Y202622D01*
X374391Y203500D01*
X374276Y204378D01*
X373937Y205196D01*
X373398Y205898D01*
X372696Y206437D01*
X371878Y206776D01*
X371000Y206891D01*
X370122Y206776D01*
X369304Y206437D01*
X368602Y205898D01*
X368063Y205196D01*
X367724Y204378D01*
X367609Y203500D01*
X367724Y202622D01*
X368063Y201804D01*
X368602Y201102D01*
X369016Y200784D01*
X368888Y199284D01*
X318755D01*
X318224Y199931D01*
X318055Y200782D01*
X317572Y201504D01*
X316851Y201986D01*
X316000Y202155D01*
X315289Y202013D01*
X304275Y213028D01*
Y240728D01*
X304573Y240928D01*
X305055Y241649D01*
X305224Y242500D01*
X305055Y243351D01*
X304573Y244072D01*
X303851Y244554D01*
X303000Y244724D01*
X302149Y244554D01*
X301428Y244072D01*
X300945Y243351D01*
X300776Y242500D01*
X300945Y241649D01*
X301428Y240928D01*
X301726Y240728D01*
Y212500D01*
X301822Y212012D01*
X302099Y211599D01*
X312913Y200784D01*
X312292Y199284D01*
X282529D01*
Y217494D01*
X282696Y217563D01*
X283398Y218102D01*
X283937Y218804D01*
X284276Y219622D01*
X284391Y220500D01*
X284276Y221378D01*
X283937Y222196D01*
X283398Y222898D01*
X282696Y223437D01*
X281878Y223776D01*
X281000Y223891D01*
X280122Y223776D01*
X279304Y223437D01*
X278602Y222898D01*
X278063Y222196D01*
X277724Y221378D01*
X277609Y220500D01*
X277724Y219622D01*
X278063Y218804D01*
X278602Y218102D01*
X279304Y217563D01*
X279471Y217494D01*
Y199284D01*
X253645D01*
X253207Y200056D01*
X253038Y200784D01*
X253437Y201304D01*
X253776Y202122D01*
X253891Y203000D01*
X253776Y203878D01*
X253437Y204696D01*
X252898Y205398D01*
X252196Y205937D01*
X251378Y206276D01*
X250500Y206391D01*
X249622Y206276D01*
X248804Y205937D01*
X248102Y205398D01*
X247563Y204696D01*
X247224Y203878D01*
X247109Y203000D01*
X247224Y202122D01*
X247563Y201304D01*
X247962Y200784D01*
X247793Y200056D01*
X247355Y199284D01*
X232239D01*
X226784Y204739D01*
Y243500D01*
X226648Y244183D01*
X226262Y244762D01*
X219953Y251071D01*
Y256453D01*
D02*
G37*
G36*
X31813Y176977D02*
X31478Y176932D01*
X30466Y176513D01*
X29598Y175847D01*
X28931Y174979D01*
X28512Y173967D01*
X28468Y173632D01*
X31813D01*
Y176977D01*
D02*
G37*
G36*
X454239Y163520D02*
X297761D01*
X297663Y163500D01*
X297562D01*
X296113Y163212D01*
X296021Y163173D01*
X295922Y163154D01*
X294557Y162588D01*
X294474Y162533D01*
X294381Y162494D01*
X293153Y161673D01*
X293082Y161602D01*
X292998Y161547D01*
X291953Y160502D01*
X291898Y160418D01*
X291827Y160347D01*
X291006Y159119D01*
X290967Y159026D01*
X290912Y158943D01*
X290346Y157578D01*
X290327Y157479D01*
X290288Y157387D01*
X290000Y155938D01*
Y155837D01*
X289980Y155739D01*
Y155000D01*
Y125000D01*
Y124261D01*
X290000Y124163D01*
Y124062D01*
X290288Y122613D01*
X290327Y122521D01*
X290346Y122422D01*
X290912Y121057D01*
X290967Y120974D01*
X291006Y120881D01*
X291827Y119652D01*
X291898Y119581D01*
X291953Y119498D01*
X292998Y118453D01*
X293082Y118398D01*
X293153Y118327D01*
X294381Y117506D01*
X294474Y117467D01*
X294557Y117412D01*
X295922Y116846D01*
X296021Y116827D01*
X296113Y116788D01*
X297562Y116500D01*
X297663D01*
X297761Y116480D01*
X454239D01*
X454337Y116500D01*
X454438D01*
X455887Y116788D01*
X455979Y116827D01*
X456078Y116846D01*
X457443Y117412D01*
X457526Y117467D01*
X457619Y117506D01*
X458847Y118327D01*
X458918Y118398D01*
X459002Y118453D01*
X460047Y119498D01*
X460102Y119581D01*
X460173Y119652D01*
X460994Y120881D01*
X461033Y120974D01*
X461088Y121057D01*
X461654Y122422D01*
X461673Y122521D01*
X461712Y122613D01*
X462000Y124062D01*
Y124163D01*
X462020Y124261D01*
Y125000D01*
Y155000D01*
X462020Y155000D01*
X462020Y155739D01*
X462000Y155837D01*
Y155938D01*
X461712Y157387D01*
X461673Y157479D01*
X461654Y157578D01*
X461088Y158943D01*
X461033Y159026D01*
X460994Y159119D01*
X460173Y160347D01*
X460102Y160418D01*
X460047Y160502D01*
X459002Y161547D01*
X458918Y161602D01*
X458847Y161673D01*
X457619Y162494D01*
X457526Y162533D01*
X457443Y162588D01*
X456078Y163154D01*
X455979Y163173D01*
X455887Y163212D01*
X454438Y163500D01*
X454337D01*
X454239Y163520D01*
D02*
G37*
G36*
X274239D02*
X237761D01*
X237663Y163500D01*
X237562D01*
X236113Y163212D01*
X236021Y163173D01*
X235922Y163154D01*
X234557Y162588D01*
X234474Y162533D01*
X234381Y162494D01*
X233153Y161673D01*
X233082Y161602D01*
X232998Y161547D01*
X231953Y160502D01*
X231898Y160418D01*
X231827Y160347D01*
X231006Y159119D01*
X230967Y159026D01*
X230912Y158943D01*
X230346Y157578D01*
X230327Y157479D01*
X230288Y157387D01*
X230000Y155938D01*
Y155837D01*
X229980Y155739D01*
Y155000D01*
Y125000D01*
Y124261D01*
X230000Y124163D01*
Y124062D01*
X230288Y122613D01*
X230327Y122521D01*
X230346Y122422D01*
X230912Y121057D01*
X230967Y120974D01*
X231006Y120881D01*
X231827Y119652D01*
X231898Y119581D01*
X231953Y119498D01*
X232998Y118453D01*
X233082Y118398D01*
X233153Y118327D01*
X234381Y117506D01*
X234474Y117467D01*
X234557Y117412D01*
X235922Y116846D01*
X236021Y116827D01*
X236113Y116788D01*
X237562Y116500D01*
X237663D01*
X237761Y116480D01*
X274239D01*
X274337Y116500D01*
X274438D01*
X275887Y116788D01*
X275979Y116827D01*
X276078Y116846D01*
X277443Y117412D01*
X277526Y117467D01*
X277619Y117506D01*
X278847Y118327D01*
X278918Y118398D01*
X279002Y118453D01*
X280047Y119498D01*
X280102Y119581D01*
X280173Y119652D01*
X280994Y120881D01*
X281033Y120974D01*
X281088Y121057D01*
X281654Y122422D01*
X281673Y122521D01*
X281712Y122613D01*
X282000Y124062D01*
Y124163D01*
X282020Y124261D01*
Y125000D01*
Y155000D01*
Y155739D01*
X282000Y155837D01*
Y155938D01*
X281712Y157387D01*
X281673Y157479D01*
X281654Y157578D01*
X281088Y158943D01*
X281033Y159026D01*
X280994Y159119D01*
X280173Y160347D01*
X280102Y160418D01*
X280047Y160502D01*
X279002Y161547D01*
X278918Y161602D01*
X278847Y161673D01*
X277619Y162494D01*
X277526Y162533D01*
X277443Y162588D01*
X276078Y163154D01*
X275979Y163173D01*
X275887Y163212D01*
X274438Y163500D01*
X274337D01*
X274239Y163520D01*
D02*
G37*
G36*
X37250Y94595D02*
Y91250D01*
X40595D01*
X40551Y91585D01*
X40132Y92597D01*
X39465Y93465D01*
X38597Y94131D01*
X37585Y94550D01*
X37250Y94595D01*
D02*
G37*
G36*
X35750D02*
X35415Y94550D01*
X34403Y94131D01*
X33535Y93465D01*
X32868Y92597D01*
X32449Y91585D01*
X32405Y91250D01*
X35750D01*
Y94595D01*
D02*
G37*
G36*
X190500Y95391D02*
X189622Y95276D01*
X188804Y94937D01*
X188102Y94398D01*
X187563Y93696D01*
X187224Y92878D01*
X187109Y92000D01*
X187168Y91552D01*
X173018Y77401D01*
X136893D01*
X136196Y77937D01*
X135378Y78276D01*
X134500Y78391D01*
X133622Y78276D01*
X132804Y77937D01*
X132102Y77398D01*
X131563Y76696D01*
X131224Y75878D01*
X131109Y75000D01*
X131224Y74122D01*
X131563Y73304D01*
X132102Y72602D01*
X132804Y72063D01*
X133622Y71724D01*
X134500Y71609D01*
X135378Y71724D01*
X136196Y72063D01*
X136898Y72602D01*
X137437Y73304D01*
X137445Y73323D01*
X138992D01*
X139349Y73049D01*
X140151Y71823D01*
X140109Y71500D01*
X140224Y70622D01*
X140563Y69804D01*
X141102Y69102D01*
X141804Y68563D01*
X142622Y68224D01*
X143500Y68109D01*
X144378Y68224D01*
X145196Y68563D01*
X145898Y69102D01*
X146437Y69804D01*
X146506Y69971D01*
X180000D01*
X180585Y70087D01*
X181081Y70419D01*
X197956Y87293D01*
X198122Y87224D01*
X199000Y87109D01*
X199878Y87224D01*
X200696Y87563D01*
X201398Y88102D01*
X201937Y88804D01*
X202276Y89622D01*
X202391Y90500D01*
X202276Y91378D01*
X201937Y92196D01*
X201398Y92898D01*
X200696Y93437D01*
X199878Y93776D01*
X199000Y93891D01*
X198122Y93776D01*
X197304Y93437D01*
X196602Y92898D01*
X196063Y92196D01*
X195724Y91378D01*
X195609Y90500D01*
X195724Y89622D01*
X195793Y89456D01*
X179367Y73029D01*
X176535D01*
X175913Y74529D01*
X190052Y88668D01*
X190500Y88609D01*
X191378Y88724D01*
X192196Y89063D01*
X192898Y89602D01*
X193437Y90304D01*
X193776Y91122D01*
X193891Y92000D01*
X193776Y92878D01*
X193437Y93696D01*
X192898Y94398D01*
X192196Y94937D01*
X191378Y95276D01*
X190500Y95391D01*
D02*
G37*
G36*
X40595Y89750D02*
X37250D01*
Y86405D01*
X37585Y86449D01*
X38597Y86868D01*
X39465Y87535D01*
X40132Y88403D01*
X40551Y89415D01*
X40595Y89750D01*
D02*
G37*
G36*
X35750D02*
X32405D01*
X32449Y89415D01*
X32868Y88403D01*
X33535Y87535D01*
X34403Y86868D01*
X35415Y86449D01*
X35750Y86405D01*
Y89750D01*
D02*
G37*
G36*
X314476Y52050D02*
X311524D01*
X310492Y51914D01*
X309530Y51516D01*
X308704Y50882D01*
X308071Y50056D01*
X307673Y49095D01*
X307537Y48063D01*
X307673Y47031D01*
X308071Y46070D01*
X308704Y45244D01*
X309530Y44610D01*
X310492Y44212D01*
X311524Y44076D01*
X314476D01*
X315508Y44212D01*
X316470Y44610D01*
X317296Y45244D01*
X317929Y46070D01*
X318327Y47031D01*
X318463Y48063D01*
X318327Y49095D01*
X317929Y50056D01*
X317296Y50882D01*
X316470Y51516D01*
X315508Y51914D01*
X314476Y52050D01*
D02*
G37*
G36*
X324774Y43696D02*
Y38577D01*
X328515D01*
Y39303D01*
X328362Y40466D01*
X327913Y41549D01*
X327199Y42479D01*
X326269Y43193D01*
X325186Y43641D01*
X324774Y43696D01*
D02*
G37*
G36*
X323274Y43696D02*
X322861Y43641D01*
X321778Y43193D01*
X320848Y42479D01*
X320134Y41549D01*
X319686Y40466D01*
X319532Y39303D01*
Y38577D01*
X323274D01*
Y43696D01*
D02*
G37*
G36*
Y37077D02*
X319532D01*
Y36350D01*
X319686Y35188D01*
X320134Y34105D01*
X320848Y33175D01*
X321778Y32461D01*
X322861Y32012D01*
X323274Y31958D01*
Y37077D01*
D02*
G37*
G36*
X328515D02*
X324774D01*
Y31958D01*
X325186Y32012D01*
X326269Y32461D01*
X327199Y33175D01*
X327913Y34105D01*
X328362Y35188D01*
X328515Y36350D01*
Y37077D01*
D02*
G37*
G36*
X314476Y33263D02*
X313750D01*
Y29522D01*
X318869D01*
X318814Y29934D01*
X318366Y31017D01*
X317652Y31947D01*
X316722Y32661D01*
X315639Y33110D01*
X314476Y33263D01*
D02*
G37*
G36*
X312250D02*
X311524D01*
X310361Y33110D01*
X309278Y32661D01*
X308348Y31947D01*
X307634Y31017D01*
X307186Y29934D01*
X307131Y29522D01*
X312250D01*
Y33263D01*
D02*
G37*
G36*
X318869Y28022D02*
X313750D01*
Y24281D01*
X314476D01*
X315639Y24433D01*
X316722Y24882D01*
X317652Y25596D01*
X318366Y26526D01*
X318814Y27609D01*
X318869Y28022D01*
D02*
G37*
G36*
X312250D02*
X307131D01*
X307186Y27609D01*
X307634Y26526D01*
X308348Y25596D01*
X309278Y24882D01*
X310361Y24433D01*
X311524Y24281D01*
X312250D01*
Y28022D01*
D02*
G37*
G36*
X396000Y83891D02*
X395122Y83776D01*
X394304Y83437D01*
X393602Y82898D01*
X393063Y82196D01*
X392724Y81378D01*
X392609Y80500D01*
X392724Y79622D01*
X393063Y78804D01*
X393602Y78102D01*
X394304Y77563D01*
X394471Y77494D01*
Y52925D01*
X361069Y19523D01*
X360803Y19633D01*
X359874Y19755D01*
X358945Y19633D01*
X358079Y19274D01*
X357336Y18704D01*
X357095Y18391D01*
X356236Y18292D01*
X355726Y18332D01*
X355351Y18466D01*
X354895Y19060D01*
X354047Y19711D01*
X353060Y20120D01*
X352446Y20201D01*
X351895Y21331D01*
X351856Y21733D01*
X387081Y56958D01*
X387413Y57454D01*
X387529Y58039D01*
Y77494D01*
X387696Y77563D01*
X388398Y78102D01*
X388937Y78804D01*
X389276Y79622D01*
X389391Y80500D01*
X389276Y81378D01*
X388937Y82196D01*
X388398Y82898D01*
X387696Y83437D01*
X386878Y83776D01*
X386000Y83891D01*
X385122Y83776D01*
X384304Y83437D01*
X383602Y82898D01*
X383063Y82196D01*
X382724Y81378D01*
X382609Y80500D01*
X382724Y79622D01*
X383063Y78804D01*
X383602Y78102D01*
X384304Y77563D01*
X384471Y77494D01*
Y58673D01*
X345522Y19724D01*
X340567D01*
Y12606D01*
X347685D01*
Y12657D01*
X348823Y13149D01*
X349185Y13209D01*
X349953Y12620D01*
X350940Y12211D01*
X351250Y12170D01*
Y16165D01*
X352750D01*
Y12170D01*
X353060Y12211D01*
X354047Y12620D01*
X354895Y13270D01*
X355351Y13865D01*
X355726Y13999D01*
X356236Y14039D01*
X357095Y13940D01*
X357336Y13627D01*
X358079Y13057D01*
X358945Y12698D01*
X359874Y12576D01*
X360803Y12698D01*
X361669Y13057D01*
X362412Y13627D01*
X362983Y14370D01*
X363341Y15236D01*
X363464Y16165D01*
X363341Y17095D01*
X363231Y17360D01*
X397081Y51210D01*
X397413Y51706D01*
X397529Y52291D01*
Y77494D01*
X397696Y77563D01*
X398398Y78102D01*
X398937Y78804D01*
X399276Y79622D01*
X399391Y80500D01*
X399276Y81378D01*
X398937Y82196D01*
X398398Y82898D01*
X397696Y83437D01*
X396878Y83776D01*
X396000Y83891D01*
D02*
G37*
G36*
X487500Y17178D02*
X485258Y17031D01*
X483054Y16593D01*
X480926Y15871D01*
X478911Y14877D01*
X477042Y13629D01*
X475353Y12147D01*
X473871Y10458D01*
X472623Y8589D01*
X471629Y6574D01*
X470907Y4446D01*
X470469Y2242D01*
X470322Y0D01*
X470469Y-2242D01*
X470907Y-4446D01*
X471629Y-6574D01*
X472623Y-8589D01*
X473871Y-10458D01*
X475353Y-12147D01*
X477042Y-13629D01*
X478911Y-14877D01*
X480926Y-15871D01*
X483054Y-16593D01*
X485258Y-17031D01*
X487500Y-17178D01*
X489742Y-17031D01*
X491946Y-16593D01*
X494074Y-15871D01*
X496089Y-14877D01*
X497958Y-13629D01*
X499647Y-12147D01*
X501129Y-10458D01*
X502377Y-8589D01*
X503371Y-6574D01*
X504093Y-4446D01*
X504531Y-2242D01*
X504678Y0D01*
X504531Y2242D01*
X504093Y4446D01*
X503371Y6574D01*
X502377Y8589D01*
X501129Y10458D01*
X499647Y12147D01*
X497958Y13629D01*
X496089Y14877D01*
X494074Y15871D01*
X491946Y16593D01*
X489742Y17031D01*
X487500Y17178D01*
D02*
G37*
G36*
X0D02*
X-2242Y17031D01*
X-4446Y16593D01*
X-6574Y15871D01*
X-8589Y14877D01*
X-10458Y13629D01*
X-12147Y12147D01*
X-13629Y10458D01*
X-14877Y8589D01*
X-15871Y6574D01*
X-16593Y4446D01*
X-17031Y2242D01*
X-17178Y0D01*
X-17031Y-2242D01*
X-16593Y-4446D01*
X-15871Y-6574D01*
X-14877Y-8589D01*
X-13629Y-10458D01*
X-12147Y-12147D01*
X-10458Y-13629D01*
X-8589Y-14877D01*
X-6574Y-15871D01*
X-4446Y-16593D01*
X-2242Y-17031D01*
X0Y-17178D01*
X2242Y-17031D01*
X4446Y-16593D01*
X6574Y-15871D01*
X8589Y-14877D01*
X10458Y-13629D01*
X12147Y-12147D01*
X13629Y-10458D01*
X14877Y-8589D01*
X15871Y-6574D01*
X16593Y-4446D01*
X17031Y-2242D01*
X17178Y0D01*
X17031Y2242D01*
X16593Y4446D01*
X15871Y6574D01*
X14877Y8589D01*
X13629Y10458D01*
X12147Y12147D01*
X10458Y13629D01*
X8589Y14877D01*
X6574Y15871D01*
X4446Y16593D01*
X2242Y17031D01*
X0Y17178D01*
D02*
G37*
%LPD*%
G36*
X170451Y135840D02*
X124386Y89775D01*
X86272D01*
X86072Y90073D01*
X85351Y90554D01*
X84500Y90724D01*
X84275Y90679D01*
X82956Y91521D01*
X82775Y91774D01*
Y135226D01*
X82956Y135479D01*
X84275Y136321D01*
X84500Y136276D01*
X85351Y136445D01*
X86072Y136927D01*
X86272Y137225D01*
X169878D01*
X170451Y135840D01*
D02*
G37*
D13*
X281000Y197500D02*
Y220500D01*
X83953Y58500D02*
X179500D01*
X40437Y102016D02*
X83953Y58500D01*
X179500D02*
X190000Y69000D01*
X180000Y71500D02*
X199000Y90500D01*
X143500Y71500D02*
X180000D01*
X359874Y16165D02*
X396000Y52291D01*
Y80500D01*
X344126Y16165D02*
X386000Y58039D01*
Y80500D01*
D78*
X40437Y102016D02*
D03*
D79*
X32563Y172882D02*
D03*
X40437D02*
D03*
X32563Y165008D02*
D03*
Y157134D02*
D03*
X40437Y165008D02*
D03*
Y157134D02*
D03*
X36500Y184398D02*
D03*
X40437Y141386D02*
D03*
Y149260D02*
D03*
X32563Y141386D02*
D03*
Y149260D02*
D03*
X36500Y90500D02*
D03*
X32563Y102016D02*
D03*
Y133512D02*
D03*
Y125638D02*
D03*
Y117764D02*
D03*
Y109890D02*
D03*
X40437Y133512D02*
D03*
Y125638D02*
D03*
Y117764D02*
D03*
Y109890D02*
D03*
D80*
X163000Y141500D02*
X174000D01*
X227500Y192500D02*
X333500D01*
X226845Y190431D02*
X348069D01*
X116000Y78000D02*
X226500Y188500D01*
X124914Y88500D02*
X226845Y190431D01*
X173500Y138500D02*
X227500Y192500D01*
X226500Y188500D02*
X341000D01*
X85500Y78000D02*
X116000D01*
X84500Y88500D02*
X124914D01*
X84500Y138500D02*
X173500D01*
X174000Y141500D02*
X227000Y194500D01*
X355000D01*
X361000Y188500D01*
X348069Y190431D02*
X350000Y188500D01*
X303000Y212500D02*
X315569Y199931D01*
X316000D01*
X81500Y68500D02*
X88500Y61500D01*
X79500Y167000D02*
X81500Y165000D01*
Y68500D02*
Y165000D01*
X303000Y212500D02*
Y242500D01*
D81*
X296000Y173000D02*
X326000D01*
X357000D01*
X250500Y197500D02*
X281000D01*
X231500D02*
X250500D01*
Y203000D01*
X225000Y204000D02*
Y243500D01*
Y204000D02*
X231500Y197500D01*
X281000D02*
X370500D01*
X216000Y252500D02*
X225000Y243500D01*
X370500Y197500D02*
X371000Y198000D01*
X272500Y74000D02*
X286000Y87500D01*
Y163000D01*
X371000Y198000D02*
Y203500D01*
Y187000D02*
Y198000D01*
X357000Y173000D02*
X371000Y187000D01*
X286000Y163000D02*
X296000Y173000D01*
D82*
X134862Y75362D02*
X173862D01*
X134500Y75000D02*
X134862Y75362D01*
X173862D02*
X190500Y92000D01*
D83*
X0Y280000D02*
D03*
X487500D02*
D03*
Y0D02*
D03*
X0D02*
D03*
D84*
X344126Y16165D02*
D03*
D85*
X352000D02*
D03*
X359874D02*
D03*
D86*
X206000Y252500D02*
D03*
X246000D02*
D03*
X276000D02*
D03*
D87*
X216000D02*
D03*
X236000D02*
D03*
X266000D02*
D03*
D88*
X313000Y48063D02*
D03*
Y28772D02*
D03*
D89*
X324024Y37827D02*
D03*
D90*
X264138Y237000D02*
D03*
D91*
X274138Y227000D02*
D03*
X264138Y217000D02*
D03*
D92*
X387500Y235000D02*
D03*
X225000Y177000D02*
D03*
X359500Y240000D02*
D03*
X54000Y203000D02*
D03*
X157500Y95000D02*
D03*
X344000Y54000D02*
D03*
X361500D02*
D03*
X480631Y61793D02*
D03*
X467500Y125500D02*
D03*
Y156000D02*
D03*
X431000Y184500D02*
D03*
X451000D02*
D03*
X441000D02*
D03*
X414500Y242500D02*
D03*
X400000Y245000D02*
D03*
X291500Y117000D02*
D03*
X280755Y116713D02*
D03*
X292000Y163000D02*
D03*
X280500Y163500D02*
D03*
X224000Y91500D02*
D03*
X446000Y50500D02*
D03*
X464000Y67500D02*
D03*
X472500Y77000D02*
D03*
X425000Y75500D02*
D03*
X412500Y72000D02*
D03*
X205000Y78000D02*
D03*
X246000Y76000D02*
D03*
X208000Y154000D02*
D03*
X208500Y121500D02*
D03*
X198000Y179500D02*
D03*
X146000Y183500D02*
D03*
X88000Y176000D02*
D03*
X142500Y129500D02*
D03*
X113500Y99000D02*
D03*
X154000Y64500D02*
D03*
X126000D02*
D03*
X154000Y52500D02*
D03*
X126000D02*
D03*
X78000Y74000D02*
D03*
X48000Y226000D02*
D03*
X10500Y252000D02*
D03*
X9093Y25572D02*
D03*
X469000Y17500D02*
D03*
X468500Y262500D02*
D03*
X409000Y273500D02*
D03*
X249500D02*
D03*
X104500Y274000D02*
D03*
X188000Y230000D02*
D03*
X206938Y230367D02*
D03*
X229094Y244142D02*
D03*
X242000Y224500D02*
D03*
X254000D02*
D03*
X281000Y228500D02*
D03*
X332000Y238000D02*
D03*
X360500Y254500D02*
D03*
X397500Y257000D02*
D03*
X466000Y201500D02*
D03*
X463000Y216500D02*
D03*
X433000Y231000D02*
D03*
X380000Y219500D02*
D03*
X387500Y213500D02*
D03*
X402226Y218585D02*
D03*
X402500Y231500D02*
D03*
X413000Y213000D02*
D03*
X421000D02*
D03*
X420500Y183500D02*
D03*
Y193500D02*
D03*
X476000Y37500D02*
D03*
X451000Y87500D02*
D03*
Y12500D02*
D03*
X426000Y87500D02*
D03*
Y37500D02*
D03*
Y12500D02*
D03*
X401000Y187500D02*
D03*
Y12500D02*
D03*
X376000Y87500D02*
D03*
Y12500D02*
D03*
X351000Y87500D02*
D03*
Y37500D02*
D03*
X326000Y12500D02*
D03*
X301000D02*
D03*
X276000Y62500D02*
D03*
Y12500D02*
D03*
X226000Y162500D02*
D03*
Y112500D02*
D03*
Y12500D02*
D03*
X201000D02*
D03*
X176000D02*
D03*
X151000Y237500D02*
D03*
Y212500D02*
D03*
Y162500D02*
D03*
Y12500D02*
D03*
X126000Y237500D02*
D03*
Y212500D02*
D03*
Y162500D02*
D03*
Y12500D02*
D03*
X101000Y237500D02*
D03*
Y212500D02*
D03*
Y162500D02*
D03*
Y112500D02*
D03*
Y37500D02*
D03*
Y12500D02*
D03*
X76000Y37500D02*
D03*
Y12500D02*
D03*
X51000Y187500D02*
D03*
Y112500D02*
D03*
Y62500D02*
D03*
Y37500D02*
D03*
X26000Y262500D02*
D03*
Y187500D02*
D03*
Y87500D02*
D03*
Y62500D02*
D03*
Y12500D02*
D03*
X300000Y28500D02*
D03*
X291000Y21500D02*
D03*
X213000Y44000D02*
D03*
X215500Y37000D02*
D03*
X196500Y34500D02*
D03*
X78000Y124000D02*
D03*
X56000Y128500D02*
D03*
X329500Y256500D02*
D03*
X303000Y256000D02*
D03*
X285500Y234500D02*
D03*
X307500Y225500D02*
D03*
X309000Y201000D02*
D03*
X354000Y203000D02*
D03*
X327000Y201500D02*
D03*
X340000Y213500D02*
D03*
X330500Y218500D02*
D03*
X444000Y265000D02*
D03*
X467000Y241500D02*
D03*
X469500Y185000D02*
D03*
X463000D02*
D03*
X453000Y95000D02*
D03*
X460500D02*
D03*
X473000Y45500D02*
D03*
X449000Y21000D02*
D03*
X376500Y24000D02*
D03*
X386500Y12500D02*
D03*
X397000Y37000D02*
D03*
X391000Y60500D02*
D03*
X374000Y37500D02*
D03*
X336000Y81000D02*
D03*
X320500Y61500D02*
D03*
X43000Y13500D02*
D03*
X19500Y38000D02*
D03*
X36500Y261000D02*
D03*
X13000Y238000D02*
D03*
D93*
X163000Y141500D02*
D03*
X341000Y188500D02*
D03*
X361000D02*
D03*
X316000Y199931D02*
D03*
X88500Y61500D02*
D03*
X85500Y78000D02*
D03*
X333500Y192500D02*
D03*
X350000Y188500D02*
D03*
X84500Y138500D02*
D03*
Y88500D02*
D03*
X79500Y167000D02*
D03*
X303000Y242500D02*
D03*
D94*
X250500Y203000D02*
D03*
X134500Y75000D02*
D03*
X190500Y92000D02*
D03*
X199000Y90500D02*
D03*
X143500Y71500D02*
D03*
X396000Y80500D02*
D03*
X386000D02*
D03*
X190000Y69000D02*
D03*
X272500Y74000D02*
D03*
X281000Y220500D02*
D03*
X371000Y203500D02*
D03*
M02*
