G04*
G04 #@! TF.GenerationSoftware,Altium Limited,Altium Designer,21.2.0 (30)*
G04*
G04 Layer_Color=8388736*
%FSLAX25Y25*%
%MOIN*%
G70*
G04*
G04 #@! TF.SameCoordinates,74D48CB8-E722-4D7A-A080-E4722F553172*
G04*
G04*
G04 #@! TF.FilePolarity,Negative*
G04*
G01*
G75*
G04:AMPARAMS|DCode=15|XSize=59.26mil|YSize=22.53mil|CornerRadius=11.26mil|HoleSize=0mil|Usage=FLASHONLY|Rotation=180.000|XOffset=0mil|YOffset=0mil|HoleType=Round|Shape=RoundedRectangle|*
%AMROUNDEDRECTD15*
21,1,0.05926,0.00000,0,0,180.0*
21,1,0.03674,0.02253,0,0,180.0*
1,1,0.02253,-0.01837,0.00000*
1,1,0.02253,0.01837,0.00000*
1,1,0.02253,0.01837,0.00000*
1,1,0.02253,-0.01837,0.00000*
%
%ADD15ROUNDEDRECTD15*%
%ADD16R,0.05926X0.02253*%
%ADD21R,0.05512X0.10827*%
%ADD23R,0.03740X0.08465*%
%ADD24R,0.12795X0.08465*%
%ADD30R,0.03740X0.05315*%
%ADD31R,0.03775X0.03591*%
%ADD39R,0.03591X0.03775*%
%ADD41R,0.06544X0.04166*%
%ADD42R,0.04166X0.06544*%
G04:AMPARAMS|DCode=47|XSize=62.99mil|YSize=39.37mil|CornerRadius=0mil|HoleSize=0mil|Usage=FLASHONLY|Rotation=45.000|XOffset=0mil|YOffset=0mil|HoleType=Round|Shape=Rectangle|*
%AMROTATEDRECTD47*
4,1,4,-0.00835,-0.03619,-0.03619,-0.00835,0.00835,0.03619,0.03619,0.00835,-0.00835,-0.03619,0.0*
%
%ADD47ROTATEDRECTD47*%

G04:AMPARAMS|DCode=48|XSize=62.99mil|YSize=39.37mil|CornerRadius=0mil|HoleSize=0mil|Usage=FLASHONLY|Rotation=315.000|XOffset=0mil|YOffset=0mil|HoleType=Round|Shape=Rectangle|*
%AMROTATEDRECTD48*
4,1,4,-0.03619,0.00835,-0.00835,0.03619,0.03619,-0.00835,0.00835,-0.03619,-0.03619,0.00835,0.0*
%
%ADD48ROTATEDRECTD48*%

%ADD49R,0.03937X0.06299*%
%ADD50R,0.05118X0.06102*%
%ADD51O,0.10236X0.03150*%
G04:AMPARAMS|DCode=52|XSize=74.8mil|YSize=161.42mil|CornerRadius=37.4mil|HoleSize=0mil|Usage=FLASHONLY|Rotation=270.000|XOffset=0mil|YOffset=0mil|HoleType=Round|Shape=RoundedRectangle|*
%AMROUNDEDRECTD52*
21,1,0.07480,0.08661,0,0,270.0*
21,1,0.00000,0.16142,0,0,270.0*
1,1,0.07480,-0.04331,0.00000*
1,1,0.07480,-0.04331,0.00000*
1,1,0.07480,0.04331,0.00000*
1,1,0.07480,0.04331,0.00000*
%
%ADD52ROUNDEDRECTD52*%
%ADD53R,0.03543X0.02756*%
%ADD54R,0.05709X0.04134*%
%ADD55R,0.09646X0.05709*%
%ADD56R,0.05709X0.04331*%
%ADD57R,0.09055X0.08858*%
%ADD58R,0.03543X0.03543*%
%ADD59R,0.28740X0.41732*%
%ADD60R,0.11614X0.04528*%
%ADD61R,0.08858X0.09055*%
G04:AMPARAMS|DCode=62|XSize=74.8mil|YSize=161.42mil|CornerRadius=37.4mil|HoleSize=0mil|Usage=FLASHONLY|Rotation=0.000|XOffset=0mil|YOffset=0mil|HoleType=Round|Shape=RoundedRectangle|*
%AMROUNDEDRECTD62*
21,1,0.07480,0.08661,0,0,0.0*
21,1,0.00000,0.16142,0,0,0.0*
1,1,0.07480,0.00000,-0.04331*
1,1,0.07480,0.00000,-0.04331*
1,1,0.07480,0.00000,0.04331*
1,1,0.07480,0.00000,0.04331*
%
%ADD62ROUNDEDRECTD62*%
%ADD63R,0.03543X0.03543*%
%ADD64R,0.04134X0.05709*%
%ADD65R,0.02756X0.03543*%
%ADD66R,0.09646X0.09055*%
%ADD67R,0.05709X0.06496*%
%ADD68R,0.04921X0.06102*%
%ADD69C,0.32677*%
%ADD70R,0.05512X0.05512*%
%ADD71C,0.05512*%
%ADD72C,0.06299*%
%ADD73R,0.06299X0.06299*%
%ADD74C,0.05709*%
%ADD75R,0.05709X0.05709*%
%ADD76O,0.09252X0.06299*%
%ADD77O,0.06299X0.09252*%
%ADD78R,0.05315X0.05315*%
%ADD79C,0.05315*%
D15*
X206667Y173760D02*
D03*
Y181240D02*
D03*
X215333D02*
D03*
Y177500D02*
D03*
D16*
Y173760D02*
D03*
D21*
X409126Y203213D02*
D03*
X417000D02*
D03*
X424874D02*
D03*
X409126Y229787D02*
D03*
X424874D02*
D03*
X379626Y203213D02*
D03*
X387500D02*
D03*
X395374D02*
D03*
X379626Y229787D02*
D03*
X395374D02*
D03*
X188626Y24213D02*
D03*
X196500D02*
D03*
X204374D02*
D03*
X188626Y50787D02*
D03*
X204374D02*
D03*
D23*
X376445Y48583D02*
D03*
X385500D02*
D03*
X394555D02*
D03*
D24*
X385500Y71417D02*
D03*
D30*
X295905Y246000D02*
D03*
X290000D02*
D03*
X344547Y243500D02*
D03*
X350453D02*
D03*
X357547Y209500D02*
D03*
X363453D02*
D03*
X318406Y222000D02*
D03*
X312500D02*
D03*
D31*
X219139Y44000D02*
D03*
X224861D02*
D03*
D39*
X412500Y65861D02*
D03*
Y60139D02*
D03*
D41*
X193500Y252118D02*
D03*
Y240882D02*
D03*
D42*
X420118Y242500D02*
D03*
X408882D02*
D03*
X391118D02*
D03*
X379882D02*
D03*
X197882Y62500D02*
D03*
X209118D02*
D03*
D47*
X454586Y45773D02*
D03*
X463773Y36586D02*
D03*
X477414Y50227D02*
D03*
X468227Y59414D02*
D03*
X54242Y260763D02*
D03*
X45055Y269950D02*
D03*
X31414Y256308D02*
D03*
X40601Y247122D02*
D03*
X31414Y237727D02*
D03*
X22227Y246914D02*
D03*
X8586Y233273D02*
D03*
X17773Y224086D02*
D03*
X430586Y21273D02*
D03*
X439773Y12086D02*
D03*
X453414Y25727D02*
D03*
X444227Y34914D02*
D03*
D48*
X19687Y56187D02*
D03*
X10500Y47000D02*
D03*
X24141Y33359D02*
D03*
X33328Y42546D02*
D03*
X43273Y31914D02*
D03*
X34086Y22727D02*
D03*
X47727Y9086D02*
D03*
X56914Y18273D02*
D03*
X466631Y223854D02*
D03*
X475818Y233041D02*
D03*
X462177Y246682D02*
D03*
X452990Y237495D02*
D03*
X443296Y247188D02*
D03*
X452483Y256375D02*
D03*
X438842Y270016D02*
D03*
X429655Y260829D02*
D03*
D49*
X201504Y112354D02*
D03*
X214496D02*
D03*
Y131646D02*
D03*
X201504D02*
D03*
Y144854D02*
D03*
X214496D02*
D03*
Y164146D02*
D03*
X201504D02*
D03*
D50*
X339563Y258500D02*
D03*
X347437D02*
D03*
D51*
X359146Y218500D02*
D03*
Y223500D02*
D03*
Y228500D02*
D03*
Y233500D02*
D03*
X339854Y218500D02*
D03*
Y223500D02*
D03*
Y228500D02*
D03*
Y233500D02*
D03*
D52*
X173500Y248500D02*
D03*
Y238500D02*
D03*
Y228500D02*
D03*
Y218500D02*
D03*
Y208500D02*
D03*
Y198500D02*
D03*
Y188500D02*
D03*
Y178500D02*
D03*
Y168500D02*
D03*
Y158500D02*
D03*
Y148500D02*
D03*
Y138500D02*
D03*
Y128500D02*
D03*
Y118500D02*
D03*
Y108500D02*
D03*
X68500Y248500D02*
D03*
Y238500D02*
D03*
Y228500D02*
D03*
Y218500D02*
D03*
Y208500D02*
D03*
Y198500D02*
D03*
Y188500D02*
D03*
Y178500D02*
D03*
Y168500D02*
D03*
Y158500D02*
D03*
Y148500D02*
D03*
Y138500D02*
D03*
Y128500D02*
D03*
Y118500D02*
D03*
Y108500D02*
D03*
Y98500D02*
D03*
Y88500D02*
D03*
Y78500D02*
D03*
Y68500D02*
D03*
X173500Y98500D02*
D03*
Y88500D02*
D03*
Y78500D02*
D03*
Y68500D02*
D03*
D53*
X438500Y202646D02*
D03*
Y208354D02*
D03*
X446000Y202646D02*
D03*
Y208354D02*
D03*
X453500Y202646D02*
D03*
Y208354D02*
D03*
D54*
X438500Y215449D02*
D03*
Y221551D02*
D03*
X446000Y215449D02*
D03*
Y221551D02*
D03*
X453500Y215449D02*
D03*
Y221551D02*
D03*
X215500Y32051D02*
D03*
Y25949D02*
D03*
D55*
X329283Y207000D02*
D03*
X339717D02*
D03*
X302217D02*
D03*
X291783D02*
D03*
D56*
X298000Y220957D02*
D03*
Y228043D02*
D03*
X287500Y228043D02*
D03*
Y220957D02*
D03*
D57*
X302543Y71000D02*
D03*
X320457D02*
D03*
X404957Y24000D02*
D03*
X387043D02*
D03*
X353457Y71000D02*
D03*
X335543D02*
D03*
D58*
X227500Y25850D02*
D03*
Y32150D02*
D03*
D59*
X250752Y38500D02*
D03*
D60*
X290910Y48500D02*
D03*
Y38500D02*
D03*
Y28500D02*
D03*
D61*
X222500Y57543D02*
D03*
Y75457D02*
D03*
D62*
X326000Y172500D02*
D03*
X466000Y107500D02*
D03*
X456000D02*
D03*
X446000D02*
D03*
X326000D02*
D03*
X316000D02*
D03*
X306000D02*
D03*
X296000D02*
D03*
X286000D02*
D03*
X276000D02*
D03*
X266000D02*
D03*
X256000D02*
D03*
X246000D02*
D03*
X236000D02*
D03*
Y172500D02*
D03*
X246000D02*
D03*
X256000D02*
D03*
X266000D02*
D03*
X276000D02*
D03*
X286000D02*
D03*
X296000D02*
D03*
X306000D02*
D03*
X316000D02*
D03*
X436000Y107500D02*
D03*
X426000D02*
D03*
X416000D02*
D03*
X406000D02*
D03*
X396000D02*
D03*
X386000D02*
D03*
X376000D02*
D03*
X366000D02*
D03*
X356000D02*
D03*
X346000D02*
D03*
X336000D02*
D03*
Y172500D02*
D03*
X346000D02*
D03*
X466000D02*
D03*
X456000D02*
D03*
X356000D02*
D03*
X366000D02*
D03*
X376000D02*
D03*
X386000D02*
D03*
X396000D02*
D03*
X406000D02*
D03*
X416000D02*
D03*
X426000D02*
D03*
X436000D02*
D03*
X446000D02*
D03*
D63*
X431150Y59000D02*
D03*
X424850D02*
D03*
D64*
X424949Y66000D02*
D03*
X431051D02*
D03*
X218551Y220500D02*
D03*
X212449D02*
D03*
X218551Y208000D02*
D03*
X212449D02*
D03*
X218551Y194000D02*
D03*
X212449D02*
D03*
D65*
X192646Y220500D02*
D03*
X198354D02*
D03*
X192646Y208000D02*
D03*
X198354D02*
D03*
X192646Y194000D02*
D03*
X198354D02*
D03*
D66*
X236500Y210984D02*
D03*
Y234016D02*
D03*
D67*
X264161Y206000D02*
D03*
X271839D02*
D03*
X310661Y246500D02*
D03*
X318339D02*
D03*
D68*
X311555Y234500D02*
D03*
X318445D02*
D03*
D69*
X0Y280000D02*
D03*
X487500D02*
D03*
Y0D02*
D03*
X0D02*
D03*
D70*
X344126Y16165D02*
D03*
D71*
X352000D02*
D03*
X359874D02*
D03*
D72*
X206000Y252500D02*
D03*
X246000D02*
D03*
X276000D02*
D03*
D73*
X216000D02*
D03*
X236000D02*
D03*
X266000D02*
D03*
D74*
X32563Y172882D02*
D03*
X40437D02*
D03*
X32563Y165008D02*
D03*
Y157134D02*
D03*
X40437Y165008D02*
D03*
Y157134D02*
D03*
X36500Y184398D02*
D03*
X40437Y141386D02*
D03*
Y149260D02*
D03*
X32563Y141386D02*
D03*
Y149260D02*
D03*
X36500Y90500D02*
D03*
X32563Y102016D02*
D03*
Y133512D02*
D03*
Y125638D02*
D03*
Y117764D02*
D03*
Y109890D02*
D03*
X40437Y133512D02*
D03*
Y125638D02*
D03*
Y117764D02*
D03*
Y109890D02*
D03*
D75*
Y102016D02*
D03*
D76*
X313000Y48063D02*
D03*
Y28772D02*
D03*
D77*
X324024Y37827D02*
D03*
D78*
X264138Y237000D02*
D03*
D79*
X274138Y227000D02*
D03*
X264138Y217000D02*
D03*
M02*
