G04*
G04 #@! TF.GenerationSoftware,Altium Limited,Altium Designer,21.2.0 (30)*
G04*
G04 Layer_Color=32896*
%FSLAX25Y25*%
%MOIN*%
G70*
G04*
G04 #@! TF.SameCoordinates,74D48CB8-E722-4D7A-A080-E4722F553172*
G04*
G04*
G04 #@! TF.FilePolarity,Positive*
G04*
G01*
G75*
G36*
X145208Y222792D02*
X145258Y222574D01*
X145308Y222524D01*
X145375Y222357D01*
X145425Y222139D01*
X145526Y222039D01*
X145559Y221838D01*
X145643Y221654D01*
X145727Y221437D01*
X145760Y221303D01*
X145827Y221236D01*
X145894Y220968D01*
X145994Y220801D01*
X146028Y220667D01*
X146145Y220382D01*
X146195Y220198D01*
X146262Y220031D01*
X146312Y219981D01*
X146362Y219796D01*
X146429Y219629D01*
X146530Y219361D01*
X146563Y219228D01*
X146630Y219161D01*
X146664Y219027D01*
X146798Y218726D01*
X146831Y218558D01*
X146898Y218391D01*
X146965Y218324D01*
X146998Y218090D01*
X147132Y217889D01*
X147166Y217688D01*
X147266Y217521D01*
X147300Y217387D01*
X147433Y217086D01*
X147467Y216952D01*
X147567Y216717D01*
X147634Y216550D01*
X147668Y216416D01*
X147768Y216249D01*
X147802Y216082D01*
X147885Y215897D01*
X147969Y215680D01*
X148103Y215379D01*
X148136Y215245D01*
X148254Y214960D01*
X148304Y214776D01*
X148404Y214609D01*
X148471Y214341D01*
X148571Y214174D01*
X148605Y214040D01*
X148672Y213873D01*
X148722Y213755D01*
X148772Y213571D01*
X148889Y213354D01*
X148940Y213136D01*
X149057Y212919D01*
X149107Y212668D01*
X149191Y212584D01*
X149241Y212400D01*
X149375Y212099D01*
X149408Y211965D01*
X149542Y211664D01*
X149575Y211530D01*
X149709Y211229D01*
X149743Y211095D01*
X149877Y210793D01*
X149944Y210559D01*
X150011Y210492D01*
X150077Y210191D01*
X150128Y210141D01*
X150195Y209974D01*
X150245Y209756D01*
X150329Y209672D01*
X150379Y209455D01*
X150462Y209271D01*
X150546Y209053D01*
X150580Y208919D01*
X150646Y208852D01*
X150713Y208585D01*
X150814Y208417D01*
X150847Y208283D01*
X150964Y207999D01*
X151015Y207815D01*
X151082Y207647D01*
X151132Y207597D01*
X151182Y207413D01*
X151249Y207246D01*
X151299Y207129D01*
X151349Y206945D01*
X151450Y206777D01*
X151483Y206644D01*
X151617Y206342D01*
X151651Y206175D01*
X151717Y206008D01*
X151784Y205941D01*
X151818Y205706D01*
X151952Y205505D01*
X151985Y205305D01*
X152102Y205087D01*
X152153Y204870D01*
X152253Y204702D01*
X152286Y204568D01*
X152387Y204334D01*
X152454Y204167D01*
X152487Y204033D01*
X152588Y203866D01*
X152621Y203698D01*
X152705Y203514D01*
X152788Y203297D01*
X152889Y203062D01*
X152922Y202962D01*
X152989Y202728D01*
X153056Y202661D01*
X153123Y202360D01*
X153173Y202309D01*
X153257Y202092D01*
X153290Y201958D01*
X153391Y201791D01*
X153424Y201657D01*
X153542Y201372D01*
X153592Y201188D01*
X153709Y200971D01*
X153759Y200753D01*
X153876Y200535D01*
X153926Y200285D01*
X154010Y200201D01*
X154060Y200017D01*
X154194Y199715D01*
X154228Y199548D01*
X154345Y199331D01*
X154395Y199113D01*
X154512Y198896D01*
X154562Y198712D01*
X154696Y198410D01*
X154763Y198176D01*
X154830Y198109D01*
X154897Y197808D01*
X154947Y197758D01*
X155031Y197540D01*
X155064Y197406D01*
X155148Y197256D01*
X155198Y197072D01*
X155282Y196887D01*
X155366Y196670D01*
X155499Y196335D01*
X155533Y196201D01*
X155633Y196034D01*
X155667Y195867D01*
X155750Y195683D01*
X155834Y195465D01*
X155935Y195231D01*
X155968Y195164D01*
X156001Y195030D01*
X156068Y194863D01*
X156119Y194746D01*
X156169Y194561D01*
X156269Y194394D01*
X156303Y194260D01*
X156437Y193959D01*
X156470Y193792D01*
X156537Y193624D01*
X156587Y193574D01*
X156637Y193323D01*
X156771Y193122D01*
X156805Y192921D01*
X156922Y192704D01*
X156972Y192453D01*
X157072Y192352D01*
X157106Y192185D01*
X157256Y191834D01*
X157307Y191616D01*
X157357Y191566D01*
X157440Y191348D01*
X157474Y191215D01*
X157558Y191064D01*
X157608Y190880D01*
X157692Y190696D01*
X157775Y190478D01*
X157809Y190344D01*
X157876Y190277D01*
X157943Y189976D01*
X157993Y189926D01*
X158060Y189759D01*
X158110Y189541D01*
X158194Y189457D01*
X158244Y189273D01*
X158361Y188989D01*
X158411Y188805D01*
X158528Y188587D01*
X158579Y188370D01*
X158696Y188152D01*
X158746Y187935D01*
X158846Y187767D01*
X158880Y187600D01*
X158947Y187433D01*
X158997Y187382D01*
X159047Y187198D01*
X159181Y186897D01*
X159248Y186629D01*
X159332Y186546D01*
X159382Y186328D01*
X159516Y186027D01*
X159582Y185793D01*
X159650Y185726D01*
X159683Y185592D01*
X159750Y185358D01*
X159800Y185307D01*
X159850Y185123D01*
X159884Y184989D01*
X159934Y184939D01*
X160018Y184722D01*
X160118Y184487D01*
X160152Y184421D01*
X160185Y184287D01*
X160319Y183952D01*
X160352Y183818D01*
X160453Y183651D01*
X160520Y183383D01*
X160603Y183232D01*
X160653Y183048D01*
X160720Y182881D01*
X160771Y182831D01*
X160821Y182613D01*
X160888Y182446D01*
X160938Y182396D01*
X160988Y182178D01*
X161105Y181960D01*
X161155Y181743D01*
X161256Y181576D01*
X161289Y181408D01*
X161356Y181241D01*
X161407Y181191D01*
X161457Y180940D01*
X161591Y180739D01*
X161624Y180538D01*
X161741Y180321D01*
X161791Y180103D01*
X161892Y179936D01*
X161925Y179802D01*
X162076Y179450D01*
X162126Y179233D01*
X162176Y179183D01*
X162260Y178965D01*
X162294Y178831D01*
X162377Y178681D01*
X162427Y178497D01*
X162511Y178313D01*
X162595Y178095D01*
X162628Y177961D01*
X162695Y177894D01*
X162762Y177593D01*
X162812Y177543D01*
X162879Y177375D01*
X162929Y177158D01*
X162980Y177108D01*
X163063Y176890D01*
X163180Y176606D01*
X163231Y176421D01*
X163348Y176204D01*
X163398Y175986D01*
X163515Y175769D01*
X163565Y175551D01*
X163649Y175401D01*
X163699Y175217D01*
X163766Y175049D01*
X163833Y174982D01*
X163866Y174782D01*
X163984Y174564D01*
X164034Y174380D01*
X164168Y174079D01*
X164201Y173945D01*
X164335Y173644D01*
X164402Y173409D01*
X164452Y173359D01*
X164502Y173175D01*
X164603Y172941D01*
X164670Y172774D01*
X164703Y172640D01*
X164804Y172472D01*
X164837Y172272D01*
X164937Y172104D01*
X164971Y172037D01*
X165004Y171903D01*
X165138Y171569D01*
X165172Y171435D01*
X165272Y171267D01*
X165339Y171000D01*
X165423Y170849D01*
X165473Y170665D01*
X165540Y170498D01*
X165590Y170447D01*
X165640Y170230D01*
X165707Y170062D01*
X165757Y170012D01*
X165808Y169761D01*
X165858Y169711D01*
X165925Y169544D01*
X165975Y169360D01*
X166075Y169192D01*
X166109Y169059D01*
X166243Y168757D01*
X166276Y168556D01*
X166410Y168356D01*
X166444Y168155D01*
X166561Y167937D01*
X166611Y167686D01*
X166678Y167619D01*
X166745Y167452D01*
X166778Y167318D01*
X166912Y167017D01*
X166946Y166883D01*
X167046Y166716D01*
X167079Y166515D01*
X167197Y166297D01*
X167247Y166113D01*
X167330Y165929D01*
X167414Y165712D01*
X167448Y165578D01*
X167515Y165511D01*
X167581Y165210D01*
X167632Y165159D01*
X167715Y164942D01*
X167749Y164808D01*
X167833Y164657D01*
X167883Y164473D01*
X167966Y164289D01*
X168050Y164072D01*
X168117Y163904D01*
X168167Y163787D01*
X168217Y163603D01*
X168334Y163386D01*
X168385Y163168D01*
X168485Y163001D01*
X168519Y162833D01*
X168586Y162666D01*
X168636Y162616D01*
X168686Y162432D01*
X168820Y162130D01*
X168853Y161963D01*
X168970Y161746D01*
X169021Y161528D01*
X169121Y161361D01*
X169155Y161227D01*
X169255Y160993D01*
X169322Y160825D01*
X169389Y160591D01*
X169456Y160524D01*
X169489Y160323D01*
X169606Y160106D01*
X169657Y159922D01*
X169690Y159821D01*
X169723Y159754D01*
X169774Y159704D01*
X169824Y159486D01*
X169958Y159185D01*
X169991Y159051D01*
X170092Y158884D01*
X170159Y158616D01*
X170259Y158449D01*
X170292Y158282D01*
X170376Y158098D01*
X170460Y157880D01*
X170560Y157646D01*
X170594Y157579D01*
X170627Y157445D01*
X170761Y157144D01*
X170794Y156943D01*
X170895Y156843D01*
X170928Y156675D01*
X171062Y156374D01*
X171096Y156240D01*
X171230Y155939D01*
X171263Y155805D01*
X171397Y155504D01*
X171430Y155370D01*
X171564Y155069D01*
X171631Y154834D01*
X171698Y154768D01*
X171765Y154500D01*
X171849Y154349D01*
X171899Y154165D01*
X171932Y154031D01*
X172033Y153931D01*
X172066Y153730D01*
X172200Y153429D01*
X172267Y153194D01*
X172334Y153128D01*
X172367Y152994D01*
X172434Y152759D01*
X172501Y152692D01*
X172568Y152391D01*
X172618Y152341D01*
X172702Y152123D01*
X172736Y151990D01*
X172836Y151822D01*
X172870Y151688D01*
X172936Y151521D01*
X172987Y151404D01*
X173037Y151220D01*
X173154Y151002D01*
X173204Y150785D01*
X173304Y150617D01*
X173338Y150450D01*
X173405Y150283D01*
X173472Y150216D01*
X173505Y150015D01*
X173572Y149848D01*
X173623Y149797D01*
X173673Y149613D01*
X173807Y149312D01*
X173840Y149178D01*
X173974Y148877D01*
X174041Y148643D01*
X174108Y148576D01*
X174141Y148375D01*
X174208Y148208D01*
X174275Y148141D01*
X174309Y147906D01*
X174443Y147706D01*
X174476Y147505D01*
X174576Y147337D01*
X174610Y147204D01*
X174760Y146852D01*
X174811Y146635D01*
X174861Y146584D01*
X174944Y146367D01*
X174978Y146233D01*
X175078Y146066D01*
X175112Y145898D01*
X175196Y145714D01*
X175279Y145497D01*
X175413Y145196D01*
X175446Y145062D01*
X175514Y144894D01*
X175564Y144777D01*
X175614Y144593D01*
X175714Y144426D01*
X175748Y144292D01*
X175882Y143991D01*
X175915Y143823D01*
X176032Y143606D01*
X176082Y143388D01*
X176200Y143171D01*
X176250Y142953D01*
X176367Y142736D01*
X176417Y142485D01*
X176517Y142384D01*
X176551Y142250D01*
X176618Y142016D01*
X176685Y141949D01*
X176718Y141748D01*
X176836Y141531D01*
X176886Y141347D01*
X176969Y141163D01*
X177053Y140945D01*
X177187Y140610D01*
X177254Y140376D01*
X177321Y140309D01*
X177388Y140008D01*
X177438Y139958D01*
X177505Y139790D01*
X177555Y139573D01*
X177639Y139489D01*
X177689Y139305D01*
X177756Y139138D01*
X177856Y138870D01*
X177890Y138736D01*
X177957Y138669D01*
X178024Y138401D01*
X178124Y138234D01*
X178157Y138067D01*
X178224Y137899D01*
X178275Y137849D01*
X178325Y137632D01*
X178392Y137464D01*
X178459Y137397D01*
X178492Y137197D01*
X178609Y136979D01*
X178659Y136761D01*
X178760Y136594D01*
X178793Y136460D01*
X178927Y136159D01*
X178961Y135958D01*
X179095Y135758D01*
X179128Y135523D01*
X179262Y135322D01*
X179295Y135122D01*
X179396Y134954D01*
X179429Y134820D01*
X179580Y134469D01*
X179630Y134251D01*
X179680Y134201D01*
X179764Y133984D01*
X179797Y133850D01*
X179898Y133682D01*
X179931Y133515D01*
X180015Y133331D01*
X180099Y133114D01*
X180233Y132812D01*
X180266Y132678D01*
X180333Y132511D01*
X180383Y132394D01*
X180433Y132210D01*
X180534Y132043D01*
X180567Y131909D01*
X180701Y131607D01*
X180735Y131440D01*
X180852Y131222D01*
X180902Y131005D01*
X181019Y130787D01*
X181069Y130570D01*
X181186Y130352D01*
X181237Y130101D01*
X181337Y130001D01*
X181370Y129834D01*
X181504Y129532D01*
X181538Y129365D01*
X181655Y129148D01*
X181705Y128963D01*
X181789Y128779D01*
X181872Y128562D01*
X182006Y128227D01*
X182073Y127993D01*
X182140Y127926D01*
X182207Y127625D01*
X182257Y127575D01*
X182324Y127407D01*
X182375Y127190D01*
X182458Y127106D01*
X182508Y126888D01*
X182592Y126704D01*
X182676Y126487D01*
X182709Y126353D01*
X182776Y126286D01*
X182843Y126018D01*
X182943Y125851D01*
X182977Y125717D01*
X183077Y125483D01*
X183111Y125382D01*
X183211Y125148D01*
X183194Y125064D01*
X162678Y125031D01*
X162578Y124997D01*
X162411Y125031D01*
X162260Y125315D01*
X162193Y125583D01*
X162109Y125734D01*
X162059Y125918D01*
X161925Y126219D01*
X161892Y126420D01*
X161775Y126637D01*
X161724Y126888D01*
X161624Y127056D01*
X161591Y127223D01*
X161457Y127524D01*
X161390Y127792D01*
X161306Y127943D01*
X161223Y128294D01*
X161122Y128394D01*
X161089Y128629D01*
X161022Y128796D01*
X160971Y128846D01*
X160921Y129097D01*
X160821Y129265D01*
X160787Y129399D01*
X160720Y129633D01*
X160670Y129683D01*
X160620Y129867D01*
X160587Y130001D01*
X160486Y130168D01*
X160453Y130336D01*
X160336Y130620D01*
X160285Y130804D01*
X160152Y131105D01*
X160118Y131306D01*
X160018Y131474D01*
X159984Y131607D01*
X159917Y131842D01*
X159850Y131909D01*
X159817Y132076D01*
X159783Y132210D01*
X159700Y132360D01*
X159650Y132545D01*
X159516Y132846D01*
X159482Y133046D01*
X159365Y133264D01*
X159315Y133515D01*
X159214Y133682D01*
X159181Y133850D01*
X159047Y134151D01*
X158980Y134419D01*
X158880Y134586D01*
X158846Y134787D01*
X158779Y134954D01*
X158729Y135004D01*
X158679Y135255D01*
X158562Y135473D01*
X158511Y135690D01*
X158378Y135992D01*
X158311Y136259D01*
X158261Y136310D01*
X158210Y136494D01*
X158177Y136628D01*
X158076Y136795D01*
X158043Y136996D01*
X157976Y137163D01*
X157909Y137230D01*
X157876Y137431D01*
X157742Y137732D01*
X157708Y137866D01*
X157608Y138100D01*
X157574Y138234D01*
X157508Y138468D01*
X157457Y138519D01*
X157407Y138703D01*
X157374Y138837D01*
X157273Y139004D01*
X157240Y139171D01*
X157123Y139456D01*
X157072Y139640D01*
X156939Y139941D01*
X156905Y140075D01*
X156771Y140410D01*
X156704Y140677D01*
X156637Y140744D01*
X156604Y140912D01*
X156570Y141045D01*
X156487Y141196D01*
X156437Y141380D01*
X156370Y141548D01*
X156319Y141665D01*
X156269Y141849D01*
X156135Y142150D01*
X156102Y142284D01*
X156001Y142518D01*
X155968Y142619D01*
X155901Y142886D01*
X155851Y142936D01*
X155801Y143121D01*
X155667Y143422D01*
X155633Y143623D01*
X155516Y143840D01*
X155466Y144058D01*
X155332Y144359D01*
X155299Y144493D01*
X155181Y144777D01*
X155131Y144995D01*
X155048Y145145D01*
X154964Y145497D01*
X154880Y145580D01*
X154830Y145831D01*
X154763Y145999D01*
X154696Y146066D01*
X154663Y146266D01*
X154529Y146568D01*
X154462Y146835D01*
X154395Y146902D01*
X154361Y147103D01*
X154311Y147153D01*
X115220Y147187D01*
X115137Y147036D01*
X115070Y146969D01*
X115036Y146835D01*
X114902Y146534D01*
X114835Y146266D01*
X114735Y146099D01*
X114701Y145932D01*
X114618Y145748D01*
X114534Y145530D01*
X114434Y145296D01*
X114400Y145229D01*
X114367Y145095D01*
X114266Y144861D01*
X114233Y144761D01*
X114166Y144526D01*
X114099Y144459D01*
X114066Y144292D01*
X113965Y144058D01*
X113898Y143890D01*
X113831Y143656D01*
X113764Y143589D01*
X113731Y143388D01*
X113614Y143171D01*
X113564Y142987D01*
X113530Y142853D01*
X113463Y142786D01*
X113430Y142652D01*
X113296Y142351D01*
X113229Y142050D01*
X113145Y141966D01*
X113095Y141782D01*
X112995Y141548D01*
X112961Y141481D01*
X112928Y141347D01*
X112794Y141045D01*
X112727Y140778D01*
X112660Y140711D01*
X112626Y140577D01*
X112493Y140276D01*
X112426Y140008D01*
X112325Y139841D01*
X112292Y139673D01*
X112208Y139489D01*
X112124Y139272D01*
X112024Y139037D01*
X111990Y138970D01*
X111957Y138837D01*
X111857Y138602D01*
X111823Y138502D01*
X111756Y138268D01*
X111689Y138201D01*
X111656Y138033D01*
X111555Y137799D01*
X111488Y137632D01*
X111455Y137498D01*
X111371Y137347D01*
X111321Y137163D01*
X111288Y137029D01*
X111238Y136979D01*
X111170Y136812D01*
X111120Y136594D01*
X111053Y136527D01*
X111020Y136393D01*
X110869Y136042D01*
X110819Y135791D01*
X110735Y135707D01*
X110685Y135523D01*
X110585Y135289D01*
X110551Y135222D01*
X110518Y135088D01*
X110384Y134787D01*
X110317Y134519D01*
X110250Y134452D01*
X110183Y134185D01*
X110083Y134017D01*
X110016Y133749D01*
X109915Y133582D01*
X109882Y133415D01*
X109798Y133231D01*
X109715Y133013D01*
X109614Y132779D01*
X109581Y132712D01*
X109547Y132578D01*
X109447Y132344D01*
X109413Y132243D01*
X109346Y132009D01*
X109296Y131959D01*
X109246Y131775D01*
X109146Y131541D01*
X109079Y131373D01*
X109012Y131139D01*
X108945Y131072D01*
X108911Y130871D01*
X108794Y130654D01*
X108761Y130520D01*
X108711Y130336D01*
X108644Y130269D01*
X108610Y130135D01*
X108476Y129834D01*
X108409Y129532D01*
X108326Y129449D01*
X108275Y129265D01*
X108175Y129030D01*
X108142Y128963D01*
X108108Y128830D01*
X107974Y128528D01*
X107907Y128261D01*
X107840Y128194D01*
X107773Y127926D01*
X107673Y127759D01*
X107606Y127491D01*
X107506Y127323D01*
X107472Y127190D01*
X107338Y126888D01*
X107305Y126688D01*
X107204Y126520D01*
X107171Y126453D01*
X107138Y126319D01*
X107037Y126085D01*
X107004Y125951D01*
X106903Y125717D01*
X106836Y125550D01*
X106769Y125315D01*
X106719Y125265D01*
X106669Y125081D01*
X106569Y125014D01*
X85567Y125031D01*
X85433Y124997D01*
X85299Y125031D01*
X85283Y125115D01*
X85316Y125248D01*
X85366Y125299D01*
X85450Y125516D01*
X85484Y125650D01*
X85550Y125717D01*
X85584Y125884D01*
X85751Y126252D01*
X85818Y126487D01*
X85868Y126537D01*
X85919Y126721D01*
X85986Y126888D01*
X86036Y126939D01*
X86086Y127123D01*
X86220Y127424D01*
X86253Y127558D01*
X86370Y127775D01*
X86421Y127993D01*
X86521Y128160D01*
X86554Y128294D01*
X86705Y128645D01*
X86755Y128863D01*
X86822Y128930D01*
X86856Y128997D01*
X86889Y129131D01*
X86973Y129315D01*
X87057Y129532D01*
X87090Y129666D01*
X87157Y129733D01*
X87190Y129901D01*
X87358Y130269D01*
X87425Y130503D01*
X87475Y130553D01*
X87525Y130737D01*
X87592Y130905D01*
X87642Y130955D01*
X87692Y131139D01*
X87826Y131440D01*
X87860Y131574D01*
X87977Y131791D01*
X88027Y132009D01*
X88128Y132176D01*
X88161Y132310D01*
X88312Y132662D01*
X88362Y132879D01*
X88429Y132946D01*
X88462Y133013D01*
X88496Y133147D01*
X88579Y133331D01*
X88663Y133549D01*
X88696Y133682D01*
X88763Y133749D01*
X88797Y133917D01*
X88964Y134285D01*
X89031Y134519D01*
X89081Y134569D01*
X89132Y134753D01*
X89199Y134921D01*
X89249Y134971D01*
X89299Y135155D01*
X89433Y135456D01*
X89466Y135590D01*
X89583Y135808D01*
X89634Y136025D01*
X89734Y136193D01*
X89767Y136326D01*
X89918Y136678D01*
X89968Y136895D01*
X90035Y136962D01*
X90069Y137029D01*
X90102Y137163D01*
X90186Y137347D01*
X90270Y137565D01*
X90303Y137699D01*
X90370Y137766D01*
X90403Y137899D01*
X90537Y138201D01*
X90571Y138335D01*
X90671Y138569D01*
X90738Y138736D01*
X90889Y139088D01*
X90905Y139104D01*
Y139171D01*
X91039Y139472D01*
X91073Y139606D01*
X91190Y139824D01*
X91240Y140041D01*
X91341Y140209D01*
X91374Y140343D01*
X91525Y140694D01*
X91575Y140912D01*
X91659Y140995D01*
X91709Y141179D01*
X91792Y141363D01*
X91876Y141581D01*
X91909Y141715D01*
X91976Y141782D01*
X92010Y141949D01*
X92177Y142317D01*
X92244Y142552D01*
X92294Y142602D01*
X92345Y142786D01*
X92412Y142953D01*
X92462Y143003D01*
X92512Y143187D01*
X92646Y143489D01*
X92679Y143623D01*
X92796Y143840D01*
X92847Y144058D01*
X92947Y144225D01*
X92980Y144359D01*
X93131Y144710D01*
X93181Y144928D01*
X93265Y145011D01*
X93315Y145196D01*
X93399Y145380D01*
X93483Y145597D01*
X93516Y145731D01*
X93583Y145798D01*
X93616Y145965D01*
X93784Y146334D01*
X93851Y146568D01*
X93901Y146618D01*
X93951Y146802D01*
X94018Y146969D01*
X94068Y147020D01*
X94118Y147204D01*
X94252Y147505D01*
X94286Y147639D01*
X94403Y147856D01*
X94453Y148074D01*
X94554Y148241D01*
X94587Y148375D01*
X94738Y148726D01*
X94788Y148944D01*
X94871Y149028D01*
X94922Y149212D01*
X95005Y149396D01*
X95089Y149613D01*
X95122Y149747D01*
X95189Y149814D01*
X95223Y149981D01*
X95390Y150350D01*
X95457Y150584D01*
X95507Y150634D01*
X95557Y150818D01*
X95625Y150986D01*
X95675Y151036D01*
X95725Y151220D01*
X95859Y151521D01*
X95892Y151655D01*
X96009Y151873D01*
X96060Y152090D01*
X96160Y152257D01*
X96193Y152391D01*
X96344Y152743D01*
X96394Y152960D01*
X96478Y153044D01*
X96528Y153228D01*
X96612Y153412D01*
X96696Y153630D01*
X96729Y153763D01*
X96796Y153830D01*
X96829Y153998D01*
X96997Y154366D01*
X97064Y154600D01*
X97114Y154650D01*
X97164Y154834D01*
X97231Y155002D01*
X97281Y155052D01*
X97331Y155236D01*
X97465Y155537D01*
X97499Y155671D01*
X97616Y155889D01*
X97666Y156106D01*
X97783Y156324D01*
X97833Y156541D01*
X97884Y156591D01*
X97951Y156759D01*
X98001Y156976D01*
X98084Y157060D01*
X98135Y157244D01*
X98218Y157428D01*
X98302Y157646D01*
X98335Y157780D01*
X98402Y157847D01*
X98436Y158014D01*
X98603Y158382D01*
X98670Y158616D01*
X98720Y158667D01*
X98770Y158851D01*
X98837Y159018D01*
X98888Y159068D01*
X98938Y159252D01*
X99072Y159554D01*
X99105Y159687D01*
X99222Y159905D01*
X99273Y160122D01*
X99390Y160340D01*
X99440Y160557D01*
X99490Y160608D01*
X99557Y160775D01*
X99607Y160993D01*
X99691Y161076D01*
X99741Y161260D01*
X99825Y161444D01*
X99908Y161662D01*
X99942Y161796D01*
X100009Y161863D01*
X100042Y162030D01*
X100210Y162398D01*
X100277Y162633D01*
X100327Y162683D01*
X100377Y162867D01*
X100444Y163034D01*
X100494Y163084D01*
X100544Y163268D01*
X100678Y163570D01*
X100712Y163704D01*
X100829Y163921D01*
X100879Y164139D01*
X100996Y164356D01*
X101046Y164574D01*
X101097Y164624D01*
X101163Y164791D01*
X101214Y165009D01*
X101297Y165093D01*
X101348Y165277D01*
X101431Y165461D01*
X101515Y165678D01*
X101548Y165812D01*
X101615Y165879D01*
X101649Y166046D01*
X101816Y166414D01*
X101883Y166649D01*
X101933Y166699D01*
X101983Y166883D01*
X102050Y167050D01*
X102101Y167101D01*
X102151Y167285D01*
X102285Y167586D01*
X102318Y167720D01*
X102435Y167937D01*
X102486Y168155D01*
X102603Y168372D01*
X102653Y168590D01*
X102703Y168640D01*
X102770Y168807D01*
X102820Y169025D01*
X102904Y169109D01*
X102954Y169293D01*
X103038Y169477D01*
X103121Y169694D01*
X103155Y169828D01*
X103222Y169895D01*
X103255Y170062D01*
X103423Y170431D01*
X103489Y170665D01*
X103540Y170715D01*
X103590Y170899D01*
X103657Y171067D01*
X103707Y171117D01*
X103757Y171301D01*
X103891Y171602D01*
X103925Y171736D01*
X104042Y171953D01*
X104092Y172171D01*
X104209Y172389D01*
X104259Y172606D01*
X104309Y172656D01*
X104376Y172824D01*
X104427Y173041D01*
X104510Y173125D01*
X104560Y173309D01*
X104644Y173493D01*
X104728Y173711D01*
X104761Y173845D01*
X104828Y173911D01*
X104862Y174079D01*
X105029Y174447D01*
X105096Y174681D01*
X105146Y174731D01*
X105196Y174916D01*
X105263Y175083D01*
X105314Y175133D01*
X105364Y175317D01*
X105498Y175618D01*
X105531Y175752D01*
X105648Y175970D01*
X105699Y176187D01*
X105816Y176405D01*
X105866Y176622D01*
X105916Y176673D01*
X105983Y176840D01*
X106033Y177057D01*
X106117Y177141D01*
X106167Y177325D01*
X106251Y177509D01*
X106334Y177727D01*
X106368Y177861D01*
X106435Y177928D01*
X106468Y178095D01*
X106636Y178463D01*
X106702Y178697D01*
X106753Y178748D01*
X106803Y178932D01*
X106870Y179099D01*
X106920Y179149D01*
X106970Y179333D01*
X107104Y179634D01*
X107138Y179768D01*
X107255Y179986D01*
X107305Y180203D01*
X107422Y180421D01*
X107472Y180639D01*
X107522Y180689D01*
X107589Y180856D01*
X107640Y181074D01*
X107723Y181157D01*
X107773Y181341D01*
X107857Y181526D01*
X107941Y181743D01*
X107974Y181877D01*
X108041Y181944D01*
X108075Y182111D01*
X108242Y182479D01*
X108309Y182714D01*
X108359Y182764D01*
X108409Y182948D01*
X108476Y183115D01*
X108527Y183165D01*
X108577Y183350D01*
X108610Y183483D01*
X108677Y183550D01*
X108711Y183684D01*
X108878Y184052D01*
X108911Y184186D01*
X109045Y184487D01*
X109079Y184621D01*
X109162Y184772D01*
X109213Y184956D01*
X109280Y185123D01*
X109330Y185173D01*
X109380Y185358D01*
X109464Y185542D01*
X109547Y185759D01*
X109581Y185893D01*
X109648Y185960D01*
X109681Y186127D01*
X109848Y186495D01*
X109915Y186730D01*
X109966Y186780D01*
X110016Y186964D01*
X110083Y187131D01*
X110133Y187182D01*
X110183Y187366D01*
X110217Y187500D01*
X110284Y187566D01*
X110317Y187700D01*
X110484Y188068D01*
X110518Y188202D01*
X110652Y188504D01*
X110685Y188637D01*
X110769Y188788D01*
X110819Y188972D01*
X110886Y189139D01*
X110936Y189190D01*
X110986Y189374D01*
X111070Y189558D01*
X111154Y189775D01*
X111187Y189909D01*
X111254Y189976D01*
X111288Y190144D01*
X111455Y190512D01*
X111522Y190746D01*
X111572Y190796D01*
X111622Y190980D01*
X111689Y191148D01*
X111740Y191198D01*
X111790Y191382D01*
X111823Y191516D01*
X111890Y191583D01*
X111924Y191717D01*
X112091Y192085D01*
X112124Y192219D01*
X112258Y192520D01*
X112292Y192654D01*
X112375Y192804D01*
X112426Y192988D01*
X112493Y193156D01*
X112543Y193206D01*
X112593Y193390D01*
X112677Y193574D01*
X112760Y193792D01*
X112794Y193925D01*
X112861Y193992D01*
X112894Y194160D01*
X113061Y194528D01*
X113128Y194762D01*
X113179Y194812D01*
X113229Y194997D01*
X113296Y195164D01*
X113346Y195214D01*
X113396Y195398D01*
X113430Y195532D01*
X113497Y195599D01*
X113530Y195733D01*
X113697Y196101D01*
X113731Y196235D01*
X113865Y196536D01*
X113898Y196670D01*
X113982Y196820D01*
X114032Y197005D01*
X114099Y197172D01*
X114149Y197222D01*
X114199Y197406D01*
X114283Y197590D01*
X114367Y197808D01*
X114400Y197942D01*
X114467Y198009D01*
X114501Y198176D01*
X114668Y198544D01*
X114735Y198778D01*
X114802Y198845D01*
X114835Y199013D01*
X114902Y199180D01*
X114952Y199230D01*
X115003Y199414D01*
X115036Y199548D01*
X115103Y199615D01*
X115137Y199749D01*
X115304Y200117D01*
X115337Y200251D01*
X115471Y200552D01*
X115505Y200686D01*
X115588Y200837D01*
X115639Y201021D01*
X115706Y201188D01*
X115756Y201238D01*
X115806Y201422D01*
X115890Y201606D01*
X115973Y201824D01*
X116007Y201958D01*
X116074Y202025D01*
X116107Y202192D01*
X116274Y202560D01*
X116341Y202795D01*
X116408Y202861D01*
X116442Y203029D01*
X116509Y203196D01*
X116559Y203246D01*
X116609Y203431D01*
X116643Y203564D01*
X116709Y203631D01*
X116743Y203765D01*
X116910Y204133D01*
X116944Y204267D01*
X117078Y204568D01*
X117111Y204702D01*
X117195Y204853D01*
X117245Y205037D01*
X117312Y205204D01*
X117362Y205255D01*
X117412Y205439D01*
X117496Y205623D01*
X117580Y205840D01*
X117613Y205974D01*
X117680Y206041D01*
X117714Y206208D01*
X117881Y206576D01*
X117948Y206811D01*
X118015Y206878D01*
X118048Y207045D01*
X118115Y207212D01*
X118165Y207263D01*
X118216Y207447D01*
X118249Y207581D01*
X118316Y207647D01*
X118350Y207781D01*
X118517Y208150D01*
X118550Y208283D01*
X118684Y208585D01*
X118718Y208718D01*
X118801Y208869D01*
X118851Y209053D01*
X118919Y209221D01*
X118969Y209271D01*
X119019Y209455D01*
X119103Y209639D01*
X119186Y209856D01*
X119220Y209990D01*
X119287Y210057D01*
X119320Y210225D01*
X119487Y210593D01*
X119554Y210827D01*
X119621Y210894D01*
X119655Y211061D01*
X119722Y211229D01*
X119772Y211279D01*
X119822Y211463D01*
X119856Y211597D01*
X119922Y211664D01*
X119956Y211798D01*
X120123Y212166D01*
X120157Y212300D01*
X120291Y212601D01*
X120324Y212735D01*
X120408Y212885D01*
X120458Y213069D01*
X120525Y213237D01*
X120575Y213287D01*
X120625Y213471D01*
X120709Y213655D01*
X120793Y213873D01*
X120826Y214006D01*
X120893Y214073D01*
X120927Y214241D01*
X121094Y214609D01*
X121161Y214843D01*
X121228Y214910D01*
X121261Y215077D01*
X121328Y215245D01*
X121378Y215295D01*
X121429Y215479D01*
X121462Y215613D01*
X121529Y215680D01*
X121563Y215814D01*
X121730Y216182D01*
X121763Y216316D01*
X121897Y216617D01*
X121931Y216751D01*
X122014Y216901D01*
X122064Y217086D01*
X122131Y217253D01*
X122182Y217303D01*
X122232Y217487D01*
X122316Y217671D01*
X122399Y217889D01*
X122433Y218023D01*
X122500Y218090D01*
X122533Y218257D01*
X122700Y218625D01*
X122767Y218859D01*
X122834Y218926D01*
X122868Y219094D01*
X122935Y219261D01*
X122985Y219311D01*
X123035Y219495D01*
X123068Y219629D01*
X123135Y219696D01*
X123169Y219830D01*
X123336Y220198D01*
X123370Y220332D01*
X123504Y220633D01*
X123537Y220767D01*
X123621Y220918D01*
X123671Y221102D01*
X123738Y221269D01*
X123788Y221319D01*
X123838Y221503D01*
X123922Y221688D01*
X124006Y221905D01*
X124039Y222039D01*
X124106Y222106D01*
X124139Y222273D01*
X124307Y222641D01*
X124340Y222775D01*
X124441Y222842D01*
X144907Y222825D01*
X145041Y222859D01*
X145208Y222792D01*
D02*
G37*
G36*
X133059Y258469D02*
X133159Y258369D01*
X133276Y258285D01*
X133310Y258218D01*
X133460Y258068D01*
X133527Y258034D01*
X133628Y257900D01*
X133745Y257817D01*
X133778Y257750D01*
X134163Y257365D01*
X134230Y257331D01*
X134247Y257281D01*
X134314Y257214D01*
X134515Y257047D01*
X134548Y256980D01*
X134598Y256930D01*
X134665Y256896D01*
X134749Y256813D01*
X134783Y256746D01*
X134900Y256628D01*
X134967Y256595D01*
X135017Y256545D01*
X135050Y256478D01*
X135100Y256428D01*
X135167Y256394D01*
X135218Y256344D01*
X135251Y256277D01*
X135602Y255926D01*
X135669Y255892D01*
X135686Y255842D01*
X136038Y255490D01*
X136105Y255457D01*
X136188Y255373D01*
X136222Y255307D01*
X136339Y255189D01*
X136406Y255156D01*
X136422Y255106D01*
X136540Y254989D01*
X136607Y254955D01*
X136657Y254905D01*
X136690Y254838D01*
X137042Y254486D01*
X137109Y254453D01*
X137125Y254403D01*
X137477Y254051D01*
X137544Y254018D01*
X137627Y253934D01*
X137661Y253867D01*
X137945Y253583D01*
X138012Y253549D01*
X138096Y253466D01*
X138129Y253399D01*
X138481Y253047D01*
X138548Y253014D01*
X138564Y252964D01*
X138916Y252612D01*
X138983Y252579D01*
X139117Y252412D01*
X139183Y252378D01*
X139234Y252328D01*
X139267Y252261D01*
X139384Y252144D01*
X139451Y252110D01*
X139535Y252027D01*
X139568Y251960D01*
X139886Y251642D01*
X140004Y251558D01*
X140037Y251491D01*
X140355Y251173D01*
X140422Y251140D01*
X140472Y251089D01*
X140556Y250972D01*
X140623Y250939D01*
X140706Y250855D01*
X140740Y250788D01*
X140823Y250705D01*
X140941Y250621D01*
X141024Y250504D01*
X141141Y250420D01*
X141175Y250353D01*
X141794Y249734D01*
X141911Y249650D01*
X141995Y249533D01*
X142062Y249500D01*
X142146Y249416D01*
X142179Y249349D01*
X142296Y249232D01*
X142363Y249199D01*
X142463Y249065D01*
X142581Y248981D01*
X142614Y248914D01*
X143300Y248228D01*
X143367Y248194D01*
X143384Y248144D01*
X143434Y248094D01*
X143501Y248061D01*
X143585Y247977D01*
X143618Y247910D01*
X143702Y247826D01*
X143819Y247743D01*
X143903Y247625D01*
X143970Y247592D01*
X144053Y247508D01*
X144087Y247441D01*
X144438Y247090D01*
X144505Y247057D01*
X144522Y247006D01*
X144873Y246655D01*
X144940Y246621D01*
X145024Y246538D01*
X145057Y246471D01*
X145141Y246387D01*
X145258Y246304D01*
X145342Y246186D01*
X145409Y246153D01*
X145492Y246069D01*
X145526Y246002D01*
X145877Y245651D01*
X145944Y245617D01*
X145961Y245567D01*
X146312Y245216D01*
X146379Y245182D01*
X146463Y245099D01*
X146496Y245032D01*
X146781Y244747D01*
X146848Y244714D01*
X146932Y244630D01*
X146965Y244563D01*
X147316Y244212D01*
X147383Y244178D01*
X147400Y244128D01*
X147751Y243777D01*
X147818Y243743D01*
X147869Y243693D01*
X147952Y243576D01*
X148069Y243492D01*
X148103Y243425D01*
X148220Y243308D01*
X148287Y243275D01*
X148404Y243158D01*
X148438Y243091D01*
X148722Y242806D01*
X148839Y242722D01*
X148873Y242655D01*
X149191Y242337D01*
X149308Y242254D01*
X149391Y242137D01*
X149509Y242053D01*
X149542Y241986D01*
X149659Y241869D01*
X149726Y241835D01*
X149776Y241785D01*
X149860Y241668D01*
X149977Y241584D01*
X150011Y241517D01*
X150161Y241367D01*
X150278Y241283D01*
X150312Y241216D01*
X150630Y240898D01*
X150747Y240815D01*
X150780Y240748D01*
X150830Y240698D01*
X150898Y240664D01*
X150981Y240580D01*
X151015Y240513D01*
X151132Y240396D01*
X151199Y240363D01*
X151249Y240313D01*
X151282Y240246D01*
X151333Y240195D01*
X151400Y240162D01*
X151450Y240112D01*
X151483Y240045D01*
X151667Y239861D01*
X151734Y239827D01*
X151751Y239777D01*
X151835Y239693D01*
X151901Y239660D01*
X151918Y239610D01*
X152270Y239258D01*
X152337Y239225D01*
X152420Y239141D01*
X152454Y239074D01*
X152537Y238991D01*
X152655Y238907D01*
X152738Y238790D01*
X152805Y238756D01*
X152889Y238673D01*
X152922Y238606D01*
X153274Y238254D01*
X153341Y238221D01*
X153357Y238171D01*
X153709Y237819D01*
X153776Y237786D01*
X153859Y237702D01*
X153893Y237635D01*
X154010Y237518D01*
X154077Y237485D01*
X154177Y237351D01*
X154244Y237317D01*
X154361Y237200D01*
X154395Y237133D01*
X154679Y236849D01*
X154797Y236765D01*
X154830Y236698D01*
X155148Y236380D01*
X155215Y236347D01*
X155299Y236263D01*
X155332Y236196D01*
X155616Y235911D01*
X155683Y235878D01*
X155801Y235761D01*
X155834Y235694D01*
X156119Y235409D01*
X156236Y235326D01*
X156269Y235259D01*
X156621Y234908D01*
X156687Y234874D01*
X156738Y234824D01*
X156771Y234757D01*
X156905Y234657D01*
X156939Y234590D01*
X157056Y234472D01*
X157123Y234439D01*
X157206Y234355D01*
X157290Y234238D01*
X157357Y234205D01*
X157374Y234155D01*
X157474Y234054D01*
X157675Y233887D01*
X157708Y233820D01*
X158026Y233502D01*
X158143Y233418D01*
X158177Y233351D01*
X158344Y233217D01*
X158378Y233150D01*
X158495Y233033D01*
X158562Y233000D01*
X158645Y232916D01*
X158679Y232849D01*
X158729Y232799D01*
X158796Y232766D01*
X158846Y232715D01*
X158880Y232648D01*
X158997Y232531D01*
X159114Y232448D01*
X159147Y232381D01*
X159382Y232146D01*
X159582Y231979D01*
X159616Y231912D01*
X159666Y231862D01*
X159733Y231828D01*
X159817Y231745D01*
X159850Y231678D01*
X159934Y231594D01*
X160001Y231561D01*
X160118Y231444D01*
X160152Y231377D01*
X160202Y231360D01*
X160285Y231276D01*
X160319Y231209D01*
X160436Y231092D01*
X160553Y231008D01*
X160587Y230942D01*
X161139Y230389D01*
X161206Y230356D01*
X161256Y230306D01*
X161289Y230239D01*
X161490Y230071D01*
X161574Y229954D01*
X161641Y229921D01*
X161724Y229837D01*
X161758Y229770D01*
X161942Y229586D01*
X162009Y229553D01*
X162026Y229502D01*
X162076Y229452D01*
X162193Y229368D01*
X162226Y229302D01*
X162578Y228950D01*
X162645Y228917D01*
X162695Y228867D01*
X162729Y228800D01*
X162929Y228632D01*
X163013Y228515D01*
X163080Y228482D01*
X163197Y228364D01*
X163231Y228297D01*
X163515Y228013D01*
X163632Y227929D01*
X163666Y227862D01*
X164017Y227511D01*
X164084Y227478D01*
X164134Y227427D01*
X164168Y227360D01*
X164452Y227076D01*
X164519Y227042D01*
X164636Y226925D01*
X164670Y226858D01*
X164954Y226574D01*
X165021Y226540D01*
X165071Y226490D01*
X165105Y226423D01*
X165339Y226189D01*
X165540Y226022D01*
X165573Y225955D01*
X165891Y225637D01*
X165958Y225603D01*
X166075Y225486D01*
X166109Y225419D01*
X166209Y225352D01*
X166243Y225285D01*
X166393Y225135D01*
X166460Y225101D01*
X166510Y225051D01*
X166544Y224984D01*
X166862Y224666D01*
X166979Y224583D01*
X167013Y224516D01*
X167096Y224432D01*
X167163Y224398D01*
X167180Y224348D01*
X167330Y224198D01*
X167397Y224164D01*
X167481Y224080D01*
X167515Y224013D01*
X167565Y223963D01*
X167632Y223930D01*
X167682Y223880D01*
X167715Y223813D01*
X167833Y223696D01*
X167950Y223612D01*
X167983Y223545D01*
X168368Y223160D01*
X168435Y223127D01*
X168452Y223076D01*
X168502Y223026D01*
X168619Y222943D01*
X168652Y222876D01*
X168803Y222725D01*
X168870Y222692D01*
X168920Y222641D01*
X169004Y222524D01*
X169071Y222491D01*
X169188Y222340D01*
X169389Y222173D01*
X169422Y222106D01*
X169506Y222022D01*
X169573Y221989D01*
X169590Y221938D01*
X169857Y221671D01*
X170058Y221503D01*
X170092Y221437D01*
X170209Y221319D01*
X170326Y221236D01*
X170410Y221118D01*
X170476Y221085D01*
X170560Y221001D01*
X170594Y220935D01*
X170711Y220817D01*
X170828Y220734D01*
X170861Y220667D01*
X170912Y220617D01*
X171029Y220533D01*
X171062Y220466D01*
X171380Y220148D01*
X171497Y220064D01*
X171531Y219997D01*
X171648Y219880D01*
X171765Y219796D01*
X171849Y219679D01*
X171916Y219646D01*
X172033Y219529D01*
X172066Y219462D01*
X172351Y219177D01*
X172418Y219144D01*
X172468Y219094D01*
X172501Y219027D01*
X172819Y218709D01*
X172936Y218625D01*
X172970Y218558D01*
X173288Y218240D01*
X173355Y218207D01*
X173472Y218090D01*
X173505Y218023D01*
X173790Y217738D01*
X173857Y217705D01*
X173907Y217655D01*
X173941Y217588D01*
X174258Y217270D01*
X174375Y217186D01*
X174409Y217119D01*
X174727Y216801D01*
X174794Y216768D01*
X174911Y216651D01*
X174944Y216584D01*
X175196Y216333D01*
X175262Y216299D01*
X175380Y216182D01*
X175363Y215998D01*
X151567Y215964D01*
X151517Y216015D01*
X151483Y216349D01*
X151349Y216450D01*
X151299Y216701D01*
X151232Y216734D01*
X151182Y216784D01*
X151148Y217186D01*
X151098Y217203D01*
X151015Y217286D01*
X150981Y217487D01*
X150931Y217537D01*
X150864Y217571D01*
X150814Y217688D01*
X150847Y217788D01*
X150830Y217972D01*
X150713Y218056D01*
X150663Y218307D01*
X150596Y218341D01*
X150546Y218391D01*
X150513Y218759D01*
X150362Y218876D01*
X150329Y219278D01*
X150262Y219311D01*
X150211Y219361D01*
X150161Y219613D01*
X150094Y219646D01*
X150027Y219746D01*
X150044Y220031D01*
X149960Y220114D01*
X149893Y220148D01*
X149877Y220366D01*
X149726Y220483D01*
X149693Y220884D01*
X149626Y220918D01*
X149575Y220968D01*
X149542Y221202D01*
X149492Y221219D01*
X149408Y221303D01*
X149375Y221437D01*
X149408Y221537D01*
X149358Y221688D01*
X149291Y221721D01*
X149207Y221872D01*
X149241Y221972D01*
X149224Y222156D01*
X149157Y222189D01*
X149107Y222240D01*
X149057Y222491D01*
X148990Y222524D01*
X148923Y222591D01*
X148889Y222959D01*
X148772Y223043D01*
X148722Y223294D01*
X148655Y223327D01*
X148605Y223378D01*
X148571Y223512D01*
X148605Y223645D01*
X148571Y223779D01*
X148454Y223830D01*
X148438Y224047D01*
X148354Y224131D01*
X148287Y224164D01*
X148270Y224382D01*
X148220Y224432D01*
X148153Y224465D01*
X148086Y224566D01*
X147969Y224649D01*
X147919Y224901D01*
X147852Y224934D01*
X147802Y224984D01*
X147768Y225051D01*
X147668Y225118D01*
X147634Y225185D01*
X147500Y225285D01*
X147467Y225352D01*
X147417Y225402D01*
X147350Y225436D01*
X147249Y225402D01*
X147166Y225453D01*
X147132Y225520D01*
X147082Y225570D01*
X147015Y225603D01*
X146998Y225654D01*
X146948Y225704D01*
X146697Y225754D01*
X146664Y225821D01*
X146597Y225888D01*
X146061Y225921D01*
X146028Y225988D01*
X145944Y226072D01*
X123571Y226055D01*
X123537Y225988D01*
X123470Y225921D01*
X122935Y225888D01*
X122851Y225771D01*
X122617Y225737D01*
X122550Y225637D01*
X122433Y225553D01*
X122399Y225486D01*
X122282Y225402D01*
X122249Y225436D01*
X122131Y225419D01*
X122098Y225352D01*
X122014Y225269D01*
X121947Y225235D01*
X121931Y225185D01*
X121847Y225101D01*
X121780Y225068D01*
X121747Y225001D01*
X121629Y224917D01*
X121596Y224683D01*
X121495Y224616D01*
X121412Y224499D01*
X121345Y224465D01*
X121295Y224415D01*
X121261Y224181D01*
X121161Y224114D01*
X121094Y223846D01*
X121044Y223830D01*
X120927Y223679D01*
X120960Y223612D01*
X120943Y223394D01*
X120826Y223311D01*
X120776Y223060D01*
X120709Y223026D01*
X120659Y222976D01*
X120625Y222574D01*
X120575Y222558D01*
X120492Y222474D01*
X120458Y222240D01*
X120341Y222189D01*
X120291Y222072D01*
X120324Y221972D01*
X120307Y221788D01*
X120190Y221704D01*
X120140Y221453D01*
X120073Y221420D01*
X120006Y221353D01*
X119973Y220985D01*
X119856Y220901D01*
X119805Y220650D01*
X119688Y220566D01*
X119655Y220432D01*
X119688Y220299D01*
X119655Y220165D01*
X119554Y220098D01*
X119487Y219830D01*
X119437Y219813D01*
X119320Y219663D01*
X119353Y219596D01*
X119337Y219378D01*
X119220Y219295D01*
X119169Y219043D01*
X119103Y219010D01*
X119052Y218960D01*
X119019Y218558D01*
X118969Y218542D01*
X118885Y218458D01*
X118851Y218224D01*
X118734Y218173D01*
X118684Y218056D01*
X118718Y217956D01*
X118701Y217772D01*
X118584Y217688D01*
X118534Y217437D01*
X118467Y217404D01*
X118400Y217337D01*
X118366Y216968D01*
X118249Y216885D01*
X118199Y216634D01*
X118082Y216550D01*
X118048Y216416D01*
X118082Y216282D01*
X118048Y216148D01*
X117948Y216082D01*
X117881Y215814D01*
X117831Y215797D01*
X117714Y215647D01*
X117747Y215580D01*
X117730Y215362D01*
X117613Y215278D01*
X117563Y215027D01*
X117496Y214994D01*
X117446Y214944D01*
X117412Y214542D01*
X117329Y214492D01*
X117262Y214458D01*
X117228Y214224D01*
X117061Y214157D01*
X117027Y214224D01*
X116994Y215161D01*
X116944Y215580D01*
X116877Y215814D01*
X116726Y215931D01*
X106217Y215964D01*
X90755D01*
X90621Y215998D01*
X90588Y216065D01*
X90604Y216148D01*
X90755Y216299D01*
X90822Y216333D01*
X90905Y216416D01*
X90939Y216483D01*
X91039Y216584D01*
X91073Y216651D01*
X91223Y216768D01*
X91290Y216801D01*
X91458Y216968D01*
X91525Y217002D01*
X91608Y217086D01*
X91692Y217203D01*
X91759Y217236D01*
X91876Y217353D01*
X91960Y217471D01*
X92027Y217504D01*
X92144Y217655D01*
X92177Y217722D01*
X92345Y217889D01*
X92378Y217956D01*
X92596Y218173D01*
X92663Y218207D01*
X92796Y218341D01*
X92964Y218441D01*
X93047Y218525D01*
X93131Y218642D01*
X93198Y218675D01*
X93549Y219027D01*
X93583Y219094D01*
X93667Y219177D01*
X93817Y219361D01*
X93851Y219428D01*
X94001Y219579D01*
X94068Y219613D01*
X94252Y219796D01*
X94453Y219930D01*
X94486Y219997D01*
X94570Y220081D01*
X94637Y220114D01*
X94754Y220232D01*
X94788Y220299D01*
X94838Y220315D01*
X94989Y220466D01*
X95022Y220533D01*
X95106Y220617D01*
X95256Y220801D01*
X95290Y220867D01*
X95390Y220935D01*
X95424Y221001D01*
X95474Y221052D01*
X95541Y221085D01*
X95742Y221286D01*
X95809Y221319D01*
X96009Y221520D01*
X96076Y221554D01*
X96193Y221671D01*
X96227Y221738D01*
X96277Y221754D01*
X96428Y221905D01*
X96461Y221972D01*
X96662Y222173D01*
X96696Y222240D01*
X96829Y222374D01*
X96913Y222491D01*
X96980Y222524D01*
X97047Y222625D01*
X97114Y222658D01*
X97181Y222725D01*
X97248Y222759D01*
X97448Y222959D01*
X97515Y222993D01*
X97867Y223344D01*
X97900Y223411D01*
X97951Y223461D01*
X98018Y223495D01*
X98101Y223612D01*
X98135Y223679D01*
X98302Y223846D01*
X98335Y223913D01*
X98519Y224097D01*
X98586Y224131D01*
X98787Y224331D01*
X98955Y224432D01*
X99005Y224482D01*
X99038Y224549D01*
X99089Y224599D01*
X99155Y224633D01*
X99273Y224750D01*
X99356Y224867D01*
X99423Y224901D01*
X99574Y225084D01*
X99607Y225151D01*
X99774Y225319D01*
X99808Y225386D01*
X99959Y225536D01*
X100026Y225570D01*
X100226Y225771D01*
X100394Y225871D01*
X100444Y225921D01*
X100477Y225988D01*
X100528Y226038D01*
X100594Y226072D01*
X100712Y226189D01*
X100795Y226306D01*
X100862Y226340D01*
X100946Y226423D01*
X100979Y226490D01*
X101063Y226574D01*
X101214Y226758D01*
X101247Y226825D01*
X101532Y227109D01*
X101599Y227143D01*
X101699Y227243D01*
X101766Y227277D01*
X101967Y227478D01*
X102034Y227511D01*
X102117Y227595D01*
X102201Y227712D01*
X102268Y227745D01*
X102385Y227862D01*
X102419Y227929D01*
X102586Y228097D01*
X102686Y228264D01*
X103004Y228582D01*
X103071Y228615D01*
X103172Y228716D01*
X103238Y228749D01*
X103406Y228917D01*
X103473Y228950D01*
X103590Y229067D01*
X103623Y229134D01*
X103674Y229151D01*
X103824Y229302D01*
X103858Y229368D01*
X104059Y229569D01*
X104092Y229636D01*
X104226Y229770D01*
X104259Y229837D01*
X104443Y230021D01*
X104510Y230055D01*
X104611Y230155D01*
X104728Y230239D01*
X104761Y230306D01*
X104912Y230389D01*
X104996Y230473D01*
X105029Y230540D01*
X105079Y230590D01*
X105146Y230624D01*
X105263Y230741D01*
X105297Y230808D01*
X105380Y230891D01*
X105447Y230925D01*
X105498Y231008D01*
X105531Y231075D01*
X105799Y231343D01*
X105832Y231410D01*
X105916Y231494D01*
X105983Y231527D01*
X106201Y231745D01*
X106401Y231879D01*
X106435Y231946D01*
X106485Y231996D01*
X106552Y232029D01*
X106702Y232180D01*
X106736Y232247D01*
X106786Y232297D01*
X106853Y232330D01*
X106970Y232481D01*
X107004Y232548D01*
X107138Y232682D01*
X107171Y232749D01*
X107389Y232966D01*
X107456Y233000D01*
X107472Y233050D01*
X107522Y233067D01*
X107573Y233117D01*
X107757Y233267D01*
X107824Y233301D01*
X107840Y233351D01*
X107958Y233468D01*
X108025Y233502D01*
X108142Y233619D01*
X108175Y233686D01*
X108225Y233703D01*
X108343Y233820D01*
X108376Y233887D01*
X108460Y233970D01*
X108610Y234155D01*
X108644Y234221D01*
X108995Y234573D01*
X109062Y234606D01*
X109129Y234673D01*
X109196Y234707D01*
X109397Y234908D01*
X109464Y234941D01*
X109514Y234991D01*
X109598Y235108D01*
X109664Y235142D01*
X109782Y235259D01*
X109815Y235326D01*
X110016Y235527D01*
X110049Y235594D01*
X110116Y235661D01*
X110150Y235728D01*
X110401Y235979D01*
X110468Y236012D01*
X110568Y236112D01*
X110685Y236196D01*
X110719Y236263D01*
X110769Y236280D01*
X110836Y236347D01*
X110903Y236380D01*
X110953Y236430D01*
X110986Y236497D01*
X111037Y236547D01*
X111104Y236581D01*
X111221Y236698D01*
X111254Y236765D01*
X111338Y236849D01*
X111405Y236882D01*
X111422Y236932D01*
X111488Y236999D01*
X111522Y237066D01*
X111723Y237267D01*
X111756Y237334D01*
X112007Y237585D01*
X112074Y237618D01*
X112124Y237669D01*
X112308Y237819D01*
X112375Y237853D01*
X112392Y237903D01*
X112476Y237987D01*
X112543Y238020D01*
X112660Y238137D01*
X112693Y238204D01*
X112777Y238288D01*
X112844Y238321D01*
X112861Y238371D01*
X112928Y238438D01*
X112961Y238505D01*
X113162Y238706D01*
X113195Y238773D01*
X113547Y239124D01*
X113714Y239225D01*
X113915Y239426D01*
X113982Y239459D01*
X114099Y239576D01*
X114132Y239643D01*
X114183Y239693D01*
X114250Y239727D01*
X114300Y239777D01*
X114333Y239844D01*
X114400Y239911D01*
X114434Y239978D01*
X114501Y240011D01*
X114534Y240078D01*
X114635Y240179D01*
X114668Y240246D01*
X114936Y240513D01*
X115120Y240664D01*
X115187Y240698D01*
X115354Y240865D01*
X115421Y240898D01*
X115505Y240982D01*
X115588Y241099D01*
X115655Y241133D01*
X115739Y241216D01*
X115772Y241283D01*
X115973Y241484D01*
X116007Y241551D01*
X116074Y241618D01*
X116107Y241685D01*
X116458Y242036D01*
X116525Y242070D01*
X116592Y242137D01*
X116659Y242170D01*
X116793Y242304D01*
X116860Y242337D01*
X116944Y242421D01*
X116977Y242488D01*
X117027Y242538D01*
X117094Y242572D01*
X117178Y242655D01*
X117212Y242722D01*
X117412Y242923D01*
X117446Y242990D01*
X117546Y243091D01*
X117580Y243158D01*
X117931Y243509D01*
X117998Y243542D01*
X118149Y243693D01*
X118350Y243827D01*
X118383Y243894D01*
X118467Y243977D01*
X118534Y244011D01*
X118617Y244095D01*
X118651Y244162D01*
X118851Y244362D01*
X118885Y244429D01*
X119019Y244563D01*
X119052Y244630D01*
X119404Y244982D01*
X119471Y245015D01*
X119605Y245149D01*
X119671Y245182D01*
X119906Y245417D01*
X119973Y245450D01*
X120056Y245534D01*
X120090Y245601D01*
X120174Y245684D01*
X120240Y245718D01*
X120257Y245768D01*
X120324Y245835D01*
X120358Y245902D01*
X120558Y246103D01*
X120592Y246170D01*
X120893Y246471D01*
X121077Y246621D01*
X121144Y246655D01*
X121345Y246856D01*
X121412Y246889D01*
X121495Y246973D01*
X121529Y247040D01*
X121613Y247124D01*
X121680Y247157D01*
X121696Y247207D01*
X121897Y247408D01*
X121931Y247475D01*
X122031Y247575D01*
X122064Y247642D01*
X122366Y247943D01*
X122550Y248094D01*
X122617Y248128D01*
X122751Y248261D01*
X122818Y248295D01*
X122935Y248412D01*
X122968Y248479D01*
X123018Y248529D01*
X123085Y248563D01*
X123135Y248613D01*
X123169Y248680D01*
X123370Y248881D01*
X123403Y248948D01*
X123504Y249048D01*
X123537Y249115D01*
X123889Y249466D01*
X123955Y249500D01*
X124039Y249583D01*
X124223Y249734D01*
X124290Y249767D01*
X124340Y249818D01*
X124374Y249885D01*
X124458Y249968D01*
X124524Y250002D01*
X124575Y250052D01*
X124608Y250119D01*
X124809Y250320D01*
X124842Y250387D01*
X124976Y250520D01*
X125010Y250587D01*
X125361Y250939D01*
X125428Y250972D01*
X125562Y251106D01*
X125629Y251140D01*
X125696Y251207D01*
X125763Y251240D01*
X125779Y251290D01*
X125863Y251374D01*
X125930Y251407D01*
X126014Y251491D01*
X126047Y251558D01*
X126281Y251792D01*
X126315Y251859D01*
X126415Y251960D01*
X126449Y252027D01*
X126850Y252428D01*
X127034Y252579D01*
X127102Y252612D01*
X127302Y252813D01*
X127369Y252847D01*
X127453Y252930D01*
X127486Y252997D01*
X127570Y253081D01*
X127637Y253114D01*
X127721Y253231D01*
X127754Y253298D01*
X127988Y253533D01*
X128022Y253600D01*
X128373Y253951D01*
X128541Y254051D01*
X128741Y254252D01*
X128808Y254286D01*
X128859Y254336D01*
X128892Y254403D01*
X128976Y254486D01*
X129043Y254520D01*
X129193Y254704D01*
X129227Y254771D01*
X129294Y254804D01*
X129327Y254871D01*
X129428Y254972D01*
X129461Y255039D01*
X129846Y255424D01*
X129913Y255457D01*
X130080Y255624D01*
X130247Y255725D01*
X130298Y255775D01*
X130331Y255842D01*
X130415Y255926D01*
X130482Y255959D01*
X130532Y256009D01*
X130566Y256076D01*
X130766Y256277D01*
X130800Y256344D01*
X130900Y256444D01*
X130934Y256511D01*
X131285Y256863D01*
X131352Y256896D01*
X131469Y257013D01*
X131653Y257164D01*
X131720Y257197D01*
X131737Y257248D01*
X131854Y257365D01*
X131921Y257398D01*
X131971Y257448D01*
X132005Y257515D01*
X132239Y257750D01*
X132272Y257817D01*
X132339Y257884D01*
X132373Y257950D01*
X132774Y258352D01*
X132958Y258503D01*
X133059Y258469D01*
D02*
G37*
G36*
X151801Y143874D02*
X151918Y143790D01*
X151969Y143673D01*
X151952Y143489D01*
X151985Y143355D01*
X152035Y143338D01*
X152086Y143288D01*
X152119Y143087D01*
X152169Y143037D01*
X152236Y143003D01*
X152286Y142920D01*
X152270Y142702D01*
X152303Y142568D01*
X152370Y142535D01*
X152420Y142485D01*
X152454Y142351D01*
X152420Y142217D01*
X152454Y142083D01*
X152504Y142066D01*
X152604Y141966D01*
X152588Y141648D01*
X152722Y141548D01*
X152755Y141313D01*
X152906Y141196D01*
X152939Y140795D01*
X153006Y140761D01*
X153090Y140677D01*
X153073Y140460D01*
X153090Y140343D01*
X153224Y140242D01*
X153257Y140108D01*
X153224Y139974D01*
X153257Y139841D01*
X153357Y139774D01*
X153424Y139506D01*
X153474Y139489D01*
X153525Y139439D01*
X153558Y139071D01*
X153709Y138954D01*
X153742Y138552D01*
X153809Y138519D01*
X153859Y138468D01*
X153893Y138301D01*
X153859Y138201D01*
X153893Y138100D01*
X153943Y138050D01*
X154010Y138017D01*
X154043Y137950D01*
X154077Y137749D01*
X154144Y137715D01*
X154228Y137565D01*
X154194Y137464D01*
X154211Y137280D01*
X154278Y137247D01*
X154328Y137197D01*
X154378Y137080D01*
X154361Y136828D01*
X154445Y136745D01*
X154512Y136711D01*
X154545Y136310D01*
X154613Y136276D01*
X154663Y136226D01*
X154713Y135975D01*
X154780Y135942D01*
X154864Y135858D01*
X154830Y135557D01*
X154914Y135473D01*
X154981Y135440D01*
X155031Y135322D01*
X154997Y135222D01*
X155014Y135038D01*
X155131Y134954D01*
X155165Y134653D01*
X155198Y134519D01*
X155248Y134502D01*
X155299Y134452D01*
X155332Y134251D01*
X155382Y134201D01*
X155449Y134168D01*
X155499Y134084D01*
X155483Y133867D01*
X155516Y133733D01*
X155583Y133699D01*
X155633Y133649D01*
X155667Y133515D01*
X155633Y133381D01*
X155667Y133247D01*
X155717Y133231D01*
X155801Y133147D01*
X155834Y133080D01*
X155801Y132980D01*
X155817Y132796D01*
X155935Y132712D01*
X155968Y132478D01*
X156119Y132360D01*
X156152Y131959D01*
X156219Y131925D01*
X156303Y131842D01*
X156286Y131624D01*
X156319Y131490D01*
X156437Y131407D01*
X156470Y131273D01*
X156437Y131139D01*
X156470Y131005D01*
X156570Y130938D01*
X156637Y130670D01*
X156687Y130654D01*
X156738Y130603D01*
X156771Y130235D01*
X156922Y130118D01*
X156955Y129716D01*
X157022Y129683D01*
X157072Y129633D01*
X157106Y129465D01*
X157072Y129365D01*
X157106Y129265D01*
X157156Y129214D01*
X157223Y129181D01*
X157256Y129114D01*
X157290Y128913D01*
X157357Y128880D01*
X157440Y128729D01*
X157407Y128629D01*
X157424Y128445D01*
X157491Y128411D01*
X157541Y128361D01*
X157574Y127993D01*
X157708Y127859D01*
X157742Y127759D01*
X157692Y127608D01*
X157625Y127575D01*
X157541Y127725D01*
X157491Y127775D01*
X157390Y127809D01*
X157089Y128009D01*
X156972Y128093D01*
X156939Y128160D01*
X156888Y128177D01*
X156821Y128244D01*
X156754Y128277D01*
X156671Y128361D01*
X156637Y128428D01*
X156587Y128478D01*
X156520Y128512D01*
X156319Y128712D01*
X156252Y128746D01*
X156202Y128796D01*
X156169Y128863D01*
X156085Y128947D01*
X156018Y128980D01*
X155834Y129164D01*
X155616Y129248D01*
X155449Y129415D01*
X155382Y129449D01*
X155215Y129616D01*
X155148Y129649D01*
X154997Y129800D01*
X154964Y129867D01*
X154914Y129884D01*
X154763Y130001D01*
X154730Y130068D01*
X154679Y130118D01*
X154613Y130151D01*
X154378Y130386D01*
X154311Y130419D01*
X154177Y130553D01*
X154010Y130654D01*
X153876Y130787D01*
X153809Y130821D01*
X153542Y131089D01*
X153474Y131122D01*
X153090Y131507D01*
X153056Y131574D01*
X153006Y131591D01*
X152504Y132093D01*
X152437Y132126D01*
X152420Y132176D01*
X152337Y132260D01*
X152270Y132293D01*
X151768Y132796D01*
X151701Y132829D01*
X151684Y132879D01*
X150245Y134318D01*
X150161Y134435D01*
X150094Y134469D01*
X150011Y134553D01*
X149977Y134620D01*
X149827Y134770D01*
X149759Y134804D01*
X149743Y134854D01*
X149425Y135172D01*
X149358Y135205D01*
X149308Y135255D01*
X149274Y135322D01*
X149074Y135490D01*
X149040Y135557D01*
X148889Y135707D01*
X148822Y135741D01*
X148806Y135791D01*
X148571Y136025D01*
X148538Y136092D01*
X148270Y136360D01*
X148237Y136427D01*
X148187Y136477D01*
X148036Y136661D01*
X148003Y136728D01*
X147919Y136812D01*
X147852Y136845D01*
X147802Y136929D01*
X147768Y136996D01*
X147634Y137130D01*
X147601Y137197D01*
X147450Y137347D01*
X147383Y137381D01*
X147367Y137431D01*
X147132Y137665D01*
X147099Y137732D01*
X146864Y137966D01*
X146831Y138033D01*
X146630Y138234D01*
X146547Y138351D01*
X146480Y138385D01*
X146329Y138535D01*
X146296Y138602D01*
X146229Y138669D01*
X146095Y138903D01*
X146045Y138954D01*
X145978Y138987D01*
X145927Y139071D01*
X145894Y139138D01*
X145810Y139222D01*
X145743Y139255D01*
X145660Y139372D01*
X145626Y139439D01*
X145543Y139489D01*
X145392Y139673D01*
X145359Y139740D01*
X145158Y139941D01*
X145124Y140008D01*
X145057Y140075D01*
X144923Y140309D01*
X144756Y140477D01*
X144723Y140543D01*
X144488Y140778D01*
X144455Y140845D01*
X144321Y140979D01*
X144154Y141213D01*
X144120Y141280D01*
X144053Y141347D01*
X143986Y141514D01*
X143869Y141631D01*
X143802Y141665D01*
X143702Y141832D01*
X143635Y141866D01*
X143551Y141949D01*
X143518Y142016D01*
X143317Y142217D01*
X143283Y142284D01*
X143099Y142468D01*
X143016Y142685D01*
X142882Y142819D01*
X142781Y142987D01*
X142581Y143187D01*
X142547Y143254D01*
X142447Y143355D01*
X142413Y143422D01*
X142346Y143489D01*
X142313Y143656D01*
X142229Y143740D01*
X142162Y143773D01*
X142079Y143857D01*
X142129Y143940D01*
X145978Y143974D01*
X151734D01*
X151801Y143874D01*
D02*
G37*
G36*
X184249Y132310D02*
X184282Y132243D01*
X184416Y132109D01*
X184500Y131992D01*
X184667Y131892D01*
X184684Y131842D01*
X184851Y131708D01*
X184885Y131641D01*
X185035Y131490D01*
X185102Y131457D01*
X185186Y131373D01*
X185219Y131306D01*
X185269Y131290D01*
X185387Y131172D01*
X185420Y131105D01*
X185470Y131089D01*
X185571Y130988D01*
X185638Y130955D01*
X185654Y130905D01*
X185772Y130787D01*
X185838Y130754D01*
X185855Y130704D01*
X186006Y130553D01*
X186123Y130470D01*
X186156Y130403D01*
X186340Y130252D01*
X186458Y130168D01*
X186642Y130018D01*
X186709Y129984D01*
X186809Y129884D01*
X186876Y129850D01*
X187144Y129583D01*
X187211Y129549D01*
X187378Y129382D01*
X187445Y129348D01*
X187646Y129148D01*
X187763Y129064D01*
X187796Y128997D01*
X187847Y128947D01*
X188081Y128813D01*
X188181Y128712D01*
X188248Y128679D01*
X188416Y128512D01*
X188482Y128478D01*
X188817Y128143D01*
X188884Y128110D01*
X189001Y127993D01*
X189202Y127859D01*
X189235Y127792D01*
X189286Y127742D01*
X189520Y127608D01*
X189721Y127474D01*
X189788Y127441D01*
X190022Y127206D01*
X190089Y127173D01*
X190290Y126972D01*
X190407Y126888D01*
X190440Y126821D01*
X190708Y126654D01*
X191110Y126386D01*
X191143Y126319D01*
X191193Y126303D01*
X191428Y126068D01*
X191662Y125935D01*
X191679Y125884D01*
X191796Y125801D01*
X191863Y125767D01*
X192080Y125650D01*
X192114Y125583D01*
X192164Y125566D01*
X192231Y125499D01*
X192298Y125466D01*
X192315Y125416D01*
X192365Y125365D01*
X192532Y125265D01*
X192766Y125098D01*
X192934Y125031D01*
X193101Y124864D01*
X193168Y124830D01*
X193402Y124596D01*
X193469Y124562D01*
X193703Y124495D01*
X193837Y124362D01*
X193904Y124328D01*
X194072Y124161D01*
X194373Y123993D01*
X194440Y123960D01*
X194507Y123893D01*
X194574Y123860D01*
X194657Y123776D01*
X194691Y123709D01*
X194741Y123692D01*
X194791Y123642D01*
X195009Y123558D01*
X195126Y123441D01*
X195343Y123357D01*
X195561Y123140D01*
X195812Y123090D01*
X195946Y122956D01*
X196013Y122922D01*
X196347Y122688D01*
X196515Y122621D01*
X196565Y122571D01*
X196749Y122420D01*
X196816Y122387D01*
X196916Y122286D01*
X197084Y122186D01*
X197318Y122086D01*
X197385Y122019D01*
X197502Y121935D01*
X197686Y121885D01*
X197753Y121818D01*
X197820Y121784D01*
X197870Y121734D01*
X198088Y121651D01*
X198322Y121483D01*
X198456Y121450D01*
X198590Y121316D01*
X198707Y121232D01*
X198891Y121182D01*
X199142Y120998D01*
X199360Y120914D01*
X199427Y120847D01*
X199661Y120713D01*
X199862Y120513D01*
X200129Y120479D01*
X200263Y120345D01*
X200431Y120245D01*
X200665Y120178D01*
X200799Y120044D01*
X200966Y120011D01*
X201100Y119977D01*
X201267Y119810D01*
X201602Y119676D01*
X201669Y119642D01*
X201736Y119576D01*
X201903Y119509D01*
X202054Y119458D01*
X202238Y119308D01*
X202372Y119274D01*
X202623Y119124D01*
X202840Y119040D01*
X202941Y119007D01*
X203008Y118973D01*
X203025Y118923D01*
X203225Y118823D01*
X203443Y118772D01*
X203510Y118705D01*
X203577Y118672D01*
X203644Y118605D01*
X203844Y118571D01*
X203978Y118538D01*
X204029Y118488D01*
X204062Y118421D01*
X204112Y118404D01*
X204179Y118337D01*
X204447Y118304D01*
X204949Y118069D01*
X205083Y118036D01*
X205284Y117902D01*
X205350Y117869D01*
X205853Y117634D01*
X206120Y117567D01*
X206271Y117417D01*
X206522Y117367D01*
X206656Y117333D01*
X206924Y117166D01*
X207292Y117132D01*
X207342Y117082D01*
X207526Y116931D01*
X207660Y116898D01*
X207894Y116865D01*
X208061Y116798D01*
X208245Y116681D01*
X208463Y116630D01*
X208597Y116597D01*
X208815Y116480D01*
X208982Y116413D01*
X209166Y116363D01*
X209367Y116229D01*
X209534Y116195D01*
X209802Y116128D01*
X209969Y116028D01*
X210137Y115961D01*
X210605Y115894D01*
X210839Y115727D01*
X211241Y115693D01*
X211392Y115643D01*
X211576Y115492D01*
X211910Y115459D01*
X212145Y115425D01*
X212295Y115375D01*
X212329Y115241D01*
X212279Y115191D01*
X212211Y115158D01*
X212078Y115124D01*
X211793Y114974D01*
X211659Y114940D01*
X211140Y114890D01*
X210973Y114823D01*
X210739Y114689D01*
X210203Y114656D01*
X210069Y114622D01*
X209802Y114455D01*
X209132Y114388D01*
X208999Y114354D01*
X208697Y114221D01*
X208128Y114187D01*
X207794Y114154D01*
X207610Y114070D01*
X207392Y113986D01*
X207158Y113953D01*
X206723Y113919D01*
X206589Y113886D01*
X206405Y113836D01*
X206271Y113802D01*
X206070Y113769D01*
X205685Y113719D01*
X205451Y113685D01*
X205150Y113551D01*
X204832Y113501D01*
X203543Y113451D01*
X203409Y113417D01*
X203225Y113367D01*
X202907Y113317D01*
X202807Y113284D01*
X201769Y113250D01*
X201234Y113216D01*
X201000Y113150D01*
X200832Y113083D01*
X200062Y113049D01*
X199962Y113016D01*
X195712Y112982D01*
X193670Y113016D01*
X193034Y113049D01*
X192800Y113083D01*
X192666Y113116D01*
X192515Y113166D01*
X192331Y113216D01*
X192298D01*
X192114Y113233D01*
X190976Y113267D01*
X190491Y113317D01*
X190357Y113350D01*
X190173Y113401D01*
X190039Y113434D01*
X188951Y113484D01*
X188616Y113518D01*
X188332Y113601D01*
X188064Y113702D01*
X187729Y113735D01*
X187462Y113769D01*
X187144Y113819D01*
X186859Y113903D01*
X186039Y113986D01*
X185671Y114154D01*
X185019Y114204D01*
X184734Y114254D01*
X184533Y114388D01*
X184098Y114421D01*
X183763Y114455D01*
X183529Y114622D01*
X183061Y114656D01*
X182927Y114689D01*
X182692Y114723D01*
X182324Y114890D01*
X181889Y114923D01*
X181655Y114957D01*
X181387Y115124D01*
X181220Y115158D01*
X181086Y115191D01*
X180852Y115258D01*
X180668Y115342D01*
X180534Y115375D01*
X180216Y115425D01*
X179982Y115593D01*
X179647Y115626D01*
X179513Y115660D01*
X179245Y115827D01*
X178810Y115860D01*
X178676Y115894D01*
X178442Y116061D01*
X178074Y116095D01*
X177940Y116128D01*
X177773Y116195D01*
X177706Y116229D01*
X177639Y116296D01*
X177438Y116329D01*
X177204Y116396D01*
X177120Y116480D01*
X176953Y116547D01*
X176769Y116597D01*
X176333Y116798D01*
X176200Y116831D01*
X176032Y116898D01*
X175965Y116931D01*
X175898Y116999D01*
X175698Y117032D01*
X175564Y117065D01*
X175329Y117166D01*
X175162Y117266D01*
X174928Y117300D01*
X174794Y117333D01*
X174526Y117500D01*
X174225Y117534D01*
X174024Y117735D01*
X173790Y117768D01*
X173288Y118002D01*
X173187Y118036D01*
X173054Y118069D01*
X172853Y118203D01*
X172786Y118237D01*
X172284Y118471D01*
X172116Y118538D01*
X171815Y118705D01*
X171547Y118772D01*
X171481Y118839D01*
X171313Y118940D01*
X171079Y118973D01*
X170895Y119157D01*
X170677Y119207D01*
X170543Y119241D01*
X170393Y119391D01*
X170142Y119442D01*
X170041Y119542D01*
X169606Y119776D01*
X169372Y119910D01*
X169238Y119944D01*
X169171Y120011D01*
X168937Y120144D01*
X168703Y120245D01*
X168636Y120278D01*
X168586Y120329D01*
X168401Y120379D01*
X168234Y120446D01*
X168167Y120513D01*
X167933Y120647D01*
X167799Y120680D01*
X167565Y120847D01*
X167397Y120881D01*
X167063Y121115D01*
X166996Y121149D01*
X166845Y121299D01*
X166628Y121383D01*
X166561Y121450D01*
X166393Y121550D01*
X166209Y121634D01*
X166176Y121734D01*
X166260Y121784D01*
X183496Y121818D01*
X183830Y121784D01*
X183914Y121868D01*
X183948Y121935D01*
X184065Y121985D01*
X184165Y121952D01*
X184517Y121968D01*
X184550Y122035D01*
X184600Y122086D01*
X184851Y122136D01*
X184885Y122203D01*
X185102Y122420D01*
X185303Y122454D01*
X185822Y122973D01*
X185855Y123173D01*
X186073Y123391D01*
X186140Y123424D01*
X186173Y123491D01*
X186207Y123692D01*
X186274Y123726D01*
X186340Y123826D01*
X186324Y124211D01*
X186357Y124345D01*
X186407Y124362D01*
X186491Y124445D01*
X186474Y126102D01*
X186407Y126135D01*
X186357Y126186D01*
X186324Y126487D01*
X186357Y126587D01*
X186324Y126721D01*
X186274Y126771D01*
X186207Y126805D01*
X186190Y127022D01*
X186140Y127072D01*
X186073Y127106D01*
X185989Y127257D01*
X186022Y127290D01*
X186006Y127541D01*
X185939Y127575D01*
X185872Y127641D01*
X185838Y128009D01*
X185721Y128093D01*
X185671Y128344D01*
X185554Y128428D01*
X185521Y128562D01*
X185554Y128696D01*
X185521Y128830D01*
X185420Y128896D01*
X185353Y129164D01*
X185303Y129181D01*
X185186Y129332D01*
X185219Y129399D01*
X185203Y129616D01*
X185085Y129700D01*
X185035Y129951D01*
X184968Y129984D01*
X184918Y130034D01*
X184885Y130436D01*
X184834Y130453D01*
X184751Y130536D01*
X184717Y130670D01*
X184751Y130771D01*
X184717Y130905D01*
X184617Y130972D01*
X184583Y131206D01*
X184450Y131306D01*
X184399Y131423D01*
X184416Y131708D01*
X184265Y131791D01*
X184249Y131909D01*
X184282Y132009D01*
X184232Y132059D01*
X184165Y132093D01*
X184098Y132193D01*
X184115Y132277D01*
X184165Y132327D01*
X184249Y132310D01*
D02*
G37*
G36*
X116325Y37609D02*
X116547Y37590D01*
X116741Y37562D01*
X116898Y37525D01*
X117028Y37488D01*
X117120Y37461D01*
X117176Y37442D01*
X117185Y37433D01*
X117194D01*
X117342Y37359D01*
X117462Y37275D01*
X117573Y37192D01*
X117657Y37109D01*
X117731Y37035D01*
X117786Y36979D01*
X117814Y36942D01*
X117823Y36924D01*
X117897Y36785D01*
X117962Y36637D01*
X118008Y36489D01*
X118054Y36341D01*
X118082Y36202D01*
X118101Y36101D01*
X118110Y36055D01*
X118119Y36027D01*
Y36008D01*
Y35999D01*
X116704Y35888D01*
X116676Y36036D01*
X116648Y36156D01*
X116611Y36258D01*
X116574Y36341D01*
X116537Y36406D01*
X116510Y36452D01*
X116491Y36471D01*
X116482Y36480D01*
X116408Y36536D01*
X116334Y36582D01*
X116260Y36610D01*
X116195Y36637D01*
X116130Y36647D01*
X116084Y36656D01*
X116038D01*
X115945Y36647D01*
X115862Y36628D01*
X115788Y36600D01*
X115723Y36573D01*
X115668Y36545D01*
X115631Y36517D01*
X115612Y36498D01*
X115603Y36489D01*
X115548Y36424D01*
X115501Y36360D01*
X115474Y36295D01*
X115446Y36230D01*
X115437Y36175D01*
X115427Y36129D01*
Y36101D01*
Y36092D01*
X115437Y36008D01*
X115455Y35934D01*
X115483Y35851D01*
X115511Y35786D01*
X115548Y35721D01*
X115575Y35675D01*
X115594Y35647D01*
X115603Y35638D01*
X115640Y35592D01*
X115686Y35537D01*
X115797Y35425D01*
X115936Y35315D01*
X116066Y35194D01*
X116195Y35092D01*
X116297Y35009D01*
X116343Y34982D01*
X116371Y34954D01*
X116389Y34944D01*
X116399Y34935D01*
X116584Y34797D01*
X116750Y34667D01*
X116907Y34538D01*
X117046Y34417D01*
X117176Y34297D01*
X117287Y34195D01*
X117388Y34093D01*
X117472Y34001D01*
X117546Y33918D01*
X117620Y33844D01*
X117666Y33779D01*
X117712Y33733D01*
X117749Y33687D01*
X117768Y33659D01*
X117777Y33640D01*
X117786Y33631D01*
X117906Y33428D01*
X118008Y33215D01*
X118082Y33020D01*
X118138Y32845D01*
X118184Y32688D01*
X118193Y32623D01*
X118202Y32567D01*
X118212Y32530D01*
X118221Y32493D01*
Y32475D01*
Y32465D01*
X113984D01*
Y33612D01*
X116195D01*
X116056Y33733D01*
X115955Y33834D01*
X115918Y33862D01*
X115890Y33890D01*
X115871Y33899D01*
X115862Y33909D01*
X115797Y33964D01*
X115714Y34029D01*
X115612Y34093D01*
X115520Y34158D01*
X115427Y34223D01*
X115353Y34279D01*
X115307Y34315D01*
X115289Y34325D01*
X115159Y34417D01*
X115039Y34510D01*
X114928Y34602D01*
X114826Y34686D01*
X114743Y34769D01*
X114660Y34843D01*
X114521Y34982D01*
X114419Y35092D01*
X114354Y35176D01*
X114308Y35231D01*
X114299Y35250D01*
X114206Y35407D01*
X114142Y35564D01*
X114086Y35721D01*
X114058Y35851D01*
X114040Y35971D01*
X114021Y36064D01*
Y36092D01*
Y36119D01*
Y36129D01*
Y36138D01*
X114031Y36295D01*
X114058Y36443D01*
X114095Y36582D01*
X114142Y36693D01*
X114188Y36794D01*
X114225Y36859D01*
X114253Y36906D01*
X114262Y36924D01*
X114354Y37044D01*
X114465Y37155D01*
X114576Y37238D01*
X114678Y37312D01*
X114771Y37368D01*
X114854Y37414D01*
X114900Y37433D01*
X114909Y37442D01*
X114919D01*
X115085Y37497D01*
X115270Y37544D01*
X115464Y37571D01*
X115649Y37599D01*
X115816Y37609D01*
X115890D01*
X115955Y37618D01*
X116075D01*
X116325Y37609D01*
D02*
G37*
G36*
X152520Y36212D02*
X152659Y36202D01*
X152779Y36175D01*
X152881Y36147D01*
X152964Y36119D01*
X153019Y36101D01*
X153066Y36082D01*
X153075Y36073D01*
X153186Y36008D01*
X153288Y35943D01*
X153380Y35860D01*
X153473Y35777D01*
X153547Y35712D01*
X153602Y35647D01*
X153639Y35610D01*
X153648Y35592D01*
Y36138D01*
X154962D01*
Y32465D01*
X153547D01*
Y34334D01*
X153537Y34482D01*
X153519Y34602D01*
X153500Y34704D01*
X153473Y34787D01*
X153445Y34852D01*
X153417Y34898D01*
X153408Y34926D01*
X153399Y34935D01*
X153334Y35000D01*
X153269Y35046D01*
X153204Y35074D01*
X153140Y35102D01*
X153075Y35111D01*
X153029Y35120D01*
X152992D01*
X152890Y35102D01*
X152807Y35074D01*
X152751Y35046D01*
X152742Y35028D01*
X152733D01*
X152659Y34954D01*
X152612Y34889D01*
X152585Y34833D01*
X152575Y34815D01*
Y34806D01*
X152566Y34769D01*
X152557Y34723D01*
X152548Y34611D01*
Y34565D01*
Y34519D01*
Y34491D01*
Y34482D01*
Y32465D01*
X151132D01*
Y34362D01*
X151123Y34501D01*
X151105Y34621D01*
X151086Y34723D01*
X151058Y34797D01*
X151031Y34861D01*
X151003Y34898D01*
X150994Y34926D01*
X150984Y34935D01*
X150929Y35000D01*
X150855Y35046D01*
X150790Y35074D01*
X150725Y35102D01*
X150670Y35111D01*
X150624Y35120D01*
X150587D01*
X150513Y35111D01*
X150439Y35092D01*
X150383Y35056D01*
X150328Y35028D01*
X150291Y34991D01*
X150263Y34954D01*
X150244Y34935D01*
X150235Y34926D01*
X150198Y34880D01*
X150180Y34815D01*
X150143Y34695D01*
Y34639D01*
X150133Y34593D01*
Y34565D01*
Y34556D01*
Y32465D01*
X148718D01*
Y34769D01*
Y34907D01*
X148737Y35028D01*
X148774Y35259D01*
X148820Y35444D01*
X148885Y35601D01*
X148949Y35721D01*
X148996Y35805D01*
X149033Y35851D01*
X149051Y35870D01*
X149190Y35990D01*
X149338Y36073D01*
X149486Y36138D01*
X149634Y36175D01*
X149773Y36202D01*
X149874Y36212D01*
X149921Y36221D01*
X149976D01*
X150124Y36212D01*
X150254Y36202D01*
X150374Y36175D01*
X150466Y36156D01*
X150550Y36129D01*
X150614Y36101D01*
X150651Y36092D01*
X150661Y36082D01*
X150762Y36027D01*
X150864Y35953D01*
X150966Y35870D01*
X151058Y35786D01*
X151142Y35712D01*
X151206Y35647D01*
X151243Y35610D01*
X151262Y35592D01*
X151327Y35703D01*
X151391Y35796D01*
X151465Y35879D01*
X151530Y35943D01*
X151586Y35999D01*
X151632Y36036D01*
X151669Y36055D01*
X151678Y36064D01*
X151780Y36119D01*
X151891Y36156D01*
X152011Y36184D01*
X152122Y36202D01*
X152224Y36212D01*
X152298Y36221D01*
X152372D01*
X152520Y36212D01*
D02*
G37*
G36*
X111450Y37442D02*
X111552Y37285D01*
X111653Y37146D01*
X111755Y37035D01*
X111848Y36933D01*
X111922Y36859D01*
X111968Y36822D01*
X111977Y36804D01*
X111986D01*
X112144Y36683D01*
X112329Y36582D01*
X112514Y36489D01*
X112689Y36406D01*
X112847Y36341D01*
X112921Y36314D01*
X112976Y36286D01*
X113032Y36277D01*
X113069Y36258D01*
X113087Y36249D01*
X113096D01*
Y35102D01*
X112921Y35157D01*
X112763Y35203D01*
X112634Y35259D01*
X112514Y35305D01*
X112421Y35342D01*
X112347Y35370D01*
X112310Y35388D01*
X112292Y35398D01*
X112171Y35462D01*
X112051Y35537D01*
X111931Y35610D01*
X111829Y35675D01*
X111746Y35740D01*
X111672Y35786D01*
X111635Y35823D01*
X111616Y35833D01*
Y32465D01*
X110192D01*
Y37618D01*
X111357D01*
X111450Y37442D01*
D02*
G37*
G36*
X158153Y36212D02*
X158273Y36202D01*
X158384Y36193D01*
X158477Y36175D01*
X158551Y36165D01*
X158588Y36156D01*
X158606D01*
X158727Y36138D01*
X158828Y36110D01*
X158921Y36082D01*
X158995Y36055D01*
X159050Y36027D01*
X159097Y36008D01*
X159124Y35999D01*
X159134Y35990D01*
X159226Y35934D01*
X159309Y35870D01*
X159383Y35814D01*
X159439Y35759D01*
X159485Y35712D01*
X159522Y35675D01*
X159541Y35647D01*
X159550Y35638D01*
X159596Y35555D01*
X159642Y35462D01*
X159679Y35370D01*
X159707Y35287D01*
X159735Y35203D01*
X159744Y35139D01*
X159763Y35102D01*
Y35083D01*
X158412Y34944D01*
X158384Y35028D01*
X158347Y35092D01*
X158310Y35148D01*
X158273Y35194D01*
X158246Y35231D01*
X158218Y35250D01*
X158209Y35268D01*
X158199D01*
X158125Y35305D01*
X158042Y35333D01*
X157876Y35370D01*
X157802D01*
X157737Y35379D01*
X157589D01*
X157506Y35361D01*
X157441Y35342D01*
X157395Y35324D01*
X157348Y35305D01*
X157321Y35287D01*
X157311Y35278D01*
X157302Y35268D01*
X157265Y35222D01*
X157237Y35166D01*
X157200Y35056D01*
Y35000D01*
X157191Y34954D01*
Y34926D01*
Y34917D01*
X157385Y34843D01*
X157469Y34815D01*
X157543Y34787D01*
X157607Y34769D01*
X157654Y34750D01*
X157691Y34741D01*
X157700D01*
X157746Y34732D01*
X157811Y34713D01*
X157959Y34676D01*
X158125Y34639D01*
X158301Y34602D01*
X158458Y34574D01*
X158532Y34556D01*
X158597Y34547D01*
X158653Y34538D01*
X158690Y34528D01*
X158717Y34519D01*
X158727D01*
X158847Y34491D01*
X158958Y34464D01*
X159143Y34399D01*
X159300Y34334D01*
X159430Y34269D01*
X159522Y34214D01*
X159587Y34168D01*
X159624Y34130D01*
X159633Y34121D01*
X159716Y34020D01*
X159772Y33899D01*
X159818Y33788D01*
X159846Y33677D01*
X159864Y33585D01*
X159874Y33511D01*
Y33455D01*
Y33446D01*
Y33437D01*
X159855Y33270D01*
X159818Y33132D01*
X159772Y33002D01*
X159707Y32891D01*
X159642Y32798D01*
X159596Y32734D01*
X159559Y32697D01*
X159541Y32678D01*
X159402Y32577D01*
X159235Y32512D01*
X159069Y32456D01*
X158912Y32419D01*
X158764Y32401D01*
X158699Y32392D01*
X158643D01*
X158597Y32382D01*
X158532D01*
X158357Y32392D01*
X158190Y32410D01*
X158042Y32429D01*
X157913Y32456D01*
X157811Y32484D01*
X157728Y32512D01*
X157681Y32521D01*
X157663Y32530D01*
X157561Y32577D01*
X157469Y32641D01*
X157376Y32697D01*
X157293Y32761D01*
X157219Y32817D01*
X157163Y32863D01*
X157126Y32900D01*
X157117Y32910D01*
X157099Y32808D01*
X157080Y32734D01*
X157071Y32697D01*
Y32678D01*
X157043Y32614D01*
X157006Y32549D01*
X156969Y32493D01*
X156960Y32475D01*
Y32465D01*
X155637D01*
X155711Y32614D01*
X155730Y32678D01*
X155748Y32734D01*
X155767Y32780D01*
X155776Y32808D01*
X155785Y32826D01*
Y32836D01*
X155794Y32900D01*
X155804Y32965D01*
X155813Y33094D01*
Y33150D01*
Y33196D01*
Y33233D01*
Y33242D01*
Y34861D01*
Y34963D01*
X155831Y35056D01*
X155850Y35148D01*
X155868Y35231D01*
X155887Y35305D01*
X155905Y35361D01*
X155915Y35398D01*
X155924Y35407D01*
X155961Y35509D01*
X156007Y35601D01*
X156053Y35675D01*
X156100Y35740D01*
X156137Y35786D01*
X156174Y35823D01*
X156192Y35842D01*
X156201Y35851D01*
X156303Y35925D01*
X156414Y35990D01*
X156516Y36045D01*
X156618Y36082D01*
X156710Y36110D01*
X156784Y36129D01*
X156830Y36147D01*
X156849D01*
X156997Y36175D01*
X157163Y36193D01*
X157339Y36202D01*
X157496Y36212D01*
X157644Y36221D01*
X158014D01*
X158153Y36212D01*
D02*
G37*
G36*
X138710Y33770D02*
X136665D01*
Y34861D01*
X138710D01*
Y33770D01*
D02*
G37*
G36*
X162704Y36212D02*
X162871Y36202D01*
X163028Y36175D01*
X163176Y36138D01*
X163315Y36101D01*
X163435Y36055D01*
X163555Y35999D01*
X163657Y35953D01*
X163749Y35906D01*
X163823Y35851D01*
X163897Y35805D01*
X163953Y35768D01*
X163999Y35731D01*
X164027Y35712D01*
X164045Y35694D01*
X164055Y35684D01*
X164147Y35583D01*
X164230Y35472D01*
X164304Y35361D01*
X164369Y35241D01*
X164425Y35120D01*
X164471Y35009D01*
X164536Y34787D01*
X164554Y34686D01*
X164573Y34593D01*
X164582Y34501D01*
X164591Y34427D01*
X164600Y34371D01*
Y34325D01*
Y34297D01*
Y34288D01*
X164591Y34066D01*
X164554Y33871D01*
X164517Y33687D01*
X164462Y33538D01*
X164415Y33409D01*
X164369Y33316D01*
X164360Y33279D01*
X164341Y33252D01*
X164332Y33242D01*
Y33233D01*
X164221Y33076D01*
X164110Y32947D01*
X163990Y32836D01*
X163879Y32743D01*
X163786Y32678D01*
X163703Y32623D01*
X163657Y32595D01*
X163638Y32586D01*
X163472Y32521D01*
X163287Y32465D01*
X163093Y32429D01*
X162908Y32410D01*
X162741Y32392D01*
X162676D01*
X162612Y32382D01*
X162334D01*
X162195Y32392D01*
X162057Y32401D01*
X161936Y32419D01*
X161816Y32438D01*
X161714Y32456D01*
X161622Y32484D01*
X161529Y32502D01*
X161455Y32521D01*
X161391Y32549D01*
X161335Y32567D01*
X161289Y32586D01*
X161252Y32604D01*
X161224Y32614D01*
X161215Y32623D01*
X161206D01*
X161039Y32724D01*
X160891Y32845D01*
X160762Y32983D01*
X160651Y33113D01*
X160558Y33233D01*
X160484Y33326D01*
X160466Y33363D01*
X160447Y33391D01*
X160429Y33409D01*
Y33418D01*
X161816Y33548D01*
X161862Y33483D01*
X161918Y33437D01*
X161955Y33391D01*
X161992Y33363D01*
X162047Y33316D01*
X162057Y33307D01*
X162066D01*
X162140Y33270D01*
X162205Y33252D01*
X162325Y33215D01*
X162380D01*
X162417Y33206D01*
X162454D01*
X162575Y33215D01*
X162676Y33242D01*
X162769Y33279D01*
X162843Y33326D01*
X162908Y33372D01*
X162954Y33409D01*
X162982Y33437D01*
X162991Y33446D01*
X163037Y33520D01*
X163074Y33594D01*
X163130Y33760D01*
X163148Y33834D01*
X163157Y33899D01*
X163167Y33936D01*
Y33955D01*
X160345D01*
Y34112D01*
X160355Y34371D01*
X160382Y34602D01*
X160419Y34797D01*
X160466Y34972D01*
X160512Y35102D01*
X160530Y35157D01*
X160549Y35203D01*
X160567Y35241D01*
X160577Y35268D01*
X160586Y35278D01*
Y35287D01*
X160688Y35444D01*
X160799Y35583D01*
X160910Y35703D01*
X161030Y35805D01*
X161132Y35879D01*
X161215Y35934D01*
X161270Y35971D01*
X161280Y35980D01*
X161289D01*
X161474Y36064D01*
X161677Y36119D01*
X161881Y36165D01*
X162075Y36193D01*
X162251Y36212D01*
X162334D01*
X162399Y36221D01*
X162528D01*
X162704Y36212D01*
D02*
G37*
G36*
X169808Y36286D02*
X168208D01*
Y32465D01*
X166645D01*
Y36286D01*
X165044D01*
Y37534D01*
X169808D01*
Y36286D01*
D02*
G37*
G36*
X145804Y34565D02*
Y33409D01*
X143233D01*
Y32465D01*
X142003D01*
Y33409D01*
X141364D01*
Y34501D01*
X142003D01*
Y37618D01*
X143233D01*
X145804Y34565D01*
D02*
G37*
G36*
X128498Y32465D02*
X126176D01*
X126009Y32475D01*
X125852Y32484D01*
X125686Y32502D01*
X125547Y32530D01*
X125417Y32558D01*
X125316Y32577D01*
X125279Y32586D01*
X125251D01*
X125242Y32595D01*
X125232D01*
X125094Y32641D01*
X124964Y32706D01*
X124853Y32771D01*
X124742Y32836D01*
X124659Y32900D01*
X124594Y32956D01*
X124557Y32993D01*
X124539Y33002D01*
X124418Y33122D01*
X124317Y33252D01*
X124224Y33372D01*
X124150Y33492D01*
X124095Y33594D01*
X124058Y33677D01*
X124030Y33733D01*
X124021Y33742D01*
Y33751D01*
X123956Y33936D01*
X123910Y34140D01*
X123873Y34352D01*
X123854Y34547D01*
X123836Y34732D01*
Y34806D01*
X123826Y34880D01*
Y34935D01*
Y34972D01*
Y35000D01*
Y35009D01*
X123836Y35203D01*
X123845Y35379D01*
X123863Y35546D01*
X123891Y35694D01*
X123919Y35814D01*
X123937Y35906D01*
X123947Y35943D01*
Y35971D01*
X123956Y35980D01*
Y35990D01*
X124011Y36156D01*
X124067Y36314D01*
X124132Y36452D01*
X124196Y36573D01*
X124261Y36674D01*
X124307Y36739D01*
X124344Y36785D01*
X124354Y36804D01*
X124465Y36924D01*
X124576Y37035D01*
X124696Y37128D01*
X124807Y37201D01*
X124909Y37266D01*
X124983Y37303D01*
X125038Y37331D01*
X125047Y37340D01*
X125057D01*
X125223Y37405D01*
X125408Y37451D01*
X125593Y37488D01*
X125778Y37507D01*
X125935Y37525D01*
X126000D01*
X126065Y37534D01*
X128498D01*
Y32465D01*
D02*
G37*
G36*
X123012D02*
X121440D01*
Y34352D01*
X120589D01*
X120413Y34362D01*
X120256Y34371D01*
X120108Y34389D01*
X119969Y34417D01*
X119840Y34454D01*
X119719Y34491D01*
X119618Y34528D01*
X119525Y34565D01*
X119442Y34602D01*
X119368Y34639D01*
X119312Y34676D01*
X119257Y34713D01*
X119220Y34741D01*
X119192Y34760D01*
X119183Y34778D01*
X119174D01*
X119090Y34861D01*
X119016Y34954D01*
X118961Y35046D01*
X118905Y35148D01*
X118822Y35351D01*
X118767Y35546D01*
X118739Y35712D01*
X118720Y35786D01*
Y35851D01*
X118711Y35906D01*
Y35943D01*
Y35971D01*
Y35980D01*
Y36119D01*
X118730Y36239D01*
X118776Y36471D01*
X118850Y36665D01*
X118924Y36832D01*
X118998Y36961D01*
X119072Y37053D01*
X119100Y37081D01*
X119118Y37109D01*
X119127Y37128D01*
X119137D01*
X119220Y37201D01*
X119312Y37266D01*
X119516Y37359D01*
X119729Y37433D01*
X119932Y37488D01*
X120117Y37516D01*
X120200Y37525D01*
X120274D01*
X120330Y37534D01*
X123012D01*
Y32465D01*
D02*
G37*
G36*
X131837Y37609D02*
X132087Y37590D01*
X132299Y37553D01*
X132401Y37534D01*
X132484Y37516D01*
X132558Y37497D01*
X132623Y37479D01*
X132679Y37461D01*
X132725Y37442D01*
X132762Y37433D01*
X132790Y37424D01*
X132799Y37414D01*
X132808D01*
X132965Y37331D01*
X133104Y37248D01*
X133224Y37155D01*
X133317Y37072D01*
X133391Y36989D01*
X133446Y36924D01*
X133483Y36887D01*
X133493Y36869D01*
X133567Y36739D01*
X133622Y36610D01*
X133659Y36480D01*
X133687Y36369D01*
X133705Y36277D01*
X133715Y36193D01*
Y36147D01*
Y36138D01*
Y36129D01*
X133705Y36018D01*
X133696Y35916D01*
X133650Y35731D01*
X133576Y35564D01*
X133493Y35425D01*
X133419Y35305D01*
X133345Y35222D01*
X133298Y35176D01*
X133280Y35166D01*
Y35157D01*
X133187Y35083D01*
X133086Y35019D01*
X132864Y34898D01*
X132623Y34797D01*
X132373Y34704D01*
X132262Y34667D01*
X132161Y34639D01*
X132059Y34611D01*
X131976Y34584D01*
X131911Y34574D01*
X131855Y34556D01*
X131818Y34547D01*
X131809D01*
X131698Y34519D01*
X131596Y34491D01*
X131504Y34473D01*
X131421Y34445D01*
X131282Y34389D01*
X131171Y34343D01*
X131097Y34306D01*
X131041Y34279D01*
X131014Y34260D01*
X131004Y34251D01*
X130949Y34195D01*
X130903Y34130D01*
X130875Y34075D01*
X130847Y34020D01*
X130838Y33973D01*
X130829Y33936D01*
Y33909D01*
Y33899D01*
X130838Y33825D01*
X130856Y33751D01*
X130884Y33687D01*
X130921Y33631D01*
X130958Y33594D01*
X130986Y33557D01*
X131004Y33538D01*
X131014Y33529D01*
X131088Y33483D01*
X131171Y33446D01*
X131254Y33418D01*
X131337Y33400D01*
X131421Y33391D01*
X131476Y33381D01*
X131532D01*
X131689Y33391D01*
X131828Y33428D01*
X131948Y33474D01*
X132050Y33538D01*
X132124Y33594D01*
X132179Y33640D01*
X132216Y33677D01*
X132225Y33687D01*
X132272Y33760D01*
X132318Y33853D01*
X132373Y34038D01*
X132401Y34112D01*
X132410Y34177D01*
X132420Y34223D01*
Y34242D01*
X133909Y34140D01*
X133890Y34001D01*
X133863Y33862D01*
X133798Y33622D01*
X133705Y33400D01*
X133604Y33215D01*
X133557Y33141D01*
X133511Y33067D01*
X133465Y33011D01*
X133428Y32965D01*
X133400Y32928D01*
X133372Y32900D01*
X133363Y32882D01*
X133354Y32873D01*
X133252Y32789D01*
X133132Y32715D01*
X133002Y32641D01*
X132864Y32586D01*
X132568Y32502D01*
X132272Y32447D01*
X132124Y32419D01*
X131994Y32410D01*
X131874Y32401D01*
X131772Y32392D01*
X131680Y32382D01*
X131559D01*
X131291Y32392D01*
X131060Y32410D01*
X130847Y32447D01*
X130671Y32484D01*
X130597Y32502D01*
X130533Y32521D01*
X130468Y32539D01*
X130422Y32558D01*
X130385Y32567D01*
X130357Y32577D01*
X130348Y32586D01*
X130338D01*
X130163Y32678D01*
X130015Y32771D01*
X129885Y32873D01*
X129774Y32974D01*
X129691Y33067D01*
X129626Y33141D01*
X129589Y33187D01*
X129580Y33206D01*
X129487Y33363D01*
X129423Y33520D01*
X129367Y33677D01*
X129339Y33816D01*
X129321Y33936D01*
X129302Y34029D01*
Y34066D01*
Y34093D01*
Y34103D01*
Y34112D01*
X129312Y34260D01*
X129330Y34408D01*
X129367Y34528D01*
X129404Y34639D01*
X129441Y34732D01*
X129478Y34806D01*
X129497Y34843D01*
X129506Y34861D01*
X129589Y34982D01*
X129691Y35092D01*
X129802Y35185D01*
X129904Y35268D01*
X130005Y35333D01*
X130079Y35379D01*
X130135Y35407D01*
X130144Y35416D01*
X130153D01*
X130246Y35462D01*
X130348Y35500D01*
X130570Y35583D01*
X130819Y35666D01*
X131060Y35731D01*
X131171Y35759D01*
X131282Y35786D01*
X131384Y35814D01*
X131467Y35833D01*
X131532Y35851D01*
X131587Y35860D01*
X131624Y35870D01*
X131633D01*
X131772Y35897D01*
X131883Y35934D01*
X131976Y35962D01*
X132040Y35990D01*
X132096Y36018D01*
X132124Y36036D01*
X132142Y36055D01*
X132151D01*
X132188Y36092D01*
X132216Y36129D01*
X132244Y36202D01*
X132262Y36258D01*
Y36267D01*
Y36277D01*
X132253Y36332D01*
X132244Y36388D01*
X132198Y36480D01*
X132151Y36536D01*
X132142Y36545D01*
X132133Y36554D01*
X132077Y36591D01*
X132013Y36628D01*
X131874Y36656D01*
X131809Y36665D01*
X131763Y36674D01*
X131717D01*
X131596Y36665D01*
X131495Y36647D01*
X131402Y36628D01*
X131328Y36600D01*
X131273Y36563D01*
X131236Y36545D01*
X131208Y36526D01*
X131199Y36517D01*
X131134Y36452D01*
X131078Y36369D01*
X131041Y36286D01*
X131004Y36212D01*
X130977Y36138D01*
X130958Y36073D01*
X130949Y36036D01*
Y36018D01*
X129469Y36101D01*
X129497Y36239D01*
X129524Y36378D01*
X129561Y36498D01*
X129608Y36610D01*
X129654Y36711D01*
X129709Y36813D01*
X129756Y36896D01*
X129811Y36970D01*
X129913Y37091D01*
X129996Y37183D01*
X130061Y37229D01*
X130070Y37248D01*
X130079D01*
X130181Y37312D01*
X130292Y37368D01*
X130523Y37461D01*
X130773Y37525D01*
X131014Y37571D01*
X131125Y37590D01*
X131226Y37599D01*
X131319Y37609D01*
X131402D01*
X131467Y37618D01*
X131559D01*
X131837Y37609D01*
D02*
G37*
G36*
X190731Y53414D02*
X188622D01*
Y54858D01*
X190731D01*
Y53414D01*
D02*
G37*
G36*
X88075Y50430D02*
Y47252D01*
X85715D01*
Y50430D01*
X82759Y54858D01*
X85368D01*
X86909Y52304D01*
X88436Y54858D01*
X91045D01*
X88075Y50430D01*
D02*
G37*
G36*
X202627Y47252D02*
X200517D01*
Y49889D01*
X200503Y50153D01*
X200475Y50375D01*
X200447Y50555D01*
X200392Y50708D01*
X200350Y50805D01*
X200323Y50888D01*
X200295Y50930D01*
X200281Y50944D01*
X200184Y51041D01*
X200086Y51110D01*
X199976Y51166D01*
X199878Y51194D01*
X199795Y51221D01*
X199726Y51235D01*
X199656D01*
X199531Y51221D01*
X199420Y51208D01*
X199337Y51166D01*
X199254Y51124D01*
X199198Y51083D01*
X199157Y51055D01*
X199129Y51027D01*
X199115Y51013D01*
X199046Y50916D01*
X199004Y50805D01*
X198948Y50569D01*
X198934Y50458D01*
X198921Y50361D01*
Y50305D01*
Y50278D01*
Y47252D01*
X196797D01*
Y50749D01*
X196825Y51124D01*
X196880Y51457D01*
X196950Y51735D01*
X197047Y51957D01*
X197144Y52138D01*
X197213Y52262D01*
X197269Y52332D01*
X197297Y52360D01*
X197505Y52540D01*
X197713Y52665D01*
X197949Y52762D01*
X198157Y52818D01*
X198352Y52859D01*
X198518Y52873D01*
X198574Y52887D01*
X198657D01*
X198865Y52873D01*
X199059Y52859D01*
X199240Y52832D01*
X199379Y52790D01*
X199504Y52748D01*
X199587Y52720D01*
X199656Y52707D01*
X199670Y52693D01*
X199823Y52609D01*
X199976Y52512D01*
X200114Y52401D01*
X200253Y52304D01*
X200364Y52207D01*
X200447Y52124D01*
X200503Y52068D01*
X200517Y52054D01*
Y54858D01*
X202627D01*
Y47252D01*
D02*
G37*
G36*
X107396Y52873D02*
X107604Y52859D01*
X107784Y52818D01*
X107937Y52776D01*
X108062Y52734D01*
X108145Y52707D01*
X108215Y52679D01*
X108229Y52665D01*
X108395Y52568D01*
X108548Y52471D01*
X108687Y52346D01*
X108826Y52221D01*
X108937Y52124D01*
X109020Y52026D01*
X109075Y51971D01*
X109089Y51943D01*
Y52762D01*
X111060D01*
Y47252D01*
X108937D01*
Y50055D01*
X108923Y50278D01*
X108895Y50458D01*
X108867Y50611D01*
X108826Y50736D01*
X108784Y50833D01*
X108742Y50902D01*
X108728Y50944D01*
X108714Y50958D01*
X108617Y51055D01*
X108520Y51124D01*
X108423Y51166D01*
X108326Y51208D01*
X108229Y51221D01*
X108159Y51235D01*
X108104D01*
X107951Y51208D01*
X107826Y51166D01*
X107743Y51124D01*
X107729Y51096D01*
X107715D01*
X107604Y50985D01*
X107535Y50888D01*
X107493Y50805D01*
X107479Y50777D01*
Y50763D01*
X107465Y50708D01*
X107451Y50639D01*
X107438Y50472D01*
Y50402D01*
Y50333D01*
Y50292D01*
Y50278D01*
Y47252D01*
X105314D01*
Y50097D01*
X105300Y50305D01*
X105272Y50486D01*
X105245Y50639D01*
X105203Y50749D01*
X105161Y50847D01*
X105120Y50902D01*
X105106Y50944D01*
X105092Y50958D01*
X105008Y51055D01*
X104897Y51124D01*
X104800Y51166D01*
X104703Y51208D01*
X104620Y51221D01*
X104551Y51235D01*
X104495D01*
X104384Y51221D01*
X104273Y51194D01*
X104190Y51138D01*
X104106Y51096D01*
X104051Y51041D01*
X104009Y50985D01*
X103981Y50958D01*
X103967Y50944D01*
X103912Y50874D01*
X103884Y50777D01*
X103829Y50597D01*
Y50513D01*
X103815Y50444D01*
Y50402D01*
Y50389D01*
Y47252D01*
X101691D01*
Y50708D01*
Y50916D01*
X101719Y51096D01*
X101775Y51443D01*
X101844Y51721D01*
X101941Y51957D01*
X102038Y52138D01*
X102108Y52262D01*
X102163Y52332D01*
X102191Y52360D01*
X102399Y52540D01*
X102621Y52665D01*
X102843Y52762D01*
X103065Y52818D01*
X103273Y52859D01*
X103426Y52873D01*
X103496Y52887D01*
X103579D01*
X103801Y52873D01*
X103995Y52859D01*
X104176Y52818D01*
X104314Y52790D01*
X104439Y52748D01*
X104537Y52707D01*
X104592Y52693D01*
X104606Y52679D01*
X104759Y52596D01*
X104911Y52485D01*
X105064Y52360D01*
X105203Y52235D01*
X105328Y52124D01*
X105425Y52026D01*
X105480Y51971D01*
X105508Y51943D01*
X105605Y52110D01*
X105702Y52249D01*
X105814Y52373D01*
X105911Y52471D01*
X105994Y52554D01*
X106063Y52609D01*
X106119Y52637D01*
X106133Y52651D01*
X106286Y52734D01*
X106452Y52790D01*
X106632Y52832D01*
X106799Y52859D01*
X106952Y52873D01*
X107063Y52887D01*
X107174D01*
X107396Y52873D01*
D02*
G37*
G36*
X166650Y52873D02*
X166830Y52859D01*
X166997Y52845D01*
X167135Y52818D01*
X167246Y52804D01*
X167302Y52790D01*
X167330D01*
X167510Y52762D01*
X167663Y52720D01*
X167802Y52679D01*
X167913Y52637D01*
X167996Y52596D01*
X168065Y52568D01*
X168107Y52554D01*
X168121Y52540D01*
X168260Y52457D01*
X168385Y52360D01*
X168496Y52276D01*
X168579Y52193D01*
X168648Y52124D01*
X168704Y52068D01*
X168732Y52026D01*
X168746Y52013D01*
X168815Y51888D01*
X168884Y51749D01*
X168940Y51610D01*
X168981Y51485D01*
X169023Y51360D01*
X169037Y51263D01*
X169065Y51208D01*
Y51180D01*
X167038Y50972D01*
X166997Y51096D01*
X166941Y51194D01*
X166886Y51277D01*
X166830Y51346D01*
X166788Y51402D01*
X166747Y51430D01*
X166733Y51457D01*
X166719D01*
X166608Y51513D01*
X166483Y51555D01*
X166233Y51610D01*
X166122D01*
X166025Y51624D01*
X165803D01*
X165678Y51596D01*
X165581Y51568D01*
X165511Y51541D01*
X165442Y51513D01*
X165400Y51485D01*
X165386Y51471D01*
X165373Y51457D01*
X165317Y51388D01*
X165276Y51305D01*
X165220Y51138D01*
Y51055D01*
X165206Y50985D01*
Y50944D01*
Y50930D01*
X165498Y50819D01*
X165622Y50777D01*
X165734Y50736D01*
X165831Y50708D01*
X165900Y50680D01*
X165956Y50666D01*
X165970D01*
X166039Y50652D01*
X166136Y50625D01*
X166358Y50569D01*
X166608Y50513D01*
X166872Y50458D01*
X167108Y50416D01*
X167219Y50389D01*
X167316Y50375D01*
X167399Y50361D01*
X167455Y50347D01*
X167496Y50333D01*
X167510D01*
X167691Y50292D01*
X167857Y50250D01*
X168135Y50153D01*
X168371Y50055D01*
X168565Y49958D01*
X168704Y49875D01*
X168801Y49806D01*
X168857Y49750D01*
X168870Y49736D01*
X168995Y49584D01*
X169079Y49403D01*
X169148Y49237D01*
X169190Y49070D01*
X169217Y48931D01*
X169231Y48820D01*
Y48737D01*
Y48723D01*
Y48709D01*
X169203Y48459D01*
X169148Y48251D01*
X169079Y48057D01*
X168981Y47890D01*
X168884Y47751D01*
X168815Y47654D01*
X168759Y47599D01*
X168732Y47571D01*
X168523Y47418D01*
X168274Y47321D01*
X168024Y47238D01*
X167788Y47182D01*
X167566Y47155D01*
X167469Y47141D01*
X167385D01*
X167316Y47127D01*
X167219D01*
X166955Y47141D01*
X166705Y47168D01*
X166483Y47196D01*
X166289Y47238D01*
X166136Y47280D01*
X166011Y47321D01*
X165942Y47335D01*
X165914Y47349D01*
X165761Y47418D01*
X165622Y47515D01*
X165484Y47599D01*
X165359Y47696D01*
X165248Y47779D01*
X165164Y47849D01*
X165109Y47904D01*
X165095Y47918D01*
X165067Y47765D01*
X165040Y47654D01*
X165026Y47599D01*
Y47571D01*
X164984Y47474D01*
X164928Y47377D01*
X164873Y47293D01*
X164859Y47266D01*
Y47252D01*
X162874D01*
X162985Y47474D01*
X163013Y47571D01*
X163041Y47654D01*
X163069Y47724D01*
X163082Y47765D01*
X163096Y47793D01*
Y47807D01*
X163110Y47904D01*
X163124Y48001D01*
X163138Y48196D01*
Y48279D01*
Y48348D01*
Y48404D01*
Y48418D01*
Y50847D01*
Y50999D01*
X163166Y51138D01*
X163194Y51277D01*
X163221Y51402D01*
X163249Y51513D01*
X163277Y51596D01*
X163291Y51652D01*
X163304Y51666D01*
X163360Y51818D01*
X163429Y51957D01*
X163499Y52068D01*
X163568Y52165D01*
X163624Y52235D01*
X163679Y52290D01*
X163707Y52318D01*
X163721Y52332D01*
X163874Y52443D01*
X164040Y52540D01*
X164193Y52623D01*
X164346Y52679D01*
X164484Y52720D01*
X164595Y52748D01*
X164665Y52776D01*
X164692D01*
X164915Y52818D01*
X165164Y52845D01*
X165428Y52859D01*
X165664Y52873D01*
X165886Y52887D01*
X166441D01*
X166650Y52873D01*
D02*
G37*
G36*
X136100Y54955D02*
X136294Y54941D01*
X136475Y54900D01*
X136641Y54858D01*
X136794Y54816D01*
X136933Y54775D01*
X137057Y54719D01*
X137169Y54664D01*
X137266Y54622D01*
X137349Y54580D01*
X137418Y54539D01*
X137460Y54511D01*
X137502Y54483D01*
X137515Y54456D01*
X137529D01*
X137640Y54358D01*
X137724Y54247D01*
X137876Y54025D01*
X137987Y53803D01*
X138057Y53595D01*
X138112Y53401D01*
X138126Y53262D01*
X138140Y53206D01*
Y53165D01*
Y53137D01*
Y53123D01*
X138126Y52984D01*
X138112Y52845D01*
X138085Y52707D01*
X138057Y52596D01*
X138029Y52498D01*
X138015Y52429D01*
X137987Y52373D01*
Y52360D01*
X137918Y52221D01*
X137835Y52068D01*
X137738Y51915D01*
X137640Y51777D01*
X137557Y51666D01*
X137488Y51568D01*
X137432Y51513D01*
X137418Y51485D01*
X137765Y51332D01*
X138057Y51166D01*
X138307Y50999D01*
X138501Y50847D01*
X138654Y50708D01*
X138765Y50597D01*
X138820Y50527D01*
X138848Y50500D01*
X138987Y50292D01*
X139098Y50069D01*
X139167Y49861D01*
X139223Y49681D01*
X139251Y49528D01*
X139264Y49403D01*
X139278Y49320D01*
Y49306D01*
Y49292D01*
X139264Y49125D01*
X139251Y48973D01*
X139167Y48667D01*
X139042Y48404D01*
X138903Y48182D01*
X138779Y48001D01*
X138654Y47862D01*
X138570Y47779D01*
X138557Y47765D01*
X138543Y47751D01*
X138390Y47640D01*
X138223Y47543D01*
X137876Y47391D01*
X137502Y47280D01*
X137127Y47210D01*
X136960Y47182D01*
X136794Y47155D01*
X136655Y47141D01*
X136530D01*
X136419Y47127D01*
X136280D01*
X135919Y47141D01*
X135600Y47168D01*
X135309Y47196D01*
X135045Y47238D01*
X134837Y47280D01*
X134753Y47293D01*
X134684Y47321D01*
X134628Y47335D01*
X134573D01*
X134559Y47349D01*
X134545D01*
X134337Y47418D01*
X134143Y47502D01*
X133948Y47585D01*
X133782Y47682D01*
X133643Y47751D01*
X133532Y47821D01*
X133463Y47862D01*
X133435Y47876D01*
X133227Y47751D01*
X133032Y47627D01*
X132963Y47585D01*
X132893Y47543D01*
X132852Y47515D01*
X132838Y47502D01*
X132602Y47349D01*
X132491Y47293D01*
X132394Y47238D01*
X132310Y47196D01*
X132255Y47155D01*
X132213Y47141D01*
X132199Y47127D01*
X131061Y48432D01*
X131214Y48515D01*
X131325Y48584D01*
X131408Y48640D01*
X131422Y48654D01*
X131436D01*
X132227Y49195D01*
X132144Y49334D01*
X132074Y49459D01*
X132019Y49556D01*
X131977Y49653D01*
X131936Y49736D01*
X131908Y49792D01*
X131894Y49819D01*
Y49833D01*
X131852Y49944D01*
X131797Y50069D01*
X131714Y50305D01*
X131686Y50416D01*
X131658Y50500D01*
X131630Y50555D01*
Y50569D01*
X133282Y50944D01*
X133379Y50680D01*
X133421Y50569D01*
X133463Y50472D01*
X133504Y50389D01*
X133532Y50319D01*
X133546Y50278D01*
X133560Y50264D01*
X133782Y50444D01*
X133990Y50625D01*
X134198Y50791D01*
X134365Y50958D01*
X134503Y51096D01*
X134615Y51194D01*
X134684Y51263D01*
X134712Y51291D01*
X134476Y51443D01*
X134281Y51582D01*
X134129Y51693D01*
X134004Y51790D01*
X133907Y51860D01*
X133851Y51915D01*
X133809Y51943D01*
X133796Y51957D01*
X133615Y52138D01*
X133476Y52332D01*
X133421Y52415D01*
X133379Y52485D01*
X133365Y52526D01*
X133352Y52540D01*
X133282Y52679D01*
X133240Y52804D01*
X133199Y52943D01*
X133185Y53054D01*
X133171Y53151D01*
X133157Y53220D01*
Y53276D01*
Y53290D01*
Y53414D01*
X133185Y53539D01*
X133254Y53775D01*
X133352Y53970D01*
X133463Y54150D01*
X133574Y54289D01*
X133671Y54400D01*
X133740Y54456D01*
X133754Y54483D01*
X133768D01*
X133893Y54567D01*
X134018Y54650D01*
X134309Y54775D01*
X134628Y54858D01*
X134934Y54927D01*
X135211Y54955D01*
X135336Y54969D01*
X135447D01*
X135531Y54983D01*
X135878D01*
X136100Y54955D01*
D02*
G37*
G36*
X98749Y47252D02*
X98804Y47099D01*
X98874Y46974D01*
X98943Y46877D01*
X98998Y46794D01*
X99054Y46724D01*
X99096Y46683D01*
X99123Y46669D01*
X99137Y46655D01*
X99234Y46599D01*
X99332Y46558D01*
X99526Y46502D01*
X99623Y46488D01*
X99679Y46474D01*
X99748D01*
X99956Y46488D01*
X100137Y46502D01*
X100317Y46530D01*
X100456Y46558D01*
X100581Y46586D01*
X100678Y46599D01*
X100733Y46627D01*
X100761D01*
X100595Y45142D01*
X100262Y45100D01*
X99970Y45073D01*
X99734Y45045D01*
X99540Y45031D01*
X99387D01*
X99276Y45017D01*
X98985D01*
X98790Y45045D01*
X98443Y45100D01*
X98166Y45170D01*
X97930Y45267D01*
X97749Y45364D01*
X97610Y45434D01*
X97541Y45489D01*
X97513Y45517D01*
X97444Y45586D01*
X97374Y45683D01*
X97236Y45878D01*
X97097Y46100D01*
X96986Y46336D01*
X96889Y46544D01*
X96819Y46710D01*
X96792Y46780D01*
X96764Y46835D01*
X96750Y46863D01*
Y46877D01*
X94557Y52762D01*
X96639D01*
X97694Y49084D01*
X98832Y52762D01*
X101053D01*
X98749Y47252D01*
D02*
G37*
G36*
X207526Y54969D02*
X207845Y54941D01*
X208137Y54886D01*
X208415Y54830D01*
X208664Y54747D01*
X208900Y54664D01*
X209122Y54567D01*
X209303Y54483D01*
X209483Y54386D01*
X209622Y54289D01*
X209747Y54206D01*
X209858Y54122D01*
X209927Y54067D01*
X209997Y54011D01*
X210025Y53984D01*
X210038Y53970D01*
X210219Y53775D01*
X210372Y53553D01*
X210496Y53331D01*
X210621Y53095D01*
X210719Y52845D01*
X210788Y52609D01*
X210857Y52373D01*
X210913Y52138D01*
X210955Y51915D01*
X210982Y51721D01*
X211010Y51541D01*
X211024Y51374D01*
Y51249D01*
X211038Y51152D01*
Y51096D01*
Y51069D01*
X211010Y50569D01*
X210982Y50333D01*
X210955Y50111D01*
X210899Y49903D01*
X210857Y49709D01*
X210802Y49528D01*
X210746Y49375D01*
X210705Y49223D01*
X210649Y49098D01*
X210594Y48987D01*
X210552Y48904D01*
X210524Y48834D01*
X210496Y48779D01*
X210469Y48751D01*
Y48737D01*
X210247Y48418D01*
X210025Y48154D01*
X209789Y47946D01*
X209580Y47765D01*
X209400Y47640D01*
X209247Y47543D01*
X209192Y47515D01*
X209150Y47488D01*
X209136Y47474D01*
X209122D01*
X208803Y47363D01*
X208470Y47280D01*
X208123Y47210D01*
X207804Y47168D01*
X207651Y47155D01*
X207512Y47141D01*
X207401D01*
X207290Y47127D01*
X207082D01*
X206721Y47141D01*
X206388Y47168D01*
X206097Y47224D01*
X205861Y47280D01*
X205666Y47321D01*
X205514Y47377D01*
X205472Y47391D01*
X205430Y47404D01*
X205416Y47418D01*
X205403D01*
X205167Y47543D01*
X204944Y47682D01*
X204764Y47821D01*
X204597Y47960D01*
X204473Y48098D01*
X204375Y48196D01*
X204306Y48265D01*
X204292Y48293D01*
X204126Y48529D01*
X204001Y48765D01*
X203876Y49001D01*
X203793Y49237D01*
X203709Y49431D01*
X203668Y49597D01*
X203654Y49653D01*
X203640Y49695D01*
X203626Y49722D01*
Y49736D01*
X205680Y50375D01*
X205750Y50111D01*
X205833Y49889D01*
X205916Y49695D01*
X205999Y49542D01*
X206069Y49417D01*
X206138Y49334D01*
X206180Y49278D01*
X206194Y49264D01*
X206332Y49139D01*
X206499Y49042D01*
X206666Y48987D01*
X206832Y48931D01*
X206985Y48904D01*
X207110Y48890D01*
X207221D01*
X207471Y48904D01*
X207679Y48959D01*
X207873Y49028D01*
X208026Y49126D01*
X208137Y49209D01*
X208234Y49278D01*
X208290Y49334D01*
X208303Y49348D01*
X208373Y49445D01*
X208428Y49556D01*
X208526Y49820D01*
X208581Y50111D01*
X208637Y50389D01*
X208664Y50652D01*
Y50777D01*
X208678Y50874D01*
Y50958D01*
Y51027D01*
Y51069D01*
Y51083D01*
X208664Y51443D01*
X208623Y51749D01*
X208581Y51999D01*
X208512Y52207D01*
X208456Y52360D01*
X208415Y52485D01*
X208373Y52540D01*
X208359Y52568D01*
X208276Y52679D01*
X208192Y52790D01*
X207998Y52943D01*
X207790Y53067D01*
X207596Y53137D01*
X207415Y53192D01*
X207262Y53206D01*
X207221Y53220D01*
X207013D01*
X206888Y53192D01*
X206777Y53179D01*
X206680Y53151D01*
X206610Y53123D01*
X206541Y53095D01*
X206513Y53081D01*
X206499Y53067D01*
X206305Y52943D01*
X206152Y52804D01*
X206097Y52748D01*
X206041Y52693D01*
X206027Y52665D01*
X206013Y52651D01*
X205972Y52582D01*
X205930Y52512D01*
X205847Y52346D01*
X205819Y52276D01*
X205791Y52207D01*
X205777Y52165D01*
Y52151D01*
X203695Y52609D01*
X203779Y52832D01*
X203862Y53040D01*
X203959Y53220D01*
X204056Y53401D01*
X204153Y53567D01*
X204264Y53706D01*
X204362Y53845D01*
X204459Y53956D01*
X204556Y54067D01*
X204639Y54150D01*
X204722Y54233D01*
X204792Y54289D01*
X204847Y54344D01*
X204889Y54372D01*
X204917Y54400D01*
X204931D01*
X205097Y54497D01*
X205264Y54594D01*
X205625Y54733D01*
X205999Y54844D01*
X206374Y54914D01*
X206541Y54941D01*
X206693Y54955D01*
X206832Y54969D01*
X206957D01*
X207054Y54983D01*
X207193D01*
X207526Y54969D01*
D02*
G37*
G36*
X173867Y54969D02*
X174186Y54941D01*
X174478Y54886D01*
X174756Y54830D01*
X175005Y54747D01*
X175241Y54664D01*
X175463Y54567D01*
X175644Y54483D01*
X175824Y54386D01*
X175963Y54289D01*
X176088Y54206D01*
X176199Y54122D01*
X176268Y54067D01*
X176338Y54011D01*
X176366Y53984D01*
X176380Y53970D01*
X176560Y53775D01*
X176713Y53553D01*
X176838Y53331D01*
X176962Y53095D01*
X177060Y52845D01*
X177129Y52609D01*
X177198Y52373D01*
X177254Y52138D01*
X177296Y51915D01*
X177323Y51721D01*
X177351Y51541D01*
X177365Y51374D01*
Y51249D01*
X177379Y51152D01*
Y51096D01*
Y51069D01*
X177351Y50569D01*
X177323Y50333D01*
X177296Y50111D01*
X177240Y49903D01*
X177198Y49709D01*
X177143Y49528D01*
X177087Y49375D01*
X177046Y49223D01*
X176990Y49098D01*
X176935Y48987D01*
X176893Y48904D01*
X176865Y48834D01*
X176838Y48779D01*
X176810Y48751D01*
Y48737D01*
X176588Y48418D01*
X176366Y48154D01*
X176130Y47946D01*
X175921Y47765D01*
X175741Y47640D01*
X175588Y47543D01*
X175533Y47515D01*
X175491Y47488D01*
X175477Y47474D01*
X175463D01*
X175144Y47363D01*
X174811Y47280D01*
X174464Y47210D01*
X174145Y47168D01*
X173992Y47155D01*
X173853Y47141D01*
X173742D01*
X173631Y47127D01*
X173423D01*
X173062Y47141D01*
X172729Y47168D01*
X172438Y47224D01*
X172202Y47280D01*
X172007Y47321D01*
X171855Y47377D01*
X171813Y47391D01*
X171771Y47404D01*
X171757Y47418D01*
X171744D01*
X171508Y47543D01*
X171285Y47682D01*
X171105Y47821D01*
X170939Y47960D01*
X170814Y48098D01*
X170716Y48196D01*
X170647Y48265D01*
X170633Y48293D01*
X170467Y48529D01*
X170342Y48765D01*
X170217Y49001D01*
X170133Y49237D01*
X170050Y49431D01*
X170009Y49597D01*
X169995Y49653D01*
X169981Y49695D01*
X169967Y49722D01*
Y49736D01*
X172021Y50375D01*
X172091Y50111D01*
X172174Y49889D01*
X172257Y49695D01*
X172340Y49542D01*
X172410Y49417D01*
X172479Y49334D01*
X172521Y49278D01*
X172535Y49264D01*
X172673Y49139D01*
X172840Y49042D01*
X173007Y48987D01*
X173173Y48931D01*
X173326Y48904D01*
X173451Y48890D01*
X173562D01*
X173812Y48904D01*
X174020Y48959D01*
X174214Y49028D01*
X174367Y49125D01*
X174478Y49209D01*
X174575Y49278D01*
X174631Y49334D01*
X174644Y49348D01*
X174714Y49445D01*
X174769Y49556D01*
X174867Y49819D01*
X174922Y50111D01*
X174978Y50389D01*
X175005Y50652D01*
Y50777D01*
X175019Y50874D01*
Y50958D01*
Y51027D01*
Y51069D01*
Y51083D01*
X175005Y51443D01*
X174964Y51749D01*
X174922Y51999D01*
X174853Y52207D01*
X174797Y52360D01*
X174756Y52485D01*
X174714Y52540D01*
X174700Y52568D01*
X174617Y52679D01*
X174533Y52790D01*
X174339Y52943D01*
X174131Y53067D01*
X173937Y53137D01*
X173756Y53192D01*
X173603Y53206D01*
X173562Y53220D01*
X173354D01*
X173229Y53192D01*
X173118Y53179D01*
X173021Y53151D01*
X172951Y53123D01*
X172882Y53095D01*
X172854Y53081D01*
X172840Y53067D01*
X172646Y52943D01*
X172493Y52804D01*
X172438Y52748D01*
X172382Y52693D01*
X172368Y52665D01*
X172354Y52651D01*
X172313Y52582D01*
X172271Y52512D01*
X172188Y52346D01*
X172160Y52276D01*
X172132Y52207D01*
X172118Y52165D01*
Y52151D01*
X170036Y52609D01*
X170120Y52832D01*
X170203Y53040D01*
X170300Y53220D01*
X170397Y53401D01*
X170494Y53567D01*
X170605Y53706D01*
X170703Y53845D01*
X170800Y53956D01*
X170897Y54067D01*
X170980Y54150D01*
X171063Y54233D01*
X171133Y54289D01*
X171188Y54344D01*
X171230Y54372D01*
X171258Y54400D01*
X171272D01*
X171438Y54497D01*
X171605Y54594D01*
X171966Y54733D01*
X172340Y54844D01*
X172715Y54914D01*
X172882Y54941D01*
X173034Y54955D01*
X173173Y54969D01*
X173298D01*
X173395Y54983D01*
X173534D01*
X173867Y54969D01*
D02*
G37*
G36*
X115585Y52873D02*
X115835Y52859D01*
X116071Y52818D01*
X116293Y52762D01*
X116501Y52707D01*
X116682Y52637D01*
X116862Y52554D01*
X117015Y52485D01*
X117154Y52415D01*
X117265Y52332D01*
X117376Y52262D01*
X117459Y52207D01*
X117528Y52151D01*
X117570Y52124D01*
X117598Y52096D01*
X117612Y52082D01*
X117750Y51929D01*
X117875Y51763D01*
X117986Y51596D01*
X118084Y51416D01*
X118167Y51235D01*
X118236Y51069D01*
X118333Y50736D01*
X118361Y50583D01*
X118389Y50444D01*
X118403Y50305D01*
X118417Y50194D01*
X118430Y50111D01*
Y50042D01*
Y50000D01*
Y49986D01*
X118417Y49653D01*
X118361Y49362D01*
X118306Y49084D01*
X118222Y48862D01*
X118153Y48667D01*
X118084Y48529D01*
X118070Y48473D01*
X118042Y48432D01*
X118028Y48418D01*
Y48404D01*
X117861Y48168D01*
X117695Y47973D01*
X117514Y47807D01*
X117348Y47668D01*
X117209Y47571D01*
X117084Y47488D01*
X117015Y47446D01*
X116987Y47432D01*
X116737Y47335D01*
X116460Y47252D01*
X116168Y47196D01*
X115890Y47168D01*
X115641Y47141D01*
X115543D01*
X115446Y47127D01*
X115030D01*
X114822Y47141D01*
X114613Y47155D01*
X114433Y47182D01*
X114253Y47210D01*
X114100Y47238D01*
X113961Y47280D01*
X113822Y47307D01*
X113711Y47335D01*
X113614Y47377D01*
X113531Y47404D01*
X113461Y47432D01*
X113406Y47460D01*
X113364Y47474D01*
X113350Y47488D01*
X113337D01*
X113087Y47640D01*
X112865Y47821D01*
X112670Y48029D01*
X112504Y48223D01*
X112365Y48404D01*
X112254Y48543D01*
X112226Y48598D01*
X112198Y48640D01*
X112171Y48667D01*
Y48681D01*
X114253Y48876D01*
X114322Y48779D01*
X114405Y48709D01*
X114461Y48640D01*
X114516Y48598D01*
X114600Y48529D01*
X114613Y48515D01*
X114627D01*
X114738Y48459D01*
X114836Y48432D01*
X115016Y48376D01*
X115099D01*
X115155Y48362D01*
X115210D01*
X115391Y48376D01*
X115543Y48418D01*
X115682Y48473D01*
X115793Y48543D01*
X115890Y48612D01*
X115960Y48667D01*
X116001Y48709D01*
X116015Y48723D01*
X116085Y48834D01*
X116140Y48945D01*
X116224Y49195D01*
X116251Y49306D01*
X116265Y49403D01*
X116279Y49459D01*
Y49486D01*
X112046D01*
Y49722D01*
X112060Y50111D01*
X112101Y50458D01*
X112157Y50749D01*
X112226Y51013D01*
X112295Y51208D01*
X112323Y51291D01*
X112351Y51360D01*
X112379Y51416D01*
X112393Y51457D01*
X112407Y51471D01*
Y51485D01*
X112559Y51721D01*
X112726Y51929D01*
X112892Y52110D01*
X113073Y52262D01*
X113225Y52373D01*
X113350Y52457D01*
X113434Y52512D01*
X113448Y52526D01*
X113461D01*
X113739Y52651D01*
X114044Y52734D01*
X114350Y52804D01*
X114641Y52845D01*
X114905Y52873D01*
X115030D01*
X115127Y52887D01*
X115321D01*
X115585Y52873D01*
D02*
G37*
G36*
X192355Y52873D02*
X192494Y52859D01*
X192633Y52818D01*
X192744Y52776D01*
X192827Y52734D01*
X192897Y52707D01*
X192938Y52679D01*
X192952Y52665D01*
X193063Y52568D01*
X193160Y52443D01*
X193355Y52179D01*
X193424Y52054D01*
X193480Y51957D01*
X193521Y51888D01*
X193535Y51860D01*
Y52762D01*
X195506D01*
Y47252D01*
X193383D01*
Y49098D01*
Y49334D01*
X193369Y49556D01*
X193355Y49750D01*
X193327Y49931D01*
X193313Y50097D01*
X193285Y50250D01*
X193258Y50375D01*
X193216Y50500D01*
X193188Y50597D01*
X193160Y50680D01*
X193133Y50749D01*
X193119Y50805D01*
X193077Y50874D01*
X193063Y50902D01*
X192966Y51013D01*
X192855Y51096D01*
X192758Y51166D01*
X192647Y51208D01*
X192550Y51235D01*
X192480Y51249D01*
X192328D01*
X192230Y51221D01*
X192036Y51166D01*
X191953Y51138D01*
X191883Y51110D01*
X191842Y51096D01*
X191828Y51083D01*
X191162Y52596D01*
X191370Y52693D01*
X191564Y52762D01*
X191731Y52818D01*
X191883Y52845D01*
X192008Y52873D01*
X192105Y52887D01*
X192189D01*
X192355Y52873D01*
D02*
G37*
G36*
X190731Y47252D02*
X188622D01*
Y52762D01*
X190731D01*
Y47252D01*
D02*
G37*
G36*
X158696Y52873D02*
X158835Y52859D01*
X158974Y52818D01*
X159085Y52776D01*
X159168Y52734D01*
X159238Y52707D01*
X159279Y52679D01*
X159293Y52665D01*
X159404Y52568D01*
X159501Y52443D01*
X159696Y52179D01*
X159765Y52054D01*
X159821Y51957D01*
X159862Y51888D01*
X159876Y51860D01*
Y52762D01*
X161847D01*
Y47252D01*
X159723D01*
Y49098D01*
Y49334D01*
X159710Y49556D01*
X159696Y49750D01*
X159668Y49931D01*
X159654Y50097D01*
X159626Y50250D01*
X159599Y50375D01*
X159557Y50500D01*
X159529Y50597D01*
X159501Y50680D01*
X159474Y50749D01*
X159460Y50805D01*
X159418Y50874D01*
X159404Y50902D01*
X159307Y51013D01*
X159196Y51096D01*
X159099Y51166D01*
X158988Y51208D01*
X158891Y51235D01*
X158821Y51249D01*
X158669D01*
X158571Y51221D01*
X158377Y51166D01*
X158294Y51138D01*
X158224Y51110D01*
X158183Y51096D01*
X158169Y51083D01*
X157503Y52596D01*
X157711Y52693D01*
X157905Y52762D01*
X158072Y52818D01*
X158224Y52845D01*
X158349Y52873D01*
X158447Y52887D01*
X158530D01*
X158696Y52873D01*
D02*
G37*
G36*
X146343D02*
X146551Y52845D01*
X146746Y52818D01*
X146912Y52776D01*
X147037Y52720D01*
X147134Y52693D01*
X147190Y52665D01*
X147218Y52651D01*
X147384Y52554D01*
X147537Y52429D01*
X147689Y52304D01*
X147828Y52165D01*
X147939Y52054D01*
X148023Y51957D01*
X148092Y51888D01*
X148106Y51860D01*
Y52762D01*
X150063D01*
Y47252D01*
X147953D01*
Y49889D01*
X147939Y50153D01*
X147912Y50375D01*
X147884Y50555D01*
X147828Y50708D01*
X147787Y50805D01*
X147759Y50888D01*
X147731Y50930D01*
X147717Y50944D01*
X147620Y51041D01*
X147523Y51110D01*
X147412Y51166D01*
X147315Y51194D01*
X147231Y51221D01*
X147162Y51235D01*
X147093D01*
X146968Y51221D01*
X146857Y51208D01*
X146773Y51166D01*
X146690Y51124D01*
X146635Y51083D01*
X146593Y51055D01*
X146565Y51027D01*
X146551Y51013D01*
X146482Y50916D01*
X146440Y50805D01*
X146385Y50569D01*
X146371Y50458D01*
X146357Y50361D01*
Y50305D01*
Y50278D01*
Y47252D01*
X144233D01*
Y50749D01*
X144261Y51124D01*
X144317Y51457D01*
X144386Y51735D01*
X144483Y51957D01*
X144580Y52138D01*
X144650Y52262D01*
X144705Y52332D01*
X144733Y52360D01*
X144941Y52540D01*
X145163Y52665D01*
X145385Y52762D01*
X145607Y52818D01*
X145802Y52859D01*
X145968Y52873D01*
X146024Y52887D01*
X146107D01*
X146343Y52873D01*
D02*
G37*
G36*
X126273Y47252D02*
X123913Y47252D01*
Y50333D01*
X123719D01*
X123594Y50319D01*
X123483Y50305D01*
X123386Y50278D01*
X123302Y50250D01*
X123233Y50208D01*
X123177Y50180D01*
X123150Y50166D01*
X123136Y50153D01*
X123066Y50083D01*
X122983Y50000D01*
X122844Y49806D01*
X122789Y49722D01*
X122747Y49639D01*
X122719Y49584D01*
X122705Y49570D01*
X121442Y47252D01*
X118778D01*
X119930Y49445D01*
X119971Y49514D01*
X120013Y49584D01*
X120124Y49750D01*
X120179Y49806D01*
X120221Y49861D01*
X120249Y49903D01*
X120263Y49917D01*
X120346Y50028D01*
X120429Y50111D01*
X120485Y50180D01*
X120540Y50236D01*
X120582Y50278D01*
X120610Y50305D01*
X120637Y50319D01*
X120721Y50375D01*
X120818Y50416D01*
X121012Y50513D01*
X121109Y50541D01*
X121179Y50569D01*
X121234Y50597D01*
X121248D01*
X121068Y50652D01*
X120901Y50694D01*
X120762Y50749D01*
X120637Y50791D01*
X120554Y50833D01*
X120485Y50874D01*
X120443Y50888D01*
X120429Y50902D01*
X120263Y51013D01*
X120110Y51138D01*
X119985Y51263D01*
X119874Y51374D01*
X119791Y51485D01*
X119721Y51568D01*
X119694Y51624D01*
X119680Y51638D01*
X119582Y51818D01*
X119513Y52013D01*
X119472Y52193D01*
X119430Y52360D01*
X119416Y52512D01*
X119402Y52623D01*
Y52707D01*
Y52734D01*
X119416Y52998D01*
X119458Y53234D01*
X119513Y53442D01*
X119582Y53623D01*
X119652Y53775D01*
X119707Y53886D01*
X119749Y53942D01*
X119763Y53970D01*
X119902Y54150D01*
X120054Y54289D01*
X120207Y54414D01*
X120360Y54511D01*
X120485Y54580D01*
X120596Y54622D01*
X120665Y54650D01*
X120693Y54664D01*
X120929Y54733D01*
X121193Y54775D01*
X121470Y54816D01*
X121734Y54830D01*
X121984Y54844D01*
X122081Y54858D01*
X126273Y54858D01*
Y47252D01*
D02*
G37*
G36*
X185068Y52873D02*
X185374Y52859D01*
X185624Y52818D01*
X185832Y52790D01*
X186012Y52748D01*
X186137Y52707D01*
X186206Y52693D01*
X186234Y52679D01*
X186429Y52596D01*
X186609Y52512D01*
X186748Y52415D01*
X186873Y52318D01*
X186984Y52235D01*
X187053Y52165D01*
X187095Y52110D01*
X187109Y52096D01*
X187206Y51943D01*
X187289Y51790D01*
X187345Y51624D01*
X187372Y51485D01*
X187400Y51346D01*
X187414Y51249D01*
Y51180D01*
Y51152D01*
X187400Y50972D01*
X187372Y50805D01*
X187317Y50666D01*
X187261Y50527D01*
X187220Y50430D01*
X187164Y50347D01*
X187136Y50292D01*
X187123Y50278D01*
X187012Y50139D01*
X186887Y50028D01*
X186776Y49931D01*
X186665Y49861D01*
X186567Y49792D01*
X186484Y49750D01*
X186429Y49736D01*
X186415Y49722D01*
X186331Y49695D01*
X186220Y49653D01*
X185998Y49597D01*
X185735Y49542D01*
X185485Y49486D01*
X185249Y49431D01*
X185138Y49417D01*
X185055Y49389D01*
X184985Y49375D01*
X184916D01*
X184888Y49362D01*
X184874D01*
X184624Y49320D01*
X184416Y49278D01*
X184263Y49237D01*
X184152Y49209D01*
X184069Y49181D01*
X184013Y49153D01*
X183986Y49139D01*
X183972D01*
X183889Y49084D01*
X183833Y49028D01*
X183791Y48973D01*
X183764Y48917D01*
X183736Y48834D01*
Y48806D01*
Y48792D01*
X183750Y48723D01*
X183764Y48654D01*
X183833Y48543D01*
X183902Y48487D01*
X183916Y48459D01*
X183930D01*
X184027Y48404D01*
X184125Y48362D01*
X184333Y48307D01*
X184430Y48293D01*
X184513Y48279D01*
X184583D01*
X184721Y48293D01*
X184846Y48307D01*
X184957Y48334D01*
X185041Y48362D01*
X185110Y48390D01*
X185166Y48404D01*
X185193Y48432D01*
X185207D01*
X185290Y48501D01*
X185360Y48584D01*
X185457Y48779D01*
X185499Y48862D01*
X185526Y48917D01*
X185554Y48973D01*
Y48987D01*
X187650Y48792D01*
X187567Y48515D01*
X187442Y48265D01*
X187317Y48043D01*
X187178Y47876D01*
X187039Y47738D01*
X186928Y47640D01*
X186859Y47571D01*
X186831Y47557D01*
X186706Y47488D01*
X186554Y47418D01*
X186220Y47307D01*
X185873Y47238D01*
X185512Y47182D01*
X185346Y47168D01*
X185193Y47155D01*
X185055Y47141D01*
X184930D01*
X184818Y47127D01*
X184680D01*
X184305Y47141D01*
X183972Y47168D01*
X183680Y47210D01*
X183444Y47266D01*
X183250Y47307D01*
X183111Y47349D01*
X183028Y47377D01*
X183000Y47391D01*
X182778Y47502D01*
X182598Y47613D01*
X182431Y47738D01*
X182306Y47849D01*
X182209Y47946D01*
X182140Y48029D01*
X182098Y48085D01*
X182084Y48098D01*
X181987Y48265D01*
X181918Y48432D01*
X181862Y48598D01*
X181834Y48737D01*
X181807Y48862D01*
X181793Y48945D01*
Y49014D01*
Y49028D01*
X181807Y49195D01*
X181834Y49362D01*
X181876Y49514D01*
X181931Y49639D01*
X181987Y49736D01*
X182029Y49819D01*
X182056Y49875D01*
X182070Y49889D01*
X182181Y50028D01*
X182306Y50153D01*
X182445Y50264D01*
X182570Y50347D01*
X182681Y50416D01*
X182778Y50458D01*
X182834Y50486D01*
X182861Y50500D01*
X183070Y50583D01*
X183319Y50652D01*
X183583Y50708D01*
X183833Y50749D01*
X184069Y50791D01*
X184166Y50805D01*
X184263Y50819D01*
X184333D01*
X184388Y50833D01*
X184430D01*
X184666Y50861D01*
X184860Y50902D01*
X185027Y50930D01*
X185138Y50958D01*
X185235Y50985D01*
X185290Y51013D01*
X185318Y51027D01*
X185332D01*
X185401Y51069D01*
X185443Y51110D01*
X185499Y51221D01*
X185526Y51305D01*
Y51319D01*
Y51332D01*
X185512Y51402D01*
X185499Y51457D01*
X185443Y51555D01*
X185401Y51610D01*
X185374Y51638D01*
X185304Y51679D01*
X185221Y51721D01*
X185041Y51763D01*
X184971Y51777D01*
X184721D01*
X184596Y51749D01*
X184499Y51721D01*
X184402Y51693D01*
X184333Y51666D01*
X184277Y51638D01*
X184249Y51624D01*
X184236Y51610D01*
X184125Y51499D01*
X184041Y51374D01*
X184013Y51319D01*
X183986Y51263D01*
X183972Y51235D01*
Y51221D01*
X181973Y51416D01*
X182056Y51610D01*
X182140Y51777D01*
X182237Y51915D01*
X182320Y52040D01*
X182389Y52138D01*
X182445Y52207D01*
X182487Y52249D01*
X182501Y52262D01*
X182625Y52373D01*
X182764Y52471D01*
X182889Y52554D01*
X183014Y52623D01*
X183125Y52665D01*
X183208Y52707D01*
X183264Y52734D01*
X183292D01*
X183486Y52790D01*
X183708Y52818D01*
X183944Y52845D01*
X184180Y52873D01*
X184402D01*
X184485Y52887D01*
X184735D01*
X185068Y52873D01*
D02*
G37*
G36*
X154532Y52873D02*
X154782Y52845D01*
X155018Y52818D01*
X155240Y52762D01*
X155448Y52693D01*
X155643Y52623D01*
X155809Y52554D01*
X155962Y52485D01*
X156101Y52401D01*
X156226Y52332D01*
X156337Y52262D01*
X156420Y52193D01*
X156489Y52138D01*
X156531Y52110D01*
X156559Y52082D01*
X156573Y52068D01*
X156725Y51915D01*
X156850Y51749D01*
X156961Y51568D01*
X157059Y51402D01*
X157142Y51221D01*
X157211Y51055D01*
X157308Y50722D01*
X157350Y50569D01*
X157378Y50430D01*
X157392Y50305D01*
X157405Y50194D01*
X157419Y50111D01*
Y50042D01*
Y50000D01*
Y49986D01*
X157405Y49736D01*
X157378Y49500D01*
X157322Y49278D01*
X157267Y49070D01*
X157183Y48876D01*
X157100Y48695D01*
X157017Y48529D01*
X156920Y48376D01*
X156823Y48251D01*
X156739Y48126D01*
X156656Y48029D01*
X156573Y47946D01*
X156517Y47876D01*
X156462Y47835D01*
X156434Y47807D01*
X156420Y47793D01*
X156267Y47682D01*
X156087Y47571D01*
X155740Y47404D01*
X155379Y47293D01*
X155032Y47210D01*
X154879Y47182D01*
X154727Y47168D01*
X154602Y47141D01*
X154491D01*
X154394Y47127D01*
X154269D01*
X153991Y47141D01*
X153741Y47168D01*
X153491Y47196D01*
X153269Y47252D01*
X153061Y47307D01*
X152867Y47377D01*
X152686Y47460D01*
X152534Y47529D01*
X152395Y47599D01*
X152270Y47682D01*
X152159Y47751D01*
X152076Y47807D01*
X152006Y47862D01*
X151965Y47904D01*
X151937Y47918D01*
X151923Y47932D01*
X151770Y48085D01*
X151645Y48251D01*
X151534Y48432D01*
X151437Y48598D01*
X151354Y48779D01*
X151284Y48945D01*
X151187Y49278D01*
X151146Y49431D01*
X151118Y49570D01*
X151104Y49695D01*
X151090Y49806D01*
X151076Y49889D01*
Y49958D01*
Y50000D01*
Y50014D01*
X151090Y50222D01*
X151104Y50416D01*
X151187Y50791D01*
X151298Y51110D01*
X151423Y51388D01*
X151493Y51513D01*
X151548Y51610D01*
X151604Y51707D01*
X151659Y51777D01*
X151701Y51832D01*
X151742Y51888D01*
X151756Y51902D01*
X151770Y51915D01*
X151937Y52082D01*
X152117Y52235D01*
X152312Y52360D01*
X152520Y52485D01*
X152728Y52568D01*
X152936Y52651D01*
X153144Y52720D01*
X153339Y52762D01*
X153519Y52804D01*
X153700Y52832D01*
X153866Y52859D01*
X153991Y52873D01*
X154116Y52887D01*
X154269D01*
X154532Y52873D01*
D02*
G37*
G36*
X79511Y52873D02*
X79761Y52845D01*
X79997Y52818D01*
X80219Y52762D01*
X80427Y52693D01*
X80621Y52623D01*
X80788Y52554D01*
X80941Y52485D01*
X81079Y52401D01*
X81204Y52332D01*
X81315Y52262D01*
X81399Y52193D01*
X81468Y52138D01*
X81510Y52110D01*
X81537Y52082D01*
X81551Y52068D01*
X81704Y51915D01*
X81829Y51749D01*
X81940Y51568D01*
X82037Y51402D01*
X82120Y51221D01*
X82190Y51055D01*
X82287Y50722D01*
X82329Y50569D01*
X82356Y50430D01*
X82370Y50305D01*
X82384Y50194D01*
X82398Y50111D01*
Y50042D01*
Y50000D01*
Y49986D01*
X82384Y49736D01*
X82356Y49500D01*
X82301Y49278D01*
X82245Y49070D01*
X82162Y48876D01*
X82079Y48695D01*
X81995Y48529D01*
X81898Y48376D01*
X81801Y48251D01*
X81718Y48126D01*
X81635Y48029D01*
X81551Y47946D01*
X81496Y47876D01*
X81440Y47835D01*
X81413Y47807D01*
X81399Y47793D01*
X81246Y47682D01*
X81065Y47571D01*
X80718Y47404D01*
X80358Y47293D01*
X80011Y47210D01*
X79858Y47182D01*
X79705Y47168D01*
X79580Y47141D01*
X79469D01*
X79372Y47127D01*
X79247D01*
X78970Y47141D01*
X78720Y47168D01*
X78470Y47196D01*
X78248Y47252D01*
X78040Y47307D01*
X77845Y47377D01*
X77665Y47460D01*
X77512Y47529D01*
X77373Y47599D01*
X77249Y47682D01*
X77138Y47751D01*
X77054Y47807D01*
X76985Y47862D01*
X76943Y47904D01*
X76915Y47918D01*
X76902Y47932D01*
X76749Y48085D01*
X76624Y48251D01*
X76513Y48432D01*
X76416Y48598D01*
X76332Y48779D01*
X76263Y48945D01*
X76166Y49278D01*
X76124Y49431D01*
X76096Y49570D01*
X76083Y49695D01*
X76069Y49806D01*
X76055Y49889D01*
Y49958D01*
Y50000D01*
Y50014D01*
X76069Y50222D01*
X76083Y50416D01*
X76166Y50791D01*
X76277Y51110D01*
X76402Y51388D01*
X76471Y51513D01*
X76527Y51610D01*
X76582Y51707D01*
X76638Y51777D01*
X76679Y51832D01*
X76721Y51888D01*
X76735Y51902D01*
X76749Y51915D01*
X76915Y52082D01*
X77096Y52235D01*
X77290Y52360D01*
X77498Y52485D01*
X77707Y52568D01*
X77915Y52651D01*
X78123Y52720D01*
X78317Y52762D01*
X78498Y52804D01*
X78678Y52832D01*
X78845Y52859D01*
X78970Y52873D01*
X79095Y52887D01*
X79247D01*
X79511Y52873D01*
D02*
G37*
G36*
X72418D02*
X72668Y52845D01*
X72904Y52818D01*
X73126Y52762D01*
X73334Y52693D01*
X73529Y52623D01*
X73695Y52554D01*
X73848Y52485D01*
X73987Y52401D01*
X74112Y52332D01*
X74223Y52262D01*
X74306Y52193D01*
X74375Y52138D01*
X74417Y52110D01*
X74445Y52082D01*
X74459Y52068D01*
X74611Y51915D01*
X74736Y51749D01*
X74847Y51568D01*
X74944Y51402D01*
X75028Y51221D01*
X75097Y51055D01*
X75194Y50722D01*
X75236Y50569D01*
X75264Y50430D01*
X75278Y50305D01*
X75291Y50194D01*
X75305Y50111D01*
Y50042D01*
Y50000D01*
Y49986D01*
X75291Y49736D01*
X75264Y49500D01*
X75208Y49278D01*
X75153Y49070D01*
X75069Y48876D01*
X74986Y48695D01*
X74903Y48529D01*
X74806Y48376D01*
X74708Y48251D01*
X74625Y48126D01*
X74542Y48029D01*
X74459Y47946D01*
X74403Y47876D01*
X74348Y47835D01*
X74320Y47807D01*
X74306Y47793D01*
X74153Y47682D01*
X73973Y47571D01*
X73626Y47404D01*
X73265Y47293D01*
X72918Y47210D01*
X72765Y47182D01*
X72613Y47168D01*
X72488Y47141D01*
X72377D01*
X72280Y47127D01*
X72155D01*
X71877Y47141D01*
X71627Y47168D01*
X71377Y47196D01*
X71155Y47252D01*
X70947Y47307D01*
X70753Y47377D01*
X70572Y47460D01*
X70420Y47529D01*
X70281Y47599D01*
X70156Y47682D01*
X70045Y47751D01*
X69962Y47807D01*
X69892Y47862D01*
X69850Y47904D01*
X69823Y47918D01*
X69809Y47932D01*
X69656Y48085D01*
X69531Y48251D01*
X69420Y48432D01*
X69323Y48598D01*
X69240Y48779D01*
X69170Y48945D01*
X69073Y49278D01*
X69032Y49431D01*
X69004Y49570D01*
X68990Y49695D01*
X68976Y49806D01*
X68962Y49889D01*
Y49958D01*
Y50000D01*
Y50014D01*
X68976Y50222D01*
X68990Y50416D01*
X69073Y50791D01*
X69184Y51110D01*
X69309Y51388D01*
X69379Y51513D01*
X69434Y51610D01*
X69490Y51707D01*
X69545Y51777D01*
X69587Y51832D01*
X69628Y51888D01*
X69642Y51902D01*
X69656Y51915D01*
X69823Y52082D01*
X70003Y52235D01*
X70197Y52360D01*
X70406Y52485D01*
X70614Y52568D01*
X70822Y52651D01*
X71030Y52720D01*
X71225Y52762D01*
X71405Y52804D01*
X71586Y52832D01*
X71752Y52859D01*
X71877Y52873D01*
X72002Y52887D01*
X72155D01*
X72418Y52873D01*
D02*
G37*
G36*
X174166Y62360D02*
X172056D01*
Y63803D01*
X174166D01*
Y62360D01*
D02*
G37*
G36*
X90622Y63664D02*
X90775Y63428D01*
X90927Y63220D01*
X91080Y63054D01*
X91219Y62901D01*
X91330Y62790D01*
X91399Y62734D01*
X91413Y62707D01*
X91427D01*
X91663Y62526D01*
X91940Y62374D01*
X92218Y62235D01*
X92482Y62110D01*
X92718Y62013D01*
X92829Y61971D01*
X92912Y61929D01*
X92995Y61915D01*
X93051Y61888D01*
X93079Y61874D01*
X93093D01*
Y60153D01*
X92829Y60236D01*
X92593Y60305D01*
X92399Y60389D01*
X92218Y60458D01*
X92079Y60514D01*
X91968Y60555D01*
X91913Y60583D01*
X91885Y60597D01*
X91704Y60694D01*
X91524Y60805D01*
X91344Y60916D01*
X91191Y61013D01*
X91066Y61110D01*
X90955Y61180D01*
X90899Y61235D01*
X90872Y61249D01*
Y56197D01*
X88734D01*
Y63928D01*
X90483D01*
X90622Y63664D01*
D02*
G37*
G36*
X179024Y61818D02*
X179204Y61804D01*
X179371Y61791D01*
X179509Y61763D01*
X179621Y61749D01*
X179676Y61735D01*
X179704D01*
X179884Y61707D01*
X180037Y61666D01*
X180176Y61624D01*
X180287Y61582D01*
X180370Y61541D01*
X180439Y61513D01*
X180481Y61499D01*
X180495Y61485D01*
X180634Y61402D01*
X180759Y61305D01*
X180870Y61221D01*
X180953Y61138D01*
X181022Y61069D01*
X181078Y61013D01*
X181106Y60972D01*
X181120Y60958D01*
X181189Y60833D01*
X181258Y60694D01*
X181314Y60555D01*
X181356Y60430D01*
X181397Y60305D01*
X181411Y60208D01*
X181439Y60153D01*
Y60125D01*
X179412Y59917D01*
X179371Y60042D01*
X179315Y60139D01*
X179260Y60222D01*
X179204Y60291D01*
X179162Y60347D01*
X179121Y60375D01*
X179107Y60403D01*
X179093D01*
X178982Y60458D01*
X178857Y60500D01*
X178607Y60555D01*
X178496D01*
X178399Y60569D01*
X178177D01*
X178052Y60541D01*
X177955Y60514D01*
X177885Y60486D01*
X177816Y60458D01*
X177774Y60430D01*
X177761Y60416D01*
X177747Y60403D01*
X177691Y60333D01*
X177649Y60250D01*
X177594Y60083D01*
Y60000D01*
X177580Y59931D01*
Y59889D01*
Y59875D01*
X177872Y59764D01*
X177997Y59722D01*
X178108Y59681D01*
X178205Y59653D01*
X178274Y59625D01*
X178330Y59611D01*
X178343D01*
X178413Y59597D01*
X178510Y59570D01*
X178732Y59514D01*
X178982Y59459D01*
X179246Y59403D01*
X179482Y59361D01*
X179593Y59334D01*
X179690Y59320D01*
X179773Y59306D01*
X179829Y59292D01*
X179870Y59278D01*
X179884D01*
X180065Y59237D01*
X180231Y59195D01*
X180509Y59098D01*
X180745Y59001D01*
X180939Y58903D01*
X181078Y58820D01*
X181175Y58751D01*
X181230Y58695D01*
X181244Y58681D01*
X181369Y58529D01*
X181453Y58348D01*
X181522Y58182D01*
X181564Y58015D01*
X181591Y57876D01*
X181605Y57765D01*
Y57682D01*
Y57668D01*
Y57654D01*
X181578Y57404D01*
X181522Y57196D01*
X181453Y57002D01*
X181356Y56835D01*
X181258Y56697D01*
X181189Y56599D01*
X181133Y56544D01*
X181106Y56516D01*
X180897Y56363D01*
X180648Y56266D01*
X180398Y56183D01*
X180162Y56128D01*
X179940Y56100D01*
X179842Y56086D01*
X179759D01*
X179690Y56072D01*
X179593D01*
X179329Y56086D01*
X179079Y56114D01*
X178857Y56141D01*
X178663Y56183D01*
X178510Y56225D01*
X178385Y56266D01*
X178316Y56280D01*
X178288Y56294D01*
X178135Y56363D01*
X177997Y56461D01*
X177858Y56544D01*
X177733Y56641D01*
X177622Y56724D01*
X177539Y56794D01*
X177483Y56849D01*
X177469Y56863D01*
X177441Y56710D01*
X177413Y56599D01*
X177400Y56544D01*
Y56516D01*
X177358Y56419D01*
X177303Y56322D01*
X177247Y56239D01*
X177233Y56211D01*
Y56197D01*
X175248D01*
X175359Y56419D01*
X175387Y56516D01*
X175415Y56599D01*
X175443Y56669D01*
X175457Y56710D01*
X175470Y56738D01*
Y56752D01*
X175484Y56849D01*
X175498Y56946D01*
X175512Y57141D01*
Y57224D01*
Y57293D01*
Y57349D01*
Y57363D01*
Y59792D01*
Y59944D01*
X175540Y60083D01*
X175567Y60222D01*
X175595Y60347D01*
X175623Y60458D01*
X175651Y60541D01*
X175665Y60597D01*
X175679Y60611D01*
X175734Y60763D01*
X175803Y60902D01*
X175873Y61013D01*
X175942Y61110D01*
X175998Y61180D01*
X176053Y61235D01*
X176081Y61263D01*
X176095Y61277D01*
X176248Y61388D01*
X176414Y61485D01*
X176567Y61568D01*
X176719Y61624D01*
X176858Y61666D01*
X176969Y61693D01*
X177039Y61721D01*
X177067D01*
X177289Y61763D01*
X177539Y61791D01*
X177802Y61804D01*
X178038Y61818D01*
X178260Y61832D01*
X178815D01*
X179024Y61818D01*
D02*
G37*
G36*
X142394Y61818D02*
X142575Y61804D01*
X142741Y61791D01*
X142880Y61763D01*
X142991Y61749D01*
X143047Y61735D01*
X143074D01*
X143255Y61707D01*
X143407Y61666D01*
X143546Y61624D01*
X143657Y61582D01*
X143741Y61541D01*
X143810Y61513D01*
X143852Y61499D01*
X143866Y61485D01*
X144004Y61402D01*
X144129Y61305D01*
X144240Y61221D01*
X144324Y61138D01*
X144393Y61069D01*
X144448Y61013D01*
X144476Y60972D01*
X144490Y60958D01*
X144560Y60833D01*
X144629Y60694D01*
X144685Y60555D01*
X144726Y60430D01*
X144768Y60305D01*
X144782Y60208D01*
X144809Y60153D01*
Y60125D01*
X142783Y59917D01*
X142741Y60042D01*
X142686Y60139D01*
X142630Y60222D01*
X142575Y60291D01*
X142533Y60347D01*
X142491Y60375D01*
X142478Y60403D01*
X142464D01*
X142353Y60458D01*
X142228Y60500D01*
X141978Y60555D01*
X141867D01*
X141770Y60569D01*
X141548D01*
X141423Y60541D01*
X141325Y60514D01*
X141256Y60486D01*
X141187Y60458D01*
X141145Y60430D01*
X141131Y60416D01*
X141117Y60403D01*
X141062Y60333D01*
X141020Y60250D01*
X140965Y60083D01*
Y60000D01*
X140951Y59931D01*
Y59889D01*
Y59875D01*
X141242Y59764D01*
X141367Y59722D01*
X141478Y59681D01*
X141575Y59653D01*
X141645Y59625D01*
X141700Y59611D01*
X141714D01*
X141784Y59597D01*
X141881Y59570D01*
X142103Y59514D01*
X142353Y59459D01*
X142616Y59403D01*
X142852Y59361D01*
X142963Y59334D01*
X143061Y59320D01*
X143144Y59306D01*
X143199Y59292D01*
X143241Y59278D01*
X143255D01*
X143435Y59237D01*
X143602Y59195D01*
X143879Y59098D01*
X144115Y59001D01*
X144310Y58903D01*
X144448Y58820D01*
X144546Y58751D01*
X144601Y58695D01*
X144615Y58681D01*
X144740Y58529D01*
X144823Y58348D01*
X144893Y58182D01*
X144934Y58015D01*
X144962Y57876D01*
X144976Y57765D01*
Y57682D01*
Y57668D01*
Y57654D01*
X144948Y57404D01*
X144893Y57196D01*
X144823Y57002D01*
X144726Y56835D01*
X144629Y56697D01*
X144560Y56599D01*
X144504Y56544D01*
X144476Y56516D01*
X144268Y56363D01*
X144018Y56266D01*
X143768Y56183D01*
X143533Y56128D01*
X143310Y56100D01*
X143213Y56086D01*
X143130D01*
X143061Y56072D01*
X142963D01*
X142700Y56086D01*
X142450Y56114D01*
X142228Y56141D01*
X142033Y56183D01*
X141881Y56225D01*
X141756Y56266D01*
X141686Y56280D01*
X141659Y56294D01*
X141506Y56363D01*
X141367Y56461D01*
X141228Y56544D01*
X141103Y56641D01*
X140992Y56724D01*
X140909Y56794D01*
X140854Y56849D01*
X140840Y56863D01*
X140812Y56710D01*
X140784Y56599D01*
X140770Y56544D01*
Y56516D01*
X140729Y56419D01*
X140673Y56322D01*
X140618Y56239D01*
X140604Y56211D01*
Y56197D01*
X138619D01*
X138730Y56419D01*
X138758Y56516D01*
X138786Y56599D01*
X138813Y56669D01*
X138827Y56710D01*
X138841Y56738D01*
Y56752D01*
X138855Y56849D01*
X138869Y56946D01*
X138883Y57141D01*
Y57224D01*
Y57293D01*
Y57349D01*
Y57363D01*
Y59792D01*
Y59944D01*
X138910Y60083D01*
X138938Y60222D01*
X138966Y60347D01*
X138994Y60458D01*
X139022Y60541D01*
X139035Y60597D01*
X139049Y60611D01*
X139105Y60763D01*
X139174Y60902D01*
X139243Y61013D01*
X139313Y61110D01*
X139368Y61180D01*
X139424Y61235D01*
X139452Y61263D01*
X139466Y61277D01*
X139618Y61388D01*
X139785Y61485D01*
X139937Y61568D01*
X140090Y61624D01*
X140229Y61666D01*
X140340Y61693D01*
X140410Y61721D01*
X140437D01*
X140659Y61763D01*
X140909Y61791D01*
X141173Y61804D01*
X141409Y61818D01*
X141631Y61832D01*
X142186D01*
X142394Y61818D01*
D02*
G37*
G36*
X191266Y56197D02*
X189337D01*
Y61999D01*
X187865Y56197D01*
X186116D01*
X184631Y61999D01*
Y56197D01*
X182702D01*
Y63803D01*
X185797D01*
X186991Y59167D01*
X188171Y63803D01*
X191266D01*
Y56197D01*
D02*
G37*
G36*
X105237Y56197D02*
X103364D01*
X101018Y61707D01*
X103156D01*
X104266Y58210D01*
X105335Y61707D01*
X107528Y61707D01*
X105237Y56197D01*
D02*
G37*
G36*
X111414Y61818D02*
X111664Y61804D01*
X111900Y61763D01*
X112122Y61707D01*
X112330Y61652D01*
X112511Y61582D01*
X112691Y61499D01*
X112844Y61430D01*
X112983Y61360D01*
X113094Y61277D01*
X113205Y61208D01*
X113288Y61152D01*
X113357Y61097D01*
X113399Y61069D01*
X113427Y61041D01*
X113441Y61027D01*
X113579Y60874D01*
X113704Y60708D01*
X113815Y60541D01*
X113912Y60361D01*
X113996Y60180D01*
X114065Y60014D01*
X114162Y59681D01*
X114190Y59528D01*
X114218Y59389D01*
X114232Y59250D01*
X114246Y59139D01*
X114260Y59056D01*
Y58987D01*
Y58945D01*
Y58931D01*
X114246Y58598D01*
X114190Y58307D01*
X114135Y58029D01*
X114051Y57807D01*
X113982Y57613D01*
X113912Y57474D01*
X113899Y57418D01*
X113871Y57377D01*
X113857Y57363D01*
Y57349D01*
X113690Y57113D01*
X113524Y56919D01*
X113344Y56752D01*
X113177Y56613D01*
X113038Y56516D01*
X112913Y56433D01*
X112844Y56391D01*
X112816Y56377D01*
X112566Y56280D01*
X112289Y56197D01*
X111997Y56141D01*
X111720Y56114D01*
X111470Y56086D01*
X111372D01*
X111275Y56072D01*
X110859D01*
X110651Y56086D01*
X110442Y56100D01*
X110262Y56128D01*
X110082Y56155D01*
X109929Y56183D01*
X109790Y56225D01*
X109651Y56252D01*
X109540Y56280D01*
X109443Y56322D01*
X109360Y56349D01*
X109291Y56377D01*
X109235Y56405D01*
X109193Y56419D01*
X109179Y56433D01*
X109166D01*
X108916Y56586D01*
X108694Y56766D01*
X108499Y56974D01*
X108333Y57169D01*
X108194Y57349D01*
X108083Y57488D01*
X108055Y57543D01*
X108027Y57585D01*
X108000Y57613D01*
Y57626D01*
X110082Y57821D01*
X110151Y57724D01*
X110234Y57654D01*
X110290Y57585D01*
X110345Y57543D01*
X110429Y57474D01*
X110442Y57460D01*
X110456D01*
X110567Y57404D01*
X110665Y57377D01*
X110845Y57321D01*
X110928D01*
X110984Y57307D01*
X111039D01*
X111220Y57321D01*
X111372Y57363D01*
X111511Y57418D01*
X111622Y57488D01*
X111720Y57557D01*
X111789Y57613D01*
X111830Y57654D01*
X111844Y57668D01*
X111914Y57779D01*
X111969Y57890D01*
X112053Y58140D01*
X112080Y58251D01*
X112094Y58348D01*
X112108Y58404D01*
Y58432D01*
X107875D01*
Y58667D01*
X107889Y59056D01*
X107930Y59403D01*
X107986Y59695D01*
X108055Y59958D01*
X108125Y60153D01*
X108152Y60236D01*
X108180Y60305D01*
X108208Y60361D01*
X108222Y60403D01*
X108236Y60416D01*
Y60430D01*
X108388Y60666D01*
X108555Y60874D01*
X108721Y61055D01*
X108902Y61208D01*
X109055Y61319D01*
X109179Y61402D01*
X109263Y61457D01*
X109277Y61471D01*
X109291D01*
X109568Y61596D01*
X109873Y61680D01*
X110179Y61749D01*
X110470Y61791D01*
X110734Y61818D01*
X110859D01*
X110956Y61832D01*
X111150D01*
X111414Y61818D01*
D02*
G37*
G36*
X174166Y56197D02*
X172056D01*
Y61707D01*
X174166D01*
Y56197D01*
D02*
G37*
G36*
X166990Y61818D02*
X167198Y61791D01*
X167392Y61763D01*
X167559Y61721D01*
X167684Y61666D01*
X167781Y61638D01*
X167836Y61610D01*
X167864Y61596D01*
X168031Y61499D01*
X168183Y61374D01*
X168336Y61249D01*
X168475Y61110D01*
X168586Y60999D01*
X168669Y60902D01*
X168738Y60833D01*
X168752Y60805D01*
Y61707D01*
X170710D01*
Y56197D01*
X168600D01*
Y58834D01*
X168586Y59098D01*
X168558Y59320D01*
X168530Y59500D01*
X168475Y59653D01*
X168433Y59750D01*
X168405Y59833D01*
X168378Y59875D01*
X168364Y59889D01*
X168267Y59986D01*
X168169Y60056D01*
X168058Y60111D01*
X167961Y60139D01*
X167878Y60167D01*
X167809Y60180D01*
X167739D01*
X167614Y60167D01*
X167503Y60153D01*
X167420Y60111D01*
X167337Y60069D01*
X167281Y60028D01*
X167239Y60000D01*
X167212Y59972D01*
X167198Y59958D01*
X167129Y59861D01*
X167087Y59750D01*
X167031Y59514D01*
X167017Y59403D01*
X167004Y59306D01*
Y59250D01*
Y59223D01*
Y56197D01*
X164880D01*
Y59695D01*
X164908Y60069D01*
X164963Y60403D01*
X165033Y60680D01*
X165130Y60902D01*
X165227Y61083D01*
X165296Y61208D01*
X165352Y61277D01*
X165380Y61305D01*
X165588Y61485D01*
X165810Y61610D01*
X166032Y61707D01*
X166254Y61763D01*
X166448Y61804D01*
X166615Y61818D01*
X166670Y61832D01*
X166754D01*
X166990Y61818D01*
D02*
G37*
G36*
X159939Y56197D02*
X155761D01*
X155608Y56211D01*
X155441Y56225D01*
X155261Y56252D01*
X155095Y56266D01*
X154956Y56280D01*
X154900D01*
X154859Y56294D01*
X154831D01*
X154623Y56336D01*
X154442Y56363D01*
X154289Y56405D01*
X154165Y56447D01*
X154067Y56488D01*
X153998Y56516D01*
X153956Y56544D01*
X153943D01*
X153776Y56655D01*
X153623Y56780D01*
X153484Y56905D01*
X153373Y57030D01*
X153290Y57127D01*
X153235Y57210D01*
X153193Y57279D01*
X153179Y57293D01*
X153082Y57474D01*
X153013Y57654D01*
X152971Y57835D01*
X152929Y58001D01*
X152915Y58140D01*
X152901Y58251D01*
Y58320D01*
Y58348D01*
X152915Y58612D01*
X152957Y58848D01*
X153026Y59056D01*
X153096Y59223D01*
X153165Y59361D01*
X153235Y59473D01*
X153276Y59528D01*
X153290Y59556D01*
X153457Y59722D01*
X153637Y59861D01*
X153845Y59986D01*
X154040Y60083D01*
X154220Y60153D01*
X154359Y60194D01*
X154414Y60222D01*
X154456D01*
X154484Y60236D01*
X154498D01*
X154303Y60319D01*
X154137Y60403D01*
X153998Y60486D01*
X153887Y60569D01*
X153790Y60638D01*
X153734Y60694D01*
X153693Y60736D01*
X153679Y60750D01*
X153540Y60944D01*
X153429Y61138D01*
X153359Y61332D01*
X153304Y61513D01*
X153276Y61666D01*
X153249Y61791D01*
Y61874D01*
Y61888D01*
Y61901D01*
Y62054D01*
X153276Y62193D01*
X153346Y62457D01*
X153443Y62679D01*
X153540Y62873D01*
X153651Y63040D01*
X153748Y63151D01*
X153817Y63220D01*
X153831Y63248D01*
X153845D01*
X154095Y63428D01*
X154359Y63567D01*
X154637Y63664D01*
X154914Y63734D01*
X155164Y63775D01*
X155261Y63789D01*
X155358D01*
X155428Y63803D01*
X159939D01*
Y56197D01*
D02*
G37*
G36*
X134441Y61818D02*
X134580Y61804D01*
X134719Y61763D01*
X134830Y61721D01*
X134913Y61680D01*
X134982Y61652D01*
X135024Y61624D01*
X135038Y61610D01*
X135149Y61513D01*
X135246Y61388D01*
X135440Y61124D01*
X135510Y60999D01*
X135565Y60902D01*
X135607Y60833D01*
X135621Y60805D01*
Y61707D01*
X137592D01*
Y56197D01*
X135468D01*
Y58043D01*
Y58279D01*
X135454Y58501D01*
X135440Y58695D01*
X135413Y58876D01*
X135399Y59042D01*
X135371Y59195D01*
X135343Y59320D01*
X135302Y59445D01*
X135274Y59542D01*
X135246Y59625D01*
X135218Y59695D01*
X135205Y59750D01*
X135163Y59820D01*
X135149Y59847D01*
X135052Y59958D01*
X134941Y60042D01*
X134844Y60111D01*
X134732Y60153D01*
X134635Y60180D01*
X134566Y60194D01*
X134413D01*
X134316Y60167D01*
X134122Y60111D01*
X134038Y60083D01*
X133969Y60056D01*
X133928Y60042D01*
X133914Y60028D01*
X133247Y61541D01*
X133456Y61638D01*
X133650Y61707D01*
X133817Y61763D01*
X133969Y61791D01*
X134094Y61818D01*
X134191Y61832D01*
X134274D01*
X134441Y61818D01*
D02*
G37*
G36*
X122102Y56197D02*
X119742D01*
Y59278D01*
X119548D01*
X119423Y59264D01*
X119312Y59250D01*
X119215Y59223D01*
X119131Y59195D01*
X119062Y59153D01*
X119007Y59126D01*
X118979Y59112D01*
X118965Y59098D01*
X118895Y59028D01*
X118812Y58945D01*
X118673Y58751D01*
X118618Y58667D01*
X118576Y58584D01*
X118549Y58529D01*
X118535Y58515D01*
X117271Y56197D01*
X114606D01*
X115759Y58390D01*
X115800Y58459D01*
X115842Y58529D01*
X115953Y58695D01*
X116008Y58751D01*
X116050Y58806D01*
X116078Y58848D01*
X116092Y58862D01*
X116175Y58973D01*
X116258Y59056D01*
X116314Y59126D01*
X116369Y59181D01*
X116411Y59223D01*
X116439Y59250D01*
X116466Y59264D01*
X116550Y59320D01*
X116647Y59361D01*
X116841Y59459D01*
X116938Y59486D01*
X117008Y59514D01*
X117063Y59542D01*
X117077D01*
X116897Y59597D01*
X116730Y59639D01*
X116591Y59695D01*
X116466Y59736D01*
X116383Y59778D01*
X116314Y59820D01*
X116272Y59833D01*
X116258Y59847D01*
X116092Y59958D01*
X115939Y60083D01*
X115814Y60208D01*
X115703Y60319D01*
X115620Y60430D01*
X115550Y60514D01*
X115523Y60569D01*
X115509Y60583D01*
X115412Y60763D01*
X115342Y60958D01*
X115301Y61138D01*
X115259Y61305D01*
X115245Y61457D01*
X115231Y61568D01*
Y61652D01*
Y61680D01*
X115245Y61943D01*
X115287Y62179D01*
X115342Y62387D01*
X115412Y62568D01*
X115481Y62721D01*
X115536Y62831D01*
X115578Y62887D01*
X115592Y62915D01*
X115731Y63095D01*
X115884Y63234D01*
X116036Y63359D01*
X116189Y63456D01*
X116314Y63525D01*
X116425Y63567D01*
X116494Y63595D01*
X116522Y63609D01*
X116758Y63678D01*
X117022Y63720D01*
X117299Y63762D01*
X117563Y63775D01*
X117813Y63789D01*
X117910Y63803D01*
X122102D01*
Y56197D01*
D02*
G37*
G36*
X100407Y56197D02*
X98145D01*
Y58320D01*
X100407D01*
Y56197D01*
D02*
G37*
G36*
X149182Y61818D02*
X149432Y61791D01*
X149667Y61763D01*
X149890Y61707D01*
X150098Y61638D01*
X150292Y61568D01*
X150459Y61499D01*
X150611Y61430D01*
X150750Y61346D01*
X150875Y61277D01*
X150986Y61208D01*
X151069Y61138D01*
X151139Y61083D01*
X151180Y61055D01*
X151208Y61027D01*
X151222Y61013D01*
X151375Y60861D01*
X151500Y60694D01*
X151611Y60514D01*
X151708Y60347D01*
X151791Y60167D01*
X151860Y60000D01*
X151958Y59667D01*
X151999Y59514D01*
X152027Y59375D01*
X152041Y59250D01*
X152055Y59139D01*
X152069Y59056D01*
Y58987D01*
Y58945D01*
Y58931D01*
X152055Y58681D01*
X152027Y58445D01*
X151971Y58223D01*
X151916Y58015D01*
X151833Y57821D01*
X151749Y57640D01*
X151666Y57474D01*
X151569Y57321D01*
X151472Y57196D01*
X151389Y57071D01*
X151305Y56974D01*
X151222Y56891D01*
X151166Y56822D01*
X151111Y56780D01*
X151083Y56752D01*
X151069Y56738D01*
X150917Y56627D01*
X150736Y56516D01*
X150389Y56349D01*
X150028Y56239D01*
X149681Y56155D01*
X149529Y56128D01*
X149376Y56114D01*
X149251Y56086D01*
X149140D01*
X149043Y56072D01*
X148918D01*
X148640Y56086D01*
X148390Y56114D01*
X148141Y56141D01*
X147918Y56197D01*
X147710Y56252D01*
X147516Y56322D01*
X147336Y56405D01*
X147183Y56475D01*
X147044Y56544D01*
X146919Y56627D01*
X146808Y56697D01*
X146725Y56752D01*
X146655Y56808D01*
X146614Y56849D01*
X146586Y56863D01*
X146572Y56877D01*
X146420Y57030D01*
X146295Y57196D01*
X146184Y57377D01*
X146086Y57543D01*
X146003Y57724D01*
X145934Y57890D01*
X145836Y58223D01*
X145795Y58376D01*
X145767Y58515D01*
X145753Y58640D01*
X145739Y58751D01*
X145726Y58834D01*
Y58903D01*
Y58945D01*
Y58959D01*
X145739Y59167D01*
X145753Y59361D01*
X145836Y59736D01*
X145948Y60056D01*
X146072Y60333D01*
X146142Y60458D01*
X146197Y60555D01*
X146253Y60652D01*
X146309Y60722D01*
X146350Y60777D01*
X146392Y60833D01*
X146406Y60847D01*
X146420Y60861D01*
X146586Y61027D01*
X146766Y61180D01*
X146961Y61305D01*
X147169Y61430D01*
X147377Y61513D01*
X147585Y61596D01*
X147794Y61666D01*
X147988Y61707D01*
X148168Y61749D01*
X148349Y61777D01*
X148515Y61804D01*
X148640Y61818D01*
X148765Y61832D01*
X148918D01*
X149182Y61818D01*
D02*
G37*
G36*
X129236Y61166D02*
X129361Y61277D01*
X129486Y61388D01*
X129611Y61471D01*
X129722Y61541D01*
X129819Y61596D01*
X129888Y61638D01*
X129944Y61652D01*
X129958Y61666D01*
X130111Y61721D01*
X130263Y61763D01*
X130416Y61791D01*
X130555Y61818D01*
X130666D01*
X130763Y61832D01*
X130846D01*
X131027Y61818D01*
X131207Y61804D01*
X131540Y61721D01*
X131818Y61596D01*
X132054Y61471D01*
X132248Y61332D01*
X132387Y61208D01*
X132442Y61166D01*
X132484Y61124D01*
X132498Y61110D01*
X132512Y61097D01*
X132623Y60958D01*
X132720Y60805D01*
X132887Y60472D01*
X132998Y60111D01*
X133081Y59778D01*
X133109Y59625D01*
X133123Y59473D01*
X133150Y59348D01*
Y59223D01*
X133164Y59139D01*
Y59056D01*
Y59014D01*
Y59001D01*
X133136Y58556D01*
X133067Y58154D01*
X132984Y57807D01*
X132928Y57640D01*
X132873Y57502D01*
X132817Y57377D01*
X132762Y57252D01*
X132720Y57155D01*
X132678Y57071D01*
X132637Y57002D01*
X132609Y56960D01*
X132581Y56932D01*
Y56919D01*
X132456Y56766D01*
X132331Y56641D01*
X132206Y56530D01*
X132054Y56433D01*
X131915Y56349D01*
X131776Y56280D01*
X131499Y56183D01*
X131249Y56114D01*
X131138Y56100D01*
X131041Y56086D01*
X130971Y56072D01*
X130860D01*
X130652Y56086D01*
X130471Y56114D01*
X130291Y56141D01*
X130138Y56197D01*
X130027Y56239D01*
X129930Y56266D01*
X129861Y56294D01*
X129847Y56308D01*
X129708Y56391D01*
X129583Y56488D01*
X129458Y56613D01*
X129333Y56724D01*
X129236Y56835D01*
X129153Y56919D01*
X129097Y56974D01*
X129083Y57002D01*
Y56197D01*
X127099D01*
Y63803D01*
X129236D01*
Y61166D01*
D02*
G37*
G36*
X171181Y104778D02*
X171528Y104755D01*
X171829Y104686D01*
X172084Y104616D01*
X172292Y104547D01*
X172431Y104501D01*
X172546Y104454D01*
X172570Y104431D01*
X172847Y104269D01*
X173102Y104107D01*
X173333Y103899D01*
X173565Y103691D01*
X173750Y103529D01*
X173889Y103367D01*
X173981Y103274D01*
X174004Y103228D01*
Y104593D01*
X177290D01*
Y95407D01*
X173750D01*
Y100081D01*
X173726Y100451D01*
X173680Y100752D01*
X173634Y101007D01*
X173565Y101215D01*
X173495Y101377D01*
X173426Y101493D01*
X173403Y101562D01*
X173379Y101585D01*
X173217Y101747D01*
X173056Y101863D01*
X172894Y101932D01*
X172731Y102002D01*
X172570Y102025D01*
X172454Y102048D01*
X172361D01*
X172107Y102002D01*
X171898Y101932D01*
X171760Y101863D01*
X171737Y101816D01*
X171713D01*
X171528Y101631D01*
X171413Y101469D01*
X171343Y101331D01*
X171320Y101284D01*
Y101261D01*
X171297Y101169D01*
X171274Y101053D01*
X171251Y100775D01*
Y100660D01*
Y100544D01*
Y100474D01*
Y100451D01*
Y95407D01*
X167710D01*
Y100150D01*
X167687Y100497D01*
X167641Y100798D01*
X167595Y101053D01*
X167525Y101238D01*
X167456Y101400D01*
X167386Y101493D01*
X167363Y101562D01*
X167340Y101585D01*
X167201Y101747D01*
X167016Y101863D01*
X166854Y101932D01*
X166692Y102002D01*
X166553Y102025D01*
X166437Y102048D01*
X166345D01*
X166160Y102025D01*
X165975Y101979D01*
X165836Y101886D01*
X165697Y101816D01*
X165604Y101724D01*
X165535Y101631D01*
X165489Y101585D01*
X165466Y101562D01*
X165373Y101446D01*
X165327Y101284D01*
X165234Y100984D01*
Y100845D01*
X165211Y100729D01*
Y100660D01*
Y100636D01*
Y95407D01*
X161671Y95407D01*
Y101169D01*
Y101516D01*
X161717Y101816D01*
X161809Y102395D01*
X161925Y102858D01*
X162087Y103251D01*
X162249Y103552D01*
X162365Y103760D01*
X162457Y103876D01*
X162504Y103922D01*
X162851Y104223D01*
X163221Y104431D01*
X163591Y104593D01*
X163962Y104686D01*
X164309Y104755D01*
X164563Y104778D01*
X164679Y104801D01*
X164818D01*
X165188Y104778D01*
X165512Y104755D01*
X165813Y104686D01*
X166044Y104640D01*
X166252Y104570D01*
X166414Y104501D01*
X166507Y104478D01*
X166530Y104454D01*
X166785Y104316D01*
X167039Y104130D01*
X167294Y103922D01*
X167525Y103714D01*
X167733Y103529D01*
X167895Y103367D01*
X167988Y103274D01*
X168034Y103228D01*
X168196Y103506D01*
X168358Y103737D01*
X168543Y103945D01*
X168705Y104107D01*
X168844Y104246D01*
X168960Y104339D01*
X169052Y104385D01*
X169075Y104408D01*
X169330Y104547D01*
X169608Y104640D01*
X169908Y104709D01*
X170186Y104755D01*
X170441Y104778D01*
X170626Y104801D01*
X170811D01*
X171181Y104778D01*
D02*
G37*
G36*
X91626Y105195D02*
X90908Y99387D01*
X88595D01*
X87854Y105195D01*
Y108087D01*
X91626D01*
Y105195D01*
D02*
G37*
G36*
X117982Y100521D02*
X117959Y100173D01*
X117936Y99803D01*
X117867Y99433D01*
X117797Y99109D01*
X117751Y98831D01*
X117682Y98600D01*
X117658Y98507D01*
Y98438D01*
X117635Y98415D01*
Y98392D01*
X117543Y98114D01*
X117404Y97836D01*
X117265Y97582D01*
X117126Y97374D01*
X117010Y97189D01*
X116895Y97026D01*
X116825Y96934D01*
X116802Y96911D01*
X116571Y96656D01*
X116339Y96448D01*
X116108Y96263D01*
X115900Y96101D01*
X115715Y95985D01*
X115576Y95893D01*
X115483Y95846D01*
X115460Y95823D01*
X115159Y95707D01*
X114858Y95592D01*
X114558Y95499D01*
X114257Y95453D01*
X114025Y95384D01*
X113817Y95360D01*
X113678Y95337D01*
X113632D01*
X113215Y95291D01*
X112845Y95268D01*
X112498Y95222D01*
X112197D01*
X111943Y95198D01*
X111596D01*
X111017Y95222D01*
X110485Y95268D01*
X110022Y95337D01*
X109629Y95407D01*
X109282Y95476D01*
X109050Y95546D01*
X108958Y95569D01*
X108888Y95592D01*
X108865Y95615D01*
X108842D01*
X108541Y95754D01*
X108264Y95916D01*
X107986Y96078D01*
X107754Y96240D01*
X107569Y96402D01*
X107430Y96541D01*
X107315Y96633D01*
X107292Y96656D01*
X107014Y96934D01*
X106806Y97235D01*
X106597Y97536D01*
X106459Y97813D01*
X106320Y98045D01*
X106250Y98230D01*
X106204Y98346D01*
X106181Y98392D01*
X106065Y98785D01*
X105973Y99155D01*
X105903Y99502D01*
X105857Y99850D01*
X105834Y100127D01*
X105811Y100336D01*
Y100474D01*
Y100497D01*
Y100521D01*
Y108087D01*
X109721Y108087D01*
Y100359D01*
X109745Y99988D01*
X109814Y99664D01*
X109906Y99364D01*
X109999Y99132D01*
X110115Y98947D01*
X110207Y98831D01*
X110277Y98739D01*
X110300Y98716D01*
X110531Y98531D01*
X110786Y98392D01*
X111063Y98299D01*
X111318Y98230D01*
X111549Y98184D01*
X111734Y98160D01*
X111897D01*
X112267Y98184D01*
X112591Y98253D01*
X112868Y98346D01*
X113100Y98461D01*
X113285Y98554D01*
X113401Y98646D01*
X113493Y98716D01*
X113516Y98739D01*
X113701Y98970D01*
X113840Y99248D01*
X113933Y99502D01*
X114002Y99757D01*
X114049Y99988D01*
X114072Y100197D01*
Y100312D01*
Y100359D01*
Y108087D01*
X117982D01*
Y100521D01*
D02*
G37*
G36*
X143459Y104778D02*
X143876Y104755D01*
X144269Y104686D01*
X144640Y104593D01*
X144987Y104501D01*
X145288Y104385D01*
X145588Y104246D01*
X145843Y104130D01*
X146074Y104015D01*
X146259Y103876D01*
X146444Y103760D01*
X146583Y103668D01*
X146699Y103575D01*
X146768Y103529D01*
X146815Y103483D01*
X146838Y103459D01*
X147069Y103205D01*
X147277Y102927D01*
X147463Y102649D01*
X147625Y102349D01*
X147764Y102048D01*
X147879Y101770D01*
X148041Y101215D01*
X148087Y100960D01*
X148134Y100729D01*
X148157Y100497D01*
X148180Y100312D01*
X148203Y100173D01*
Y100058D01*
Y99988D01*
Y99965D01*
X148180Y99410D01*
X148087Y98924D01*
X147995Y98461D01*
X147856Y98091D01*
X147740Y97767D01*
X147625Y97536D01*
X147601Y97443D01*
X147555Y97374D01*
X147532Y97351D01*
Y97327D01*
X147254Y96934D01*
X146977Y96610D01*
X146676Y96332D01*
X146398Y96101D01*
X146167Y95939D01*
X145958Y95800D01*
X145843Y95731D01*
X145797Y95707D01*
X145380Y95546D01*
X144917Y95407D01*
X144431Y95314D01*
X143968Y95268D01*
X143552Y95222D01*
X143390D01*
X143228Y95198D01*
X142534D01*
X142187Y95222D01*
X141840Y95245D01*
X141539Y95291D01*
X141238Y95337D01*
X140983Y95384D01*
X140752Y95453D01*
X140521Y95499D01*
X140336Y95546D01*
X140174Y95615D01*
X140035Y95661D01*
X139919Y95707D01*
X139826Y95754D01*
X139757Y95777D01*
X139734Y95800D01*
X139711D01*
X139294Y96055D01*
X138924Y96355D01*
X138600Y96702D01*
X138322Y97026D01*
X138091Y97327D01*
X137906Y97559D01*
X137859Y97651D01*
X137813Y97721D01*
X137767Y97767D01*
Y97790D01*
X141238Y98114D01*
X141354Y97952D01*
X141492Y97836D01*
X141585Y97721D01*
X141678Y97651D01*
X141816Y97536D01*
X141840Y97512D01*
X141863D01*
X142048Y97420D01*
X142210Y97374D01*
X142511Y97281D01*
X142649D01*
X142742Y97258D01*
X142835D01*
X143135Y97281D01*
X143390Y97351D01*
X143621Y97443D01*
X143807Y97559D01*
X143968Y97674D01*
X144084Y97767D01*
X144154Y97836D01*
X144177Y97860D01*
X144292Y98045D01*
X144385Y98230D01*
X144524Y98646D01*
X144570Y98831D01*
X144593Y98993D01*
X144616Y99086D01*
Y99132D01*
X137559D01*
Y99526D01*
X137582Y100173D01*
X137651Y100752D01*
X137744Y101238D01*
X137859Y101678D01*
X137975Y102002D01*
X138022Y102140D01*
X138068Y102256D01*
X138114Y102349D01*
X138137Y102418D01*
X138160Y102441D01*
Y102464D01*
X138415Y102858D01*
X138693Y103205D01*
X138970Y103506D01*
X139271Y103760D01*
X139526Y103945D01*
X139734Y104084D01*
X139873Y104177D01*
X139896Y104200D01*
X139919D01*
X140382Y104408D01*
X140891Y104547D01*
X141400Y104663D01*
X141886Y104732D01*
X142326Y104778D01*
X142534D01*
X142696Y104801D01*
X143020D01*
X143459Y104778D01*
D02*
G37*
G36*
X192146Y95407D02*
X188143D01*
X187518Y97489D01*
X183075D01*
X182450Y95407D01*
X178331D01*
X183098Y108087D01*
X187402D01*
X192146Y95407D01*
D02*
G37*
G36*
X91487Y95407D02*
X87970D01*
Y98507D01*
X91487D01*
Y95407D01*
D02*
G37*
G36*
X129830Y103691D02*
X130038Y103876D01*
X130246Y104061D01*
X130455Y104200D01*
X130640Y104316D01*
X130802Y104408D01*
X130918Y104478D01*
X131010Y104501D01*
X131033Y104524D01*
X131288Y104616D01*
X131542Y104686D01*
X131797Y104732D01*
X132028Y104778D01*
X132213D01*
X132375Y104801D01*
X132514D01*
X132815Y104778D01*
X133116Y104755D01*
X133671Y104616D01*
X134134Y104408D01*
X134527Y104200D01*
X134851Y103969D01*
X135083Y103760D01*
X135175Y103691D01*
X135245Y103621D01*
X135268Y103598D01*
X135291Y103575D01*
X135476Y103344D01*
X135638Y103089D01*
X135916Y102534D01*
X136101Y101932D01*
X136240Y101377D01*
X136286Y101122D01*
X136309Y100868D01*
X136355Y100660D01*
Y100451D01*
X136379Y100312D01*
Y100173D01*
Y100104D01*
Y100081D01*
X136332Y99340D01*
X136217Y98669D01*
X136078Y98091D01*
X135985Y97813D01*
X135893Y97582D01*
X135800Y97374D01*
X135707Y97165D01*
X135638Y97003D01*
X135569Y96864D01*
X135499Y96749D01*
X135453Y96679D01*
X135407Y96633D01*
Y96610D01*
X135198Y96355D01*
X134990Y96147D01*
X134782Y95962D01*
X134527Y95800D01*
X134296Y95661D01*
X134065Y95546D01*
X133602Y95384D01*
X133185Y95268D01*
X133000Y95245D01*
X132838Y95222D01*
X132722Y95198D01*
X132537D01*
X132190Y95222D01*
X131889Y95268D01*
X131589Y95314D01*
X131334Y95407D01*
X131149Y95476D01*
X130987Y95522D01*
X130871Y95569D01*
X130848Y95592D01*
X130617Y95731D01*
X130409Y95893D01*
X130200Y96101D01*
X129992Y96286D01*
X129830Y96471D01*
X129691Y96610D01*
X129599Y96702D01*
X129575Y96749D01*
Y95407D01*
X126266D01*
Y108087D01*
X129830D01*
Y103691D01*
D02*
G37*
G36*
X153664Y104778D02*
X153965Y104732D01*
X154266Y104663D01*
X154520Y104593D01*
X154729Y104524D01*
X154891Y104454D01*
X154983Y104408D01*
X155029Y104385D01*
X155238Y104246D01*
X155469Y104084D01*
X155677Y103876D01*
X155862Y103691D01*
X156025Y103506D01*
X156163Y103367D01*
X156256Y103274D01*
X156279Y103228D01*
Y104593D01*
X159565D01*
Y91913D01*
X156001D01*
Y96286D01*
X155793Y96101D01*
X155608Y95939D01*
X155400Y95800D01*
X155215Y95684D01*
X155053Y95592D01*
X154937Y95522D01*
X154844Y95499D01*
X154821Y95476D01*
X154567Y95384D01*
X154312Y95314D01*
X154058Y95268D01*
X153826Y95245D01*
X153641Y95222D01*
X153479Y95198D01*
X153340D01*
X153039Y95222D01*
X152739Y95245D01*
X152183Y95384D01*
X151720Y95569D01*
X151327Y95800D01*
X151003Y96031D01*
X150749Y96217D01*
X150679Y96286D01*
X150610Y96355D01*
X150587Y96379D01*
X150563Y96402D01*
X150378Y96633D01*
X150193Y96888D01*
X149916Y97466D01*
X149730Y98045D01*
X149592Y98600D01*
X149545Y98855D01*
X149499Y99109D01*
X149476Y99317D01*
Y99526D01*
X149453Y99688D01*
Y99803D01*
Y99873D01*
Y99896D01*
Y100289D01*
X149499Y100636D01*
X149615Y101330D01*
X149777Y101909D01*
X149869Y102187D01*
X149962Y102418D01*
X150054Y102649D01*
X150147Y102835D01*
X150240Y102997D01*
X150309Y103136D01*
X150378Y103251D01*
X150425Y103321D01*
X150448Y103367D01*
X150471Y103390D01*
X150656Y103645D01*
X150887Y103853D01*
X151096Y104038D01*
X151327Y104200D01*
X151582Y104339D01*
X151813Y104454D01*
X152276Y104616D01*
X152669Y104732D01*
X152854Y104755D01*
X153016Y104778D01*
X153132Y104801D01*
X153317D01*
X153664Y104778D01*
D02*
G37*
G36*
X97527Y104778D02*
X97827Y104732D01*
X98128Y104663D01*
X98383Y104593D01*
X98591Y104524D01*
X98753Y104454D01*
X98845Y104408D01*
X98892Y104385D01*
X99100Y104246D01*
X99331Y104084D01*
X99540Y103876D01*
X99725Y103691D01*
X99887Y103506D01*
X100026Y103367D01*
X100118Y103274D01*
X100141Y103228D01*
Y104593D01*
X103427D01*
Y91913D01*
X99864D01*
Y96286D01*
X99655Y96101D01*
X99470Y95939D01*
X99262Y95800D01*
X99077Y95684D01*
X98915Y95592D01*
X98799Y95522D01*
X98707Y95499D01*
X98684Y95476D01*
X98429Y95384D01*
X98175Y95314D01*
X97920Y95268D01*
X97689Y95245D01*
X97503Y95222D01*
X97341Y95198D01*
X97203D01*
X96902Y95222D01*
X96601Y95245D01*
X96046Y95384D01*
X95583Y95569D01*
X95189Y95800D01*
X94865Y96031D01*
X94611Y96217D01*
X94542Y96286D01*
X94472Y96355D01*
X94449Y96379D01*
X94426Y96402D01*
X94241Y96633D01*
X94055Y96888D01*
X93778Y97466D01*
X93593Y98045D01*
X93454Y98600D01*
X93408Y98855D01*
X93361Y99109D01*
X93338Y99317D01*
Y99526D01*
X93315Y99688D01*
Y99803D01*
Y99873D01*
Y99896D01*
Y100289D01*
X93361Y100636D01*
X93477Y101330D01*
X93639Y101909D01*
X93732Y102187D01*
X93824Y102418D01*
X93917Y102649D01*
X94009Y102835D01*
X94102Y102997D01*
X94171Y103135D01*
X94241Y103251D01*
X94287Y103321D01*
X94310Y103367D01*
X94333Y103390D01*
X94518Y103645D01*
X94750Y103853D01*
X94958Y104038D01*
X95189Y104200D01*
X95444Y104339D01*
X95675Y104454D01*
X96138Y104616D01*
X96531Y104732D01*
X96717Y104755D01*
X96879Y104778D01*
X96994Y104801D01*
X97179D01*
X97527Y104778D01*
D02*
G37*
%LPC*%
G36*
X135000Y200000D02*
X134933Y199933D01*
X134883Y199749D01*
X134833Y199699D01*
X134783Y199515D01*
X134665Y199230D01*
X134615Y199046D01*
X134481Y198745D01*
X134448Y198611D01*
X134347Y198377D01*
X134314Y198243D01*
X134180Y197942D01*
X134147Y197707D01*
X134013Y197507D01*
X133979Y197373D01*
X133912Y197138D01*
X133862Y197088D01*
X133812Y196871D01*
X133678Y196570D01*
X133644Y196436D01*
X133511Y196134D01*
X133444Y195867D01*
X133377Y195800D01*
X133343Y195632D01*
X133209Y195331D01*
X133176Y195130D01*
X133059Y194913D01*
X133009Y194729D01*
X132908Y194494D01*
X132875Y194428D01*
X132841Y194294D01*
X132741Y194059D01*
X132674Y193792D01*
X132574Y193624D01*
X132540Y193490D01*
X132473Y193256D01*
X132423Y193206D01*
X132373Y193022D01*
X132339Y192888D01*
X132256Y192737D01*
X132205Y192553D01*
X132071Y192252D01*
X132005Y191984D01*
X131938Y191917D01*
X131904Y191750D01*
X131770Y191449D01*
X131737Y191315D01*
X131670Y191081D01*
X131620Y191031D01*
X131570Y190846D01*
X131469Y190612D01*
X131436Y190545D01*
X131369Y190277D01*
X131285Y190127D01*
X131252Y189993D01*
X131201Y189809D01*
X131134Y189742D01*
X131101Y189608D01*
X131034Y189374D01*
X130984Y189324D01*
X130934Y189139D01*
X130900Y189006D01*
X130800Y188838D01*
X130733Y188571D01*
X130649Y188420D01*
X130599Y188236D01*
X130499Y188002D01*
X130465Y187901D01*
X130432Y187767D01*
X130298Y187466D01*
X130231Y187198D01*
X130164Y187131D01*
X130130Y186964D01*
X129997Y186663D01*
X129963Y186462D01*
X129846Y186244D01*
X129796Y186060D01*
X129662Y185759D01*
X129628Y185625D01*
X129511Y185341D01*
X129461Y185123D01*
X129361Y184956D01*
X129327Y184789D01*
X129227Y184554D01*
X129193Y184487D01*
Y184454D01*
X129160Y184387D01*
X129093Y184153D01*
X129043Y184102D01*
X128992Y183885D01*
X128859Y183584D01*
X128792Y183316D01*
X128725Y183249D01*
X128691Y183082D01*
X128557Y182781D01*
X128524Y182647D01*
X128390Y182345D01*
X128357Y182145D01*
X128239Y181927D01*
X128189Y181743D01*
X128089Y181509D01*
X128055Y181442D01*
X128022Y181308D01*
X127921Y181074D01*
X127888Y180940D01*
X127821Y180705D01*
X127754Y180639D01*
X127721Y180505D01*
X127654Y180270D01*
X127603Y180220D01*
X127553Y180036D01*
X127520Y179902D01*
X127436Y179752D01*
X127386Y179568D01*
X127252Y179266D01*
X127219Y179132D01*
X127118Y178898D01*
X127085Y178764D01*
X126951Y178463D01*
X126917Y178329D01*
X126850Y178095D01*
X126784Y178028D01*
X126750Y177827D01*
X126717Y177693D01*
X126650Y177626D01*
X126616Y177559D01*
X126549Y177292D01*
X126466Y177141D01*
X126415Y176924D01*
X126298Y176706D01*
X126248Y176421D01*
X126181Y176355D01*
X126131Y176237D01*
X126081Y176020D01*
X125997Y175869D01*
X125947Y175685D01*
X125846Y175451D01*
X125813Y175384D01*
X125779Y175250D01*
X125662Y174966D01*
X125612Y174782D01*
X125478Y174480D01*
X125411Y174213D01*
X125361Y174162D01*
X125311Y173978D01*
X125177Y173677D01*
X125144Y173476D01*
X125026Y173259D01*
X124976Y173075D01*
X124876Y172840D01*
X124842Y172774D01*
X124809Y172640D01*
X124708Y172405D01*
X124642Y172138D01*
X124541Y171970D01*
X124508Y171836D01*
X124441Y171602D01*
X124390Y171552D01*
X124340Y171368D01*
X124223Y171083D01*
X124173Y170899D01*
X124039Y170598D01*
X123972Y170330D01*
X123905Y170263D01*
X123872Y170096D01*
X123738Y169795D01*
X123671Y169527D01*
X123587Y169376D01*
X123537Y169192D01*
X123437Y168958D01*
X123403Y168891D01*
X123370Y168757D01*
X123253Y168473D01*
X123202Y168255D01*
X123085Y168038D01*
X123035Y167753D01*
X122935Y167653D01*
X122901Y167485D01*
X122767Y167184D01*
X122734Y167050D01*
X122617Y166766D01*
X122566Y166582D01*
X122433Y166281D01*
X122399Y166147D01*
X122282Y165862D01*
X122249Y165728D01*
X122198Y165544D01*
X122131Y165477D01*
X122098Y165277D01*
X122031Y165109D01*
X121981Y165059D01*
X121897Y164708D01*
X121847Y164657D01*
X121780Y164490D01*
X121730Y164272D01*
X121663Y164206D01*
X121629Y164038D01*
X121529Y163804D01*
X121579Y163754D01*
X148053Y163720D01*
X148187Y163754D01*
X148237Y163804D01*
X148203Y163938D01*
X148136Y164005D01*
X148103Y164105D01*
X148069Y164239D01*
X148003Y164406D01*
X147952Y164523D01*
X147902Y164741D01*
X147802Y164908D01*
X147768Y165109D01*
X147701Y165277D01*
X147634Y165343D01*
X147601Y165611D01*
X147467Y165812D01*
X147433Y166013D01*
X147300Y166314D01*
X147266Y166448D01*
X147199Y166615D01*
X147149Y166732D01*
X147099Y166950D01*
X146998Y167117D01*
X146965Y167285D01*
X146831Y167586D01*
X146764Y167854D01*
X146664Y168021D01*
X146630Y168222D01*
X146496Y168523D01*
X146429Y168791D01*
X146362Y168858D01*
X146296Y169159D01*
X146195Y169326D01*
X146128Y169594D01*
X146045Y169778D01*
X145994Y169962D01*
X145861Y170263D01*
X145827Y170397D01*
X145727Y170632D01*
X145660Y170899D01*
X145593Y171067D01*
X145543Y171117D01*
X145492Y171401D01*
X145442Y171451D01*
X145359Y171669D01*
X145291Y171903D01*
X145225Y171970D01*
X145191Y172238D01*
X145057Y172439D01*
X145024Y172640D01*
X144890Y172941D01*
X144856Y173075D01*
X144790Y173242D01*
X144739Y173359D01*
X144689Y173577D01*
X144589Y173744D01*
X144555Y173945D01*
X144488Y174112D01*
X144421Y174179D01*
X144388Y174447D01*
X144254Y174648D01*
X144220Y174848D01*
X144087Y175150D01*
X144053Y175284D01*
X143986Y175451D01*
X143936Y175568D01*
X143886Y175786D01*
X143785Y175953D01*
X143752Y176120D01*
X143618Y176421D01*
X143551Y176689D01*
X143467Y176840D01*
X143417Y177057D01*
X143283Y177359D01*
X143217Y177626D01*
X143149Y177693D01*
X143083Y177995D01*
X142982Y178162D01*
X142949Y178329D01*
X142815Y178630D01*
X142781Y178831D01*
X142664Y179049D01*
X142614Y179266D01*
X142480Y179568D01*
X142447Y179701D01*
X142330Y179986D01*
X142279Y180237D01*
X142229Y180287D01*
X142146Y180505D01*
X142079Y180739D01*
X142012Y180806D01*
X141978Y181074D01*
X141844Y181274D01*
X141811Y181475D01*
X141677Y181776D01*
X141644Y181910D01*
X141577Y182078D01*
X141526Y182195D01*
X141476Y182412D01*
X141376Y182580D01*
X141342Y182781D01*
X141275Y182948D01*
X141208Y183015D01*
X141175Y183249D01*
X141108Y183416D01*
X141041Y183483D01*
X141008Y183684D01*
X140874Y183985D01*
X140840Y184119D01*
X140773Y184287D01*
X140723Y184404D01*
X140673Y184621D01*
X140573Y184789D01*
X140539Y184956D01*
X140405Y185257D01*
X140372Y185424D01*
X140305Y185592D01*
X140254Y185709D01*
X140204Y185893D01*
X140070Y186194D01*
X140004Y186462D01*
X139937Y186529D01*
X139836Y186931D01*
X139769Y186997D01*
X139736Y187165D01*
X139602Y187466D01*
X139568Y187667D01*
X139451Y187884D01*
X139401Y188102D01*
X139267Y188403D01*
X139234Y188537D01*
X139117Y188822D01*
X139066Y189039D01*
X138983Y189190D01*
X138933Y189374D01*
X138799Y189675D01*
X138765Y189909D01*
X138631Y190110D01*
X138598Y190311D01*
X138464Y190612D01*
X138431Y190746D01*
X138313Y191031D01*
X138263Y191248D01*
X138180Y191399D01*
X138096Y191750D01*
X137995Y191850D01*
X137962Y192085D01*
X137895Y192252D01*
X137828Y192319D01*
X137795Y192520D01*
X137661Y192821D01*
X137627Y192955D01*
X137560Y193122D01*
X137510Y193239D01*
X137460Y193457D01*
X137359Y193624D01*
X137326Y193792D01*
X137192Y194093D01*
X137159Y194260D01*
X137092Y194428D01*
X137042Y194545D01*
X136991Y194729D01*
X136857Y195030D01*
X136791Y195298D01*
X136724Y195365D01*
X136623Y195766D01*
X136556Y195833D01*
X136523Y196001D01*
X136389Y196302D01*
X136355Y196502D01*
X136238Y196720D01*
X136188Y196938D01*
X136054Y197239D01*
X136021Y197373D01*
X135904Y197657D01*
X135853Y197875D01*
X135770Y198025D01*
X135720Y198209D01*
X135586Y198511D01*
X135552Y198745D01*
X135418Y198946D01*
X135385Y199147D01*
X135251Y199448D01*
X135218Y199582D01*
X135067Y199967D01*
X135000Y200000D01*
D02*
G37*
%LPD*%
G36*
X135084Y190043D02*
X135117Y189909D01*
X135084Y189809D01*
X135100Y189658D01*
X135218Y189575D01*
X135268Y189324D01*
X135335Y189290D01*
X135418Y189206D01*
X135402Y188955D01*
X135418Y188838D01*
X135469Y188822D01*
X135552Y188738D01*
X135586Y188604D01*
X135552Y188504D01*
X135602Y188353D01*
X135669Y188320D01*
X135753Y188169D01*
X135720Y188068D01*
X135736Y187884D01*
X135803Y187851D01*
X135853Y187801D01*
X135904Y187550D01*
X135971Y187516D01*
X136021Y187466D01*
X136054Y187098D01*
X136105Y187048D01*
X136171Y187014D01*
X136222Y186964D01*
X136205Y186713D01*
X136238Y186579D01*
X136305Y186546D01*
X136389Y186462D01*
X136355Y186161D01*
X136439Y186077D01*
X136506Y186044D01*
X136523Y185826D01*
X136673Y185709D01*
X136707Y185307D01*
X136774Y185274D01*
X136824Y185224D01*
X136857Y184856D01*
X136908Y184805D01*
X136975Y184772D01*
X137025Y184688D01*
X137008Y184471D01*
X137042Y184337D01*
X137109Y184303D01*
X137159Y184253D01*
X137209Y184002D01*
X137276Y183969D01*
X137343Y183868D01*
X137326Y183584D01*
X137410Y183500D01*
X137477Y183467D01*
X137493Y183082D01*
X137644Y182965D01*
X137678Y182563D01*
X137744Y182529D01*
X137795Y182479D01*
X137828Y182245D01*
X137962Y182178D01*
X137995Y182044D01*
X137962Y181910D01*
X138012Y181760D01*
X138079Y181726D01*
X138163Y181609D01*
X138129Y181408D01*
X138163Y181274D01*
X138213Y181258D01*
X138263Y181208D01*
X138297Y180839D01*
X138431Y180739D01*
X138481Y180488D01*
X138548Y180455D01*
X138631Y180371D01*
X138615Y180120D01*
X138631Y180003D01*
X138681Y179986D01*
X138765Y179902D01*
X138799Y179768D01*
X138765Y179668D01*
X138815Y179517D01*
X138882Y179484D01*
X138966Y179333D01*
X138933Y179233D01*
X138949Y179049D01*
X139016Y179015D01*
X139066Y178965D01*
X139117Y178714D01*
X139183Y178681D01*
X139234Y178630D01*
X139267Y178262D01*
X139317Y178212D01*
X139384Y178179D01*
X139435Y178128D01*
X139418Y177877D01*
X139451Y177743D01*
X139518Y177710D01*
X139602Y177626D01*
X139568Y177325D01*
X139652Y177242D01*
X139719Y177208D01*
X139736Y176990D01*
X139886Y176873D01*
X139920Y176472D01*
X139987Y176438D01*
X140037Y176388D01*
X140070Y176020D01*
X140121Y175970D01*
X140188Y175936D01*
X140238Y175853D01*
X140221Y175635D01*
X140254Y175501D01*
X140322Y175468D01*
X140372Y175417D01*
X140422Y175166D01*
X140489Y175133D01*
X140556Y175033D01*
X140539Y174748D01*
X140623Y174664D01*
X140690Y174631D01*
X140706Y174246D01*
X140857Y174129D01*
X140890Y173727D01*
X140957Y173694D01*
X141008Y173644D01*
X141041Y173409D01*
X141175Y173342D01*
X141208Y173209D01*
X141175Y173075D01*
X141225Y172924D01*
X141292Y172891D01*
X141376Y172774D01*
X141342Y172573D01*
X141376Y172439D01*
X141426Y172422D01*
X141493Y172355D01*
X141526Y171987D01*
X141644Y171903D01*
X141694Y171652D01*
X141761Y171619D01*
X141844Y171535D01*
X141827Y171284D01*
X141844Y171167D01*
X141894Y171150D01*
X141978Y171067D01*
X142012Y170933D01*
X141978Y170832D01*
X142028Y170682D01*
X142095Y170648D01*
X142179Y170498D01*
X142146Y170397D01*
X142162Y170213D01*
X142229Y170180D01*
X142279Y170130D01*
X142330Y169878D01*
X142396Y169845D01*
X142447Y169795D01*
X142480Y169427D01*
X142530Y169376D01*
X142597Y169343D01*
X142648Y169293D01*
X142631Y169042D01*
X142664Y168908D01*
X142731Y168874D01*
X142815Y168791D01*
X142781Y168490D01*
X142865Y168406D01*
X142932Y168372D01*
X142949Y168155D01*
X143099Y168038D01*
X143133Y167636D01*
X143200Y167603D01*
X143267Y167536D01*
X143300Y167167D01*
X143367Y167134D01*
X143451Y167050D01*
X143434Y166967D01*
X129210Y166933D01*
X128875Y166967D01*
X128725Y167017D01*
X128691Y167084D01*
X128624Y167251D01*
X128524Y167419D01*
X128457Y167686D01*
X128390Y167854D01*
X128290Y167954D01*
X128256Y168155D01*
X128156Y168389D01*
X128139Y168406D01*
X128055Y168490D01*
X127988Y168791D01*
X127955Y169025D01*
X127788Y169192D01*
X127754Y169393D01*
X127687Y169561D01*
X127654Y169627D01*
X127587Y169694D01*
X127553Y170062D01*
X127520Y170163D01*
X127570Y170280D01*
X127637Y170314D01*
X127721Y170464D01*
X127687Y170565D01*
X127704Y170749D01*
X127771Y170782D01*
X127821Y170832D01*
X127871Y171083D01*
X127938Y171117D01*
X127988Y171167D01*
X128022Y171535D01*
X128072Y171585D01*
X128139Y171619D01*
X128189Y171669D01*
X128173Y171920D01*
X128206Y172054D01*
X128273Y172087D01*
X128357Y172171D01*
X128323Y172472D01*
X128407Y172556D01*
X128474Y172589D01*
X128490Y172807D01*
X128641Y172924D01*
X128674Y173326D01*
X128741Y173359D01*
X128808Y173426D01*
X128842Y173794D01*
X128959Y173878D01*
X129009Y174129D01*
X129126Y174213D01*
X129160Y174346D01*
X129126Y174480D01*
X129176Y174631D01*
X129244Y174664D01*
X129310Y174765D01*
X129294Y175049D01*
X129377Y175133D01*
X129444Y175166D01*
X129461Y175384D01*
X129612Y175501D01*
X129645Y175903D01*
X129712Y175936D01*
X129762Y175986D01*
X129796Y176154D01*
X129762Y176254D01*
X129796Y176355D01*
X129846Y176405D01*
X129913Y176438D01*
X129946Y176505D01*
X129980Y176706D01*
X130047Y176740D01*
X130130Y176890D01*
X130097Y176990D01*
X130114Y177175D01*
X130181Y177208D01*
X130231Y177258D01*
X130264Y177626D01*
X130415Y177743D01*
X130448Y178145D01*
X130515Y178179D01*
X130566Y178229D01*
X130616Y178480D01*
X130683Y178513D01*
X130766Y178597D01*
X130733Y178898D01*
X130816Y178982D01*
X130883Y179015D01*
X130934Y179132D01*
X130900Y179233D01*
X130917Y179417D01*
X131034Y179501D01*
X131084Y179752D01*
X131151Y179785D01*
X131201Y179835D01*
X131235Y180203D01*
X131285Y180254D01*
X131352Y180287D01*
X131402Y180371D01*
X131385Y180588D01*
X131419Y180722D01*
X131486Y180756D01*
X131536Y180806D01*
X131586Y181057D01*
X131653Y181090D01*
X131720Y181191D01*
X131703Y181475D01*
X131787Y181559D01*
X131854Y181592D01*
X131871Y181977D01*
X132021Y182094D01*
X132055Y182496D01*
X132122Y182529D01*
X132172Y182580D01*
X132205Y182814D01*
X132339Y182881D01*
X132373Y183015D01*
X132339Y183149D01*
X132389Y183299D01*
X132456Y183333D01*
X132523Y183433D01*
X132507Y183651D01*
X132540Y183785D01*
X132657Y183835D01*
X132674Y184052D01*
X132825Y184169D01*
X132858Y184571D01*
X132925Y184605D01*
X133009Y184688D01*
X132992Y184906D01*
X133009Y185056D01*
X133059Y185073D01*
X133142Y185157D01*
X133176Y185391D01*
X133293Y185441D01*
X133327Y185508D01*
X133310Y185826D01*
X133460Y185943D01*
X133494Y186345D01*
X133561Y186378D01*
X133611Y186429D01*
X133644Y186629D01*
X133695Y186680D01*
X133762Y186713D01*
X133812Y186797D01*
X133795Y187014D01*
X133829Y187148D01*
X133896Y187182D01*
X133946Y187232D01*
X133979Y187366D01*
X133946Y187500D01*
X133979Y187633D01*
X134029Y187650D01*
X134147Y187801D01*
X134113Y187901D01*
X134130Y188085D01*
X134247Y188169D01*
X134297Y188420D01*
X134414Y188504D01*
X134448Y188905D01*
X134498Y188922D01*
X134615Y189039D01*
X134598Y189257D01*
X134615Y189374D01*
X134749Y189474D01*
X134783Y189708D01*
X134883Y189775D01*
X134916Y190043D01*
X135034Y190093D01*
X135084Y190043D01*
D02*
G37*
%LPC*%
G36*
X157200Y34205D02*
X157191D01*
Y33973D01*
Y33881D01*
X157210Y33797D01*
X157219Y33724D01*
X157237Y33668D01*
X157256Y33612D01*
X157265Y33575D01*
X157284Y33557D01*
Y33548D01*
X157321Y33492D01*
X157367Y33437D01*
X157459Y33353D01*
X157506Y33326D01*
X157533Y33298D01*
X157561Y33289D01*
X157570Y33279D01*
X157644Y33242D01*
X157728Y33215D01*
X157802Y33196D01*
X157866Y33187D01*
X157922Y33178D01*
X157968Y33169D01*
X158005D01*
X158079Y33178D01*
X158153Y33187D01*
X158209Y33206D01*
X158255Y33224D01*
X158301Y33242D01*
X158329Y33252D01*
X158338Y33270D01*
X158347D01*
X158384Y33307D01*
X158412Y33353D01*
X158440Y33446D01*
X158449Y33483D01*
X158458Y33511D01*
Y33529D01*
Y33538D01*
X158449Y33594D01*
X158440Y33640D01*
X158403Y33724D01*
X158366Y33779D01*
X158347Y33788D01*
Y33797D01*
X158292Y33844D01*
X158209Y33881D01*
X158125Y33918D01*
X158033Y33955D01*
X157940Y33983D01*
X157866Y34001D01*
X157820Y34010D01*
X157802Y34020D01*
X157570Y34084D01*
X157469Y34112D01*
X157376Y34140D01*
X157302Y34168D01*
X157237Y34186D01*
X157200Y34205D01*
D02*
G37*
G36*
X162528Y35388D02*
X162473D01*
X162371Y35379D01*
X162269Y35361D01*
X162195Y35333D01*
X162121Y35296D01*
X162075Y35259D01*
X162029Y35231D01*
X162010Y35213D01*
X162001Y35203D01*
X161936Y35129D01*
X161890Y35037D01*
X161853Y34944D01*
X161825Y34852D01*
X161807Y34769D01*
X161788Y34695D01*
X161779Y34648D01*
Y34639D01*
Y34630D01*
X163167D01*
X163148Y34741D01*
X163130Y34843D01*
X163102Y34926D01*
X163074Y35000D01*
X163046Y35046D01*
X163028Y35092D01*
X163019Y35111D01*
X163009Y35120D01*
X162926Y35213D01*
X162843Y35278D01*
X162750Y35324D01*
X162667Y35351D01*
X162593Y35379D01*
X162528Y35388D01*
D02*
G37*
G36*
X143233Y36101D02*
Y34501D01*
X144602D01*
X143233Y36101D01*
D02*
G37*
G36*
X126934Y36388D02*
X126546D01*
X126333Y36378D01*
X126148Y36341D01*
X126000Y36295D01*
X125880Y36239D01*
X125787Y36175D01*
X125723Y36129D01*
X125676Y36092D01*
X125667Y36082D01*
X125621Y36018D01*
X125575Y35953D01*
X125510Y35786D01*
X125464Y35601D01*
X125436Y35425D01*
X125408Y35250D01*
Y35176D01*
X125399Y35111D01*
Y35056D01*
Y35019D01*
Y34991D01*
Y34982D01*
X125408Y34769D01*
X125417Y34593D01*
X125436Y34436D01*
X125454Y34315D01*
X125482Y34223D01*
X125501Y34158D01*
X125510Y34112D01*
X125519Y34103D01*
X125565Y34010D01*
X125621Y33927D01*
X125676Y33862D01*
X125732Y33816D01*
X125778Y33770D01*
X125815Y33742D01*
X125843Y33733D01*
X125852Y33724D01*
X125945Y33687D01*
X126046Y33668D01*
X126167Y33650D01*
X126278Y33631D01*
X126389D01*
X126472Y33622D01*
X126934D01*
Y36388D01*
D02*
G37*
G36*
X121440Y36508D02*
X120996D01*
X120848Y36498D01*
X120718Y36480D01*
X120617Y36452D01*
X120533Y36424D01*
X120478Y36397D01*
X120432Y36369D01*
X120413Y36351D01*
X120404Y36341D01*
X120348Y36277D01*
X120311Y36212D01*
X120274Y36138D01*
X120256Y36073D01*
X120247Y36018D01*
X120237Y35971D01*
Y35943D01*
Y35934D01*
X120247Y35842D01*
X120265Y35768D01*
X120293Y35694D01*
X120330Y35638D01*
X120367Y35592D01*
X120395Y35555D01*
X120413Y35537D01*
X120422Y35527D01*
X120506Y35481D01*
X120598Y35444D01*
X120709Y35416D01*
X120811Y35398D01*
X120903Y35388D01*
X120987Y35379D01*
X121440D01*
Y36508D01*
D02*
G37*
G36*
X165220Y49861D02*
X165206D01*
Y49514D01*
Y49375D01*
X165234Y49251D01*
X165248Y49139D01*
X165276Y49056D01*
X165303Y48973D01*
X165317Y48917D01*
X165345Y48890D01*
Y48876D01*
X165400Y48792D01*
X165470Y48709D01*
X165609Y48584D01*
X165678Y48543D01*
X165720Y48501D01*
X165761Y48487D01*
X165775Y48473D01*
X165886Y48418D01*
X166011Y48376D01*
X166122Y48348D01*
X166219Y48334D01*
X166303Y48320D01*
X166372Y48307D01*
X166428D01*
X166539Y48320D01*
X166650Y48334D01*
X166733Y48362D01*
X166802Y48390D01*
X166872Y48418D01*
X166913Y48432D01*
X166927Y48459D01*
X166941D01*
X166997Y48515D01*
X167038Y48584D01*
X167080Y48723D01*
X167094Y48779D01*
X167108Y48820D01*
Y48848D01*
Y48862D01*
X167094Y48945D01*
X167080Y49014D01*
X167024Y49139D01*
X166969Y49223D01*
X166941Y49237D01*
Y49251D01*
X166858Y49320D01*
X166733Y49375D01*
X166608Y49431D01*
X166469Y49486D01*
X166330Y49528D01*
X166219Y49556D01*
X166150Y49570D01*
X166122Y49584D01*
X165775Y49681D01*
X165622Y49722D01*
X165484Y49764D01*
X165373Y49806D01*
X165276Y49833D01*
X165220Y49861D01*
D02*
G37*
G36*
X135614Y53845D02*
X135558D01*
X135433Y53831D01*
X135336Y53817D01*
X135253Y53789D01*
X135170Y53762D01*
X135114Y53720D01*
X135073Y53692D01*
X135059Y53678D01*
X135045Y53664D01*
X134975Y53595D01*
X134934Y53526D01*
X134878Y53401D01*
X134864Y53345D01*
X134851Y53303D01*
Y53276D01*
Y53262D01*
X134864Y53179D01*
X134892Y53081D01*
X134962Y52929D01*
X135017Y52859D01*
X135045Y52804D01*
X135073Y52776D01*
X135087Y52762D01*
X135170Y52665D01*
X135281Y52582D01*
X135475Y52415D01*
X135572Y52360D01*
X135642Y52318D01*
X135697Y52290D01*
X135711Y52276D01*
X135905Y52498D01*
X136044Y52679D01*
X136141Y52845D01*
X136211Y52970D01*
X136252Y53067D01*
X136266Y53151D01*
X136280Y53192D01*
Y53206D01*
X136266Y53303D01*
X136252Y53387D01*
X136183Y53526D01*
X136141Y53581D01*
X136114Y53623D01*
X136100Y53636D01*
X136086Y53650D01*
X136003Y53720D01*
X135919Y53762D01*
X135739Y53817D01*
X135669Y53831D01*
X135614Y53845D01*
D02*
G37*
G36*
X136475Y50430D02*
X136100Y50083D01*
X135753Y49778D01*
X135461Y49514D01*
X135211Y49306D01*
X135003Y49139D01*
X134934Y49070D01*
X134864Y49014D01*
X134809Y48973D01*
X134767Y48945D01*
X134753Y48917D01*
X134739D01*
X135003Y48779D01*
X135239Y48667D01*
X135447Y48598D01*
X135642Y48543D01*
X135794Y48515D01*
X135919Y48501D01*
X135989Y48487D01*
X136016D01*
X136211Y48501D01*
X136377Y48529D01*
X136516Y48584D01*
X136641Y48640D01*
X136738Y48681D01*
X136821Y48737D01*
X136863Y48765D01*
X136877Y48779D01*
X136988Y48890D01*
X137057Y49001D01*
X137113Y49112D01*
X137155Y49223D01*
X137182Y49306D01*
X137196Y49375D01*
Y49431D01*
Y49445D01*
X137169Y49625D01*
X137127Y49764D01*
X137099Y49819D01*
X137085Y49861D01*
X137057Y49889D01*
Y49903D01*
X136988Y49986D01*
X136905Y50083D01*
X136710Y50250D01*
X136627Y50319D01*
X136544Y50375D01*
X136488Y50416D01*
X136475Y50430D01*
D02*
G37*
G36*
X115321Y51638D02*
X115238D01*
X115085Y51624D01*
X114933Y51596D01*
X114822Y51555D01*
X114711Y51499D01*
X114641Y51443D01*
X114572Y51402D01*
X114544Y51374D01*
X114530Y51360D01*
X114433Y51249D01*
X114364Y51110D01*
X114308Y50972D01*
X114267Y50833D01*
X114239Y50708D01*
X114211Y50597D01*
X114197Y50527D01*
Y50513D01*
Y50500D01*
X116279D01*
X116251Y50666D01*
X116224Y50819D01*
X116182Y50944D01*
X116140Y51055D01*
X116099Y51124D01*
X116071Y51194D01*
X116057Y51221D01*
X116043Y51235D01*
X115918Y51374D01*
X115793Y51471D01*
X115655Y51541D01*
X115530Y51582D01*
X115419Y51624D01*
X115321Y51638D01*
D02*
G37*
G36*
X123913Y53317D02*
X122886D01*
X122664Y53303D01*
X122470Y53290D01*
X122317Y53248D01*
X122192Y53220D01*
X122109Y53179D01*
X122039Y53137D01*
X122011Y53123D01*
X121998Y53109D01*
X121914Y53026D01*
X121859Y52943D01*
X121817Y52845D01*
X121789Y52762D01*
X121776Y52679D01*
X121762Y52609D01*
Y52568D01*
Y52554D01*
Y52457D01*
X121789Y52373D01*
X121831Y52235D01*
X121859Y52179D01*
X121887Y52151D01*
X121900Y52124D01*
X121914Y52110D01*
X121970Y52040D01*
X122039Y51985D01*
X122164Y51915D01*
X122220Y51902D01*
X122261Y51888D01*
X122289Y51874D01*
X122303D01*
X122456Y51846D01*
X122594Y51818D01*
X122705Y51804D01*
X122789Y51790D01*
X122844Y51777D01*
X123913D01*
Y53317D01*
D02*
G37*
G36*
X154310Y51430D02*
X154241D01*
X154088Y51416D01*
X153936Y51374D01*
X153811Y51319D01*
X153700Y51249D01*
X153616Y51180D01*
X153561Y51124D01*
X153519Y51083D01*
X153505Y51069D01*
X153408Y50930D01*
X153325Y50763D01*
X153269Y50583D01*
X153242Y50416D01*
X153214Y50250D01*
X153200Y50125D01*
Y50042D01*
Y50028D01*
Y50014D01*
X153214Y49736D01*
X153242Y49514D01*
X153297Y49320D01*
X153353Y49167D01*
X153408Y49042D01*
X153464Y48959D01*
X153491Y48904D01*
X153505Y48890D01*
X153616Y48779D01*
X153741Y48695D01*
X153866Y48640D01*
X153991Y48598D01*
X154088Y48570D01*
X154172Y48557D01*
X154255D01*
X154407Y48570D01*
X154560Y48612D01*
X154685Y48667D01*
X154796Y48737D01*
X154879Y48792D01*
X154949Y48848D01*
X154990Y48890D01*
X155004Y48904D01*
X155101Y49056D01*
X155171Y49223D01*
X155226Y49403D01*
X155254Y49570D01*
X155282Y49736D01*
X155296Y49861D01*
Y49917D01*
Y49958D01*
Y49972D01*
Y49986D01*
X155282Y50236D01*
X155254Y50458D01*
X155199Y50652D01*
X155143Y50805D01*
X155101Y50916D01*
X155046Y50999D01*
X155018Y51055D01*
X155004Y51069D01*
X154879Y51194D01*
X154754Y51277D01*
X154630Y51346D01*
X154505Y51388D01*
X154407Y51416D01*
X154310Y51430D01*
D02*
G37*
G36*
X79289Y51430D02*
X79220D01*
X79067Y51416D01*
X78914Y51374D01*
X78789Y51319D01*
X78678Y51249D01*
X78595Y51180D01*
X78539Y51124D01*
X78498Y51083D01*
X78484Y51069D01*
X78387Y50930D01*
X78303Y50763D01*
X78248Y50583D01*
X78220Y50416D01*
X78192Y50250D01*
X78179Y50125D01*
Y50042D01*
Y50028D01*
Y50014D01*
X78192Y49736D01*
X78220Y49514D01*
X78276Y49320D01*
X78331Y49167D01*
X78387Y49042D01*
X78442Y48959D01*
X78470Y48904D01*
X78484Y48890D01*
X78595Y48779D01*
X78720Y48695D01*
X78845Y48640D01*
X78970Y48598D01*
X79067Y48570D01*
X79150Y48557D01*
X79233D01*
X79386Y48570D01*
X79539Y48612D01*
X79664Y48667D01*
X79775Y48737D01*
X79858Y48792D01*
X79927Y48848D01*
X79969Y48890D01*
X79983Y48904D01*
X80080Y49056D01*
X80149Y49223D01*
X80205Y49403D01*
X80233Y49570D01*
X80260Y49736D01*
X80274Y49861D01*
Y49917D01*
Y49958D01*
Y49972D01*
Y49986D01*
X80260Y50236D01*
X80233Y50458D01*
X80177Y50652D01*
X80122Y50805D01*
X80080Y50916D01*
X80024Y50999D01*
X79997Y51055D01*
X79983Y51069D01*
X79858Y51194D01*
X79733Y51277D01*
X79608Y51346D01*
X79483Y51388D01*
X79386Y51416D01*
X79289Y51430D01*
D02*
G37*
G36*
X72196D02*
X72127D01*
X71974Y51416D01*
X71821Y51374D01*
X71697Y51319D01*
X71586Y51249D01*
X71502Y51180D01*
X71447Y51124D01*
X71405Y51083D01*
X71391Y51069D01*
X71294Y50930D01*
X71211Y50763D01*
X71155Y50583D01*
X71127Y50416D01*
X71100Y50250D01*
X71086Y50125D01*
Y50042D01*
Y50028D01*
Y50014D01*
X71100Y49736D01*
X71127Y49514D01*
X71183Y49320D01*
X71238Y49167D01*
X71294Y49042D01*
X71350Y48959D01*
X71377Y48904D01*
X71391Y48890D01*
X71502Y48779D01*
X71627Y48695D01*
X71752Y48640D01*
X71877Y48598D01*
X71974Y48570D01*
X72057Y48557D01*
X72141D01*
X72293Y48570D01*
X72446Y48612D01*
X72571Y48667D01*
X72682Y48737D01*
X72765Y48792D01*
X72835Y48848D01*
X72876Y48890D01*
X72890Y48904D01*
X72987Y49056D01*
X73057Y49223D01*
X73112Y49403D01*
X73140Y49570D01*
X73168Y49736D01*
X73182Y49861D01*
Y49917D01*
Y49958D01*
Y49972D01*
Y49986D01*
X73168Y50236D01*
X73140Y50458D01*
X73084Y50652D01*
X73029Y50805D01*
X72987Y50916D01*
X72932Y50999D01*
X72904Y51055D01*
X72890Y51069D01*
X72765Y51194D01*
X72640Y51277D01*
X72515Y51346D01*
X72391Y51388D01*
X72293Y51416D01*
X72196Y51430D01*
D02*
G37*
G36*
X177594Y58806D02*
X177580D01*
Y58459D01*
Y58320D01*
X177608Y58196D01*
X177622Y58085D01*
X177649Y58001D01*
X177677Y57918D01*
X177691Y57863D01*
X177719Y57835D01*
Y57821D01*
X177774Y57738D01*
X177844Y57654D01*
X177983Y57529D01*
X178052Y57488D01*
X178094Y57446D01*
X178135Y57432D01*
X178149Y57418D01*
X178260Y57363D01*
X178385Y57321D01*
X178496Y57293D01*
X178593Y57279D01*
X178677Y57266D01*
X178746Y57252D01*
X178802D01*
X178913Y57266D01*
X179024Y57279D01*
X179107Y57307D01*
X179176Y57335D01*
X179246Y57363D01*
X179287Y57377D01*
X179301Y57404D01*
X179315D01*
X179371Y57460D01*
X179412Y57529D01*
X179454Y57668D01*
X179468Y57724D01*
X179482Y57765D01*
Y57793D01*
Y57807D01*
X179468Y57890D01*
X179454Y57960D01*
X179398Y58085D01*
X179343Y58168D01*
X179315Y58182D01*
Y58196D01*
X179232Y58265D01*
X179107Y58320D01*
X178982Y58376D01*
X178843Y58432D01*
X178704Y58473D01*
X178593Y58501D01*
X178524Y58515D01*
X178496Y58529D01*
X178149Y58626D01*
X177997Y58667D01*
X177858Y58709D01*
X177747Y58751D01*
X177649Y58779D01*
X177594Y58806D01*
D02*
G37*
G36*
X140965Y58806D02*
X140951D01*
Y58459D01*
Y58320D01*
X140979Y58196D01*
X140992Y58085D01*
X141020Y58001D01*
X141048Y57918D01*
X141062Y57863D01*
X141090Y57835D01*
Y57821D01*
X141145Y57737D01*
X141215Y57654D01*
X141353Y57529D01*
X141423Y57488D01*
X141464Y57446D01*
X141506Y57432D01*
X141520Y57418D01*
X141631Y57363D01*
X141756Y57321D01*
X141867Y57293D01*
X141964Y57279D01*
X142047Y57266D01*
X142117Y57252D01*
X142172D01*
X142283Y57266D01*
X142394Y57279D01*
X142478Y57307D01*
X142547Y57335D01*
X142616Y57363D01*
X142658Y57377D01*
X142672Y57404D01*
X142686D01*
X142741Y57460D01*
X142783Y57529D01*
X142825Y57668D01*
X142839Y57724D01*
X142852Y57765D01*
Y57793D01*
Y57807D01*
X142839Y57890D01*
X142825Y57960D01*
X142769Y58085D01*
X142713Y58168D01*
X142686Y58182D01*
Y58196D01*
X142603Y58265D01*
X142478Y58320D01*
X142353Y58376D01*
X142214Y58432D01*
X142075Y58473D01*
X141964Y58501D01*
X141895Y58515D01*
X141867Y58529D01*
X141520Y58626D01*
X141367Y58667D01*
X141228Y58709D01*
X141117Y58751D01*
X141020Y58779D01*
X140965Y58806D01*
D02*
G37*
G36*
X111150Y60583D02*
X111067D01*
X110915Y60569D01*
X110762Y60541D01*
X110651Y60500D01*
X110540Y60444D01*
X110470Y60389D01*
X110401Y60347D01*
X110373Y60319D01*
X110359Y60305D01*
X110262Y60194D01*
X110193Y60056D01*
X110137Y59917D01*
X110096Y59778D01*
X110068Y59653D01*
X110040Y59542D01*
X110026Y59473D01*
Y59459D01*
Y59445D01*
X112108D01*
X112080Y59611D01*
X112053Y59764D01*
X112011Y59889D01*
X111969Y60000D01*
X111928Y60069D01*
X111900Y60139D01*
X111886Y60167D01*
X111872Y60180D01*
X111747Y60319D01*
X111622Y60416D01*
X111484Y60486D01*
X111359Y60527D01*
X111248Y60569D01*
X111150Y60583D01*
D02*
G37*
G36*
X157565Y62262D02*
X156524D01*
X156344Y62249D01*
X156177Y62235D01*
X156052Y62207D01*
X155955Y62165D01*
X155872Y62124D01*
X155816Y62096D01*
X155789Y62082D01*
X155775Y62068D01*
X155705Y61999D01*
X155650Y61915D01*
X155608Y61832D01*
X155580Y61749D01*
X155566Y61666D01*
X155552Y61610D01*
Y61568D01*
Y61554D01*
X155566Y61430D01*
X155580Y61319D01*
X155622Y61221D01*
X155664Y61138D01*
X155705Y61083D01*
X155733Y61041D01*
X155761Y61013D01*
X155775Y60999D01*
X155872Y60944D01*
X155983Y60902D01*
X156233Y60847D01*
X156358Y60833D01*
X156455Y60819D01*
X157565D01*
Y62262D01*
D02*
G37*
G36*
Y59375D02*
X156385D01*
X156163Y59361D01*
X155983Y59348D01*
X155830Y59306D01*
X155719Y59278D01*
X155622Y59237D01*
X155552Y59195D01*
X155525Y59181D01*
X155511Y59167D01*
X155428Y59084D01*
X155372Y59001D01*
X155317Y58903D01*
X155289Y58820D01*
X155275Y58737D01*
X155261Y58681D01*
Y58640D01*
Y58626D01*
X155275Y58501D01*
X155303Y58390D01*
X155344Y58279D01*
X155386Y58196D01*
X155428Y58126D01*
X155469Y58085D01*
X155497Y58057D01*
X155511Y58043D01*
X155622Y57973D01*
X155747Y57918D01*
X155886Y57890D01*
X156038Y57863D01*
X156163Y57849D01*
X156274Y57835D01*
X157565D01*
Y59375D01*
D02*
G37*
G36*
X119742Y62262D02*
X118715D01*
X118493Y62249D01*
X118299Y62235D01*
X118146Y62193D01*
X118021Y62165D01*
X117938Y62124D01*
X117868Y62082D01*
X117841Y62068D01*
X117827Y62054D01*
X117743Y61971D01*
X117688Y61888D01*
X117646Y61791D01*
X117619Y61707D01*
X117605Y61624D01*
X117591Y61554D01*
Y61513D01*
Y61499D01*
Y61402D01*
X117619Y61319D01*
X117660Y61180D01*
X117688Y61124D01*
X117716Y61097D01*
X117729Y61069D01*
X117743Y61055D01*
X117799Y60985D01*
X117868Y60930D01*
X117993Y60861D01*
X118049Y60847D01*
X118090Y60833D01*
X118118Y60819D01*
X118132D01*
X118285Y60791D01*
X118423Y60763D01*
X118535Y60750D01*
X118618Y60736D01*
X118673Y60722D01*
X119742D01*
Y62262D01*
D02*
G37*
G36*
X148960Y60375D02*
X148890D01*
X148738Y60361D01*
X148585Y60319D01*
X148460Y60264D01*
X148349Y60194D01*
X148266Y60125D01*
X148210Y60069D01*
X148168Y60028D01*
X148154Y60014D01*
X148057Y59875D01*
X147974Y59708D01*
X147918Y59528D01*
X147891Y59361D01*
X147863Y59195D01*
X147849Y59070D01*
Y58987D01*
Y58973D01*
Y58959D01*
X147863Y58681D01*
X147891Y58459D01*
X147946Y58265D01*
X148002Y58112D01*
X148057Y57987D01*
X148113Y57904D01*
X148141Y57849D01*
X148154Y57835D01*
X148266Y57724D01*
X148390Y57640D01*
X148515Y57585D01*
X148640Y57543D01*
X148738Y57516D01*
X148821Y57502D01*
X148904D01*
X149057Y57516D01*
X149209Y57557D01*
X149334Y57613D01*
X149445Y57682D01*
X149529Y57737D01*
X149598Y57793D01*
X149640Y57835D01*
X149653Y57849D01*
X149751Y58001D01*
X149820Y58168D01*
X149876Y58348D01*
X149903Y58515D01*
X149931Y58681D01*
X149945Y58806D01*
Y58862D01*
Y58903D01*
Y58917D01*
Y58931D01*
X149931Y59181D01*
X149903Y59403D01*
X149848Y59597D01*
X149792Y59750D01*
X149751Y59861D01*
X149695Y59944D01*
X149667Y60000D01*
X149653Y60014D01*
X149529Y60139D01*
X149404Y60222D01*
X149279Y60291D01*
X149154Y60333D01*
X149057Y60361D01*
X148960Y60375D01*
D02*
G37*
G36*
X130249Y60250D02*
X130194D01*
X130041Y60236D01*
X129902Y60194D01*
X129791Y60153D01*
X129694Y60097D01*
X129611Y60028D01*
X129555Y59986D01*
X129514Y59944D01*
X129500Y59931D01*
X129403Y59792D01*
X129333Y59639D01*
X129292Y59486D01*
X129250Y59320D01*
X129236Y59181D01*
X129222Y59070D01*
Y58987D01*
Y58973D01*
Y58959D01*
X129236Y58709D01*
X129264Y58487D01*
X129306Y58307D01*
X129361Y58168D01*
X129417Y58057D01*
X129458Y57973D01*
X129486Y57932D01*
X129500Y57918D01*
X129597Y57821D01*
X129708Y57737D01*
X129833Y57682D01*
X129930Y57654D01*
X130027Y57626D01*
X130097Y57613D01*
X130166D01*
X130305Y57626D01*
X130430Y57654D01*
X130541Y57710D01*
X130624Y57765D01*
X130707Y57821D01*
X130763Y57876D01*
X130791Y57904D01*
X130805Y57918D01*
X130888Y58057D01*
X130943Y58210D01*
X130999Y58376D01*
X131027Y58529D01*
X131041Y58681D01*
X131054Y58792D01*
Y58876D01*
Y58890D01*
Y58903D01*
X131041Y59153D01*
X131013Y59375D01*
X130985Y59542D01*
X130929Y59695D01*
X130888Y59792D01*
X130860Y59875D01*
X130832Y59917D01*
X130818Y59931D01*
X130721Y60042D01*
X130610Y60111D01*
X130513Y60167D01*
X130416Y60208D01*
X130319Y60236D01*
X130249Y60250D01*
D02*
G37*
G36*
X143020Y102719D02*
X142881D01*
X142626Y102696D01*
X142372Y102649D01*
X142187Y102580D01*
X142002Y102488D01*
X141886Y102395D01*
X141770Y102326D01*
X141724Y102279D01*
X141701Y102256D01*
X141539Y102071D01*
X141423Y101840D01*
X141331Y101608D01*
X141261Y101377D01*
X141215Y101169D01*
X141169Y100983D01*
X141145Y100868D01*
Y100845D01*
Y100821D01*
X144616D01*
X144570Y101099D01*
X144524Y101354D01*
X144454Y101562D01*
X144385Y101747D01*
X144316Y101863D01*
X144269Y101979D01*
X144246Y102025D01*
X144223Y102048D01*
X144015Y102279D01*
X143807Y102441D01*
X143575Y102557D01*
X143367Y102626D01*
X143182Y102696D01*
X143020Y102719D01*
D02*
G37*
G36*
X185297Y104778D02*
X183908Y100243D01*
X186685D01*
X185297Y104778D01*
D02*
G37*
G36*
X131519Y102164D02*
X131427D01*
X131172Y102140D01*
X130941Y102071D01*
X130756Y102002D01*
X130594Y101909D01*
X130455Y101793D01*
X130362Y101724D01*
X130293Y101655D01*
X130270Y101631D01*
X130108Y101400D01*
X129992Y101145D01*
X129922Y100891D01*
X129853Y100613D01*
X129830Y100382D01*
X129807Y100197D01*
Y100058D01*
Y100035D01*
Y100012D01*
X129830Y99595D01*
X129876Y99225D01*
X129946Y98924D01*
X130038Y98693D01*
X130131Y98507D01*
X130200Y98369D01*
X130246Y98299D01*
X130270Y98276D01*
X130432Y98114D01*
X130617Y97975D01*
X130825Y97883D01*
X130987Y97836D01*
X131149Y97790D01*
X131265Y97767D01*
X131380D01*
X131612Y97790D01*
X131820Y97836D01*
X132005Y97929D01*
X132144Y98022D01*
X132283Y98114D01*
X132375Y98207D01*
X132422Y98253D01*
X132445Y98276D01*
X132584Y98507D01*
X132676Y98762D01*
X132769Y99040D01*
X132815Y99294D01*
X132838Y99549D01*
X132861Y99734D01*
Y99873D01*
Y99896D01*
Y99919D01*
X132838Y100336D01*
X132792Y100706D01*
X132746Y100983D01*
X132653Y101238D01*
X132584Y101400D01*
X132537Y101539D01*
X132491Y101608D01*
X132468Y101631D01*
X132306Y101816D01*
X132121Y101932D01*
X131959Y102025D01*
X131797Y102094D01*
X131635Y102140D01*
X131519Y102164D01*
D02*
G37*
G36*
X154590Y102210D02*
X154474D01*
X154243Y102187D01*
X154034Y102117D01*
X153872Y102048D01*
X153710Y101955D01*
X153572Y101840D01*
X153479Y101770D01*
X153433Y101701D01*
X153410Y101678D01*
X153271Y101446D01*
X153155Y101192D01*
X153086Y100914D01*
X153016Y100660D01*
X152993Y100405D01*
X152970Y100220D01*
Y100081D01*
Y100058D01*
Y100035D01*
X152993Y99618D01*
X153039Y99271D01*
X153109Y98970D01*
X153178Y98739D01*
X153248Y98554D01*
X153317Y98415D01*
X153363Y98346D01*
X153386Y98322D01*
X153549Y98160D01*
X153734Y98045D01*
X153896Y97952D01*
X154058Y97906D01*
X154196Y97860D01*
X154312Y97836D01*
X154428D01*
X154682Y97860D01*
X154891Y97906D01*
X155099Y97998D01*
X155261Y98091D01*
X155400Y98184D01*
X155492Y98276D01*
X155562Y98322D01*
X155585Y98346D01*
X155747Y98577D01*
X155862Y98831D01*
X155932Y99086D01*
X155978Y99364D01*
X156025Y99595D01*
X156048Y99780D01*
Y99919D01*
Y99942D01*
Y99965D01*
X156025Y100382D01*
X155978Y100729D01*
X155909Y101030D01*
X155816Y101261D01*
X155747Y101446D01*
X155677Y101585D01*
X155631Y101655D01*
X155608Y101678D01*
X155423Y101863D01*
X155238Y101979D01*
X155053Y102071D01*
X154867Y102140D01*
X154706Y102187D01*
X154590Y102210D01*
D02*
G37*
G36*
X98452Y102210D02*
X98336D01*
X98105Y102187D01*
X97897Y102117D01*
X97735Y102048D01*
X97573Y101955D01*
X97434Y101840D01*
X97341Y101770D01*
X97295Y101701D01*
X97272Y101678D01*
X97133Y101446D01*
X97017Y101192D01*
X96948Y100914D01*
X96879Y100660D01*
X96855Y100405D01*
X96832Y100220D01*
Y100081D01*
Y100058D01*
Y100035D01*
X96855Y99618D01*
X96902Y99271D01*
X96971Y98970D01*
X97041Y98739D01*
X97110Y98554D01*
X97179Y98415D01*
X97226Y98346D01*
X97249Y98322D01*
X97411Y98160D01*
X97596Y98045D01*
X97758Y97952D01*
X97920Y97906D01*
X98059Y97860D01*
X98175Y97836D01*
X98290D01*
X98545Y97860D01*
X98753Y97906D01*
X98961Y97998D01*
X99123Y98091D01*
X99262Y98184D01*
X99355Y98276D01*
X99424Y98322D01*
X99447Y98346D01*
X99609Y98577D01*
X99725Y98831D01*
X99794Y99086D01*
X99840Y99364D01*
X99887Y99595D01*
X99910Y99780D01*
Y99919D01*
Y99942D01*
Y99965D01*
X99887Y100382D01*
X99840Y100729D01*
X99771Y101030D01*
X99678Y101261D01*
X99609Y101446D01*
X99540Y101585D01*
X99493Y101655D01*
X99470Y101678D01*
X99285Y101863D01*
X99100Y101978D01*
X98915Y102071D01*
X98730Y102140D01*
X98568Y102187D01*
X98452Y102210D01*
D02*
G37*
%LPD*%
M02*
