G04*
G04 #@! TF.GenerationSoftware,Altium Limited,Altium Designer,20.1.14 (287)*
G04*
G04 Layer_Color=255*
%FSLAX25Y25*%
%MOIN*%
G70*
G04*
G04 #@! TF.SameCoordinates,0D2ED980-A127-4EFE-AF8B-45E26DFE5CAE*
G04*
G04*
G04 #@! TF.FilePolarity,Positive*
G04*
G01*
G75*
%ADD17R,0.19685X0.19685*%
%ADD18R,0.03543X0.07874*%
%ADD19R,0.07874X0.03543*%
%ADD20R,0.07874X0.03543*%
%ADD21R,0.02362X0.03150*%
G04:AMPARAMS|DCode=22|XSize=23.62mil|YSize=31.5mil|CornerRadius=0mil|HoleSize=0mil|Usage=FLASHONLY|Rotation=240.000|XOffset=0mil|YOffset=0mil|HoleType=Round|Shape=Rectangle|*
%AMROTATEDRECTD22*
4,1,4,-0.00773,0.01810,0.01954,0.00236,0.00773,-0.01810,-0.01954,-0.00236,-0.00773,0.01810,0.0*
%
%ADD22ROTATEDRECTD22*%

G04:AMPARAMS|DCode=23|XSize=23.62mil|YSize=31.5mil|CornerRadius=0mil|HoleSize=0mil|Usage=FLASHONLY|Rotation=120.000|XOffset=0mil|YOffset=0mil|HoleType=Round|Shape=Rectangle|*
%AMROTATEDRECTD23*
4,1,4,0.01954,-0.00236,-0.00773,-0.01810,-0.01954,0.00236,0.00773,0.01810,0.01954,-0.00236,0.0*
%
%ADD23ROTATEDRECTD23*%

G04:AMPARAMS|DCode=24|XSize=53.15mil|YSize=37.4mil|CornerRadius=0mil|HoleSize=0mil|Usage=FLASHONLY|Rotation=210.000|XOffset=0mil|YOffset=0mil|HoleType=Round|Shape=Rectangle|*
%AMROTATEDRECTD24*
4,1,4,0.01366,0.02948,0.03237,-0.00291,-0.01366,-0.02948,-0.03237,0.00291,0.01366,0.02948,0.0*
%
%ADD24ROTATEDRECTD24*%

%ADD25R,0.03740X0.05315*%
G04:AMPARAMS|DCode=26|XSize=53.15mil|YSize=37.4mil|CornerRadius=0mil|HoleSize=0mil|Usage=FLASHONLY|Rotation=330.000|XOffset=0mil|YOffset=0mil|HoleType=Round|Shape=Rectangle|*
%AMROTATEDRECTD26*
4,1,4,-0.03237,-0.00291,-0.01366,0.02948,0.03237,0.00291,0.01366,-0.02948,-0.03237,-0.00291,0.0*
%
%ADD26ROTATEDRECTD26*%

%ADD27R,0.05906X0.07874*%
%ADD28R,0.03740X0.03150*%
G04:AMPARAMS|DCode=29|XSize=78.74mil|YSize=59.06mil|CornerRadius=0mil|HoleSize=0mil|Usage=FLASHONLY|Rotation=315.000|XOffset=0mil|YOffset=0mil|HoleType=Round|Shape=Rectangle|*
%AMROTATEDRECTD29*
4,1,4,-0.04872,0.00696,-0.00696,0.04872,0.04872,-0.00696,0.00696,-0.04872,-0.04872,0.00696,0.0*
%
%ADD29ROTATEDRECTD29*%

G04:AMPARAMS|DCode=30|XSize=37.4mil|YSize=31.5mil|CornerRadius=0mil|HoleSize=0mil|Usage=FLASHONLY|Rotation=45.000|XOffset=0mil|YOffset=0mil|HoleType=Round|Shape=Rectangle|*
%AMROTATEDRECTD30*
4,1,4,-0.00209,-0.02436,-0.02436,-0.00209,0.00209,0.02436,0.02436,0.00209,-0.00209,-0.02436,0.0*
%
%ADD30ROTATEDRECTD30*%

G04:AMPARAMS|DCode=31|XSize=37.4mil|YSize=31.5mil|CornerRadius=0mil|HoleSize=0mil|Usage=FLASHONLY|Rotation=315.000|XOffset=0mil|YOffset=0mil|HoleType=Round|Shape=Rectangle|*
%AMROTATEDRECTD31*
4,1,4,-0.02436,0.00209,-0.00209,0.02436,0.02436,-0.00209,0.00209,-0.02436,-0.02436,0.00209,0.0*
%
%ADD31ROTATEDRECTD31*%

%ADD32C,0.06000*%
%ADD33C,0.05906*%
%ADD34R,0.05906X0.05906*%
%ADD35R,0.05906X0.05906*%
%ADD36P,0.07795X4X360.0*%
%ADD37C,0.07480*%
%ADD38C,0.05512*%
%ADD39P,0.05657X4X360.0*%
%ADD40C,0.04000*%
%ADD41P,0.08352X4X270.0*%
D17*
X65000Y-69591D02*
D03*
D18*
X42500Y-109000D02*
D03*
X47500D02*
D03*
X87500D02*
D03*
X82500D02*
D03*
X77500D02*
D03*
X72500D02*
D03*
X67500D02*
D03*
X62500D02*
D03*
X57500D02*
D03*
X52500D02*
D03*
D19*
X31535Y-60063D02*
D03*
X98465Y-40063D02*
D03*
Y-45063D02*
D03*
Y-50063D02*
D03*
Y-55063D02*
D03*
Y-60063D02*
D03*
Y-65063D02*
D03*
Y-70063D02*
D03*
Y-75063D02*
D03*
Y-80063D02*
D03*
Y-85063D02*
D03*
Y-90063D02*
D03*
Y-95063D02*
D03*
Y-100063D02*
D03*
Y-105063D02*
D03*
X31535D02*
D03*
Y-100063D02*
D03*
Y-95063D02*
D03*
Y-90063D02*
D03*
Y-85063D02*
D03*
Y-80063D02*
D03*
Y-75063D02*
D03*
Y-70063D02*
D03*
Y-65063D02*
D03*
Y-55063D02*
D03*
D03*
Y-50063D02*
D03*
Y-45063D02*
D03*
D20*
Y-40063D02*
D03*
D21*
X80189Y-197524D02*
D03*
X85898Y-197524D02*
D03*
X106787Y-197335D02*
D03*
X112496D02*
D03*
D22*
X90822Y-206052D02*
D03*
X87967Y-210996D02*
D03*
X104717Y-183862D02*
D03*
X101863Y-188806D02*
D03*
D23*
X91443Y-189075D02*
D03*
X88589Y-184132D02*
D03*
X104542Y-210830D02*
D03*
X101688Y-205886D02*
D03*
D24*
X109797Y-220221D02*
D03*
X112848Y-225506D02*
D03*
X80626Y-170299D02*
D03*
X83678Y-175583D02*
D03*
D25*
X128401Y-197503D02*
D03*
X122298D02*
D03*
X69566Y-197572D02*
D03*
X63463Y-197572D02*
D03*
D26*
X109940Y-174691D02*
D03*
X112991Y-169407D02*
D03*
X80796Y-224372D02*
D03*
X83847Y-219088D02*
D03*
D27*
X149926Y-203776D02*
D03*
Y-225036D02*
D03*
D28*
X150000Y-192559D02*
D03*
Y-187441D02*
D03*
D29*
X39337Y-155435D02*
D03*
X54370Y-170468D02*
D03*
X18488D02*
D03*
X3455Y-155435D02*
D03*
D30*
X31479Y-147083D02*
D03*
X27860Y-143465D02*
D03*
X74260Y6040D02*
D03*
X77740Y2560D02*
D03*
X-4403Y-147083D02*
D03*
X-8022Y-143465D02*
D03*
X54020Y5980D02*
D03*
X57500Y2500D02*
D03*
D31*
X14240Y-35760D02*
D03*
X10760Y-39240D02*
D03*
X21740Y-10760D02*
D03*
X18260Y-14240D02*
D03*
X50416Y-222270D02*
D03*
X46797Y-225889D02*
D03*
X28103Y-200040D02*
D03*
X24484Y-203659D02*
D03*
D32*
X250000Y-230000D02*
D03*
Y-220000D02*
D03*
Y-210000D02*
D03*
Y-200000D02*
D03*
Y-190000D02*
D03*
Y-180000D02*
D03*
Y-170000D02*
D03*
Y-160000D02*
D03*
Y-150000D02*
D03*
Y-140000D02*
D03*
Y-130000D02*
D03*
Y-120000D02*
D03*
Y-110000D02*
D03*
Y-100000D02*
D03*
Y-90000D02*
D03*
Y-80000D02*
D03*
Y-70000D02*
D03*
Y-60000D02*
D03*
Y-50000D02*
D03*
Y-40000D02*
D03*
Y-30000D02*
D03*
Y-20000D02*
D03*
Y-10000D02*
D03*
Y0D02*
D03*
X190000D02*
D03*
Y-10000D02*
D03*
Y-20000D02*
D03*
Y-30000D02*
D03*
Y-40000D02*
D03*
Y-50000D02*
D03*
Y-60000D02*
D03*
Y-70000D02*
D03*
Y-80000D02*
D03*
Y-90000D02*
D03*
Y-100000D02*
D03*
Y-110000D02*
D03*
Y-120000D02*
D03*
Y-130000D02*
D03*
Y-140000D02*
D03*
Y-150000D02*
D03*
Y-160000D02*
D03*
Y-170000D02*
D03*
Y-180000D02*
D03*
Y-190000D02*
D03*
Y-200000D02*
D03*
Y-210000D02*
D03*
Y-220000D02*
D03*
Y-230000D02*
D03*
X240000Y-50000D02*
D03*
X230000D02*
D03*
X220000D02*
D03*
X210000D02*
D03*
X200000D02*
D03*
D33*
X282500Y-199000D02*
D03*
X100000Y-130000D02*
D03*
X80000D02*
D03*
X70000D02*
D03*
X60000D02*
D03*
X50000D02*
D03*
X40000D02*
D03*
X30000D02*
D03*
X20000D02*
D03*
X90000D02*
D03*
X0D02*
D03*
Y-120000D02*
D03*
Y-110000D02*
D03*
Y-100000D02*
D03*
Y-90000D02*
D03*
Y-80000D02*
D03*
Y-70000D02*
D03*
Y-60000D02*
D03*
Y-50000D02*
D03*
Y-40000D02*
D03*
Y-30000D02*
D03*
Y-20000D02*
D03*
Y-10000D02*
D03*
X-10000Y22500D02*
D03*
X130000Y-130000D02*
D03*
Y-120000D02*
D03*
Y-110000D02*
D03*
Y-100000D02*
D03*
Y-90000D02*
D03*
Y-80000D02*
D03*
Y-70000D02*
D03*
Y-60000D02*
D03*
Y-50000D02*
D03*
Y-40000D02*
D03*
Y-30000D02*
D03*
Y-20000D02*
D03*
Y-10000D02*
D03*
X270000Y0D02*
D03*
X170000D02*
D03*
Y-10000D02*
D03*
Y-20000D02*
D03*
Y-30000D02*
D03*
Y-40000D02*
D03*
Y-50000D02*
D03*
Y-60000D02*
D03*
Y-70000D02*
D03*
Y-80000D02*
D03*
Y-90000D02*
D03*
Y-100000D02*
D03*
Y-110000D02*
D03*
Y-120000D02*
D03*
Y-130000D02*
D03*
Y-140000D02*
D03*
Y-150000D02*
D03*
Y-160000D02*
D03*
Y-170000D02*
D03*
Y-180000D02*
D03*
Y-190000D02*
D03*
Y-200000D02*
D03*
Y-210000D02*
D03*
Y-220000D02*
D03*
X270000Y-10000D02*
D03*
Y-20000D02*
D03*
Y-30000D02*
D03*
Y-40000D02*
D03*
Y-50000D02*
D03*
Y-60000D02*
D03*
Y-70000D02*
D03*
Y-80000D02*
D03*
Y-90000D02*
D03*
Y-100000D02*
D03*
Y-110000D02*
D03*
Y-120000D02*
D03*
Y-130000D02*
D03*
Y-140000D02*
D03*
Y-150000D02*
D03*
Y-160000D02*
D03*
Y-170000D02*
D03*
Y-180000D02*
D03*
Y-190000D02*
D03*
Y-200000D02*
D03*
Y-210000D02*
D03*
Y-220000D02*
D03*
D34*
X282500Y-189000D02*
D03*
X0Y0D02*
D03*
X130000D02*
D03*
X170000Y-230000D02*
D03*
X270000D02*
D03*
D35*
X110000Y-130000D02*
D03*
D36*
X35405Y-236573D02*
D03*
D37*
X33456Y-258009D02*
D03*
X8958Y-198991D02*
D03*
D38*
X24269Y-225438D02*
D03*
X13134Y-214302D02*
D03*
D39*
X31536Y21607D02*
D03*
D40*
X28000Y18071D02*
D03*
X24464Y14536D02*
D03*
X20929Y11000D02*
D03*
X17393Y7464D02*
D03*
X35071Y18071D02*
D03*
X31536Y14536D02*
D03*
X28000Y11000D02*
D03*
X24464Y7464D02*
D03*
X20929Y3929D02*
D03*
D41*
X-2929Y29571D02*
D03*
M02*
