M48
;Layer_Color=9474304
;FILE_FORMAT=2:5
INCH,LZ
;TYPE=PLATED
T1F00S00C0.02800
T2F00S00C0.03000
T3F00S00C0.03543
T4F00S00C0.04000
T5F00S00C0.05512
%
T01
X0211Y-02205
X01985Y-018
X016Y-0225
X00971Y-01976
X01115Y-01515
X01165Y-0147
X0028Y-0161
X00355Y-01795
X002Y-0185
X0022Y-0113
X0015Y-0111
X00405Y-0118
X00155Y-0044
X0005Y-0035
X00225Y-002
X00425Y-005
X0087Y-0043
X00885Y-00125
X00945
X01035
X01105
X0121Y-00065
X01155Y00015
X0137Y-00395
X01435Y-0078
X0143Y-0091
X01605Y-00845
X01595Y-01045
Y-01145
X0093Y-0122
X0227Y-01145
Y-0105
X021125Y-008475
T02
X0017393Y0007464
X0020929Y0011
X0024464Y0007464
X0020929Y0003929
X0024464Y0014536
X0028Y0018071
X0031536Y0014536
Y0021607
X0035071Y0018071
X0028Y0011
T03
X027Y-023
Y-022
Y-021
Y-02
Y-019
Y-018
Y-017
Y-016
Y-015
Y-014
Y-013
X02825Y-0189
Y-0199
X017Y-02
Y-019
Y-018
Y-017
Y-016
Y-015
Y-014
Y-013
X013
X011
X01
X009
X008
X007
X006
X005
X017Y-021
Y-022
Y-023
X0035405Y-0236573
X0024269Y-0225438
X0013134Y-0214302
X002Y-013
X003
X004
X0
Y-012
Y-011
Y-01
Y-009
Y-008
Y-007
Y-006
Y-005
Y-004
Y-003
Y-002
Y-001
Y0
X-0002929Y0029571
X-001Y00225
X013Y0
Y-001
Y-002
Y-003
Y-004
Y-005
Y-006
Y-007
Y-008
Y-009
Y-01
Y-011
Y-012
X017
Y-011
Y-01
Y-009
Y-008
Y-007
Y-006
Y-005
Y-004
Y-003
Y-002
Y-001
Y0
X027
Y-001
Y-002
Y-003
Y-004
Y-005
Y-006
Y-007
Y-008
Y-009
Y-01
Y-011
Y-012
T04
X025Y-023
Y-022
Y-021
Y-02
Y-019
Y-018
Y-017
Y-016
Y-015
Y-014
Y-013
X019
Y-014
Y-015
Y-016
Y-017
Y-018
Y-019
Y-02
Y-021
Y-022
Y-023
Y-012
Y-011
Y-01
Y-009
Y-008
Y-007
Y-006
Y-005
Y-004
Y-003
Y-002
Y-001
Y0
X025
Y-001
Y-002
Y-003
Y-004
Y-005
Y-006
Y-007
Y-008
Y-009
Y-01
Y-011
Y-012
X024Y-005
X023
X022
X021
X02
T05
X0033456Y-0258009
X0008958Y-0198991
M30
