G04*
G04 #@! TF.GenerationSoftware,Altium Limited,Altium Designer,20.1.14 (287)*
G04*
G04 Layer_Color=32896*
%FSLAX25Y25*%
%MOIN*%
G70*
G04*
G04 #@! TF.SameCoordinates,0D2ED980-A127-4EFE-AF8B-45E26DFE5CAE*
G04*
G04*
G04 #@! TF.FilePolarity,Positive*
G04*
G01*
G75*
%ADD11C,0.01000*%
%ADD16C,0.02000*%
G36*
X266400Y8900D02*
Y8100D01*
Y7300D01*
Y6500D01*
Y5700D01*
Y4900D01*
Y4100D01*
Y3300D01*
Y2500D01*
Y1700D01*
Y900D01*
Y100D01*
Y-700D01*
Y-1500D01*
Y-2300D01*
Y-3100D01*
Y-3900D01*
Y-4700D01*
Y-5500D01*
Y-6300D01*
Y-7100D01*
Y-7900D01*
Y-8700D01*
Y-9500D01*
Y-10300D01*
Y-11100D01*
Y-11900D01*
Y-12700D01*
Y-13500D01*
Y-14300D01*
Y-15100D01*
Y-15900D01*
Y-16700D01*
Y-17500D01*
Y-18300D01*
Y-19100D01*
Y-19900D01*
Y-20700D01*
Y-21500D01*
Y-22300D01*
Y-23100D01*
Y-23900D01*
Y-24700D01*
Y-25500D01*
Y-26300D01*
Y-27100D01*
Y-27900D01*
Y-28700D01*
Y-29500D01*
Y-30300D01*
Y-31100D01*
Y-31900D01*
Y-32700D01*
Y-33500D01*
Y-34300D01*
Y-35100D01*
Y-35900D01*
Y-36700D01*
Y-37500D01*
Y-38300D01*
Y-39100D01*
Y-39900D01*
Y-40700D01*
Y-41500D01*
Y-42300D01*
Y-43100D01*
Y-43900D01*
Y-44700D01*
Y-45500D01*
Y-46300D01*
Y-47100D01*
Y-47900D01*
Y-48700D01*
Y-49500D01*
Y-50300D01*
Y-51100D01*
Y-51900D01*
Y-52700D01*
Y-53500D01*
Y-54300D01*
Y-55100D01*
Y-55900D01*
Y-56700D01*
Y-57500D01*
Y-58300D01*
Y-59100D01*
Y-59900D01*
Y-60700D01*
Y-61500D01*
Y-62300D01*
Y-63100D01*
Y-63900D01*
Y-64700D01*
Y-65500D01*
Y-66300D01*
Y-67100D01*
Y-67900D01*
Y-68700D01*
Y-69500D01*
Y-70300D01*
Y-71100D01*
Y-71900D01*
Y-72700D01*
Y-73500D01*
Y-74300D01*
Y-75100D01*
Y-75900D01*
Y-76700D01*
Y-77500D01*
Y-78300D01*
Y-79100D01*
Y-79900D01*
Y-80700D01*
Y-81500D01*
Y-82300D01*
Y-83100D01*
Y-83900D01*
Y-84700D01*
Y-85500D01*
Y-86300D01*
Y-87100D01*
Y-87900D01*
Y-88700D01*
Y-89500D01*
Y-90300D01*
Y-91100D01*
Y-91900D01*
Y-92700D01*
Y-93500D01*
Y-94300D01*
Y-95100D01*
Y-95900D01*
Y-96700D01*
Y-97500D01*
Y-98300D01*
Y-99100D01*
Y-99900D01*
Y-100700D01*
Y-101500D01*
Y-102300D01*
Y-103100D01*
Y-103900D01*
Y-104700D01*
Y-105500D01*
Y-106300D01*
Y-107100D01*
Y-107900D01*
Y-108700D01*
Y-109500D01*
Y-110300D01*
Y-111100D01*
Y-111900D01*
Y-112700D01*
Y-113500D01*
Y-114300D01*
Y-115100D01*
Y-115900D01*
Y-116700D01*
Y-117500D01*
Y-118300D01*
Y-119100D01*
Y-119900D01*
Y-120700D01*
Y-121500D01*
Y-122300D01*
Y-123100D01*
Y-123900D01*
Y-124700D01*
Y-125500D01*
Y-126300D01*
Y-127100D01*
Y-127900D01*
Y-128700D01*
Y-129500D01*
Y-130300D01*
Y-131100D01*
Y-131900D01*
Y-132700D01*
Y-133500D01*
Y-134300D01*
Y-135100D01*
Y-135900D01*
Y-136700D01*
Y-137500D01*
Y-138300D01*
Y-139100D01*
Y-139900D01*
Y-140700D01*
Y-141500D01*
Y-142300D01*
Y-143100D01*
Y-143900D01*
Y-144700D01*
Y-145500D01*
Y-146300D01*
Y-147100D01*
Y-147900D01*
Y-148700D01*
Y-149500D01*
Y-150300D01*
Y-151100D01*
Y-151900D01*
Y-152700D01*
Y-153500D01*
Y-154300D01*
Y-155100D01*
Y-155900D01*
Y-156700D01*
Y-157500D01*
Y-158300D01*
Y-159100D01*
Y-159900D01*
Y-160700D01*
Y-161500D01*
Y-162300D01*
Y-163100D01*
Y-163900D01*
Y-164700D01*
Y-165500D01*
Y-166300D01*
Y-167100D01*
Y-167900D01*
Y-168700D01*
Y-169500D01*
Y-170300D01*
Y-171100D01*
Y-171900D01*
Y-172700D01*
Y-173500D01*
Y-174300D01*
Y-175100D01*
Y-175900D01*
Y-176700D01*
Y-177500D01*
Y-178300D01*
Y-179100D01*
Y-179900D01*
Y-180700D01*
Y-181500D01*
Y-182300D01*
Y-183100D01*
Y-183900D01*
Y-184700D01*
Y-185500D01*
Y-186300D01*
Y-187100D01*
Y-187900D01*
Y-188700D01*
Y-189500D01*
Y-190300D01*
Y-191100D01*
Y-191900D01*
Y-192700D01*
Y-193500D01*
Y-194300D01*
Y-195100D01*
Y-195900D01*
Y-196700D01*
Y-197500D01*
Y-198300D01*
Y-199100D01*
Y-199900D01*
Y-200700D01*
Y-201500D01*
Y-202300D01*
Y-203100D01*
Y-203900D01*
Y-204700D01*
Y-205500D01*
Y-206300D01*
Y-207100D01*
Y-207900D01*
Y-208700D01*
Y-209500D01*
Y-210300D01*
Y-211100D01*
Y-211900D01*
Y-212700D01*
Y-213500D01*
Y-214300D01*
Y-215100D01*
Y-215900D01*
Y-216700D01*
Y-217500D01*
Y-218300D01*
Y-219100D01*
Y-219900D01*
Y-220700D01*
Y-221500D01*
Y-222300D01*
Y-223100D01*
Y-223900D01*
Y-224700D01*
Y-225500D01*
Y-226300D01*
Y-227100D01*
Y-227900D01*
Y-228700D01*
Y-229500D01*
Y-230300D01*
Y-231100D01*
Y-231900D01*
Y-232700D01*
Y-233500D01*
Y-234300D01*
Y-235100D01*
Y-235900D01*
Y-236700D01*
Y-237500D01*
Y-238300D01*
X18400D01*
Y-237500D01*
Y-236700D01*
Y-235900D01*
Y-235100D01*
Y-234300D01*
Y-233500D01*
Y-232700D01*
Y-231900D01*
Y-231100D01*
Y-230300D01*
Y-229500D01*
Y-228700D01*
Y-227900D01*
Y-227100D01*
Y-226300D01*
Y-225500D01*
Y-224700D01*
Y-223900D01*
Y-223100D01*
Y-222300D01*
Y-221500D01*
Y-220700D01*
Y-219900D01*
Y-219100D01*
Y-218300D01*
Y-217500D01*
Y-216700D01*
Y-215900D01*
Y-215100D01*
Y-214300D01*
Y-213500D01*
Y-212700D01*
Y-211900D01*
Y-211100D01*
Y-210300D01*
Y-209500D01*
Y-208700D01*
Y-207900D01*
Y-207100D01*
Y-206300D01*
Y-205500D01*
Y-204700D01*
Y-203900D01*
Y-203100D01*
Y-202300D01*
Y-201500D01*
Y-200700D01*
Y-199900D01*
Y-199100D01*
Y-198300D01*
Y-197500D01*
Y-196700D01*
Y-195900D01*
Y-195100D01*
Y-194300D01*
Y-193500D01*
Y-192700D01*
Y-191900D01*
Y-191100D01*
Y-190300D01*
Y-189500D01*
Y-188700D01*
Y-187900D01*
Y-187100D01*
Y-186300D01*
Y-185500D01*
Y-184700D01*
Y-183900D01*
Y-183100D01*
Y-182300D01*
Y-181500D01*
Y-180700D01*
Y-179900D01*
Y-179100D01*
Y-178300D01*
Y-177500D01*
Y-176700D01*
Y-175900D01*
Y-175100D01*
Y-174300D01*
Y-173500D01*
Y-172700D01*
Y-171900D01*
Y-171100D01*
Y-170300D01*
Y-169500D01*
Y-168700D01*
Y-167900D01*
Y-167100D01*
Y-166300D01*
Y-165500D01*
Y-164700D01*
Y-163900D01*
Y-163100D01*
Y-162300D01*
Y-161500D01*
Y-160700D01*
Y-159900D01*
Y-159100D01*
Y-158300D01*
Y-157500D01*
Y-156700D01*
Y-155900D01*
Y-155100D01*
Y-154300D01*
Y-153500D01*
Y-152700D01*
Y-151900D01*
Y-151100D01*
Y-150300D01*
Y-149500D01*
Y-148700D01*
Y-147900D01*
Y-147100D01*
Y-146300D01*
Y-145500D01*
Y-144700D01*
Y-143900D01*
Y-143100D01*
Y-142300D01*
Y-141500D01*
Y-140700D01*
Y-139900D01*
Y-139100D01*
Y-138300D01*
Y-137500D01*
Y-136700D01*
Y-135900D01*
Y-135100D01*
Y-134300D01*
Y-133500D01*
Y-132700D01*
Y-131900D01*
Y-131100D01*
Y-130300D01*
Y-129500D01*
Y-128700D01*
Y-127900D01*
Y-127100D01*
Y-126300D01*
Y-125500D01*
Y-124700D01*
Y-123900D01*
Y-123100D01*
Y-122300D01*
Y-121500D01*
Y-120700D01*
Y-119900D01*
Y-119100D01*
Y-118300D01*
Y-117500D01*
Y-116700D01*
Y-115900D01*
Y-115100D01*
Y-114300D01*
Y-113500D01*
Y-112700D01*
Y-111900D01*
Y-111100D01*
Y-110300D01*
Y-109500D01*
Y-108700D01*
Y-107900D01*
Y-107100D01*
Y-106300D01*
Y-105500D01*
Y-104700D01*
Y-103900D01*
Y-103100D01*
Y-102300D01*
Y-101500D01*
Y-100700D01*
Y-99900D01*
Y-99100D01*
Y-98300D01*
Y-97500D01*
Y-96700D01*
Y-95900D01*
Y-95100D01*
Y-94300D01*
Y-93500D01*
Y-92700D01*
Y-91900D01*
Y-91100D01*
Y-90300D01*
Y-89500D01*
Y-88700D01*
Y-87900D01*
Y-87100D01*
Y-86300D01*
Y-85500D01*
Y-84700D01*
Y-83900D01*
Y-83100D01*
Y-82300D01*
Y-81500D01*
Y-80700D01*
Y-79900D01*
Y-79100D01*
Y-78300D01*
Y-77500D01*
Y-76700D01*
Y-75900D01*
Y-75100D01*
Y-74300D01*
Y-73500D01*
Y-72700D01*
Y-71900D01*
Y-71100D01*
Y-70300D01*
Y-69500D01*
Y-68700D01*
Y-67900D01*
Y-67100D01*
Y-66300D01*
Y-65500D01*
Y-64700D01*
Y-63900D01*
Y-63100D01*
Y-62300D01*
Y-61500D01*
Y-60700D01*
Y-59900D01*
Y-59100D01*
Y-58300D01*
Y-57500D01*
Y-56700D01*
Y-55900D01*
Y-55100D01*
Y-54300D01*
Y-53500D01*
Y-52700D01*
Y-51900D01*
Y-51100D01*
Y-50300D01*
Y-49500D01*
Y-48700D01*
Y-47900D01*
Y-47100D01*
Y-46300D01*
Y-45500D01*
Y-44700D01*
Y-43900D01*
Y-43100D01*
Y-42300D01*
Y-41500D01*
Y-40700D01*
Y-39900D01*
Y-39100D01*
Y-38300D01*
Y-37500D01*
Y-36700D01*
Y-35900D01*
Y-35100D01*
Y-34300D01*
Y-33500D01*
Y-32700D01*
Y-31900D01*
Y-31100D01*
Y-30300D01*
Y-29500D01*
Y-28700D01*
Y-27900D01*
Y-27100D01*
Y-26300D01*
Y-25500D01*
Y-24700D01*
Y-23900D01*
Y-23100D01*
Y-22300D01*
Y-21500D01*
Y-20700D01*
Y-19900D01*
Y-19100D01*
Y-18300D01*
Y-17500D01*
Y-16700D01*
Y-15900D01*
Y-15100D01*
Y-14300D01*
Y-13500D01*
Y-12700D01*
Y-11900D01*
Y-11100D01*
Y-10300D01*
Y-9500D01*
Y-8700D01*
Y-7900D01*
Y-7100D01*
Y-6300D01*
Y-5500D01*
Y-4700D01*
Y-3900D01*
Y-3100D01*
Y-2300D01*
Y-1500D01*
Y-700D01*
Y100D01*
Y900D01*
Y1700D01*
Y2500D01*
Y3300D01*
Y4100D01*
Y4900D01*
Y5700D01*
Y6500D01*
Y7300D01*
Y8100D01*
Y8900D01*
Y9700D01*
X266400D01*
Y8900D01*
D02*
G37*
%LPC*%
G36*
X232800Y-95100D02*
X231200D01*
Y-95900D01*
Y-96700D01*
X232000D01*
Y-97500D01*
X232800D01*
Y-98300D01*
X232000D01*
Y-99100D01*
X229600D01*
Y-99900D01*
X228800D01*
Y-100700D01*
Y-101500D01*
X228000D01*
Y-102300D01*
X226400D01*
Y-103100D01*
Y-103900D01*
X227200D01*
Y-104700D01*
X228000D01*
Y-105500D01*
Y-106300D01*
X228800D01*
Y-107100D01*
X229600D01*
Y-107900D01*
Y-108700D01*
X230400D01*
Y-109500D01*
X231200D01*
Y-110300D01*
X232000D01*
Y-111100D01*
X232800D01*
Y-111900D01*
Y-112700D01*
X233600D01*
Y-113500D01*
X234400D01*
Y-114300D01*
Y-115100D01*
X243200D01*
Y-114300D01*
Y-113500D01*
X244800D01*
Y-112700D01*
Y-111900D01*
X244000D01*
Y-111100D01*
X243200D01*
Y-110300D01*
X242400D01*
Y-109500D01*
X241600D01*
Y-108700D01*
Y-107900D01*
X240800D01*
Y-107100D01*
X240000D01*
Y-106300D01*
X239200D01*
Y-105500D01*
X238400D01*
Y-104700D01*
Y-103900D01*
X237600D01*
Y-103100D01*
X236800D01*
Y-102300D01*
X236000D01*
Y-101500D01*
Y-100700D01*
X235200D01*
Y-99900D01*
Y-99100D01*
X236000D01*
Y-99900D01*
Y-100700D01*
X237600D01*
Y-99900D01*
Y-99100D01*
X236000D01*
Y-98300D01*
Y-97500D01*
X234400D01*
Y-96700D01*
X233600D01*
Y-95900D01*
X232800D01*
Y-95100D01*
D02*
G37*
G36*
X242400Y-98300D02*
X240800D01*
Y-99100D01*
X240000D01*
Y-99900D01*
Y-100700D01*
Y-101500D01*
Y-102300D01*
Y-103100D01*
Y-103900D01*
X241600D01*
Y-103100D01*
Y-102300D01*
Y-101500D01*
Y-100700D01*
Y-99900D01*
X242400D01*
Y-99100D01*
Y-98300D01*
D02*
G37*
G36*
X160800Y-101500D02*
X160000D01*
Y-102300D01*
X159200D01*
Y-103100D01*
Y-103900D01*
X160800D01*
Y-103100D01*
X161600D01*
Y-102300D01*
X160800D01*
Y-101500D01*
D02*
G37*
G36*
X167200Y-102300D02*
X165600D01*
Y-103100D01*
Y-103900D01*
Y-104700D01*
X168000D01*
Y-103900D01*
Y-103100D01*
X167200D01*
Y-102300D01*
D02*
G37*
G36*
X57600Y-107100D02*
X56000D01*
Y-107900D01*
Y-108700D01*
X57600D01*
Y-107900D01*
Y-107100D01*
D02*
G37*
G36*
X162400Y-108700D02*
X160800D01*
Y-109500D01*
Y-110300D01*
X163200D01*
Y-109500D01*
X162400D01*
Y-108700D01*
D02*
G37*
G36*
X171200Y-107100D02*
X169600D01*
Y-107900D01*
X168800D01*
Y-108700D01*
Y-109500D01*
X169600D01*
Y-110300D01*
Y-111100D01*
X172000D01*
Y-110300D01*
Y-109500D01*
Y-108700D01*
X171200D01*
Y-107900D01*
Y-107100D01*
D02*
G37*
G36*
X168800Y-110300D02*
X167200D01*
Y-111100D01*
X166400D01*
Y-111900D01*
Y-112700D01*
X168000D01*
Y-111900D01*
X168800D01*
Y-111100D01*
Y-110300D01*
D02*
G37*
G36*
X257600Y900D02*
X140000D01*
Y100D01*
Y-700D01*
Y-1500D01*
Y-2300D01*
Y-3100D01*
Y-3900D01*
Y-4700D01*
Y-5500D01*
Y-6300D01*
Y-7100D01*
Y-7900D01*
Y-8700D01*
Y-9500D01*
Y-10300D01*
Y-11100D01*
Y-11900D01*
Y-12700D01*
Y-13500D01*
Y-14300D01*
Y-15100D01*
Y-15900D01*
Y-16700D01*
Y-17500D01*
Y-18300D01*
Y-19100D01*
Y-19900D01*
Y-20700D01*
Y-21500D01*
Y-22300D01*
Y-23100D01*
Y-23900D01*
Y-24700D01*
Y-25500D01*
Y-26300D01*
Y-27100D01*
Y-27900D01*
Y-28700D01*
Y-29500D01*
Y-30300D01*
Y-31100D01*
Y-31900D01*
Y-32700D01*
Y-33500D01*
Y-34300D01*
Y-35100D01*
Y-35900D01*
Y-36700D01*
Y-37500D01*
Y-38300D01*
Y-39100D01*
Y-39900D01*
Y-40700D01*
Y-41500D01*
Y-42300D01*
Y-43100D01*
Y-43900D01*
Y-44700D01*
Y-45500D01*
Y-46300D01*
Y-47100D01*
Y-47900D01*
Y-48700D01*
Y-49500D01*
Y-50300D01*
Y-51100D01*
Y-51900D01*
Y-52700D01*
Y-53500D01*
Y-54300D01*
Y-55100D01*
Y-55900D01*
Y-56700D01*
Y-57500D01*
Y-58300D01*
Y-59100D01*
Y-59900D01*
Y-60700D01*
Y-61500D01*
Y-62300D01*
Y-63100D01*
Y-63900D01*
Y-64700D01*
Y-65500D01*
Y-66300D01*
Y-67100D01*
Y-67900D01*
Y-68700D01*
Y-69500D01*
Y-70300D01*
Y-71100D01*
Y-71900D01*
Y-72700D01*
Y-73500D01*
Y-74300D01*
Y-75100D01*
Y-75900D01*
Y-76700D01*
Y-77500D01*
Y-78300D01*
Y-79100D01*
Y-79900D01*
Y-80700D01*
Y-81500D01*
Y-82300D01*
Y-83100D01*
Y-83900D01*
Y-84700D01*
Y-85500D01*
Y-86300D01*
Y-87100D01*
Y-87900D01*
Y-88700D01*
Y-89500D01*
Y-90300D01*
Y-91100D01*
Y-91900D01*
Y-92700D01*
Y-93500D01*
Y-94300D01*
Y-95100D01*
Y-95900D01*
Y-96700D01*
Y-97500D01*
Y-98300D01*
Y-99100D01*
Y-99900D01*
Y-100700D01*
Y-101500D01*
Y-102300D01*
Y-103100D01*
Y-103900D01*
Y-104700D01*
Y-105500D01*
Y-106300D01*
Y-107100D01*
Y-107900D01*
Y-108700D01*
Y-109500D01*
Y-110300D01*
Y-111100D01*
Y-111900D01*
Y-112700D01*
Y-113500D01*
Y-114300D01*
Y-115100D01*
X141600D01*
Y-114300D01*
Y-113500D01*
Y-112700D01*
X140800D01*
Y-111900D01*
X141600D01*
Y-111100D01*
X142400D01*
Y-110300D01*
X143200D01*
Y-111100D01*
X144800D01*
Y-111900D01*
X149600D01*
Y-111100D01*
Y-110300D01*
Y-109500D01*
Y-108700D01*
X150400D01*
Y-109500D01*
Y-110300D01*
Y-111100D01*
Y-111900D01*
X151200D01*
Y-112700D01*
Y-113500D01*
Y-114300D01*
Y-115100D01*
X153600D01*
Y-114300D01*
X154400D01*
Y-113500D01*
Y-112700D01*
X155200D01*
Y-111900D01*
Y-111100D01*
X156000D01*
Y-110300D01*
Y-109500D01*
X156800D01*
Y-108700D01*
Y-107900D01*
X156000D01*
Y-107100D01*
Y-106300D01*
X154400D01*
Y-105500D01*
X156000D01*
Y-104700D01*
X156800D01*
Y-105500D01*
X158400D01*
Y-104700D01*
Y-103900D01*
Y-103100D01*
X157600D01*
Y-102300D01*
X156800D01*
Y-101500D01*
X156000D01*
Y-100700D01*
X153600D01*
Y-101500D01*
X151200D01*
Y-100700D01*
X150400D01*
Y-101500D01*
X149600D01*
Y-102300D01*
X148000D01*
Y-101500D01*
X148800D01*
Y-100700D01*
X149600D01*
Y-99900D01*
Y-99100D01*
X151200D01*
Y-98300D01*
X154400D01*
Y-97500D01*
X155200D01*
Y-96700D01*
X156800D01*
Y-95900D01*
X158400D01*
Y-95100D01*
X161600D01*
Y-95900D01*
X164000D01*
Y-96700D01*
X163200D01*
Y-97500D01*
Y-98300D01*
X162400D01*
Y-99100D01*
Y-99900D01*
X164000D01*
Y-99100D01*
Y-98300D01*
X164800D01*
Y-97500D01*
X166400D01*
Y-96700D01*
X167200D01*
Y-95900D01*
Y-95100D01*
X165600D01*
Y-94300D01*
X167200D01*
Y-93500D01*
X168000D01*
Y-94300D01*
X168800D01*
Y-93500D01*
X169600D01*
Y-92700D01*
X170400D01*
Y-91900D01*
X172000D01*
Y-92700D01*
Y-93500D01*
X171200D01*
Y-94300D01*
Y-95100D01*
X170400D01*
Y-95900D01*
X169600D01*
Y-96700D01*
Y-97500D01*
X171200D01*
Y-96700D01*
X172000D01*
Y-95900D01*
Y-95100D01*
X172800D01*
Y-94300D01*
Y-93500D01*
X173600D01*
Y-92700D01*
X174400D01*
Y-91900D01*
X176000D01*
Y-92700D01*
Y-93500D01*
Y-94300D01*
Y-95100D01*
Y-95900D01*
X175200D01*
Y-96700D01*
Y-97500D01*
X176000D01*
Y-98300D01*
X175200D01*
Y-99100D01*
X173600D01*
Y-99900D01*
Y-100700D01*
X172800D01*
Y-101500D01*
X172000D01*
Y-102300D01*
Y-103100D01*
Y-103900D01*
X171200D01*
Y-104700D01*
Y-105500D01*
X172800D01*
Y-104700D01*
X174400D01*
Y-103900D01*
Y-103100D01*
Y-102300D01*
Y-101500D01*
X176000D01*
Y-102300D01*
Y-103100D01*
Y-103900D01*
Y-104700D01*
Y-105500D01*
Y-106300D01*
Y-107100D01*
Y-107900D01*
Y-108700D01*
Y-109500D01*
Y-110300D01*
Y-111100D01*
X176800D01*
Y-111900D01*
Y-112700D01*
X177600D01*
Y-113500D01*
X178400D01*
Y-114300D01*
Y-115100D01*
X200000D01*
Y-114300D01*
X200800D01*
Y-113500D01*
Y-112700D01*
X200000D01*
Y-111900D01*
X201600D01*
Y-111100D01*
X202400D01*
Y-110300D01*
Y-109500D01*
X201600D01*
Y-108700D01*
Y-107900D01*
X198400D01*
Y-107100D01*
X192800D01*
Y-106300D01*
X190400D01*
Y-105500D01*
X188000D01*
Y-104700D01*
X186400D01*
Y-103900D01*
X184800D01*
Y-103100D01*
X184000D01*
Y-102300D01*
X183200D01*
Y-101500D01*
X182400D01*
Y-100700D01*
X181600D01*
Y-99900D01*
Y-99100D01*
X182400D01*
Y-99900D01*
X183200D01*
Y-100700D01*
X184000D01*
Y-101500D01*
X184800D01*
Y-102300D01*
X188000D01*
Y-103100D01*
X188800D01*
Y-103900D01*
X192800D01*
Y-103100D01*
X196000D01*
Y-103900D01*
X196800D01*
Y-103100D01*
X197600D01*
Y-102300D01*
X199200D01*
Y-103100D01*
X200000D01*
Y-102300D01*
X200800D01*
Y-101500D01*
X201600D01*
Y-100700D01*
Y-99900D01*
X200800D01*
Y-99100D01*
Y-98300D01*
Y-97500D01*
X202400D01*
Y-98300D01*
X201600D01*
Y-99100D01*
X203200D01*
Y-98300D01*
X204800D01*
Y-97500D01*
X205600D01*
Y-96700D01*
X207200D01*
Y-95900D01*
X208000D01*
Y-95100D01*
X208800D01*
Y-94300D01*
Y-93500D01*
X209600D01*
Y-94300D01*
X211200D01*
Y-93500D01*
Y-92700D01*
X210400D01*
Y-91900D01*
X211200D01*
Y-91100D01*
X212000D01*
Y-90300D01*
X212800D01*
Y-89500D01*
Y-88700D01*
X218400D01*
Y-87900D01*
X219200D01*
Y-87100D01*
X220800D01*
Y-87900D01*
X226400D01*
Y-88700D01*
X228800D01*
Y-89500D01*
X230400D01*
Y-90300D01*
X231200D01*
Y-91100D01*
Y-91900D01*
X232000D01*
Y-92700D01*
X233600D01*
Y-91900D01*
X232800D01*
Y-91100D01*
X236800D01*
Y-90300D01*
X237600D01*
Y-91100D01*
X239200D01*
Y-91900D01*
X240800D01*
Y-92700D01*
X242400D01*
Y-93500D01*
X243200D01*
Y-94300D01*
X244800D01*
Y-95100D01*
X245600D01*
Y-95900D01*
X246400D01*
Y-96700D01*
X247200D01*
Y-97500D01*
X248000D01*
Y-98300D01*
X248800D01*
Y-99100D01*
X249600D01*
Y-99900D01*
Y-100700D01*
X250400D01*
Y-101500D01*
Y-102300D01*
X251200D01*
Y-103100D01*
Y-103900D01*
Y-104700D01*
X250400D01*
Y-105500D01*
Y-106300D01*
Y-107100D01*
Y-107900D01*
Y-108700D01*
X251200D01*
Y-109500D01*
X253600D01*
Y-110300D01*
Y-111100D01*
Y-111900D01*
Y-112700D01*
Y-113500D01*
X254400D01*
Y-114300D01*
Y-115100D01*
X257600D01*
Y-114300D01*
Y-113500D01*
Y-112700D01*
Y-111900D01*
Y-111100D01*
Y-110300D01*
Y-109500D01*
Y-108700D01*
Y-107900D01*
Y-107100D01*
Y-106300D01*
Y-105500D01*
Y-104700D01*
Y-103900D01*
Y-103100D01*
Y-102300D01*
Y-101500D01*
Y-100700D01*
Y-99900D01*
Y-99100D01*
Y-98300D01*
Y-97500D01*
Y-96700D01*
Y-95900D01*
Y-95100D01*
Y-94300D01*
Y-93500D01*
Y-92700D01*
Y-91900D01*
Y-91100D01*
Y-90300D01*
Y-89500D01*
Y-88700D01*
Y-87900D01*
Y-87100D01*
Y-86300D01*
Y-85500D01*
Y-84700D01*
Y-83900D01*
Y-83100D01*
Y-82300D01*
Y-81500D01*
Y-80700D01*
Y-79900D01*
Y-79100D01*
Y-78300D01*
Y-77500D01*
Y-76700D01*
Y-75900D01*
Y-75100D01*
Y-74300D01*
Y-73500D01*
Y-72700D01*
Y-71900D01*
Y-71100D01*
Y-70300D01*
Y-69500D01*
Y-68700D01*
Y-67900D01*
Y-67100D01*
Y-66300D01*
Y-65500D01*
Y-64700D01*
Y-63900D01*
Y-63100D01*
Y-62300D01*
Y-61500D01*
Y-60700D01*
Y-59900D01*
Y-59100D01*
Y-58300D01*
Y-57500D01*
Y-56700D01*
Y-55900D01*
Y-55100D01*
Y-54300D01*
Y-53500D01*
Y-52700D01*
Y-51900D01*
Y-51100D01*
Y-50300D01*
Y-49500D01*
Y-48700D01*
Y-47900D01*
Y-47100D01*
Y-46300D01*
Y-45500D01*
Y-44700D01*
Y-43900D01*
Y-43100D01*
Y-42300D01*
Y-41500D01*
Y-40700D01*
Y-39900D01*
Y-39100D01*
Y-38300D01*
Y-37500D01*
Y-36700D01*
Y-35900D01*
Y-35100D01*
Y-34300D01*
Y-33500D01*
Y-32700D01*
Y-31900D01*
Y-31100D01*
Y-30300D01*
Y-29500D01*
Y-28700D01*
Y-27900D01*
Y-27100D01*
Y-26300D01*
Y-25500D01*
Y-24700D01*
Y-23900D01*
Y-23100D01*
Y-22300D01*
Y-21500D01*
Y-20700D01*
Y-19900D01*
Y-19100D01*
Y-18300D01*
Y-17500D01*
Y-16700D01*
Y-15900D01*
Y-15100D01*
Y-14300D01*
Y-13500D01*
Y-12700D01*
Y-11900D01*
Y-11100D01*
Y-10300D01*
Y-9500D01*
Y-8700D01*
Y-7900D01*
Y-7100D01*
Y-6300D01*
Y-5500D01*
Y-4700D01*
Y-3900D01*
Y-3100D01*
Y-2300D01*
Y-1500D01*
Y-700D01*
Y100D01*
Y900D01*
D02*
G37*
G36*
X252800Y-112700D02*
X251200D01*
Y-113500D01*
Y-114300D01*
Y-115100D01*
X252800D01*
Y-114300D01*
Y-113500D01*
Y-112700D01*
D02*
G37*
G36*
X219200Y-105500D02*
X218400D01*
Y-106300D01*
X217600D01*
Y-107100D01*
Y-107900D01*
Y-108700D01*
Y-109500D01*
Y-110300D01*
Y-111100D01*
Y-111900D01*
Y-112700D01*
Y-113500D01*
Y-114300D01*
Y-115100D01*
X224000D01*
Y-114300D01*
Y-113500D01*
X223200D01*
Y-112700D01*
Y-111900D01*
X222400D01*
Y-111100D01*
Y-110300D01*
X221600D01*
Y-109500D01*
Y-108700D01*
X220800D01*
Y-107900D01*
X220000D01*
Y-107100D01*
Y-106300D01*
X219200D01*
Y-105500D01*
D02*
G37*
G36*
X211200Y-113500D02*
X209600D01*
Y-114300D01*
Y-115100D01*
X211200D01*
Y-114300D01*
Y-113500D01*
D02*
G37*
G36*
Y-109500D02*
X209600D01*
Y-110300D01*
X208800D01*
Y-111100D01*
X208000D01*
Y-111900D01*
Y-112700D01*
Y-113500D01*
X207200D01*
Y-114300D01*
Y-115100D01*
X208800D01*
Y-114300D01*
Y-113500D01*
Y-112700D01*
X211200D01*
Y-111900D01*
Y-111100D01*
X210400D01*
Y-110300D01*
X211200D01*
Y-109500D01*
D02*
G37*
G36*
X167200Y-113500D02*
X164800D01*
Y-114300D01*
Y-115100D01*
X167200D01*
Y-114300D01*
Y-113500D01*
D02*
G37*
G36*
X158400Y-111900D02*
X157600D01*
Y-112700D01*
X156800D01*
Y-113500D01*
X156000D01*
Y-114300D01*
Y-115100D01*
X158400D01*
Y-114300D01*
Y-113500D01*
Y-112700D01*
Y-111900D01*
D02*
G37*
G36*
X144800Y-112700D02*
X143200D01*
Y-113500D01*
X142400D01*
Y-114300D01*
Y-115100D01*
X148000D01*
Y-114300D01*
Y-113500D01*
X144800D01*
Y-112700D01*
D02*
G37*
G36*
X139200Y900D02*
X27200D01*
Y100D01*
Y-700D01*
Y-1500D01*
Y-2300D01*
Y-3100D01*
Y-3900D01*
Y-4700D01*
Y-5500D01*
Y-6300D01*
Y-7100D01*
Y-7900D01*
Y-8700D01*
Y-9500D01*
Y-10300D01*
Y-11100D01*
Y-11900D01*
Y-12700D01*
Y-13500D01*
Y-14300D01*
Y-15100D01*
Y-15900D01*
Y-16700D01*
Y-17500D01*
Y-18300D01*
Y-19100D01*
Y-19900D01*
Y-20700D01*
Y-21500D01*
Y-22300D01*
Y-23100D01*
Y-23900D01*
Y-24700D01*
Y-25500D01*
Y-26300D01*
Y-27100D01*
Y-27900D01*
Y-28700D01*
Y-29500D01*
Y-30300D01*
Y-31100D01*
Y-31900D01*
Y-32700D01*
Y-33500D01*
Y-34300D01*
Y-35100D01*
Y-35900D01*
Y-36700D01*
Y-37500D01*
Y-38300D01*
Y-39100D01*
Y-39900D01*
Y-40700D01*
Y-41500D01*
Y-42300D01*
Y-43100D01*
Y-43900D01*
Y-44700D01*
Y-45500D01*
Y-46300D01*
Y-47100D01*
Y-47900D01*
Y-48700D01*
Y-49500D01*
Y-50300D01*
Y-51100D01*
Y-51900D01*
Y-52700D01*
Y-53500D01*
Y-54300D01*
Y-55100D01*
Y-55900D01*
Y-56700D01*
Y-57500D01*
Y-58300D01*
Y-59100D01*
Y-59900D01*
Y-60700D01*
Y-61500D01*
Y-62300D01*
Y-63100D01*
Y-63900D01*
Y-64700D01*
Y-65500D01*
Y-66300D01*
Y-67100D01*
Y-67900D01*
Y-68700D01*
Y-69500D01*
Y-70300D01*
Y-71100D01*
Y-71900D01*
Y-72700D01*
Y-73500D01*
Y-74300D01*
Y-75100D01*
Y-75900D01*
Y-76700D01*
Y-77500D01*
Y-78300D01*
Y-79100D01*
Y-79900D01*
Y-80700D01*
Y-81500D01*
Y-82300D01*
Y-83100D01*
Y-83900D01*
Y-84700D01*
Y-85500D01*
Y-86300D01*
Y-87100D01*
Y-87900D01*
Y-88700D01*
Y-89500D01*
Y-90300D01*
Y-91100D01*
Y-91900D01*
Y-92700D01*
Y-93500D01*
Y-94300D01*
Y-95100D01*
Y-95900D01*
Y-96700D01*
Y-97500D01*
Y-98300D01*
Y-99100D01*
Y-99900D01*
Y-100700D01*
Y-101500D01*
Y-102300D01*
Y-103100D01*
Y-103900D01*
Y-104700D01*
Y-105500D01*
Y-106300D01*
Y-107100D01*
Y-107900D01*
Y-108700D01*
Y-109500D01*
Y-110300D01*
Y-111100D01*
Y-111900D01*
Y-112700D01*
Y-113500D01*
Y-114300D01*
Y-115100D01*
X34400D01*
Y-114300D01*
X35200D01*
Y-113500D01*
X36000D01*
Y-112700D01*
X37600D01*
Y-111900D01*
X38400D01*
Y-111100D01*
X39200D01*
Y-110300D01*
X40800D01*
Y-109500D01*
X41600D01*
Y-108700D01*
X43200D01*
Y-107900D01*
X44000D01*
Y-107100D01*
X44800D01*
Y-106300D01*
X45600D01*
Y-105500D01*
X47200D01*
Y-104700D01*
X50400D01*
Y-103900D01*
X52000D01*
Y-103100D01*
X52800D01*
Y-102300D01*
X54400D01*
Y-101500D01*
Y-100700D01*
X56000D01*
Y-101500D01*
X56800D01*
Y-102300D01*
Y-103100D01*
X58400D01*
Y-103900D01*
Y-104700D01*
X59200D01*
Y-105500D01*
X60000D01*
Y-106300D01*
X60800D01*
Y-107100D01*
X61600D01*
Y-107900D01*
Y-108700D01*
X62400D01*
Y-109500D01*
X63200D01*
Y-110300D01*
X64000D01*
Y-111100D01*
Y-111900D01*
X65600D01*
Y-112700D01*
Y-113500D01*
X67200D01*
Y-114300D01*
Y-115100D01*
X92800D01*
Y-114300D01*
Y-113500D01*
Y-112700D01*
Y-111900D01*
Y-111100D01*
Y-110300D01*
Y-109500D01*
Y-108700D01*
Y-107900D01*
Y-107100D01*
Y-106300D01*
Y-105500D01*
Y-104700D01*
X93600D01*
Y-103900D01*
Y-103100D01*
X94400D01*
Y-102300D01*
X95200D01*
Y-101500D01*
Y-100700D01*
Y-99900D01*
X96000D01*
Y-99100D01*
Y-98300D01*
Y-97500D01*
X96800D01*
Y-98300D01*
X97600D01*
Y-99100D01*
X98400D01*
Y-99900D01*
X99200D01*
Y-100700D01*
X100800D01*
Y-101500D01*
X108000D01*
Y-102300D01*
X109600D01*
Y-103100D01*
X112000D01*
Y-103900D01*
X115200D01*
Y-104700D01*
X118400D01*
Y-105500D01*
X120800D01*
Y-106300D01*
X122400D01*
Y-107100D01*
X124000D01*
Y-107900D01*
X125600D01*
Y-108700D01*
X127200D01*
Y-109500D01*
X128800D01*
Y-110300D01*
X132000D01*
Y-111100D01*
X132800D01*
Y-111900D01*
X134400D01*
Y-112700D01*
X135200D01*
Y-113500D01*
Y-114300D01*
Y-115100D01*
X139200D01*
Y-114300D01*
Y-113500D01*
Y-112700D01*
Y-111900D01*
Y-111100D01*
Y-110300D01*
Y-109500D01*
Y-108700D01*
Y-107900D01*
Y-107100D01*
Y-106300D01*
Y-105500D01*
Y-104700D01*
Y-103900D01*
Y-103100D01*
Y-102300D01*
Y-101500D01*
Y-100700D01*
Y-99900D01*
Y-99100D01*
Y-98300D01*
Y-97500D01*
Y-96700D01*
Y-95900D01*
Y-95100D01*
Y-94300D01*
Y-93500D01*
Y-92700D01*
Y-91900D01*
Y-91100D01*
Y-90300D01*
Y-89500D01*
Y-88700D01*
Y-87900D01*
Y-87100D01*
Y-86300D01*
Y-85500D01*
Y-84700D01*
Y-83900D01*
Y-83100D01*
Y-82300D01*
Y-81500D01*
Y-80700D01*
Y-79900D01*
Y-79100D01*
Y-78300D01*
Y-77500D01*
Y-76700D01*
Y-75900D01*
Y-75100D01*
Y-74300D01*
Y-73500D01*
Y-72700D01*
Y-71900D01*
Y-71100D01*
Y-70300D01*
Y-69500D01*
Y-68700D01*
Y-67900D01*
Y-67100D01*
Y-66300D01*
Y-65500D01*
Y-64700D01*
Y-63900D01*
Y-63100D01*
Y-62300D01*
Y-61500D01*
Y-60700D01*
Y-59900D01*
Y-59100D01*
Y-58300D01*
Y-57500D01*
Y-56700D01*
Y-55900D01*
Y-55100D01*
Y-54300D01*
Y-53500D01*
Y-52700D01*
Y-51900D01*
Y-51100D01*
Y-50300D01*
Y-49500D01*
Y-48700D01*
Y-47900D01*
Y-47100D01*
Y-46300D01*
Y-45500D01*
Y-44700D01*
Y-43900D01*
Y-43100D01*
Y-42300D01*
Y-41500D01*
Y-40700D01*
Y-39900D01*
Y-39100D01*
Y-38300D01*
Y-37500D01*
Y-36700D01*
Y-35900D01*
Y-35100D01*
Y-34300D01*
Y-33500D01*
Y-32700D01*
Y-31900D01*
Y-31100D01*
Y-30300D01*
Y-29500D01*
Y-28700D01*
Y-27900D01*
Y-27100D01*
Y-26300D01*
Y-25500D01*
Y-24700D01*
Y-23900D01*
Y-23100D01*
Y-22300D01*
Y-21500D01*
Y-20700D01*
Y-19900D01*
Y-19100D01*
Y-18300D01*
Y-17500D01*
Y-16700D01*
Y-15900D01*
Y-15100D01*
Y-14300D01*
Y-13500D01*
Y-12700D01*
Y-11900D01*
Y-11100D01*
Y-10300D01*
Y-9500D01*
Y-8700D01*
Y-7900D01*
Y-7100D01*
Y-6300D01*
Y-5500D01*
Y-4700D01*
Y-3900D01*
Y-3100D01*
Y-2300D01*
Y-1500D01*
Y-700D01*
Y100D01*
Y900D01*
D02*
G37*
G36*
X56800Y-111900D02*
X56000D01*
Y-112700D01*
Y-113500D01*
Y-114300D01*
Y-115100D01*
X57600D01*
Y-114300D01*
Y-113500D01*
X56800D01*
Y-112700D01*
Y-111900D01*
D02*
G37*
G36*
X70400Y-199900D02*
X69600D01*
Y-200700D01*
Y-201500D01*
X70400D01*
Y-200700D01*
Y-199900D01*
D02*
G37*
G36*
X72000Y-208700D02*
X71200D01*
Y-209500D01*
X70400D01*
Y-210300D01*
X71200D01*
Y-211100D01*
X72000D01*
Y-210300D01*
Y-209500D01*
Y-208700D01*
D02*
G37*
G36*
X54400Y-210300D02*
X52800D01*
Y-211100D01*
X54400D01*
Y-210300D01*
D02*
G37*
G36*
X68800Y-211100D02*
X67200D01*
Y-211900D01*
Y-212700D01*
X68800D01*
Y-213500D01*
X69600D01*
Y-212700D01*
Y-211900D01*
X68800D01*
Y-211100D01*
D02*
G37*
G36*
X55200Y-211900D02*
X52800D01*
Y-212700D01*
Y-213500D01*
Y-214300D01*
X53600D01*
Y-213500D01*
X55200D01*
Y-212700D01*
Y-211900D01*
D02*
G37*
G36*
X72000Y-214300D02*
X70400D01*
Y-215100D01*
Y-215900D01*
Y-216700D01*
Y-217500D01*
X72800D01*
Y-216700D01*
Y-215900D01*
X72000D01*
Y-215100D01*
Y-214300D01*
D02*
G37*
G36*
X102400Y-208700D02*
X100800D01*
Y-209500D01*
X101600D01*
Y-210300D01*
X100000D01*
Y-211100D01*
X99200D01*
Y-211900D01*
Y-212700D01*
X98400D01*
Y-213500D01*
Y-214300D01*
Y-215100D01*
Y-215900D01*
X97600D01*
Y-216700D01*
X96000D01*
Y-217500D01*
Y-218300D01*
X93600D01*
Y-217500D01*
Y-216700D01*
Y-215900D01*
Y-215100D01*
Y-214300D01*
Y-213500D01*
Y-212700D01*
X92800D01*
Y-211900D01*
X91200D01*
Y-212700D01*
X90400D01*
Y-213500D01*
X89600D01*
Y-214300D01*
Y-215100D01*
X88800D01*
Y-215900D01*
Y-216700D01*
X88000D01*
Y-217500D01*
Y-218300D01*
Y-219100D01*
Y-219900D01*
X87200D01*
Y-220700D01*
Y-221500D01*
X86400D01*
Y-222300D01*
Y-223100D01*
Y-223900D01*
X87200D01*
Y-224700D01*
Y-225500D01*
Y-226300D01*
X88800D01*
Y-225500D01*
X89600D01*
Y-224700D01*
X90400D01*
Y-223900D01*
Y-223100D01*
X92000D01*
Y-222300D01*
X93600D01*
Y-221500D01*
X95200D01*
Y-220700D01*
Y-219900D01*
X96000D01*
Y-220700D01*
X97600D01*
Y-219900D01*
X98400D01*
Y-219100D01*
X99200D01*
Y-218300D01*
X100800D01*
Y-217500D01*
X101600D01*
Y-216700D01*
Y-215900D01*
X103200D01*
Y-215100D01*
Y-214300D01*
X102400D01*
Y-213500D01*
X103200D01*
Y-212700D01*
X104000D01*
Y-211900D01*
Y-211100D01*
X103200D01*
Y-210300D01*
X102400D01*
Y-209500D01*
Y-208700D01*
D02*
G37*
G36*
X66400Y-206300D02*
X64800D01*
Y-207100D01*
X64000D01*
Y-207900D01*
X63200D01*
Y-208700D01*
Y-209500D01*
Y-210300D01*
Y-211100D01*
X62400D01*
Y-211900D01*
Y-212700D01*
Y-213500D01*
X61600D01*
Y-214300D01*
Y-215100D01*
X60800D01*
Y-215900D01*
Y-216700D01*
Y-217500D01*
Y-218300D01*
Y-219100D01*
X62400D01*
Y-218300D01*
Y-217500D01*
Y-216700D01*
X64000D01*
Y-215900D01*
Y-215100D01*
X64800D01*
Y-214300D01*
Y-213500D01*
X65600D01*
Y-212700D01*
X64800D01*
Y-211900D01*
X65600D01*
Y-211100D01*
Y-210300D01*
X64800D01*
Y-209500D01*
X65600D01*
Y-208700D01*
Y-207900D01*
X66400D01*
Y-207100D01*
Y-206300D01*
D02*
G37*
G36*
X132000Y-223100D02*
X131200D01*
Y-223900D01*
X132000D01*
Y-223100D01*
D02*
G37*
G36*
X45600Y-217500D02*
X43200D01*
Y-218300D01*
X42400D01*
Y-219100D01*
Y-219900D01*
Y-220700D01*
Y-221500D01*
X43200D01*
Y-222300D01*
X44000D01*
Y-223100D01*
Y-223900D01*
X45600D01*
Y-223100D01*
Y-222300D01*
Y-221500D01*
Y-220700D01*
Y-219900D01*
Y-219100D01*
Y-218300D01*
Y-217500D01*
D02*
G37*
G36*
X120000Y-218300D02*
X118400D01*
Y-219100D01*
Y-219900D01*
Y-220700D01*
X116800D01*
Y-221500D01*
Y-222300D01*
Y-223100D01*
Y-223900D01*
Y-224700D01*
Y-225500D01*
Y-226300D01*
X117600D01*
Y-225500D01*
X118400D01*
Y-224700D01*
Y-223900D01*
Y-223100D01*
Y-222300D01*
Y-221500D01*
X120000D01*
Y-220700D01*
Y-219900D01*
Y-219100D01*
Y-218300D01*
D02*
G37*
G36*
X257600Y-115900D02*
X140000D01*
Y-116700D01*
Y-117500D01*
Y-118300D01*
Y-119100D01*
Y-119900D01*
Y-120700D01*
Y-121500D01*
Y-122300D01*
Y-123100D01*
Y-123900D01*
Y-124700D01*
Y-125500D01*
Y-126300D01*
Y-127100D01*
Y-127900D01*
Y-128700D01*
Y-129500D01*
Y-130300D01*
Y-131100D01*
Y-131900D01*
Y-132700D01*
Y-133500D01*
Y-134300D01*
Y-135100D01*
Y-135900D01*
Y-136700D01*
Y-137500D01*
Y-138300D01*
Y-139100D01*
Y-139900D01*
Y-140700D01*
Y-141500D01*
Y-142300D01*
Y-143100D01*
Y-143900D01*
Y-144700D01*
Y-145500D01*
Y-146300D01*
Y-147100D01*
Y-147900D01*
Y-148700D01*
Y-149500D01*
Y-150300D01*
Y-151100D01*
Y-151900D01*
Y-152700D01*
Y-153500D01*
Y-154300D01*
Y-155100D01*
Y-155900D01*
Y-156700D01*
Y-157500D01*
Y-158300D01*
Y-159100D01*
Y-159900D01*
Y-160700D01*
Y-161500D01*
Y-162300D01*
Y-163100D01*
Y-163900D01*
Y-164700D01*
Y-165500D01*
Y-166300D01*
Y-167100D01*
Y-167900D01*
Y-168700D01*
Y-169500D01*
Y-170300D01*
Y-171100D01*
Y-171900D01*
Y-172700D01*
Y-173500D01*
Y-174300D01*
Y-175100D01*
Y-175900D01*
Y-176700D01*
Y-177500D01*
Y-178300D01*
Y-179100D01*
Y-179900D01*
Y-180700D01*
Y-181500D01*
Y-182300D01*
Y-183100D01*
Y-183900D01*
Y-184700D01*
Y-185500D01*
Y-186300D01*
Y-187100D01*
Y-187900D01*
Y-188700D01*
Y-189500D01*
Y-190300D01*
Y-191100D01*
Y-191900D01*
Y-192700D01*
Y-193500D01*
Y-194300D01*
Y-195100D01*
Y-195900D01*
Y-196700D01*
Y-197500D01*
Y-198300D01*
Y-199100D01*
Y-199900D01*
Y-200700D01*
Y-201500D01*
Y-202300D01*
Y-203100D01*
Y-203900D01*
Y-204700D01*
Y-205500D01*
Y-206300D01*
Y-207100D01*
Y-207900D01*
Y-208700D01*
Y-209500D01*
Y-210300D01*
Y-211100D01*
Y-211900D01*
Y-212700D01*
Y-213500D01*
Y-214300D01*
Y-215100D01*
Y-215900D01*
Y-216700D01*
Y-217500D01*
Y-218300D01*
Y-219100D01*
Y-219900D01*
Y-220700D01*
Y-221500D01*
Y-222300D01*
Y-223100D01*
Y-223900D01*
Y-224700D01*
Y-225500D01*
Y-226300D01*
Y-227100D01*
Y-227900D01*
Y-228700D01*
Y-229500D01*
X141600D01*
Y-228700D01*
Y-227900D01*
Y-227100D01*
X142400D01*
Y-226300D01*
Y-225500D01*
X141600D01*
Y-224700D01*
X142400D01*
Y-223900D01*
Y-223100D01*
Y-222300D01*
Y-221500D01*
X143200D01*
Y-220700D01*
X144000D01*
Y-219900D01*
Y-219100D01*
X144800D01*
Y-218300D01*
X145600D01*
Y-217500D01*
X146400D01*
Y-216700D01*
X147200D01*
Y-215900D01*
X148000D01*
Y-215100D01*
X149600D01*
Y-214300D01*
X150400D01*
Y-213500D01*
X152800D01*
Y-212700D01*
X154400D01*
Y-211900D01*
X156800D01*
Y-211100D01*
X158400D01*
Y-210300D01*
X160800D01*
Y-209500D01*
X162400D01*
Y-208700D01*
X164000D01*
Y-207900D01*
X165600D01*
Y-207100D01*
X167200D01*
Y-206300D01*
X169600D01*
Y-205500D01*
X171200D01*
Y-204700D01*
X173600D01*
Y-203900D01*
X175200D01*
Y-203100D01*
Y-202300D01*
X178400D01*
Y-201500D01*
X179200D01*
Y-200700D01*
Y-199900D01*
Y-199100D01*
X180000D01*
Y-198300D01*
X180800D01*
Y-197500D01*
Y-196700D01*
X181600D01*
Y-195900D01*
X182400D01*
Y-196700D01*
Y-197500D01*
Y-198300D01*
Y-199100D01*
Y-199900D01*
Y-200700D01*
Y-201500D01*
Y-202300D01*
Y-203100D01*
Y-203900D01*
X183200D01*
Y-204700D01*
Y-205500D01*
X184000D01*
Y-206300D01*
Y-207100D01*
X184800D01*
Y-207900D01*
Y-208700D01*
X185600D01*
Y-209500D01*
Y-210300D01*
X186400D01*
Y-211100D01*
Y-211900D01*
Y-212700D01*
Y-213500D01*
X187200D01*
Y-214300D01*
X188000D01*
Y-215100D01*
Y-215900D01*
Y-216700D01*
Y-217500D01*
X188800D01*
Y-218300D01*
X189600D01*
Y-219100D01*
Y-219900D01*
X190400D01*
Y-220700D01*
Y-221500D01*
Y-222300D01*
X192000D01*
Y-223100D01*
Y-223900D01*
X194400D01*
Y-224700D01*
X195200D01*
Y-225500D01*
X196000D01*
Y-226300D01*
X197600D01*
Y-227100D01*
Y-227900D01*
X200000D01*
Y-228700D01*
X203200D01*
Y-227900D01*
X204000D01*
Y-227100D01*
X204800D01*
Y-226300D01*
X205600D01*
Y-225500D01*
Y-224700D01*
X206400D01*
Y-223900D01*
X207200D01*
Y-223100D01*
Y-222300D01*
X208000D01*
Y-221500D01*
Y-220700D01*
Y-219900D01*
X208800D01*
Y-219100D01*
Y-218300D01*
X209600D01*
Y-217500D01*
Y-216700D01*
X210400D01*
Y-215900D01*
Y-215100D01*
X211200D01*
Y-214300D01*
Y-213500D01*
Y-212700D01*
Y-211900D01*
Y-211100D01*
X210400D01*
Y-210300D01*
Y-209500D01*
Y-208700D01*
X211200D01*
Y-207900D01*
Y-207100D01*
X212000D01*
Y-206300D01*
X212800D01*
Y-205500D01*
Y-204700D01*
Y-203900D01*
X213600D01*
Y-203100D01*
Y-202300D01*
Y-201500D01*
Y-200700D01*
Y-199900D01*
X212800D01*
Y-199100D01*
Y-198300D01*
Y-197500D01*
Y-196700D01*
X214400D01*
Y-197500D01*
X216000D01*
Y-198300D01*
X216800D01*
Y-199100D01*
Y-199900D01*
X217600D01*
Y-200700D01*
X218400D01*
Y-201500D01*
Y-202300D01*
X220000D01*
Y-203100D01*
X221600D01*
Y-203900D01*
X222400D01*
Y-204700D01*
X224000D01*
Y-205500D01*
X224800D01*
Y-206300D01*
X226400D01*
Y-207100D01*
X229600D01*
Y-207900D01*
X232000D01*
Y-208700D01*
X234400D01*
Y-209500D01*
X236000D01*
Y-210300D01*
X238400D01*
Y-211100D01*
X239200D01*
Y-211900D01*
X240800D01*
Y-212700D01*
X242400D01*
Y-213500D01*
X244000D01*
Y-214300D01*
X244800D01*
Y-215100D01*
X246400D01*
Y-215900D01*
X247200D01*
Y-216700D01*
X248000D01*
Y-217500D01*
Y-218300D01*
X248800D01*
Y-219100D01*
Y-219900D01*
X249600D01*
Y-220700D01*
Y-221500D01*
X250400D01*
Y-222300D01*
Y-223100D01*
X251200D01*
Y-223900D01*
Y-224700D01*
Y-225500D01*
X252000D01*
Y-226300D01*
Y-227100D01*
Y-227900D01*
X250400D01*
Y-228700D01*
Y-229500D01*
X257600D01*
Y-228700D01*
Y-227900D01*
Y-227100D01*
Y-226300D01*
Y-225500D01*
Y-224700D01*
Y-223900D01*
Y-223100D01*
Y-222300D01*
Y-221500D01*
Y-220700D01*
Y-219900D01*
Y-219100D01*
Y-218300D01*
Y-217500D01*
Y-216700D01*
Y-215900D01*
Y-215100D01*
Y-214300D01*
Y-213500D01*
Y-212700D01*
Y-211900D01*
Y-211100D01*
Y-210300D01*
Y-209500D01*
Y-208700D01*
Y-207900D01*
Y-207100D01*
Y-206300D01*
Y-205500D01*
Y-204700D01*
Y-203900D01*
Y-203100D01*
Y-202300D01*
Y-201500D01*
Y-200700D01*
Y-199900D01*
Y-199100D01*
Y-198300D01*
Y-197500D01*
Y-196700D01*
Y-195900D01*
Y-195100D01*
Y-194300D01*
Y-193500D01*
Y-192700D01*
Y-191900D01*
Y-191100D01*
Y-190300D01*
Y-189500D01*
Y-188700D01*
Y-187900D01*
Y-187100D01*
Y-186300D01*
Y-185500D01*
Y-184700D01*
Y-183900D01*
Y-183100D01*
Y-182300D01*
Y-181500D01*
Y-180700D01*
Y-179900D01*
Y-179100D01*
Y-178300D01*
Y-177500D01*
Y-176700D01*
Y-175900D01*
Y-175100D01*
Y-174300D01*
Y-173500D01*
Y-172700D01*
Y-171900D01*
Y-171100D01*
Y-170300D01*
Y-169500D01*
Y-168700D01*
Y-167900D01*
Y-167100D01*
Y-166300D01*
Y-165500D01*
Y-164700D01*
Y-163900D01*
Y-163100D01*
Y-162300D01*
Y-161500D01*
Y-160700D01*
Y-159900D01*
Y-159100D01*
Y-158300D01*
Y-157500D01*
Y-156700D01*
Y-155900D01*
Y-155100D01*
Y-154300D01*
Y-153500D01*
Y-152700D01*
Y-151900D01*
Y-151100D01*
Y-150300D01*
Y-149500D01*
Y-148700D01*
Y-147900D01*
Y-147100D01*
Y-146300D01*
Y-145500D01*
Y-144700D01*
Y-143900D01*
Y-143100D01*
Y-142300D01*
Y-141500D01*
Y-140700D01*
Y-139900D01*
Y-139100D01*
Y-138300D01*
Y-137500D01*
Y-136700D01*
Y-135900D01*
Y-135100D01*
Y-134300D01*
Y-133500D01*
Y-132700D01*
Y-131900D01*
Y-131100D01*
Y-130300D01*
Y-129500D01*
Y-128700D01*
Y-127900D01*
Y-127100D01*
Y-126300D01*
Y-125500D01*
Y-124700D01*
Y-123900D01*
Y-123100D01*
Y-122300D01*
Y-121500D01*
Y-120700D01*
Y-119900D01*
Y-119100D01*
Y-118300D01*
Y-117500D01*
Y-116700D01*
Y-115900D01*
D02*
G37*
G36*
X139200D02*
X27200D01*
Y-116700D01*
Y-117500D01*
Y-118300D01*
Y-119100D01*
Y-119900D01*
Y-120700D01*
Y-121500D01*
Y-122300D01*
Y-123100D01*
Y-123900D01*
Y-124700D01*
Y-125500D01*
Y-126300D01*
Y-127100D01*
Y-127900D01*
Y-128700D01*
Y-129500D01*
Y-130300D01*
Y-131100D01*
Y-131900D01*
Y-132700D01*
Y-133500D01*
Y-134300D01*
Y-135100D01*
Y-135900D01*
Y-136700D01*
Y-137500D01*
Y-138300D01*
Y-139100D01*
Y-139900D01*
Y-140700D01*
Y-141500D01*
Y-142300D01*
Y-143100D01*
Y-143900D01*
Y-144700D01*
Y-145500D01*
Y-146300D01*
Y-147100D01*
Y-147900D01*
Y-148700D01*
Y-149500D01*
Y-150300D01*
Y-151100D01*
Y-151900D01*
Y-152700D01*
Y-153500D01*
Y-154300D01*
Y-155100D01*
Y-155900D01*
Y-156700D01*
Y-157500D01*
Y-158300D01*
Y-159100D01*
Y-159900D01*
Y-160700D01*
Y-161500D01*
Y-162300D01*
Y-163100D01*
Y-163900D01*
Y-164700D01*
Y-165500D01*
Y-166300D01*
Y-167100D01*
Y-167900D01*
Y-168700D01*
Y-169500D01*
Y-170300D01*
Y-171100D01*
Y-171900D01*
Y-172700D01*
Y-173500D01*
Y-174300D01*
Y-175100D01*
Y-175900D01*
Y-176700D01*
Y-177500D01*
Y-178300D01*
Y-179100D01*
Y-179900D01*
Y-180700D01*
Y-181500D01*
Y-182300D01*
Y-183100D01*
Y-183900D01*
Y-184700D01*
Y-185500D01*
Y-186300D01*
Y-187100D01*
Y-187900D01*
Y-188700D01*
Y-189500D01*
Y-190300D01*
Y-191100D01*
Y-191900D01*
Y-192700D01*
Y-193500D01*
Y-194300D01*
Y-195100D01*
Y-195900D01*
Y-196700D01*
Y-197500D01*
Y-198300D01*
Y-199100D01*
Y-199900D01*
Y-200700D01*
Y-201500D01*
Y-202300D01*
Y-203100D01*
Y-203900D01*
Y-204700D01*
Y-205500D01*
Y-206300D01*
Y-207100D01*
Y-207900D01*
Y-208700D01*
Y-209500D01*
Y-210300D01*
Y-211100D01*
Y-211900D01*
Y-212700D01*
Y-213500D01*
Y-214300D01*
Y-215100D01*
Y-215900D01*
Y-216700D01*
Y-217500D01*
Y-218300D01*
Y-219100D01*
Y-219900D01*
Y-220700D01*
Y-221500D01*
Y-222300D01*
Y-223100D01*
Y-223900D01*
Y-224700D01*
Y-225500D01*
Y-226300D01*
Y-227100D01*
Y-227900D01*
Y-228700D01*
Y-229500D01*
X30400D01*
Y-228700D01*
Y-227900D01*
Y-227100D01*
Y-226300D01*
X31200D01*
Y-225500D01*
X32000D01*
Y-226300D01*
Y-227100D01*
X31200D01*
Y-227900D01*
Y-228700D01*
Y-229500D01*
X33600D01*
Y-228700D01*
Y-227900D01*
Y-227100D01*
Y-226300D01*
Y-225500D01*
Y-224700D01*
Y-223900D01*
Y-223100D01*
X32800D01*
Y-222300D01*
X34400D01*
Y-221500D01*
X35200D01*
Y-222300D01*
Y-223100D01*
Y-223900D01*
Y-224700D01*
X36800D01*
Y-223900D01*
Y-223100D01*
Y-222300D01*
Y-221500D01*
Y-220700D01*
X37600D01*
Y-219900D01*
Y-219100D01*
X36800D01*
Y-218300D01*
Y-217500D01*
X36000D01*
Y-216700D01*
Y-215900D01*
Y-215100D01*
X36800D01*
Y-214300D01*
X38400D01*
Y-213500D01*
X39200D01*
Y-214300D01*
Y-215100D01*
X40800D01*
Y-214300D01*
X41600D01*
Y-213500D01*
X42400D01*
Y-212700D01*
X43200D01*
Y-213500D01*
X44800D01*
Y-212700D01*
Y-211900D01*
X44000D01*
Y-211100D01*
X44800D01*
Y-210300D01*
X46400D01*
Y-209500D01*
X47200D01*
Y-208700D01*
X49600D01*
Y-207900D01*
X50400D01*
Y-207100D01*
X52000D01*
Y-206300D01*
X54400D01*
Y-205500D01*
X56000D01*
Y-206300D01*
X55200D01*
Y-207100D01*
X54400D01*
Y-207900D01*
X53600D01*
Y-208700D01*
Y-209500D01*
X54400D01*
Y-210300D01*
X56000D01*
Y-209500D01*
X57600D01*
Y-208700D01*
Y-207900D01*
X56800D01*
Y-207100D01*
X59200D01*
Y-206300D01*
Y-205500D01*
Y-204700D01*
X60000D01*
Y-203900D01*
X60800D01*
Y-203100D01*
X62400D01*
Y-202300D01*
X64000D01*
Y-201500D01*
X66400D01*
Y-202300D01*
X65600D01*
Y-203100D01*
Y-203900D01*
Y-204700D01*
X67200D01*
Y-203900D01*
X68800D01*
Y-204700D01*
Y-205500D01*
X70400D01*
Y-204700D01*
Y-203900D01*
Y-203100D01*
Y-202300D01*
X67200D01*
Y-201500D01*
X68800D01*
Y-200700D01*
Y-199900D01*
Y-199100D01*
X70400D01*
Y-198300D01*
Y-197500D01*
Y-196700D01*
Y-195900D01*
X71200D01*
Y-195100D01*
Y-194300D01*
X72000D01*
Y-193500D01*
Y-192700D01*
Y-191900D01*
Y-191100D01*
X72800D01*
Y-191900D01*
Y-192700D01*
Y-193500D01*
Y-194300D01*
Y-195100D01*
Y-195900D01*
Y-196700D01*
Y-197500D01*
Y-198300D01*
X73600D01*
Y-199100D01*
Y-199900D01*
Y-200700D01*
Y-201500D01*
X74400D01*
Y-202300D01*
Y-203100D01*
X75200D01*
Y-203900D01*
Y-204700D01*
X76000D01*
Y-205500D01*
Y-206300D01*
X76800D01*
Y-207100D01*
Y-207900D01*
X77600D01*
Y-208700D01*
X78400D01*
Y-209500D01*
X79200D01*
Y-210300D01*
X80000D01*
Y-211100D01*
X81600D01*
Y-210300D01*
Y-209500D01*
Y-208700D01*
X85600D01*
Y-207900D01*
X86400D01*
Y-207100D01*
Y-206300D01*
Y-205500D01*
Y-204700D01*
X85600D01*
Y-203900D01*
X86400D01*
Y-203100D01*
Y-202300D01*
Y-201500D01*
X85600D01*
Y-200700D01*
Y-199900D01*
X84000D01*
Y-199100D01*
X81600D01*
Y-198300D01*
Y-197500D01*
X84800D01*
Y-196700D01*
Y-195900D01*
Y-195100D01*
Y-194300D01*
Y-193500D01*
Y-192700D01*
X81600D01*
Y-191900D01*
X80000D01*
Y-191100D01*
X80800D01*
Y-190300D01*
X81600D01*
Y-189500D01*
X83200D01*
Y-188700D01*
X84000D01*
Y-187900D01*
Y-187100D01*
Y-186300D01*
X83200D01*
Y-185500D01*
X78400D01*
Y-186300D01*
X76000D01*
Y-187100D01*
X75200D01*
Y-186300D01*
Y-185500D01*
X76000D01*
Y-184700D01*
X79200D01*
Y-183900D01*
X83200D01*
Y-183100D01*
Y-182300D01*
Y-181500D01*
X84000D01*
Y-180700D01*
Y-179900D01*
Y-179100D01*
X84800D01*
Y-178300D01*
Y-177500D01*
Y-176700D01*
X84000D01*
Y-175900D01*
Y-175100D01*
Y-174300D01*
X84800D01*
Y-173500D01*
Y-172700D01*
Y-171900D01*
X85600D01*
Y-171100D01*
Y-170300D01*
Y-169500D01*
Y-168700D01*
Y-167900D01*
Y-167100D01*
Y-166300D01*
Y-165500D01*
Y-164700D01*
Y-163900D01*
Y-163100D01*
Y-162300D01*
X84800D01*
Y-161500D01*
Y-160700D01*
X84000D01*
Y-159900D01*
Y-159100D01*
Y-158300D01*
X82400D01*
Y-157500D01*
Y-156700D01*
Y-155900D01*
Y-155100D01*
X84000D01*
Y-154300D01*
X84800D01*
Y-155100D01*
X86400D01*
Y-154300D01*
Y-153500D01*
X88000D01*
Y-152700D01*
X88800D01*
Y-151900D01*
Y-151100D01*
Y-150300D01*
Y-149500D01*
Y-148700D01*
Y-147900D01*
Y-147100D01*
X88000D01*
Y-146300D01*
X85600D01*
Y-145500D01*
X84800D01*
Y-144700D01*
Y-143900D01*
Y-143100D01*
Y-142300D01*
Y-141500D01*
X82400D01*
Y-140700D01*
X80800D01*
Y-139900D01*
X79200D01*
Y-139100D01*
X76000D01*
Y-138300D01*
X72800D01*
Y-139100D01*
X71200D01*
Y-139900D01*
X68800D01*
Y-140700D01*
X67200D01*
Y-139900D01*
X66400D01*
Y-139100D01*
X67200D01*
Y-138300D01*
Y-137500D01*
Y-136700D01*
X66400D01*
Y-135900D01*
X67200D01*
Y-135100D01*
Y-134300D01*
X68000D01*
Y-135100D01*
X69600D01*
Y-134300D01*
X70400D01*
Y-133500D01*
X71200D01*
Y-134300D01*
X72800D01*
Y-135100D01*
X76000D01*
Y-135900D01*
X77600D01*
Y-135100D01*
X78400D01*
Y-134300D01*
X79200D01*
Y-135100D01*
Y-135900D01*
X80800D01*
Y-135100D01*
Y-134300D01*
X81600D01*
Y-135100D01*
X83200D01*
Y-134300D01*
X84000D01*
Y-133500D01*
X85600D01*
Y-132700D01*
X88000D01*
Y-131900D01*
X91200D01*
Y-131100D01*
Y-130300D01*
Y-129500D01*
X86400D01*
Y-128700D01*
X95200D01*
Y-129500D01*
X97600D01*
Y-130300D01*
X98400D01*
Y-131100D01*
X100000D01*
Y-131900D01*
X100800D01*
Y-132700D01*
X101600D01*
Y-133500D01*
X102400D01*
Y-134300D01*
X104000D01*
Y-135100D01*
Y-135900D01*
X104800D01*
Y-136700D01*
X105600D01*
Y-137500D01*
Y-138300D01*
X106400D01*
Y-139100D01*
Y-139900D01*
X107200D01*
Y-140700D01*
Y-141500D01*
Y-142300D01*
X108000D01*
Y-143100D01*
Y-143900D01*
Y-144700D01*
X108800D01*
Y-145500D01*
Y-146300D01*
Y-147100D01*
Y-147900D01*
Y-148700D01*
X109600D01*
Y-149500D01*
Y-150300D01*
Y-151100D01*
X108800D01*
Y-151900D01*
Y-152700D01*
Y-153500D01*
Y-154300D01*
Y-155100D01*
Y-155900D01*
Y-156700D01*
Y-157500D01*
Y-158300D01*
X108000D01*
Y-159100D01*
Y-159900D01*
Y-160700D01*
Y-161500D01*
Y-162300D01*
X108800D01*
Y-163100D01*
X112000D01*
Y-163900D01*
X111200D01*
Y-164700D01*
Y-165500D01*
Y-166300D01*
Y-167100D01*
Y-167900D01*
Y-168700D01*
Y-169500D01*
X110400D01*
Y-170300D01*
Y-171100D01*
Y-171900D01*
Y-172700D01*
X109600D01*
Y-173500D01*
Y-174300D01*
X108000D01*
Y-175100D01*
X107200D01*
Y-175900D01*
X105600D01*
Y-176700D01*
X104800D01*
Y-177500D01*
Y-178300D01*
X104000D01*
Y-179100D01*
Y-179900D01*
Y-180700D01*
Y-181500D01*
X103200D01*
Y-182300D01*
Y-183100D01*
Y-183900D01*
Y-184700D01*
Y-185500D01*
Y-186300D01*
X102400D01*
Y-187100D01*
Y-187900D01*
X103200D01*
Y-188700D01*
Y-189500D01*
Y-190300D01*
Y-191100D01*
X104000D01*
Y-191900D01*
X104800D01*
Y-192700D01*
X106400D01*
Y-193500D01*
X107200D01*
Y-194300D01*
X108000D01*
Y-195100D01*
X108800D01*
Y-195900D01*
Y-196700D01*
X109600D01*
Y-197500D01*
X110400D01*
Y-198300D01*
X112000D01*
Y-199100D01*
X113600D01*
Y-199900D01*
X116000D01*
Y-200700D01*
X117600D01*
Y-201500D01*
X118400D01*
Y-202300D01*
X119200D01*
Y-203100D01*
X120800D01*
Y-203900D01*
Y-204700D01*
X121600D01*
Y-205500D01*
X122400D01*
Y-206300D01*
X123200D01*
Y-207100D01*
X124000D01*
Y-207900D01*
X124800D01*
Y-208700D01*
X125600D01*
Y-209500D01*
X126400D01*
Y-210300D01*
X127200D01*
Y-211100D01*
X128000D01*
Y-211900D01*
X128800D01*
Y-212700D01*
X129600D01*
Y-213500D01*
X130400D01*
Y-214300D01*
X131200D01*
Y-215100D01*
X132000D01*
Y-215900D01*
Y-216700D01*
X132800D01*
Y-217500D01*
X133600D01*
Y-218300D01*
Y-219100D01*
X134400D01*
Y-219900D01*
X135200D01*
Y-220700D01*
Y-221500D01*
X136000D01*
Y-222300D01*
Y-223100D01*
Y-223900D01*
X135200D01*
Y-224700D01*
Y-225500D01*
X136000D01*
Y-226300D01*
Y-227100D01*
Y-227900D01*
X136800D01*
Y-228700D01*
X136000D01*
Y-229500D01*
X139200D01*
Y-228700D01*
Y-227900D01*
Y-227100D01*
Y-226300D01*
Y-225500D01*
Y-224700D01*
Y-223900D01*
Y-223100D01*
Y-222300D01*
Y-221500D01*
Y-220700D01*
Y-219900D01*
Y-219100D01*
Y-218300D01*
Y-217500D01*
Y-216700D01*
Y-215900D01*
Y-215100D01*
Y-214300D01*
Y-213500D01*
Y-212700D01*
Y-211900D01*
Y-211100D01*
Y-210300D01*
Y-209500D01*
Y-208700D01*
Y-207900D01*
Y-207100D01*
Y-206300D01*
Y-205500D01*
Y-204700D01*
Y-203900D01*
Y-203100D01*
Y-202300D01*
Y-201500D01*
Y-200700D01*
Y-199900D01*
Y-199100D01*
Y-198300D01*
Y-197500D01*
Y-196700D01*
Y-195900D01*
Y-195100D01*
Y-194300D01*
Y-193500D01*
Y-192700D01*
Y-191900D01*
Y-191100D01*
Y-190300D01*
Y-189500D01*
Y-188700D01*
Y-187900D01*
Y-187100D01*
Y-186300D01*
Y-185500D01*
Y-184700D01*
Y-183900D01*
Y-183100D01*
Y-182300D01*
Y-181500D01*
Y-180700D01*
Y-179900D01*
Y-179100D01*
Y-178300D01*
Y-177500D01*
Y-176700D01*
Y-175900D01*
Y-175100D01*
Y-174300D01*
Y-173500D01*
Y-172700D01*
Y-171900D01*
Y-171100D01*
Y-170300D01*
Y-169500D01*
Y-168700D01*
Y-167900D01*
Y-167100D01*
Y-166300D01*
Y-165500D01*
Y-164700D01*
Y-163900D01*
Y-163100D01*
Y-162300D01*
Y-161500D01*
Y-160700D01*
Y-159900D01*
Y-159100D01*
Y-158300D01*
Y-157500D01*
Y-156700D01*
Y-155900D01*
Y-155100D01*
Y-154300D01*
Y-153500D01*
Y-152700D01*
Y-151900D01*
Y-151100D01*
Y-150300D01*
Y-149500D01*
Y-148700D01*
Y-147900D01*
Y-147100D01*
Y-146300D01*
Y-145500D01*
Y-144700D01*
Y-143900D01*
Y-143100D01*
Y-142300D01*
Y-141500D01*
Y-140700D01*
Y-139900D01*
Y-139100D01*
Y-138300D01*
Y-137500D01*
Y-136700D01*
Y-135900D01*
Y-135100D01*
Y-134300D01*
Y-133500D01*
Y-132700D01*
Y-131900D01*
Y-131100D01*
Y-130300D01*
Y-129500D01*
Y-128700D01*
Y-127900D01*
Y-127100D01*
Y-126300D01*
Y-125500D01*
Y-124700D01*
Y-123900D01*
Y-123100D01*
Y-122300D01*
Y-121500D01*
Y-120700D01*
Y-119900D01*
Y-119100D01*
Y-118300D01*
Y-117500D01*
Y-116700D01*
Y-115900D01*
D02*
G37*
G36*
X131200Y-223900D02*
X130400D01*
Y-224700D01*
X128000D01*
Y-225500D01*
Y-226300D01*
X130400D01*
Y-227100D01*
Y-227900D01*
X129600D01*
Y-228700D01*
Y-229500D01*
X132000D01*
Y-228700D01*
Y-227900D01*
Y-227100D01*
X132800D01*
Y-226300D01*
Y-225500D01*
X132000D01*
Y-224700D01*
X131200D01*
Y-223900D01*
D02*
G37*
%LPD*%
G36*
X197600Y-15900D02*
X200000D01*
Y-16700D01*
X202400D01*
Y-15900D01*
X203200D01*
Y-16700D01*
X205600D01*
Y-17500D01*
X212800D01*
Y-18300D01*
X214400D01*
Y-19100D01*
X215200D01*
Y-19900D01*
X216000D01*
Y-20700D01*
Y-21500D01*
X217600D01*
Y-22300D01*
X218400D01*
Y-23100D01*
X220000D01*
Y-23900D01*
Y-24700D01*
X219200D01*
Y-23900D01*
X217600D01*
Y-24700D01*
Y-25500D01*
X219200D01*
Y-26300D01*
X220000D01*
Y-27100D01*
X221600D01*
Y-26300D01*
X222400D01*
Y-27100D01*
X224000D01*
Y-27900D01*
X224800D01*
Y-28700D01*
X226400D01*
Y-29500D01*
Y-30300D01*
X227200D01*
Y-31100D01*
Y-31900D01*
X228000D01*
Y-32700D01*
Y-33500D01*
X228800D01*
Y-34300D01*
Y-35100D01*
X229600D01*
Y-35900D01*
X230400D01*
Y-36700D01*
Y-37500D01*
Y-38300D01*
Y-39100D01*
Y-39900D01*
Y-40700D01*
X231200D01*
Y-41500D01*
Y-42300D01*
Y-43100D01*
Y-43900D01*
Y-44700D01*
Y-45500D01*
X230400D01*
Y-46300D01*
X228800D01*
Y-47100D01*
Y-47900D01*
X228000D01*
Y-48700D01*
X227200D01*
Y-49500D01*
Y-50300D01*
X228000D01*
Y-51100D01*
X227200D01*
Y-51900D01*
Y-52700D01*
Y-53500D01*
X228000D01*
Y-54300D01*
X227200D01*
Y-55100D01*
X226400D01*
Y-55900D01*
X225600D01*
Y-56700D01*
Y-57500D01*
X224800D01*
Y-56700D01*
Y-55900D01*
X223200D01*
Y-56700D01*
X222400D01*
Y-57500D01*
X221600D01*
Y-58300D01*
X220800D01*
Y-59100D01*
Y-59900D01*
X221600D01*
Y-60700D01*
X219200D01*
Y-59900D01*
X217600D01*
Y-59100D01*
Y-58300D01*
X216000D01*
Y-57500D01*
X212800D01*
Y-58300D01*
X207200D01*
Y-59100D01*
Y-59900D01*
X206400D01*
Y-60700D01*
Y-61500D01*
Y-62300D01*
X204800D01*
Y-63100D01*
Y-63900D01*
X205600D01*
Y-64700D01*
X206400D01*
Y-65500D01*
X219200D01*
Y-64700D01*
X220800D01*
Y-63900D01*
X222400D01*
Y-63100D01*
Y-62300D01*
Y-61500D01*
X223200D01*
Y-60700D01*
Y-59900D01*
Y-59100D01*
X224000D01*
Y-58300D01*
Y-57500D01*
X224800D01*
Y-58300D01*
Y-59100D01*
Y-59900D01*
X224000D01*
Y-60700D01*
Y-61500D01*
Y-62300D01*
Y-63100D01*
X223200D01*
Y-63900D01*
Y-64700D01*
X222400D01*
Y-65500D01*
X221600D01*
Y-66300D01*
X219200D01*
Y-67100D01*
X216800D01*
Y-67900D01*
X211200D01*
Y-67100D01*
X209600D01*
Y-67900D01*
X208800D01*
Y-67100D01*
X205600D01*
Y-67900D01*
Y-68700D01*
X206400D01*
Y-69500D01*
Y-70300D01*
X204800D01*
Y-71100D01*
Y-71900D01*
Y-72700D01*
Y-73500D01*
Y-74300D01*
Y-75100D01*
X203200D01*
Y-75900D01*
X202400D01*
Y-76700D01*
Y-77500D01*
Y-78300D01*
X203200D01*
Y-79100D01*
X202400D01*
Y-79900D01*
Y-80700D01*
X204000D01*
Y-81500D01*
X201600D01*
Y-80700D01*
Y-79900D01*
Y-79100D01*
X200800D01*
Y-78300D01*
X200000D01*
Y-77500D01*
Y-76700D01*
X199200D01*
Y-75900D01*
Y-75100D01*
X194400D01*
Y-74300D01*
Y-73500D01*
X195200D01*
Y-72700D01*
X198400D01*
Y-71900D01*
X202400D01*
Y-72700D01*
Y-73500D01*
X204000D01*
Y-72700D01*
Y-71900D01*
X203200D01*
Y-71100D01*
X202400D01*
Y-70300D01*
X201600D01*
Y-69500D01*
X199200D01*
Y-68700D01*
Y-67900D01*
X198400D01*
Y-67100D01*
X197600D01*
Y-66300D01*
X196800D01*
Y-65500D01*
Y-64700D01*
Y-63900D01*
Y-63100D01*
Y-62300D01*
X196000D01*
Y-61500D01*
Y-60700D01*
X196800D01*
Y-59900D01*
Y-59100D01*
X197600D01*
Y-58300D01*
Y-57500D01*
X196800D01*
Y-56700D01*
Y-55900D01*
Y-55100D01*
Y-54300D01*
Y-53500D01*
X195200D01*
Y-52700D01*
X194400D01*
Y-53500D01*
X193600D01*
Y-52700D01*
X192000D01*
Y-53500D01*
Y-54300D01*
Y-55100D01*
X192800D01*
Y-55900D01*
Y-56700D01*
Y-57500D01*
Y-58300D01*
X192000D01*
Y-59100D01*
Y-59900D01*
Y-60700D01*
X191200D01*
Y-61500D01*
X190400D01*
Y-62300D01*
Y-63100D01*
X189600D01*
Y-63900D01*
Y-64700D01*
X188800D01*
Y-65500D01*
X186400D01*
Y-66300D01*
X176000D01*
Y-65500D01*
X172800D01*
Y-64700D01*
X170400D01*
Y-63900D01*
X169600D01*
Y-63100D01*
X168800D01*
Y-62300D01*
X168000D01*
Y-61500D01*
Y-60700D01*
Y-59900D01*
X167200D01*
Y-59100D01*
Y-58300D01*
Y-57500D01*
Y-56700D01*
X166400D01*
Y-55900D01*
Y-55100D01*
Y-54300D01*
Y-53500D01*
Y-52700D01*
Y-51900D01*
Y-51100D01*
X167200D01*
Y-50300D01*
X170400D01*
Y-49500D01*
X169600D01*
Y-48700D01*
X167200D01*
Y-47900D01*
X168800D01*
Y-47100D01*
X169600D01*
Y-47900D01*
Y-48700D01*
X171200D01*
Y-47900D01*
X175200D01*
Y-48700D01*
X177600D01*
Y-49500D01*
X175200D01*
Y-50300D01*
Y-51100D01*
X177600D01*
Y-50300D01*
X178400D01*
Y-49500D01*
Y-48700D01*
X177600D01*
Y-47900D01*
X178400D01*
Y-47100D01*
Y-46300D01*
X177600D01*
Y-45500D01*
X179200D01*
Y-44700D01*
X181600D01*
Y-45500D01*
X187200D01*
Y-46300D01*
X188000D01*
Y-47100D01*
X189600D01*
Y-47900D01*
X190400D01*
Y-48700D01*
Y-49500D01*
X191200D01*
Y-50300D01*
X192000D01*
Y-51100D01*
X193600D01*
Y-51900D01*
X194400D01*
Y-51100D01*
X198400D01*
Y-50300D01*
X200000D01*
Y-49500D01*
X200800D01*
Y-48700D01*
X201600D01*
Y-47900D01*
X202400D01*
Y-47100D01*
X203200D01*
Y-46300D01*
X205600D01*
Y-45500D01*
X216800D01*
Y-44700D01*
Y-43900D01*
X215200D01*
Y-43100D01*
X214400D01*
Y-42300D01*
X212800D01*
Y-41500D01*
X210400D01*
Y-40700D01*
X208800D01*
Y-39900D01*
X205600D01*
Y-39100D01*
X204000D01*
Y-38300D01*
X203200D01*
Y-37500D01*
X202400D01*
Y-36700D01*
Y-35900D01*
X200000D01*
Y-35100D01*
X199200D01*
Y-34300D01*
X197600D01*
Y-33500D01*
X196800D01*
Y-32700D01*
Y-31900D01*
X196000D01*
Y-31100D01*
X194400D01*
Y-30300D01*
X192800D01*
Y-29500D01*
Y-28700D01*
X191200D01*
Y-27900D01*
X189600D01*
Y-27100D01*
X188800D01*
Y-26300D01*
Y-25500D01*
X184000D01*
Y-24700D01*
X178400D01*
Y-25500D01*
X176800D01*
Y-26300D01*
X176000D01*
Y-27100D01*
X175200D01*
Y-27900D01*
X174400D01*
Y-28700D01*
Y-29500D01*
X173600D01*
Y-30300D01*
X172800D01*
Y-31100D01*
X172000D01*
Y-31900D01*
X170400D01*
Y-31100D01*
X169600D01*
Y-30300D01*
Y-29500D01*
X168000D01*
Y-28700D01*
Y-27900D01*
Y-27100D01*
Y-26300D01*
Y-25500D01*
X168800D01*
Y-24700D01*
Y-23900D01*
X169600D01*
Y-23100D01*
Y-22300D01*
X170400D01*
Y-21500D01*
X171200D01*
Y-20700D01*
X172000D01*
Y-19900D01*
Y-19100D01*
X173600D01*
Y-18300D01*
X179200D01*
Y-19100D01*
X183200D01*
Y-19900D01*
X186400D01*
Y-20700D01*
X191200D01*
Y-21500D01*
X192000D01*
Y-22300D01*
X194400D01*
Y-21500D01*
X195200D01*
Y-22300D01*
X196800D01*
Y-21500D01*
Y-20700D01*
X195200D01*
Y-19900D01*
X192800D01*
Y-19100D01*
X199200D01*
Y-19900D01*
X200800D01*
Y-19100D01*
X201600D01*
Y-19900D01*
X204000D01*
Y-19100D01*
X203200D01*
Y-18300D01*
X202400D01*
Y-17500D01*
X196800D01*
Y-16700D01*
X195200D01*
Y-15900D01*
X196800D01*
Y-15100D01*
X197600D01*
Y-15900D01*
D02*
G37*
G36*
X177600Y-47100D02*
X176000D01*
Y-46300D01*
X177600D01*
Y-47100D01*
D02*
G37*
G36*
X189600Y-67100D02*
Y-67900D01*
X188000D01*
Y-67100D01*
X188800D01*
Y-66300D01*
X189600D01*
Y-67100D01*
D02*
G37*
G36*
X191200Y-72700D02*
X192800D01*
Y-73500D01*
X192000D01*
Y-74300D01*
X190400D01*
Y-75100D01*
Y-75900D01*
X188800D01*
Y-75100D01*
X188000D01*
Y-74300D01*
X188800D01*
Y-73500D01*
X188000D01*
Y-72700D01*
X188800D01*
Y-71900D01*
X191200D01*
Y-72700D01*
D02*
G37*
G36*
X200800Y-83900D02*
X205600D01*
Y-84700D01*
X207200D01*
Y-85500D01*
Y-86300D01*
Y-87100D01*
X205600D01*
Y-87900D01*
X204800D01*
Y-87100D01*
X192000D01*
Y-86300D01*
X188000D01*
Y-85500D01*
X181600D01*
Y-84700D01*
Y-83900D01*
X182400D01*
Y-83100D01*
X184800D01*
Y-83900D01*
X188800D01*
Y-83100D01*
X194400D01*
Y-83900D01*
X196000D01*
Y-83100D01*
X200800D01*
Y-83900D01*
D02*
G37*
G36*
X173600Y-90300D02*
Y-91100D01*
X172800D01*
Y-90300D01*
Y-89500D01*
X173600D01*
Y-90300D01*
D02*
G37*
G36*
X172800Y-91900D02*
X172000D01*
Y-91100D01*
X172800D01*
Y-91900D01*
D02*
G37*
G36*
X194400D02*
X197600D01*
Y-92700D01*
X199200D01*
Y-93500D01*
X200000D01*
Y-94300D01*
X199200D01*
Y-95100D01*
X196800D01*
Y-94300D01*
X195200D01*
Y-93500D01*
X194400D01*
Y-92700D01*
X192000D01*
Y-91900D01*
X192800D01*
Y-91100D01*
X194400D01*
Y-91900D01*
D02*
G37*
G36*
X164800Y-95900D02*
X164000D01*
Y-95100D01*
X164800D01*
Y-95900D01*
D02*
G37*
G36*
X148000Y-103100D02*
Y-103900D01*
X147200D01*
Y-104700D01*
X146400D01*
Y-103900D01*
Y-103100D01*
X147200D01*
Y-102300D01*
X148000D01*
Y-103100D01*
D02*
G37*
G36*
X150400Y-104700D02*
Y-105500D01*
Y-106300D01*
Y-107100D01*
X148800D01*
Y-106300D01*
Y-105500D01*
Y-104700D01*
Y-103900D01*
X150400D01*
Y-104700D01*
D02*
G37*
%LPC*%
G36*
X208800Y-19100D02*
X206400D01*
Y-19900D01*
Y-20700D01*
X208800D01*
Y-19900D01*
Y-19100D01*
D02*
G37*
G36*
X216000Y-21500D02*
X215200D01*
Y-22300D01*
Y-23100D01*
X216800D01*
Y-22300D01*
X216000D01*
Y-21500D01*
D02*
G37*
G36*
X225600Y-29500D02*
X223200D01*
Y-30300D01*
Y-31100D01*
X224000D01*
Y-31900D01*
X226400D01*
Y-31100D01*
Y-30300D01*
X225600D01*
Y-29500D01*
D02*
G37*
G36*
X220800Y-44700D02*
X220000D01*
Y-45500D01*
X219200D01*
Y-44700D01*
X217600D01*
Y-45500D01*
Y-46300D01*
X219200D01*
Y-47100D01*
X220000D01*
Y-47900D01*
X220800D01*
Y-48700D01*
Y-49500D01*
X224000D01*
Y-48700D01*
X223200D01*
Y-47900D01*
X222400D01*
Y-47100D01*
Y-46300D01*
X221600D01*
Y-45500D01*
X220800D01*
Y-44700D01*
D02*
G37*
G36*
X213600Y-49500D02*
X210400D01*
Y-50300D01*
Y-51100D01*
X213600D01*
Y-51900D01*
X216800D01*
Y-51100D01*
Y-50300D01*
X213600D01*
Y-49500D01*
D02*
G37*
G36*
X173600Y-51900D02*
X170400D01*
Y-52700D01*
X169600D01*
Y-53500D01*
X168800D01*
Y-52700D01*
X167200D01*
Y-53500D01*
Y-54300D01*
X168000D01*
Y-55100D01*
Y-55900D01*
Y-56700D01*
Y-57500D01*
Y-58300D01*
X168800D01*
Y-59100D01*
Y-59900D01*
Y-60700D01*
X169600D01*
Y-61500D01*
Y-62300D01*
X170400D01*
Y-63100D01*
X171200D01*
Y-63900D01*
X174400D01*
Y-64700D01*
X186400D01*
Y-63900D01*
X188000D01*
Y-63100D01*
X188800D01*
Y-62300D01*
X189600D01*
Y-61500D01*
Y-60700D01*
Y-59900D01*
X188000D01*
Y-60700D01*
X185600D01*
Y-59900D01*
X184800D01*
Y-59100D01*
Y-58300D01*
Y-57500D01*
X181600D01*
Y-56700D01*
X179200D01*
Y-55900D01*
X173600D01*
Y-55100D01*
Y-54300D01*
X174400D01*
Y-53500D01*
Y-52700D01*
X173600D01*
Y-51900D01*
D02*
G37*
G36*
X180800Y-53500D02*
X178400D01*
Y-54300D01*
Y-55100D01*
X180800D01*
Y-54300D01*
Y-53500D01*
D02*
G37*
%LPD*%
G36*
X70400Y-60700D02*
Y-61500D01*
X69600D01*
Y-60700D01*
Y-59900D01*
X70400D01*
Y-60700D01*
D02*
G37*
G36*
X81600Y-62300D02*
X80800D01*
Y-61500D01*
X81600D01*
Y-62300D01*
D02*
G37*
G36*
X52000Y-63900D02*
X50400D01*
Y-63100D01*
X52000D01*
Y-63900D01*
D02*
G37*
G36*
X75200Y-23100D02*
X85600D01*
Y-23900D01*
X88000D01*
Y-24700D01*
X89600D01*
Y-25500D01*
X91200D01*
Y-26300D01*
X92000D01*
Y-27100D01*
X92800D01*
Y-27900D01*
X94400D01*
Y-28700D01*
X96800D01*
Y-29500D01*
X99200D01*
Y-30300D01*
Y-31100D01*
X100000D01*
Y-31900D01*
Y-32700D01*
Y-33500D01*
X100800D01*
Y-34300D01*
Y-35100D01*
X101600D01*
Y-35900D01*
X102400D01*
Y-36700D01*
X103200D01*
Y-37500D01*
Y-38300D01*
Y-39100D01*
Y-39900D01*
Y-40700D01*
Y-41500D01*
Y-42300D01*
X104000D01*
Y-43100D01*
X104800D01*
Y-43900D01*
Y-44700D01*
Y-45500D01*
Y-46300D01*
X105600D01*
Y-47100D01*
Y-47900D01*
Y-48700D01*
Y-49500D01*
Y-50300D01*
Y-51100D01*
Y-51900D01*
Y-52700D01*
Y-53500D01*
Y-54300D01*
Y-55100D01*
Y-55900D01*
Y-56700D01*
X104800D01*
Y-57500D01*
Y-58300D01*
Y-59100D01*
X104000D01*
Y-59900D01*
Y-60700D01*
X103200D01*
Y-61500D01*
Y-62300D01*
Y-63100D01*
X102400D01*
Y-63900D01*
Y-64700D01*
Y-65500D01*
Y-66300D01*
X101600D01*
Y-67100D01*
Y-67900D01*
Y-68700D01*
Y-69500D01*
Y-70300D01*
Y-71100D01*
Y-71900D01*
Y-72700D01*
X100800D01*
Y-71900D01*
Y-71100D01*
Y-70300D01*
Y-69500D01*
X100000D01*
Y-68700D01*
X100800D01*
Y-67900D01*
Y-67100D01*
X100000D01*
Y-66300D01*
Y-65500D01*
Y-64700D01*
Y-63900D01*
X100800D01*
Y-64700D01*
X101600D01*
Y-63900D01*
Y-63100D01*
X100800D01*
Y-62300D01*
Y-61500D01*
Y-60700D01*
Y-59900D01*
X99200D01*
Y-60700D01*
Y-61500D01*
Y-62300D01*
Y-63100D01*
X97600D01*
Y-62300D01*
X95200D01*
Y-61500D01*
X89600D01*
Y-62300D01*
X86400D01*
Y-61500D01*
X87200D01*
Y-60700D01*
X88800D01*
Y-59900D01*
Y-59100D01*
Y-58300D01*
X90400D01*
Y-57500D01*
Y-56700D01*
Y-55900D01*
X89600D01*
Y-55100D01*
X88800D01*
Y-54300D01*
Y-53500D01*
X86400D01*
Y-54300D01*
Y-55100D01*
Y-55900D01*
X84800D01*
Y-56700D01*
X84000D01*
Y-57500D01*
Y-58300D01*
Y-59100D01*
Y-59900D01*
Y-60700D01*
X82400D01*
Y-61500D01*
X81600D01*
Y-60700D01*
Y-59900D01*
X82400D01*
Y-59100D01*
X81600D01*
Y-58300D01*
X80800D01*
Y-59100D01*
Y-59900D01*
X79200D01*
Y-59100D01*
Y-58300D01*
X77600D01*
Y-59100D01*
Y-59900D01*
Y-60700D01*
Y-61500D01*
Y-62300D01*
Y-63100D01*
Y-63900D01*
X76800D01*
Y-63100D01*
Y-62300D01*
Y-61500D01*
Y-60700D01*
Y-59900D01*
Y-59100D01*
Y-58300D01*
X75200D01*
Y-57500D01*
Y-56700D01*
Y-55900D01*
X74400D01*
Y-55100D01*
Y-54300D01*
Y-53500D01*
X73600D01*
Y-52700D01*
X72000D01*
Y-51900D01*
X70400D01*
Y-52700D01*
Y-53500D01*
Y-54300D01*
Y-55100D01*
Y-55900D01*
Y-56700D01*
X69600D01*
Y-55900D01*
X68000D01*
Y-55100D01*
Y-54300D01*
Y-53500D01*
Y-52700D01*
X67200D01*
Y-51900D01*
Y-51100D01*
X66400D01*
Y-50300D01*
Y-49500D01*
X65600D01*
Y-50300D01*
X64000D01*
Y-51100D01*
Y-51900D01*
X63200D01*
Y-52700D01*
Y-53500D01*
Y-54300D01*
Y-55100D01*
Y-55900D01*
Y-56700D01*
Y-57500D01*
X64000D01*
Y-58300D01*
Y-59100D01*
Y-59900D01*
X62400D01*
Y-60700D01*
Y-61500D01*
X64000D01*
Y-62300D01*
X60000D01*
Y-61500D01*
X57600D01*
Y-62300D01*
X54400D01*
Y-63100D01*
X52000D01*
Y-62300D01*
Y-61500D01*
X51200D01*
Y-60700D01*
X50400D01*
Y-61500D01*
X49600D01*
Y-62300D01*
Y-63100D01*
Y-63900D01*
X50400D01*
Y-64700D01*
Y-65500D01*
Y-66300D01*
Y-67100D01*
Y-67900D01*
Y-68700D01*
X49600D01*
Y-69500D01*
Y-70300D01*
Y-71100D01*
Y-71900D01*
Y-72700D01*
Y-73500D01*
Y-74300D01*
X48800D01*
Y-73500D01*
Y-72700D01*
Y-71900D01*
X47200D01*
Y-71100D01*
Y-70300D01*
Y-69500D01*
X48800D01*
Y-68700D01*
Y-67900D01*
X47200D01*
Y-68700D01*
X46400D01*
Y-67900D01*
X45600D01*
Y-67100D01*
Y-66300D01*
Y-65500D01*
X44800D01*
Y-64700D01*
Y-63900D01*
Y-63100D01*
Y-62300D01*
X45600D01*
Y-61500D01*
Y-60700D01*
Y-59900D01*
Y-59100D01*
X44800D01*
Y-58300D01*
X44000D01*
Y-57500D01*
X44800D01*
Y-56700D01*
X45600D01*
Y-55900D01*
X46400D01*
Y-55100D01*
Y-54300D01*
X45600D01*
Y-53500D01*
X44800D01*
Y-52700D01*
X44000D01*
Y-51900D01*
Y-51100D01*
Y-50300D01*
Y-49500D01*
Y-48700D01*
X44800D01*
Y-47900D01*
Y-47100D01*
X45600D01*
Y-46300D01*
Y-45500D01*
Y-44700D01*
Y-43900D01*
X46400D01*
Y-43100D01*
Y-42300D01*
X47200D01*
Y-41500D01*
Y-40700D01*
Y-39900D01*
Y-39100D01*
X48000D01*
Y-38300D01*
Y-37500D01*
X48800D01*
Y-36700D01*
X49600D01*
Y-35900D01*
X50400D01*
Y-35100D01*
X51200D01*
Y-34300D01*
X52800D01*
Y-33500D01*
X53600D01*
Y-32700D01*
X54400D01*
Y-31900D01*
X55200D01*
Y-31100D01*
X56800D01*
Y-30300D01*
X58400D01*
Y-29500D01*
X59200D01*
Y-28700D01*
X60800D01*
Y-27900D01*
X62400D01*
Y-27100D01*
X64000D01*
Y-26300D01*
X64800D01*
Y-25500D01*
X67200D01*
Y-24700D01*
X69600D01*
Y-23900D01*
X72000D01*
Y-23100D01*
X72800D01*
Y-22300D01*
X75200D01*
Y-23100D01*
D02*
G37*
G36*
X86400Y-63100D02*
X84800D01*
Y-63900D01*
X84000D01*
Y-64700D01*
X82400D01*
Y-63900D01*
X83200D01*
Y-63100D01*
X84000D01*
Y-62300D01*
X86400D01*
Y-63100D01*
D02*
G37*
G36*
X82400Y-65500D02*
X81600D01*
Y-64700D01*
X82400D01*
Y-65500D01*
D02*
G37*
G36*
X81600Y-66300D02*
X80800D01*
Y-65500D01*
X81600D01*
Y-66300D01*
D02*
G37*
G36*
X80800Y-67100D02*
Y-67900D01*
Y-68700D01*
X80000D01*
Y-69500D01*
Y-70300D01*
Y-71100D01*
Y-71900D01*
X81600D01*
Y-72700D01*
Y-73500D01*
X80800D01*
Y-74300D01*
Y-75100D01*
X81600D01*
Y-75900D01*
Y-76700D01*
X80800D01*
Y-75900D01*
Y-75100D01*
X80000D01*
Y-74300D01*
Y-73500D01*
Y-72700D01*
X79200D01*
Y-71900D01*
Y-71100D01*
Y-70300D01*
Y-69500D01*
Y-68700D01*
X76800D01*
Y-67900D01*
X78400D01*
Y-67100D01*
X79200D01*
Y-67900D01*
X80000D01*
Y-67100D01*
Y-66300D01*
X80800D01*
Y-67100D01*
D02*
G37*
G36*
X57600Y-67900D02*
X58400D01*
Y-68700D01*
X54400D01*
Y-67900D01*
X56000D01*
Y-67100D01*
X57600D01*
Y-67900D01*
D02*
G37*
G36*
X88800D02*
X91200D01*
Y-68700D01*
Y-69500D01*
Y-70300D01*
X89600D01*
Y-71100D01*
X86400D01*
Y-70300D01*
X84000D01*
Y-69500D01*
X84800D01*
Y-68700D01*
X86400D01*
Y-67900D01*
X88000D01*
Y-67100D01*
X88800D01*
Y-67900D01*
D02*
G37*
G36*
X61600D02*
X64800D01*
Y-68700D01*
X66400D01*
Y-69500D01*
X67200D01*
Y-70300D01*
X64800D01*
Y-71100D01*
X60800D01*
Y-70300D01*
X60000D01*
Y-69500D01*
Y-68700D01*
Y-67900D01*
X60800D01*
Y-67100D01*
X61600D01*
Y-67900D01*
D02*
G37*
G36*
X101600Y-75100D02*
X100800D01*
Y-74300D01*
X101600D01*
Y-75100D01*
D02*
G37*
G36*
X67200Y-63900D02*
X68000D01*
Y-64700D01*
X68800D01*
Y-65500D01*
X69600D01*
Y-66300D01*
Y-67100D01*
X70400D01*
Y-67900D01*
X73600D01*
Y-68700D01*
X71200D01*
Y-69500D01*
Y-70300D01*
Y-71100D01*
Y-71900D01*
Y-72700D01*
Y-73500D01*
X70400D01*
Y-74300D01*
Y-75100D01*
X69600D01*
Y-74300D01*
Y-73500D01*
Y-72700D01*
X68800D01*
Y-71900D01*
X70400D01*
Y-71100D01*
Y-70300D01*
Y-69500D01*
Y-68700D01*
X69600D01*
Y-67900D01*
Y-67100D01*
X68800D01*
Y-66300D01*
X68000D01*
Y-65500D01*
X67200D01*
Y-64700D01*
X66400D01*
Y-63900D01*
X65600D01*
Y-63100D01*
X67200D01*
Y-63900D01*
D02*
G37*
G36*
X100800Y-75900D02*
Y-76700D01*
X100000D01*
Y-75900D01*
Y-75100D01*
X100800D01*
Y-75900D01*
D02*
G37*
G36*
X69600D02*
Y-76700D01*
X68800D01*
Y-75900D01*
Y-75100D01*
X69600D01*
Y-75900D01*
D02*
G37*
G36*
X100000Y-77500D02*
X99200D01*
Y-76700D01*
X100000D01*
Y-77500D01*
D02*
G37*
G36*
X99200Y-78300D02*
X98400D01*
Y-77500D01*
X99200D01*
Y-78300D01*
D02*
G37*
G36*
X98400Y-79100D02*
X97600D01*
Y-79900D01*
X96000D01*
Y-79100D01*
X96800D01*
Y-78300D01*
X98400D01*
Y-79100D01*
D02*
G37*
G36*
X96000Y-80700D02*
X93600D01*
Y-79900D01*
X96000D01*
Y-80700D01*
D02*
G37*
G36*
X68800Y-77500D02*
Y-78300D01*
X68000D01*
Y-79100D01*
X67200D01*
Y-79900D01*
X66400D01*
Y-80700D01*
X64800D01*
Y-79900D01*
X65600D01*
Y-79100D01*
X66400D01*
Y-78300D01*
X67200D01*
Y-77500D01*
X68000D01*
Y-76700D01*
X68800D01*
Y-77500D01*
D02*
G37*
G36*
X53600Y-79900D02*
X54400D01*
Y-80700D01*
X52800D01*
Y-79900D01*
X52000D01*
Y-79100D01*
X53600D01*
Y-79900D01*
D02*
G37*
G36*
X93600Y-81500D02*
X87200D01*
Y-80700D01*
X93600D01*
Y-81500D01*
D02*
G37*
G36*
X64800D02*
X62400D01*
Y-80700D01*
X64800D01*
Y-81500D01*
D02*
G37*
G36*
X62400Y-82300D02*
X56800D01*
Y-81500D01*
X62400D01*
Y-82300D01*
D02*
G37*
G36*
X72800Y-101500D02*
X74400D01*
Y-102300D01*
X77600D01*
Y-101500D01*
X83200D01*
Y-102300D01*
X87200D01*
Y-103100D01*
X83200D01*
Y-103900D01*
X80000D01*
Y-104700D01*
Y-105500D01*
Y-106300D01*
X81600D01*
Y-107100D01*
X80800D01*
Y-107900D01*
X80000D01*
Y-108700D01*
X71200D01*
Y-107900D01*
X70400D01*
Y-107100D01*
X68800D01*
Y-106300D01*
Y-105500D01*
Y-104700D01*
Y-103900D01*
X67200D01*
Y-103100D01*
X66400D01*
Y-102300D01*
X64800D01*
Y-101500D01*
Y-100700D01*
X66400D01*
Y-101500D01*
X70400D01*
Y-100700D01*
X72800D01*
Y-101500D01*
D02*
G37*
G36*
X60000Y-103100D02*
X58400D01*
Y-102300D01*
X60000D01*
Y-103100D01*
D02*
G37*
%LPC*%
G36*
X95200Y-56700D02*
X92800D01*
Y-57500D01*
Y-58300D01*
X94400D01*
Y-59100D01*
Y-59900D01*
X93600D01*
Y-60700D01*
X95200D01*
Y-61500D01*
X97600D01*
Y-60700D01*
Y-59900D01*
X96000D01*
Y-59100D01*
X95200D01*
Y-58300D01*
Y-57500D01*
Y-56700D01*
D02*
G37*
G36*
X79200Y-103900D02*
X75200D01*
Y-104700D01*
X74400D01*
Y-103900D01*
X72800D01*
Y-104700D01*
Y-105500D01*
Y-106300D01*
X79200D01*
Y-105500D01*
Y-104700D01*
Y-103900D01*
D02*
G37*
%LPD*%
G36*
X203200Y-123100D02*
X204800D01*
Y-123900D01*
X206400D01*
Y-124700D01*
X208000D01*
Y-125500D01*
X208800D01*
Y-126300D01*
Y-127100D01*
X209600D01*
Y-127900D01*
X210400D01*
Y-128700D01*
X211200D01*
Y-129500D01*
X212800D01*
Y-130300D01*
X214400D01*
Y-131100D01*
X216800D01*
Y-131900D01*
X220000D01*
Y-132700D01*
X222400D01*
Y-133500D01*
X223200D01*
Y-134300D01*
Y-135100D01*
Y-135900D01*
X224000D01*
Y-136700D01*
X224800D01*
Y-137500D01*
X226400D01*
Y-138300D01*
Y-139100D01*
X227200D01*
Y-139900D01*
X228800D01*
Y-140700D01*
X230400D01*
Y-141500D01*
Y-142300D01*
X232000D01*
Y-143100D01*
Y-143900D01*
X233600D01*
Y-144700D01*
X232800D01*
Y-145500D01*
X233600D01*
Y-146300D01*
Y-147100D01*
X235200D01*
Y-147900D01*
X234400D01*
Y-148700D01*
Y-149500D01*
X235200D01*
Y-150300D01*
X236000D01*
Y-151100D01*
X236800D01*
Y-151900D01*
X236000D01*
Y-152700D01*
Y-153500D01*
X236800D01*
Y-154300D01*
X238400D01*
Y-155100D01*
Y-155900D01*
Y-156700D01*
Y-157500D01*
X237600D01*
Y-158300D01*
Y-159100D01*
Y-159900D01*
Y-160700D01*
Y-161500D01*
X236800D01*
Y-162300D01*
Y-163100D01*
X235200D01*
Y-163900D01*
X234400D01*
Y-164700D01*
X233600D01*
Y-165500D01*
X234400D01*
Y-166300D01*
X233600D01*
Y-167100D01*
Y-167900D01*
X232800D01*
Y-168700D01*
Y-169500D01*
Y-170300D01*
Y-171100D01*
X228800D01*
Y-171900D01*
X228000D01*
Y-172700D01*
Y-173500D01*
X227200D01*
Y-174300D01*
Y-175100D01*
X226400D01*
Y-175900D01*
Y-176700D01*
X225600D01*
Y-177500D01*
Y-178300D01*
X224800D01*
Y-179100D01*
Y-179900D01*
Y-180700D01*
X222400D01*
Y-181500D01*
Y-182300D01*
X220800D01*
Y-183100D01*
Y-183900D01*
X221600D01*
Y-184700D01*
Y-185500D01*
X222400D01*
Y-186300D01*
Y-187100D01*
Y-187900D01*
X221600D01*
Y-187100D01*
X220800D01*
Y-186300D01*
X220000D01*
Y-187100D01*
Y-187900D01*
X219200D01*
Y-188700D01*
X217600D01*
Y-189500D01*
X216000D01*
Y-190300D01*
X215200D01*
Y-191100D01*
X213600D01*
Y-191900D01*
Y-192700D01*
X212800D01*
Y-191900D01*
Y-191100D01*
Y-190300D01*
Y-189500D01*
Y-188700D01*
X213600D01*
Y-187900D01*
Y-187100D01*
X214400D01*
Y-186300D01*
Y-185500D01*
Y-184700D01*
X215200D01*
Y-183900D01*
Y-183100D01*
Y-182300D01*
Y-181500D01*
X216000D01*
Y-180700D01*
Y-179900D01*
Y-179100D01*
Y-178300D01*
X216800D01*
Y-177500D01*
Y-176700D01*
Y-175900D01*
X217600D01*
Y-175100D01*
Y-174300D01*
Y-173500D01*
Y-172700D01*
Y-171900D01*
Y-171100D01*
Y-170300D01*
Y-169500D01*
Y-168700D01*
X216800D01*
Y-167900D01*
Y-167100D01*
Y-166300D01*
Y-165500D01*
Y-164700D01*
Y-163900D01*
X216000D01*
Y-163100D01*
X215200D01*
Y-162300D01*
Y-161500D01*
X214400D01*
Y-160700D01*
X213600D01*
Y-161500D01*
X212000D01*
Y-160700D01*
X211200D01*
Y-161500D01*
X210400D01*
Y-162300D01*
Y-163100D01*
X213600D01*
Y-163900D01*
X215200D01*
Y-164700D01*
X212800D01*
Y-165500D01*
X208800D01*
Y-166300D01*
Y-167100D01*
X212000D01*
Y-167900D01*
X212800D01*
Y-168700D01*
X213600D01*
Y-169500D01*
X212000D01*
Y-170300D01*
X211200D01*
Y-171100D01*
X204800D01*
Y-171900D01*
X204000D01*
Y-172700D01*
X203200D01*
Y-171900D01*
X202400D01*
Y-171100D01*
X201600D01*
Y-170300D01*
Y-169500D01*
X200800D01*
Y-168700D01*
Y-167900D01*
X201600D01*
Y-167100D01*
X203200D01*
Y-167900D01*
X205600D01*
Y-167100D01*
X206400D01*
Y-166300D01*
X203200D01*
Y-165500D01*
Y-164700D01*
X204000D01*
Y-163900D01*
X204800D01*
Y-163100D01*
X206400D01*
Y-162300D01*
X205600D01*
Y-161500D01*
X201600D01*
Y-162300D01*
X200800D01*
Y-163100D01*
X198400D01*
Y-162300D01*
X197600D01*
Y-161500D01*
X195200D01*
Y-160700D01*
X193600D01*
Y-159900D01*
X189600D01*
Y-160700D01*
X186400D01*
Y-159900D01*
X184800D01*
Y-159100D01*
X183200D01*
Y-159900D01*
Y-160700D01*
X182400D01*
Y-161500D01*
X181600D01*
Y-162300D01*
X180800D01*
Y-163100D01*
Y-163900D01*
Y-164700D01*
Y-165500D01*
Y-166300D01*
X180000D01*
Y-167100D01*
Y-167900D01*
Y-168700D01*
Y-169500D01*
Y-170300D01*
Y-171100D01*
Y-171900D01*
Y-172700D01*
Y-173500D01*
Y-174300D01*
Y-175100D01*
Y-175900D01*
X180800D01*
Y-176700D01*
Y-177500D01*
Y-178300D01*
Y-179100D01*
Y-179900D01*
Y-180700D01*
Y-181500D01*
Y-182300D01*
Y-183100D01*
Y-183900D01*
X181600D01*
Y-184700D01*
Y-185500D01*
Y-186300D01*
X182400D01*
Y-187100D01*
Y-187900D01*
X183200D01*
Y-188700D01*
Y-189500D01*
Y-190300D01*
Y-191100D01*
Y-191900D01*
X182400D01*
Y-191100D01*
Y-190300D01*
Y-189500D01*
X181600D01*
Y-188700D01*
X180800D01*
Y-187900D01*
Y-187100D01*
Y-186300D01*
X180000D01*
Y-185500D01*
X179200D01*
Y-184700D01*
X178400D01*
Y-183900D01*
Y-183100D01*
X177600D01*
Y-182300D01*
X176800D01*
Y-181500D01*
X176000D01*
Y-180700D01*
X175200D01*
Y-179900D01*
X172800D01*
Y-179100D01*
X171200D01*
Y-178300D01*
X168800D01*
Y-177500D01*
Y-176700D01*
X167200D01*
Y-175900D01*
X166400D01*
Y-175100D01*
Y-174300D01*
Y-173500D01*
X165600D01*
Y-172700D01*
X164800D01*
Y-171900D01*
X164000D01*
Y-171100D01*
X163200D01*
Y-170300D01*
X161600D01*
Y-169500D01*
X162400D01*
Y-168700D01*
Y-167900D01*
X160800D01*
Y-168700D01*
X160000D01*
Y-167900D01*
Y-167100D01*
Y-166300D01*
Y-165500D01*
Y-164700D01*
Y-163900D01*
Y-163100D01*
X159200D01*
Y-162300D01*
Y-161500D01*
Y-160700D01*
X157600D01*
Y-159900D01*
Y-159100D01*
X158400D01*
Y-158300D01*
X159200D01*
Y-157500D01*
Y-156700D01*
Y-155900D01*
X160000D01*
Y-156700D01*
X160800D01*
Y-155900D01*
X162400D01*
Y-155100D01*
Y-154300D01*
X160800D01*
Y-155100D01*
X160000D01*
Y-154300D01*
Y-153500D01*
Y-152700D01*
Y-151900D01*
Y-151100D01*
X161600D01*
Y-150300D01*
Y-149500D01*
Y-148700D01*
Y-147900D01*
Y-147100D01*
Y-146300D01*
Y-145500D01*
Y-144700D01*
X162400D01*
Y-143900D01*
Y-143100D01*
X161600D01*
Y-142300D01*
X162400D01*
Y-141500D01*
X163200D01*
Y-140700D01*
Y-139900D01*
X164000D01*
Y-139100D01*
Y-138300D01*
Y-137500D01*
X165600D01*
Y-136700D01*
Y-135900D01*
Y-135100D01*
X166400D01*
Y-134300D01*
X168000D01*
Y-133500D01*
X170400D01*
Y-132700D01*
X172000D01*
Y-133500D01*
X172800D01*
Y-132700D01*
X174400D01*
Y-131900D01*
Y-131100D01*
X176000D01*
Y-130300D01*
X177600D01*
Y-129500D01*
X179200D01*
Y-128700D01*
X183200D01*
Y-127900D01*
X184000D01*
Y-127100D01*
X184800D01*
Y-126300D01*
X185600D01*
Y-125500D01*
X186400D01*
Y-124700D01*
X188800D01*
Y-123900D01*
X193600D01*
Y-123100D01*
X199200D01*
Y-122300D01*
X203200D01*
Y-123100D01*
D02*
G37*
G36*
X186400Y-162300D02*
X191200D01*
Y-163100D01*
X192000D01*
Y-163900D01*
X193600D01*
Y-164700D01*
Y-165500D01*
X192000D01*
Y-164700D01*
X188800D01*
Y-163900D01*
X185600D01*
Y-163100D01*
X184000D01*
Y-163900D01*
X182400D01*
Y-163100D01*
X183200D01*
Y-162300D01*
X184800D01*
Y-161500D01*
X186400D01*
Y-162300D01*
D02*
G37*
G36*
X191200Y-167100D02*
X193600D01*
Y-167900D01*
Y-168700D01*
Y-169500D01*
Y-170300D01*
X192000D01*
Y-171100D01*
X190400D01*
Y-170300D01*
X187200D01*
Y-169500D01*
X188000D01*
Y-168700D01*
Y-167900D01*
X186400D01*
Y-168700D01*
X184800D01*
Y-167900D01*
X185600D01*
Y-167100D01*
X187200D01*
Y-166300D01*
X191200D01*
Y-167100D01*
D02*
G37*
G36*
X204000Y-179100D02*
X204800D01*
Y-179900D01*
Y-180700D01*
X204000D01*
Y-181500D01*
X202400D01*
Y-180700D01*
X203200D01*
Y-179900D01*
Y-179100D01*
Y-178300D01*
X204000D01*
Y-179100D01*
D02*
G37*
G36*
X201600Y-181500D02*
X202400D01*
Y-182300D01*
X199200D01*
Y-183100D01*
X198400D01*
Y-182300D01*
X197600D01*
Y-181500D01*
X198400D01*
Y-180700D01*
X201600D01*
Y-181500D01*
D02*
G37*
G36*
X205600Y-187100D02*
Y-187900D01*
X203200D01*
Y-188700D01*
X201600D01*
Y-187900D01*
X200800D01*
Y-188700D01*
X199200D01*
Y-189500D01*
Y-190300D01*
X197600D01*
Y-189500D01*
X198400D01*
Y-188700D01*
Y-187900D01*
X197600D01*
Y-188700D01*
X195200D01*
Y-187900D01*
X192800D01*
Y-187100D01*
X196800D01*
Y-186300D01*
X198400D01*
Y-187100D01*
X204800D01*
Y-186300D01*
X205600D01*
Y-187100D01*
D02*
G37*
G36*
X202400Y-197500D02*
X201600D01*
Y-196700D01*
X202400D01*
Y-197500D01*
D02*
G37*
G36*
X200000D02*
X201600D01*
Y-198300D01*
X198400D01*
Y-199100D01*
X196800D01*
Y-198300D01*
X192000D01*
Y-197500D01*
X196800D01*
Y-196700D01*
X197600D01*
Y-197500D01*
X199200D01*
Y-196700D01*
X200000D01*
Y-197500D01*
D02*
G37*
G36*
X84000Y-148700D02*
X83200D01*
Y-149500D01*
X82400D01*
Y-148700D01*
Y-147900D01*
X84000D01*
Y-148700D01*
D02*
G37*
G36*
X77600Y-158300D02*
X79200D01*
Y-159100D01*
X80000D01*
Y-159900D01*
X79200D01*
Y-160700D01*
Y-161500D01*
X80000D01*
Y-162300D01*
Y-163100D01*
X80800D01*
Y-163900D01*
Y-164700D01*
X80000D01*
Y-165500D01*
X79200D01*
Y-166300D01*
X78400D01*
Y-167100D01*
X77600D01*
Y-167900D01*
X73600D01*
Y-167100D01*
Y-166300D01*
X74400D01*
Y-165500D01*
X73600D01*
Y-164700D01*
X72800D01*
Y-163900D01*
Y-163100D01*
X72000D01*
Y-162300D01*
Y-161500D01*
Y-160700D01*
Y-159900D01*
X70400D01*
Y-159100D01*
Y-158300D01*
X71200D01*
Y-157500D01*
X77600D01*
Y-158300D01*
D02*
G37*
G36*
X82400Y-176700D02*
X83200D01*
Y-177500D01*
X80800D01*
Y-176700D01*
Y-175900D01*
X82400D01*
Y-176700D01*
D02*
G37*
G36*
X40000Y-213500D02*
X39200D01*
Y-212700D01*
X40000D01*
Y-213500D01*
D02*
G37*
D11*
X247598Y-191334D02*
X247265Y-192334D01*
Y-190334D01*
X247598Y-191334D01*
X248265Y-190668D01*
X249264Y-190334D01*
X249931D01*
X250931Y-190668D01*
X251597Y-191334D01*
X251930Y-192001D01*
X252264Y-193000D01*
Y-194667D01*
X251930Y-195667D01*
X251597Y-196333D01*
X250931Y-197000D01*
X249931Y-197333D01*
X249264D01*
X248265Y-197000D01*
X247598Y-196333D01*
X247265Y-195667D01*
X249931Y-190334D02*
X250597Y-190668D01*
X251264Y-191334D01*
X251597Y-192001D01*
X251930Y-193000D01*
Y-194667D01*
X251597Y-195667D01*
X251264Y-196333D01*
X250597Y-197000D01*
X249931Y-197333D01*
X245599Y-193334D02*
Y-193667D01*
X245932D01*
Y-193334D01*
X245599Y-193000D01*
X244932Y-192667D01*
X243599D01*
X242932Y-193000D01*
X242599Y-193334D01*
X242266Y-194000D01*
Y-196333D01*
X241933Y-197000D01*
X241599Y-197333D01*
X242599Y-193334D02*
Y-196333D01*
X242266Y-197000D01*
X241599Y-197333D01*
X241266D01*
X242599Y-194000D02*
X242932Y-194334D01*
X244932Y-194667D01*
X245932Y-195000D01*
X246265Y-195667D01*
Y-196333D01*
X245932Y-197000D01*
X244932Y-197333D01*
X243932D01*
X243266Y-197000D01*
X242599Y-196333D01*
X244932Y-194667D02*
X245599Y-195000D01*
X245932Y-195667D01*
Y-196333D01*
X245599Y-197000D01*
X244932Y-197333D01*
X236934Y-193334D02*
X236600Y-192667D01*
Y-194000D01*
X236934Y-193334D01*
X237267Y-193000D01*
X237933Y-192667D01*
X239266D01*
X239933Y-193000D01*
X240266Y-193334D01*
Y-194000D01*
X239933Y-194334D01*
X239266Y-194667D01*
X237600Y-195333D01*
X236934Y-195667D01*
X236600Y-196000D01*
X240266Y-193667D02*
X239933Y-194000D01*
X239266Y-194334D01*
X237600Y-195000D01*
X236934Y-195333D01*
X236600Y-195667D01*
Y-196666D01*
X236934Y-197000D01*
X237600Y-197333D01*
X238933D01*
X239600Y-197000D01*
X239933Y-196666D01*
X240266Y-196000D01*
Y-197333D01*
X239933Y-196666D01*
X235134Y-194667D02*
X231135D01*
Y-194000D01*
X231468Y-193334D01*
X231801Y-193000D01*
X232468Y-192667D01*
X233468D01*
X234468Y-193000D01*
X235134Y-193667D01*
X235467Y-194667D01*
Y-195333D01*
X235134Y-196333D01*
X234468Y-197000D01*
X233468Y-197333D01*
X232801D01*
X231801Y-197000D01*
X231135Y-196333D01*
X231468Y-194667D02*
Y-193667D01*
X231801Y-193000D01*
X233468Y-192667D02*
X234134Y-193000D01*
X234801Y-193667D01*
X235134Y-194667D01*
Y-195333D01*
X234801Y-196333D01*
X234134Y-197000D01*
X233468Y-197333D01*
X229402Y-192667D02*
X227402Y-197333D01*
X229069Y-192667D02*
X227402Y-196666D01*
X225403Y-192667D02*
X227402Y-197333D01*
X228069Y-198666D01*
X228735Y-199332D01*
X229402Y-199666D01*
X229735D01*
X230068Y-199332D01*
X229735Y-198999D01*
X229402Y-199332D01*
X230068Y-192667D02*
X228069D01*
X226736D02*
X224736D01*
X62497Y-145001D02*
X64830Y-151999D01*
X62497Y-145001D02*
X60165Y-151999D01*
X62497Y-146001D02*
X60498Y-151999D01*
X64164Y-150000D02*
X61164D01*
X65497Y-151999D02*
X63497D01*
X61498D02*
X59498D01*
X57932Y-148000D02*
Y-148333D01*
X58265D01*
Y-148000D01*
X57932Y-147667D01*
X57265Y-147334D01*
X55932D01*
X55266Y-147667D01*
X54932Y-148000D01*
X54599Y-148667D01*
Y-150999D01*
X54266Y-151666D01*
X53933Y-151999D01*
X54932Y-148000D02*
Y-150999D01*
X54599Y-151666D01*
X53933Y-151999D01*
X53599D01*
X54932Y-148667D02*
X55266Y-149000D01*
X57265Y-149333D01*
X58265Y-149666D01*
X58598Y-150333D01*
Y-150999D01*
X58265Y-151666D01*
X57265Y-151999D01*
X56265D01*
X55599Y-151666D01*
X54932Y-150999D01*
X57265Y-149333D02*
X57932Y-149666D01*
X58265Y-150333D01*
Y-150999D01*
X57932Y-151666D01*
X57265Y-151999D01*
X51600Y-147334D02*
Y-151999D01*
X51266Y-147334D02*
Y-151999D01*
Y-149333D02*
X50933Y-148333D01*
X50267Y-147667D01*
X49600Y-147334D01*
X48600D01*
X48267Y-147667D01*
Y-148000D01*
X48600Y-148333D01*
X48934Y-148000D01*
X48600Y-147667D01*
X52600Y-147334D02*
X51266D01*
X52600Y-151999D02*
X50267D01*
X45201Y-147334D02*
X46201Y-147667D01*
X46867Y-148333D01*
X47201Y-149333D01*
Y-150000D01*
X46867Y-150999D01*
X46201Y-151666D01*
X45201Y-151999D01*
X44535D01*
X43535Y-151666D01*
X42868Y-150999D01*
X42535Y-150000D01*
Y-149333D01*
X42868Y-148333D01*
X43535Y-147667D01*
X44535Y-147334D01*
X45201D01*
X45868Y-147667D01*
X46534Y-148333D01*
X46867Y-149333D01*
Y-150000D01*
X46534Y-150999D01*
X45868Y-151666D01*
X45201Y-151999D01*
X44535D02*
X43868Y-151666D01*
X43202Y-150999D01*
X42868Y-150000D01*
Y-149333D01*
X43202Y-148333D01*
X43868Y-147667D01*
X44535Y-147334D01*
X40502D02*
Y-151999D01*
X40169Y-147334D02*
Y-151999D01*
Y-148333D02*
X39502Y-147667D01*
X38503Y-147334D01*
X37836D01*
X36836Y-147667D01*
X36503Y-148333D01*
Y-151999D01*
X37836Y-147334D02*
X37170Y-147667D01*
X36836Y-148333D01*
Y-151999D01*
X41502Y-147334D02*
X40169D01*
X41502Y-151999D02*
X39169D01*
X37836D02*
X35503D01*
X132414Y-81834D02*
Y-88833D01*
X132081Y-81834D02*
Y-88833D01*
X133414Y-81834D02*
X129414D01*
X128415Y-82168D01*
X128082Y-82501D01*
X127748Y-83167D01*
Y-83834D01*
X128082Y-84500D01*
X128415Y-84834D01*
X129414Y-85167D01*
X132081D01*
X129414Y-81834D02*
X128748Y-82168D01*
X128415Y-82501D01*
X128082Y-83167D01*
Y-83834D01*
X128415Y-84500D01*
X128748Y-84834D01*
X129414Y-85167D01*
X133414Y-88833D02*
X131081D01*
X130414Y-85167D02*
X129748Y-85500D01*
X129414Y-85834D01*
X128415Y-88166D01*
X128082Y-88500D01*
X127748D01*
X127415Y-88166D01*
X129748Y-85500D02*
X129414Y-86167D01*
X128748Y-88500D01*
X128415Y-88833D01*
X127748D01*
X127415Y-88166D01*
Y-87833D01*
X126182Y-86167D02*
X122183D01*
Y-85500D01*
X122516Y-84834D01*
X122849Y-84500D01*
X123516Y-84167D01*
X124516D01*
X125515Y-84500D01*
X126182Y-85167D01*
X126515Y-86167D01*
Y-86833D01*
X126182Y-87833D01*
X125515Y-88500D01*
X124516Y-88833D01*
X123849D01*
X122849Y-88500D01*
X122183Y-87833D01*
X122516Y-86167D02*
Y-85167D01*
X122849Y-84500D01*
X124516Y-84167D02*
X125182Y-84500D01*
X125849Y-85167D01*
X126182Y-86167D01*
Y-86833D01*
X125849Y-87833D01*
X125182Y-88500D01*
X124516Y-88833D01*
X120116Y-84167D02*
Y-88833D01*
X119783Y-84167D02*
Y-88833D01*
Y-85167D02*
X119117Y-84500D01*
X118117Y-84167D01*
X117450D01*
X116451Y-84500D01*
X116117Y-85167D01*
Y-88833D01*
X117450Y-84167D02*
X116784Y-84500D01*
X116451Y-85167D01*
Y-88833D01*
X116117Y-85167D02*
X115451Y-84500D01*
X114451Y-84167D01*
X113785D01*
X112785Y-84500D01*
X112452Y-85167D01*
Y-88833D01*
X113785Y-84167D02*
X113118Y-84500D01*
X112785Y-85167D01*
Y-88833D01*
X121116Y-84167D02*
X119783D01*
X121116Y-88833D02*
X118783D01*
X117450D02*
X115118D01*
X113785D02*
X111452D01*
X110252Y-84167D02*
X108252Y-88833D01*
X109919Y-84167D02*
X108252Y-88166D01*
X106253Y-84167D02*
X108252Y-88833D01*
X108919Y-90166D01*
X109585Y-90832D01*
X110252Y-91166D01*
X110585D01*
X110918Y-90832D01*
X110585Y-90499D01*
X110252Y-90832D01*
X110918Y-84167D02*
X108919D01*
X107586D02*
X105586D01*
X173115Y-6001D02*
X172782Y-7000D01*
Y-5001D01*
X173115Y-6001D01*
X173781Y-5334D01*
X174781Y-5001D01*
X175448D01*
X176447Y-5334D01*
X177114Y-6001D01*
X177447Y-6667D01*
X177781Y-7667D01*
Y-9333D01*
X177447Y-10333D01*
X177114Y-11000D01*
X176447Y-11666D01*
X175448Y-11999D01*
X174781D01*
X173781Y-11666D01*
X173115Y-11000D01*
X172782Y-10333D01*
X175448Y-5001D02*
X176114Y-5334D01*
X176781Y-6001D01*
X177114Y-6667D01*
X177447Y-7667D01*
Y-9333D01*
X177114Y-10333D01*
X176781Y-11000D01*
X176114Y-11666D01*
X175448Y-11999D01*
X170782Y-5001D02*
Y-11999D01*
X170449Y-5001D02*
Y-11999D01*
Y-8333D02*
X169782Y-7667D01*
X168782Y-7334D01*
X168116D01*
X167116Y-7667D01*
X166783Y-8333D01*
Y-11999D01*
X168116Y-7334D02*
X167449Y-7667D01*
X167116Y-8333D01*
Y-11999D01*
X171782Y-5001D02*
X170449D01*
X171782Y-11999D02*
X169449D01*
X168116D02*
X165783D01*
X163884Y-7334D02*
Y-11999D01*
X163550Y-7334D02*
Y-11999D01*
Y-9333D02*
X163217Y-8333D01*
X162550Y-7667D01*
X161884Y-7334D01*
X160884D01*
X160551Y-7667D01*
Y-8000D01*
X160884Y-8333D01*
X161217Y-8000D01*
X160884Y-7667D01*
X164883Y-7334D02*
X163550D01*
X164883Y-11999D02*
X162550D01*
X158485Y-5001D02*
X158818Y-5334D01*
X158485Y-5667D01*
X158151Y-5334D01*
X158485Y-5001D01*
Y-7334D02*
Y-11999D01*
X158151Y-7334D02*
Y-11999D01*
X159485Y-7334D02*
X158151D01*
X159485Y-11999D02*
X157152D01*
X152553Y-8000D02*
X152219Y-7334D01*
Y-8667D01*
X152553Y-8000D01*
X152886Y-7667D01*
X153552Y-7334D01*
X154885D01*
X155552Y-7667D01*
X155885Y-8000D01*
Y-8667D01*
X155552Y-9000D01*
X154885Y-9333D01*
X153219Y-10000D01*
X152553Y-10333D01*
X152219Y-10666D01*
X155885Y-8333D02*
X155552Y-8667D01*
X154885Y-9000D01*
X153219Y-9666D01*
X152553Y-10000D01*
X152219Y-10333D01*
Y-11333D01*
X152553Y-11666D01*
X153219Y-11999D01*
X154552D01*
X155219Y-11666D01*
X155552Y-11333D01*
X155885Y-10666D01*
Y-11999D01*
X155552Y-11333D01*
D16*
X288084Y-152673D02*
Y-148008D01*
X291583D01*
Y-150340D01*
Y-148008D01*
X295082D01*
X290417Y-156172D02*
Y-158504D01*
X291583Y-159671D01*
X295082D01*
Y-156172D01*
X293916Y-155006D01*
X292749Y-156172D01*
Y-159671D01*
X295082Y-162003D02*
Y-164336D01*
Y-163170D01*
X288084D01*
Y-162003D01*
X295082Y-167835D02*
Y-170167D01*
Y-169001D01*
X288084D01*
Y-167835D01*
X286918Y-181830D02*
X289251D01*
X290417Y-180664D01*
X295082Y-189994D02*
Y-185329D01*
X290417Y-189994D01*
X289251D01*
X288084Y-188828D01*
Y-186495D01*
X289251Y-185329D01*
Y-192327D02*
X288084Y-193493D01*
Y-195826D01*
X289251Y-196992D01*
X293916D01*
X295082Y-195826D01*
Y-193493D01*
X293916Y-192327D01*
X289251D01*
X6001Y-18115D02*
X4835Y-16949D01*
Y-14616D01*
X6001Y-13450D01*
X7167D01*
X8334Y-14616D01*
Y-16949D01*
X9500Y-18115D01*
X10666D01*
X11833Y-16949D01*
Y-14616D01*
X10666Y-13450D01*
X11833Y-23946D02*
Y-21614D01*
X10666Y-20447D01*
X8334D01*
X7167Y-21614D01*
Y-23946D01*
X8334Y-25113D01*
X9500D01*
Y-20447D01*
X11833Y-27445D02*
X7167D01*
Y-30944D01*
X8334Y-32110D01*
X11833D01*
Y-34443D02*
Y-36775D01*
Y-35609D01*
X7167D01*
Y-34443D01*
X11833Y-41441D02*
Y-43773D01*
X10666Y-44940D01*
X8334D01*
X7167Y-43773D01*
Y-41441D01*
X8334Y-40274D01*
X10666D01*
X11833Y-41441D01*
X7167Y-47272D02*
X11833D01*
X9500D01*
X8334Y-48438D01*
X7167Y-49605D01*
Y-50771D01*
X4835Y-61268D02*
X11833D01*
Y-64766D01*
X10666Y-65933D01*
X6001D01*
X4835Y-64766D01*
Y-61268D01*
X11833Y-71764D02*
Y-69432D01*
X10666Y-68265D01*
X8334D01*
X7167Y-69432D01*
Y-71764D01*
X8334Y-72930D01*
X9500D01*
Y-68265D01*
X11833Y-75263D02*
Y-78762D01*
X10666Y-79928D01*
X9500Y-78762D01*
Y-76429D01*
X8334Y-75263D01*
X7167Y-76429D01*
Y-79928D01*
X11833Y-82261D02*
Y-84593D01*
Y-83427D01*
X7167D01*
Y-82261D01*
X14165Y-90425D02*
Y-91591D01*
X12999Y-92757D01*
X7167D01*
Y-89258D01*
X8334Y-88092D01*
X10666D01*
X11833Y-89258D01*
Y-92757D01*
Y-95090D02*
X7167D01*
Y-98589D01*
X8334Y-99755D01*
X11833D01*
Y-109085D02*
X4835D01*
Y-112584D01*
X6001Y-113751D01*
X8334D01*
X9500Y-112584D01*
Y-109085D01*
X7167Y-116083D02*
X11833D01*
X9500D01*
X8334Y-117250D01*
X7167Y-118416D01*
Y-119582D01*
X11833Y-124247D02*
Y-126580D01*
X10666Y-127746D01*
X8334D01*
X7167Y-126580D01*
Y-124247D01*
X8334Y-123081D01*
X10666D01*
X11833Y-124247D01*
X14165Y-130079D02*
Y-131245D01*
X12999Y-132411D01*
X7167D01*
X11833Y-140575D02*
Y-138243D01*
X10666Y-137076D01*
X8334D01*
X7167Y-138243D01*
Y-140575D01*
X8334Y-141742D01*
X9500D01*
Y-137076D01*
X7167Y-148739D02*
Y-145240D01*
X8334Y-144074D01*
X10666D01*
X11833Y-145240D01*
Y-148739D01*
X6001Y-152238D02*
X7167D01*
Y-151072D01*
Y-153404D01*
Y-152238D01*
X10666D01*
X11833Y-153404D01*
X8334Y-163901D02*
Y-168566D01*
X4835Y-177896D02*
Y-182562D01*
Y-180229D01*
X11833D01*
Y-188393D02*
Y-186061D01*
X10666Y-184894D01*
X8334D01*
X7167Y-186061D01*
Y-188393D01*
X8334Y-189559D01*
X9500D01*
Y-184894D01*
X7167Y-193058D02*
Y-195391D01*
X8334Y-196557D01*
X11833D01*
Y-193058D01*
X10666Y-191892D01*
X9500Y-193058D01*
Y-196557D01*
X11833Y-198890D02*
X7167D01*
Y-200056D01*
X8334Y-201222D01*
X11833D01*
X8334D01*
X7167Y-202389D01*
X8334Y-203555D01*
X11833D01*
Y-216384D02*
X4835D01*
X8334Y-212885D01*
Y-217550D01*
X255546Y-249833D02*
Y-242835D01*
X253213Y-245167D01*
X250881Y-242835D01*
Y-249833D01*
X247382Y-245167D02*
X245049D01*
X243883Y-246334D01*
Y-249833D01*
X247382D01*
X248548Y-248666D01*
X247382Y-247500D01*
X243883D01*
X236885Y-242835D02*
Y-249833D01*
X240384D01*
X241550Y-248666D01*
Y-246334D01*
X240384Y-245167D01*
X236885D01*
X231054Y-249833D02*
X233386D01*
X234553Y-248666D01*
Y-246334D01*
X233386Y-245167D01*
X231054D01*
X229888Y-246334D01*
Y-247500D01*
X234553D01*
X220557Y-242835D02*
Y-249833D01*
X217058D01*
X215892Y-248666D01*
Y-247500D01*
Y-246334D01*
X217058Y-245167D01*
X220557D01*
X213559D02*
Y-248666D01*
X212393Y-249833D01*
X208894D01*
Y-250999D01*
X210061Y-252165D01*
X211227D01*
X208894Y-249833D02*
Y-245167D01*
X199564D02*
Y-249833D01*
Y-247500D01*
X198398Y-246334D01*
X197231Y-245167D01*
X196065D01*
X189067Y-249833D02*
X191400D01*
X192566Y-248666D01*
Y-246334D01*
X191400Y-245167D01*
X189067D01*
X187901Y-246334D01*
Y-247500D01*
X192566D01*
X184402Y-245167D02*
X182070D01*
X180903Y-246334D01*
Y-249833D01*
X184402D01*
X185568Y-248666D01*
X184402Y-247500D01*
X180903D01*
X178571Y-249833D02*
X176238D01*
X177404D01*
Y-242835D01*
X178571D01*
X165742D02*
Y-249833D01*
Y-246334D01*
X164575Y-245167D01*
X162243D01*
X161076Y-246334D01*
Y-249833D01*
X158744Y-245167D02*
Y-248666D01*
X157578Y-249833D01*
X154079D01*
Y-245167D01*
X151746Y-249833D02*
Y-245167D01*
X150580D01*
X149414Y-246334D01*
Y-249833D01*
Y-246334D01*
X148247Y-245167D01*
X147081Y-246334D01*
Y-249833D01*
X143582Y-245167D02*
X141249D01*
X140083Y-246334D01*
Y-249833D01*
X143582D01*
X144748Y-248666D01*
X143582Y-247500D01*
X140083D01*
X137751Y-249833D02*
Y-245167D01*
X134252D01*
X133085Y-246334D01*
Y-249833D01*
X123755Y-252165D02*
Y-245167D01*
X120256D01*
X119090Y-246334D01*
Y-248666D01*
X120256Y-249833D01*
X123755D01*
X113259D02*
X115591D01*
X116757Y-248666D01*
Y-246334D01*
X115591Y-245167D01*
X113259D01*
X112092Y-246334D01*
Y-247500D01*
X116757D01*
X108593Y-249833D02*
X106261D01*
X105094Y-248666D01*
Y-246334D01*
X106261Y-245167D01*
X108593D01*
X109760Y-246334D01*
Y-248666D01*
X108593Y-249833D01*
X102762Y-252165D02*
Y-245167D01*
X99263D01*
X98097Y-246334D01*
Y-248666D01*
X99263Y-249833D01*
X102762D01*
X95764D02*
X93432D01*
X94598D01*
Y-242835D01*
X95764D01*
X86434Y-249833D02*
X88766D01*
X89933Y-248666D01*
Y-246334D01*
X88766Y-245167D01*
X86434D01*
X85268Y-246334D01*
Y-247500D01*
X89933D01*
X74771Y-249833D02*
X72438D01*
X71272Y-248666D01*
Y-246334D01*
X72438Y-245167D01*
X74771D01*
X75937Y-246334D01*
Y-248666D01*
X74771Y-249833D01*
X68939D02*
Y-245167D01*
X65441D01*
X64274Y-246334D01*
Y-249833D01*
X50279Y-242835D02*
X54944D01*
Y-249833D01*
X50279D01*
X54944Y-246334D02*
X52611D01*
X46780Y-245167D02*
X44447D01*
X43281Y-246334D01*
Y-249833D01*
X46780D01*
X47946Y-248666D01*
X46780Y-247500D01*
X43281D01*
X40949Y-245167D02*
Y-249833D01*
Y-247500D01*
X39782Y-246334D01*
X38616Y-245167D01*
X37450D01*
X32785Y-244001D02*
Y-245167D01*
X33951D01*
X31618D01*
X32785D01*
Y-248666D01*
X31618Y-249833D01*
X28119Y-242835D02*
Y-249833D01*
Y-246334D01*
X26953Y-245167D01*
X24620D01*
X23454Y-246334D01*
Y-249833D01*
M02*
