M48
;Layer_Color=9474304
;FILE_FORMAT=2:5
INCH,LZ
;TYPE=PLATED
T1F00S00C0.01378
T2F00S00C0.01500
T3F00S00C0.02362
T4F00S00C0.02953
T5F00S00C0.03150
T6F00S00C0.03201
T7F00S00C0.03543
T9F00S00C0.24409
%
T01
X00885Y00615
X035Y01885
X0361
X0341
X03335Y01925
X0316Y0199931
X0163Y01415
X00845Y01385
X00795Y0167
X00845Y00885
X00855Y0078
X0303Y02425
T02
X0009093Y0025572
X00195Y0038
X0026Y00625
Y00125
X0043Y00135
X0051Y00375
X0076
X0101
Y00125
X0126
X0151
X0176
X0154Y00525
Y00645
X0126
Y00525
X0051Y00625
X0076Y00125
X0201
X0226
X02155Y0037
X0213Y0044
X01965Y00345
X0276Y00125
X0291Y00215
X03Y00285
X0301Y00125
X0326
X03205Y00615
X0344Y0054
X0276Y00625
X03615Y0054
X0351Y00375
X0374Y00375
X03765Y0024
X0376Y00125
X03865Y00125
X0401Y00125
X0426
X0451
X0449Y0021
X0469Y00175
X0476Y00375
X0473Y00455
X0480631Y0061793
X0464Y00675
X0446Y00505
X0426Y00375
X0397Y0037
X0391Y00605
X04125Y0072
X0425Y00755
X0426Y00875
X0451
X0453Y0095
X04605
X04725Y0077
X04675Y01255
Y0156
X04695Y0185
X0463
X0451Y01845
X0441
X0431
X04205Y01835
Y01935
X0421Y0213
X0413
X0402226Y0218585
X03875Y02135
X038Y02195
X0354Y0203
X0401Y01875
X0466Y02015
X0463Y02165
X0376Y00875
X0351
X0336Y0081
X02915Y0117
X0280755Y0116713
X02805Y01635
X0292Y0163
X0309Y0201
X0327Y02015
X03305Y02185
X034Y02135
X0254Y02245
X0242
X0225Y0177
X0226Y01625
X0208Y0154
X02085Y01215
X0226Y01125
X0224Y00915
X0205Y0078
X0246Y0076
X0198Y01795
X0146Y01835
X0151Y01625
X0126
X0101
X0088Y0176
X0051Y01875
X0054Y0203
X0101Y02125
X0126
X0151
X01425Y01295
X01575Y0095
X01135Y0099
X0101Y01125
X0078Y0124
X0056Y01285
X0051Y01125
X0078Y0074
X0026Y00875
Y01875
X0013Y0238
X00105Y0252
X0026Y02625
X00365Y0261
X0048Y0226
X0101Y02375
X0126
X0151
X0188Y023
X01045Y0274
X02495Y02735
X0229094Y0244142
X0206938Y0230367
X0281Y02285
X02855Y02345
X03075Y02255
X0303Y0256
X03295Y02565
X0332Y0238
X03595Y024
X03605Y02545
X03975Y0257
X04Y0245
X04025Y02315
X03875Y0235
X04145Y02425
X0433Y0231
X0467Y02415
X04685Y02625
X0444Y0265
X0409Y02735
T03
X0386Y00805
X0396
X0371Y02035
X0281Y02205
X02505Y0203
X02725Y0074
X019Y0069
X01905Y0092
X0199Y00905
X01435Y00715
X01345Y0075
T04
X0264138Y0217
Y0237
X0274138Y0227
T05
X0344126Y0016165
X0352
X0359874
T06
X00365Y00905
X0032563Y0102016
Y010989
Y0117764
Y0125638
Y0133512
Y0141386
X0040437
Y014926
Y0157134
X0032563
Y0165008
Y0172882
X0040437
Y0165008
X00365Y0184398
X0032563Y014926
X0040437Y0133512
Y0125638
Y0117764
Y010989
Y0102016
T07
X0206Y02525
X0216
X0236
X0246
X0266
X0276
T09
X0Y0
X04875
X0Y028
X04875
M30
