M48
;Layer_Color=9474304
;FILE_FORMAT=2:5
INCH,LZ
;TYPE=PLATED
T1F00S00C0.01181
T2F00S00C0.01500
T3F00S00C0.01600
T4F00S00C0.02800
T5F00S00C0.03000
T6F00S00C0.03150
T7F00S00C0.03543
T9F00S00C0.17717
%
T01
X-00075Y00275
X0007
X00135Y00385
X0024577Y0032162
X00405Y003213
X0039Y003528
X00375Y0038429
X0036Y0041579
X004066Y0016698
X0044Y00145
X004Y0008288
X0033708Y0006208
X0031288Y0008288
X00285Y0011
X00255Y0017
X0057Y00245
X0059Y-0007181
X00525Y-0016
X0054523Y-0018985
X0055659Y-0023
X0052416
X0050958Y-0029542
X00535Y-0032
X00055Y0075319
T02
X-0073878Y-0081378
X-0066378
X-0058878
X-0051378
Y-0073878
X-0066378
X-0073878
Y-0066378
X-0081378
Y-0058878
Y-0051378
X-0073878
X-0051378
X-0081378Y-0073878
X-0043878
Y-0066378
Y-0058878
X-0036378
Y-0051378
X-0043878
X-00275Y-00645
X-00235Y-007
X-00315
X-0013878Y-0066378
X-0006378
Y-0073878
Y-0081378
X0001122
X0001Y-0076
X00085
X0008622Y-0081378
X0016122
X0016Y-0076
X0023622Y-0073878
X0031122
X0038622
X0046122
X0053622
Y-0081378
X0061122
X0068622
Y-0073878
X0076122
Y-0066378
Y-0058878
Y-0051378
X0046122
Y-0058878
Y-0066378
X0038622
Y-0058878
X0021Y-00565
X0013
X0005
X0008622Y-0051378
X0001122
X-00125Y-0048
X-00155Y-00575
X-0013878Y-0073878
Y-0081378
X-0043878
X0023622
X0031122
X0038622
X0046122
X00195Y-00665
X0008622Y-0043878
X-0006378Y-0036378
X-0013878
X-0021378
Y-0028878
Y-0021378
X-00155Y-0017
X-0021378Y-0006378
X-0006378
X0001122
Y0001122
X-0006378
X-0013878Y0016122
X-0021378
Y0038622
X-0013878
Y0068622
X-0006378Y0076122
X0001122
X0010441Y0070441
X0027Y006275
X0038622Y0061122
X0046122
X00435Y0066
X0038622Y0068622
Y0076122
X0053622
X0061122
X0068622
X0076122Y0068622
Y0061122
Y0053622
Y0046122
X0068622
Y0038622
X0081Y0039
X00735Y002
X0068622Y0023622
X00655Y0013
X0054878Y0012378
X0056378Y0017378
X00515Y0016
X0052878Y0021378
X0047878Y0019878
X00355Y00275
X0031
X0022Y0018
X00225Y001
X001525Y0008
X00225Y-00045
X00315Y-0017
Y-002
X00345
Y-0023
X00375
Y-0026
X00405
X00345
X00315
Y-0023
X0061122Y-0021378
X0068622
X0061122Y-0028878
X0055Y-001
X0056Y00025
X007Y00005
X0076122Y0008622
X00825Y0006
X0059Y0029
X0038622Y0046122
X0031122
X0023622
X-0036378
Y0053622
X-0043878
Y0061122
Y0068622
Y0076122
Y0046122
Y0038622
X-0036378Y0031122
Y0023622
X-0043878
X-0043Y0013
Y00045
X-0036378Y-0006378
Y-0021378
X-0043878
X-0036378Y-0036378
Y-0043878
X-0043878
X-0021378
X0076122
X-0066378
Y-0036378
X-0073878
Y-0028878
Y-0021378
X-0066378
X-0051378
Y-0013878
X-0058878
X-0081378
Y-0006378
Y0001122
Y0008622
Y0016122
Y0023622
X-0073878
X-0066378
X-0058878
X-0051378
X-00545Y0019
X-0062
X-00705
X-0073878Y0031122
X-0081378
Y0038622
Y0046122
Y0053622
X-0073878
Y0068622
Y0076122
X-0066378
X-0058878
X-0051378
X-0056Y00455
Y0037
X-0066
Y00455
X-0081378Y0061122
Y0068622
X-00465Y0019
X-0081378Y-0021378
Y-0028878
Y-0036378
Y-0043878
X-0073878
T03
X00015Y-0039
X00115Y-00105
X0023044Y-0010071
X0028Y-00045
X0020871Y-00198
T04
X00355Y-0052
X00445Y-0046
X-00065Y0037
Y0049
X0002Y00655
T05
X00155Y0074
Y0079
X00205
X00205Y0074
X00255
Y0079
X00305
X00305Y0074
X00355Y0074
X00355Y0079
T06
X-0035574Y-0077165
X-00277
X-0019826
X-002Y0072835
X-0027874Y0072835
X-0035748Y0072835
T07
X0078Y-0031
Y-0021
Y-0011
Y-0001
T09
X-0061024Y-0061024
X0061024
X0061024Y0061024
X-0061024
M30
