G04*
G04 #@! TF.GenerationSoftware,Altium Limited,Altium Designer,21.1.1 (26)*
G04*
G04 Layer_Physical_Order=1*
G04 Layer_Color=255*
%FSLAX25Y25*%
%MOIN*%
G70*
G04*
G04 #@! TF.SameCoordinates,EC72FFD8-62BE-425B-AFB2-474ABE2E55C8*
G04*
G04*
G04 #@! TF.FilePolarity,Positive*
G04*
G01*
G75*
%ADD11C,0.01968*%
%ADD13C,0.02000*%
%ADD16R,0.01968X0.03150*%
%ADD17R,0.03150X0.01968*%
%ADD18R,0.02165X0.06693*%
%ADD19R,0.03937X0.03543*%
%ADD20R,0.03543X0.03150*%
%ADD21R,0.03543X0.03150*%
%ADD22R,0.04724X0.08661*%
%ADD23R,0.13780X0.08661*%
%ADD24R,0.03765X0.04749*%
%ADD25R,0.13780X0.06299*%
%ADD26R,0.03740X0.04134*%
%ADD27R,0.06102X0.04724*%
%ADD28R,0.02996X0.00955*%
G04:AMPARAMS|DCode=29|XSize=29.96mil|YSize=9.55mil|CornerRadius=4.77mil|HoleSize=0mil|Usage=FLASHONLY|Rotation=180.000|XOffset=0mil|YOffset=0mil|HoleType=Round|Shape=RoundedRectangle|*
%AMROUNDEDRECTD29*
21,1,0.02996,0.00000,0,0,180.0*
21,1,0.02042,0.00955,0,0,180.0*
1,1,0.00955,-0.01021,0.00000*
1,1,0.00955,0.01021,0.00000*
1,1,0.00955,0.01021,0.00000*
1,1,0.00955,-0.01021,0.00000*
%
%ADD29ROUNDEDRECTD29*%
G04:AMPARAMS|DCode=30|XSize=9.55mil|YSize=29.96mil|CornerRadius=4.77mil|HoleSize=0mil|Usage=FLASHONLY|Rotation=180.000|XOffset=0mil|YOffset=0mil|HoleType=Round|Shape=RoundedRectangle|*
%AMROUNDEDRECTD30*
21,1,0.00955,0.02042,0,0,180.0*
21,1,0.00000,0.02996,0,0,180.0*
1,1,0.00955,0.00000,0.01021*
1,1,0.00955,0.00000,0.01021*
1,1,0.00955,0.00000,-0.01021*
1,1,0.00955,0.00000,-0.01021*
%
%ADD30ROUNDEDRECTD30*%
%ADD31R,0.06299X0.04331*%
%ADD32R,0.06299X0.06299*%
%ADD33R,0.03543X0.04134*%
%ADD34R,0.03985X0.04758*%
%ADD35R,0.07874X0.05315*%
%ADD36R,0.04921X0.07087*%
%ADD37R,0.03347X0.02953*%
%ADD38R,0.04134X0.03543*%
%ADD39R,0.03543X0.02756*%
%ADD40R,0.02362X0.03150*%
%ADD41R,0.03150X0.03150*%
%ADD42R,0.04449X0.09606*%
%ADD43R,0.03150X0.02362*%
%ADD44R,0.03371X0.03379*%
%ADD45R,0.04134X0.03740*%
%ADD52R,0.13780X0.15748*%
%ADD71C,0.04000*%
%ADD72R,0.04000X0.04000*%
%ADD73C,0.01000*%
%ADD74C,0.01500*%
%ADD75C,0.03000*%
%ADD76R,0.02953X0.03051*%
%ADD77O,0.05906X0.08858*%
%ADD78O,0.08858X0.05906*%
%ADD79R,0.05118X0.05118*%
%ADD80C,0.05118*%
%ADD81C,0.20000*%
%ADD82C,0.05906*%
%ADD83R,0.05906X0.05906*%
%ADD84C,0.02500*%
%ADD85C,0.02362*%
%ADD86C,0.05000*%
%ADD87C,0.03000*%
G36*
X71060Y85320D02*
X73353Y84706D01*
X75547Y83797D01*
X77603Y82610D01*
X79486Y81165D01*
X81165Y79486D01*
X82610Y77603D01*
X83797Y75547D01*
X84706Y73353D01*
X85320Y71060D01*
X85630Y68707D01*
Y67520D01*
Y-67520D01*
Y-68707D01*
X85320Y-71060D01*
X84706Y-73354D01*
X83797Y-75547D01*
X82610Y-77603D01*
X81165Y-79486D01*
X79486Y-81165D01*
X77603Y-82610D01*
X75547Y-83797D01*
X73353Y-84706D01*
X71060Y-85320D01*
X68707Y-85630D01*
X-68707D01*
X-71060Y-85320D01*
X-73354Y-84706D01*
X-75547Y-83797D01*
X-77603Y-82610D01*
X-79486Y-81165D01*
X-81165Y-79486D01*
X-82610Y-77603D01*
X-83797Y-75547D01*
X-84706Y-73354D01*
X-85320Y-71060D01*
X-85630Y-68707D01*
Y-67520D01*
Y67520D01*
Y68707D01*
X-85320Y71060D01*
X-84706Y73353D01*
X-83797Y75547D01*
X-82610Y77603D01*
X-81165Y79486D01*
X-79486Y81165D01*
X-77603Y82610D01*
X-75547Y83797D01*
X-73354Y84706D01*
X-71060Y85320D01*
X-68707Y85630D01*
X68707D01*
X71060Y85320D01*
D02*
G37*
%LPC*%
G36*
X17000Y83520D02*
X10500D01*
X10110Y83442D01*
X9779Y83221D01*
X7279Y80721D01*
X7058Y80390D01*
X6980Y80000D01*
Y77795D01*
X6757Y77553D01*
X5780Y76977D01*
X5500Y77033D01*
X4844Y76903D01*
X4288Y76531D01*
X3916Y75975D01*
X3786Y75319D01*
X3916Y74663D01*
X4288Y74107D01*
X4480Y73978D01*
Y68891D01*
X4029Y68531D01*
X3280Y68217D01*
X2783Y68423D01*
X2000Y68526D01*
X1217Y68423D01*
X487Y68120D01*
X-140Y67640D01*
X-217Y67539D01*
X-2500D01*
X-3280Y67384D01*
X-3942Y66942D01*
X-7942Y62942D01*
X-8384Y62280D01*
X-8495Y61723D01*
X-9803Y59324D01*
X-10259Y59294D01*
X-10802Y59291D01*
X-10842Y59275D01*
X-10972D01*
X-13099Y61401D01*
X-13512Y61677D01*
X-14000Y61774D01*
X-15874D01*
Y63067D01*
X-20383D01*
X-20417Y63067D01*
X-21583D01*
X-22099Y63535D01*
X-22127Y64931D01*
X-19279Y67779D01*
X-19058Y68110D01*
X-18980Y68500D01*
Y69776D01*
X-16941D01*
Y75894D01*
X-22962D01*
X-23059Y75894D01*
X-24259Y75613D01*
X-24622Y76086D01*
X-25575Y76817D01*
X-26684Y77276D01*
X-27124Y77334D01*
Y72835D01*
Y68335D01*
X-26684Y68393D01*
X-25575Y68852D01*
X-24622Y69583D01*
X-24259Y70057D01*
X-23059Y69776D01*
X-22962Y69776D01*
X-21857D01*
X-21366Y68576D01*
X-24221Y65721D01*
X-24442Y65390D01*
X-24520Y65000D01*
Y63067D01*
X-26126D01*
Y57933D01*
X-21617D01*
X-21583Y57933D01*
X-20417D01*
X-20383Y57933D01*
X-15874D01*
Y59225D01*
X-14528D01*
X-12401Y57099D01*
X-11988Y56823D01*
X-11500Y56726D01*
X-10842D01*
X-10802Y56709D01*
X-10250Y56706D01*
X-10089Y56700D01*
X-9590Y55816D01*
X-10140Y54802D01*
X-10259Y54794D01*
X-10802Y54791D01*
X-10842Y54774D01*
X-11500D01*
X-11988Y54677D01*
X-12401Y54401D01*
X-14528Y52275D01*
X-15874D01*
Y53567D01*
X-20383D01*
X-20417Y53567D01*
X-21583D01*
X-21617Y53567D01*
X-26126D01*
Y52020D01*
X-27578D01*
X-34480Y58922D01*
Y70049D01*
X-34205Y70163D01*
X-33566Y70653D01*
X-33331Y70960D01*
X-32252Y70942D01*
X-31976Y70824D01*
X-31856Y70535D01*
X-31126Y69583D01*
X-30173Y68852D01*
X-29064Y68393D01*
X-28624Y68335D01*
Y72835D01*
Y77334D01*
X-29064Y77276D01*
X-30173Y76817D01*
X-31126Y76086D01*
X-31856Y75134D01*
X-31976Y74845D01*
X-32252Y74728D01*
X-33331Y74710D01*
X-33566Y75016D01*
X-34205Y75507D01*
X-34949Y75815D01*
X-35748Y75920D01*
X-36547Y75815D01*
X-37291Y75507D01*
X-37930Y75016D01*
X-38420Y74377D01*
X-38728Y73633D01*
X-38833Y72835D01*
X-38728Y72036D01*
X-38420Y71292D01*
X-37930Y70653D01*
X-37291Y70163D01*
X-36547Y69854D01*
X-36520Y69851D01*
Y58500D01*
X-36442Y58110D01*
X-36221Y57779D01*
X-28721Y50279D01*
X-28390Y50058D01*
X-28000Y49980D01*
X-26126D01*
Y48433D01*
X-21617D01*
X-21583Y48433D01*
X-20417D01*
X-20383Y48433D01*
X-15874D01*
Y49725D01*
X-14000D01*
X-13512Y49823D01*
X-13099Y50099D01*
X-10972Y52226D01*
X-10842D01*
X-10802Y52209D01*
X-10250Y52206D01*
X-9826Y52191D01*
X-9039Y50619D01*
X-9121Y50513D01*
X-9423Y49783D01*
X-9526Y49000D01*
X-9423Y48217D01*
X-9121Y47487D01*
X-8640Y46860D01*
X-8559Y46798D01*
X-8966Y45598D01*
X-33421D01*
X-33812Y45521D01*
X-34142Y45300D01*
X-43422Y36020D01*
X-47327D01*
X-48276Y36626D01*
Y47232D01*
X-53724D01*
Y36626D01*
X-52270D01*
X-51766Y35633D01*
X-52291Y34520D01*
X-58078D01*
X-58984Y35426D01*
X-58487Y36626D01*
X-58276D01*
Y47232D01*
X-63724D01*
Y36626D01*
X-62020D01*
Y36000D01*
X-61942Y35610D01*
X-61721Y35279D01*
X-60570Y34128D01*
X-61029Y33020D01*
X-66578D01*
X-68984Y35426D01*
X-68487Y36626D01*
X-68276D01*
Y47232D01*
X-73724D01*
Y36626D01*
X-72020D01*
Y36000D01*
X-71942Y35610D01*
X-71721Y35279D01*
X-71721Y35279D01*
X-67721Y31279D01*
X-67390Y31058D01*
X-67000Y30980D01*
X-41757D01*
X-41367Y31058D01*
X-41036Y31279D01*
X-31756Y40559D01*
X-8761D01*
X-8354Y39359D01*
X-8640Y39140D01*
X-9121Y38513D01*
X-9423Y37783D01*
X-9526Y37000D01*
X-9509Y36874D01*
X-12410Y33974D01*
X-12546Y33979D01*
X-13610Y34353D01*
Y36831D01*
X-28390D01*
Y27169D01*
X-23039D01*
Y24726D01*
X-25726Y22039D01*
X-31500D01*
X-32280Y21884D01*
X-32942Y21442D01*
X-37942Y16442D01*
X-38384Y15780D01*
X-38539Y15000D01*
Y1726D01*
X-41226Y-961D01*
X-43618D01*
Y-138D01*
X-49307D01*
X-49712Y462D01*
X-49845Y1062D01*
X-49662Y1268D01*
X-46776D01*
Y7321D01*
X-51000D01*
X-55224D01*
Y1362D01*
X-56776D01*
Y7321D01*
X-61000D01*
X-65224D01*
Y1268D01*
X-60882D01*
Y-2250D01*
X-55831D01*
Y-3000D01*
X-55081D01*
Y-7362D01*
X-50779D01*
Y-7038D01*
X-50721Y-5862D01*
X-49580Y-5862D01*
X-43618D01*
Y-5039D01*
X-24000D01*
X-23220Y-4884D01*
X-22558Y-4442D01*
X-19558Y-1442D01*
X-19558Y-1442D01*
X-19116Y-780D01*
X-18961Y0D01*
Y2760D01*
X-18138D01*
Y12421D01*
X-23862D01*
Y2760D01*
X-23039D01*
Y845D01*
X-24845Y-961D01*
X-31774D01*
X-32886Y151D01*
X-32427Y1260D01*
X-30805D01*
Y7591D01*
Y13921D01*
X-32998D01*
X-33495Y15121D01*
X-30655Y17961D01*
X-21042D01*
X-21042Y17960D01*
X-21040Y17961D01*
X-17500D01*
X-16720Y18116D01*
X-16058Y18558D01*
X-15505Y19112D01*
X-12396Y19733D01*
X419Y6919D01*
X915Y6587D01*
X1500Y6471D01*
X14389D01*
X14567Y6352D01*
X15250Y6216D01*
X15363Y6238D01*
X16463Y5505D01*
X16563Y5346D01*
Y-12047D01*
X16640Y-12437D01*
X16861Y-12768D01*
X18147Y-14053D01*
X17752Y-15355D01*
X17373Y-15431D01*
X13319Y-11377D01*
X13384Y-11280D01*
X13539Y-10500D01*
X13384Y-9720D01*
X12942Y-9058D01*
X12280Y-8616D01*
X11500Y-8461D01*
X10720Y-8616D01*
X10058Y-9058D01*
X9616Y-9720D01*
X9461Y-10500D01*
X9616Y-11280D01*
X10058Y-11942D01*
X10720Y-12384D01*
X11500Y-12539D01*
X11581Y-12523D01*
X13738Y-14680D01*
X13241Y-15880D01*
X4612D01*
X3886Y-15154D01*
Y-13689D01*
X5052D01*
Y-9311D01*
X1819D01*
Y-7811D01*
X-1116D01*
Y-11500D01*
X-1866D01*
Y-12250D01*
X-5552D01*
Y-15189D01*
X-5552D01*
X-5331Y-16389D01*
X-10162Y-21220D01*
X-10383Y-21551D01*
X-10460Y-21941D01*
Y-32260D01*
X-11575D01*
Y-35622D01*
X-7526D01*
X-7526Y-35622D01*
X-7425D01*
X-7170Y-34528D01*
X-6225Y-34528D01*
X-4250D01*
Y-30953D01*
X-3500D01*
Y-30203D01*
X272D01*
Y-27378D01*
X-120D01*
X-140Y-27357D01*
X-499Y-26060D01*
X-380Y-25941D01*
X377D01*
X394Y-25952D01*
X450Y-25941D01*
X550D01*
X606Y-25952D01*
X623Y-25941D01*
X5372D01*
X6433Y-26276D01*
Y-31016D01*
X6433D01*
Y-31984D01*
X6433D01*
Y-36724D01*
X11567D01*
Y-35374D01*
X14146D01*
X14536Y-35296D01*
X14867Y-35075D01*
X20064Y-29878D01*
X27147D01*
X27530Y-29875D01*
X28614Y-30300D01*
Y-31205D01*
X28591Y-31321D01*
Y-32967D01*
X28078Y-33480D01*
X20546D01*
X20155Y-33558D01*
X19825Y-33779D01*
X18825Y-34779D01*
X18604Y-35110D01*
X18526Y-35500D01*
Y-36333D01*
X17176D01*
Y-41467D01*
X21916D01*
Y-41467D01*
X22884Y-41467D01*
Y-41467D01*
X27624D01*
Y-41467D01*
X28824Y-41090D01*
X29971Y-42236D01*
Y-44764D01*
X28824Y-45910D01*
X27624Y-45433D01*
Y-45433D01*
X23416D01*
Y-43933D01*
X20296D01*
Y-48000D01*
Y-52067D01*
X23416D01*
Y-50567D01*
X27624D01*
Y-50567D01*
X28824Y-50090D01*
X29971Y-51236D01*
Y-51892D01*
X29969Y-51894D01*
X29971Y-51900D01*
Y-52100D01*
X29969Y-52106D01*
X29971Y-52108D01*
Y-58264D01*
X28264Y-59971D01*
X-1542D01*
Y-56978D01*
X-11841D01*
Y-59971D01*
X-18367D01*
X-21808Y-56529D01*
X-21291Y-55350D01*
X-20752Y-55350D01*
X-14459D01*
Y-48050D01*
X-16807D01*
X-16908Y-46850D01*
X-15078Y-45020D01*
X-12000D01*
X-11610Y-44942D01*
X-11541Y-44896D01*
X-10703Y-45187D01*
X-10341Y-45480D01*
Y-49838D01*
X-3042D01*
Y-48192D01*
X-1672D01*
X-1282Y-48114D01*
X-951Y-47893D01*
X2221Y-44721D01*
X2442Y-44390D01*
X2520Y-44000D01*
Y-40724D01*
X2942Y-40442D01*
X3384Y-39780D01*
X3539Y-39000D01*
X3384Y-38220D01*
X2942Y-37558D01*
X2280Y-37116D01*
X1500Y-36961D01*
X720Y-37116D01*
X58Y-37558D01*
X-384Y-38220D01*
X-539Y-39000D01*
X-384Y-39780D01*
X58Y-40442D01*
X480Y-40724D01*
Y-43578D01*
X-1842Y-45900D01*
X-3042Y-45542D01*
Y-44507D01*
X-4927D01*
X-5026Y-44488D01*
X-5125Y-44507D01*
X-9368D01*
X-9865Y-43307D01*
X-8779Y-42221D01*
X-8558Y-41890D01*
X-8480Y-41500D01*
Y-40740D01*
X-7425D01*
Y-37378D01*
X-11575D01*
Y-40740D01*
X-11575D01*
X-11382Y-41940D01*
X-12422Y-42980D01*
X-15500D01*
X-15890Y-43058D01*
X-16221Y-43279D01*
X-18721Y-45779D01*
X-18942Y-46110D01*
X-19020Y-46500D01*
Y-48050D01*
X-21758D01*
Y-54262D01*
X-21758Y-54882D01*
X-22938Y-55400D01*
X-23971Y-54366D01*
Y-30784D01*
X-24087Y-30198D01*
X-24419Y-29702D01*
X-27022Y-27099D01*
Y-24685D01*
X-20163Y-17826D01*
X-20161Y-17826D01*
X-20157Y-17820D01*
X-20017Y-17679D01*
X-20011Y-17676D01*
X-20010Y-17673D01*
X-10863Y-8526D01*
X-10532Y-8030D01*
X-10415Y-7445D01*
Y2760D01*
X-9083D01*
Y12421D01*
X-14807D01*
Y2760D01*
X-13474D01*
Y-6811D01*
X-19962Y-13299D01*
X-22375D01*
X-23255Y-12419D01*
X-23751Y-12087D01*
X-24337Y-11971D01*
X-27346D01*
Y-10343D01*
X-35080D01*
X-36220Y-10343D01*
X-36279Y-9167D01*
Y-8843D01*
X-41467D01*
Y-13500D01*
Y-18158D01*
X-36279D01*
Y-17833D01*
X-36220Y-16657D01*
X-35080Y-16657D01*
X-27346D01*
Y-15029D01*
X-24970D01*
X-24538Y-15461D01*
Y-17875D01*
X-31397Y-24734D01*
X-31399Y-24734D01*
X-31403Y-24740D01*
X-31473Y-24810D01*
X-31473Y-24810D01*
X-31543Y-24881D01*
X-31549Y-24884D01*
X-31550Y-24887D01*
X-36134Y-29471D01*
X-38461D01*
X-38573Y-28622D01*
X-38921Y-27782D01*
X-39474Y-27061D01*
X-40196Y-26508D01*
X-41036Y-26160D01*
X-41937Y-26041D01*
X-42838Y-26160D01*
X-43678Y-26508D01*
X-44399Y-27061D01*
X-44953Y-27782D01*
X-45301Y-28622D01*
X-45352Y-29009D01*
X-46546Y-29466D01*
X-46595Y-29463D01*
X-64779Y-11279D01*
X-65110Y-11058D01*
X-65500Y-10980D01*
X-66374D01*
Y-9433D01*
X-70883D01*
X-70917Y-9433D01*
X-72083D01*
X-72117Y-9433D01*
X-73335D01*
Y-7611D01*
X-73027Y-7484D01*
X-71827Y-8075D01*
Y-8075D01*
X-69396D01*
Y-4500D01*
Y-925D01*
X-71827D01*
Y-1576D01*
X-72673Y-2425D01*
X-73027Y-2425D01*
X-76035D01*
Y-6575D01*
X-75374D01*
Y-9433D01*
X-76626D01*
Y-14567D01*
X-72117D01*
X-72083Y-14567D01*
X-70917D01*
X-70883Y-14567D01*
X-66374D01*
Y-14265D01*
X-65174Y-13768D01*
X-47221Y-31721D01*
X-46890Y-31942D01*
X-46500Y-32020D01*
X-45419D01*
Y-32476D01*
X-45301Y-33378D01*
X-44953Y-34218D01*
X-44399Y-34939D01*
X-43678Y-35492D01*
X-42838Y-35840D01*
X-41937Y-35959D01*
X-41036Y-35840D01*
X-40196Y-35492D01*
X-39474Y-34939D01*
X-38921Y-34218D01*
X-38573Y-33378D01*
X-38461Y-32529D01*
X-35500D01*
X-34915Y-32413D01*
X-34419Y-32081D01*
X-31598Y-29261D01*
X-29185D01*
X-27029Y-31417D01*
Y-55000D01*
X-26913Y-55585D01*
X-26581Y-56081D01*
X-20081Y-62581D01*
X-19585Y-62913D01*
X-19000Y-63029D01*
X-520D01*
Y-66750D01*
X8370D01*
Y-67500D01*
D01*
Y-66750D01*
X17260D01*
Y-63029D01*
X21380D01*
X22240Y-63850D01*
Y-71150D01*
X37020D01*
Y-63850D01*
X33029D01*
Y-61608D01*
X33031Y-61606D01*
X33029Y-61600D01*
Y-61401D01*
X33031Y-61394D01*
X33029Y-61392D01*
Y-55366D01*
X33969Y-54606D01*
X33987Y-54620D01*
X34717Y-54923D01*
X35500Y-55026D01*
X36283Y-54923D01*
X37013Y-54620D01*
X37640Y-54140D01*
X38120Y-53513D01*
X38423Y-52783D01*
X38526Y-52000D01*
X38423Y-51217D01*
X38120Y-50487D01*
X37640Y-49860D01*
X37013Y-49380D01*
X36283Y-49077D01*
X35500Y-48974D01*
X34717Y-49077D01*
X33987Y-49380D01*
X33969Y-49394D01*
X33029Y-48634D01*
Y-48108D01*
X33031Y-48106D01*
X33029Y-48100D01*
Y-47901D01*
X33031Y-47894D01*
X33029Y-47892D01*
Y-39089D01*
X33035Y-39078D01*
X33641Y-38827D01*
X34309Y-38693D01*
X41491Y-45875D01*
X41474Y-46000D01*
X41577Y-46783D01*
X41879Y-47513D01*
X42360Y-48140D01*
X42987Y-48621D01*
X43717Y-48923D01*
X44500Y-49026D01*
X45283Y-48923D01*
X46013Y-48621D01*
X46640Y-48140D01*
X47120Y-47513D01*
X47423Y-46783D01*
X47526Y-46000D01*
X47423Y-45217D01*
X47120Y-44487D01*
X46915Y-44220D01*
X47376Y-43082D01*
X47434Y-43020D01*
X51035D01*
Y-46043D01*
X56957D01*
Y-38496D01*
X61543D01*
Y-41250D01*
X66004D01*
X70465D01*
Y-38539D01*
X72500D01*
X73280Y-38384D01*
X73942Y-37942D01*
X77431Y-34453D01*
X81453D01*
Y-27547D01*
X74547D01*
Y-31569D01*
X71655Y-34461D01*
X69511D01*
X69293Y-34418D01*
X55068D01*
X54704Y-33217D01*
X54712Y-33212D01*
X55084Y-32656D01*
X55214Y-32000D01*
X55084Y-31344D01*
X54712Y-30788D01*
X54520Y-30659D01*
Y-29000D01*
X54442Y-28610D01*
X54221Y-28279D01*
X51746Y-25804D01*
X52337Y-24699D01*
X52416Y-24714D01*
X53071Y-24584D01*
X53628Y-24212D01*
X54447D01*
X55003Y-24584D01*
X55659Y-24714D01*
X56314Y-24584D01*
X56871Y-24212D01*
X57242Y-23656D01*
X57373Y-23000D01*
X57242Y-22344D01*
X56871Y-21788D01*
X56314Y-21416D01*
X56126Y-21379D01*
X55856Y-20565D01*
X55778Y-20132D01*
X56106Y-19641D01*
X56237Y-18985D01*
X56106Y-18329D01*
X55734Y-17773D01*
X55178Y-17401D01*
X55046Y-17375D01*
X54418Y-16906D01*
X54191Y-16113D01*
X54214Y-16000D01*
X54158Y-15720D01*
X54267Y-15536D01*
X54894Y-14531D01*
X54950Y-14520D01*
X55050D01*
X55106Y-14531D01*
X55123Y-14520D01*
X57582D01*
Y-16374D01*
X62347D01*
Y-10626D01*
X57883D01*
X57538Y-10429D01*
X57364Y-9962D01*
X57906Y-8890D01*
X58344Y-8765D01*
X59000Y-8895D01*
X59656Y-8765D01*
X60212Y-8393D01*
X60584Y-7837D01*
X60714Y-7181D01*
X61592Y-6039D01*
X70155D01*
X72129Y-8013D01*
X72116Y-8038D01*
X71545Y-9126D01*
X70872Y-9126D01*
X68785D01*
Y-12750D01*
X71918D01*
Y-10261D01*
X71921Y-10255D01*
X73047Y-9328D01*
X73492Y-9378D01*
X73899Y-9817D01*
X74054Y-10007D01*
X74187Y-10189D01*
X74295Y-10358D01*
X74379Y-10513D01*
X74440Y-10652D01*
X74479Y-10774D01*
X74499Y-10878D01*
X74507Y-11004D01*
X74522Y-11034D01*
X74636Y-11901D01*
X74984Y-12741D01*
X75538Y-13463D01*
X76259Y-14016D01*
X77099Y-14364D01*
X78000Y-14482D01*
X78901Y-14364D01*
X79741Y-14016D01*
X80462Y-13463D01*
X81016Y-12741D01*
X81364Y-11901D01*
X81482Y-11000D01*
X81364Y-10099D01*
X81016Y-9259D01*
X80462Y-8538D01*
X79741Y-7984D01*
X78901Y-7636D01*
X78034Y-7522D01*
X78004Y-7507D01*
X77878Y-7499D01*
X77774Y-7479D01*
X77652Y-7440D01*
X77513Y-7379D01*
X77358Y-7295D01*
X77189Y-7187D01*
X77012Y-7058D01*
X76603Y-6709D01*
X76385Y-6499D01*
X76381Y-6497D01*
X72442Y-2558D01*
X71780Y-2116D01*
X71000Y-1961D01*
X67465D01*
Y1250D01*
X63004D01*
X58543D01*
Y-1961D01*
X53957D01*
Y5961D01*
X58543D01*
Y2750D01*
X63004D01*
X67465D01*
Y4955D01*
X68665Y5452D01*
X73490Y626D01*
X73492Y622D01*
X73899Y183D01*
X74054Y-7D01*
X74187Y-189D01*
X74295Y-358D01*
X74379Y-513D01*
X74440Y-652D01*
X74479Y-774D01*
X74499Y-878D01*
X74507Y-1004D01*
X74522Y-1034D01*
X74636Y-1901D01*
X74984Y-2741D01*
X75538Y-3463D01*
X76259Y-4016D01*
X77099Y-4364D01*
X78000Y-4482D01*
X78901Y-4364D01*
X79741Y-4016D01*
X80462Y-3463D01*
X81016Y-2741D01*
X81364Y-1901D01*
X81482Y-1000D01*
X81364Y-99D01*
X81016Y741D01*
X80462Y1462D01*
X79741Y2016D01*
X78901Y2364D01*
X78034Y2478D01*
X78004Y2493D01*
X77878Y2501D01*
X77774Y2521D01*
X77652Y2560D01*
X77513Y2621D01*
X77358Y2705D01*
X77189Y2813D01*
X77012Y2942D01*
X76603Y3291D01*
X76385Y3501D01*
X76381Y3503D01*
X70926Y8958D01*
X71423Y10158D01*
X75319D01*
Y11658D01*
X80118D01*
Y16201D01*
X81131Y16654D01*
X83193D01*
Y21250D01*
X80110D01*
Y22750D01*
X83193D01*
Y27346D01*
X81131D01*
X80118Y27799D01*
Y32342D01*
X78669D01*
Y33850D01*
X78592Y34241D01*
X78371Y34571D01*
X68221Y44721D01*
X67890Y44942D01*
X67500Y45020D01*
X57922D01*
X43721Y59221D01*
X43390Y59442D01*
X43000Y59520D01*
X42020D01*
Y63441D01*
X42223Y63673D01*
X43220Y64271D01*
X43500Y64216D01*
X44183Y64351D01*
X44762Y64738D01*
X45149Y65317D01*
X45280Y65977D01*
X45901Y66599D01*
X46178Y67012D01*
X46275Y67500D01*
Y71965D01*
X47173D01*
Y75917D01*
X47173D01*
Y77083D01*
X47173D01*
Y81035D01*
X42827D01*
Y80020D01*
X37826D01*
X37302Y80802D01*
X36476Y81355D01*
X35500Y81549D01*
X34525Y81355D01*
X33698Y80802D01*
X32302Y80802D01*
X31475Y81355D01*
X30500Y81549D01*
X29524Y81355D01*
X28698Y80802D01*
X27302D01*
X26476Y81355D01*
X25500Y81549D01*
X24524Y81355D01*
X23698Y80802D01*
X22302Y80802D01*
X21475Y81355D01*
X20500Y81549D01*
X19577Y81365D01*
X17721Y83221D01*
X17390Y83442D01*
X17000Y83520D01*
D02*
G37*
G36*
X-60274Y73002D02*
Y61774D01*
X-49046D01*
X-49135Y62907D01*
X-49576Y64743D01*
X-50299Y66488D01*
X-51285Y68099D01*
X-52512Y69535D01*
X-53948Y70762D01*
X-55559Y71749D01*
X-57304Y72472D01*
X-59141Y72913D01*
X-60274Y73002D01*
D02*
G37*
G36*
X61774D02*
Y61774D01*
X73002D01*
X72913Y62907D01*
X72472Y64743D01*
X71749Y66488D01*
X70762Y68099D01*
X69535Y69535D01*
X68099Y70762D01*
X66488Y71749D01*
X64743Y72472D01*
X62907Y72913D01*
X61774Y73002D01*
D02*
G37*
G36*
X-61774D02*
X-62907Y72913D01*
X-64743Y72472D01*
X-66488Y71749D01*
X-68099Y70762D01*
X-69535Y69535D01*
X-70762Y68099D01*
X-71749Y66488D01*
X-72472Y64743D01*
X-72913Y62907D01*
X-73002Y61774D01*
X-61774D01*
Y73002D01*
D02*
G37*
G36*
X60274D02*
X59141Y72913D01*
X57304Y72472D01*
X55559Y71749D01*
X53948Y70762D01*
X52512Y69535D01*
X51285Y68099D01*
X50299Y66488D01*
X49576Y64743D01*
X49135Y62907D01*
X49046Y61774D01*
X60274D01*
Y73002D01*
D02*
G37*
G36*
X73002Y60274D02*
X61774D01*
Y49046D01*
X62907Y49135D01*
X64743Y49576D01*
X66488Y50299D01*
X68099Y51285D01*
X69535Y52512D01*
X70762Y53948D01*
X71749Y55559D01*
X72472Y57304D01*
X72913Y59141D01*
X73002Y60274D01*
D02*
G37*
G36*
X-49046D02*
X-60274D01*
Y49046D01*
X-59141Y49135D01*
X-57304Y49576D01*
X-55559Y50299D01*
X-53948Y51285D01*
X-52512Y52512D01*
X-51285Y53948D01*
X-50299Y55559D01*
X-49576Y57304D01*
X-49135Y59141D01*
X-49046Y60274D01*
D02*
G37*
G36*
X-61774D02*
X-73002D01*
X-72913Y59141D01*
X-72472Y57304D01*
X-71749Y55559D01*
X-70762Y53948D01*
X-69535Y52512D01*
X-68099Y51285D01*
X-66488Y50299D01*
X-64743Y49576D01*
X-62907Y49135D01*
X-61774Y49046D01*
Y60274D01*
D02*
G37*
G36*
X60274D02*
X49046D01*
X49135Y59141D01*
X49576Y57304D01*
X50299Y55559D01*
X51285Y53948D01*
X52512Y52512D01*
X53948Y51285D01*
X55559Y50299D01*
X57304Y49576D01*
X59141Y49135D01*
X60274Y49046D01*
Y60274D01*
D02*
G37*
G36*
X-46776Y14874D02*
X-50250D01*
Y8821D01*
X-46776D01*
Y14874D01*
D02*
G37*
G36*
X-66776D02*
X-70250D01*
Y8821D01*
X-66776D01*
Y14874D01*
D02*
G37*
G36*
X-56776D02*
X-60250D01*
Y8821D01*
X-56776D01*
Y14874D01*
D02*
G37*
G36*
X-51750D02*
X-55224D01*
Y8821D01*
X-51750D01*
Y14874D01*
D02*
G37*
G36*
X-61750D02*
X-65224D01*
Y8821D01*
X-61750D01*
Y14874D01*
D02*
G37*
G36*
X-71750D02*
X-75224D01*
Y8821D01*
X-71750D01*
Y14874D01*
D02*
G37*
G36*
X-25693Y13921D02*
X-29305D01*
Y8341D01*
X-25693D01*
Y13921D01*
D02*
G37*
G36*
X-66776Y7321D02*
X-70250D01*
Y1268D01*
X-66776D01*
Y7321D01*
D02*
G37*
G36*
X-71750D02*
X-75224D01*
Y1268D01*
X-71750D01*
Y7321D01*
D02*
G37*
G36*
X-25693Y6841D02*
X-29305D01*
Y1260D01*
X-25693D01*
Y6841D01*
D02*
G37*
G36*
X-65465Y-925D02*
X-67896D01*
Y-3750D01*
X-65465D01*
Y-925D01*
D02*
G37*
G36*
X-56581Y-3750D02*
X-60882D01*
Y-7362D01*
X-56581D01*
Y-3750D01*
D02*
G37*
G36*
X-65465Y-5250D02*
X-67896D01*
Y-8075D01*
X-65465D01*
Y-5250D01*
D02*
G37*
G36*
X-2616Y-7811D02*
X-5552D01*
Y-10750D01*
X-2616D01*
Y-7811D01*
D02*
G37*
G36*
X67285Y-9126D02*
X64153D01*
Y-12750D01*
X67285D01*
Y-9126D01*
D02*
G37*
G36*
X-42966Y-8843D02*
X-48153D01*
Y-12750D01*
X-42966D01*
Y-8843D01*
D02*
G37*
G36*
X71918Y-14250D02*
X68785D01*
Y-17874D01*
X71918D01*
Y-14250D01*
D02*
G37*
G36*
X67285D02*
X64153D01*
Y-17874D01*
X67285D01*
Y-14250D01*
D02*
G37*
G36*
X-42966D02*
X-48153D01*
Y-18158D01*
X-42966D01*
Y-14250D01*
D02*
G37*
G36*
X78000Y-17517D02*
X77099Y-17636D01*
X76259Y-17984D01*
X75538Y-18538D01*
X74984Y-19259D01*
X74636Y-20099D01*
X74518Y-21000D01*
X74636Y-21901D01*
X74984Y-22741D01*
X75538Y-23462D01*
X76259Y-24016D01*
X77099Y-24364D01*
X78000Y-24483D01*
X78901Y-24364D01*
X79741Y-24016D01*
X80462Y-23462D01*
X81016Y-22741D01*
X81364Y-21901D01*
X81482Y-21000D01*
X81364Y-20099D01*
X81016Y-19259D01*
X80462Y-18538D01*
X79741Y-17984D01*
X78901Y-17636D01*
X78000Y-17517D01*
D02*
G37*
G36*
X-60478Y-24627D02*
Y-30250D01*
X-56233D01*
Y-29524D01*
X-56403Y-28231D01*
X-56902Y-27026D01*
X-57696Y-25991D01*
X-58731Y-25197D01*
X-59935Y-24698D01*
X-60478Y-24627D01*
D02*
G37*
G36*
X-61978D02*
X-62521Y-24698D01*
X-63726Y-25197D01*
X-64761Y-25991D01*
X-65555Y-27026D01*
X-66054Y-28231D01*
X-66224Y-29524D01*
Y-30250D01*
X-61978D01*
Y-24627D01*
D02*
G37*
G36*
X272Y-31703D02*
X-2750D01*
Y-34528D01*
X272D01*
Y-31703D01*
D02*
G37*
G36*
X-56233Y-31750D02*
X-60478D01*
Y-37373D01*
X-59935Y-37302D01*
X-58731Y-36803D01*
X-57696Y-36009D01*
X-56902Y-34974D01*
X-56403Y-33769D01*
X-56233Y-32476D01*
Y-31750D01*
D02*
G37*
G36*
X-61978D02*
X-66224D01*
Y-32476D01*
X-66054Y-33769D01*
X-65555Y-34974D01*
X-64761Y-36009D01*
X-63726Y-36803D01*
X-62521Y-37302D01*
X-61978Y-37373D01*
Y-31750D01*
D02*
G37*
G36*
X-50697Y-37028D02*
X-51423D01*
Y-41274D01*
X-45800D01*
X-45872Y-40731D01*
X-46371Y-39526D01*
X-47164Y-38491D01*
X-48199Y-37697D01*
X-49404Y-37198D01*
X-50697Y-37028D01*
D02*
G37*
G36*
X-52923D02*
X-53650D01*
X-54943Y-37198D01*
X-56147Y-37697D01*
X-57182Y-38491D01*
X-57976Y-39526D01*
X-58475Y-40731D01*
X-58546Y-41274D01*
X-52923D01*
Y-37028D01*
D02*
G37*
G36*
X-45800Y-42774D02*
X-51423D01*
Y-47019D01*
X-50697D01*
X-49404Y-46849D01*
X-48199Y-46350D01*
X-47164Y-45556D01*
X-46371Y-44521D01*
X-45872Y-43317D01*
X-45800Y-42774D01*
D02*
G37*
G36*
X-52923D02*
X-58546D01*
X-58475Y-43317D01*
X-57976Y-44521D01*
X-57182Y-45556D01*
X-56147Y-46350D01*
X-54943Y-46849D01*
X-53650Y-47019D01*
X-52923D01*
Y-42774D01*
D02*
G37*
G36*
X18796Y-43933D02*
X15676D01*
Y-47250D01*
X18796D01*
Y-43933D01*
D02*
G37*
G36*
X70465Y-42750D02*
X66754D01*
Y-47543D01*
X70465D01*
Y-42750D01*
D02*
G37*
G36*
X65254D02*
X61543D01*
Y-47543D01*
X65254D01*
Y-42750D01*
D02*
G37*
G36*
X18796Y-48750D02*
X15676D01*
Y-52067D01*
X18796D01*
Y-48750D01*
D02*
G37*
G36*
X-1542Y-52062D02*
X-5941D01*
Y-55478D01*
X-1542D01*
Y-52062D01*
D02*
G37*
G36*
X-7441D02*
X-11841D01*
Y-55478D01*
X-7441D01*
Y-52062D01*
D02*
G37*
G36*
X61774Y-49046D02*
Y-60274D01*
X73002D01*
X72913Y-59141D01*
X72472Y-57304D01*
X71749Y-55559D01*
X70762Y-53948D01*
X69535Y-52512D01*
X68099Y-51285D01*
X66488Y-50299D01*
X64743Y-49576D01*
X62907Y-49135D01*
X61774Y-49046D01*
D02*
G37*
G36*
X60274D02*
X59141Y-49135D01*
X57304Y-49576D01*
X55559Y-50299D01*
X53948Y-51285D01*
X52512Y-52512D01*
X51285Y-53948D01*
X50299Y-55559D01*
X49576Y-57304D01*
X49135Y-59141D01*
X49046Y-60274D01*
X60274D01*
Y-49046D01*
D02*
G37*
G36*
X-60274D02*
Y-60274D01*
X-49046D01*
X-49135Y-59141D01*
X-49576Y-57304D01*
X-50299Y-55559D01*
X-51285Y-53948D01*
X-52512Y-52512D01*
X-53948Y-51285D01*
X-55559Y-50299D01*
X-57304Y-49576D01*
X-59141Y-49135D01*
X-60274Y-49046D01*
D02*
G37*
G36*
X-61774D02*
X-62907Y-49135D01*
X-64743Y-49576D01*
X-66488Y-50299D01*
X-68099Y-51285D01*
X-69535Y-52512D01*
X-70762Y-53948D01*
X-71749Y-55559D01*
X-72472Y-57304D01*
X-72913Y-59141D01*
X-73002Y-60274D01*
X-61774D01*
Y-49046D01*
D02*
G37*
G36*
X17260Y-68250D02*
X9120D01*
Y-72650D01*
X17260D01*
Y-68250D01*
D02*
G37*
G36*
X7620D02*
X-520D01*
Y-72650D01*
X7620D01*
Y-68250D01*
D02*
G37*
G36*
X73002Y-61774D02*
X61774D01*
Y-73002D01*
X62907Y-72913D01*
X64743Y-72472D01*
X66488Y-71749D01*
X68099Y-70762D01*
X69535Y-69535D01*
X70762Y-68099D01*
X71749Y-66488D01*
X72472Y-64743D01*
X72913Y-62907D01*
X73002Y-61774D01*
D02*
G37*
G36*
X60274D02*
X49046D01*
X49135Y-62907D01*
X49576Y-64743D01*
X50299Y-66488D01*
X51285Y-68099D01*
X52512Y-69535D01*
X53948Y-70762D01*
X55559Y-71749D01*
X57304Y-72472D01*
X59141Y-72913D01*
X60274Y-73002D01*
Y-61774D01*
D02*
G37*
G36*
X-49046D02*
X-60274D01*
Y-73002D01*
X-59141Y-72913D01*
X-57304Y-72472D01*
X-55559Y-71749D01*
X-53948Y-70762D01*
X-52512Y-69535D01*
X-51285Y-68099D01*
X-50299Y-66488D01*
X-49576Y-64743D01*
X-49135Y-62907D01*
X-49046Y-61774D01*
D02*
G37*
G36*
X-61774D02*
X-73002D01*
X-72913Y-62907D01*
X-72472Y-64743D01*
X-71749Y-66488D01*
X-70762Y-68099D01*
X-69535Y-69535D01*
X-68099Y-70762D01*
X-66488Y-71749D01*
X-64743Y-72472D01*
X-62907Y-72913D01*
X-61774Y-73002D01*
Y-61774D01*
D02*
G37*
G36*
X-28450Y-72666D02*
X-28890Y-72724D01*
X-29999Y-73183D01*
X-30951Y-73914D01*
X-31682Y-74866D01*
X-31802Y-75155D01*
X-32078Y-75272D01*
X-33157Y-75290D01*
X-33392Y-74984D01*
X-34031Y-74493D01*
X-34776Y-74185D01*
X-35574Y-74080D01*
X-36373Y-74185D01*
X-37117Y-74493D01*
X-37756Y-74984D01*
X-38246Y-75623D01*
X-38554Y-76367D01*
X-38660Y-77165D01*
X-38554Y-77964D01*
X-38246Y-78708D01*
X-37756Y-79347D01*
X-37117Y-79837D01*
X-36373Y-80146D01*
X-35574Y-80251D01*
X-34776Y-80146D01*
X-34031Y-79837D01*
X-33392Y-79347D01*
X-33157Y-79040D01*
X-32078Y-79058D01*
X-31802Y-79176D01*
X-31682Y-79465D01*
X-30951Y-80417D01*
X-29999Y-81148D01*
X-28890Y-81607D01*
X-28450Y-81665D01*
Y-77165D01*
Y-72666D01*
D02*
G37*
G36*
X-26950D02*
Y-77165D01*
Y-81665D01*
X-26510Y-81607D01*
X-25401Y-81148D01*
X-24448Y-80417D01*
X-24085Y-79943D01*
X-22885Y-80224D01*
X-22788Y-80224D01*
X-16767D01*
Y-74106D01*
X-22788D01*
X-22885Y-74106D01*
X-24085Y-74387D01*
X-24448Y-73914D01*
X-25401Y-73183D01*
X-26510Y-72724D01*
X-26950Y-72666D01*
D02*
G37*
%LPD*%
G36*
X39980Y58500D02*
Y55133D01*
X39416Y54566D01*
X38051Y54565D01*
X37484Y55132D01*
Y55783D01*
X35250D01*
Y52209D01*
Y48634D01*
X37484D01*
Y49285D01*
X38333Y50134D01*
X39134D01*
X40334Y50134D01*
X42283Y50134D01*
X43483Y50134D01*
X45324D01*
X45794Y49723D01*
X46205Y49253D01*
X46205Y46394D01*
X46205Y45194D01*
X46205Y43244D01*
X45272Y42598D01*
X37341D01*
X37212Y42791D01*
X36656Y43162D01*
X36000Y43293D01*
X35344Y43162D01*
X34788Y42791D01*
X34416Y42235D01*
X34286Y41579D01*
X34416Y40923D01*
X34788Y40367D01*
X35197Y39963D01*
X35542Y39583D01*
X35621Y39351D01*
X35786Y38429D01*
X35916Y37773D01*
X36288Y37217D01*
X36697Y36814D01*
X37042Y36434D01*
X37121Y36201D01*
X37286Y35280D01*
X37416Y34624D01*
X37788Y34067D01*
X38197Y33664D01*
X38204Y33657D01*
X38151Y33488D01*
X37941Y33315D01*
X36890Y32942D01*
X36500Y33020D01*
X26026D01*
X25789Y33374D01*
X25233Y33746D01*
X24577Y33876D01*
X23922Y33746D01*
X23365Y33374D01*
X22994Y32818D01*
X22863Y32162D01*
X22994Y31506D01*
X23365Y30950D01*
X23922Y30578D01*
X24577Y30448D01*
X25233Y30578D01*
X25789Y30950D01*
X25810Y30980D01*
X36078D01*
X41948Y25110D01*
X42279Y24889D01*
X42669Y24811D01*
X44914D01*
X44928Y24775D01*
X44097Y23575D01*
X42465Y23575D01*
X41265Y23575D01*
X39315Y23575D01*
X38115Y23575D01*
X36165Y23575D01*
X34965Y23575D01*
X33016D01*
Y23575D01*
X32835D01*
Y23575D01*
X29866D01*
Y23575D01*
X29685D01*
Y23575D01*
X28035D01*
Y25075D01*
X25801D01*
Y21500D01*
X24301D01*
Y25075D01*
X22520D01*
Y27500D01*
X22442Y27890D01*
X22221Y28221D01*
X20721Y29721D01*
X20519Y29856D01*
X20251Y30098D01*
X19807Y30597D01*
X19646Y31080D01*
X19646Y31665D01*
X19646Y33614D01*
X19646Y34814D01*
X19646Y36764D01*
X19646Y37964D01*
X19646Y39913D01*
X19646Y41113D01*
Y43063D01*
X19646D01*
Y43244D01*
X19646D01*
Y46213D01*
X19646D01*
Y46394D01*
X19646D01*
Y49253D01*
X20057Y49723D01*
X20526Y50134D01*
X23386D01*
Y50134D01*
X23567D01*
Y50134D01*
X26535D01*
Y50134D01*
X26717D01*
Y50134D01*
X29685Y50134D01*
X30667Y50134D01*
X31516Y49285D01*
Y48634D01*
X33750D01*
Y52209D01*
Y55783D01*
X33138D01*
Y57972D01*
X33772D01*
X33772Y62122D01*
X34866Y62378D01*
X35272D01*
Y65203D01*
X31500D01*
Y65953D01*
X30750D01*
Y69528D01*
X28149D01*
X27806Y70728D01*
X28353Y71147D01*
X28994Y71983D01*
X29011Y71988D01*
X29525Y71645D01*
X30500Y71451D01*
X31475Y71645D01*
X32302Y72198D01*
X33698Y72198D01*
X34525Y71645D01*
X35500Y71451D01*
X36476Y71645D01*
X37302Y72198D01*
X37855Y73025D01*
X38049Y74000D01*
X37855Y74976D01*
X37302Y75802D01*
X37302Y77191D01*
X37325Y77231D01*
X37826Y77980D01*
X39980D01*
Y58500D01*
D02*
G37*
G36*
X27750Y60000D02*
X26250Y57750D01*
X24750Y59250D01*
Y60750D01*
X26250Y62250D01*
X27750Y60000D01*
D02*
G37*
G36*
X18483Y70506D02*
X18952Y70312D01*
X19008Y70229D01*
Y66907D01*
X23000D01*
Y65407D01*
X19008D01*
Y61778D01*
X20508D01*
Y57020D01*
X17246D01*
X16520Y57746D01*
Y59760D01*
X17772D01*
Y63516D01*
X17772D01*
Y64287D01*
X17772D01*
Y68437D01*
X16774D01*
Y69500D01*
X16748Y69631D01*
X17329Y70608D01*
X17560Y70828D01*
X18019Y70862D01*
X18483Y70506D01*
D02*
G37*
G36*
X17000Y56500D02*
X15500Y55500D01*
X14000Y56500D01*
X15000Y57500D01*
X16000D01*
X17000Y56500D01*
D02*
G37*
G36*
X-5000Y58000D02*
X-6800Y55750D01*
X-5000Y53500D01*
X-8000Y49750D01*
X-9486Y52721D01*
X-10240Y52747D01*
X-10799Y52750D01*
Y54250D01*
X-10240Y54253D01*
X-9473Y54304D01*
X-8750Y55750D01*
X-9486Y57221D01*
X-10240Y57247D01*
X-10799Y57250D01*
Y58750D01*
X-10240Y58753D01*
X-9471Y58804D01*
X-8000Y61500D01*
X-5000Y58000D01*
D02*
G37*
G36*
X53372Y43686D02*
X52933Y42626D01*
X52933D01*
Y38117D01*
X52933Y38083D01*
Y36917D01*
X52933Y36883D01*
Y32374D01*
X58067D01*
Y32374D01*
X59267Y32791D01*
X59279Y32779D01*
X59610Y32558D01*
X60000Y32480D01*
X61425D01*
Y31677D01*
X65575D01*
Y35473D01*
X65575Y35827D01*
X66424Y36673D01*
X67075D01*
Y39498D01*
X63500D01*
Y40998D01*
X67075D01*
Y41286D01*
X68275Y41783D01*
X75016Y35043D01*
X74519Y33843D01*
X72100D01*
Y30071D01*
Y26299D01*
X74316D01*
X75357Y26032D01*
X75480Y25166D01*
Y18834D01*
X75427Y18456D01*
X74498Y17701D01*
X72100D01*
Y13929D01*
X71350D01*
Y13179D01*
X67382D01*
Y11239D01*
X67382Y10158D01*
X66231Y10039D01*
X46000D01*
X45220Y9884D01*
X44558Y9442D01*
X42822Y7705D01*
X41714Y8288D01*
X41584Y8944D01*
X41212Y9500D01*
X40656Y9872D01*
X40000Y10002D01*
X39773Y9957D01*
X38669Y11061D01*
Y14656D01*
X39869Y15204D01*
X40004Y15114D01*
X40660Y14984D01*
X41179Y15087D01*
X41728Y14796D01*
X42318Y14340D01*
X42416Y13844D01*
X42788Y13288D01*
X43344Y12916D01*
X44000Y12786D01*
X44656Y12916D01*
X45212Y13288D01*
X45584Y13844D01*
X45714Y14500D01*
X45584Y15156D01*
X45212Y15712D01*
X44994Y15858D01*
Y19425D01*
X45433D01*
Y23466D01*
X45844Y23935D01*
X46314Y24347D01*
X50354D01*
X50354Y27315D01*
X51287Y27961D01*
X52097D01*
X55331Y24727D01*
X55286Y24500D01*
X55416Y23844D01*
X55788Y23288D01*
X56344Y22916D01*
X57000Y22786D01*
X57656Y22916D01*
X58212Y23288D01*
X58584Y23844D01*
X58714Y24500D01*
X58584Y25156D01*
X58212Y25712D01*
X57656Y26084D01*
X57000Y26214D01*
X56773Y26169D01*
X53240Y29702D01*
X52910Y29923D01*
X52519Y30000D01*
X51287D01*
X50354Y30646D01*
X50354Y31665D01*
X50354Y33614D01*
X50354Y34814D01*
X50354Y36764D01*
X50354Y37964D01*
X50354Y39913D01*
X50354Y41113D01*
X50354Y43063D01*
X50354Y45007D01*
X51554Y45504D01*
X53372Y43686D01*
D02*
G37*
G36*
X-10818Y21732D02*
X-12232Y20318D01*
X-15768Y19611D01*
X-15061Y24561D01*
X-10111Y25268D01*
X-10818Y21732D01*
D02*
G37*
G36*
X-17500Y21500D02*
X-21000Y18500D01*
X-25500Y21500D01*
X-22500Y24500D01*
X-19500D01*
X-17500Y21500D01*
D02*
G37*
G36*
X76239Y2890D02*
X76676Y2517D01*
X76884Y2366D01*
X77083Y2238D01*
X77276Y2134D01*
X77461Y2054D01*
X77638Y1996D01*
X77808Y1963D01*
X77970Y1953D01*
X75047Y-970D01*
X75037Y-808D01*
X75004Y-638D01*
X74946Y-461D01*
X74866Y-276D01*
X74761Y-83D01*
X74634Y117D01*
X74483Y324D01*
X74308Y539D01*
X73888Y991D01*
X76010Y3112D01*
X76239Y2890D01*
D02*
G37*
G36*
X31365Y-1999D02*
X30719Y-1647D01*
X30968Y-2396D01*
X31365Y-1999D01*
X31378Y-2069D01*
X31420Y-2160D01*
X31489Y-2273D01*
X31586Y-2408D01*
X31862Y-2743D01*
X32483Y-3408D01*
X32745Y-3673D01*
X32038Y-4380D01*
X31773Y-4118D01*
X31387Y-3780D01*
X29304Y-4475D01*
X27951Y-3000D01*
X29365Y414D01*
X31365Y-1999D01*
D02*
G37*
G36*
X-32000Y-1500D02*
X-36500Y-4500D01*
X-41000Y-1500D01*
X-38000Y1500D01*
X-35000D01*
X-32000Y-1500D01*
D02*
G37*
G36*
X36470Y-3679D02*
X36375Y-3858D01*
X36291Y-4082D01*
X36218Y-4351D01*
X36156Y-4664D01*
X36106Y-5021D01*
X36038Y-5871D01*
X36016Y-6899D01*
X35016D01*
X35010Y-6362D01*
X34875Y-4664D01*
X34814Y-4351D01*
X34741Y-4082D01*
X34657Y-3858D01*
X34561Y-3679D01*
X34454Y-3544D01*
X36577D01*
X36470Y-3679D01*
D02*
G37*
G36*
X42135Y-5494D02*
X41930Y-5525D01*
X41718Y-5579D01*
X41500Y-5659D01*
X41276Y-5763D01*
X41046Y-5892D01*
X40810Y-6044D01*
X40568Y-6222D01*
X40066Y-6650D01*
X39806Y-6901D01*
X39099Y-6194D01*
X39350Y-5934D01*
X39778Y-5432D01*
X39956Y-5190D01*
X40108Y-4954D01*
X40237Y-4724D01*
X40341Y-4500D01*
X40420Y-4282D01*
X40475Y-4070D01*
X40506Y-3865D01*
X42135Y-5494D01*
D02*
G37*
G36*
X21317Y16352D02*
X22000Y16216D01*
X22683Y16352D01*
X22690Y16357D01*
X23731Y16346D01*
X24148Y15997D01*
X24288Y15788D01*
X24480Y15659D01*
Y6874D01*
X22715D01*
Y2500D01*
Y-1874D01*
X24480D01*
Y-6500D01*
X24558Y-6890D01*
X24779Y-7221D01*
X25899Y-8342D01*
X25355Y-9494D01*
X24961Y-9455D01*
X24928Y-9290D01*
X24486Y-8629D01*
X23824Y-8187D01*
X23044Y-8032D01*
X22264Y-8187D01*
X21602Y-8629D01*
X21302Y-9078D01*
X20288Y-8951D01*
X20102Y-8879D01*
Y-1874D01*
X21215D01*
Y2500D01*
Y6874D01*
X20102D01*
Y15720D01*
X21302Y16362D01*
X21317Y16352D01*
D02*
G37*
G36*
X76239Y-7110D02*
X76676Y-7483D01*
X76884Y-7634D01*
X77083Y-7762D01*
X77276Y-7866D01*
X77461Y-7946D01*
X77638Y-8004D01*
X77808Y-8037D01*
X77970Y-8047D01*
X75047Y-10971D01*
X75037Y-10808D01*
X75004Y-10638D01*
X74946Y-10461D01*
X74866Y-10276D01*
X74761Y-10083D01*
X74634Y-9883D01*
X74483Y-9676D01*
X74308Y-9461D01*
X73888Y-9009D01*
X76010Y-6888D01*
X76239Y-7110D01*
D02*
G37*
G36*
X56500Y-13000D02*
X55000Y-14000D01*
X53500Y-13000D01*
X54500Y-12000D01*
X55500D01*
X56500Y-13000D01*
D02*
G37*
G36*
X43900Y-9900D02*
X43400Y-10400D01*
X43400Y-12100D01*
D01*
X43900Y-12600D01*
X47400D01*
Y-13600D01*
X43900D01*
X43500Y-14000D01*
X42900D01*
Y-12400D01*
X39500D01*
X40900Y-11000D01*
Y-7100D01*
X43900D01*
X43900Y-9900D01*
D02*
G37*
G36*
X4366Y-16400D02*
X2866Y-17400D01*
X1366Y-16400D01*
X2366Y-15400D01*
X3366D01*
X4366Y-16400D01*
D02*
G37*
G36*
X-20461Y-17375D02*
X-23997Y-18082D01*
Y-15254D01*
X-22582Y-13840D01*
X-19754D01*
X-20461Y-17375D01*
D02*
G37*
G36*
X17280Y-19573D02*
X17634Y-21341D01*
X16219D01*
X15512Y-20633D01*
Y-19219D01*
X17280Y-19573D01*
D02*
G37*
G36*
X30400Y-22500D02*
X29700D01*
X28700Y-21500D01*
X25600D01*
Y-20500D01*
X28700D01*
X29700Y-19500D01*
X30400Y-19500D01*
Y-22500D01*
D02*
G37*
G36*
X2000Y-24421D02*
X500Y-25421D01*
X-1000Y-24421D01*
X0Y-23421D01*
X1000D01*
X2000Y-24421D01*
D02*
G37*
G36*
X-27563Y-27306D02*
X-28978Y-28720D01*
X-31806D01*
X-31099Y-25185D01*
X-27563Y-24477D01*
Y-27306D01*
D02*
G37*
G36*
X-42644Y-31708D02*
X-42703Y-31668D01*
X-42796Y-31633D01*
X-42925Y-31602D01*
X-43089Y-31575D01*
X-43521Y-31533D01*
X-44430Y-31502D01*
X-44803Y-31500D01*
Y-30500D01*
X-44430Y-30498D01*
X-42925Y-30398D01*
X-42796Y-30367D01*
X-42703Y-30332D01*
X-42644Y-30292D01*
Y-31708D01*
D02*
G37*
G36*
X43300Y-27100D02*
X44500Y-28300D01*
X47400D01*
Y-29400D01*
X43900Y-32900D01*
X40900D01*
Y-28800D01*
X39900Y-27800D01*
Y-26400D01*
X43300D01*
Y-27100D01*
D02*
G37*
G36*
X36021Y-33138D02*
X36156Y-34836D01*
X36218Y-35149D01*
X36291Y-35418D01*
X36375Y-35642D01*
X36470Y-35821D01*
X36577Y-35956D01*
X34454D01*
X34561Y-35821D01*
X34657Y-35642D01*
X34741Y-35418D01*
X34814Y-35149D01*
X34875Y-34836D01*
X34926Y-34479D01*
X34993Y-33629D01*
X35016Y-32601D01*
X36016D01*
X36021Y-33138D01*
D02*
G37*
G36*
X40190Y-33475D02*
X41154Y-34314D01*
X41435Y-34520D01*
X41696Y-34689D01*
X41936Y-34822D01*
X42157Y-34918D01*
X42358Y-34978D01*
X42539Y-35001D01*
X41001Y-36539D01*
X40978Y-36358D01*
X40918Y-36157D01*
X40822Y-35936D01*
X40689Y-35696D01*
X40520Y-35435D01*
X40314Y-35154D01*
X39791Y-34532D01*
X39122Y-33829D01*
X39829Y-33122D01*
X40190Y-33475D01*
D02*
G37*
G36*
X32500Y-39000D02*
X30500Y-42000D01*
X28500Y-40000D01*
Y-38000D01*
X30500Y-36315D01*
X32500Y-39000D01*
D02*
G37*
G36*
Y-48000D02*
X30500Y-51000D01*
X28500Y-49000D01*
Y-47000D01*
X30500Y-45000D01*
X32500Y-48000D01*
D02*
G37*
G36*
X34500Y-51000D02*
Y-53000D01*
X32500Y-55000D01*
X30500Y-52000D01*
X32500Y-49000D01*
X34500Y-51000D01*
D02*
G37*
G36*
X32500Y-61500D02*
X30500Y-64500D01*
X28500Y-62500D01*
Y-60500D01*
X30500Y-58500D01*
X32500Y-61500D01*
D02*
G37*
%LPC*%
G36*
X35272Y69528D02*
X32250D01*
Y66703D01*
X35272D01*
Y69528D01*
D02*
G37*
G36*
X70600Y33843D02*
X67382D01*
Y30821D01*
X70600D01*
Y33843D01*
D02*
G37*
G36*
Y29321D02*
X67382D01*
Y26299D01*
X70600D01*
Y29321D01*
D02*
G37*
G36*
Y17701D02*
X67382D01*
Y14679D01*
X70600D01*
Y17701D01*
D02*
G37*
%LPD*%
D11*
X31625Y54667D02*
Y59457D01*
X31350Y59731D02*
Y59898D01*
Y54393D02*
X31625Y54667D01*
X31350Y59731D02*
X31625Y59457D01*
X31350Y52209D02*
Y54393D01*
D13*
X21917Y18083D02*
X22000Y18000D01*
X21917Y18083D02*
Y21484D01*
X-14000Y23500D02*
X1500Y8000D01*
X15250D01*
X31500Y-67500D02*
Y-61500D01*
Y-52000D02*
X35500D01*
X31500Y-61500D02*
Y-52000D01*
Y-48000D01*
X28000Y-4500D02*
Y-4365D01*
X30365Y-2000D02*
Y2171D01*
X28000Y-4365D02*
X30365Y-2000D01*
X25354Y-39000D02*
X31500D01*
Y-48000D02*
Y-39000D01*
Y-36315D01*
X25254Y-38900D02*
X25354Y-39000D01*
X32579Y-35236D02*
Y-31693D01*
X31500Y-36315D02*
X32579Y-35236D01*
X25254Y-48000D02*
X31500D01*
X-19000Y-61500D02*
X31500D01*
X-30392Y-25892D02*
X-21168Y-16668D01*
X-11945Y-7445D01*
X-24337Y-13500D02*
X-21168Y-16668D01*
X-11945Y-7445D02*
Y7591D01*
X-31784Y-13500D02*
X-24337D01*
X-25500Y-55000D02*
X-19000Y-61500D01*
X-41937Y-31000D02*
X-35500D01*
X-30392Y-25892D01*
X-25500Y-30784D01*
Y-55000D02*
Y-30784D01*
D16*
X21902Y52209D02*
D03*
X25051D02*
D03*
X28201D02*
D03*
X31350D02*
D03*
X34500D02*
D03*
X37650D02*
D03*
X40799D02*
D03*
X43949D02*
D03*
X43949Y21500D02*
D03*
X40799D02*
D03*
X37650D02*
D03*
X34500D02*
D03*
X31350D02*
D03*
X28201D02*
D03*
X25051D02*
D03*
X21902Y21500D02*
D03*
D17*
X48280Y47878D02*
D03*
Y44728D02*
D03*
Y41579D02*
D03*
Y38429D02*
D03*
Y35280D02*
D03*
Y32130D02*
D03*
Y28980D02*
D03*
Y25831D02*
D03*
X17571Y25831D02*
D03*
X17571Y28980D02*
D03*
Y32130D02*
D03*
Y35280D02*
D03*
Y38429D02*
D03*
Y41579D02*
D03*
Y44728D02*
D03*
Y47878D02*
D03*
D18*
X80110Y22000D02*
D03*
D19*
X77650Y13929D02*
D03*
X71350D02*
D03*
Y30071D02*
D03*
X77650D02*
D03*
D20*
X15500Y66362D02*
D03*
D21*
X31500Y60047D02*
D03*
X31500Y65953D02*
D03*
X-3500Y-30953D02*
D03*
Y-25047D02*
D03*
D22*
X-30055Y7591D02*
D03*
X-21000D02*
D03*
X-11945D02*
D03*
D23*
X-21000Y32000D02*
D03*
D24*
X21964Y2500D02*
D03*
X30035D02*
D03*
X68035Y-13500D02*
D03*
X59965D02*
D03*
D25*
X8370Y-67500D02*
D03*
X29630D02*
D03*
D26*
X19546Y-48000D02*
D03*
X25254D02*
D03*
X19546Y-38900D02*
D03*
X25254Y-38900D02*
D03*
D27*
X-55831Y-3000D02*
D03*
X-47169D02*
D03*
D28*
X45853Y-28858D02*
D03*
D29*
Y-26890D02*
D03*
Y-24921D02*
D03*
Y-22953D02*
D03*
Y-20984D02*
D03*
Y-19016D02*
D03*
Y-17047D02*
D03*
Y-15079D02*
D03*
Y-13110D02*
D03*
Y-11142D02*
D03*
X27147D02*
D03*
Y-13110D02*
D03*
Y-15079D02*
D03*
Y-17047D02*
D03*
Y-19016D02*
D03*
Y-20984D02*
D03*
Y-22953D02*
D03*
Y-24921D02*
D03*
Y-26890D02*
D03*
Y-28858D02*
D03*
D30*
X43390Y-8679D02*
D03*
X41421Y-8679D02*
D03*
X39453D02*
D03*
X37484D02*
D03*
X35516D02*
D03*
X33547D02*
D03*
X31579D02*
D03*
X29610Y-8679D02*
D03*
Y-31321D02*
D03*
X31579Y-31321D02*
D03*
X33547D02*
D03*
X35516D02*
D03*
X37484D02*
D03*
X39453D02*
D03*
X41421D02*
D03*
X43390Y-31321D02*
D03*
D31*
X-6691Y-56228D02*
D03*
Y-47172D02*
D03*
D32*
X-18109Y-51700D02*
D03*
D33*
X-23854Y60500D02*
D03*
X-18146D02*
D03*
X-23854Y51000D02*
D03*
X-18146D02*
D03*
X12054Y-21100D02*
D03*
X6346D02*
D03*
X-74354Y-12000D02*
D03*
X-68646D02*
D03*
D34*
X23000Y66157D02*
D03*
Y59843D02*
D03*
D35*
X-42217Y-13500D02*
D03*
X-31784D02*
D03*
D36*
X53996Y-42000D02*
D03*
X66004D02*
D03*
X63004Y2000D02*
D03*
X50996D02*
D03*
D37*
X45000Y73941D02*
D03*
Y79059D02*
D03*
D38*
X55500Y40354D02*
D03*
Y34646D02*
D03*
D39*
X15500Y61638D02*
D03*
D40*
X-68646Y-4500D02*
D03*
X-74354D02*
D03*
D41*
X63500Y40248D02*
D03*
Y33752D02*
D03*
D42*
X-51000Y41929D02*
D03*
X-61000D02*
D03*
X-71000D02*
D03*
Y8071D02*
D03*
X-61000D02*
D03*
X-51000D02*
D03*
D43*
X-9500Y-39059D02*
D03*
Y-33941D02*
D03*
D44*
X-1866Y-11500D02*
D03*
X2866Y-11500D02*
D03*
D45*
X9000Y-34354D02*
D03*
Y-28646D02*
D03*
D52*
X36500Y-20000D02*
D03*
D71*
X35500Y79000D02*
D03*
X30500Y79000D02*
D03*
X25500D02*
D03*
X20500Y79000D02*
D03*
X15500D02*
D03*
X35500Y74000D02*
D03*
X30500Y74000D02*
D03*
X25500Y74000D02*
D03*
X20500D02*
D03*
D72*
X15500Y74000D02*
D03*
D73*
X45875Y-22975D02*
X52391D01*
X52416Y-23000D01*
X37650Y10638D02*
Y21500D01*
X13535Y38465D02*
X17535D01*
X33708Y6208D02*
X33968Y6468D01*
X13500Y38500D02*
X13535Y38465D01*
X5500Y60879D02*
Y75319D01*
X33968Y8857D02*
X34500Y9389D01*
X36500Y32000D02*
X42669Y25831D01*
X24577Y32162D02*
X24739Y32000D01*
X43974Y14526D02*
Y21474D01*
X24739Y32000D02*
X36500D01*
X-7500Y27500D02*
X280Y35280D01*
X48280Y28981D02*
X52519D01*
X28350Y11150D02*
X28500Y11000D01*
X31319Y8319D02*
Y21469D01*
X280Y35280D02*
X17571D01*
X43974Y14526D02*
X44000Y14500D01*
X31288Y8288D02*
X31319Y8319D01*
X37650Y10638D02*
X40000Y8288D01*
X11630Y32130D02*
X17571D01*
X7000Y27500D02*
X11630Y32130D01*
X33968Y6468D02*
Y8857D01*
X40660Y16698D02*
Y21361D01*
X28350Y11150D02*
Y21350D01*
X34500Y9389D02*
Y21500D01*
X52519Y28981D02*
X57000Y24500D01*
X42669Y25831D02*
X48280D01*
X40500Y32000D02*
X40565Y32065D01*
X40500Y32130D02*
X48280D01*
X39000Y35280D02*
X48280D01*
X37500Y38429D02*
X48280D01*
X36000Y41579D02*
X48280D01*
X5500Y60879D02*
X14170Y52209D01*
X21902D01*
X44941Y79000D02*
X45000Y79059D01*
X41000Y79000D02*
X44941D01*
X77650Y30071D02*
Y33850D01*
X57500Y44000D02*
X67500D01*
X77650Y33850D01*
X43000Y58500D02*
X57500Y44000D01*
X77650Y13929D02*
Y17350D01*
X76500Y18500D02*
X77650Y17350D01*
X76500Y18500D02*
Y26000D01*
X77650Y27150D01*
Y30071D01*
X60000Y33500D02*
X63248D01*
X63500Y33752D01*
X58854Y34646D02*
X60000Y33500D01*
X55500Y34646D02*
X58854D01*
X41000Y52409D02*
Y58500D01*
Y79000D01*
Y58500D02*
X43000D01*
X50769Y47732D02*
X55500Y43000D01*
Y40354D02*
Y43000D01*
X48426Y47732D02*
X50769D01*
X8000Y60500D02*
Y80000D01*
Y60500D02*
X12500Y56000D01*
X15500D01*
X39476Y-33476D02*
X42500Y-36500D01*
X39476Y-33476D02*
Y-32319D01*
X37484Y-35020D02*
X44464Y-42000D01*
X53996D01*
X37484Y-35020D02*
Y-31321D01*
X55000Y-13500D02*
Y-10000D01*
X25500Y-6500D02*
Y17000D01*
X15500Y56000D02*
X24000D01*
X25051Y54949D01*
Y52209D02*
Y54949D01*
X35500Y79000D02*
X41000D01*
X30365Y-2000D02*
X33547Y-5183D01*
Y-8679D02*
Y-5183D01*
X35516Y-37016D02*
Y-31321D01*
X19082Y22654D02*
X21500Y25072D01*
X17571Y16371D02*
X17582Y16360D01*
X19082Y-10082D02*
Y22654D01*
X17582Y-12047D02*
Y16360D01*
X17571Y16371D02*
Y25831D01*
X17582Y-12047D02*
X20614Y-15079D01*
X19082Y-10082D02*
X22088Y-13088D01*
X31350Y59898D02*
X31500Y60047D01*
X8000Y80000D02*
X10500Y82500D01*
X50346Y-13500D02*
X55000D01*
X59965D01*
X52058Y-7442D02*
X58739D01*
X45853Y-11142D02*
X48358D01*
X52058Y-7442D01*
X58739D02*
X59000Y-7181D01*
X-28000Y51000D02*
X-23854D01*
X-35500Y58500D02*
X-28000Y51000D01*
X-35500Y58500D02*
Y72587D01*
X-20000Y68500D02*
Y72835D01*
X-23500Y65000D02*
X-20000Y68500D01*
X-23500Y60854D02*
Y65000D01*
X-20000Y72835D02*
X-20000Y72835D01*
X-23854Y60500D02*
X-23500Y60854D01*
X-68646Y-12000D02*
X-65500D01*
X-46500Y-31000D02*
X-41937D01*
X-65500Y-12000D02*
X-46500Y-31000D01*
X17000Y82500D02*
X20500Y79000D01*
X10500Y82500D02*
X17000D01*
X-50712Y36212D02*
Y41641D01*
X-51000Y41929D02*
X-50712Y41641D01*
Y36212D02*
X-49500Y35000D01*
X-43000D01*
X-33421Y44579D02*
X5579D01*
X-43000Y35000D02*
X-33421Y44579D01*
X-42379Y33500D02*
X-32800Y43079D01*
X-41757Y32000D02*
X-32179Y41579D01*
X17571D01*
X-32800Y43079D02*
X6200D01*
X-35748Y72835D02*
X-35500Y72587D01*
X1500Y-44000D02*
Y-39000D01*
X-1672Y-47172D02*
X1500Y-44000D01*
X15500Y56000D02*
Y61638D01*
X48768Y-15079D02*
X50346Y-13500D01*
X51233Y-17047D02*
X52280Y-16000D01*
X52500D01*
X45853Y-17047D02*
X51233D01*
X55500Y-23000D02*
X55659D01*
X50246Y-20772D02*
X53272D01*
X45853Y-19016D02*
X54492D01*
X53272Y-20772D02*
X55500Y-23000D01*
X54492Y-19016D02*
X54523Y-18985D01*
X45853Y-15079D02*
X48768D01*
X50033Y-20984D02*
X50246Y-20772D01*
X35516Y-8679D02*
Y-2484D01*
X25500Y-6500D02*
X27679Y-8679D01*
X43536Y2000D02*
X50965D01*
X37484Y-6051D02*
X39000Y-4535D01*
Y-2536D01*
X43536Y2000D01*
X27679Y-8679D02*
X29610D01*
X45853Y-20984D02*
X50033D01*
X49421Y-24921D02*
X53500Y-29000D01*
X45853Y-24921D02*
X49421D01*
X53500Y-32000D02*
Y-29000D01*
X48412Y-26913D02*
X50958Y-29458D01*
X45853Y-26890D02*
X45875Y-26913D01*
X48412D01*
X50958Y-29542D02*
Y-29458D01*
X11500Y-11000D02*
X17547Y-17047D01*
X11500Y-11000D02*
Y-10500D01*
X7850Y44728D02*
X17571D01*
X5579Y44579D02*
X8878Y47878D01*
X17571D01*
X6200Y43079D02*
X7850Y44728D01*
X17591Y29000D02*
X20000D01*
X21500Y27500D01*
Y25072D02*
Y27500D01*
X22088Y-13088D02*
X27125D01*
X23044Y-10071D02*
X23483D01*
X24554Y-11142D01*
X27147D01*
X27125Y-13088D02*
X27147Y-13110D01*
X17547Y-17047D02*
X27147D01*
X9000Y-34354D02*
X14146D01*
X19642Y-28858D02*
X27147D01*
X14146Y-34354D02*
X19642Y-28858D01*
X17500Y-28500D02*
X19110Y-26890D01*
X9146Y-28500D02*
X17500D01*
X19110Y-26890D02*
X27147D01*
X9000Y-28646D02*
X9146Y-28500D01*
X500Y-24921D02*
X27147D01*
X-3374D02*
X500D01*
Y-23000D02*
X2400Y-21100D01*
X6346D01*
X500Y-24921D02*
Y-23000D01*
X-3500Y-25047D02*
X-3374Y-24921D01*
X20871Y-19800D02*
X21412D01*
X22196Y-19016D01*
X27147D01*
X28500Y-34500D02*
X29610Y-33390D01*
Y-31321D01*
X-18109Y-51700D02*
X-18000Y-51591D01*
Y-46500D01*
X-15500Y-44000D01*
X-12000D01*
X-9500Y-41500D01*
Y-39059D01*
X-9441Y-33941D02*
Y-21941D01*
X-4400Y-16900D02*
X2866D01*
X-9441Y-21941D02*
X-4400Y-16900D01*
X16926Y-19926D02*
X19953Y-22953D01*
X13900Y-16900D02*
X16926Y-19926D01*
X12054Y-21100D02*
X15753D01*
X16926Y-19926D01*
X2866Y-16900D02*
X13900D01*
X19953Y-22953D02*
X27147D01*
X20614Y-15079D02*
X27147D01*
X19546Y-38900D02*
Y-35500D01*
X20546Y-34500D01*
X28500D01*
X-6691Y-47172D02*
X-1672D01*
X-6691D02*
X-5026Y-45507D01*
X2866Y-16900D02*
Y-11500D01*
X-74354Y-12000D02*
X-74354Y-12000D01*
Y-4500D01*
X39453Y-6547D02*
X42000Y-4000D01*
X37484Y-8679D02*
Y-6051D01*
X50980Y2016D02*
X50996Y2000D01*
X50965D02*
X50980Y2016D01*
X39453Y-8679D02*
Y-6547D01*
X-71000Y36000D02*
X-67000Y32000D01*
X-71000Y36000D02*
X-71000D01*
X-67000Y32000D02*
X-41757D01*
X-71000Y36000D02*
Y41929D01*
X-61000Y36000D02*
X-58500Y33500D01*
X-42379D01*
X-61000Y36000D02*
Y41929D01*
D74*
X43500Y66000D02*
X45000Y67500D01*
X43500Y66000D02*
Y66000D01*
X45000Y67500D02*
Y73941D01*
X27000Y60000D02*
Y62750D01*
X23000Y59843D02*
X23157Y60000D01*
X27000D01*
Y56000D02*
Y60000D01*
X28185Y52224D02*
Y54815D01*
X27000Y56000D02*
X28185Y54815D01*
X10500Y70500D02*
X14500D01*
X10441Y70441D02*
X10500Y70500D01*
X14500D02*
X15500Y69500D01*
Y66362D02*
Y69500D01*
X-11500Y53500D02*
X-6500D01*
X-14000Y51000D02*
X-11500Y53500D01*
Y58000D02*
X-6500D01*
X-14000Y60500D02*
X-11500Y58000D01*
X-18146Y51000D02*
X-14000D01*
X-18146Y60500D02*
X-14000D01*
D75*
Y23500D02*
X-11000Y26500D01*
X-17500Y20000D02*
X-14000Y23500D01*
X-11000Y26500D02*
Y32500D01*
X-21000Y20000D02*
X-17500D01*
X23157Y66000D02*
X31453D01*
X31500Y65953D01*
X23000Y66157D02*
X23157Y66000D01*
X42500Y-36500D02*
X50664D01*
X69336D02*
X72500D01*
X50707Y-36457D02*
X69293D01*
X50664Y-36500D02*
X50707Y-36457D01*
X69293D02*
X69336Y-36500D01*
X72500D02*
X78000Y-31000D01*
X35516Y-37016D02*
X44500Y-46000D01*
X21964Y2500D02*
X22000Y2465D01*
X20691Y71309D02*
X23000Y69000D01*
X20500Y74000D02*
X20691Y73809D01*
Y71309D02*
Y73809D01*
X23000Y66157D02*
Y69000D01*
X-6500Y49000D02*
Y53500D01*
Y58000D01*
Y61500D01*
X-2500Y65500D02*
X2000D01*
X-6500Y61500D02*
X-2500Y65500D01*
X-24000Y-3000D02*
X-21000Y0D01*
X-31500Y20000D02*
X-21000D01*
X-36500Y-3000D02*
Y15000D01*
X-11000Y32500D02*
X-6500Y37000D01*
X-21000Y0D02*
Y7591D01*
X-36500Y-3000D02*
X-24000D01*
X-36500Y15000D02*
X-31500Y20000D01*
X-21000Y7591D02*
X-21000Y7591D01*
X-21000Y20000D02*
Y32000D01*
X-47169Y-3000D02*
X-36500D01*
X35516Y-2484D02*
X38000Y0D01*
X46000Y8000D01*
X69000D01*
X42000Y-4000D02*
X71000D01*
X78000Y-11000D01*
X78000Y-1000D02*
X78000D01*
X69000Y8000D02*
X78000Y-1000D01*
D76*
X32579Y-31348D02*
D03*
D77*
X-41937Y-31000D02*
D03*
X-61228D02*
D03*
D78*
X-52173Y-42024D02*
D03*
D79*
X-19826Y-77165D02*
D03*
X-20000Y72835D02*
D03*
D80*
X-27700Y-77165D02*
D03*
X-35574D02*
D03*
X-35748Y72835D02*
D03*
X-27874Y72835D02*
D03*
D81*
X-61024Y-61024D02*
D03*
X61024D02*
D03*
X-61024Y61024D02*
D03*
X61024D02*
D03*
D82*
X78000Y-1000D02*
D03*
Y-11000D02*
D03*
Y-21000D02*
D03*
D83*
Y-31000D02*
D03*
D84*
X19500Y-66500D02*
D03*
X-23500Y-70000D02*
D03*
X-31500D02*
D03*
X-27500Y-64500D02*
D03*
X-56000Y37000D02*
D03*
Y45500D02*
D03*
X-66000Y37000D02*
D03*
Y45500D02*
D03*
X-15500Y-17000D02*
D03*
X82500Y6000D02*
D03*
X65500Y13000D02*
D03*
X73500Y20000D02*
D03*
X59000Y29000D02*
D03*
X51500Y16000D02*
D03*
X54878Y12378D02*
D03*
X47878Y19878D02*
D03*
X56378Y17378D02*
D03*
X52878Y21378D02*
D03*
X1000Y-76000D02*
D03*
X8500D02*
D03*
X16000D02*
D03*
X21000Y-56500D02*
D03*
X13000D02*
D03*
X5000D02*
D03*
X-15500Y-57500D02*
D03*
X-12500Y-48000D02*
D03*
X-43000Y13000D02*
D03*
Y4500D02*
D03*
X-46500Y19000D02*
D03*
X-54500D02*
D03*
X-62000D02*
D03*
X-70500D02*
D03*
X81000Y39000D02*
D03*
X70000Y500D02*
D03*
X56000Y2500D02*
D03*
X35500Y27500D02*
D03*
X31000D02*
D03*
X22500Y10000D02*
D03*
Y-4500D02*
D03*
X76122Y68622D02*
D03*
Y61122D02*
D03*
Y53622D02*
D03*
Y46122D02*
D03*
Y8622D02*
D03*
Y-43878D02*
D03*
Y-51378D02*
D03*
Y-58878D02*
D03*
Y-66378D02*
D03*
Y-73878D02*
D03*
X68622Y76122D02*
D03*
Y46122D02*
D03*
Y38622D02*
D03*
Y23622D02*
D03*
Y-21378D02*
D03*
Y-73878D02*
D03*
Y-81378D02*
D03*
X61122Y76122D02*
D03*
Y-21378D02*
D03*
Y-28878D02*
D03*
Y-81378D02*
D03*
X53622Y76122D02*
D03*
Y-73878D02*
D03*
Y-81378D02*
D03*
X46122Y61122D02*
D03*
Y-51378D02*
D03*
Y-58878D02*
D03*
Y-66378D02*
D03*
Y-73878D02*
D03*
Y-81378D02*
D03*
X38622Y76122D02*
D03*
Y68622D02*
D03*
Y61122D02*
D03*
Y46122D02*
D03*
Y-58878D02*
D03*
Y-66378D02*
D03*
Y-73878D02*
D03*
Y-81378D02*
D03*
X31122Y46122D02*
D03*
Y-73878D02*
D03*
Y-81378D02*
D03*
X23622Y46122D02*
D03*
Y-73878D02*
D03*
Y-81378D02*
D03*
X16122D02*
D03*
X8622Y-43878D02*
D03*
Y-51378D02*
D03*
Y-81378D02*
D03*
X1122Y76122D02*
D03*
Y1122D02*
D03*
Y-6378D02*
D03*
Y-51378D02*
D03*
Y-81378D02*
D03*
X-6378Y76122D02*
D03*
Y1122D02*
D03*
Y-6378D02*
D03*
Y-36378D02*
D03*
Y-66378D02*
D03*
Y-73878D02*
D03*
Y-81378D02*
D03*
X-13878Y68622D02*
D03*
Y38622D02*
D03*
Y16122D02*
D03*
Y-36378D02*
D03*
Y-66378D02*
D03*
Y-73878D02*
D03*
Y-81378D02*
D03*
X-21378Y38622D02*
D03*
Y16122D02*
D03*
Y-6378D02*
D03*
Y-21378D02*
D03*
Y-28878D02*
D03*
Y-36378D02*
D03*
Y-43878D02*
D03*
X-36378Y53622D02*
D03*
Y46122D02*
D03*
Y31122D02*
D03*
Y23622D02*
D03*
Y-6378D02*
D03*
Y-21378D02*
D03*
Y-36378D02*
D03*
Y-43878D02*
D03*
Y-51378D02*
D03*
Y-58878D02*
D03*
X-43878Y76122D02*
D03*
Y68622D02*
D03*
Y61122D02*
D03*
Y53622D02*
D03*
Y46122D02*
D03*
Y38622D02*
D03*
Y23622D02*
D03*
Y-21378D02*
D03*
Y-43878D02*
D03*
Y-51378D02*
D03*
Y-58878D02*
D03*
Y-66378D02*
D03*
Y-73878D02*
D03*
Y-81378D02*
D03*
X-51378Y76122D02*
D03*
Y23622D02*
D03*
Y-13878D02*
D03*
Y-21378D02*
D03*
Y-51378D02*
D03*
Y-73878D02*
D03*
Y-81378D02*
D03*
X-58878Y76122D02*
D03*
Y23622D02*
D03*
Y-13878D02*
D03*
Y-81378D02*
D03*
X-66378Y76122D02*
D03*
Y23622D02*
D03*
Y-21378D02*
D03*
Y-36378D02*
D03*
Y-43878D02*
D03*
Y-73878D02*
D03*
Y-81378D02*
D03*
X-73878Y76122D02*
D03*
Y68622D02*
D03*
Y53622D02*
D03*
Y31122D02*
D03*
Y23622D02*
D03*
Y-21378D02*
D03*
Y-28878D02*
D03*
Y-36378D02*
D03*
Y-43878D02*
D03*
Y-51378D02*
D03*
Y-66378D02*
D03*
Y-73878D02*
D03*
Y-81378D02*
D03*
X-81378Y68622D02*
D03*
Y61122D02*
D03*
Y53622D02*
D03*
Y46122D02*
D03*
Y38622D02*
D03*
Y31122D02*
D03*
Y23622D02*
D03*
Y16122D02*
D03*
Y8622D02*
D03*
Y1122D02*
D03*
Y-6378D02*
D03*
Y-13878D02*
D03*
Y-21378D02*
D03*
Y-28878D02*
D03*
Y-36378D02*
D03*
Y-43878D02*
D03*
Y-51378D02*
D03*
Y-58878D02*
D03*
Y-66378D02*
D03*
Y-73878D02*
D03*
X40500Y-26000D02*
D03*
X37500Y-23000D02*
D03*
Y-26000D02*
D03*
X34500D02*
D03*
Y-20000D02*
D03*
Y-23000D02*
D03*
X31500D02*
D03*
Y-20000D02*
D03*
Y-17000D02*
D03*
Y-26000D02*
D03*
X22000Y18000D02*
D03*
X43500Y66000D02*
D03*
X27000Y62750D02*
D03*
X15250Y8000D02*
D03*
X55000Y-10000D02*
D03*
X10441Y70441D02*
D03*
D85*
X40000Y8288D02*
D03*
X40500Y32130D02*
D03*
X13500Y38500D02*
D03*
X-7500Y27500D02*
D03*
X57000Y24500D02*
D03*
X37500Y38429D02*
D03*
X40660Y16698D02*
D03*
X28500Y11000D02*
D03*
X7000Y27500D02*
D03*
X44000Y14500D02*
D03*
X31288Y8288D02*
D03*
X33708Y6208D02*
D03*
X24577Y32162D02*
D03*
X39000Y35280D02*
D03*
X36000Y41579D02*
D03*
X5500Y75319D02*
D03*
X59000Y-7181D02*
D03*
X25500Y17000D02*
D03*
X52500Y-16000D02*
D03*
X54523Y-18985D02*
D03*
X52416Y-23000D02*
D03*
X55659D02*
D03*
X50958Y-29542D02*
D03*
X53500Y-32000D02*
D03*
D86*
X44500Y-46000D02*
D03*
X35500Y-52000D02*
D03*
X-6500Y37000D02*
D03*
X2000Y65500D02*
D03*
X-6500Y49000D02*
D03*
D87*
X1500Y-39000D02*
D03*
X28000Y-4500D02*
D03*
X11500Y-10500D02*
D03*
X23044Y-10071D02*
D03*
X20871Y-19800D02*
D03*
M02*
