G04*
G04 #@! TF.GenerationSoftware,Altium Limited,Altium Designer,20.1.14 (287)*
G04*
G04 Layer_Color=8388736*
%FSLAX25Y25*%
%MOIN*%
G70*
G04*
G04 #@! TF.SameCoordinates,7F5ADFAE-F052-4B02-90E5-093173F2D11D*
G04*
G04*
G04 #@! TF.FilePolarity,Negative*
G04*
G01*
G75*
%ADD16R,0.03543X0.02953*%
%ADD17R,0.04147X0.04540*%
%ADD18R,0.11036X0.05131*%
%ADD19R,0.14173X0.16142*%
%ADD20R,0.02362X0.01181*%
%ADD21R,0.01181X0.02362*%
%ADD22R,0.06902X0.05524*%
%ADD23R,0.09461X0.14580*%
%ADD24R,0.09461X0.05524*%
%ADD25R,0.02572X0.04147*%
%ADD26R,0.04147X0.02572*%
%ADD27R,0.07874X0.15748*%
%ADD28R,0.04934X0.04343*%
%ADD29R,0.03150X0.01968*%
%ADD30R,0.01968X0.03150*%
%ADD31R,0.04934X0.04934*%
%ADD32R,0.07099X0.04737*%
%ADD33R,0.06115X0.10052*%
%ADD34R,0.04147X0.03753*%
%ADD35R,0.06706X0.06706*%
%ADD36C,0.06706*%
%ADD37R,0.06706X0.06706*%
%ADD38R,0.04800X0.04800*%
%ADD39C,0.04800*%
%ADD40C,0.05800*%
%ADD41C,0.20800*%
%ADD42C,0.03800*%
D16*
X65000Y-18138D02*
D03*
Y-22862D02*
D03*
Y-3638D02*
D03*
Y-8362D02*
D03*
D17*
X-2780Y45276D02*
D03*
X-8095D02*
D03*
X-6594Y53150D02*
D03*
X-1280D02*
D03*
D18*
X68898Y-32283D02*
D03*
Y-42520D02*
D03*
D19*
X42126Y-984D02*
D03*
D20*
X51181Y7874D02*
D03*
Y5906D02*
D03*
Y3937D02*
D03*
Y1969D02*
D03*
Y-0D02*
D03*
Y-1969D02*
D03*
Y-3937D02*
D03*
Y-5906D02*
D03*
Y-7874D02*
D03*
Y-9843D02*
D03*
X33071Y7874D02*
D03*
Y5906D02*
D03*
Y3937D02*
D03*
Y1969D02*
D03*
Y-0D02*
D03*
Y-1969D02*
D03*
Y-3937D02*
D03*
Y-5906D02*
D03*
Y-7874D02*
D03*
Y-9843D02*
D03*
D21*
X49016Y10039D02*
D03*
X47047D02*
D03*
X45079D02*
D03*
X43110D02*
D03*
X49016Y-11909D02*
D03*
X47047D02*
D03*
X45079D02*
D03*
X43110D02*
D03*
X41142Y10039D02*
D03*
X39173D02*
D03*
X37205D02*
D03*
X35236D02*
D03*
X41142Y-11909D02*
D03*
X39173D02*
D03*
X37205D02*
D03*
X35236D02*
D03*
D22*
X-48331Y-42000D02*
D03*
X-39669D02*
D03*
D23*
X-57874Y-22441D02*
D03*
D24*
X-33465Y-13386D02*
D03*
Y-22441D02*
D03*
Y-31496D02*
D03*
D25*
X30953Y-20500D02*
D03*
X25047D02*
D03*
X56547Y30500D02*
D03*
X62453D02*
D03*
D26*
X37000Y-19547D02*
D03*
Y-25453D02*
D03*
X55118Y-44291D02*
D03*
Y-38386D02*
D03*
D27*
X-9843Y-71063D02*
D03*
Y-43110D02*
D03*
X29528Y-71063D02*
D03*
Y-43110D02*
D03*
D28*
X63000Y11658D02*
D03*
Y6342D02*
D03*
D29*
X8661Y58661D02*
D03*
Y55512D02*
D03*
Y52362D02*
D03*
Y49213D02*
D03*
Y46063D02*
D03*
Y42913D02*
D03*
Y39764D02*
D03*
Y36614D02*
D03*
X39370Y36614D02*
D03*
Y39764D02*
D03*
Y42913D02*
D03*
Y46063D02*
D03*
Y49213D02*
D03*
Y52362D02*
D03*
Y55512D02*
D03*
Y58662D02*
D03*
D30*
X12992Y32283D02*
D03*
X16142D02*
D03*
X19291D02*
D03*
X22441D02*
D03*
X25591D02*
D03*
X28740D02*
D03*
X31890D02*
D03*
X35039D02*
D03*
X35039Y62992D02*
D03*
X31890D02*
D03*
X28740D02*
D03*
X25591D02*
D03*
X22441D02*
D03*
X19291D02*
D03*
X16142D02*
D03*
X12992D02*
D03*
D31*
X73500Y30343D02*
D03*
Y35658D02*
D03*
D32*
X-19291Y55905D02*
D03*
Y70866D02*
D03*
X-43307Y55905D02*
D03*
Y70866D02*
D03*
D33*
X-39370Y-63681D02*
D03*
Y-74114D02*
D03*
D34*
X-27000Y42559D02*
D03*
Y37441D02*
D03*
D35*
X74803Y-15216D02*
D03*
X-72835Y-31496D02*
D03*
X-70866Y35591D02*
D03*
D36*
X74803Y-5217D02*
D03*
Y4783D02*
D03*
Y14784D02*
D03*
X-72835Y-41496D02*
D03*
X-3937Y72835D02*
D03*
X-70866Y15590D02*
D03*
Y25591D02*
D03*
D37*
X6063Y72835D02*
D03*
D38*
X27402Y70866D02*
D03*
D39*
X32402D02*
D03*
X37402D02*
D03*
X42402D02*
D03*
X47402D02*
D03*
X27402Y75866D02*
D03*
X32402D02*
D03*
X37402D02*
D03*
X42402D02*
D03*
X47402D02*
D03*
D40*
X52250Y40000D02*
D03*
X61500Y44500D02*
D03*
X-66929Y0D02*
D03*
D41*
X61024Y61024D02*
D03*
Y-61024D02*
D03*
X-61024D02*
D03*
Y61024D02*
D03*
D42*
X77000Y-28500D02*
D03*
X70000Y-27000D02*
D03*
X19000Y-19500D02*
D03*
X50500Y26500D02*
D03*
X21000Y-7000D02*
D03*
X24500Y-3500D02*
D03*
X7000Y19500D02*
D03*
X13000Y26500D02*
D03*
X32000Y21500D02*
D03*
X35000Y26000D02*
D03*
X40500Y31000D02*
D03*
X59000Y-7000D02*
D03*
Y-11500D02*
D03*
X58862Y1969D02*
D03*
X59000Y-2500D02*
D03*
X55000Y-14500D02*
D03*
X13500Y37500D02*
D03*
Y43000D02*
D03*
X15992Y68765D02*
D03*
X12500Y76500D02*
D03*
X22000Y69500D02*
D03*
X41000Y22000D02*
D03*
X44500Y-22500D02*
D03*
X42000Y-18000D02*
D03*
X-13000Y18500D02*
D03*
X-7500Y23000D02*
D03*
X-5000Y39500D02*
D03*
X-27000Y31000D02*
D03*
X23500Y5000D02*
D03*
X28890Y25591D02*
D03*
X1969Y23622D02*
D03*
M02*
