G04*
G04 #@! TF.GenerationSoftware,Altium Limited,Altium Designer,20.1.14 (287)*
G04*
G04 Layer_Color=16711935*
%FSLAX25Y25*%
%MOIN*%
G70*
G04*
G04 #@! TF.SameCoordinates,7F5ADFAE-F052-4B02-90E5-093173F2D11D*
G04*
G04*
G04 #@! TF.FilePolarity,Positive*
G04*
G01*
G75*
%ADD10C,0.00787*%
G36*
X64268Y-16334D02*
X64293D01*
X64320Y-16340D01*
X64353Y-16342D01*
X64389Y-16351D01*
X64427Y-16359D01*
X64470Y-16372D01*
X64514Y-16386D01*
X64558Y-16405D01*
X64604Y-16427D01*
X64651Y-16454D01*
X64694Y-16484D01*
X64741Y-16520D01*
X64782Y-16561D01*
X64784Y-16563D01*
X64790Y-16572D01*
X64801Y-16585D01*
X64814Y-16602D01*
X64833Y-16626D01*
X64850Y-16654D01*
X64872Y-16686D01*
X64891Y-16722D01*
X64910Y-16763D01*
X64932Y-16809D01*
X64948Y-16858D01*
X64965Y-16910D01*
X64981Y-16967D01*
X64992Y-17028D01*
X64997Y-17093D01*
X65000Y-17161D01*
Y-17178D01*
X64997Y-17197D01*
Y-17224D01*
X64995Y-17254D01*
X64989Y-17292D01*
X64981Y-17333D01*
X64973Y-17377D01*
X64962Y-17423D01*
X64946Y-17472D01*
X64929Y-17522D01*
X64907Y-17573D01*
X64883Y-17623D01*
X64853Y-17672D01*
X64820Y-17721D01*
X64782Y-17765D01*
X64779Y-17767D01*
X64771Y-17775D01*
X64760Y-17786D01*
X64741Y-17800D01*
X64719Y-17817D01*
X64694Y-17836D01*
X64664Y-17857D01*
X64629Y-17876D01*
X64591Y-17898D01*
X64550Y-17920D01*
X64503Y-17939D01*
X64457Y-17956D01*
X64405Y-17969D01*
X64348Y-17980D01*
X64290Y-17988D01*
X64230Y-17991D01*
X64227D01*
X64219D01*
X64206D01*
X64189Y-17988D01*
X64167D01*
X64143Y-17986D01*
X64116Y-17980D01*
X64086Y-17975D01*
X64023Y-17961D01*
X63955Y-17939D01*
X63886Y-17909D01*
X63853Y-17890D01*
X63821Y-17868D01*
X63818Y-17866D01*
X63813Y-17863D01*
X63804Y-17855D01*
X63793Y-17844D01*
X63780Y-17833D01*
X63766Y-17817D01*
X63747Y-17797D01*
X63731Y-17775D01*
X63692Y-17726D01*
X63654Y-17666D01*
X63621Y-17595D01*
X63594Y-17513D01*
Y-17516D01*
X63591Y-17522D01*
X63586Y-17533D01*
X63580Y-17544D01*
X63575Y-17560D01*
X63564Y-17579D01*
X63542Y-17620D01*
X63515Y-17666D01*
X63479Y-17713D01*
X63441Y-17759D01*
X63395Y-17797D01*
X63392D01*
X63389Y-17800D01*
X63381Y-17806D01*
X63370Y-17811D01*
X63343Y-17827D01*
X63307Y-17844D01*
X63261Y-17860D01*
X63206Y-17876D01*
X63146Y-17887D01*
X63081Y-17890D01*
X63078D01*
X63070D01*
X63054Y-17887D01*
X63034D01*
X63013Y-17885D01*
X62985Y-17879D01*
X62955Y-17874D01*
X62920Y-17866D01*
X62884Y-17855D01*
X62849Y-17841D01*
X62811Y-17827D01*
X62770Y-17808D01*
X62731Y-17784D01*
X62693Y-17759D01*
X62655Y-17729D01*
X62620Y-17694D01*
X62617Y-17691D01*
X62611Y-17685D01*
X62603Y-17674D01*
X62590Y-17658D01*
X62576Y-17639D01*
X62559Y-17614D01*
X62543Y-17587D01*
X62524Y-17554D01*
X62508Y-17519D01*
X62491Y-17478D01*
X62475Y-17437D01*
X62461Y-17391D01*
X62448Y-17339D01*
X62439Y-17287D01*
X62434Y-17230D01*
X62431Y-17169D01*
Y-17137D01*
X62434Y-17115D01*
X62437Y-17087D01*
X62442Y-17055D01*
X62448Y-17019D01*
X62456Y-16978D01*
X62467Y-16937D01*
X62477Y-16894D01*
X62494Y-16850D01*
X62513Y-16806D01*
X62535Y-16760D01*
X62562Y-16719D01*
X62590Y-16675D01*
X62625Y-16637D01*
X62628Y-16634D01*
X62633Y-16629D01*
X62644Y-16618D01*
X62658Y-16604D01*
X62677Y-16591D01*
X62699Y-16574D01*
X62726Y-16555D01*
X62753Y-16536D01*
X62786Y-16517D01*
X62822Y-16498D01*
X62860Y-16481D01*
X62901Y-16468D01*
X62944Y-16454D01*
X62991Y-16443D01*
X63040Y-16438D01*
X63089Y-16435D01*
X63092D01*
X63097D01*
X63105D01*
X63119D01*
X63133Y-16438D01*
X63152Y-16441D01*
X63193Y-16446D01*
X63239Y-16457D01*
X63291Y-16473D01*
X63343Y-16498D01*
X63395Y-16528D01*
X63398D01*
X63400Y-16533D01*
X63417Y-16544D01*
X63438Y-16566D01*
X63468Y-16596D01*
X63499Y-16637D01*
X63534Y-16683D01*
X63564Y-16741D01*
X63594Y-16806D01*
Y-16804D01*
X63597Y-16795D01*
X63602Y-16784D01*
X63608Y-16768D01*
X63616Y-16749D01*
X63627Y-16727D01*
X63654Y-16675D01*
X63687Y-16618D01*
X63731Y-16561D01*
X63780Y-16503D01*
X63840Y-16454D01*
X63842Y-16452D01*
X63848Y-16449D01*
X63856Y-16443D01*
X63870Y-16435D01*
X63886Y-16427D01*
X63905Y-16416D01*
X63927Y-16405D01*
X63952Y-16391D01*
X64009Y-16370D01*
X64077Y-16351D01*
X64154Y-16337D01*
X64195Y-16331D01*
X64238D01*
X64241D01*
X64252D01*
X64268Y-16334D01*
D02*
G37*
G36*
X64178Y-18278D02*
X64197Y-18283D01*
X64227Y-18294D01*
X64260Y-18305D01*
X64301Y-18322D01*
X64345Y-18338D01*
X64391Y-18360D01*
X64443Y-18384D01*
X64492Y-18412D01*
X64547Y-18442D01*
X64599Y-18477D01*
X64648Y-18515D01*
X64697Y-18556D01*
X64743Y-18603D01*
X64787Y-18652D01*
X64790Y-18655D01*
X64795Y-18665D01*
X64806Y-18679D01*
X64820Y-18701D01*
X64836Y-18726D01*
X64855Y-18758D01*
X64875Y-18794D01*
X64894Y-18837D01*
X64913Y-18884D01*
X64932Y-18933D01*
X64951Y-18988D01*
X64967Y-19048D01*
X64981Y-19110D01*
X64992Y-19176D01*
X64997Y-19244D01*
X65000Y-19318D01*
Y-19356D01*
X64997Y-19386D01*
X64995Y-19419D01*
X64992Y-19460D01*
X64986Y-19504D01*
X64978Y-19553D01*
X64970Y-19605D01*
X64959Y-19659D01*
X64946Y-19714D01*
X64932Y-19768D01*
X64913Y-19826D01*
X64891Y-19880D01*
X64866Y-19932D01*
X64836Y-19981D01*
X64833Y-19984D01*
X64828Y-19992D01*
X64820Y-20006D01*
X64806Y-20022D01*
X64787Y-20044D01*
X64768Y-20069D01*
X64743Y-20096D01*
X64713Y-20126D01*
X64681Y-20156D01*
X64645Y-20189D01*
X64607Y-20219D01*
X64563Y-20252D01*
X64517Y-20284D01*
X64468Y-20314D01*
X64413Y-20342D01*
X64356Y-20369D01*
X64353Y-20372D01*
X64342Y-20374D01*
X64323Y-20380D01*
X64301Y-20388D01*
X64271Y-20399D01*
X64238Y-20410D01*
X64197Y-20421D01*
X64154Y-20435D01*
X64105Y-20445D01*
X64053Y-20459D01*
X63998Y-20470D01*
X63938Y-20478D01*
X63813Y-20495D01*
X63747Y-20497D01*
X63682Y-20500D01*
X63676D01*
X63665D01*
X63643D01*
X63616Y-20497D01*
X63580Y-20495D01*
X63539Y-20492D01*
X63496Y-20486D01*
X63447Y-20481D01*
X63395Y-20473D01*
X63340Y-20465D01*
X63223Y-20437D01*
X63165Y-20418D01*
X63108Y-20399D01*
X63048Y-20377D01*
X62994Y-20350D01*
X62991Y-20347D01*
X62980Y-20342D01*
X62966Y-20334D01*
X62944Y-20323D01*
X62920Y-20306D01*
X62893Y-20287D01*
X62862Y-20265D01*
X62827Y-20241D01*
X62794Y-20211D01*
X62756Y-20181D01*
X62721Y-20145D01*
X62682Y-20107D01*
X62647Y-20066D01*
X62611Y-20022D01*
X62578Y-19973D01*
X62549Y-19924D01*
X62546Y-19921D01*
X62543Y-19910D01*
X62535Y-19897D01*
X62524Y-19875D01*
X62513Y-19850D01*
X62499Y-19817D01*
X62486Y-19782D01*
X62472Y-19744D01*
X62458Y-19700D01*
X62445Y-19651D01*
X62431Y-19602D01*
X62420Y-19547D01*
X62401Y-19435D01*
X62398Y-19375D01*
X62396Y-19312D01*
Y-19277D01*
X62398Y-19250D01*
X62401Y-19217D01*
X62407Y-19179D01*
X62412Y-19138D01*
X62420Y-19091D01*
X62431Y-19042D01*
X62442Y-18990D01*
X62458Y-18938D01*
X62477Y-18884D01*
X62499Y-18829D01*
X62527Y-18777D01*
X62554Y-18726D01*
X62590Y-18676D01*
X62592Y-18674D01*
X62598Y-18665D01*
X62609Y-18652D01*
X62625Y-18635D01*
X62644Y-18614D01*
X62669Y-18589D01*
X62696Y-18564D01*
X62729Y-18534D01*
X62764Y-18504D01*
X62805Y-18474D01*
X62849Y-18444D01*
X62898Y-18417D01*
X62950Y-18387D01*
X63007Y-18362D01*
X63067Y-18338D01*
X63130Y-18316D01*
X63206Y-18644D01*
X63204D01*
X63196Y-18649D01*
X63179Y-18652D01*
X63160Y-18660D01*
X63138Y-18668D01*
X63114Y-18682D01*
X63054Y-18709D01*
X62988Y-18745D01*
X62920Y-18791D01*
X62857Y-18840D01*
X62830Y-18870D01*
X62805Y-18900D01*
X62802Y-18903D01*
X62800Y-18909D01*
X62794Y-18917D01*
X62786Y-18930D01*
X62775Y-18947D01*
X62764Y-18966D01*
X62753Y-18988D01*
X62742Y-19015D01*
X62731Y-19045D01*
X62721Y-19075D01*
X62699Y-19146D01*
X62685Y-19228D01*
X62679Y-19272D01*
Y-19345D01*
X62682Y-19367D01*
X62685Y-19392D01*
X62688Y-19422D01*
X62691Y-19455D01*
X62696Y-19487D01*
X62715Y-19566D01*
X62740Y-19648D01*
X62756Y-19689D01*
X62775Y-19730D01*
X62797Y-19768D01*
X62822Y-19807D01*
X62824Y-19809D01*
X62827Y-19815D01*
X62835Y-19826D01*
X62846Y-19839D01*
X62860Y-19853D01*
X62879Y-19872D01*
X62898Y-19891D01*
X62920Y-19913D01*
X62947Y-19935D01*
X62974Y-19960D01*
X63037Y-20003D01*
X63111Y-20044D01*
X63196Y-20080D01*
X63198D01*
X63206Y-20082D01*
X63220Y-20088D01*
X63236Y-20090D01*
X63258Y-20096D01*
X63283Y-20104D01*
X63313Y-20110D01*
X63343Y-20118D01*
X63378Y-20126D01*
X63417Y-20132D01*
X63499Y-20145D01*
X63586Y-20153D01*
X63679Y-20156D01*
X63682D01*
X63692D01*
X63709D01*
X63733Y-20153D01*
X63761D01*
X63793Y-20151D01*
X63829Y-20148D01*
X63870Y-20145D01*
X63914Y-20140D01*
X63957Y-20134D01*
X64053Y-20118D01*
X64148Y-20093D01*
X64241Y-20063D01*
X64244D01*
X64252Y-20058D01*
X64263Y-20052D01*
X64279Y-20047D01*
X64301Y-20036D01*
X64323Y-20022D01*
X64375Y-19992D01*
X64435Y-19951D01*
X64492Y-19902D01*
X64550Y-19842D01*
X64574Y-19809D01*
X64599Y-19774D01*
Y-19771D01*
X64604Y-19766D01*
X64610Y-19755D01*
X64618Y-19738D01*
X64626Y-19719D01*
X64637Y-19697D01*
X64645Y-19673D01*
X64656Y-19646D01*
X64678Y-19583D01*
X64697Y-19509D01*
X64711Y-19430D01*
X64713Y-19389D01*
X64716Y-19345D01*
Y-19318D01*
X64713Y-19299D01*
X64711Y-19274D01*
X64708Y-19247D01*
X64702Y-19214D01*
X64697Y-19182D01*
X64678Y-19105D01*
X64664Y-19067D01*
X64648Y-19026D01*
X64629Y-18985D01*
X64607Y-18947D01*
X64582Y-18909D01*
X64555Y-18870D01*
X64552Y-18868D01*
X64547Y-18862D01*
X64539Y-18851D01*
X64525Y-18837D01*
X64509Y-18824D01*
X64487Y-18805D01*
X64462Y-18786D01*
X64435Y-18764D01*
X64402Y-18742D01*
X64367Y-18720D01*
X64328Y-18698D01*
X64285Y-18676D01*
X64238Y-18657D01*
X64187Y-18638D01*
X64132Y-18619D01*
X64075Y-18605D01*
X64159Y-18272D01*
X64165D01*
X64178Y-18278D01*
D02*
G37*
G36*
X-9746Y-53273D02*
X-9142D01*
Y-53581D01*
X-9746D01*
Y-54679D01*
X-10030D01*
X-11662Y-53527D01*
Y-53273D01*
X-10030D01*
Y-52932D01*
X-9746D01*
Y-53273D01*
D02*
G37*
G36*
X-9923Y-54864D02*
X-9904Y-54870D01*
X-9874Y-54881D01*
X-9841Y-54892D01*
X-9800Y-54908D01*
X-9757Y-54924D01*
X-9710Y-54946D01*
X-9658Y-54971D01*
X-9609Y-54998D01*
X-9555Y-55028D01*
X-9503Y-55064D01*
X-9454Y-55102D01*
X-9404Y-55143D01*
X-9358Y-55189D01*
X-9314Y-55238D01*
X-9312Y-55241D01*
X-9306Y-55252D01*
X-9295Y-55266D01*
X-9282Y-55287D01*
X-9265Y-55312D01*
X-9246Y-55345D01*
X-9227Y-55380D01*
X-9208Y-55424D01*
X-9189Y-55471D01*
X-9170Y-55520D01*
X-9150Y-55574D01*
X-9134Y-55634D01*
X-9121Y-55697D01*
X-9110Y-55763D01*
X-9104Y-55831D01*
X-9101Y-55905D01*
Y-55943D01*
X-9104Y-55973D01*
X-9107Y-56006D01*
X-9110Y-56046D01*
X-9115Y-56090D01*
X-9123Y-56139D01*
X-9131Y-56191D01*
X-9142Y-56246D01*
X-9156Y-56300D01*
X-9170Y-56355D01*
X-9189Y-56412D01*
X-9211Y-56467D01*
X-9235Y-56519D01*
X-9265Y-56568D01*
X-9268Y-56571D01*
X-9273Y-56579D01*
X-9282Y-56593D01*
X-9295Y-56609D01*
X-9314Y-56631D01*
X-9334Y-56655D01*
X-9358Y-56683D01*
X-9388Y-56713D01*
X-9421Y-56743D01*
X-9456Y-56775D01*
X-9494Y-56805D01*
X-9538Y-56838D01*
X-9585Y-56871D01*
X-9634Y-56901D01*
X-9688Y-56928D01*
X-9746Y-56956D01*
X-9748Y-56958D01*
X-9759Y-56961D01*
X-9778Y-56967D01*
X-9800Y-56975D01*
X-9830Y-56986D01*
X-9863Y-56997D01*
X-9904Y-57007D01*
X-9948Y-57021D01*
X-9997Y-57032D01*
X-10049Y-57046D01*
X-10103Y-57057D01*
X-10163Y-57065D01*
X-10289Y-57081D01*
X-10355Y-57084D01*
X-10420Y-57087D01*
X-10425D01*
X-10436D01*
X-10458D01*
X-10486Y-57084D01*
X-10521Y-57081D01*
X-10562Y-57078D01*
X-10606Y-57073D01*
X-10655Y-57068D01*
X-10707Y-57059D01*
X-10761Y-57051D01*
X-10879Y-57024D01*
X-10936Y-57005D01*
X-10993Y-56986D01*
X-11053Y-56964D01*
X-11108Y-56937D01*
X-11111Y-56934D01*
X-11122Y-56928D01*
X-11135Y-56920D01*
X-11157Y-56909D01*
X-11182Y-56893D01*
X-11209Y-56874D01*
X-11239Y-56852D01*
X-11275Y-56827D01*
X-11307Y-56797D01*
X-11345Y-56767D01*
X-11381Y-56732D01*
X-11419Y-56694D01*
X-11455Y-56652D01*
X-11490Y-56609D01*
X-11523Y-56560D01*
X-11553Y-56511D01*
X-11556Y-56508D01*
X-11558Y-56497D01*
X-11567Y-56483D01*
X-11577Y-56462D01*
X-11588Y-56437D01*
X-11602Y-56404D01*
X-11616Y-56369D01*
X-11629Y-56330D01*
X-11643Y-56287D01*
X-11657Y-56238D01*
X-11670Y-56188D01*
X-11681Y-56134D01*
X-11700Y-56022D01*
X-11703Y-55962D01*
X-11706Y-55899D01*
Y-55864D01*
X-11703Y-55836D01*
X-11700Y-55804D01*
X-11695Y-55765D01*
X-11689Y-55724D01*
X-11681Y-55678D01*
X-11670Y-55629D01*
X-11659Y-55577D01*
X-11643Y-55525D01*
X-11624Y-55471D01*
X-11602Y-55416D01*
X-11575Y-55364D01*
X-11547Y-55312D01*
X-11512Y-55263D01*
X-11509Y-55260D01*
X-11504Y-55252D01*
X-11493Y-55238D01*
X-11477Y-55222D01*
X-11457Y-55200D01*
X-11433Y-55176D01*
X-11406Y-55151D01*
X-11373Y-55121D01*
X-11337Y-55091D01*
X-11296Y-55061D01*
X-11253Y-55031D01*
X-11203Y-55004D01*
X-11152Y-54974D01*
X-11094Y-54949D01*
X-11034Y-54924D01*
X-10971Y-54903D01*
X-10895Y-55230D01*
X-10898D01*
X-10906Y-55236D01*
X-10922Y-55238D01*
X-10941Y-55247D01*
X-10963Y-55255D01*
X-10988Y-55268D01*
X-11048Y-55296D01*
X-11113Y-55331D01*
X-11182Y-55378D01*
X-11244Y-55427D01*
X-11272Y-55457D01*
X-11296Y-55487D01*
X-11299Y-55490D01*
X-11302Y-55495D01*
X-11307Y-55503D01*
X-11315Y-55517D01*
X-11326Y-55533D01*
X-11337Y-55552D01*
X-11348Y-55574D01*
X-11359Y-55602D01*
X-11370Y-55632D01*
X-11381Y-55662D01*
X-11403Y-55733D01*
X-11417Y-55814D01*
X-11422Y-55858D01*
Y-55932D01*
X-11419Y-55954D01*
X-11417Y-55978D01*
X-11414Y-56008D01*
X-11411Y-56041D01*
X-11406Y-56074D01*
X-11386Y-56153D01*
X-11362Y-56235D01*
X-11345Y-56276D01*
X-11326Y-56317D01*
X-11304Y-56355D01*
X-11280Y-56393D01*
X-11277Y-56396D01*
X-11275Y-56401D01*
X-11266Y-56412D01*
X-11255Y-56426D01*
X-11242Y-56440D01*
X-11223Y-56459D01*
X-11203Y-56478D01*
X-11182Y-56500D01*
X-11154Y-56521D01*
X-11127Y-56546D01*
X-11064Y-56590D01*
X-10991Y-56631D01*
X-10906Y-56666D01*
X-10903D01*
X-10895Y-56669D01*
X-10881Y-56674D01*
X-10865Y-56677D01*
X-10843Y-56683D01*
X-10819Y-56691D01*
X-10789Y-56696D01*
X-10758Y-56704D01*
X-10723Y-56713D01*
X-10685Y-56718D01*
X-10603Y-56732D01*
X-10516Y-56740D01*
X-10423Y-56743D01*
X-10420D01*
X-10409D01*
X-10393D01*
X-10368Y-56740D01*
X-10341D01*
X-10308Y-56737D01*
X-10273Y-56735D01*
X-10232Y-56732D01*
X-10188Y-56726D01*
X-10144Y-56721D01*
X-10049Y-56704D01*
X-9953Y-56680D01*
X-9860Y-56650D01*
X-9858D01*
X-9849Y-56644D01*
X-9838Y-56639D01*
X-9822Y-56633D01*
X-9800Y-56622D01*
X-9778Y-56609D01*
X-9727Y-56579D01*
X-9667Y-56538D01*
X-9609Y-56489D01*
X-9552Y-56429D01*
X-9527Y-56396D01*
X-9503Y-56360D01*
Y-56358D01*
X-9497Y-56352D01*
X-9492Y-56341D01*
X-9484Y-56325D01*
X-9475Y-56306D01*
X-9465Y-56284D01*
X-9456Y-56259D01*
X-9445Y-56232D01*
X-9424Y-56169D01*
X-9404Y-56096D01*
X-9391Y-56016D01*
X-9388Y-55976D01*
X-9385Y-55932D01*
Y-55905D01*
X-9388Y-55885D01*
X-9391Y-55861D01*
X-9393Y-55834D01*
X-9399Y-55801D01*
X-9404Y-55768D01*
X-9424Y-55692D01*
X-9437Y-55653D01*
X-9454Y-55612D01*
X-9473Y-55572D01*
X-9494Y-55533D01*
X-9519Y-55495D01*
X-9546Y-55457D01*
X-9549Y-55454D01*
X-9555Y-55449D01*
X-9563Y-55438D01*
X-9576Y-55424D01*
X-9593Y-55410D01*
X-9615Y-55391D01*
X-9639Y-55372D01*
X-9667Y-55350D01*
X-9699Y-55329D01*
X-9735Y-55307D01*
X-9773Y-55285D01*
X-9817Y-55263D01*
X-9863Y-55244D01*
X-9915Y-55225D01*
X-9969Y-55206D01*
X-10027Y-55192D01*
X-9942Y-54859D01*
X-9937D01*
X-9923Y-54864D01*
D02*
G37*
G36*
X29431Y-52907D02*
X29461Y-52910D01*
X29493Y-52915D01*
X29532Y-52921D01*
X29575Y-52929D01*
X29619Y-52940D01*
X29668Y-52953D01*
X29717Y-52970D01*
X29766Y-52989D01*
X29816Y-53011D01*
X29867Y-53038D01*
X29917Y-53068D01*
X29963Y-53104D01*
X29966Y-53106D01*
X29977Y-53114D01*
X29990Y-53128D01*
X30009Y-53147D01*
X30034Y-53172D01*
X30059Y-53202D01*
X30088Y-53237D01*
X30116Y-53278D01*
X30143Y-53322D01*
X30173Y-53371D01*
X30198Y-53426D01*
X30220Y-53486D01*
X30241Y-53549D01*
X30255Y-53617D01*
X30266Y-53688D01*
X30269Y-53764D01*
Y-53797D01*
X30266Y-53821D01*
X30263Y-53852D01*
X30258Y-53884D01*
X30252Y-53923D01*
X30244Y-53964D01*
X30236Y-54007D01*
X30222Y-54054D01*
X30206Y-54100D01*
X30187Y-54146D01*
X30165Y-54193D01*
X30140Y-54239D01*
X30110Y-54283D01*
X30078Y-54327D01*
X30075Y-54329D01*
X30069Y-54335D01*
X30059Y-54346D01*
X30042Y-54359D01*
X30023Y-54378D01*
X30001Y-54398D01*
X29974Y-54417D01*
X29941Y-54439D01*
X29908Y-54460D01*
X29870Y-54482D01*
X29826Y-54501D01*
X29783Y-54520D01*
X29734Y-54540D01*
X29682Y-54553D01*
X29624Y-54564D01*
X29567Y-54572D01*
X29542Y-54247D01*
X29545D01*
X29553Y-54245D01*
X29564Y-54242D01*
X29581Y-54239D01*
X29600Y-54237D01*
X29624Y-54228D01*
X29676Y-54215D01*
X29734Y-54193D01*
X29794Y-54163D01*
X29848Y-54127D01*
X29873Y-54106D01*
X29897Y-54084D01*
Y-54081D01*
X29903Y-54078D01*
X29908Y-54070D01*
X29917Y-54059D01*
X29936Y-54032D01*
X29955Y-53993D01*
X29977Y-53947D01*
X29996Y-53892D01*
X30009Y-53833D01*
X30012Y-53800D01*
X30015Y-53764D01*
Y-53742D01*
X30012Y-53726D01*
X30009Y-53707D01*
X30007Y-53685D01*
X29993Y-53633D01*
X29974Y-53573D01*
X29960Y-53543D01*
X29944Y-53510D01*
X29925Y-53478D01*
X29903Y-53448D01*
X29878Y-53417D01*
X29848Y-53387D01*
X29845Y-53385D01*
X29840Y-53382D01*
X29832Y-53374D01*
X29818Y-53363D01*
X29799Y-53352D01*
X29780Y-53338D01*
X29755Y-53325D01*
X29728Y-53308D01*
X29698Y-53295D01*
X29665Y-53281D01*
X29627Y-53267D01*
X29589Y-53256D01*
X29545Y-53246D01*
X29499Y-53237D01*
X29452Y-53235D01*
X29401Y-53232D01*
X29398D01*
X29390D01*
X29376D01*
X29357Y-53235D01*
X29335Y-53237D01*
X29308Y-53240D01*
X29280Y-53246D01*
X29248Y-53251D01*
X29182Y-53267D01*
X29111Y-53295D01*
X29078Y-53311D01*
X29046Y-53333D01*
X29013Y-53355D01*
X28983Y-53382D01*
X28980Y-53385D01*
X28977Y-53387D01*
X28969Y-53398D01*
X28958Y-53409D01*
X28947Y-53423D01*
X28934Y-53442D01*
X28920Y-53461D01*
X28904Y-53486D01*
X28890Y-53513D01*
X28876Y-53540D01*
X28852Y-53609D01*
X28841Y-53644D01*
X28833Y-53685D01*
X28830Y-53726D01*
X28827Y-53770D01*
Y-53794D01*
X28830Y-53824D01*
X28835Y-53860D01*
X28844Y-53903D01*
X28857Y-53950D01*
X28874Y-53996D01*
X28898Y-54043D01*
X28901Y-54048D01*
X28909Y-54062D01*
X28925Y-54084D01*
X28945Y-54111D01*
X28972Y-54138D01*
X29002Y-54171D01*
X29037Y-54201D01*
X29076Y-54228D01*
X29035Y-54518D01*
X27741Y-54275D01*
Y-53022D01*
X28036D01*
Y-54029D01*
X28713Y-54163D01*
X28710Y-54160D01*
X28704Y-54152D01*
X28699Y-54141D01*
X28688Y-54125D01*
X28677Y-54103D01*
X28663Y-54078D01*
X28647Y-54051D01*
X28633Y-54018D01*
X28620Y-53985D01*
X28603Y-53947D01*
X28579Y-53868D01*
X28568Y-53824D01*
X28560Y-53781D01*
X28557Y-53734D01*
X28554Y-53688D01*
Y-53674D01*
X28557Y-53655D01*
Y-53633D01*
X28562Y-53606D01*
X28565Y-53573D01*
X28573Y-53535D01*
X28582Y-53497D01*
X28595Y-53453D01*
X28609Y-53409D01*
X28628Y-53363D01*
X28650Y-53316D01*
X28677Y-53270D01*
X28707Y-53224D01*
X28743Y-53177D01*
X28784Y-53134D01*
X28786Y-53131D01*
X28795Y-53123D01*
X28808Y-53112D01*
X28824Y-53098D01*
X28846Y-53079D01*
X28876Y-53060D01*
X28906Y-53041D01*
X28942Y-53019D01*
X28983Y-52997D01*
X29029Y-52978D01*
X29076Y-52956D01*
X29130Y-52940D01*
X29185Y-52926D01*
X29245Y-52915D01*
X29308Y-52907D01*
X29373Y-52904D01*
X29376D01*
X29390D01*
X29406D01*
X29431Y-52907D01*
D02*
G37*
G36*
X29447Y-54864D02*
X29466Y-54870D01*
X29496Y-54881D01*
X29529Y-54892D01*
X29570Y-54908D01*
X29614Y-54924D01*
X29660Y-54946D01*
X29712Y-54971D01*
X29761Y-54998D01*
X29816Y-55028D01*
X29867Y-55064D01*
X29917Y-55102D01*
X29966Y-55143D01*
X30012Y-55189D01*
X30056Y-55238D01*
X30059Y-55241D01*
X30064Y-55252D01*
X30075Y-55266D01*
X30088Y-55287D01*
X30105Y-55312D01*
X30124Y-55345D01*
X30143Y-55380D01*
X30162Y-55424D01*
X30181Y-55471D01*
X30200Y-55520D01*
X30220Y-55574D01*
X30236Y-55634D01*
X30250Y-55697D01*
X30261Y-55763D01*
X30266Y-55831D01*
X30269Y-55905D01*
Y-55943D01*
X30266Y-55973D01*
X30263Y-56006D01*
X30261Y-56046D01*
X30255Y-56090D01*
X30247Y-56139D01*
X30239Y-56191D01*
X30228Y-56246D01*
X30214Y-56300D01*
X30200Y-56355D01*
X30181Y-56412D01*
X30160Y-56467D01*
X30135Y-56519D01*
X30105Y-56568D01*
X30102Y-56571D01*
X30097Y-56579D01*
X30088Y-56593D01*
X30075Y-56609D01*
X30056Y-56631D01*
X30037Y-56655D01*
X30012Y-56683D01*
X29982Y-56713D01*
X29949Y-56743D01*
X29914Y-56775D01*
X29875Y-56805D01*
X29832Y-56838D01*
X29785Y-56871D01*
X29736Y-56901D01*
X29682Y-56928D01*
X29624Y-56956D01*
X29622Y-56958D01*
X29611Y-56961D01*
X29592Y-56967D01*
X29570Y-56975D01*
X29540Y-56986D01*
X29507Y-56997D01*
X29466Y-57007D01*
X29422Y-57021D01*
X29373Y-57032D01*
X29321Y-57046D01*
X29267Y-57057D01*
X29207Y-57065D01*
X29081Y-57081D01*
X29016Y-57084D01*
X28950Y-57087D01*
X28945D01*
X28934D01*
X28912D01*
X28885Y-57084D01*
X28849Y-57081D01*
X28808Y-57078D01*
X28764Y-57073D01*
X28715Y-57068D01*
X28663Y-57059D01*
X28609Y-57051D01*
X28491Y-57024D01*
X28434Y-57005D01*
X28377Y-56986D01*
X28317Y-56964D01*
X28262Y-56937D01*
X28259Y-56934D01*
X28249Y-56928D01*
X28235Y-56920D01*
X28213Y-56909D01*
X28188Y-56893D01*
X28161Y-56874D01*
X28131Y-56852D01*
X28096Y-56827D01*
X28063Y-56797D01*
X28025Y-56767D01*
X27989Y-56732D01*
X27951Y-56694D01*
X27915Y-56652D01*
X27880Y-56609D01*
X27847Y-56560D01*
X27817Y-56511D01*
X27814Y-56508D01*
X27812Y-56497D01*
X27804Y-56483D01*
X27793Y-56462D01*
X27782Y-56437D01*
X27768Y-56404D01*
X27754Y-56369D01*
X27741Y-56330D01*
X27727Y-56287D01*
X27713Y-56238D01*
X27700Y-56188D01*
X27689Y-56134D01*
X27670Y-56022D01*
X27667Y-55962D01*
X27664Y-55899D01*
Y-55864D01*
X27667Y-55836D01*
X27670Y-55804D01*
X27675Y-55765D01*
X27681Y-55724D01*
X27689Y-55678D01*
X27700Y-55629D01*
X27711Y-55577D01*
X27727Y-55525D01*
X27746Y-55471D01*
X27768Y-55416D01*
X27795Y-55364D01*
X27823Y-55312D01*
X27858Y-55263D01*
X27861Y-55260D01*
X27866Y-55252D01*
X27877Y-55238D01*
X27894Y-55222D01*
X27913Y-55200D01*
X27937Y-55176D01*
X27965Y-55151D01*
X27997Y-55121D01*
X28033Y-55091D01*
X28074Y-55061D01*
X28117Y-55031D01*
X28167Y-55004D01*
X28218Y-54974D01*
X28276Y-54949D01*
X28336Y-54924D01*
X28399Y-54903D01*
X28475Y-55230D01*
X28472D01*
X28464Y-55236D01*
X28448Y-55238D01*
X28429Y-55247D01*
X28407Y-55255D01*
X28382Y-55268D01*
X28322Y-55296D01*
X28257Y-55331D01*
X28188Y-55378D01*
X28126Y-55427D01*
X28098Y-55457D01*
X28074Y-55487D01*
X28071Y-55490D01*
X28068Y-55495D01*
X28063Y-55503D01*
X28055Y-55517D01*
X28044Y-55533D01*
X28033Y-55552D01*
X28022Y-55574D01*
X28011Y-55602D01*
X28000Y-55632D01*
X27989Y-55662D01*
X27967Y-55733D01*
X27954Y-55814D01*
X27948Y-55858D01*
Y-55932D01*
X27951Y-55954D01*
X27954Y-55978D01*
X27956Y-56008D01*
X27959Y-56041D01*
X27965Y-56074D01*
X27984Y-56153D01*
X28008Y-56235D01*
X28025Y-56276D01*
X28044Y-56317D01*
X28066Y-56355D01*
X28090Y-56393D01*
X28093Y-56396D01*
X28096Y-56401D01*
X28104Y-56412D01*
X28115Y-56426D01*
X28128Y-56440D01*
X28148Y-56459D01*
X28167Y-56478D01*
X28188Y-56500D01*
X28216Y-56521D01*
X28243Y-56546D01*
X28306Y-56590D01*
X28379Y-56631D01*
X28464Y-56666D01*
X28467D01*
X28475Y-56669D01*
X28489Y-56674D01*
X28505Y-56677D01*
X28527Y-56683D01*
X28552Y-56691D01*
X28582Y-56696D01*
X28612Y-56704D01*
X28647Y-56713D01*
X28685Y-56718D01*
X28767Y-56732D01*
X28855Y-56740D01*
X28947Y-56743D01*
X28950D01*
X28961D01*
X28977D01*
X29002Y-56740D01*
X29029D01*
X29062Y-56737D01*
X29098Y-56735D01*
X29138Y-56732D01*
X29182Y-56726D01*
X29226Y-56721D01*
X29321Y-56704D01*
X29417Y-56680D01*
X29510Y-56650D01*
X29513D01*
X29521Y-56644D01*
X29532Y-56639D01*
X29548Y-56633D01*
X29570Y-56622D01*
X29592Y-56609D01*
X29643Y-56579D01*
X29704Y-56538D01*
X29761Y-56489D01*
X29818Y-56429D01*
X29843Y-56396D01*
X29867Y-56360D01*
Y-56358D01*
X29873Y-56352D01*
X29878Y-56341D01*
X29886Y-56325D01*
X29895Y-56306D01*
X29906Y-56284D01*
X29914Y-56259D01*
X29925Y-56232D01*
X29947Y-56169D01*
X29966Y-56096D01*
X29979Y-56016D01*
X29982Y-55976D01*
X29985Y-55932D01*
Y-55905D01*
X29982Y-55885D01*
X29979Y-55861D01*
X29977Y-55834D01*
X29971Y-55801D01*
X29966Y-55768D01*
X29947Y-55692D01*
X29933Y-55653D01*
X29917Y-55612D01*
X29897Y-55572D01*
X29875Y-55533D01*
X29851Y-55495D01*
X29824Y-55457D01*
X29821Y-55454D01*
X29816Y-55449D01*
X29807Y-55438D01*
X29794Y-55424D01*
X29777Y-55410D01*
X29755Y-55391D01*
X29731Y-55372D01*
X29704Y-55350D01*
X29671Y-55329D01*
X29635Y-55307D01*
X29597Y-55285D01*
X29553Y-55263D01*
X29507Y-55244D01*
X29455Y-55225D01*
X29401Y-55206D01*
X29343Y-55192D01*
X29428Y-54859D01*
X29433D01*
X29447Y-54864D01*
D02*
G37*
G36*
X66384Y-6003D02*
X66420Y-6005D01*
X66461Y-6008D01*
X66504Y-6014D01*
X66553Y-6019D01*
X66605Y-6027D01*
X66660Y-6035D01*
X66777Y-6063D01*
X66834Y-6082D01*
X66892Y-6101D01*
X66952Y-6123D01*
X67006Y-6150D01*
X67009Y-6153D01*
X67020Y-6158D01*
X67034Y-6166D01*
X67056Y-6177D01*
X67080Y-6194D01*
X67107Y-6213D01*
X67137Y-6235D01*
X67173Y-6259D01*
X67206Y-6289D01*
X67244Y-6319D01*
X67279Y-6355D01*
X67318Y-6393D01*
X67353Y-6434D01*
X67389Y-6478D01*
X67422Y-6527D01*
X67452Y-6576D01*
X67454Y-6579D01*
X67457Y-6590D01*
X67465Y-6603D01*
X67476Y-6625D01*
X67487Y-6650D01*
X67501Y-6683D01*
X67514Y-6718D01*
X67528Y-6756D01*
X67542Y-6800D01*
X67555Y-6849D01*
X67569Y-6898D01*
X67580Y-6953D01*
X67599Y-7065D01*
X67602Y-7125D01*
X67604Y-7187D01*
Y-7223D01*
X67602Y-7250D01*
X67599Y-7283D01*
X67593Y-7321D01*
X67588Y-7362D01*
X67580Y-7409D01*
X67569Y-7458D01*
X67558Y-7510D01*
X67542Y-7562D01*
X67523Y-7616D01*
X67501Y-7671D01*
X67473Y-7723D01*
X67446Y-7774D01*
X67410Y-7824D01*
X67408Y-7826D01*
X67402Y-7835D01*
X67391Y-7848D01*
X67375Y-7864D01*
X67356Y-7886D01*
X67331Y-7911D01*
X67304Y-7936D01*
X67271Y-7966D01*
X67236Y-7996D01*
X67195Y-8026D01*
X67151Y-8056D01*
X67102Y-8083D01*
X67050Y-8113D01*
X66993Y-8138D01*
X66933Y-8162D01*
X66870Y-8184D01*
X66794Y-7856D01*
X66796D01*
X66804Y-7851D01*
X66821Y-7848D01*
X66840Y-7840D01*
X66862Y-7832D01*
X66886Y-7818D01*
X66946Y-7791D01*
X67012Y-7755D01*
X67080Y-7709D01*
X67143Y-7660D01*
X67170Y-7630D01*
X67195Y-7600D01*
X67198Y-7597D01*
X67200Y-7592D01*
X67206Y-7583D01*
X67214Y-7570D01*
X67225Y-7553D01*
X67236Y-7534D01*
X67247Y-7512D01*
X67258Y-7485D01*
X67269Y-7455D01*
X67279Y-7425D01*
X67301Y-7354D01*
X67315Y-7272D01*
X67321Y-7228D01*
Y-7155D01*
X67318Y-7133D01*
X67315Y-7108D01*
X67312Y-7078D01*
X67309Y-7045D01*
X67304Y-7013D01*
X67285Y-6934D01*
X67260Y-6852D01*
X67244Y-6811D01*
X67225Y-6770D01*
X67203Y-6732D01*
X67178Y-6693D01*
X67176Y-6691D01*
X67173Y-6685D01*
X67165Y-6674D01*
X67154Y-6661D01*
X67140Y-6647D01*
X67121Y-6628D01*
X67102Y-6609D01*
X67080Y-6587D01*
X67053Y-6565D01*
X67026Y-6540D01*
X66963Y-6497D01*
X66889Y-6456D01*
X66804Y-6420D01*
X66802D01*
X66794Y-6418D01*
X66780Y-6412D01*
X66764Y-6409D01*
X66742Y-6404D01*
X66717Y-6396D01*
X66687Y-6390D01*
X66657Y-6382D01*
X66622Y-6374D01*
X66583Y-6368D01*
X66501Y-6355D01*
X66414Y-6347D01*
X66321Y-6344D01*
X66319D01*
X66308D01*
X66291D01*
X66267Y-6347D01*
X66239D01*
X66207Y-6349D01*
X66171Y-6352D01*
X66130Y-6355D01*
X66087Y-6360D01*
X66043Y-6366D01*
X65947Y-6382D01*
X65852Y-6407D01*
X65759Y-6437D01*
X65756D01*
X65748Y-6442D01*
X65737Y-6448D01*
X65721Y-6453D01*
X65699Y-6464D01*
X65677Y-6478D01*
X65625Y-6508D01*
X65565Y-6549D01*
X65508Y-6598D01*
X65450Y-6658D01*
X65426Y-6691D01*
X65401Y-6726D01*
Y-6729D01*
X65396Y-6734D01*
X65390Y-6745D01*
X65382Y-6762D01*
X65374Y-6781D01*
X65363Y-6803D01*
X65355Y-6827D01*
X65344Y-6854D01*
X65322Y-6917D01*
X65303Y-6991D01*
X65289Y-7070D01*
X65287Y-7111D01*
X65284Y-7155D01*
Y-7182D01*
X65287Y-7201D01*
X65289Y-7226D01*
X65292Y-7253D01*
X65298Y-7286D01*
X65303Y-7318D01*
X65322Y-7395D01*
X65336Y-7433D01*
X65352Y-7474D01*
X65371Y-7515D01*
X65393Y-7553D01*
X65418Y-7592D01*
X65445Y-7630D01*
X65448Y-7632D01*
X65453Y-7638D01*
X65461Y-7649D01*
X65475Y-7662D01*
X65491Y-7676D01*
X65513Y-7695D01*
X65538Y-7714D01*
X65565Y-7736D01*
X65598Y-7758D01*
X65633Y-7780D01*
X65671Y-7802D01*
X65715Y-7824D01*
X65762Y-7843D01*
X65813Y-7862D01*
X65868Y-7881D01*
X65925Y-7895D01*
X65841Y-8228D01*
X65835D01*
X65822Y-8222D01*
X65803Y-8217D01*
X65772Y-8206D01*
X65740Y-8195D01*
X65699Y-8179D01*
X65655Y-8162D01*
X65609Y-8140D01*
X65557Y-8116D01*
X65508Y-8088D01*
X65453Y-8058D01*
X65401Y-8023D01*
X65352Y-7985D01*
X65303Y-7944D01*
X65257Y-7897D01*
X65213Y-7848D01*
X65210Y-7845D01*
X65205Y-7835D01*
X65194Y-7821D01*
X65180Y-7799D01*
X65164Y-7774D01*
X65145Y-7742D01*
X65126Y-7706D01*
X65106Y-7662D01*
X65087Y-7616D01*
X65068Y-7567D01*
X65049Y-7512D01*
X65033Y-7452D01*
X65019Y-7389D01*
X65008Y-7324D01*
X65003Y-7256D01*
X65000Y-7182D01*
Y-7144D01*
X65003Y-7114D01*
X65005Y-7081D01*
X65008Y-7040D01*
X65014Y-6996D01*
X65022Y-6947D01*
X65030Y-6895D01*
X65041Y-6841D01*
X65055Y-6786D01*
X65068Y-6732D01*
X65087Y-6674D01*
X65109Y-6620D01*
X65134Y-6568D01*
X65164Y-6519D01*
X65166Y-6516D01*
X65172Y-6508D01*
X65180Y-6494D01*
X65194Y-6478D01*
X65213Y-6456D01*
X65232Y-6431D01*
X65257Y-6404D01*
X65287Y-6374D01*
X65319Y-6344D01*
X65355Y-6311D01*
X65393Y-6281D01*
X65437Y-6248D01*
X65483Y-6216D01*
X65532Y-6186D01*
X65587Y-6158D01*
X65644Y-6131D01*
X65647Y-6128D01*
X65658Y-6126D01*
X65677Y-6120D01*
X65699Y-6112D01*
X65729Y-6101D01*
X65762Y-6090D01*
X65803Y-6079D01*
X65846Y-6066D01*
X65895Y-6055D01*
X65947Y-6041D01*
X66002Y-6030D01*
X66062Y-6022D01*
X66188Y-6005D01*
X66253Y-6003D01*
X66319Y-6000D01*
X66324D01*
X66335D01*
X66357D01*
X66384Y-6003D01*
D02*
G37*
G36*
X66755Y-8517D02*
X66780D01*
X66813Y-8523D01*
X66851Y-8525D01*
X66892Y-8533D01*
X66938Y-8542D01*
X66985Y-8555D01*
X67036Y-8569D01*
X67088Y-8588D01*
X67137Y-8610D01*
X67189Y-8634D01*
X67241Y-8664D01*
X67288Y-8700D01*
X67334Y-8738D01*
X67337Y-8741D01*
X67345Y-8749D01*
X67356Y-8763D01*
X67370Y-8779D01*
X67389Y-8801D01*
X67408Y-8828D01*
X67430Y-8858D01*
X67452Y-8894D01*
X67473Y-8932D01*
X67495Y-8976D01*
X67514Y-9022D01*
X67533Y-9071D01*
X67547Y-9126D01*
X67558Y-9183D01*
X67566Y-9240D01*
X67569Y-9303D01*
Y-9328D01*
X67566Y-9344D01*
Y-9366D01*
X67561Y-9391D01*
X67558Y-9421D01*
X67553Y-9451D01*
X67536Y-9522D01*
X67511Y-9595D01*
X67498Y-9634D01*
X67479Y-9674D01*
X67460Y-9713D01*
X67435Y-9751D01*
X67432Y-9754D01*
X67430Y-9759D01*
X67422Y-9770D01*
X67410Y-9784D01*
X67397Y-9803D01*
X67380Y-9822D01*
X67361Y-9844D01*
X67340Y-9866D01*
X67315Y-9890D01*
X67285Y-9917D01*
X67255Y-9942D01*
X67222Y-9969D01*
X67184Y-9994D01*
X67146Y-10018D01*
X67102Y-10040D01*
X67058Y-10062D01*
X67056D01*
X67048Y-10068D01*
X67034Y-10073D01*
X67012Y-10079D01*
X66987Y-10087D01*
X66957Y-10095D01*
X66922Y-10106D01*
X66878Y-10117D01*
X66832Y-10125D01*
X66780Y-10136D01*
X66720Y-10144D01*
X66657Y-10152D01*
X66589Y-10158D01*
X66515Y-10163D01*
X66436Y-10169D01*
X66351D01*
X66346D01*
X66329D01*
X66305D01*
X66272Y-10166D01*
X66231D01*
X66182Y-10163D01*
X66130Y-10160D01*
X66073Y-10155D01*
X66013Y-10150D01*
X65950Y-10144D01*
X65822Y-10125D01*
X65696Y-10098D01*
X65639Y-10081D01*
X65581Y-10062D01*
X65579D01*
X65568Y-10057D01*
X65554Y-10051D01*
X65535Y-10043D01*
X65510Y-10032D01*
X65483Y-10018D01*
X65453Y-10002D01*
X65420Y-9986D01*
X65352Y-9942D01*
X65278Y-9888D01*
X65210Y-9825D01*
X65177Y-9789D01*
X65147Y-9751D01*
X65145Y-9748D01*
X65142Y-9743D01*
X65134Y-9729D01*
X65126Y-9715D01*
X65115Y-9694D01*
X65101Y-9672D01*
X65087Y-9645D01*
X65074Y-9612D01*
X65060Y-9579D01*
X65046Y-9541D01*
X65035Y-9503D01*
X65022Y-9459D01*
X65005Y-9366D01*
X65003Y-9317D01*
X65000Y-9265D01*
Y-9238D01*
X65003Y-9216D01*
X65005Y-9191D01*
X65008Y-9161D01*
X65014Y-9128D01*
X65022Y-9093D01*
X65041Y-9017D01*
X65055Y-8978D01*
X65068Y-8937D01*
X65087Y-8896D01*
X65109Y-8856D01*
X65134Y-8817D01*
X65164Y-8782D01*
X65166Y-8779D01*
X65172Y-8774D01*
X65180Y-8765D01*
X65194Y-8752D01*
X65210Y-8738D01*
X65232Y-8722D01*
X65257Y-8703D01*
X65284Y-8683D01*
X65314Y-8664D01*
X65349Y-8645D01*
X65388Y-8629D01*
X65429Y-8610D01*
X65472Y-8593D01*
X65519Y-8580D01*
X65570Y-8569D01*
X65625Y-8561D01*
X65650Y-8858D01*
X65647D01*
X65641Y-8861D01*
X65631D01*
X65614Y-8867D01*
X65598Y-8869D01*
X65579Y-8875D01*
X65532Y-8888D01*
X65483Y-8907D01*
X65434Y-8932D01*
X65388Y-8965D01*
X65366Y-8981D01*
X65347Y-9000D01*
X65344Y-9006D01*
X65333Y-9019D01*
X65317Y-9044D01*
X65300Y-9074D01*
X65284Y-9115D01*
X65267Y-9161D01*
X65257Y-9213D01*
X65254Y-9273D01*
Y-9298D01*
X65257Y-9325D01*
X65262Y-9358D01*
X65270Y-9396D01*
X65281Y-9437D01*
X65295Y-9481D01*
X65317Y-9522D01*
X65319Y-9527D01*
X65328Y-9541D01*
X65344Y-9560D01*
X65363Y-9584D01*
X65388Y-9612D01*
X65418Y-9642D01*
X65453Y-9672D01*
X65491Y-9699D01*
X65497Y-9702D01*
X65510Y-9710D01*
X65535Y-9724D01*
X65570Y-9740D01*
X65611Y-9756D01*
X65661Y-9775D01*
X65721Y-9795D01*
X65786Y-9814D01*
X65789D01*
X65794Y-9816D01*
X65805Y-9819D01*
X65819Y-9822D01*
X65835Y-9825D01*
X65854Y-9827D01*
X65879Y-9833D01*
X65904Y-9838D01*
X65961Y-9847D01*
X66024Y-9852D01*
X66092Y-9857D01*
X66163Y-9860D01*
X66168D01*
X66179D01*
X66198D01*
X66223D01*
X66220Y-9855D01*
X66212Y-9852D01*
X66201Y-9844D01*
X66174Y-9822D01*
X66141Y-9795D01*
X66103Y-9756D01*
X66062Y-9713D01*
X66024Y-9664D01*
X65986Y-9606D01*
Y-9604D01*
X65983Y-9598D01*
X65977Y-9590D01*
X65972Y-9579D01*
X65964Y-9563D01*
X65958Y-9546D01*
X65942Y-9503D01*
X65923Y-9451D01*
X65909Y-9391D01*
X65898Y-9325D01*
X65895Y-9257D01*
Y-9243D01*
X65898Y-9227D01*
Y-9205D01*
X65904Y-9178D01*
X65906Y-9148D01*
X65914Y-9112D01*
X65923Y-9074D01*
X65936Y-9033D01*
X65950Y-8992D01*
X65969Y-8948D01*
X65991Y-8905D01*
X66015Y-8858D01*
X66045Y-8815D01*
X66081Y-8771D01*
X66119Y-8730D01*
X66122Y-8727D01*
X66130Y-8722D01*
X66144Y-8711D01*
X66160Y-8697D01*
X66182Y-8681D01*
X66209Y-8662D01*
X66242Y-8643D01*
X66280Y-8624D01*
X66319Y-8602D01*
X66365Y-8583D01*
X66414Y-8563D01*
X66466Y-8547D01*
X66523Y-8533D01*
X66586Y-8523D01*
X66649Y-8517D01*
X66717Y-8514D01*
X66723D01*
X66733D01*
X66755Y-8517D01*
D02*
G37*
%LPC*%
G36*
X63089Y-16752D02*
X63086D01*
X63081D01*
X63073D01*
X63059Y-16755D01*
X63029Y-16757D01*
X62988Y-16765D01*
X62944Y-16779D01*
X62895Y-16801D01*
X62849Y-16831D01*
X62824Y-16847D01*
X62802Y-16869D01*
X62800D01*
X62797Y-16875D01*
X62783Y-16891D01*
X62764Y-16916D01*
X62742Y-16951D01*
X62723Y-16992D01*
X62704Y-17044D01*
X62691Y-17101D01*
X62685Y-17131D01*
Y-17180D01*
X62688Y-17194D01*
Y-17208D01*
X62691Y-17227D01*
X62699Y-17268D01*
X62712Y-17314D01*
X62734Y-17363D01*
X62761Y-17412D01*
X62800Y-17459D01*
X62805Y-17464D01*
X62819Y-17478D01*
X62843Y-17494D01*
X62876Y-17516D01*
X62914Y-17538D01*
X62961Y-17554D01*
X63013Y-17568D01*
X63070Y-17573D01*
X63073D01*
X63078D01*
X63086D01*
X63100Y-17571D01*
X63116D01*
X63133Y-17568D01*
X63174Y-17560D01*
X63220Y-17546D01*
X63269Y-17527D01*
X63318Y-17500D01*
X63362Y-17462D01*
X63367Y-17456D01*
X63378Y-17440D01*
X63398Y-17415D01*
X63417Y-17380D01*
X63438Y-17339D01*
X63458Y-17287D01*
X63468Y-17227D01*
X63474Y-17161D01*
Y-17145D01*
X63471Y-17131D01*
Y-17115D01*
X63468Y-17098D01*
X63460Y-17057D01*
X63447Y-17011D01*
X63428Y-16962D01*
X63400Y-16913D01*
X63362Y-16866D01*
X63357Y-16861D01*
X63343Y-16847D01*
X63318Y-16831D01*
X63286Y-16809D01*
X63247Y-16787D01*
X63198Y-16771D01*
X63146Y-16757D01*
X63089Y-16752D01*
D02*
G37*
G36*
X64244Y-16648D02*
X64241D01*
X64233D01*
X64222D01*
X64206Y-16651D01*
X64187Y-16654D01*
X64165Y-16656D01*
X64113Y-16667D01*
X64056Y-16683D01*
X63993Y-16711D01*
X63963Y-16727D01*
X63933Y-16749D01*
X63903Y-16771D01*
X63875Y-16798D01*
X63873Y-16801D01*
X63870Y-16804D01*
X63862Y-16812D01*
X63853Y-16826D01*
X63840Y-16839D01*
X63829Y-16856D01*
X63815Y-16877D01*
X63802Y-16899D01*
X63774Y-16954D01*
X63750Y-17017D01*
X63733Y-17090D01*
X63731Y-17129D01*
X63728Y-17169D01*
Y-17191D01*
X63731Y-17205D01*
X63733Y-17224D01*
X63736Y-17246D01*
X63747Y-17298D01*
X63763Y-17355D01*
X63788Y-17415D01*
X63804Y-17445D01*
X63823Y-17475D01*
X63848Y-17505D01*
X63873Y-17533D01*
X63875Y-17535D01*
X63878Y-17538D01*
X63886Y-17546D01*
X63897Y-17554D01*
X63914Y-17565D01*
X63930Y-17576D01*
X63949Y-17590D01*
X63971Y-17604D01*
X64023Y-17631D01*
X64086Y-17653D01*
X64157Y-17669D01*
X64192Y-17672D01*
X64233Y-17674D01*
X64236D01*
X64238D01*
X64255D01*
X64282Y-17672D01*
X64315Y-17666D01*
X64353Y-17661D01*
X64397Y-17650D01*
X64443Y-17634D01*
X64490Y-17614D01*
X64495Y-17612D01*
X64509Y-17604D01*
X64533Y-17587D01*
X64561Y-17568D01*
X64591Y-17541D01*
X64621Y-17511D01*
X64653Y-17472D01*
X64681Y-17429D01*
Y-17426D01*
X64683Y-17423D01*
X64692Y-17407D01*
X64702Y-17382D01*
X64713Y-17347D01*
X64724Y-17309D01*
X64735Y-17262D01*
X64743Y-17213D01*
X64746Y-17161D01*
Y-17139D01*
X64743Y-17123D01*
X64741Y-17104D01*
X64738Y-17082D01*
X64727Y-17030D01*
X64711Y-16973D01*
X64686Y-16910D01*
X64670Y-16880D01*
X64651Y-16850D01*
X64629Y-16820D01*
X64604Y-16793D01*
X64601Y-16790D01*
X64599Y-16787D01*
X64591Y-16779D01*
X64580Y-16771D01*
X64563Y-16760D01*
X64547Y-16746D01*
X64528Y-16733D01*
X64506Y-16719D01*
X64454Y-16694D01*
X64391Y-16670D01*
X64323Y-16654D01*
X64285Y-16651D01*
X64244Y-16648D01*
D02*
G37*
G36*
X-10030Y-53581D02*
X-11165D01*
X-10030Y-54376D01*
Y-53581D01*
D02*
G37*
G36*
X66706Y-8831D02*
X66703D01*
X66695D01*
X66684D01*
X66665Y-8834D01*
X66646Y-8836D01*
X66622Y-8839D01*
X66567Y-8850D01*
X66504Y-8867D01*
X66441Y-8891D01*
X66409Y-8907D01*
X66376Y-8926D01*
X66346Y-8948D01*
X66316Y-8973D01*
X66313Y-8976D01*
X66310Y-8978D01*
X66302Y-8987D01*
X66294Y-9000D01*
X66283Y-9014D01*
X66269Y-9030D01*
X66256Y-9049D01*
X66242Y-9071D01*
X66215Y-9126D01*
X66190Y-9186D01*
X66174Y-9257D01*
X66171Y-9295D01*
X66168Y-9333D01*
Y-9355D01*
X66171Y-9369D01*
X66174Y-9388D01*
X66177Y-9407D01*
X66188Y-9456D01*
X66204Y-9514D01*
X66231Y-9571D01*
X66248Y-9601D01*
X66267Y-9631D01*
X66291Y-9658D01*
X66316Y-9685D01*
X66319Y-9688D01*
X66324Y-9691D01*
X66332Y-9699D01*
X66343Y-9707D01*
X66360Y-9718D01*
X66379Y-9729D01*
X66400Y-9743D01*
X66425Y-9756D01*
X66452Y-9767D01*
X66485Y-9781D01*
X66518Y-9792D01*
X66556Y-9803D01*
X66597Y-9811D01*
X66638Y-9819D01*
X66684Y-9822D01*
X66733Y-9825D01*
X66736D01*
X66744D01*
X66758D01*
X66777Y-9822D01*
X66799Y-9819D01*
X66826Y-9816D01*
X66854Y-9814D01*
X66886Y-9808D01*
X66952Y-9789D01*
X67023Y-9765D01*
X67058Y-9748D01*
X67091Y-9729D01*
X67124Y-9707D01*
X67154Y-9683D01*
X67157Y-9680D01*
X67162Y-9677D01*
X67168Y-9669D01*
X67178Y-9658D01*
X67189Y-9645D01*
X67203Y-9628D01*
X67233Y-9587D01*
X67263Y-9538D01*
X67288Y-9478D01*
X67299Y-9448D01*
X67307Y-9412D01*
X67309Y-9377D01*
X67312Y-9341D01*
Y-9322D01*
X67309Y-9306D01*
X67307Y-9290D01*
X67304Y-9268D01*
X67290Y-9219D01*
X67271Y-9161D01*
X67258Y-9131D01*
X67241Y-9101D01*
X67222Y-9071D01*
X67198Y-9041D01*
X67173Y-9011D01*
X67143Y-8981D01*
X67140Y-8978D01*
X67135Y-8976D01*
X67127Y-8968D01*
X67113Y-8957D01*
X67097Y-8946D01*
X67075Y-8935D01*
X67053Y-8921D01*
X67026Y-8907D01*
X66996Y-8891D01*
X66963Y-8877D01*
X66927Y-8867D01*
X66886Y-8856D01*
X66802Y-8836D01*
X66755Y-8834D01*
X66706Y-8831D01*
D02*
G37*
%LPD*%
D10*
X62638Y-25224D02*
X67362D01*
Y-15776D01*
X62638D02*
X67362D01*
X62638Y-25224D02*
Y-15776D01*
X-27559Y-79921D02*
Y-34252D01*
X7874D01*
Y-79921D02*
Y-34252D01*
X-27559Y-79921D02*
X7874D01*
X11811D02*
Y-34252D01*
X47244D01*
Y-79921D02*
Y-34252D01*
X11811Y-79921D02*
X47244D01*
X67362Y-10724D02*
Y-1276D01*
X62638Y-10724D02*
X67362D01*
X62638D02*
Y-1276D01*
X67362D01*
M02*
