G04*
G04 #@! TF.GenerationSoftware,Altium Limited,Altium Designer,20.1.14 (287)*
G04*
G04 Layer_Physical_Order=2*
G04 Layer_Color=16711680*
%FSLAX25Y25*%
%MOIN*%
G70*
G04*
G04 #@! TF.SameCoordinates,7F5ADFAE-F052-4B02-90E5-093173F2D11D*
G04*
G04*
G04 #@! TF.FilePolarity,Positive*
G04*
G01*
G75*
%ADD14C,0.01000*%
%ADD48R,0.01772X0.03347*%
%ADD54R,0.03347X0.02953*%
%ADD55C,0.04000*%
%ADD56R,0.05906X0.05906*%
%ADD57C,0.05906*%
%ADD58R,0.05906X0.05906*%
%ADD59R,0.04000X0.04000*%
%ADD60C,0.04000*%
%ADD61C,0.05000*%
%ADD62C,0.20000*%
%ADD63C,0.03000*%
%ADD64R,0.04331X0.04331*%
%ADD65R,0.02559X0.05158*%
%ADD66C,0.02000*%
G36*
X62000Y80500D02*
X79500Y63000D01*
Y13624D01*
X79038Y13432D01*
X78662Y13809D01*
X78790Y14784D01*
X78654Y15815D01*
X78256Y16777D01*
X77622Y17603D01*
X76797Y18236D01*
X75835Y18634D01*
X74803Y18770D01*
X73771Y18634D01*
X72810Y18236D01*
X71984Y17603D01*
X71350Y16777D01*
X70952Y15815D01*
X70816Y14784D01*
X70831Y14672D01*
X70382Y14451D01*
X53392Y31442D01*
X52730Y31884D01*
X51950Y32039D01*
X49000D01*
X48220Y31884D01*
X47558Y31442D01*
X42431Y26315D01*
X41970Y26561D01*
X42029Y26858D01*
Y29015D01*
X42302Y29198D01*
X42855Y30024D01*
X43049Y31000D01*
X42855Y31975D01*
X42302Y32802D01*
X41475Y33355D01*
X40500Y33549D01*
X39524Y33355D01*
X38698Y32802D01*
X38145Y31975D01*
X37951Y31000D01*
X38145Y30024D01*
X38698Y29198D01*
X38971Y29015D01*
Y27492D01*
X37912Y26433D01*
X37434Y26579D01*
X37355Y26976D01*
X36802Y27802D01*
X35976Y28355D01*
X35000Y28549D01*
X34025Y28355D01*
X33198Y27802D01*
X32645Y26976D01*
X32451Y26000D01*
X32645Y25025D01*
X33120Y24314D01*
X32838Y23882D01*
X32000Y24049D01*
X31386Y23927D01*
X31086Y24377D01*
X31245Y24615D01*
X31439Y25591D01*
X31245Y26566D01*
X30692Y27393D01*
X29865Y27946D01*
X28890Y28139D01*
X27914Y27946D01*
X27087Y27393D01*
X26535Y26566D01*
X26341Y25591D01*
X26535Y24615D01*
X27087Y23788D01*
X27360Y23606D01*
Y18749D01*
X27477Y18164D01*
X27808Y17668D01*
X27998Y17478D01*
Y11661D01*
X23822Y7485D01*
X23500Y7549D01*
X22524Y7355D01*
X21698Y6802D01*
X21145Y5976D01*
X20951Y5000D01*
X21145Y4025D01*
X21698Y3198D01*
X22524Y2645D01*
X23500Y2451D01*
X24475Y2645D01*
X25302Y3198D01*
X25855Y4025D01*
X26049Y5000D01*
X25985Y5322D01*
X30009Y9346D01*
X30471Y9154D01*
Y7633D01*
X23419Y581D01*
X23087Y85D01*
X22971Y-500D01*
Y-1515D01*
X22698Y-1698D01*
X22145Y-2524D01*
X21951Y-3500D01*
X22083Y-4161D01*
X21661Y-4583D01*
X21000Y-4451D01*
X20024Y-4645D01*
X19955Y-4692D01*
X19514Y-4456D01*
Y38516D01*
X19397Y39101D01*
X19066Y39597D01*
X15985Y42678D01*
X16049Y43000D01*
X15855Y43975D01*
X15302Y44802D01*
X14476Y45355D01*
X13500Y45549D01*
X12525Y45355D01*
X11698Y44802D01*
X11145Y43975D01*
X10951Y43000D01*
X11145Y42024D01*
X11698Y41198D01*
X12525Y40645D01*
X13229Y40505D01*
Y39995D01*
X12525Y39855D01*
X11698Y39302D01*
X11145Y38475D01*
X10951Y37500D01*
X11145Y36525D01*
X11698Y35698D01*
X12525Y35145D01*
X13500Y34951D01*
X13822Y35015D01*
X14471Y34367D01*
Y29054D01*
X14030Y28819D01*
X13975Y28855D01*
X13500Y28949D01*
Y26500D01*
Y24050D01*
X13975Y24145D01*
X14030Y24181D01*
X14471Y23946D01*
Y-10035D01*
X14587Y-10621D01*
X14919Y-11117D01*
X20383Y-16581D01*
X20879Y-16913D01*
X21464Y-17029D01*
X37462D01*
X38047Y-16913D01*
X38543Y-16581D01*
X39095Y-16029D01*
X39709D01*
X39976Y-16529D01*
X39645Y-17025D01*
X39451Y-18000D01*
X39645Y-18975D01*
X40198Y-19802D01*
X41025Y-20355D01*
X42000Y-20549D01*
X42226Y-20504D01*
X42526Y-20954D01*
X42145Y-21524D01*
X41951Y-22500D01*
X42145Y-23475D01*
X42698Y-24302D01*
X43525Y-24855D01*
X44500Y-25049D01*
X45476Y-24855D01*
X45948Y-24539D01*
X67520D01*
X68300Y-24384D01*
X68962Y-23942D01*
X73734Y-19169D01*
X78756D01*
Y-11264D01*
X78756Y-11264D01*
X78756D01*
X79058Y-10907D01*
X79068Y-10896D01*
X79500Y-11075D01*
Y-26842D01*
X79000Y-26993D01*
X78802Y-26698D01*
X77975Y-26145D01*
X77080Y-25967D01*
X76671Y-25558D01*
X76010Y-25116D01*
X75229Y-24961D01*
X71448D01*
X70976Y-24645D01*
X70000Y-24451D01*
X69024Y-24645D01*
X68198Y-25198D01*
X67645Y-26024D01*
X67451Y-27000D01*
X67645Y-27975D01*
X68198Y-28802D01*
X69024Y-29355D01*
X70000Y-29549D01*
X70976Y-29355D01*
X71448Y-29039D01*
X74385D01*
X74601Y-29256D01*
X74645Y-29476D01*
X75198Y-30302D01*
X76025Y-30855D01*
X77000Y-31049D01*
X77975Y-30855D01*
X78802Y-30302D01*
X79000Y-30007D01*
X79500Y-30158D01*
Y-62000D01*
X79000D01*
X61000Y-80000D01*
X-61500D01*
X-80000Y-61500D01*
Y20044D01*
X-79500Y20251D01*
X-78211Y18962D01*
X-77715Y18630D01*
X-77130Y18514D01*
X-74235D01*
X-73989Y18014D01*
X-74319Y17584D01*
X-74717Y16622D01*
X-74853Y15590D01*
X-74717Y14559D01*
X-74319Y13597D01*
X-73685Y12771D01*
X-72860Y12138D01*
X-71898Y11739D01*
X-70866Y11604D01*
X-69834Y11739D01*
X-68873Y12138D01*
X-68214Y12643D01*
X-57890D01*
Y12583D01*
X-51559D01*
Y18514D01*
X-50803D01*
Y12583D01*
X-44472D01*
Y14219D01*
X-34255D01*
X-10035Y-10001D01*
Y-14996D01*
X-5476D01*
X-5476Y-14996D01*
X-5035D01*
Y-14996D01*
X-4976Y-14996D01*
X-476D01*
X-476Y-14996D01*
X-35D01*
Y-14996D01*
X24Y-14996D01*
X4524D01*
X4524Y-14996D01*
X4965D01*
Y-14996D01*
X5024Y-14996D01*
X9524D01*
Y-7839D01*
X6612D01*
X6474Y-7811D01*
X5952Y-7289D01*
X5905Y-7219D01*
X5144Y-6457D01*
X5073Y-6410D01*
X-8281Y6944D01*
X-8089Y7406D01*
X-5536D01*
X-5476Y7406D01*
X-5035D01*
X-4976Y7406D01*
X-3256D01*
Y10984D01*
Y14563D01*
X-4976D01*
X-5035Y14563D01*
X-5476D01*
X-5536Y14563D01*
X-6227D01*
Y20844D01*
X-5698Y21198D01*
X-5145Y22025D01*
X-4951Y23000D01*
X-5145Y23976D01*
X-5698Y24802D01*
X-6525Y25355D01*
X-7500Y25549D01*
X-8475Y25355D01*
X-9302Y24802D01*
X-9855Y23976D01*
X-10049Y23000D01*
X-9855Y22025D01*
X-9302Y21198D01*
X-9285Y21186D01*
Y14563D01*
X-10035D01*
Y9352D01*
X-10497Y9160D01*
X-11471Y10133D01*
Y16515D01*
X-11198Y16698D01*
X-10645Y17525D01*
X-10451Y18500D01*
X-10645Y19476D01*
X-11198Y20302D01*
X-12025Y20855D01*
X-13000Y21049D01*
X-13975Y20855D01*
X-14802Y20302D01*
X-15355Y19476D01*
X-15549Y18500D01*
X-15355Y17525D01*
X-14802Y16698D01*
X-14529Y16515D01*
Y9525D01*
X-14586Y9474D01*
X-14997Y9285D01*
X-32383Y26672D01*
X-32879Y27003D01*
X-33465Y27120D01*
X-44472D01*
Y28756D01*
X-49083D01*
X-49290Y29256D01*
X-48222Y30324D01*
X-47890Y30820D01*
X-47774Y31405D01*
Y32268D01*
X-44472D01*
Y38598D01*
X-50803D01*
Y33915D01*
X-50832Y33768D01*
Y32039D01*
X-51299Y31573D01*
X-66440D01*
X-66913Y31638D01*
X-66913Y32132D01*
X-66560Y32486D01*
X-57890D01*
Y32268D01*
X-51559D01*
Y38598D01*
X-57890D01*
Y38538D01*
X-66913D01*
Y39543D01*
X-74819D01*
X-74819Y31638D01*
X-75292Y31573D01*
X-76256D01*
X-76841Y31456D01*
X-77337Y31125D01*
X-79500Y28962D01*
X-80000Y29169D01*
Y62500D01*
X-61500Y81000D01*
X24712D01*
X24863Y80500D01*
X24785Y80448D01*
X15567Y71230D01*
X15017Y71120D01*
X14529Y70795D01*
X14029Y71062D01*
Y74515D01*
X14302Y74698D01*
X14855Y75524D01*
X15049Y76500D01*
X14855Y77476D01*
X14302Y78302D01*
X13476Y78855D01*
X12500Y79049D01*
X11525Y78855D01*
X10698Y78302D01*
X10145Y77476D01*
X10008Y76787D01*
X2110D01*
Y69604D01*
X1648Y69412D01*
X-278Y71339D01*
X-86Y71803D01*
X50Y72835D01*
X-86Y73866D01*
X-484Y74828D01*
X-1118Y75654D01*
X-1944Y76287D01*
X-2905Y76686D01*
X-3937Y76822D01*
X-4969Y76686D01*
X-5930Y76287D01*
X-6756Y75654D01*
X-7390Y74828D01*
X-7788Y73866D01*
X-7924Y72835D01*
X-7788Y71803D01*
X-7390Y70841D01*
X-6756Y70016D01*
X-5930Y69382D01*
X-4969Y68984D01*
X-3937Y68848D01*
X-2905Y68984D01*
X-2441Y69176D01*
X23316Y43419D01*
X23812Y43087D01*
X24398Y42971D01*
X49594D01*
X49706Y42642D01*
X49734Y42471D01*
X49193Y41765D01*
X48840Y40914D01*
X48720Y40000D01*
X48840Y39086D01*
X49193Y38235D01*
X49754Y37504D01*
X50485Y36943D01*
X51336Y36590D01*
X52250Y36470D01*
X53164Y36590D01*
X53537Y36745D01*
X53891Y36391D01*
X54387Y36059D01*
X54972Y35943D01*
X60129D01*
X60715Y36059D01*
X61211Y36391D01*
X66581Y41762D01*
X66913Y42258D01*
X67029Y42843D01*
Y46157D01*
X66913Y46742D01*
X66581Y47238D01*
X63926Y49894D01*
X64073Y50443D01*
X64433Y50530D01*
X66033Y51192D01*
X67509Y52097D01*
X68826Y53221D01*
X69950Y54538D01*
X70855Y56014D01*
X71518Y57614D01*
X71922Y59298D01*
X72058Y61024D01*
X71922Y62750D01*
X71518Y64433D01*
X70855Y66033D01*
X69950Y67509D01*
X68826Y68826D01*
X67509Y69950D01*
X66033Y70855D01*
X64433Y71518D01*
X62750Y71922D01*
X61024Y72058D01*
X59298Y71922D01*
X57614Y71518D01*
X56014Y70855D01*
X54538Y69950D01*
X53221Y68826D01*
X52097Y67509D01*
X51192Y66033D01*
X50530Y64433D01*
X50125Y62750D01*
X49990Y61024D01*
X50125Y59298D01*
X50530Y57614D01*
X51192Y56014D01*
X52097Y54538D01*
X53221Y53221D01*
X54538Y52097D01*
X56014Y51192D01*
X56407Y51029D01*
X56308Y50529D01*
X23633D01*
X7592Y66571D01*
Y68882D01*
X10016D01*
Y74818D01*
X10516Y74970D01*
X10698Y74698D01*
X10971Y74515D01*
Y68015D01*
X11087Y67429D01*
X11419Y66933D01*
X13668Y64684D01*
X14164Y64352D01*
X14750Y64236D01*
X18265D01*
X18850Y64352D01*
X19347Y64684D01*
X21678Y67015D01*
X22000Y66951D01*
X22975Y67145D01*
X23802Y67698D01*
X23907Y67854D01*
X24402Y67866D01*
X24402Y67866D01*
X24402Y67866D01*
X26902D01*
Y70866D01*
X27902D01*
Y67866D01*
X30402D01*
Y68054D01*
X30850Y68275D01*
X30889Y68246D01*
X31618Y67943D01*
X32402Y67840D01*
X33185Y67943D01*
X33915Y68246D01*
X34541Y68726D01*
X34652Y68870D01*
X35152D01*
X35262Y68726D01*
X35889Y68246D01*
X36618Y67943D01*
X37402Y67840D01*
X38185Y67943D01*
X38914Y68246D01*
X39541Y68726D01*
X39652Y68870D01*
X40152D01*
X40262Y68726D01*
X40889Y68246D01*
X41618Y67943D01*
X42402Y67840D01*
X43185Y67943D01*
X43914Y68246D01*
X44541Y68726D01*
X44652Y68870D01*
X45152D01*
X45262Y68726D01*
X45889Y68246D01*
X46618Y67943D01*
X47402Y67840D01*
X48185Y67943D01*
X48915Y68246D01*
X49541Y68726D01*
X50022Y69353D01*
X50324Y70083D01*
X50428Y70866D01*
X50324Y71649D01*
X50022Y72379D01*
X49541Y73006D01*
X49397Y73116D01*
Y73616D01*
X49541Y73726D01*
X50022Y74353D01*
X50324Y75083D01*
X50428Y75866D01*
X50324Y76649D01*
X50022Y77379D01*
X49541Y78006D01*
X48915Y78487D01*
X48185Y78789D01*
X47402Y78892D01*
X46618Y78789D01*
X45889Y78487D01*
X45262Y78006D01*
X45152Y77862D01*
X44652D01*
X44541Y78006D01*
X43914Y78487D01*
X43185Y78789D01*
X42402Y78892D01*
X41618Y78789D01*
X40889Y78487D01*
X40262Y78006D01*
X40152Y77862D01*
X39652D01*
X39541Y78006D01*
X38914Y78487D01*
X38185Y78789D01*
X37402Y78892D01*
X36618Y78789D01*
X35889Y78487D01*
X35262Y78006D01*
X35152Y77862D01*
X34652D01*
X34541Y78006D01*
X33915Y78487D01*
X33185Y78789D01*
X32402Y78892D01*
X31639Y78792D01*
X29983Y80448D01*
X29905Y80500D01*
X30056Y81000D01*
X62000D01*
Y80500D01*
D02*
G37*
%LPC*%
G36*
X-61024Y72058D02*
X-62750Y71922D01*
X-64433Y71518D01*
X-66033Y70855D01*
X-67509Y69950D01*
X-68826Y68826D01*
X-69950Y67509D01*
X-70855Y66033D01*
X-71518Y64433D01*
X-71922Y62750D01*
X-72058Y61024D01*
X-71922Y59298D01*
X-71518Y57614D01*
X-70855Y56014D01*
X-69950Y54538D01*
X-68826Y53221D01*
X-67509Y52097D01*
X-66033Y51192D01*
X-64433Y50530D01*
X-62750Y50125D01*
X-61024Y49990D01*
X-59298Y50125D01*
X-57614Y50530D01*
X-56014Y51192D01*
X-54538Y52097D01*
X-53221Y53221D01*
X-52097Y54538D01*
X-51192Y56014D01*
X-50530Y57614D01*
X-50125Y59298D01*
X-49990Y61024D01*
X-50125Y62750D01*
X-50530Y64433D01*
X-51192Y66033D01*
X-52097Y67509D01*
X-53221Y68826D01*
X-54538Y69950D01*
X-56014Y70855D01*
X-57614Y71518D01*
X-59298Y71922D01*
X-61024Y72058D01*
D02*
G37*
G36*
X-4500Y41949D02*
Y40000D01*
X-2551D01*
X-2645Y40475D01*
X-3198Y41302D01*
X-4025Y41855D01*
X-4500Y41949D01*
D02*
G37*
G36*
X-5500D02*
X-5976Y41855D01*
X-6802Y41302D01*
X-7355Y40475D01*
X-7450Y40000D01*
X-5500D01*
Y41949D01*
D02*
G37*
G36*
X-2551Y39000D02*
X-4500D01*
Y37051D01*
X-4025Y37145D01*
X-3198Y37698D01*
X-2645Y38524D01*
X-2551Y39000D01*
D02*
G37*
G36*
X-5500D02*
X-7450D01*
X-7355Y38524D01*
X-6802Y37698D01*
X-5976Y37145D01*
X-5500Y37051D01*
Y39000D01*
D02*
G37*
G36*
X-3035Y34169D02*
X-4421D01*
Y31996D01*
X-3035D01*
Y34169D01*
D02*
G37*
G36*
X-5421D02*
X-6807D01*
Y31996D01*
X-5421D01*
Y34169D01*
D02*
G37*
G36*
X-26500Y33450D02*
Y31500D01*
X-24551D01*
X-24645Y31975D01*
X-25198Y32802D01*
X-26024Y33355D01*
X-26500Y33450D01*
D02*
G37*
G36*
X-27500D02*
X-27975Y33355D01*
X-28802Y32802D01*
X-29355Y31975D01*
X-29449Y31500D01*
X-27500D01*
Y33450D01*
D02*
G37*
G36*
X-3035Y30996D02*
X-4421D01*
Y28823D01*
X-3035D01*
Y30996D01*
D02*
G37*
G36*
X-5421D02*
X-6807D01*
Y28823D01*
X-5421D01*
Y30996D01*
D02*
G37*
G36*
X-24551Y30500D02*
X-26500D01*
Y28550D01*
X-26024Y28645D01*
X-25198Y29198D01*
X-24645Y30024D01*
X-24551Y30500D01*
D02*
G37*
G36*
X-27500D02*
X-29449D01*
X-29355Y30024D01*
X-28802Y29198D01*
X-27975Y28645D01*
X-27500Y28550D01*
Y30500D01*
D02*
G37*
G36*
X12500Y28949D02*
X12025Y28855D01*
X11198Y28302D01*
X10645Y27476D01*
X10550Y27000D01*
X12500D01*
Y28949D01*
D02*
G37*
G36*
Y26000D02*
X10550D01*
X10645Y25525D01*
X11198Y24698D01*
X12025Y24145D01*
X12500Y24050D01*
Y26000D01*
D02*
G37*
G36*
X2870Y34169D02*
X-902D01*
Y28823D01*
X-545D01*
Y25148D01*
X-429Y24562D01*
X-402Y24522D01*
X-581Y23622D01*
X-386Y22647D01*
X166Y21820D01*
X577Y21545D01*
Y14563D01*
X24D01*
X-35Y14563D01*
X-476D01*
X-535Y14563D01*
X-2256D01*
Y10984D01*
Y7406D01*
X-535D01*
X-476Y7406D01*
X-35D01*
X24Y7406D01*
X4465D01*
X4524Y7406D01*
X4965D01*
X5024Y7406D01*
X9524D01*
Y14563D01*
X8773D01*
Y17678D01*
X8802Y17698D01*
X9355Y18525D01*
X9549Y19500D01*
X9355Y20475D01*
X8802Y21302D01*
X7975Y21855D01*
X7000Y22049D01*
X6024Y21855D01*
X5198Y21302D01*
X4645Y20475D01*
X4451Y19500D01*
X4645Y18525D01*
X5198Y17698D01*
X5715Y17352D01*
Y14563D01*
X5024D01*
X4965Y14563D01*
X4524D01*
X4465Y14563D01*
X3636D01*
Y21729D01*
X3771Y21820D01*
X4323Y22647D01*
X4518Y23622D01*
X4323Y24598D01*
X3771Y25424D01*
X2944Y25977D01*
X2514Y26063D01*
Y28823D01*
X2870D01*
Y34169D01*
D02*
G37*
G36*
X-66429Y3464D02*
Y500D01*
X-63465D01*
X-63519Y914D01*
X-63872Y1765D01*
X-64433Y2496D01*
X-65164Y3057D01*
X-66015Y3410D01*
X-66429Y3464D01*
D02*
G37*
G36*
X-67429D02*
X-67843Y3410D01*
X-68694Y3057D01*
X-69425Y2496D01*
X-69986Y1765D01*
X-70339Y914D01*
X-70394Y500D01*
X-67429D01*
Y3464D01*
D02*
G37*
G36*
X-63465Y-500D02*
X-66429D01*
Y-3464D01*
X-66015Y-3410D01*
X-65164Y-3057D01*
X-64433Y-2496D01*
X-63872Y-1765D01*
X-63519Y-914D01*
X-63465Y-500D01*
D02*
G37*
G36*
X-67429D02*
X-70394D01*
X-70339Y-914D01*
X-69986Y-1765D01*
X-69425Y-2496D01*
X-68694Y-3057D01*
X-67843Y-3410D01*
X-67429Y-3464D01*
Y-500D01*
D02*
G37*
G36*
X19500Y-17051D02*
Y-19000D01*
X21450D01*
X21355Y-18525D01*
X20802Y-17698D01*
X19975Y-17145D01*
X19500Y-17051D01*
D02*
G37*
G36*
X18500D02*
X18024Y-17145D01*
X17198Y-17698D01*
X16645Y-18525D01*
X16551Y-19000D01*
X18500D01*
Y-17051D01*
D02*
G37*
G36*
X21450Y-20000D02*
X19500D01*
Y-21949D01*
X19975Y-21855D01*
X20802Y-21302D01*
X21355Y-20475D01*
X21450Y-20000D01*
D02*
G37*
G36*
X18500D02*
X16551D01*
X16645Y-20475D01*
X17198Y-21302D01*
X18024Y-21855D01*
X18500Y-21949D01*
Y-20000D01*
D02*
G37*
G36*
X-68882Y-27543D02*
X-76787D01*
Y-35449D01*
X-68882D01*
Y-27543D01*
D02*
G37*
G36*
X-72835Y-37509D02*
X-73866Y-37645D01*
X-74828Y-38043D01*
X-75654Y-38677D01*
X-76287Y-39503D01*
X-76686Y-40464D01*
X-76822Y-41496D01*
X-76686Y-42528D01*
X-76287Y-43490D01*
X-75654Y-44315D01*
X-74828Y-44949D01*
X-73866Y-45347D01*
X-72835Y-45483D01*
X-71803Y-45347D01*
X-70841Y-44949D01*
X-70016Y-44315D01*
X-69382Y-43490D01*
X-68984Y-42528D01*
X-68848Y-41496D01*
X-68984Y-40464D01*
X-69382Y-39503D01*
X-70016Y-38677D01*
X-70841Y-38043D01*
X-71803Y-37645D01*
X-72835Y-37509D01*
D02*
G37*
G36*
X61024Y-49990D02*
X59298Y-50125D01*
X57614Y-50530D01*
X56014Y-51192D01*
X54538Y-52097D01*
X53221Y-53221D01*
X52097Y-54538D01*
X51192Y-56014D01*
X50530Y-57614D01*
X50125Y-59298D01*
X49990Y-61024D01*
X50125Y-62750D01*
X50530Y-64433D01*
X51192Y-66033D01*
X52097Y-67509D01*
X53221Y-68826D01*
X54538Y-69950D01*
X56014Y-70855D01*
X57614Y-71518D01*
X59298Y-71922D01*
X61024Y-72058D01*
X62750Y-71922D01*
X64433Y-71518D01*
X66033Y-70855D01*
X67509Y-69950D01*
X68826Y-68826D01*
X69950Y-67509D01*
X70855Y-66033D01*
X71518Y-64433D01*
X71922Y-62750D01*
X72058Y-61024D01*
X71922Y-59298D01*
X71518Y-57614D01*
X70855Y-56014D01*
X69950Y-54538D01*
X68826Y-53221D01*
X67509Y-52097D01*
X66033Y-51192D01*
X64433Y-50530D01*
X62750Y-50125D01*
X61024Y-49990D01*
D02*
G37*
G36*
X-61024D02*
X-62750Y-50125D01*
X-64433Y-50530D01*
X-66033Y-51192D01*
X-67509Y-52097D01*
X-68826Y-53221D01*
X-69950Y-54538D01*
X-70855Y-56014D01*
X-71518Y-57614D01*
X-71922Y-59298D01*
X-72058Y-61024D01*
X-71922Y-62750D01*
X-71518Y-64433D01*
X-70855Y-66033D01*
X-69950Y-67509D01*
X-68826Y-68826D01*
X-67509Y-69950D01*
X-66033Y-70855D01*
X-64433Y-71518D01*
X-62750Y-71922D01*
X-61024Y-72058D01*
X-59298Y-71922D01*
X-57614Y-71518D01*
X-56014Y-70855D01*
X-54538Y-69950D01*
X-53221Y-68826D01*
X-52097Y-67509D01*
X-51192Y-66033D01*
X-50530Y-64433D01*
X-50125Y-62750D01*
X-49990Y-61024D01*
X-50125Y-59298D01*
X-50530Y-57614D01*
X-51192Y-56014D01*
X-52097Y-54538D01*
X-53221Y-53221D01*
X-54538Y-52097D01*
X-56014Y-51192D01*
X-57614Y-50530D01*
X-59298Y-50125D01*
X-61024Y-49990D01*
D02*
G37*
%LPD*%
D14*
X52250Y40000D02*
X52445D01*
X54972Y37472D01*
X60129D01*
X65500Y42843D01*
X23000Y49000D02*
X62657D01*
X65500Y46157D01*
X24398Y44500D02*
X61500D01*
X-3937Y72835D02*
X24398Y44500D01*
X65500Y42843D02*
Y46157D01*
X6063Y65937D02*
X23000Y49000D01*
X21464Y-15500D02*
X37462D01*
X16000Y-10035D02*
X21464Y-15500D01*
X22086Y-14000D02*
X27000D01*
X17984Y-9898D02*
X22086Y-14000D01*
X17984Y-9898D02*
Y38516D01*
X27000Y-14000D02*
X29500Y-11500D01*
X59000D01*
X16000Y-10035D02*
Y35000D01*
X37462Y-15500D02*
X38462Y-14500D01*
X55000D01*
X13500Y37500D02*
X16000Y35000D01*
X13500Y43000D02*
X17984Y38516D01*
X21000Y-7000D02*
X26500D01*
X24500Y-3500D02*
Y-500D01*
X7244Y10984D02*
Y19256D01*
X7000Y19500D02*
X7244Y19256D01*
X40500Y26858D02*
Y31000D01*
X38000Y24358D02*
X40500Y26858D01*
X38000Y14000D02*
Y24358D01*
Y14000D02*
X59000Y-7000D01*
X32000Y7000D02*
Y21500D01*
X26500Y-7000D02*
X35000Y1500D01*
Y26000D01*
X24500Y-500D02*
X32000Y7000D01*
X28890Y18749D02*
Y25591D01*
Y18749D02*
X29528Y18111D01*
X64803Y-8559D02*
X65000D01*
X59000Y-2756D02*
X64803Y-8559D01*
X59000Y-2756D02*
Y-2500D01*
X64803Y-3441D02*
X65000D01*
X59394Y1969D02*
X64803Y-3441D01*
X58862Y1969D02*
X59394D01*
X18265Y65765D02*
X22000Y69500D01*
X15992Y69492D02*
X25866Y79366D01*
X14750Y65765D02*
X18265D01*
X15992Y68765D02*
Y69492D01*
X12500Y68015D02*
X14750Y65765D01*
X12500Y68015D02*
Y76500D01*
X6063Y65937D02*
Y72835D01*
X25866Y79366D02*
X28902D01*
X32402Y75866D01*
X4824Y-8324D02*
Y-8300D01*
X4062Y-7539D02*
X4824Y-8300D01*
X-13000Y9500D02*
Y18500D01*
X6465Y-9339D02*
X7244Y-10118D01*
X4039Y-7539D02*
X4062D01*
X4824Y-8324D02*
X5839Y-9339D01*
X6465D01*
X7244Y-11417D02*
Y-10118D01*
X-13000Y9500D02*
X4039Y-7539D01*
X-7756Y22744D02*
X-7500Y23000D01*
X-7756Y10984D02*
Y22744D01*
X984Y25148D02*
Y31496D01*
Y25148D02*
X1969Y24163D01*
Y23622D02*
Y24163D01*
X23500Y5000D02*
X29528Y11028D01*
Y18111D01*
X1969Y23622D02*
X2106Y23484D01*
Y11122D02*
Y23484D01*
X-3347Y11575D02*
X-2756Y10984D01*
X2106Y11122D02*
X2244Y10984D01*
X-76256Y30043D02*
X-50665D01*
X-49303Y31405D02*
Y33768D01*
X-50665Y30043D02*
X-49303Y31405D01*
Y33768D02*
X-47638Y35433D01*
X-78740Y21654D02*
Y27559D01*
X-76256Y30043D01*
X-77130Y20043D02*
X-32917D01*
X-78740Y21654D02*
X-77130Y20043D01*
X-2756Y-11417D02*
Y-10118D01*
X-32917Y20043D02*
X-2756Y-10118D01*
X-47638Y25591D02*
X-33465D01*
X-33622Y15748D02*
X-7756Y-10118D01*
X-47638Y15748D02*
X-33622D01*
X-33465Y25591D02*
X2244Y-10118D01*
Y-11417D02*
Y-10118D01*
X-7756Y-11417D02*
Y-10118D01*
D48*
X-4921Y31496D02*
D03*
X984D02*
D03*
D54*
X65000Y-3441D02*
D03*
Y-8559D02*
D03*
D55*
X-70866Y15590D02*
X-70787Y15669D01*
X-54803D01*
X-54724Y15748D01*
X-70866Y25591D02*
X-54724D01*
X-54724Y25591D01*
X-70866Y35591D02*
X-70787Y35512D01*
X-54803D01*
X-54724Y35433D01*
D56*
X74803Y-15216D02*
D03*
X-72835Y-31496D02*
D03*
X-70866Y35591D02*
D03*
D57*
X74803Y-5217D02*
D03*
Y4783D02*
D03*
Y14784D02*
D03*
X-72835Y-41496D02*
D03*
X-3937Y72835D02*
D03*
X-70866Y15590D02*
D03*
Y25591D02*
D03*
D58*
X6063Y72835D02*
D03*
D59*
X27402Y70866D02*
D03*
D60*
X32402D02*
D03*
X37402D02*
D03*
X42402D02*
D03*
X47402D02*
D03*
X27402Y75866D02*
D03*
X32402D02*
D03*
X37402D02*
D03*
X42402D02*
D03*
X47402D02*
D03*
D61*
X52250Y40000D02*
D03*
X61500Y44500D02*
D03*
X-66929Y0D02*
D03*
D62*
X61024Y61024D02*
D03*
Y-61024D02*
D03*
X-61024D02*
D03*
Y61024D02*
D03*
D63*
X77000Y-28500D02*
D03*
X70000Y-27000D02*
D03*
X19000Y-19500D02*
D03*
X50500Y26500D02*
D03*
X21000Y-7000D02*
D03*
X24500Y-3500D02*
D03*
X7000Y19500D02*
D03*
X13000Y26500D02*
D03*
X32000Y21500D02*
D03*
X35000Y26000D02*
D03*
X40500Y31000D02*
D03*
X59000Y-7000D02*
D03*
Y-11500D02*
D03*
X58862Y1969D02*
D03*
X59000Y-2500D02*
D03*
X55000Y-14500D02*
D03*
X13500Y37500D02*
D03*
Y43000D02*
D03*
X15992Y68765D02*
D03*
X12500Y76500D02*
D03*
X22000Y69500D02*
D03*
X41000Y22000D02*
D03*
X44500Y-22500D02*
D03*
X42000Y-18000D02*
D03*
X-13000Y18500D02*
D03*
X-7500Y23000D02*
D03*
X-5000Y39500D02*
D03*
X-27000Y31000D02*
D03*
X23500Y5000D02*
D03*
X28890Y25591D02*
D03*
X1969Y23622D02*
D03*
D64*
X-54724Y25591D02*
D03*
X-47638D02*
D03*
X-54724Y35433D02*
D03*
X-47638D02*
D03*
Y15748D02*
D03*
X-54724D02*
D03*
D65*
X7244Y-11417D02*
D03*
X-7756D02*
D03*
X7244Y10984D02*
D03*
X-7756D02*
D03*
X-2756Y-11417D02*
D03*
Y10984D02*
D03*
X2244Y-11417D02*
D03*
Y10984D02*
D03*
D66*
X32402Y70325D02*
Y70866D01*
X70000Y-27000D02*
X75229D01*
X76729Y-28500D01*
X77000D01*
X50500Y19087D02*
Y26500D01*
X42000Y-18000D02*
X63286D01*
X71022Y-10264D01*
X50500Y19087D02*
X74803Y-5217D01*
X41000Y22000D02*
X49000Y30000D01*
X51950D01*
X74803Y4783D02*
Y7147D01*
X51950Y30000D02*
X74803Y7147D01*
Y14784D02*
X80500Y9087D01*
Y-6524D02*
Y9087D01*
X76760Y-10264D02*
X80500Y-6524D01*
X71022Y-10264D02*
X76760D01*
X67520Y-22500D02*
X74803Y-15216D01*
X44500Y-22500D02*
X67520D01*
M02*
