M48
;Layer_Color=9474304
;FILE_FORMAT=2:5
INCH,LZ
;TYPE=PLATED
T1F00S00C0.01500
T2F00S00C0.02800
T3F00S00C0.03000
T4F00S00C0.03543
T5F00S00C0.17717
%
T01
X0019Y-00195
X0021Y-0007
X00245Y-00035
X00235Y0005
X0032Y00215
X002889Y0025591
X0035Y0026
X0041Y0022
X00405Y0031
X00505Y00265
X0058862Y0001969
X0059Y-00025
Y-0007
Y-00115
X0055Y-00145
X0042Y-0018
X00445Y-00225
X007Y-0027
X0077Y-00285
X0007Y00195
X0001969Y0023622
X-00075Y0023
X-0013Y00185
X-0027Y0031
X-0005Y00395
X00135Y00375
Y0043
X0013Y00265
X0015992Y0068765
X0022Y00695
X00125Y00765
T02
X005225Y004
X00615Y00445
X-0066929Y0
T03
X0027402Y0070866
X0032402
X0037402
X0042402
X0047402
Y0075866
X0042402
X0037402
X0032402
X0027402
T04
X0074803Y-0015216
Y-0005217
Y0004783
Y0014784
X0006063Y0072835
X-0003937
X-0070866Y0035591
Y0025591
Y001559
X-0072835Y-0031496
Y-0041496
T05
X-0061024Y-0061024
X0061024
Y0061024
X-0061024
M30
