G04*
G04 #@! TF.GenerationSoftware,Altium Limited,Altium Designer,21.2.0 (30)*
G04*
G04 Layer_Color=65535*
%FSLAX25Y25*%
%MOIN*%
G70*
G04*
G04 #@! TF.SameCoordinates,4CBECB1B-55B4-4B8D-9185-352C28CE6FA5*
G04*
G04*
G04 #@! TF.FilePolarity,Positive*
G04*
G01*
G75*
G36*
X110855Y458029D02*
Y457756D01*
Y343939D01*
X110582D01*
Y352128D01*
X102666D01*
Y351855D01*
X102394D01*
Y348306D01*
X102666D01*
Y324288D01*
X110855D01*
Y319648D01*
X102666D01*
Y311732D01*
X102939D01*
Y294264D01*
X110855D01*
Y289624D01*
X102939D01*
Y265878D01*
X110855D01*
Y261238D01*
X102939D01*
Y252231D01*
X103212D01*
Y239676D01*
X103485D01*
Y239403D01*
X110855D01*
Y234763D01*
X103212D01*
Y228758D01*
X103485D01*
Y228485D01*
X104031D01*
Y228212D01*
X104304D01*
Y227666D01*
X104577D01*
Y227394D01*
X104850D01*
Y226848D01*
X105123D01*
Y226302D01*
X105396D01*
Y225210D01*
X105669D01*
Y224118D01*
X105396D01*
Y223026D01*
X105123D01*
Y222481D01*
X104850D01*
Y221935D01*
X104577D01*
Y221389D01*
X104304D01*
Y221116D01*
X104031D01*
Y220843D01*
X103485D01*
Y220570D01*
X103212D01*
Y213747D01*
X112220D01*
Y216476D01*
X112492D01*
Y216203D01*
X112765D01*
Y215930D01*
X113038D01*
Y215657D01*
X113311D01*
Y215384D01*
X113584D01*
Y215111D01*
X113857D01*
Y214838D01*
X114130D01*
Y214565D01*
X114403D01*
Y214019D01*
X114676D01*
Y213747D01*
X115222D01*
Y213474D01*
X115495D01*
Y213201D01*
X115768D01*
Y212928D01*
X116041D01*
Y212655D01*
X116314D01*
Y212382D01*
X116586D01*
Y212109D01*
X116859D01*
Y211836D01*
X117132D01*
Y211563D01*
X117405D01*
Y211290D01*
X117678D01*
Y211017D01*
X117951D01*
Y210744D01*
X118224D01*
Y210471D01*
X118497D01*
Y209106D01*
X114676D01*
Y190547D01*
X114949D01*
Y190274D01*
X118497D01*
Y185634D01*
X114949D01*
Y170622D01*
X115222D01*
Y167892D01*
X118770D01*
Y163252D01*
X115222D01*
Y153972D01*
X112765D01*
Y163252D01*
X103485D01*
Y153972D01*
X101302D01*
Y162979D01*
X101029D01*
Y163252D01*
X90657D01*
Y153972D01*
X88474D01*
Y163252D01*
X77829D01*
Y153972D01*
X75372D01*
Y163252D01*
X65547D01*
Y153972D01*
X63090D01*
Y159977D01*
X63363D01*
Y163252D01*
X53264D01*
Y155337D01*
X52991D01*
Y153972D01*
X50808D01*
Y163252D01*
X47805D01*
Y167892D01*
X50808D01*
Y170349D01*
X51081D01*
Y185634D01*
X48078D01*
Y190274D01*
X51081D01*
Y195186D01*
X51354D01*
Y209106D01*
X48351D01*
Y211563D01*
X48624D01*
Y211836D01*
X48897D01*
Y212109D01*
X49170D01*
Y212382D01*
X49443D01*
Y212655D01*
X49716D01*
Y212928D01*
X49989D01*
Y213201D01*
X50262D01*
Y213474D01*
X50535D01*
Y213747D01*
X51354D01*
Y214019D01*
X51626D01*
Y214292D01*
X51354D01*
Y214565D01*
X51626D01*
Y214838D01*
X51899D01*
Y215111D01*
X52172D01*
Y215384D01*
X52445D01*
Y215657D01*
X52718D01*
Y215930D01*
X52991D01*
Y216203D01*
X53264D01*
Y216476D01*
X53537D01*
Y216749D01*
X53810D01*
Y217022D01*
X54083D01*
Y213747D01*
X63636D01*
Y219751D01*
X61725D01*
Y220024D01*
X60906D01*
Y220297D01*
X60361D01*
Y220570D01*
X60088D01*
Y220843D01*
X59815D01*
Y221116D01*
X59269D01*
Y221662D01*
X58996D01*
Y221935D01*
X58723D01*
Y222481D01*
X58450D01*
Y223026D01*
X58177D01*
Y224118D01*
X57904D01*
Y225210D01*
X58177D01*
Y226302D01*
X58450D01*
Y226848D01*
X58723D01*
Y227394D01*
X58996D01*
Y227666D01*
X59269D01*
Y228212D01*
X59815D01*
Y228485D01*
X60088D01*
Y228758D01*
X60361D01*
Y229031D01*
X60906D01*
Y229304D01*
X61725D01*
Y229577D01*
X63909D01*
Y234763D01*
X55721D01*
Y239403D01*
X63909D01*
Y258782D01*
X64182D01*
Y261238D01*
X55721D01*
Y265878D01*
X64182D01*
Y280071D01*
X64455D01*
Y289624D01*
X55721D01*
Y294264D01*
X64455D01*
Y301361D01*
X64728D01*
Y319648D01*
X55721D01*
Y324288D01*
X64455D01*
Y324561D01*
X64728D01*
Y329747D01*
X65001D01*
Y352128D01*
X55721D01*
Y356768D01*
X65001D01*
Y364410D01*
X65274D01*
Y385972D01*
X56266D01*
Y379968D01*
X55994D01*
Y359224D01*
X55721D01*
Y504156D01*
X110855D01*
Y458029D01*
D02*
G37*
G36*
X83834Y159431D02*
X84925D01*
Y159158D01*
X85471D01*
Y158885D01*
X86017D01*
Y158612D01*
X86290D01*
Y158340D01*
X86563D01*
Y158066D01*
X86836D01*
Y157794D01*
X87109D01*
Y157521D01*
X87382D01*
Y156975D01*
X87655D01*
Y156156D01*
X87928D01*
Y153972D01*
X78102D01*
Y155610D01*
X78375D01*
Y156429D01*
X78648D01*
Y156975D01*
X78921D01*
Y157521D01*
X79194D01*
Y157794D01*
X79466D01*
Y158066D01*
X79739D01*
Y158340D01*
X80012D01*
Y158612D01*
X80285D01*
Y158885D01*
X80831D01*
Y159158D01*
X81377D01*
Y159431D01*
X82196D01*
Y159704D01*
X83834D01*
Y159431D01*
D02*
G37*
%LPC*%
G36*
X99391Y500881D02*
X90657D01*
Y472768D01*
X90384D01*
Y474132D01*
X90111D01*
Y475224D01*
X89838D01*
Y476316D01*
X89565D01*
Y477681D01*
X89292D01*
Y478500D01*
X89020D01*
Y479045D01*
X88747D01*
Y479591D01*
X88474D01*
Y479864D01*
X88201D01*
Y500881D01*
X79466D01*
Y480956D01*
X78921D01*
Y480683D01*
X78648D01*
Y480410D01*
X78375D01*
Y480137D01*
X78102D01*
Y479864D01*
X77829D01*
Y479318D01*
X77556D01*
Y478772D01*
X77283D01*
Y477954D01*
X77010D01*
Y476316D01*
X76737D01*
Y480956D01*
X77010D01*
Y500881D01*
X68822D01*
Y490782D01*
X68549D01*
Y464306D01*
X74008D01*
Y463761D01*
X73735D01*
Y462396D01*
X73462D01*
Y461031D01*
X73189D01*
Y459939D01*
X72916D01*
Y459666D01*
X68549D01*
Y455845D01*
X68276D01*
Y426368D01*
X71005D01*
Y421728D01*
X68276D01*
Y420909D01*
X68003D01*
Y399346D01*
X67730D01*
Y390885D01*
X68003D01*
Y390612D01*
X76464D01*
Y401803D01*
X78648D01*
Y401530D01*
X78921D01*
Y390612D01*
X87928D01*
Y390885D01*
X88201D01*
Y401530D01*
X88474D01*
Y401803D01*
X90384D01*
Y401530D01*
X90657D01*
Y390885D01*
X90930D01*
Y390612D01*
X99937D01*
Y407535D01*
X99664D01*
Y421728D01*
X95297D01*
Y426368D01*
X99664D01*
Y459394D01*
X99391D01*
Y459666D01*
X93387D01*
Y460485D01*
X93114D01*
Y461850D01*
X92841D01*
Y462942D01*
X92568D01*
Y464306D01*
X99391D01*
Y464579D01*
X99664D01*
Y466763D01*
X99391D01*
Y500881D01*
D02*
G37*
G36*
X108944D02*
X101575D01*
Y491874D01*
X101848D01*
Y491601D01*
Y491328D01*
Y464306D01*
X109217D01*
Y488598D01*
X108944D01*
Y500881D01*
D02*
G37*
G36*
X66365D02*
X57631D01*
Y483685D01*
X57358D01*
Y464306D01*
X65820D01*
Y464579D01*
X66092D01*
Y464852D01*
Y477135D01*
X66365D01*
Y500881D01*
D02*
G37*
G36*
X109217Y459666D02*
X101848D01*
Y443563D01*
X102121D01*
Y426368D01*
X109763D01*
Y430735D01*
X109490D01*
Y459394D01*
X109217D01*
Y459666D01*
D02*
G37*
G36*
X66092D02*
X57358D01*
Y459121D01*
X57085D01*
Y451478D01*
Y451205D01*
Y434283D01*
X56812D01*
Y426368D01*
X65547D01*
Y426641D01*
X65820D01*
Y449022D01*
X66092D01*
Y459666D01*
D02*
G37*
G36*
X109763Y421728D02*
X102121D01*
Y409172D01*
Y408899D01*
Y395798D01*
X102394D01*
Y390612D01*
X110036D01*
Y390885D01*
X110309D01*
Y395798D01*
X110036D01*
Y413267D01*
X109763D01*
Y421728D01*
D02*
G37*
G36*
X65547D02*
X56812D01*
Y419271D01*
X56539D01*
Y404259D01*
X56266D01*
Y390885D01*
X56539D01*
Y390612D01*
X65274D01*
Y399620D01*
X65547D01*
Y421182D01*
X65820D01*
Y421455D01*
X65547D01*
Y421728D01*
D02*
G37*
G36*
X99937Y385972D02*
X90657D01*
Y382970D01*
X90384D01*
Y383243D01*
X90111D01*
Y383516D01*
X89838D01*
Y383789D01*
X89565D01*
Y384062D01*
X89020D01*
Y384335D01*
X88474D01*
Y384608D01*
X88201D01*
Y385972D01*
X78921D01*
Y385700D01*
X77283D01*
Y385426D01*
X76464D01*
Y385972D01*
X67730D01*
Y371779D01*
X67457D01*
Y356768D01*
X74008D01*
Y356222D01*
X74281D01*
Y355676D01*
X74554D01*
Y355403D01*
X74827D01*
Y355130D01*
X75099D01*
Y354857D01*
X75372D01*
Y354584D01*
X75918D01*
Y354311D01*
X76464D01*
Y354038D01*
X77283D01*
Y353765D01*
X82469D01*
Y354038D01*
X83288D01*
Y354311D01*
X83834D01*
Y354584D01*
X84380D01*
Y354857D01*
X84652D01*
Y355130D01*
X84925D01*
Y355403D01*
X85198D01*
Y355676D01*
X85471D01*
Y356222D01*
X85744D01*
Y356768D01*
X88201D01*
Y363591D01*
X88747D01*
Y363864D01*
X89292D01*
Y364137D01*
X89565D01*
Y364410D01*
X90111D01*
Y364683D01*
X90384D01*
Y364956D01*
X90657D01*
Y356768D01*
X99937D01*
Y385972D01*
D02*
G37*
G36*
X110309D02*
X102394D01*
Y368777D01*
Y368504D01*
Y357041D01*
X102666D01*
Y356768D01*
X110582D01*
Y367412D01*
X110309D01*
Y385972D01*
D02*
G37*
G36*
X99937Y352128D02*
X90657D01*
Y337116D01*
X90384D01*
Y337389D01*
X89565D01*
Y337662D01*
X88201D01*
Y352128D01*
X78921D01*
Y351855D01*
X78648D01*
Y339026D01*
Y338754D01*
Y337662D01*
X77829D01*
Y337389D01*
X77010D01*
Y337116D01*
X76464D01*
Y336843D01*
X76191D01*
Y352128D01*
X67457D01*
Y343394D01*
X67184D01*
Y324288D01*
X74008D01*
Y319648D01*
X67184D01*
Y314735D01*
X66911D01*
Y294264D01*
X75918D01*
Y294537D01*
X76191D01*
Y306546D01*
X76464D01*
Y306274D01*
X77010D01*
Y306001D01*
X77829D01*
Y305728D01*
X89565D01*
Y306001D01*
X90384D01*
Y306274D01*
X90657D01*
Y294264D01*
X100210D01*
Y294537D01*
X100483D01*
Y311459D01*
X100210D01*
Y319648D01*
X92568D01*
Y324288D01*
X100210D01*
Y347761D01*
X99937D01*
Y352128D01*
D02*
G37*
G36*
X78921Y305182D02*
X78375D01*
Y294537D01*
X78648D01*
Y294264D01*
X88201D01*
Y304909D01*
X87928D01*
Y304636D01*
X87655D01*
Y304090D01*
X87382D01*
Y303817D01*
X87109D01*
Y303271D01*
X86563D01*
Y302998D01*
X86290D01*
Y302725D01*
X86017D01*
Y302452D01*
X85471D01*
Y302180D01*
X84652D01*
Y301906D01*
X82196D01*
Y302180D01*
X81377D01*
Y302452D01*
X80831D01*
Y302725D01*
X80558D01*
Y302998D01*
X80285D01*
Y303271D01*
X80012D01*
Y303544D01*
X79739D01*
Y303817D01*
X79466D01*
Y304090D01*
X79194D01*
Y304636D01*
X78921D01*
Y305182D01*
D02*
G37*
G36*
X84106Y289897D02*
X80831D01*
Y289624D01*
X79466D01*
Y289897D01*
X77010D01*
Y289624D01*
X76191D01*
Y289351D01*
X75918D01*
Y289624D01*
X66911D01*
Y280071D01*
X66638D01*
Y265878D01*
X73189D01*
Y261784D01*
X73462D01*
Y261238D01*
X66638D01*
Y244862D01*
X66365D01*
Y239676D01*
X66638D01*
Y239403D01*
X75645D01*
Y239676D01*
X75918D01*
Y258509D01*
X76191D01*
Y258236D01*
X77010D01*
Y257963D01*
X78375D01*
Y251412D01*
X78102D01*
Y239676D01*
X78375D01*
Y239403D01*
X87928D01*
Y239676D01*
X88201D01*
Y259055D01*
X88474D01*
Y259328D01*
X88747D01*
Y259601D01*
X89292D01*
Y259874D01*
X89565D01*
Y260146D01*
X89838D01*
Y260420D01*
X90111D01*
Y260692D01*
X90384D01*
Y260965D01*
X90657D01*
Y239676D01*
X90930D01*
Y239403D01*
X100483D01*
Y239676D01*
X100756D01*
Y260965D01*
X100483D01*
Y261238D01*
X90930D01*
Y261511D01*
X91203D01*
Y261784D01*
X91476D01*
Y262330D01*
X91749D01*
Y262876D01*
X92022D01*
Y263422D01*
X92295D01*
Y263968D01*
X92568D01*
Y264787D01*
X92841D01*
Y265605D01*
X93114D01*
Y265878D01*
X100483D01*
Y289351D01*
X100210D01*
Y289624D01*
X90657D01*
Y286895D01*
X90384D01*
Y287168D01*
X90111D01*
Y287441D01*
X89838D01*
Y287714D01*
X89292D01*
Y287986D01*
X89020D01*
Y288260D01*
X88474D01*
Y288532D01*
X88201D01*
Y289624D01*
X84106D01*
Y289897D01*
D02*
G37*
G36*
X100756Y234763D02*
X90657D01*
Y217568D01*
X90384D01*
Y217295D01*
X90111D01*
Y217022D01*
X89838D01*
Y216749D01*
X89565D01*
Y216203D01*
X89292D01*
Y215930D01*
X89020D01*
Y215384D01*
X88747D01*
Y215111D01*
X88474D01*
Y214565D01*
X88201D01*
Y234763D01*
X78102D01*
Y213747D01*
X87655D01*
Y213201D01*
X87382D01*
Y212928D01*
X87109D01*
Y212382D01*
X86836D01*
Y212109D01*
X86563D01*
Y211563D01*
X86290D01*
Y211290D01*
X86017D01*
Y210744D01*
X85744D01*
Y210198D01*
X85471D01*
Y209925D01*
X85198D01*
Y209380D01*
X84925D01*
Y209106D01*
X82469D01*
Y209380D01*
X82196D01*
Y209925D01*
X81923D01*
Y210198D01*
X81650D01*
Y210471D01*
X81377D01*
Y210744D01*
X81104D01*
Y211017D01*
X80558D01*
Y211290D01*
X80012D01*
Y211563D01*
X79194D01*
Y211836D01*
X72643D01*
Y211563D01*
X71824D01*
Y211290D01*
X71278D01*
Y211017D01*
X70460D01*
Y211290D01*
X69914D01*
Y211563D01*
X69095D01*
Y211836D01*
X62271D01*
Y211563D01*
X61452D01*
Y211290D01*
X60906D01*
Y211017D01*
X60361D01*
Y210744D01*
X60088D01*
Y210471D01*
X59815D01*
Y210198D01*
X59542D01*
Y209925D01*
X59269D01*
Y209380D01*
X58996D01*
Y209106D01*
X53810D01*
Y194914D01*
X53537D01*
Y190547D01*
X53810D01*
Y190274D01*
X58450D01*
Y185634D01*
X53537D01*
Y179902D01*
X53264D01*
Y167892D01*
X63363D01*
Y171986D01*
X63909D01*
Y171714D01*
X64455D01*
Y171441D01*
X64728D01*
Y171168D01*
X65274D01*
Y170895D01*
X65820D01*
Y167892D01*
X75372D01*
Y168165D01*
X75645D01*
Y170895D01*
X76191D01*
Y171168D01*
X76737D01*
Y171441D01*
X77283D01*
Y171714D01*
X77829D01*
Y167892D01*
X88474D01*
Y170895D01*
X89020D01*
Y170622D01*
X89565D01*
Y170349D01*
X90384D01*
Y170076D01*
X90657D01*
Y167892D01*
X101029D01*
Y182631D01*
X102121D01*
Y182904D01*
X102939D01*
Y183177D01*
X103485D01*
Y167892D01*
X112765D01*
Y170622D01*
X112492D01*
Y185634D01*
X107307D01*
Y185907D01*
X107580D01*
Y186179D01*
X107852D01*
Y186452D01*
X108125D01*
Y186725D01*
X108398D01*
Y186998D01*
X108671D01*
Y187271D01*
X108944D01*
Y187817D01*
X109217D01*
Y188363D01*
X109490D01*
Y188909D01*
X109763D01*
Y189455D01*
X110036D01*
Y190001D01*
X110309D01*
Y190274D01*
X112492D01*
Y199008D01*
X112220D01*
Y209106D01*
X106761D01*
Y209380D01*
X106215D01*
Y209652D01*
X105942D01*
Y209925D01*
X105669D01*
Y210198D01*
X105123D01*
Y210471D01*
X104577D01*
Y210744D01*
X104031D01*
Y211017D01*
X103212D01*
Y211290D01*
X102394D01*
Y211563D01*
X101302D01*
Y211836D01*
X101029D01*
Y212382D01*
X100756D01*
Y212928D01*
X100483D01*
Y213201D01*
X100210D01*
Y213747D01*
X101029D01*
Y216203D01*
X100756D01*
Y219751D01*
X99391D01*
Y220024D01*
X98572D01*
Y220297D01*
X98027D01*
Y220570D01*
X97754D01*
Y220843D01*
X97208D01*
Y221116D01*
X96935D01*
Y221389D01*
X96662D01*
Y221935D01*
X96389D01*
Y222481D01*
X96116D01*
Y223026D01*
X95843D01*
Y223845D01*
X95570D01*
Y225483D01*
X95843D01*
Y226302D01*
X96116D01*
Y226848D01*
X96389D01*
Y227394D01*
X96662D01*
Y227940D01*
X96935D01*
Y228212D01*
X97208D01*
Y228485D01*
X97754D01*
Y228758D01*
X98027D01*
Y229031D01*
X98572D01*
Y229304D01*
X99391D01*
Y229577D01*
X100483D01*
Y229850D01*
X100756D01*
Y234763D01*
D02*
G37*
G36*
X75645D02*
X66365D01*
Y228212D01*
X66638D01*
Y227940D01*
X66911D01*
Y227394D01*
X67184D01*
Y227121D01*
X67457D01*
Y226302D01*
X67730D01*
Y225483D01*
X68003D01*
Y223845D01*
X67730D01*
Y223026D01*
X67457D01*
Y222208D01*
X67184D01*
Y221935D01*
X66911D01*
Y221389D01*
X66638D01*
Y221116D01*
X66365D01*
Y220570D01*
X66092D01*
Y214019D01*
X66365D01*
Y213747D01*
X75645D01*
Y234763D01*
D02*
G37*
%LPD*%
G36*
X90657Y433464D02*
X89838D01*
Y433737D01*
X88201D01*
Y440288D01*
X87655D01*
Y439742D01*
X87382D01*
Y439469D01*
X87109D01*
Y439196D01*
X86836D01*
Y438923D01*
X86563D01*
Y438650D01*
X86290D01*
Y438377D01*
X85744D01*
Y438104D01*
X85198D01*
Y437831D01*
X84380D01*
Y437558D01*
X82469D01*
Y437831D01*
X81650D01*
Y438104D01*
X81104D01*
Y438377D01*
X80558D01*
Y438650D01*
X80285D01*
Y438923D01*
X80012D01*
Y439196D01*
X79739D01*
Y439469D01*
X79466D01*
Y439742D01*
X79194D01*
Y433737D01*
X76464D01*
Y437558D01*
X76737D01*
Y439196D01*
Y439469D01*
Y440561D01*
X79194D01*
Y440834D01*
X80012D01*
Y441107D01*
X80558D01*
Y441379D01*
X81104D01*
Y441652D01*
X81377D01*
Y441925D01*
X81650D01*
Y442198D01*
X81923D01*
Y442471D01*
X82196D01*
Y442744D01*
X82469D01*
Y443290D01*
X82742D01*
Y443836D01*
X83015D01*
Y444655D01*
X83288D01*
Y446292D01*
X83561D01*
Y447384D01*
X84925D01*
Y447111D01*
X85744D01*
Y446838D01*
X86290D01*
Y446565D01*
X86563D01*
Y446292D01*
X86836D01*
Y446020D01*
X87109D01*
Y445747D01*
X87382D01*
Y445474D01*
X87655D01*
Y444928D01*
X88201D01*
Y449841D01*
X90384D01*
Y450114D01*
X90657D01*
Y433464D01*
D02*
G37*
M02*
