G04*
G04 #@! TF.GenerationSoftware,Altium Limited,Altium Designer,21.2.0 (30)*
G04*
G04 Layer_Physical_Order=2*
G04 Layer_Color=16711680*
%FSLAX25Y25*%
%MOIN*%
G70*
G04*
G04 #@! TF.SameCoordinates,4CBECB1B-55B4-4B8D-9185-352C28CE6FA5*
G04*
G04*
G04 #@! TF.FilePolarity,Positive*
G04*
G01*
G75*
%ADD12C,0.16142*%
G36*
X85804Y668330D02*
X88279Y667736D01*
X90630Y666762D01*
X92800Y665432D01*
X94735Y663779D01*
X96387Y661845D01*
X97717Y659675D01*
X98691Y657324D01*
X99285Y654849D01*
X99476Y652419D01*
X99455Y652313D01*
X99455Y634596D01*
X99571Y634011D01*
X99903Y633515D01*
X100362Y633208D01*
X100357Y633198D01*
X100932Y632960D01*
X104166Y631276D01*
X107241Y629317D01*
X110134Y627097D01*
X112823Y624634D01*
X115286Y621945D01*
X117506Y619052D01*
X119465Y615977D01*
X121149Y612743D01*
X122544Y609374D01*
X123640Y605897D01*
X124430Y602337D01*
X124906Y598722D01*
X125065Y595079D01*
X124906Y591436D01*
X124430Y587821D01*
X123640Y584261D01*
X122544Y580783D01*
X121149Y577415D01*
X119465Y574180D01*
X117506Y571105D01*
X115286Y568212D01*
X112823Y565524D01*
X112080Y564844D01*
X111740Y564531D01*
X111486Y564139D01*
X111448Y564082D01*
X111382Y563984D01*
X111266Y563399D01*
Y220276D01*
X111382Y219690D01*
X111714Y219194D01*
X165006Y165902D01*
X165006Y17464D01*
X149071Y1529D01*
X17464D01*
X1529Y17464D01*
Y165902D01*
X54822Y219194D01*
X55153Y219690D01*
X55270Y220276D01*
Y563399D01*
X55153Y563984D01*
X55088Y564082D01*
X55049Y564139D01*
X54796Y564531D01*
X54455Y564844D01*
X53713Y565524D01*
X51249Y568212D01*
X49030Y571105D01*
X47071Y574180D01*
X45387Y577415D01*
X43992Y580783D01*
X42895Y584261D01*
X42106Y587821D01*
X41630Y591436D01*
X41471Y595079D01*
X41630Y598722D01*
X42106Y602337D01*
X42895Y605897D01*
X43992Y609374D01*
X45387Y612743D01*
X47071Y615977D01*
X49030Y619052D01*
X51249Y621945D01*
X53713Y624634D01*
X56401Y627097D01*
X59294Y629317D01*
X62369Y631276D01*
X65604Y632960D01*
X66178Y633198D01*
X66173Y633208D01*
X66633Y633515D01*
X66964Y634011D01*
X67081Y634596D01*
Y652313D01*
X67059Y652419D01*
X67251Y654849D01*
X67845Y657324D01*
X68819Y659675D01*
X70148Y661845D01*
X71801Y663779D01*
X73736Y665432D01*
X75906Y666762D01*
X78256Y667736D01*
X80731Y668330D01*
X83268Y668529D01*
X85804Y668330D01*
D02*
G37*
%LPC*%
G36*
X83268Y661426D02*
X81489Y661251D01*
X79780Y660732D01*
X78204Y659890D01*
X76823Y658756D01*
X75689Y657375D01*
X74847Y655799D01*
X74328Y654089D01*
X74153Y652311D01*
X74328Y650533D01*
X74847Y648823D01*
X75689Y647247D01*
X76823Y645866D01*
X78204Y644732D01*
X79780Y643890D01*
X81489Y643371D01*
X83268Y643196D01*
X85046Y643371D01*
X86756Y643890D01*
X88332Y644732D01*
X89713Y645866D01*
X90846Y647247D01*
X91689Y648823D01*
X92207Y650533D01*
X92383Y652311D01*
X92207Y654089D01*
X91689Y655799D01*
X90846Y657375D01*
X89713Y658756D01*
X88332Y659890D01*
X86756Y660732D01*
X85046Y661251D01*
X83268Y661426D01*
D02*
G37*
G36*
X84535Y615439D02*
X82000D01*
X81934Y615426D01*
X81867Y615430D01*
X79353Y615099D01*
X79290Y615078D01*
X79223Y615073D01*
X76774Y614417D01*
X76713Y614387D01*
X76647Y614374D01*
X74305Y613404D01*
X74249Y613367D01*
X74186Y613345D01*
X71990Y612077D01*
X71939Y612033D01*
X71879Y612003D01*
X69868Y610460D01*
X69823Y610409D01*
X69767Y610372D01*
X67975Y608579D01*
X67937Y608523D01*
X67887Y608479D01*
X66343Y606467D01*
X66313Y606407D01*
X66269Y606357D01*
X65001Y604161D01*
X64980Y604097D01*
X64943Y604041D01*
X63972Y601699D01*
X63959Y601633D01*
X63929Y601573D01*
X63273Y599124D01*
X63269Y599057D01*
X63247Y598993D01*
X62916Y596480D01*
X62921Y596412D01*
X62908Y596346D01*
Y593811D01*
X62921Y593745D01*
X62916Y593678D01*
X63247Y591164D01*
X63269Y591101D01*
X63273Y591034D01*
X63929Y588585D01*
X63959Y588524D01*
X63972Y588458D01*
X64943Y586116D01*
X64980Y586060D01*
X65001Y585996D01*
X66269Y583801D01*
X66313Y583750D01*
X66343Y583690D01*
X67887Y581679D01*
X67937Y581634D01*
X67975Y581578D01*
X69767Y579786D01*
X69823Y579748D01*
X69868Y579698D01*
X71879Y578154D01*
X71939Y578125D01*
X71990Y578080D01*
X74186Y576813D01*
X74249Y576791D01*
X74305Y576754D01*
X76647Y575783D01*
X76713Y575770D01*
X76774Y575740D01*
X79223Y575084D01*
X79290Y575080D01*
X79353Y575058D01*
X81867Y574727D01*
X81934Y574732D01*
X82000Y574719D01*
X84535D01*
X84601Y574732D01*
X84668Y574727D01*
X87182Y575058D01*
X87246Y575080D01*
X87313Y575084D01*
X89762Y575740D01*
X89822Y575770D01*
X89888Y575783D01*
X92230Y576754D01*
X92286Y576791D01*
X92350Y576813D01*
X94546Y578080D01*
X94596Y578125D01*
X94656Y578154D01*
X96668Y579698D01*
X96712Y579748D01*
X96768Y579786D01*
X98561Y581578D01*
X98598Y581634D01*
X98649Y581679D01*
X100192Y583690D01*
X100222Y583750D01*
X100266Y583801D01*
X101534Y585996D01*
X101556Y586060D01*
X101593Y586116D01*
X102563Y588458D01*
X102576Y588524D01*
X102606Y588585D01*
X103262Y591034D01*
X103267Y591101D01*
X103288Y591164D01*
X103619Y593678D01*
X103615Y593745D01*
X103628Y593811D01*
Y596346D01*
X103615Y596412D01*
X103619Y596480D01*
X103288Y598993D01*
X103267Y599057D01*
X103262Y599124D01*
X102606Y601573D01*
X102576Y601633D01*
X102563Y601699D01*
X101593Y604041D01*
X101556Y604097D01*
X101534Y604161D01*
X100266Y606357D01*
X100222Y606407D01*
X100192Y606467D01*
X98649Y608479D01*
X98598Y608523D01*
X98561Y608579D01*
X96768Y610372D01*
X96712Y610409D01*
X96668Y610460D01*
X94656Y612003D01*
X94596Y612033D01*
X94546Y612077D01*
X92350Y613345D01*
X92286Y613367D01*
X92230Y613404D01*
X89888Y614374D01*
X89822Y614387D01*
X89762Y614417D01*
X87313Y615073D01*
X87246Y615078D01*
X87182Y615099D01*
X84668Y615430D01*
X84601Y615426D01*
X84535Y615439D01*
D02*
G37*
G36*
X83268Y546961D02*
X81489Y546786D01*
X79780Y546267D01*
X78204Y545425D01*
X76823Y544292D01*
X75689Y542910D01*
X74847Y541334D01*
X74328Y539625D01*
X74153Y537847D01*
X74328Y536068D01*
X74847Y534358D01*
X75689Y532783D01*
X76823Y531401D01*
X78204Y530268D01*
X79780Y529425D01*
X81489Y528907D01*
X83268Y528732D01*
X85046Y528907D01*
X86756Y529425D01*
X88332Y530268D01*
X89713Y531401D01*
X90846Y532783D01*
X91689Y534358D01*
X92207Y536068D01*
X92383Y537847D01*
X92207Y539625D01*
X91689Y541334D01*
X90846Y542910D01*
X89713Y544292D01*
X88332Y545425D01*
X86756Y546267D01*
X85046Y546786D01*
X83268Y546961D01*
D02*
G37*
G36*
X144291Y153406D02*
X142513Y153231D01*
X140803Y152712D01*
X139227Y151870D01*
X137846Y150736D01*
X136713Y149355D01*
X135870Y147779D01*
X135352Y146070D01*
X135177Y144291D01*
X135352Y142513D01*
X135870Y140803D01*
X136713Y139227D01*
X137846Y137846D01*
X139227Y136713D01*
X140803Y135870D01*
X142513Y135352D01*
X144291Y135177D01*
X146070Y135352D01*
X147779Y135870D01*
X149355Y136713D01*
X150736Y137846D01*
X151870Y139227D01*
X152712Y140803D01*
X153231Y142513D01*
X153406Y144291D01*
X153231Y146070D01*
X152712Y147779D01*
X151870Y149355D01*
X150736Y150736D01*
X149355Y151870D01*
X147779Y152712D01*
X146070Y153231D01*
X144291Y153406D01*
D02*
G37*
G36*
X22244D02*
X20466Y153231D01*
X18756Y152712D01*
X17180Y151870D01*
X15799Y150736D01*
X14665Y149355D01*
X13823Y147779D01*
X13305Y146070D01*
X13129Y144291D01*
X13305Y142513D01*
X13823Y140803D01*
X14665Y139227D01*
X15799Y137846D01*
X17180Y136713D01*
X18756Y135870D01*
X20466Y135352D01*
X22244Y135177D01*
X24022Y135352D01*
X25732Y135870D01*
X27308Y136713D01*
X28689Y137846D01*
X29823Y139227D01*
X30665Y140803D01*
X31184Y142513D01*
X31359Y144291D01*
X31184Y146070D01*
X30665Y147779D01*
X29823Y149355D01*
X28689Y150736D01*
X27308Y151870D01*
X25732Y152712D01*
X24022Y153231D01*
X22244Y153406D01*
D02*
G37*
G36*
X85240Y134484D02*
X81296D01*
X81256Y134476D01*
X81216Y134481D01*
X77283Y134171D01*
X77244Y134160D01*
X77204Y134162D01*
X73308Y133545D01*
X73270Y133531D01*
X73229Y133529D01*
X69394Y132609D01*
X69357Y132592D01*
X69317Y132587D01*
X65565Y131368D01*
X65530Y131348D01*
X65490Y131340D01*
X61846Y129831D01*
X61812Y129808D01*
X61773Y129797D01*
X58259Y128006D01*
X58227Y127981D01*
X58189Y127967D01*
X54826Y125906D01*
X54796Y125879D01*
X54759Y125862D01*
X51568Y123543D01*
X51540Y123514D01*
X51505Y123494D01*
X48506Y120932D01*
X48480Y120900D01*
X48447Y120878D01*
X45658Y118089D01*
X45635Y118055D01*
X45603Y118030D01*
X43042Y115030D01*
X43022Y114995D01*
X42992Y114968D01*
X40674Y111776D01*
X40657Y111740D01*
X40629Y111710D01*
X38568Y108347D01*
X38554Y108309D01*
X38529Y108277D01*
X36738Y104762D01*
X36727Y104723D01*
X36705Y104690D01*
X35195Y101045D01*
X35187Y101005D01*
X35167Y100970D01*
X33948Y97219D01*
X33944Y97179D01*
X33927Y97142D01*
X33006Y93306D01*
X33004Y93266D01*
X32990Y93228D01*
X32373Y89332D01*
X32375Y89291D01*
X32364Y89252D01*
X32054Y85320D01*
X32059Y85280D01*
X32051Y85240D01*
Y81296D01*
X32059Y81256D01*
X32054Y81216D01*
X32364Y77283D01*
X32375Y77244D01*
X32373Y77204D01*
X32990Y73308D01*
X33004Y73270D01*
X33006Y73229D01*
X33927Y69394D01*
X33944Y69357D01*
X33948Y69317D01*
X35167Y65565D01*
X35187Y65530D01*
X35195Y65490D01*
X36705Y61846D01*
X36727Y61812D01*
X36738Y61773D01*
X38529Y58259D01*
X38554Y58227D01*
X38568Y58189D01*
X40629Y54826D01*
X40657Y54796D01*
X40674Y54759D01*
X42992Y51568D01*
X43022Y51540D01*
X43042Y51505D01*
X45603Y48506D01*
X45635Y48480D01*
X45658Y48447D01*
X48447Y45658D01*
X48480Y45635D01*
X48506Y45603D01*
X51505Y43042D01*
X51540Y43022D01*
X51568Y42992D01*
X54759Y40674D01*
X54796Y40657D01*
X54826Y40629D01*
X58189Y38568D01*
X58227Y38554D01*
X58259Y38529D01*
X61773Y36738D01*
X61812Y36727D01*
X61846Y36705D01*
X65490Y35195D01*
X65530Y35187D01*
X65565Y35167D01*
X69317Y33948D01*
X69357Y33944D01*
X69394Y33927D01*
X73229Y33006D01*
X73270Y33004D01*
X73308Y32990D01*
X77204Y32373D01*
X77244Y32375D01*
X77283Y32364D01*
X81216Y32054D01*
X81256Y32059D01*
X81296Y32051D01*
X85240D01*
X85280Y32059D01*
X85320Y32054D01*
X89252Y32364D01*
X89291Y32375D01*
X89332Y32373D01*
X93228Y32990D01*
X93266Y33004D01*
X93306Y33006D01*
X97142Y33927D01*
X97179Y33944D01*
X97219Y33948D01*
X100970Y35167D01*
X101005Y35187D01*
X101045Y35195D01*
X104690Y36705D01*
X104723Y36727D01*
X104762Y36738D01*
X108277Y38529D01*
X108309Y38554D01*
X108347Y38568D01*
X111710Y40629D01*
X111740Y40657D01*
X111776Y40674D01*
X114968Y42992D01*
X114995Y43022D01*
X115030Y43042D01*
X118030Y45603D01*
X118055Y45635D01*
X118089Y45658D01*
X120878Y48447D01*
X120900Y48480D01*
X120932Y48506D01*
X123494Y51505D01*
X123514Y51540D01*
X123543Y51568D01*
X125862Y54759D01*
X125879Y54796D01*
X125906Y54826D01*
X127967Y58189D01*
X127981Y58227D01*
X128006Y58259D01*
X129797Y61773D01*
X129808Y61812D01*
X129831Y61846D01*
X131340Y65490D01*
X131348Y65530D01*
X131368Y65565D01*
X132587Y69317D01*
X132592Y69357D01*
X132609Y69394D01*
X133529Y73229D01*
X133531Y73270D01*
X133545Y73308D01*
X134162Y77204D01*
X134160Y77244D01*
X134171Y77283D01*
X134481Y81216D01*
X134476Y81256D01*
X134484Y81296D01*
Y85240D01*
X134476Y85280D01*
X134481Y85320D01*
X134171Y89252D01*
X134160Y89291D01*
X134162Y89332D01*
X133545Y93228D01*
X133531Y93266D01*
X133529Y93306D01*
X132609Y97142D01*
X132592Y97179D01*
X132587Y97219D01*
X131368Y100970D01*
X131348Y101005D01*
X131340Y101045D01*
X129831Y104690D01*
X129808Y104723D01*
X129797Y104762D01*
X128006Y108277D01*
X127981Y108309D01*
X127967Y108347D01*
X125906Y111710D01*
X125879Y111740D01*
X125862Y111776D01*
X123543Y114968D01*
X123514Y114995D01*
X123494Y115030D01*
X120932Y118030D01*
X120900Y118055D01*
X120878Y118089D01*
X118089Y120878D01*
X118055Y120900D01*
X118030Y120932D01*
X115030Y123494D01*
X114995Y123514D01*
X114968Y123543D01*
X111776Y125862D01*
X111740Y125879D01*
X111710Y125906D01*
X108347Y127967D01*
X108309Y127981D01*
X108277Y128006D01*
X104762Y129797D01*
X104723Y129808D01*
X104690Y129831D01*
X101045Y131340D01*
X101005Y131348D01*
X100970Y131368D01*
X97219Y132587D01*
X97179Y132592D01*
X97142Y132609D01*
X93306Y133529D01*
X93266Y133531D01*
X93228Y133545D01*
X89332Y134162D01*
X89291Y134160D01*
X89252Y134171D01*
X85320Y134481D01*
X85280Y134476D01*
X85240Y134484D01*
D02*
G37*
G36*
X144291Y31359D02*
X142513Y31184D01*
X140803Y30665D01*
X139227Y29823D01*
X137846Y28689D01*
X136713Y27308D01*
X135870Y25732D01*
X135352Y24022D01*
X135177Y22244D01*
X135352Y20466D01*
X135870Y18756D01*
X136713Y17180D01*
X137846Y15799D01*
X139227Y14665D01*
X140803Y13823D01*
X142513Y13305D01*
X144291Y13129D01*
X146070Y13305D01*
X147779Y13823D01*
X149355Y14665D01*
X150736Y15799D01*
X151870Y17180D01*
X152712Y18756D01*
X153231Y20466D01*
X153406Y22244D01*
X153231Y24022D01*
X152712Y25732D01*
X151870Y27308D01*
X150736Y28689D01*
X149355Y29823D01*
X147779Y30665D01*
X146070Y31184D01*
X144291Y31359D01*
D02*
G37*
G36*
X22244D02*
X20466Y31184D01*
X18756Y30665D01*
X17180Y29823D01*
X15799Y28689D01*
X14665Y27308D01*
X13823Y25732D01*
X13305Y24022D01*
X13129Y22244D01*
X13305Y20466D01*
X13823Y18756D01*
X14665Y17180D01*
X15799Y15799D01*
X17180Y14665D01*
X18756Y13823D01*
X20466Y13305D01*
X22244Y13129D01*
X24022Y13305D01*
X25732Y13823D01*
X27308Y14665D01*
X28689Y15799D01*
X29823Y17180D01*
X30665Y18756D01*
X31184Y20466D01*
X31359Y22244D01*
X31184Y24022D01*
X30665Y25732D01*
X29823Y27308D01*
X28689Y28689D01*
X27308Y29823D01*
X25732Y30665D01*
X24022Y31184D01*
X22244Y31359D01*
D02*
G37*
%LPD*%
D12*
Y144291D02*
D03*
X144291D02*
D03*
Y22244D02*
D03*
X22244D02*
D03*
X83268Y652311D02*
D03*
Y537847D02*
D03*
M02*
