G04*
G04 #@! TF.GenerationSoftware,Altium Limited,Altium Designer,21.1.1 (26)*
G04*
G04 Layer_Color=8388736*
%FSLAX25Y25*%
%MOIN*%
G70*
G04*
G04 #@! TF.SameCoordinates,B944FD0A-875C-4FF3-B887-5F38681DF828*
G04*
G04*
G04 #@! TF.FilePolarity,Negative*
G04*
G01*
G75*
%ADD16R,0.03150X0.01968*%
%ADD17R,0.01968X0.03150*%
%ADD19R,0.03543X0.03150*%
%ADD23R,0.03765X0.04749*%
%ADD27R,0.02996X0.00955*%
G04:AMPARAMS|DCode=28|XSize=29.96mil|YSize=9.55mil|CornerRadius=4.77mil|HoleSize=0mil|Usage=FLASHONLY|Rotation=180.000|XOffset=0mil|YOffset=0mil|HoleType=Round|Shape=RoundedRectangle|*
%AMROUNDEDRECTD28*
21,1,0.02996,0.00000,0,0,180.0*
21,1,0.02042,0.00955,0,0,180.0*
1,1,0.00955,-0.01021,0.00000*
1,1,0.00955,0.01021,0.00000*
1,1,0.00955,0.01021,0.00000*
1,1,0.00955,-0.01021,0.00000*
%
%ADD28ROUNDEDRECTD28*%
G04:AMPARAMS|DCode=29|XSize=9.55mil|YSize=29.96mil|CornerRadius=4.77mil|HoleSize=0mil|Usage=FLASHONLY|Rotation=180.000|XOffset=0mil|YOffset=0mil|HoleType=Round|Shape=RoundedRectangle|*
%AMROUNDEDRECTD29*
21,1,0.00955,0.02042,0,0,180.0*
21,1,0.00000,0.02996,0,0,180.0*
1,1,0.00955,0.00000,0.01021*
1,1,0.00955,0.00000,0.01021*
1,1,0.00955,0.00000,-0.01021*
1,1,0.00955,0.00000,-0.01021*
%
%ADD29ROUNDEDRECTD29*%
%ADD33R,0.03985X0.04758*%
%ADD39R,0.03150X0.03150*%
%ADD40R,0.04449X0.09606*%
%ADD42R,0.03371X0.03379*%
%ADD44R,0.04343X0.03950*%
%ADD45R,0.05524X0.09461*%
%ADD46R,0.14580X0.09461*%
%ADD47R,0.04737X0.07099*%
%ADD48R,0.14580X0.07099*%
%ADD49R,0.04540X0.04934*%
%ADD50R,0.06902X0.05524*%
%ADD51R,0.13780X0.15748*%
%ADD52R,0.07099X0.05131*%
%ADD53R,0.07099X0.07099*%
%ADD54R,0.04343X0.04934*%
%ADD55R,0.08674X0.06115*%
%ADD56R,0.05721X0.07887*%
%ADD57R,0.03753X0.04147*%
%ADD58R,0.04343X0.03556*%
%ADD59R,0.03162X0.03950*%
%ADD60R,0.03950X0.03162*%
%ADD61R,0.04934X0.04540*%
%ADD62O,0.06706X0.09658*%
%ADD63O,0.09658X0.06706*%
%ADD64R,0.05918X0.05918*%
%ADD65C,0.05918*%
%ADD66C,0.20800*%
%ADD67C,0.06706*%
%ADD68R,0.06706X0.06706*%
%ADD69C,0.04000*%
%ADD70R,0.04000X0.04000*%
D16*
X17571Y47878D02*
D03*
Y44728D02*
D03*
Y41579D02*
D03*
Y38429D02*
D03*
Y35280D02*
D03*
Y32130D02*
D03*
Y28980D02*
D03*
X17571Y25831D02*
D03*
X48280Y25831D02*
D03*
Y28980D02*
D03*
Y32130D02*
D03*
Y35280D02*
D03*
Y38429D02*
D03*
Y41579D02*
D03*
Y44728D02*
D03*
Y47878D02*
D03*
D17*
X21902Y21500D02*
D03*
X25051Y21500D02*
D03*
X28201D02*
D03*
X31350D02*
D03*
X34500D02*
D03*
X37650D02*
D03*
X40799D02*
D03*
X43949D02*
D03*
X43949Y52209D02*
D03*
X40799D02*
D03*
X37650D02*
D03*
X34500D02*
D03*
X31350D02*
D03*
X28201D02*
D03*
X25051D02*
D03*
X21902D02*
D03*
D19*
X31500Y60047D02*
D03*
X31500Y65953D02*
D03*
X-3500Y-30953D02*
D03*
Y-25047D02*
D03*
D23*
X21964Y2500D02*
D03*
X30035D02*
D03*
X68035Y-13500D02*
D03*
X59965D02*
D03*
D27*
X45853Y-28858D02*
D03*
D28*
Y-26890D02*
D03*
Y-24921D02*
D03*
Y-22953D02*
D03*
Y-20984D02*
D03*
Y-19016D02*
D03*
Y-17047D02*
D03*
Y-15079D02*
D03*
Y-13110D02*
D03*
Y-11142D02*
D03*
X27147D02*
D03*
Y-13110D02*
D03*
Y-15079D02*
D03*
Y-17047D02*
D03*
Y-19016D02*
D03*
Y-20984D02*
D03*
Y-22953D02*
D03*
Y-24921D02*
D03*
Y-26890D02*
D03*
Y-28858D02*
D03*
D29*
X43390Y-8679D02*
D03*
X41421Y-8679D02*
D03*
X39453D02*
D03*
X37484D02*
D03*
X35516D02*
D03*
X33547D02*
D03*
X31579D02*
D03*
X29610Y-8679D02*
D03*
Y-31321D02*
D03*
X31579Y-31321D02*
D03*
X33547D02*
D03*
X35516D02*
D03*
X37484D02*
D03*
X39453D02*
D03*
X41421D02*
D03*
X43390Y-31321D02*
D03*
D33*
X23000Y66157D02*
D03*
Y59843D02*
D03*
D39*
X79000Y57248D02*
D03*
Y50752D02*
D03*
D40*
X-51000Y41929D02*
D03*
X-61000D02*
D03*
X-71000D02*
D03*
Y8071D02*
D03*
X-61000D02*
D03*
X-51000D02*
D03*
D42*
X-1866Y-11500D02*
D03*
X2866Y-11500D02*
D03*
D44*
X15500Y66362D02*
D03*
D45*
X-30055Y7591D02*
D03*
X-21000D02*
D03*
X-11945D02*
D03*
D46*
X-21000Y32000D02*
D03*
D47*
X59039Y13984D02*
D03*
X74000D02*
D03*
X59039Y38000D02*
D03*
X74000D02*
D03*
D48*
X8370Y-67500D02*
D03*
X29630D02*
D03*
D49*
X19546Y-48000D02*
D03*
X25254D02*
D03*
X19546Y-38900D02*
D03*
X25254Y-38900D02*
D03*
D50*
X-55831Y-3000D02*
D03*
X-47169D02*
D03*
D51*
X36500Y-20000D02*
D03*
D52*
X-6691Y-56228D02*
D03*
Y-47172D02*
D03*
D53*
X-18109Y-51700D02*
D03*
D54*
X-23854Y60500D02*
D03*
X-18146D02*
D03*
X-23854Y51000D02*
D03*
X-18146D02*
D03*
X66746Y45700D02*
D03*
X72454D02*
D03*
X12054Y-21100D02*
D03*
X6346D02*
D03*
X-74354Y-12000D02*
D03*
X-68646D02*
D03*
D55*
X-42217Y-13500D02*
D03*
X-31784D02*
D03*
D56*
X53996Y-42000D02*
D03*
X66004D02*
D03*
X63004Y2000D02*
D03*
X50996D02*
D03*
D57*
X47441Y75500D02*
D03*
X52559D02*
D03*
D58*
X15500Y61638D02*
D03*
D59*
X-68646Y-4500D02*
D03*
X-74354D02*
D03*
D60*
X-9500Y-39059D02*
D03*
Y-33941D02*
D03*
D61*
X9000Y-34354D02*
D03*
Y-28646D02*
D03*
D62*
X-41937Y-31000D02*
D03*
X-61228D02*
D03*
D63*
X-52173Y-42024D02*
D03*
D64*
X-19826Y-77165D02*
D03*
X-20000Y72835D02*
D03*
D65*
X-27700Y-77165D02*
D03*
X-35574D02*
D03*
X-35748Y72835D02*
D03*
X-27874Y72835D02*
D03*
D66*
X-61024Y-61024D02*
D03*
X61024D02*
D03*
X-61024Y61024D02*
D03*
X61024D02*
D03*
D67*
X78000Y-1000D02*
D03*
Y-11000D02*
D03*
Y-21000D02*
D03*
D68*
Y-31000D02*
D03*
D69*
X35500Y79000D02*
D03*
X30500Y79000D02*
D03*
X25500D02*
D03*
X20500Y79000D02*
D03*
X15500D02*
D03*
X35500Y74000D02*
D03*
X30500Y74000D02*
D03*
X25500Y74000D02*
D03*
X20500D02*
D03*
D70*
X15500Y74000D02*
D03*
M02*
