G04*
G04 #@! TF.GenerationSoftware,Altium Limited,Altium Designer,21.1.1 (26)*
G04*
G04 Layer_Color=16711935*
%FSLAX25Y25*%
%MOIN*%
G70*
G04*
G04 #@! TF.SameCoordinates,B944FD0A-875C-4FF3-B887-5F38681DF828*
G04*
G04*
G04 #@! TF.FilePolarity,Negative*
G04*
G01*
G75*
%ADD23R,0.03765X0.04749*%
%ADD62O,0.06706X0.09658*%
%ADD63O,0.09658X0.06706*%
%ADD64R,0.05918X0.05918*%
%ADD65C,0.05918*%
%ADD66C,0.20800*%
%ADD67C,0.06706*%
%ADD68R,0.06706X0.06706*%
%ADD69C,0.04000*%
%ADD70R,0.04000X0.04000*%
%ADD95R,0.03359X0.05958*%
%ADD96R,0.04934X0.04343*%
D23*
X4135Y21300D02*
D03*
X-3935D02*
D03*
D62*
X-41937Y-31000D02*
D03*
X-61228D02*
D03*
D63*
X-52173Y-42024D02*
D03*
D64*
X-19826Y-77165D02*
D03*
X-20000Y72835D02*
D03*
D65*
X-27700Y-77165D02*
D03*
X-35574D02*
D03*
X-35748Y72835D02*
D03*
X-27874Y72835D02*
D03*
D66*
X-61024Y-61024D02*
D03*
X61024D02*
D03*
X-61024Y61024D02*
D03*
X61024D02*
D03*
D67*
X78000Y-1000D02*
D03*
Y-11000D02*
D03*
Y-21000D02*
D03*
D68*
Y-31000D02*
D03*
D69*
X35500Y79000D02*
D03*
X30500Y79000D02*
D03*
X25500D02*
D03*
X20500Y79000D02*
D03*
X15500D02*
D03*
X35500Y74000D02*
D03*
X30500Y74000D02*
D03*
X25500Y74000D02*
D03*
X20500D02*
D03*
D70*
X15500Y74000D02*
D03*
D95*
X7244Y-11417D02*
D03*
X-7756D02*
D03*
X7244Y10984D02*
D03*
X-7756D02*
D03*
X-2756Y-11417D02*
D03*
Y10984D02*
D03*
X2244Y-11417D02*
D03*
Y10984D02*
D03*
D96*
X-12000Y-22046D02*
D03*
Y-27754D02*
D03*
X-3650Y-22046D02*
D03*
Y-27754D02*
D03*
X4700D02*
D03*
Y-22046D02*
D03*
M02*
