M48
;Layer_Color=9474304
;FILE_FORMAT=2:5
INCH,LZ
;TYPE=PLATED
T1F00S00C0.01181
T2F00S00C0.01500
T3F00S00C0.01600
T4F00S00C0.02800
T5F00S00C0.03000
T6F00S00C0.03150
T7F00S00C0.03543
T9F00S00C0.17717
%
T01
X-00075Y00275
X0007
X00135Y00385
X0024577Y0032162
X00405Y003213
X0039Y003528
X00375Y0038429
X0036Y0041579
X004066Y0016698
X0044Y00145
X004Y0008288
X0033708Y0006208
X0031288Y0008288
X00285Y0011
X00255Y0017
X0055Y0026
X0059Y-0007181
X00525Y-0016
X0054523Y-0018985
X0055659Y-0023
X0052416
X0050958Y-0029542
X00535Y-0032
X00055Y0075319
T02
X-0066378Y-0081378
X-0058878
X-0051378
Y-0073878
X-0073878
X-0081378Y-0066378
Y-0058878
Y-0051378
X-0073878
X-0043878
X-0036378
Y-0058878
X-0043878
Y-0066378
Y-0073878
Y-0081378
X-0013878
X-0006378
X0001122
Y-0073878
X0008622
X0016122
X0023622
X0031122
X0038622
X0046122
X0053622
Y-0081378
X0061122
X0068622Y-0073878
X0076122Y-0066378
Y-0058878
Y-0051378
X0046122
Y-0058878
Y-0066378
X0038622
Y-0058878
X0023622Y-0056378
X0016122
X0009622
Y-0049378
X0002122
Y-0056378
X-0006378Y-0066378
Y-0073878
X-0013878
Y-0066378
X-0028878
X0008622Y-0081378
X0016122
X0023622
X0031122
X0038622
X0046122
X00405Y-00255
X00375
Y-00225
X00345
Y-00195
X00315
Y-00225
Y-00255
X00345
X00315Y-00165
X00225Y-00045
X0022Y00095
X001525Y0008
X0022Y0018
X003Y0026
X00375
X0053622Y0031122
X0061122
X0068622
X0076122
Y0023622
X0068622
Y0016122
X0061122Y0023622
X0053622Y0016122
Y0038622
X0068622
X00485Y00525
X0046122Y0061122
Y0068622
X0043769Y0075269
X0038622Y0076122
Y0061122
X0027Y006275
X0023622Y0046122
X0031122
X0038622
X-00005Y00475
Y0055
X00035Y0039
Y00315
X-0013878Y0038622
X-0021378
Y0016122
X-0013878
X-0006378Y0001122
X0001122
Y-0006378
X-0006378
X-0021378
Y-0021378
Y-0028878
Y-0036378
X-0013878
X-0006378
X0009622Y-0042378
X-0021378Y-0043878
X-0036378
Y-0036378
Y-0021378
X-0043878
X-0036378Y-0006378
X-0043878Y0008622
Y0016122
Y0023622
X-0036378
Y0031122
Y0046122
Y0053622
X-0043878
Y0061122
Y0068622
Y0076122
Y0046122
Y0038622
X-0013878Y0068622
X-0006378Y0076122
X0001122
X0010441Y0070441
X0074354Y0074098
X0081854Y0066598
X0066854Y0081598
X0055Y-001
X0061122Y-0021378
X0068622
X0061122Y-0028878
X0076122Y-0043878
X-0043878
X-0066378
Y-0036378
X-0073878
Y-0028878
Y-0021378
X-0066378
X-0051378
Y-0013878
X-0058878
X-0081378
Y-0006378
Y0001122
Y0008622
Y0016122
Y0023622
X-0073878
X-0066378
X-0058878
X-0051378
Y0016122
X-0059378
X-0066378
X-0073378
X-0073878Y0031122
X-0081378
Y0038622
Y0046122
Y0053622
X-0073878
X-0066378Y0046122
Y0038622
Y0076122
X-0058878
X-0051378
X-0073878
Y0068622
X-0081378
Y0061122
Y-0021378
Y-0028878
Y-0036378
Y-0043878
X-0073878
T03
X00015Y-0039
X00115Y-00105
X0023044Y-0010071
X0028Y-00045
X0020871Y-00198
T04
X00355Y-0052
X00445Y-0046
X-00065Y0037
Y0049
X0002Y00655
T05
X00155Y0074
Y0079
X00205
X00205Y0074
X00255
Y0079
X00305
X00305Y0074
X00355Y0074
X00355Y0079
T06
X-0035574Y-0077165
X-00277
X-0019826
X-002Y0072835
X-0027874Y0072835
X-0035748Y0072835
T07
X0078Y-0031
Y-0021
Y-0011
Y-0001
T09
X-0061024Y-0061024
X0061024
X0061024Y0061024
X-0061024
M30
