M48
;Layer_Color=9474304
;FILE_FORMAT=2:5
INCH,LZ
;TYPE=PLATED
T1F00S00C0.02800
T2F00S00C0.02953
T3F00S00C0.03543
T4F00S00C0.12205
%
T01
X0045Y0014
X0044Y0056
X0014Y005
X00665Y0032
X00705Y0014
X0097Y0012
X0115Y0018
X01355Y0022
X01315Y00495
X0104Y00445
X0089Y0038
X0076Y0058
X00765Y00825
X012Y00725
X0126Y0092
X0158Y00815
X0044Y009
T02
X00525Y0022362
X00725
X00625Y0012362
T03
X0014Y0021
Y0031
X01595
Y0021
X0114Y009
X0104
X0014Y0076
Y0066
T04
X003Y001
X014
Y009
X003
M30
