G04*
G04 #@! TF.GenerationSoftware,Altium Limited,Altium Designer,21.0.9 (235)*
G04*
G04 Layer_Physical_Order=1*
G04 Layer_Color=12101879*
%FSLAX25Y25*%
%MOIN*%
G70*
G04*
G04 #@! TF.SameCoordinates,75D1A4E6-31BD-42C8-8B3C-3027E6905E36*
G04*
G04*
G04 #@! TF.FilePolarity,Positive*
G04*
G01*
G75*
%ADD13O,0.02756X0.09843*%
%ADD14R,0.09252X0.08661*%
%ADD15R,0.05315X0.03740*%
%ADD16R,0.05315X0.06102*%
%ADD17R,0.05709X0.04724*%
%ADD18R,0.05315X0.03937*%
%ADD19R,0.03740X0.05315*%
%ADD20R,0.05315X0.09252*%
%ADD21R,0.06102X0.05315*%
%ADD22R,0.04528X0.05709*%
%ADD37C,0.01000*%
%ADD38C,0.02000*%
%ADD39C,0.12205*%
%ADD40R,0.04921X0.04921*%
%ADD41C,0.04921*%
%ADD42R,0.05906X0.05906*%
%ADD43C,0.05906*%
%ADD44R,0.05906X0.05906*%
%ADD45C,0.05000*%
G36*
X55502Y92379D02*
X55624Y90555D01*
X55656Y90447D01*
X55693Y90378D01*
X53307D01*
X53343Y90447D01*
X53376Y90555D01*
X53405Y90701D01*
X53430Y90885D01*
X53469Y91368D01*
X53500Y92793D01*
X55500D01*
X55502Y92379D01*
D02*
G37*
G36*
X116572Y87019D02*
X116242Y86899D01*
X115951Y86699D01*
X115699Y86419D01*
X115485Y86059D01*
X115311Y85619D01*
X115175Y85099D01*
X115078Y84499D01*
X115019Y83819D01*
X115000Y83059D01*
X113000D01*
X112981Y83819D01*
X112922Y84499D01*
X112825Y85099D01*
X112689Y85619D01*
X112515Y86059D01*
X112301Y86419D01*
X112049Y86699D01*
X111758Y86899D01*
X111428Y87019D01*
X111059Y87059D01*
X116941D01*
X116572Y87019D01*
D02*
G37*
G36*
X134751Y96174D02*
X134243Y95757D01*
X133230Y94523D01*
X132478Y93116D01*
X132015Y91588D01*
X131858Y90000D01*
X132015Y88412D01*
X132478Y86884D01*
X133230Y85477D01*
X134243Y84243D01*
X135361Y83326D01*
X135254Y82526D01*
X117633D01*
X117046Y83283D01*
X117056Y83706D01*
X117103Y84249D01*
X117172Y84678D01*
X117252Y84983D01*
X117277Y85047D01*
X118953D01*
Y86923D01*
X118980Y87059D01*
X118958Y87168D01*
X118968Y87279D01*
X118953Y87328D01*
Y94953D01*
X109047D01*
Y92822D01*
X108619Y92629D01*
X108247Y92601D01*
X107532Y93532D01*
X106498Y94326D01*
X105500Y94740D01*
Y90000D01*
X104000D01*
Y88500D01*
X98976D01*
X98570Y88077D01*
X97038Y88382D01*
X94636Y88539D01*
Y88526D01*
X85000D01*
X84967Y88522D01*
X84355Y88643D01*
X83725Y89054D01*
X83180Y89600D01*
X76605Y96174D01*
X76615Y96333D01*
X76845Y96974D01*
X134465D01*
X134751Y96174D01*
D02*
G37*
G36*
X52601Y96251D02*
X52473Y96095D01*
X51924Y95067D01*
X51586Y93952D01*
X51487Y92954D01*
X51461Y92837D01*
X51432Y91472D01*
X51402Y91104D01*
X51394Y91047D01*
X51393Y91042D01*
X51392Y91031D01*
X51376Y90952D01*
X51376Y90924D01*
X51363Y90860D01*
X51276Y90568D01*
X51286Y90472D01*
X51268Y90378D01*
X51327Y90079D01*
X51358Y89777D01*
X51404Y89692D01*
X51423Y89597D01*
X51474Y89521D01*
Y86146D01*
X51577Y85362D01*
X51880Y84633D01*
X52075Y84377D01*
Y82602D01*
X52260Y81674D01*
X52786Y80888D01*
X53572Y80362D01*
X54500Y80178D01*
X55428Y80362D01*
X56214Y80888D01*
X56555Y81398D01*
X56573Y81405D01*
X57427D01*
X57445Y81398D01*
X57786Y80888D01*
X58572Y80362D01*
X59500Y80178D01*
X60428Y80362D01*
X61214Y80888D01*
X61555Y81398D01*
X61573Y81405D01*
X62427D01*
X62445Y81398D01*
X62786Y80888D01*
X63572Y80362D01*
X64500Y80178D01*
X65428Y80362D01*
X66214Y80888D01*
X66556Y81398D01*
X66573Y81405D01*
X67427D01*
X67444Y81398D01*
X67786Y80888D01*
X68572Y80362D01*
X69500Y80178D01*
X70428Y80362D01*
X71214Y80888D01*
X71740Y81674D01*
X71925Y82602D01*
Y89689D01*
X71740Y90617D01*
X71214Y91403D01*
X71198Y91414D01*
X71375Y92258D01*
X71704Y92317D01*
X71737Y92314D01*
X72268Y91960D01*
X72289Y91931D01*
X78881Y85340D01*
X79438Y84766D01*
X79438Y84766D01*
X80630Y83788D01*
X81990Y83061D01*
X83465Y82613D01*
X85000Y82462D01*
Y82474D01*
X87510D01*
X88103Y81870D01*
X88098Y81748D01*
X88025Y81406D01*
X87883Y81094D01*
X87841Y81081D01*
X87638Y80903D01*
X87413Y80753D01*
X87340Y80644D01*
X87241Y80558D01*
X87121Y80316D01*
X86971Y80091D01*
X86945Y79963D01*
X86887Y79846D01*
X86868Y79576D01*
X86815Y79311D01*
X86841Y79182D01*
X86832Y79052D01*
X86918Y78796D01*
X86971Y78531D01*
X87043Y78422D01*
X87085Y78298D01*
X87262Y78094D01*
X87413Y77869D01*
X87521Y77796D01*
X87607Y77698D01*
X87843Y77580D01*
Y75417D01*
X86843D01*
Y73047D01*
X91500D01*
Y71547D01*
X93000D01*
Y67677D01*
X96157D01*
Y69351D01*
X96342Y70075D01*
X96605D01*
X97342Y69925D01*
Y66730D01*
X97107Y66614D01*
X97021Y66515D01*
X96913Y66442D01*
X96762Y66217D01*
X96585Y66013D01*
X96543Y65889D01*
X96471Y65781D01*
X96418Y65515D01*
X96332Y65259D01*
X96341Y65128D01*
X96315Y65000D01*
X96368Y64735D01*
X96387Y64465D01*
X96445Y64348D01*
X96471Y64220D01*
X96621Y63995D01*
X96705Y63826D01*
X96516Y63232D01*
X96500Y63194D01*
X96379Y63026D01*
X96303D01*
X96246Y63039D01*
X95544Y63056D01*
X94994Y63100D01*
X94558Y63167D01*
X94244Y63245D01*
X94157Y63278D01*
X94136Y63344D01*
X94081Y63623D01*
X94016Y63720D01*
X93980Y63832D01*
X93796Y64048D01*
X93639Y64284D01*
X93541Y64349D01*
X93466Y64439D01*
X93213Y64569D01*
X92977Y64726D01*
X92862Y64749D01*
X92758Y64803D01*
X92475Y64826D01*
X92197Y64881D01*
X92082Y64859D01*
X91965Y64868D01*
X91695Y64782D01*
X91416Y64726D01*
X91319Y64661D01*
X91207Y64626D01*
X90991Y64442D01*
X90755Y64284D01*
X90690Y64187D01*
X90600Y64111D01*
X90470Y63859D01*
X90468Y63854D01*
X86776D01*
X86757Y63883D01*
X86595Y64167D01*
X86537Y64212D01*
X86497Y64272D01*
X86225Y64454D01*
X85966Y64655D01*
X85896Y64674D01*
X85835Y64714D01*
X85604Y65331D01*
Y65331D01*
X85604Y65331D01*
X85604Y65335D01*
X85595Y65379D01*
X85424Y67561D01*
X84901Y69736D01*
X84046Y71802D01*
X82877Y73709D01*
X81927Y74821D01*
X81867Y74892D01*
X81928Y74821D01*
X81927Y74821D01*
X81426Y75414D01*
X81423Y75418D01*
X81422Y75419D01*
X81421Y75419D01*
X81307Y75496D01*
X80141Y76491D01*
X78711Y77368D01*
X77161Y78010D01*
X75530Y78401D01*
X73991Y78522D01*
X73858Y78549D01*
X47828D01*
X47790Y78541D01*
X46000Y78365D01*
X44241Y77832D01*
X42621Y76965D01*
X41230Y75824D01*
X41198Y75802D01*
X41136Y75710D01*
X41092Y75677D01*
X40241Y75524D01*
X40182Y75563D01*
X40139Y75619D01*
X39853Y75783D01*
X39579Y75966D01*
X39510Y75980D01*
X39449Y76015D01*
X39122Y76057D01*
X38799Y76121D01*
X38730Y76107D01*
X38660Y76116D01*
X38342Y76030D01*
X38019Y75966D01*
X37960Y75927D01*
X37892Y75908D01*
X37631Y75707D01*
X37557Y75657D01*
X34083D01*
X34083Y75657D01*
X33917D01*
Y75657D01*
X33283Y75657D01*
X28177D01*
Y71062D01*
X28170Y71058D01*
X27887Y70897D01*
X27841Y70838D01*
X27779Y70796D01*
X27598Y70526D01*
X27398Y70269D01*
X27378Y70197D01*
X27337Y70135D01*
X27273Y69816D01*
X27187Y69502D01*
X27196Y69428D01*
X27182Y69354D01*
X27245Y69035D01*
X27286Y68712D01*
X27322Y68647D01*
X27337Y68574D01*
X27518Y68304D01*
X27679Y68021D01*
X27738Y67975D01*
X27779Y67913D01*
X28030Y67745D01*
X28230Y67393D01*
X28213Y67083D01*
X28143Y66747D01*
X27923Y66600D01*
X27626Y66541D01*
X27586Y66549D01*
X26049D01*
Y69793D01*
X26039Y69845D01*
X25869Y71564D01*
X25353Y73267D01*
X24514Y74837D01*
X23418Y76172D01*
X23388Y76217D01*
X22802Y76802D01*
X22631Y76917D01*
X21888Y77527D01*
X20860Y78076D01*
X19745Y78414D01*
X18953Y78492D01*
Y80953D01*
X9047D01*
Y71047D01*
X11178D01*
X11371Y70619D01*
X11399Y70247D01*
X10468Y69532D01*
X9674Y68498D01*
X9261Y67500D01*
X14000D01*
X18740D01*
X18326Y68498D01*
X17532Y69532D01*
X16601Y70247D01*
X16629Y70619D01*
X16822Y71047D01*
X18953D01*
Y72311D01*
X19086Y72366D01*
X19783Y72612D01*
X20281Y72018D01*
X20446Y71803D01*
X20847Y70833D01*
X20971Y69894D01*
X20951Y69793D01*
Y64000D01*
Y35000D01*
X20965Y34931D01*
X20866Y34434D01*
X20583Y34010D01*
X20522Y33970D01*
X20484Y33914D01*
X20066Y33634D01*
X19753Y33572D01*
X18953Y34012D01*
Y35953D01*
X9047D01*
Y26047D01*
X11178D01*
X11371Y25619D01*
X11399Y25247D01*
X10468Y24532D01*
X9674Y23498D01*
X9261Y22500D01*
X14000D01*
X18740D01*
X18326Y23498D01*
X17532Y24532D01*
X16601Y25247D01*
X16629Y25619D01*
X16822Y26047D01*
X18953D01*
Y27928D01*
X19500Y28451D01*
X20287Y28546D01*
X20774Y28594D01*
X22000Y28966D01*
X23129Y29569D01*
X23974Y30263D01*
X24127Y30365D01*
X24222Y30508D01*
X24931Y31371D01*
X25534Y32500D01*
X25906Y33726D01*
X26014Y34825D01*
X26049Y35000D01*
Y61451D01*
X27088D01*
X27611Y61376D01*
X27843Y60686D01*
Y56217D01*
X31000D01*
Y61343D01*
X30470D01*
X30269Y62142D01*
X30887Y62473D01*
X31631Y63083D01*
X31802Y63198D01*
X31913Y63363D01*
X32548Y64137D01*
X33112Y65192D01*
X33459Y66337D01*
X33557Y67333D01*
X33560Y67345D01*
X33585Y67450D01*
X33585Y67457D01*
X33654Y67471D01*
X33716Y67512D01*
X33788Y67532D01*
X34045Y67732D01*
X34315Y67913D01*
X34357Y67975D01*
X34416Y68021D01*
X34577Y68304D01*
X34603Y68343D01*
X37645D01*
X37894Y68151D01*
X37961Y68133D01*
X38019Y68094D01*
X38343Y68030D01*
X38663Y67944D01*
X38731Y67953D01*
X38799Y67939D01*
X39123Y68004D01*
X39452Y68046D01*
X39511Y68081D01*
X39579Y68094D01*
X39854Y68278D01*
X40141Y68443D01*
X40183Y68498D01*
X40241Y68536D01*
X40425Y68812D01*
X40626Y69074D01*
X40644Y69140D01*
X40683Y69198D01*
X40747Y69523D01*
X40834Y69842D01*
X40834Y69849D01*
X40874Y69869D01*
X41028Y69928D01*
X41315Y70010D01*
X41430Y70069D01*
X41451Y70075D01*
X41568Y70100D01*
X41594Y70118D01*
X41759Y70168D01*
X43379Y71035D01*
X44770Y72176D01*
X44802Y72198D01*
X44864Y72290D01*
X45671Y72909D01*
X46712Y73340D01*
X47720Y73473D01*
X47828Y73451D01*
X53561D01*
X53640Y72651D01*
X53572Y72638D01*
X52786Y72112D01*
X52260Y71325D01*
X52075Y70398D01*
Y66980D01*
X51951Y66354D01*
Y64122D01*
X51865Y64064D01*
X51742Y63880D01*
X51588Y63719D01*
X51523Y63552D01*
X51423Y63402D01*
X51380Y63185D01*
X51299Y62978D01*
X51303Y62798D01*
X51268Y62622D01*
X51311Y62404D01*
X51316Y62182D01*
X51388Y62018D01*
X51423Y61842D01*
X51546Y61657D01*
X51635Y61454D01*
X51717Y61338D01*
X51749Y61282D01*
X51784Y61208D01*
X51821Y61112D01*
X51857Y60994D01*
X51890Y60852D01*
X51914Y60711D01*
X51951Y60307D01*
Y31621D01*
X51975Y31501D01*
X52110Y30127D01*
X52546Y28691D01*
X53137Y27584D01*
X52833Y27001D01*
X52650Y26842D01*
X52500Y26861D01*
X51336Y26708D01*
X50250Y26259D01*
X49541Y25714D01*
X49446Y25662D01*
X49282Y25523D01*
X49174Y25457D01*
X48974Y25364D01*
X48680Y25263D01*
X48297Y25164D01*
X47873Y25083D01*
X45905Y24913D01*
X45816Y24911D01*
X41648D01*
X40803Y25559D01*
X39645Y26039D01*
X38521Y26187D01*
X38403Y26210D01*
X37457D01*
X37411Y26442D01*
X37371Y26502D01*
X37352Y26572D01*
X37151Y26831D01*
X36969Y27103D01*
X36551Y27681D01*
Y34996D01*
X36221D01*
X36202Y35025D01*
X36040Y35309D01*
X35982Y35353D01*
X35942Y35414D01*
X35670Y35596D01*
X35411Y35796D01*
X35341Y35816D01*
X35280Y35856D01*
X35049Y35902D01*
Y37751D01*
X35280Y37797D01*
X35341Y37838D01*
X35411Y37857D01*
X35670Y38058D01*
X35942Y38240D01*
X35982Y38300D01*
X36040Y38345D01*
X36202Y38629D01*
X36384Y38901D01*
X36398Y38972D01*
X36434Y39036D01*
X36475Y39360D01*
X36539Y39682D01*
X36525Y39753D01*
X36534Y39825D01*
X36448Y40141D01*
X36384Y40462D01*
X36344Y40522D01*
X36324Y40593D01*
X36158Y40808D01*
Y48090D01*
X37157D01*
Y53216D01*
X32500D01*
X27843D01*
Y48090D01*
X28842D01*
Y40808D01*
X28676Y40593D01*
X28657Y40522D01*
X28616Y40462D01*
X28552Y40141D01*
X28466Y39825D01*
X28475Y39753D01*
X28461Y39682D01*
X28525Y39360D01*
X28566Y39036D01*
X28602Y38972D01*
X28616Y38901D01*
X28798Y38629D01*
X28960Y38345D01*
X29018Y38300D01*
X29058Y38240D01*
X29330Y38058D01*
X29589Y37857D01*
X29659Y37838D01*
X29720Y37797D01*
X29951Y37751D01*
Y35902D01*
X29720Y35856D01*
X29659Y35816D01*
X29589Y35796D01*
X29330Y35596D01*
X29058Y35414D01*
X29018Y35353D01*
X28960Y35309D01*
X28798Y35025D01*
X28779Y34996D01*
X28449D01*
Y27681D01*
X28449Y27681D01*
Y27319D01*
X28449D01*
X28449Y26881D01*
Y20004D01*
X34401D01*
X34616Y19837D01*
X34686Y19818D01*
X34747Y19777D01*
X35068Y19714D01*
X35384Y19627D01*
X35456Y19636D01*
X35527Y19622D01*
X35848Y19686D01*
X36173Y19727D01*
X36236Y19763D01*
X36307Y19777D01*
X36580Y19959D01*
X36864Y20121D01*
X36909Y20179D01*
X36969Y20220D01*
X37151Y20492D01*
X37352Y20750D01*
X37371Y20820D01*
X37411Y20881D01*
X37457Y21112D01*
X38323D01*
X39181Y20454D01*
X40319Y19983D01*
X41412Y19839D01*
X41540Y19813D01*
X45816D01*
X45925Y19812D01*
X47297Y19720D01*
X47827Y19650D01*
X48297Y19561D01*
X48680Y19462D01*
X48974Y19360D01*
X49174Y19268D01*
X49282Y19201D01*
X49446Y19062D01*
X49541Y19010D01*
X50250Y18466D01*
X51336Y18016D01*
X52500Y17863D01*
X53651Y18015D01*
X53821Y18032D01*
X54451Y17526D01*
Y13828D01*
X54459Y13790D01*
X54635Y12000D01*
X55168Y10241D01*
X56035Y8621D01*
X57176Y7230D01*
X57198Y7198D01*
X57302Y7128D01*
X58529Y6080D01*
X60010Y5172D01*
X61615Y4508D01*
X63304Y4102D01*
X64912Y3976D01*
X65035Y3951D01*
X95858D01*
X95944Y3968D01*
X97819Y4116D01*
X99733Y4575D01*
X101550Y5328D01*
X103228Y6356D01*
X104658Y7578D01*
X104731Y7626D01*
X106035Y8930D01*
X106084Y9003D01*
X107305Y10434D01*
X108333Y12111D01*
X109086Y13929D01*
X109546Y15842D01*
X109693Y17718D01*
X109710Y17804D01*
Y26043D01*
X109942Y26089D01*
X110002Y26129D01*
X110073Y26149D01*
X110331Y26349D01*
X110603Y26531D01*
X111181Y26949D01*
X118496D01*
Y27271D01*
X118537Y27298D01*
X118822Y27461D01*
X118866Y27518D01*
X118926Y27558D01*
X119108Y27831D01*
X119309Y28090D01*
X119328Y28159D01*
X119368Y28220D01*
X119414Y28451D01*
X123451D01*
Y22729D01*
X123220Y22683D01*
X123159Y22642D01*
X123089Y22623D01*
X122830Y22423D01*
X122558Y22241D01*
X122518Y22180D01*
X122460Y22136D01*
X122298Y21851D01*
X122116Y21579D01*
X122102Y21508D01*
X122066Y21445D01*
X122025Y21120D01*
X121961Y20799D01*
X121975Y20728D01*
X121966Y20655D01*
X122052Y20339D01*
X122116Y20019D01*
X122157Y19958D01*
X122176Y19888D01*
X122343Y19673D01*
Y16917D01*
X121343D01*
Y14547D01*
X126000D01*
X130657D01*
Y16917D01*
X129657D01*
Y19673D01*
X129824Y19888D01*
X129843Y19958D01*
X129884Y20019D01*
X129948Y20339D01*
X130034Y20655D01*
X130025Y20728D01*
X130039Y20799D01*
X129975Y21120D01*
X129934Y21445D01*
X129898Y21508D01*
X129884Y21579D01*
X129702Y21851D01*
X129540Y22136D01*
X129482Y22180D01*
X129442Y22241D01*
X129170Y22423D01*
X128911Y22623D01*
X128841Y22642D01*
X128780Y22683D01*
X128549Y22729D01*
Y28451D01*
X131358D01*
X131476Y28475D01*
X132818Y28342D01*
X134223Y27916D01*
X135517Y27224D01*
X136560Y26368D01*
X136627Y26269D01*
X140769Y22127D01*
X140842Y22078D01*
X142272Y20856D01*
X143950Y19828D01*
X145767Y19075D01*
X147681Y18616D01*
X149556Y18468D01*
X149642Y18451D01*
X154547D01*
Y16047D01*
X162164D01*
X162577Y15247D01*
X161104Y13171D01*
X159087Y10914D01*
X156830Y8896D01*
X154361Y7145D01*
X151712Y5681D01*
X148915Y4522D01*
X146434Y3808D01*
X145974Y4507D01*
X146769Y5477D01*
X147522Y6884D01*
X147985Y8412D01*
X148142Y10000D01*
X147985Y11588D01*
X147522Y13116D01*
X146769Y14523D01*
X145757Y15757D01*
X144523Y16770D01*
X143116Y17522D01*
X141588Y17985D01*
X140000Y18142D01*
X138412Y17985D01*
X136884Y17522D01*
X135477Y16770D01*
X134243Y15757D01*
X133230Y14523D01*
X132478Y13116D01*
X132015Y11588D01*
X131858Y10000D01*
X132015Y8412D01*
X132478Y6884D01*
X133230Y5477D01*
X134243Y4243D01*
X134751Y3826D01*
X134465Y3026D01*
X35535D01*
X35249Y3826D01*
X35757Y4243D01*
X36770Y5477D01*
X37522Y6884D01*
X37985Y8412D01*
X38142Y10000D01*
X37985Y11588D01*
X37522Y13116D01*
X36770Y14523D01*
X35757Y15757D01*
X34523Y16770D01*
X33116Y17522D01*
X31588Y17985D01*
X30000Y18142D01*
X28412Y17985D01*
X26884Y17522D01*
X25477Y16770D01*
X24243Y15757D01*
X23231Y14523D01*
X22478Y13116D01*
X22015Y11588D01*
X21858Y10000D01*
X22015Y8412D01*
X22478Y6884D01*
X23231Y5477D01*
X24026Y4507D01*
X23565Y3808D01*
X21085Y4522D01*
X18288Y5681D01*
X15639Y7145D01*
X13171Y8896D01*
X10914Y10914D01*
X8896Y13171D01*
X7145Y15639D01*
X5681Y18288D01*
X4522Y21085D01*
X3684Y23994D01*
X3177Y26978D01*
X3013Y29902D01*
X3026Y30000D01*
Y70000D01*
X3013Y70098D01*
X3177Y73022D01*
X3684Y76006D01*
X4522Y78915D01*
X5681Y81712D01*
X7145Y84361D01*
X8896Y86830D01*
X10914Y89087D01*
X13171Y91104D01*
X15639Y92855D01*
X18288Y94319D01*
X21085Y95478D01*
X23565Y96192D01*
X24026Y95493D01*
X23231Y94523D01*
X22478Y93116D01*
X22015Y91588D01*
X21858Y90000D01*
X22015Y88412D01*
X22478Y86884D01*
X23231Y85477D01*
X24243Y84243D01*
X25477Y83231D01*
X26884Y82478D01*
X28412Y82015D01*
X30000Y81858D01*
X31588Y82015D01*
X33116Y82478D01*
X34523Y83231D01*
X35757Y84243D01*
X36770Y85477D01*
X37522Y86884D01*
X37985Y88412D01*
X38142Y90000D01*
X37985Y91588D01*
X37522Y93116D01*
X36770Y94523D01*
X35757Y95757D01*
X35249Y96174D01*
X35535Y96974D01*
X52259D01*
X52601Y96251D01*
D02*
G37*
G36*
X94500Y84500D02*
X94120Y84480D01*
X93780Y84420D01*
X93480Y84320D01*
X93220Y84180D01*
X93000Y84000D01*
X92820Y83780D01*
X92680Y83520D01*
X92580Y83220D01*
X92520Y82880D01*
X92512Y82736D01*
X92516Y82551D01*
X92648Y81271D01*
X92763Y80751D01*
X92911Y80311D01*
X93092Y79951D01*
X93306Y79671D01*
X93553Y79471D01*
X93833Y79351D01*
X94146Y79311D01*
X88854D01*
X89167Y79351D01*
X89447Y79471D01*
X89694Y79671D01*
X89908Y79951D01*
X90089Y80311D01*
X90237Y80751D01*
X90352Y81271D01*
X90434Y81871D01*
X90484Y82551D01*
X90488Y82736D01*
X90480Y82880D01*
X90420Y83220D01*
X90320Y83520D01*
X90180Y83780D01*
X90000Y84000D01*
X89780Y84180D01*
X89520Y84320D01*
X89220Y84420D01*
X88880Y84480D01*
X88500Y84500D01*
X91500Y86500D01*
X94500Y84500D01*
D02*
G37*
G36*
X115020Y82120D02*
X115080Y81780D01*
X115180Y81480D01*
X115320Y81220D01*
X115500Y81000D01*
X115720Y80820D01*
X115980Y80680D01*
X116280Y80580D01*
X116620Y80520D01*
X117000Y80500D01*
X114000Y78500D01*
X111000Y80500D01*
X111380Y80520D01*
X111720Y80580D01*
X112020Y80680D01*
X112280Y80820D01*
X112500Y81000D01*
X112680Y81220D01*
X112820Y81480D01*
X112920Y81780D01*
X112980Y82120D01*
X113000Y82500D01*
X115000D01*
X115020Y82120D01*
D02*
G37*
G36*
X66000Y75500D02*
X65810Y75490D01*
X65640Y75460D01*
X65490Y75410D01*
X65360Y75340D01*
X65250Y75250D01*
X65160Y75140D01*
X65090Y75010D01*
X65040Y74860D01*
X65010Y74690D01*
X65000Y74500D01*
X64000D01*
X63990Y74690D01*
X63960Y74860D01*
X63910Y75010D01*
X63840Y75140D01*
X63750Y75250D01*
X63640Y75340D01*
X63510Y75410D01*
X63360Y75460D01*
X63190Y75490D01*
X63000Y75500D01*
X64500Y76500D01*
X66000Y75500D01*
D02*
G37*
G36*
X16945Y77428D02*
X16995Y77233D01*
X17078Y77061D01*
X17194Y76912D01*
X17343Y76786D01*
X17525Y76683D01*
X17741Y76603D01*
X17989Y76546D01*
X18271Y76512D01*
X18586Y76500D01*
Y75500D01*
X18271Y75489D01*
X17989Y75454D01*
X17741Y75397D01*
X17525Y75317D01*
X17343Y75214D01*
X17194Y75088D01*
X17078Y74939D01*
X16995Y74767D01*
X16945Y74572D01*
X16929Y74355D01*
Y77645D01*
X16945Y77428D01*
D02*
G37*
G36*
X134000Y78500D02*
X133620Y78480D01*
X133280Y78420D01*
X132980Y78320D01*
X132720Y78180D01*
X132500Y78000D01*
X132320Y77780D01*
X132180Y77520D01*
X132080Y77220D01*
X132041Y77000D01*
X132148Y75960D01*
X132263Y75440D01*
X132411Y75000D01*
X132592Y74640D01*
X132806Y74360D01*
X133053Y74160D01*
X133333Y74040D01*
X133645Y74000D01*
X128355D01*
X128667Y74040D01*
X128947Y74160D01*
X129194Y74360D01*
X129408Y74640D01*
X129589Y75000D01*
X129737Y75440D01*
X129852Y75960D01*
X129934Y76560D01*
X129964Y76971D01*
X129920Y77220D01*
X129820Y77520D01*
X129680Y77780D01*
X129500Y78000D01*
X129280Y78180D01*
X129020Y78320D01*
X128720Y78420D01*
X128380Y78480D01*
X128000Y78500D01*
X131000Y80500D01*
X134000Y78500D01*
D02*
G37*
G36*
X65007Y73341D02*
X65062Y72731D01*
X65111Y72450D01*
X65173Y72184D01*
X65250Y71933D01*
X65340Y71698D01*
X65444Y71479D01*
X65561Y71275D01*
X65693Y71087D01*
X63307D01*
X63438Y71275D01*
X63556Y71479D01*
X63660Y71698D01*
X63750Y71933D01*
X63827Y72184D01*
X63889Y72450D01*
X63938Y72731D01*
X63972Y73028D01*
X64000Y73669D01*
X65000D01*
X65007Y73341D01*
D02*
G37*
G36*
X149013Y72725D02*
X149054Y72326D01*
X149120Y71974D01*
X149214Y71668D01*
X149334Y71410D01*
X149481Y71198D01*
X149655Y71034D01*
X149856Y70916D01*
X150083Y70846D01*
X150337Y70823D01*
X145663D01*
X145917Y70846D01*
X146144Y70916D01*
X146345Y71034D01*
X146519Y71198D01*
X146666Y71410D01*
X146786Y71668D01*
X146880Y71974D01*
X146947Y72326D01*
X146987Y72725D01*
X147000Y73172D01*
X149000D01*
X149013Y72725D01*
D02*
G37*
G36*
X38818Y73799D02*
X38876Y73556D01*
X38973Y73353D01*
X39109Y73189D01*
X39283Y73065D01*
X39496Y72981D01*
X39748Y72937D01*
X40039Y72933D01*
X40368Y72968D01*
X40736Y73043D01*
X40755Y71970D01*
X40383Y71864D01*
X40051Y71737D01*
X39757Y71590D01*
X39503Y71422D01*
X39288Y71233D01*
X39112Y71023D01*
X38975Y70793D01*
X38877Y70542D01*
X38818Y70271D01*
X38799Y69978D01*
Y74082D01*
X38818Y73799D01*
D02*
G37*
G36*
X107529Y76617D02*
X109121Y76461D01*
Y76474D01*
X127020D01*
X127036Y76449D01*
X127161Y76171D01*
X127232Y75674D01*
X127137Y75592D01*
X126913Y75442D01*
X126840Y75333D01*
X126741Y75247D01*
X126621Y75005D01*
X126471Y74780D01*
X126445Y74652D01*
X126387Y74535D01*
X126368Y74265D01*
X126315Y74000D01*
X126341Y73871D01*
X126332Y73741D01*
X126418Y73485D01*
X126471Y73219D01*
X126543Y73111D01*
X126585Y72987D01*
X126762Y72783D01*
X126913Y72558D01*
X127021Y72485D01*
X127107Y72386D01*
X127342Y72269D01*
Y69226D01*
X127342D01*
X127342D01*
X127046Y68500D01*
X127003Y68415D01*
X126913Y68355D01*
X126818Y68213D01*
X126803Y68200D01*
X126649Y68171D01*
X125025Y68047D01*
X124330Y68039D01*
X124268Y68026D01*
X114828D01*
Y68048D01*
X112902Y67858D01*
X111049Y67296D01*
X109342Y66383D01*
X107845Y65155D01*
X107845Y65155D01*
X107295Y64574D01*
X106275Y63554D01*
X106178Y63551D01*
X106071Y63590D01*
X106071Y63591D01*
X105806Y63899D01*
X105613Y64465D01*
X105632Y64735D01*
X105685Y65000D01*
X105659Y65128D01*
X105668Y65259D01*
X105582Y65515D01*
X105529Y65781D01*
X105457Y65889D01*
X105415Y66013D01*
X105238Y66217D01*
X105087Y66442D01*
X104979Y66515D01*
X104893Y66614D01*
X104657Y66730D01*
Y69925D01*
X105395Y70075D01*
X105657D01*
Y72543D01*
X101000D01*
Y75543D01*
X105657D01*
Y76406D01*
X106457Y76943D01*
X107529Y76617D01*
D02*
G37*
G36*
X32621Y69336D02*
X32396Y69282D01*
X32197Y69190D01*
X32025Y69062D01*
X31879Y68898D01*
X31759Y68697D01*
X31667Y68460D01*
X31600Y68186D01*
X31561Y67875D01*
X31547Y67528D01*
X30547D01*
X30534Y67875D01*
X30494Y68186D01*
X30428Y68460D01*
X30335Y68697D01*
X30216Y68898D01*
X30070Y69062D01*
X29897Y69190D01*
X29698Y69282D01*
X29473Y69336D01*
X29221Y69354D01*
X32873D01*
X32621Y69336D01*
D02*
G37*
G36*
X128355Y63000D02*
X128314Y63190D01*
X128194Y63360D01*
X127995Y63510D01*
X127715Y63640D01*
X127355Y63750D01*
X126915Y63840D01*
X126394Y63910D01*
X125115Y63990D01*
X124355Y64000D01*
Y66000D01*
X125115Y66009D01*
X126915Y66146D01*
X127355Y66228D01*
X127715Y66329D01*
X127995Y66448D01*
X128194Y66584D01*
X128314Y66740D01*
X128355Y66913D01*
Y63000D01*
D02*
G37*
G36*
X83570Y64460D02*
X83615Y64118D01*
X83690Y63816D01*
X83795Y63555D01*
X83930Y63333D01*
X84095Y63152D01*
X84290Y63011D01*
X84515Y62911D01*
X84770Y62850D01*
X85055Y62830D01*
X81055D01*
X81340Y62850D01*
X81595Y62911D01*
X81820Y63011D01*
X82015Y63152D01*
X82180Y63333D01*
X82315Y63555D01*
X82420Y63816D01*
X82495Y64118D01*
X82540Y64460D01*
X82555Y64842D01*
X83555D01*
X83570Y64460D01*
D02*
G37*
G36*
X24010Y65310D02*
X24040Y65140D01*
X24090Y64990D01*
X24160Y64860D01*
X24250Y64750D01*
X24360Y64660D01*
X24490Y64590D01*
X24640Y64540D01*
X24810Y64510D01*
X25000Y64500D01*
Y63500D01*
X24810Y63490D01*
X24640Y63460D01*
X24490Y63410D01*
X24360Y63340D01*
X24250Y63250D01*
X24160Y63140D01*
X24090Y63010D01*
X24040Y62860D01*
X24010Y62690D01*
X24000Y62500D01*
X23000Y64000D01*
X24000Y65500D01*
X24010Y65310D01*
D02*
G37*
G36*
X148915Y95478D02*
X151712Y94319D01*
X154361Y92855D01*
X156830Y91104D01*
X159087Y89087D01*
X161104Y86830D01*
X162855Y84361D01*
X164319Y81712D01*
X165478Y78915D01*
X166316Y76006D01*
X166823Y73022D01*
X166987Y70098D01*
X166974Y70000D01*
Y30000D01*
X166987Y29902D01*
X166823Y26978D01*
X166316Y23994D01*
X165478Y21085D01*
X165237Y20505D01*
X164453Y20661D01*
Y25953D01*
X162322D01*
X162129Y26381D01*
X162101Y26753D01*
X163032Y27468D01*
X163826Y28502D01*
X164240Y29500D01*
X159500D01*
X154761D01*
X155174Y28502D01*
X155968Y27468D01*
X156899Y26753D01*
X156871Y26381D01*
X156678Y25953D01*
X154547D01*
Y23549D01*
X149642D01*
X149524Y23526D01*
X148182Y23658D01*
X146777Y24084D01*
X145483Y24776D01*
X144440Y25631D01*
X144374Y25731D01*
X140231Y29873D01*
X140158Y29922D01*
X138728Y31144D01*
X137050Y32172D01*
X135232Y32925D01*
X133319Y33384D01*
X131444Y33532D01*
X131358Y33549D01*
X119414D01*
X119368Y33780D01*
X119328Y33841D01*
X119309Y33910D01*
X119108Y34169D01*
X118926Y34442D01*
X118866Y34482D01*
X118822Y34539D01*
X118537Y34702D01*
X118496Y34729D01*
Y35051D01*
X111181D01*
X111181Y35051D01*
X110819D01*
Y35051D01*
X110381Y35051D01*
X103504D01*
Y29099D01*
X103337Y28884D01*
X103318Y28814D01*
X103277Y28753D01*
X103214Y28432D01*
X103127Y28116D01*
X103136Y28044D01*
X103122Y27973D01*
X103186Y27652D01*
X103227Y27327D01*
X103263Y27264D01*
X103277Y27193D01*
X103459Y26920D01*
X103621Y26636D01*
X103679Y26591D01*
X103719Y26531D01*
X103992Y26349D01*
X104250Y26149D01*
X104321Y26129D01*
X104381Y26089D01*
X104612Y26043D01*
Y17804D01*
X104636Y17686D01*
X104504Y16343D01*
X104078Y14939D01*
X103386Y13645D01*
X102530Y12602D01*
X102430Y12535D01*
X101127Y11231D01*
X101060Y11131D01*
X100017Y10276D01*
X98723Y9584D01*
X97318Y9158D01*
X95976Y9025D01*
X95858Y9049D01*
X92875D01*
X92348Y9651D01*
X92367Y9799D01*
X92909Y11107D01*
X93686Y12120D01*
X93802Y12198D01*
X94762Y13157D01*
X95328Y13723D01*
X95328Y13723D01*
X95328Y13723D01*
X95399Y13829D01*
X96436Y15044D01*
X97227Y16334D01*
X97297Y16430D01*
X97335Y16511D01*
X97337Y16514D01*
X97339Y16520D01*
X97426Y16705D01*
X97516Y16861D01*
X97593Y16970D01*
X97653Y17037D01*
X97692Y17072D01*
X97714Y17087D01*
X97725Y17092D01*
X97739Y17097D01*
X97772Y17103D01*
X97954Y17114D01*
X98282Y17200D01*
X98614Y17266D01*
X98665Y17300D01*
X98724Y17316D01*
X98994Y17520D01*
X99275Y17708D01*
X99309Y17759D01*
X99358Y17796D01*
X99529Y18088D01*
X99562Y18138D01*
X99854D01*
Y19060D01*
X99872Y19150D01*
X99860Y19210D01*
X99869Y19271D01*
X99854Y19326D01*
Y24862D01*
X92146D01*
Y20673D01*
X92111Y20627D01*
X92058Y20592D01*
X91871Y20312D01*
X91668Y20045D01*
X91651Y19983D01*
X91616Y19930D01*
X91550Y19601D01*
X91465Y19275D01*
X91473Y19212D01*
X91461Y19150D01*
X91526Y18820D01*
X91572Y18487D01*
X91604Y18432D01*
X91616Y18369D01*
X91777Y18129D01*
X91730Y17436D01*
X91528Y17132D01*
X90198Y15802D01*
X90119Y15684D01*
X89144Y14543D01*
X88286Y13144D01*
X87659Y11628D01*
X87275Y10032D01*
X87198Y9049D01*
X86049D01*
Y18771D01*
X86280Y18817D01*
X86341Y18858D01*
X86411Y18877D01*
X86670Y19077D01*
X86942Y19259D01*
X86982Y19320D01*
X87040Y19364D01*
X87202Y19649D01*
X87384Y19921D01*
X87398Y19992D01*
X87434Y20055D01*
X87475Y20380D01*
X87539Y20701D01*
X87525Y20773D01*
X87534Y20845D01*
X87448Y21160D01*
X87384Y21482D01*
X87344Y21542D01*
X87324Y21612D01*
X87157Y21827D01*
Y25417D01*
X87157D01*
Y25583D01*
X87157D01*
Y29173D01*
X87324Y29388D01*
X87344Y29458D01*
X87384Y29518D01*
X87448Y29840D01*
X87534Y30155D01*
X87525Y30228D01*
X87539Y30299D01*
X87475Y30620D01*
X87434Y30945D01*
X87398Y31008D01*
X87384Y31079D01*
X87202Y31351D01*
X87040Y31636D01*
X86982Y31680D01*
X86942Y31741D01*
X86670Y31923D01*
X86411Y32123D01*
X86341Y32142D01*
X86280Y32183D01*
X86049Y32229D01*
Y41872D01*
X86642Y42409D01*
X87318Y42342D01*
X88723Y41916D01*
X90017Y41224D01*
X91060Y40369D01*
X91127Y40269D01*
X92198Y39198D01*
X92290Y39136D01*
X92909Y38329D01*
X93340Y37288D01*
X93473Y36280D01*
X93451Y36172D01*
Y33642D01*
X93220Y33596D01*
X93159Y33556D01*
X93089Y33536D01*
X92830Y33336D01*
X92558Y33154D01*
X92518Y33094D01*
X92460Y33049D01*
X92298Y32765D01*
X92279Y32736D01*
X92146D01*
Y32537D01*
X92116Y32493D01*
X92102Y32421D01*
X92066Y32358D01*
X92025Y32033D01*
X91961Y31712D01*
X91975Y31641D01*
X91966Y31569D01*
X92052Y31253D01*
X92116Y30932D01*
X92146Y30887D01*
Y26012D01*
X99854D01*
Y30887D01*
X99884Y30932D01*
X99948Y31253D01*
X100034Y31569D01*
X100025Y31641D01*
X100039Y31712D01*
X99975Y32033D01*
X99934Y32358D01*
X99898Y32421D01*
X99884Y32493D01*
X99854Y32537D01*
Y32736D01*
X99721D01*
X99702Y32765D01*
X99540Y33049D01*
X99482Y33094D01*
X99442Y33154D01*
X99170Y33336D01*
X98911Y33536D01*
X98841Y33556D01*
X98780Y33596D01*
X98549Y33642D01*
Y36172D01*
X98541Y36210D01*
X98365Y38000D01*
X97832Y39759D01*
X96965Y41379D01*
X95824Y42770D01*
X95802Y42802D01*
X94731Y43874D01*
X94658Y43922D01*
X93228Y45144D01*
X91550Y46172D01*
X89732Y46925D01*
X87819Y47384D01*
X85944Y47532D01*
X85858Y47549D01*
X72642D01*
X72577Y47536D01*
X71958Y47618D01*
X71320Y47882D01*
X70825Y48262D01*
X70788Y48317D01*
X67302Y51802D01*
X67302Y51802D01*
X66267Y52838D01*
X62817Y56288D01*
X62762Y56325D01*
X62382Y56820D01*
X62117Y57458D01*
X62036Y58077D01*
X62049Y58142D01*
Y60222D01*
X62062Y60518D01*
X62081Y60686D01*
X62110Y60852D01*
X62143Y60995D01*
X62179Y61113D01*
X62179Y61113D01*
X62270Y61185D01*
X62566Y61317D01*
X62733Y61370D01*
X62818Y61386D01*
X63184Y61330D01*
X63572Y61071D01*
X64500Y60887D01*
X65428Y61071D01*
X65802Y61321D01*
X66329Y61523D01*
X66888Y61165D01*
X67091Y60902D01*
X67796Y60360D01*
X68000Y60276D01*
Y66854D01*
X69500D01*
Y68354D01*
X72907D01*
Y70398D01*
X72791Y71280D01*
X72451Y72101D01*
X72029Y72651D01*
X72193Y73192D01*
X72384Y73451D01*
X73858D01*
X74001Y73479D01*
X75322Y73306D01*
X76686Y72741D01*
X77231Y72322D01*
X77818Y71814D01*
X77818Y71813D01*
X77820Y71812D01*
X78351Y71233D01*
X78998Y70445D01*
X79849Y68853D01*
X80373Y67127D01*
X80472Y66117D01*
X80506Y65331D01*
X80275Y64714D01*
X80214Y64674D01*
X80144Y64655D01*
X79885Y64454D01*
X79613Y64272D01*
X79573Y64212D01*
X79515Y64167D01*
X79353Y63883D01*
X79171Y63611D01*
X79157Y63539D01*
X79121Y63476D01*
X79080Y63151D01*
X79016Y62830D01*
X79030Y62759D01*
X79021Y62687D01*
X79107Y62371D01*
X79171Y62050D01*
X79212Y61989D01*
X79231Y61919D01*
X79431Y61661D01*
X79613Y61388D01*
X79674Y61348D01*
X79718Y61290D01*
X79791Y61249D01*
Y56146D01*
X85881D01*
X86319Y56146D01*
Y56146D01*
X86681D01*
Y56146D01*
X90468D01*
X90470Y56141D01*
X90600Y55889D01*
X90690Y55813D01*
X90755Y55716D01*
X90991Y55558D01*
X91207Y55374D01*
X91319Y55339D01*
X91416Y55274D01*
X91695Y55218D01*
X91965Y55132D01*
X92082Y55141D01*
X92197Y55119D01*
X92475Y55174D01*
X92758Y55197D01*
X92862Y55251D01*
X92977Y55274D01*
X93213Y55431D01*
X93466Y55561D01*
X93541Y55651D01*
X93639Y55716D01*
X93796Y55952D01*
X93980Y56169D01*
X94016Y56280D01*
X94081Y56377D01*
X94136Y56656D01*
X94157Y56722D01*
X94244Y56755D01*
X94558Y56833D01*
X94994Y56900D01*
X95544Y56944D01*
X96246Y56961D01*
X96303Y56974D01*
X105000D01*
Y56962D01*
X106535Y57113D01*
X108010Y57561D01*
X109370Y58288D01*
X110562Y59266D01*
X110554Y59275D01*
X110554Y59275D01*
X112140Y60860D01*
X112140Y60860D01*
X112743Y61334D01*
X112923Y61472D01*
X113842Y61853D01*
X114466Y61935D01*
X114734Y61538D01*
X114847Y61189D01*
X114847Y61174D01*
X114840Y61164D01*
X114741Y61078D01*
X114621Y60836D01*
X114471Y60611D01*
X114445Y60483D01*
X114387Y60365D01*
X114368Y60096D01*
X114315Y59830D01*
X114341Y59702D01*
X114332Y59572D01*
X114418Y59315D01*
X114471Y59050D01*
X114543Y58941D01*
X114585Y58817D01*
X114762Y58614D01*
X114913Y58389D01*
X115021Y58316D01*
X115107Y58217D01*
X115342Y58100D01*
Y51410D01*
X114342D01*
Y46284D01*
X123658D01*
Y51410D01*
X122658D01*
Y58100D01*
X122893Y58217D01*
X122979Y58316D01*
X123087Y58389D01*
X123238Y58614D01*
X123415Y58817D01*
X123457Y58941D01*
X123529Y59050D01*
X123582Y59315D01*
X123668Y59572D01*
X123659Y59702D01*
X123685Y59830D01*
X123632Y60096D01*
X123613Y60365D01*
X123555Y60483D01*
X123529Y60611D01*
X123379Y60836D01*
X123259Y61078D01*
X123160Y61164D01*
X123153Y61174D01*
X123265Y61593D01*
X123477Y61974D01*
X124266D01*
X124328Y61961D01*
X125037Y61952D01*
X126195Y61879D01*
X126574Y61828D01*
X126724Y61798D01*
X126807Y61716D01*
X126913Y61558D01*
X127089Y61440D01*
X127241Y61292D01*
X127417Y61221D01*
X127574Y61116D01*
X127782Y61075D01*
X127979Y60996D01*
X128169Y60998D01*
X128355Y60961D01*
X128563Y61002D01*
X128775Y61005D01*
X128949Y61079D01*
X129135Y61116D01*
X129311Y61234D01*
X129506Y61317D01*
X129639Y61453D01*
X129796Y61558D01*
X129914Y61735D01*
X130063Y61886D01*
X130098Y61974D01*
X131000D01*
X131107Y61988D01*
X134658D01*
Y67925D01*
X131765D01*
X131000Y68026D01*
X130585D01*
X130327Y68275D01*
X130404Y68656D01*
X130800Y69044D01*
X131000Y69017D01*
X131436Y69075D01*
X134658D01*
Y72269D01*
X134893Y72386D01*
X134979Y72485D01*
X135087Y72558D01*
X135238Y72783D01*
X135415Y72987D01*
X135457Y73111D01*
X135529Y73219D01*
X135582Y73485D01*
X135668Y73741D01*
X135659Y73871D01*
X135685Y74000D01*
X135632Y74265D01*
X135613Y74535D01*
X135555Y74652D01*
X135529Y74780D01*
X135379Y75005D01*
X135259Y75247D01*
X135160Y75333D01*
X135087Y75442D01*
X134863Y75592D01*
X134768Y75674D01*
X134839Y76171D01*
X134964Y76449D01*
X134980Y76474D01*
X142379D01*
X142429Y76481D01*
X143187Y76330D01*
X143830Y75900D01*
X143860Y75860D01*
X143886Y75841D01*
X144472Y75077D01*
X144853Y74158D01*
X144970Y73268D01*
X144962Y73233D01*
X144950Y72858D01*
X144936Y72717D01*
X144883Y72706D01*
X144804Y72654D01*
X144712Y72627D01*
X144475Y72434D01*
X144221Y72264D01*
X144168Y72185D01*
X144094Y72126D01*
X143949Y71857D01*
X143942Y71846D01*
X142374D01*
Y61185D01*
X153626D01*
Y71846D01*
X152058D01*
X152051Y71857D01*
X151906Y72126D01*
X151832Y72185D01*
X151779Y72264D01*
X151525Y72434D01*
X151415Y72524D01*
X151048Y73172D01*
X151048Y73172D01*
X150858Y75098D01*
X150296Y76951D01*
X149383Y78658D01*
X148155Y80155D01*
X148149Y80149D01*
X146913Y81164D01*
X145502Y81918D01*
X144394Y82254D01*
X144309Y83116D01*
X144523Y83231D01*
X145757Y84243D01*
X146769Y85477D01*
X147522Y86884D01*
X147985Y88412D01*
X148142Y90000D01*
X147985Y91588D01*
X147522Y93116D01*
X146769Y94523D01*
X145974Y95493D01*
X146434Y96192D01*
X148915Y95478D01*
D02*
G37*
G36*
X60562Y62434D02*
X60444Y62230D01*
X60340Y62010D01*
X60250Y61775D01*
X60173Y61525D01*
X60111Y61259D01*
X60062Y60977D01*
X60028Y60680D01*
X60000Y60040D01*
X59000D01*
X58993Y60368D01*
X58938Y60977D01*
X58889Y61259D01*
X58827Y61525D01*
X58750Y61775D01*
X58660Y62010D01*
X58556Y62230D01*
X58438Y62434D01*
X58307Y62622D01*
X60693D01*
X60562Y62434D01*
D02*
G37*
G36*
X55562D02*
X55444Y62230D01*
X55340Y62010D01*
X55250Y61775D01*
X55173Y61525D01*
X55111Y61259D01*
X55062Y60977D01*
X55028Y60680D01*
X55000Y60040D01*
X54000D01*
X53993Y60368D01*
X53938Y60977D01*
X53889Y61259D01*
X53827Y61525D01*
X53750Y61775D01*
X53660Y62010D01*
X53556Y62230D01*
X53439Y62434D01*
X53307Y62622D01*
X55693D01*
X55562Y62434D01*
D02*
G37*
G36*
X122000Y64000D02*
X121620Y63980D01*
X121280Y63920D01*
X120980Y63820D01*
X120720Y63680D01*
X120500Y63500D01*
X120320Y63280D01*
X120180Y63020D01*
X120080Y62720D01*
X120063Y62621D01*
X120148Y61791D01*
X120263Y61270D01*
X120411Y60830D01*
X120592Y60470D01*
X120806Y60190D01*
X121053Y59991D01*
X121333Y59870D01*
X121645Y59830D01*
X116355D01*
X116667Y59870D01*
X116947Y59991D01*
X117194Y60190D01*
X117408Y60470D01*
X117589Y60830D01*
X117737Y61270D01*
X117852Y61791D01*
X117934Y62391D01*
X117947Y62567D01*
X117920Y62720D01*
X117820Y63020D01*
X117680Y63280D01*
X117500Y63500D01*
X117280Y63680D01*
X117020Y63820D01*
X116720Y63920D01*
X116380Y63980D01*
X116000Y64000D01*
X119000Y66000D01*
X122000Y64000D01*
D02*
G37*
G36*
X103333Y64960D02*
X103053Y64840D01*
X102806Y64640D01*
X102592Y64360D01*
X102411Y64000D01*
X102263Y63560D01*
X102148Y63040D01*
X102066Y62440D01*
X102062Y62384D01*
X102080Y62280D01*
X102180Y61980D01*
X102320Y61720D01*
X102500Y61500D01*
X102720Y61320D01*
X102980Y61180D01*
X103280Y61080D01*
X103620Y61020D01*
X104000Y61000D01*
X101000Y59000D01*
X98000Y61000D01*
X98380Y61020D01*
X98720Y61080D01*
X99020Y61180D01*
X99280Y61320D01*
X99500Y61500D01*
X99680Y61720D01*
X99820Y61980D01*
X99920Y62280D01*
X99926Y62316D01*
X99852Y63040D01*
X99737Y63560D01*
X99589Y64000D01*
X99408Y64360D01*
X99194Y64640D01*
X98947Y64840D01*
X98667Y64960D01*
X98355Y65000D01*
X103646D01*
X103333Y64960D01*
D02*
G37*
G36*
X92237Y62492D02*
X92357Y62179D01*
X92557Y61903D01*
X92837Y61663D01*
X93197Y61461D01*
X93637Y61295D01*
X94157Y61166D01*
X94757Y61074D01*
X95437Y61018D01*
X96197Y61000D01*
Y59000D01*
X95437Y58982D01*
X94757Y58926D01*
X94157Y58834D01*
X93637Y58705D01*
X93197Y58539D01*
X92837Y58337D01*
X92557Y58097D01*
X92357Y57821D01*
X92237Y57508D01*
X92197Y57158D01*
Y62842D01*
X92237Y62492D01*
D02*
G37*
G36*
X64464Y51035D02*
X65146Y49646D01*
X65010Y49769D01*
X64873Y49864D01*
X64735Y49931D01*
X64597Y49970D01*
X64458Y49981D01*
X64319Y49965D01*
X64179Y49921D01*
X64039Y49849D01*
X63898Y49749D01*
X63757Y49621D01*
X63050Y50328D01*
X63178Y50470D01*
X63276Y50611D01*
X63347Y50753D01*
X63390Y50894D01*
X63404Y51035D01*
X63390Y51177D01*
X63347Y51318D01*
X63276Y51460D01*
X63178Y51601D01*
X63050Y51743D01*
X64464Y51035D01*
D02*
G37*
G36*
X85000Y44500D02*
X84810Y44490D01*
X84640Y44460D01*
X84490Y44410D01*
X84360Y44340D01*
X84250Y44250D01*
X84160Y44140D01*
X84090Y44010D01*
X84040Y43860D01*
X84010Y43690D01*
X84000Y43500D01*
X83000D01*
X82990Y43690D01*
X82960Y43860D01*
X82910Y44010D01*
X82840Y44140D01*
X82750Y44250D01*
X82640Y44340D01*
X82510Y44410D01*
X82360Y44460D01*
X82190Y44490D01*
X82000Y44500D01*
X83500Y45500D01*
X85000Y44500D01*
D02*
G37*
G36*
X79321D02*
X79131Y44490D01*
X78961Y44460D01*
X78811Y44410D01*
X78681Y44340D01*
X78571Y44250D01*
X78481Y44140D01*
X78411Y44010D01*
X78361Y43860D01*
X78331Y43690D01*
X78321Y43500D01*
X77321D01*
X77311Y43690D01*
X77281Y43860D01*
X77231Y44010D01*
X77161Y44140D01*
X77071Y44250D01*
X76961Y44340D01*
X76831Y44410D01*
X76681Y44460D01*
X76511Y44490D01*
X76321Y44500D01*
X77821Y45500D01*
X79321Y44500D01*
D02*
G37*
G36*
X34215Y39661D02*
X33960Y39601D01*
X33735Y39500D01*
X33540Y39360D01*
X33375Y39178D01*
X33240Y38957D01*
X33135Y38696D01*
X33060Y38394D01*
X33015Y38052D01*
X33000Y37670D01*
X32000D01*
X31985Y38052D01*
X31940Y38394D01*
X31865Y38696D01*
X31760Y38957D01*
X31625Y39178D01*
X31460Y39360D01*
X31265Y39500D01*
X31040Y39601D01*
X30785Y39661D01*
X30500Y39682D01*
X34500D01*
X34215Y39661D01*
D02*
G37*
G36*
X33015Y35602D02*
X33060Y35260D01*
X33135Y34958D01*
X33240Y34696D01*
X33375Y34475D01*
X33540Y34294D01*
X33735Y34153D01*
X33960Y34053D01*
X34215Y33992D01*
X34500Y33972D01*
X30500D01*
X30785Y33992D01*
X31040Y34053D01*
X31265Y34153D01*
X31460Y34294D01*
X31625Y34475D01*
X31760Y34696D01*
X31865Y34958D01*
X31940Y35260D01*
X31985Y35602D01*
X32000Y35984D01*
X33000D01*
X33015Y35602D01*
D02*
G37*
G36*
X96515Y33342D02*
X96560Y33000D01*
X96635Y32698D01*
X96740Y32436D01*
X96875Y32215D01*
X97040Y32034D01*
X97235Y31893D01*
X97460Y31793D01*
X97715Y31732D01*
X98000Y31712D01*
X94000D01*
X94285Y31732D01*
X94540Y31793D01*
X94765Y31893D01*
X94960Y32034D01*
X95125Y32215D01*
X95260Y32436D01*
X95365Y32698D01*
X95440Y33000D01*
X95485Y33342D01*
X95500Y33724D01*
X96500D01*
X96515Y33342D01*
D02*
G37*
G36*
X84015Y31929D02*
X84060Y31587D01*
X84135Y31285D01*
X84240Y31023D01*
X84375Y30802D01*
X84540Y30621D01*
X84735Y30480D01*
X84960Y30379D01*
X85215Y30319D01*
X85500Y30299D01*
X81500D01*
X81785Y30319D01*
X82040Y30379D01*
X82265Y30480D01*
X82460Y30621D01*
X82625Y30802D01*
X82760Y31023D01*
X82865Y31285D01*
X82940Y31587D01*
X82985Y31929D01*
X83000Y32311D01*
X84000D01*
X84015Y31929D01*
D02*
G37*
G36*
X127500Y30500D02*
X127310Y30490D01*
X127140Y30460D01*
X126990Y30410D01*
X126860Y30340D01*
X126750Y30250D01*
X126660Y30140D01*
X126590Y30010D01*
X126540Y29860D01*
X126510Y29690D01*
X126500Y29500D01*
X125500D01*
X125490Y29690D01*
X125460Y29860D01*
X125410Y30010D01*
X125340Y30140D01*
X125250Y30250D01*
X125140Y30340D01*
X125010Y30410D01*
X124860Y30460D01*
X124690Y30490D01*
X124500Y30500D01*
X126000Y31500D01*
X127500Y30500D01*
D02*
G37*
G36*
X117504Y32715D02*
X117564Y32460D01*
X117664Y32235D01*
X117804Y32040D01*
X117984Y31875D01*
X118204Y31740D01*
X118464Y31635D01*
X118764Y31560D01*
X119104Y31515D01*
X119484Y31500D01*
Y30500D01*
X119104Y30485D01*
X118764Y30440D01*
X118464Y30365D01*
X118204Y30260D01*
X117984Y30125D01*
X117804Y29960D01*
X117664Y29765D01*
X117564Y29540D01*
X117504Y29285D01*
X117484Y29000D01*
Y33000D01*
X117504Y32715D01*
D02*
G37*
G36*
X16949D02*
X17009Y32460D01*
X17110Y32235D01*
X17251Y32040D01*
X17432Y31875D01*
X17653Y31740D01*
X17915Y31635D01*
X18216Y31560D01*
X18559Y31515D01*
X18941Y31500D01*
Y30500D01*
X18559Y30485D01*
X18216Y30440D01*
X17915Y30365D01*
X17653Y30260D01*
X17432Y30125D01*
X17251Y29960D01*
X17110Y29765D01*
X17009Y29540D01*
X16949Y29285D01*
X16929Y29000D01*
Y33000D01*
X16949Y32715D01*
D02*
G37*
G36*
X108876Y27953D02*
X108621Y27892D01*
X108396Y27792D01*
X108201Y27651D01*
X108036Y27470D01*
X107901Y27248D01*
X107796Y26987D01*
X107721Y26685D01*
X107676Y26343D01*
X107661Y25961D01*
X106661D01*
X106646Y26343D01*
X106601Y26685D01*
X106526Y26987D01*
X106421Y27248D01*
X106286Y27470D01*
X106121Y27651D01*
X105926Y27792D01*
X105701Y27892D01*
X105446Y27953D01*
X105161Y27973D01*
X109161D01*
X108876Y27953D01*
D02*
G37*
G36*
X73015Y26429D02*
X73060Y26087D01*
X73135Y25785D01*
X73240Y25523D01*
X73375Y25302D01*
X73540Y25121D01*
X73735Y24980D01*
X73960Y24879D01*
X74215Y24819D01*
X74500Y24799D01*
X70500D01*
X70785Y24819D01*
X71040Y24879D01*
X71265Y24980D01*
X71460Y25121D01*
X71625Y25302D01*
X71760Y25523D01*
X71865Y25785D01*
X71940Y26087D01*
X71985Y26429D01*
X72000Y26811D01*
X73000D01*
X73015Y26429D01*
D02*
G37*
G36*
X35547Y25376D02*
X35608Y25121D01*
X35708Y24896D01*
X35849Y24701D01*
X36030Y24536D01*
X36252Y24401D01*
X36513Y24296D01*
X36815Y24221D01*
X37157Y24176D01*
X37539Y24161D01*
Y23161D01*
X37157Y23146D01*
X36815Y23101D01*
X36513Y23026D01*
X36252Y22921D01*
X36030Y22786D01*
X35849Y22621D01*
X35708Y22426D01*
X35608Y22201D01*
X35547Y21946D01*
X35527Y21661D01*
Y25661D01*
X35547Y25376D01*
D02*
G37*
G36*
X126515Y22429D02*
X126560Y22086D01*
X126635Y21785D01*
X126740Y21523D01*
X126875Y21302D01*
X127040Y21121D01*
X127235Y20980D01*
X127460Y20879D01*
X127715Y20819D01*
X128000Y20799D01*
X124000D01*
X124285Y20819D01*
X124540Y20879D01*
X124765Y20980D01*
X124960Y21121D01*
X125125Y21302D01*
X125260Y21523D01*
X125365Y21785D01*
X125440Y22086D01*
X125485Y22429D01*
X125500Y22811D01*
X126500D01*
X126515Y22429D01*
D02*
G37*
G36*
X50761Y20621D02*
X50482Y20857D01*
X50140Y21068D01*
X49736Y21254D01*
X49270Y21415D01*
X48742Y21552D01*
X48152Y21664D01*
X47499Y21750D01*
X46008Y21850D01*
X45169Y21862D01*
Y22862D01*
X46008Y22875D01*
X48152Y23061D01*
X48742Y23173D01*
X49270Y23309D01*
X49736Y23470D01*
X50140Y23656D01*
X50482Y23867D01*
X50761Y24103D01*
Y20621D01*
D02*
G37*
G36*
X156571Y19000D02*
X156551Y19285D01*
X156491Y19540D01*
X156390Y19765D01*
X156249Y19960D01*
X156068Y20125D01*
X155847Y20260D01*
X155585Y20365D01*
X155284Y20440D01*
X154941Y20485D01*
X154559Y20500D01*
Y21500D01*
X154941Y21515D01*
X155284Y21560D01*
X155585Y21635D01*
X155847Y21740D01*
X156068Y21875D01*
X156249Y22040D01*
X156390Y22235D01*
X156491Y22460D01*
X156551Y22715D01*
X156571Y23000D01*
Y19000D01*
D02*
G37*
G36*
X85215Y20681D02*
X84960Y20621D01*
X84735Y20520D01*
X84540Y20379D01*
X84375Y20198D01*
X84240Y19977D01*
X84135Y19715D01*
X84060Y19413D01*
X84015Y19071D01*
X84000Y18689D01*
X83000D01*
X82985Y19071D01*
X82940Y19413D01*
X82865Y19715D01*
X82760Y19977D01*
X82625Y20198D01*
X82460Y20379D01*
X82265Y20520D01*
X82040Y20621D01*
X81785Y20681D01*
X81500Y20701D01*
X85500D01*
X85215Y20681D01*
D02*
G37*
G36*
X97522Y19131D02*
X97227Y19076D01*
X96947Y18983D01*
X96685Y18853D01*
X96438Y18686D01*
X96208Y18482D01*
X95994Y18241D01*
X95797Y17962D01*
X95615Y17647D01*
X95450Y17294D01*
X94320Y17333D01*
X94451Y17678D01*
X94534Y17987D01*
X94569Y18260D01*
X94558Y18496D01*
X94500Y18696D01*
X94394Y18859D01*
X94241Y18986D01*
X94041Y19077D01*
X93794Y19132D01*
X93500Y19150D01*
X97833D01*
X97522Y19131D01*
D02*
G37*
G36*
X63012Y18854D02*
X63199Y16711D01*
X63310Y16120D01*
X63447Y15592D01*
X63608Y15126D01*
X63794Y14722D01*
X64005Y14381D01*
X64241Y14101D01*
X60759D01*
X60995Y14381D01*
X61206Y14722D01*
X61392Y15126D01*
X61553Y15592D01*
X61690Y16120D01*
X61801Y16711D01*
X61888Y17363D01*
X61988Y18854D01*
X62000Y19693D01*
X63000D01*
X63012Y18854D01*
D02*
G37*
G36*
X67183Y44712D02*
X67183Y44712D01*
X67183Y44712D01*
X67283Y44646D01*
X68359Y43762D01*
X69692Y43050D01*
X71138Y42611D01*
X72524Y42474D01*
X72642Y42451D01*
Y42451D01*
X72642Y42451D01*
X74615D01*
X74975Y41651D01*
X74777Y41356D01*
X74698Y41302D01*
X73627Y40231D01*
X73578Y40158D01*
X72356Y38728D01*
X71328Y37050D01*
X70575Y35232D01*
X70116Y33319D01*
X69968Y31444D01*
X69951Y31358D01*
Y26823D01*
X68039D01*
Y17902D01*
X76961D01*
Y26823D01*
X75049D01*
Y31358D01*
X75025Y31476D01*
X75158Y32818D01*
X75584Y34223D01*
X76276Y35517D01*
X77131Y36560D01*
X77231Y36626D01*
X78302Y37698D01*
X78387Y37825D01*
X79168Y38776D01*
X79819Y39994D01*
X80151Y41089D01*
X80951Y40970D01*
Y32229D01*
X80720Y32183D01*
X80659Y32142D01*
X80589Y32123D01*
X80330Y31923D01*
X80058Y31741D01*
X80018Y31680D01*
X79960Y31636D01*
X79798Y31351D01*
X79616Y31079D01*
X79602Y31008D01*
X79566Y30945D01*
X79525Y30620D01*
X79461Y30299D01*
X79475Y30228D01*
X79466Y30155D01*
X79552Y29840D01*
X79616Y29518D01*
X79656Y29458D01*
X79676Y29388D01*
X79843Y29173D01*
Y25583D01*
X79843D01*
Y25417D01*
X79843D01*
Y21827D01*
X79676Y21612D01*
X79656Y21542D01*
X79616Y21482D01*
X79552Y21160D01*
X79466Y20845D01*
X79475Y20773D01*
X79461Y20701D01*
X79525Y20380D01*
X79566Y20055D01*
X79602Y19992D01*
X79616Y19921D01*
X79798Y19649D01*
X79960Y19364D01*
X80018Y19320D01*
X80058Y19259D01*
X80330Y19077D01*
X80589Y18877D01*
X80659Y18858D01*
X80720Y18817D01*
X80951Y18771D01*
Y9049D01*
X66589D01*
X66194Y9849D01*
X66396Y10113D01*
X66846Y11198D01*
X66999Y12362D01*
X66846Y13527D01*
X66396Y14612D01*
X65852Y15321D01*
X65800Y15416D01*
X65661Y15580D01*
X65594Y15688D01*
X65502Y15888D01*
X65400Y16182D01*
X65301Y16566D01*
X65221Y16989D01*
X65050Y18957D01*
X65049Y19046D01*
Y23965D01*
X65024Y24088D01*
X64898Y25696D01*
X64492Y27385D01*
X63828Y28990D01*
X62920Y30471D01*
X61872Y31698D01*
X61802Y31802D01*
X61723Y31856D01*
X61035Y32694D01*
X60479Y33734D01*
X60137Y34862D01*
X60030Y35942D01*
X60049Y36035D01*
Y41464D01*
X60030Y41559D01*
X60146Y42442D01*
X60523Y43352D01*
X61065Y44058D01*
X61146Y44112D01*
X64464Y47431D01*
X67183Y44712D01*
D02*
G37*
G36*
X90189Y7810D02*
X90219Y7640D01*
X90269Y7490D01*
X90339Y7360D01*
X90429Y7250D01*
X90539Y7160D01*
X90669Y7090D01*
X90819Y7040D01*
X90989Y7010D01*
X91179Y7000D01*
X89679Y6000D01*
X88179Y7000D01*
X88369Y7010D01*
X88539Y7040D01*
X88689Y7090D01*
X88819Y7160D01*
X88929Y7250D01*
X89019Y7360D01*
X89089Y7490D01*
X89139Y7640D01*
X89169Y7810D01*
X89179Y8000D01*
X90179D01*
X90189Y7810D01*
D02*
G37*
G36*
X84010D02*
X84040Y7640D01*
X84090Y7490D01*
X84160Y7360D01*
X84250Y7250D01*
X84360Y7160D01*
X84490Y7090D01*
X84640Y7040D01*
X84810Y7010D01*
X85000Y7000D01*
X83500Y6000D01*
X82000Y7000D01*
X82190Y7010D01*
X82360Y7040D01*
X82510Y7090D01*
X82640Y7160D01*
X82750Y7250D01*
X82840Y7360D01*
X82910Y7490D01*
X82960Y7640D01*
X82990Y7810D01*
X83000Y8000D01*
X84000D01*
X84010Y7810D01*
D02*
G37*
%LPC*%
G36*
X102500Y94740D02*
X101502Y94326D01*
X100468Y93532D01*
X99674Y92498D01*
X99260Y91500D01*
X102500D01*
Y94740D01*
D02*
G37*
G36*
X90000Y70047D02*
X86843D01*
Y67677D01*
X90000D01*
Y70047D01*
D02*
G37*
G36*
X18740Y64500D02*
X15500D01*
Y61260D01*
X16498Y61674D01*
X17532Y62468D01*
X18326Y63502D01*
X18740Y64500D01*
D02*
G37*
G36*
X12500D02*
X9261D01*
X9674Y63502D01*
X10468Y62468D01*
X11502Y61674D01*
X12500Y61260D01*
Y64500D01*
D02*
G37*
G36*
X37157Y61343D02*
X34000D01*
Y56217D01*
X37157D01*
Y61343D01*
D02*
G37*
G36*
X18740Y19500D02*
X15500D01*
Y16261D01*
X16498Y16674D01*
X17532Y17468D01*
X18326Y18502D01*
X18740Y19500D01*
D02*
G37*
G36*
X12500D02*
X9261D01*
X9674Y18502D01*
X10468Y17468D01*
X11502Y16674D01*
X12500Y16261D01*
Y19500D01*
D02*
G37*
G36*
X130657Y11547D02*
X127500D01*
Y9177D01*
X130657D01*
Y11547D01*
D02*
G37*
G36*
X124500D02*
X121343D01*
Y9177D01*
X124500D01*
Y11547D01*
D02*
G37*
G36*
X72907Y65354D02*
X71000D01*
Y60276D01*
X71204Y60360D01*
X71909Y60902D01*
X72451Y61607D01*
X72791Y62429D01*
X72907Y63311D01*
Y65354D01*
D02*
G37*
G36*
X154626Y49815D02*
X149500D01*
Y44984D01*
X154626D01*
Y49815D01*
D02*
G37*
G36*
X146500D02*
X141374D01*
Y44984D01*
X146500D01*
Y49815D01*
D02*
G37*
G36*
X123658Y43284D02*
X120500D01*
Y38157D01*
X123658D01*
Y43284D01*
D02*
G37*
G36*
X117500D02*
X114342D01*
Y38157D01*
X117500D01*
Y43284D01*
D02*
G37*
G36*
X154626Y41984D02*
X149500D01*
Y37154D01*
X154626D01*
Y41984D01*
D02*
G37*
G36*
X146500D02*
X141374D01*
Y37154D01*
X146500D01*
Y41984D01*
D02*
G37*
G36*
X161000Y35739D02*
Y32500D01*
X164240D01*
X163826Y33498D01*
X163032Y34532D01*
X161998Y35326D01*
X161000Y35739D01*
D02*
G37*
G36*
X158000D02*
X157002Y35326D01*
X155968Y34532D01*
X155174Y33498D01*
X154761Y32500D01*
X158000D01*
Y35739D01*
D02*
G37*
%LPD*%
D13*
X54500Y66854D02*
D03*
X59500D02*
D03*
X64500D02*
D03*
X69500D02*
D03*
X54500Y86146D02*
D03*
X59500D02*
D03*
X64500D02*
D03*
X69500D02*
D03*
D14*
X148000Y66516D02*
D03*
Y43484D02*
D03*
D15*
X91500Y71547D02*
D03*
Y77453D02*
D03*
X83500Y22547D02*
D03*
Y28453D02*
D03*
X126000Y18953D02*
D03*
Y13047D02*
D03*
D16*
X114839Y31000D02*
D03*
X107161D02*
D03*
D17*
X96000Y21500D02*
D03*
Y29374D02*
D03*
D18*
X101000Y74043D02*
D03*
Y66957D02*
D03*
X131000Y64957D02*
D03*
Y72043D02*
D03*
D19*
X31047Y72000D02*
D03*
X36953D02*
D03*
D20*
X32500Y54716D02*
D03*
Y44284D02*
D03*
X119000Y44783D02*
D03*
Y55216D02*
D03*
D21*
X32500Y23661D02*
D03*
Y31339D02*
D03*
D22*
X89945Y60000D02*
D03*
X83055D02*
D03*
D37*
X138429Y28071D02*
G03*
X131358Y31000I-7071J-7071D01*
G01*
X40000Y23000D02*
G03*
X41540Y22362I1540J1540D01*
G01*
X40000Y23000D02*
G03*
X38403Y23661I-1597J-1597D01*
G01*
X142571Y23929D02*
G03*
X149642Y21000I7071J7071D01*
G01*
X104233Y10733D02*
G03*
X107161Y17804I-7071J7071D01*
G01*
X27586Y64000D02*
G03*
X30000Y65000I0J3414D01*
G01*
X23500Y69793D02*
G03*
X21586Y74414I-6536J0D01*
G01*
X22324Y32167D02*
G03*
X23500Y35000I-2824J2833D01*
G01*
X19500Y31000D02*
G03*
X22324Y32167I0J4000D01*
G01*
X30000Y65000D02*
G03*
X31047Y67528I-2528J2528D01*
G01*
X21000Y75000D02*
G03*
X18586Y76000I-2414J-2414D01*
G01*
X92929Y42071D02*
G03*
X85858Y45000I-7071J-7071D01*
G01*
X76500Y39500D02*
G03*
X77821Y42689I-3189J3189D01*
G01*
X96000Y36172D02*
G03*
X94000Y41000I-6828J0D01*
G01*
X75429Y38429D02*
G03*
X72500Y31358I7071J-7071D01*
G01*
X59343Y45914D02*
G03*
X57500Y41464I4450J-4450D01*
G01*
X62500Y23965D02*
G03*
X60000Y30000I-8535J0D01*
G01*
X57500Y36035D02*
G03*
X60000Y30000I8535J0D01*
G01*
X57000Y13828D02*
G03*
X59000Y9000I6828J0D01*
G01*
X57000Y25586D02*
G03*
X56000Y28000I-3414J0D01*
G01*
X54500Y31621D02*
G03*
X56000Y28000I5121J0D01*
G01*
X59000Y9000D02*
G03*
X65035Y6500I6036J6036D01*
G01*
X92000Y14000D02*
G03*
X89679Y8396I5604J-5604D01*
G01*
X95858Y6500D02*
G03*
X102929Y9429I0J10000D01*
G01*
X59500Y58142D02*
G03*
X61015Y54485I5172J-0D01*
G01*
X79621Y73616D02*
G03*
X73858Y76000I-5763J-5773D01*
G01*
X83055Y65331D02*
G03*
X79621Y73616I-11709J-0D01*
G01*
X68985Y46515D02*
G03*
X72642Y45000I3657J3657D01*
G01*
X93525Y15525D02*
G03*
X96000Y21500I-5975J5975D01*
G01*
X47828Y76000D02*
G03*
X43000Y74000I0J-6828D01*
G01*
X38172Y72000D02*
G03*
X43000Y74000I0J6828D01*
G01*
X126000Y31000D02*
X131358D01*
X114839D02*
X126000D01*
X138429Y28071D02*
X142571Y23929D01*
X41540Y22362D02*
X52500D01*
X32500Y23661D02*
X38403D01*
X32500Y31339D02*
Y44284D01*
X149642Y21000D02*
X159500D01*
X126000Y18953D02*
Y31000D01*
X107161Y17804D02*
Y31000D01*
X23500Y69793D02*
Y69793D01*
Y64000D02*
Y69793D01*
Y35000D02*
Y64000D01*
X27586D01*
X14000Y31000D02*
X19500D01*
X31047Y67528D02*
Y72000D01*
X14000Y76000D02*
X18586D01*
X21000Y75000D02*
X21586Y74414D01*
X83500Y45000D02*
X85858D01*
X83500Y28453D02*
Y45000D01*
X77821D02*
X83500D01*
X92929Y42071D02*
X94000Y41000D01*
X96000Y29374D02*
Y36172D01*
X75429Y38429D02*
X76500Y39500D01*
X72500Y22362D02*
Y31358D01*
X62500Y12362D02*
Y23965D01*
X57500Y36035D02*
Y41464D01*
X57000Y13828D02*
Y25586D01*
X65035Y6500D02*
X83500D01*
X89679D02*
Y8396D01*
Y6500D02*
X95858D01*
X102929Y9429D02*
X104233Y10733D01*
X92000Y14000D02*
X93525Y15525D01*
X54500Y31621D02*
Y66354D01*
X61015Y54485D02*
X64464Y51035D01*
X59343Y45914D02*
X64464Y51035D01*
X65500Y50000D01*
X83055Y65331D02*
X83055Y65325D01*
Y60000D02*
Y65325D01*
X64500Y76000D02*
X73858D01*
X47828D02*
X64500D01*
Y66354D02*
Y76000D01*
X65500Y50000D02*
Y50000D01*
Y50000D02*
X68985Y46515D01*
X72642Y45000D02*
X77821D01*
Y42689D02*
Y45000D01*
X83500Y6500D02*
X89679D01*
X83500D02*
Y22547D01*
X59500Y58142D02*
Y66354D01*
X36953Y72000D02*
X38172D01*
D38*
X56707Y95500D02*
G03*
X55500Y95000I0J-1707D01*
G01*
X55354Y94854D02*
G03*
X54500Y92793I2061J-2061D01*
G01*
X74429Y94071D02*
G03*
X70979Y95500I-3450J-3450D01*
G01*
X146000Y78000D02*
G03*
X142379Y79500I-3621J-3621D01*
G01*
X105500Y81000D02*
G03*
X109121Y79500I3621J3621D01*
G01*
X148000Y73172D02*
G03*
X146000Y78000I-6828J0D01*
G01*
X81586Y86914D02*
G03*
X85000Y85500I3414J3414D01*
G01*
X105500Y81000D02*
G03*
X94636Y85500I-10864J-10864D01*
G01*
X114828Y65000D02*
G03*
X110000Y63000I0J-6828D01*
G01*
X105000Y60000D02*
G03*
X108414Y61414I0J4828D01*
G01*
X56707Y95500D02*
X70979D01*
X55354Y94854D02*
X55500Y95000D01*
X54500Y86146D02*
Y92793D01*
X74429Y94071D02*
X81586Y86914D01*
X131000Y79500D02*
X142379D01*
X109121D02*
X114000D01*
X148000Y66516D02*
Y73172D01*
X85000Y85500D02*
X91500D01*
X94636D01*
X119000Y65000D02*
X131000D01*
X114828D02*
X119000D01*
Y55216D02*
Y65000D01*
X131000Y72043D02*
Y79500D01*
X108414Y61414D02*
X110000Y63000D01*
X101000Y60000D02*
X105000D01*
X114000Y79500D02*
X131000D01*
X91500Y77453D02*
Y85500D01*
X89945Y60000D02*
X101000D01*
Y66957D01*
X114000Y79500D02*
Y90000D01*
D39*
X140000Y10000D02*
D03*
Y90000D02*
D03*
X30000D02*
D03*
Y10000D02*
D03*
D40*
X72500Y22362D02*
D03*
D41*
X62500Y12362D02*
D03*
X52500Y22362D02*
D03*
D42*
X114000Y90000D02*
D03*
D43*
X104000D02*
D03*
X14000Y66000D02*
D03*
X159500Y31000D02*
D03*
X14000Y21000D02*
D03*
D44*
Y76000D02*
D03*
X159500Y21000D02*
D03*
X14000Y31000D02*
D03*
D45*
X97000Y12000D02*
D03*
X89000Y38000D02*
D03*
X120000Y72500D02*
D03*
X135500Y22000D02*
D03*
X158000Y81500D02*
D03*
X131500Y49500D02*
D03*
X76500Y82500D02*
D03*
X76000Y58000D02*
D03*
X104000Y44500D02*
D03*
X70500Y14000D02*
D03*
X66500Y32000D02*
D03*
X126000Y92000D02*
D03*
X115000Y18000D02*
D03*
X44000Y56000D02*
D03*
Y90000D02*
D03*
X45000Y14000D02*
D03*
X14000Y50000D02*
D03*
M02*
