G04*
G04 #@! TF.GenerationSoftware,Altium Limited,Altium Designer,21.0.9 (235)*
G04*
G04 Layer_Color=8388736*
%FSLAX25Y25*%
%MOIN*%
G70*
G04*
G04 #@! TF.SameCoordinates,75D1A4E6-31BD-42C8-8B3C-3027E6905E36*
G04*
G04*
G04 #@! TF.FilePolarity,Negative*
G04*
G01*
G75*
%ADD15R,0.05315X0.03740*%
%ADD19R,0.03740X0.05315*%
%ADD23O,0.03556X0.10642*%
%ADD24R,0.10052X0.09461*%
%ADD25R,0.06115X0.06902*%
%ADD26R,0.06509X0.05524*%
%ADD27R,0.06115X0.04737*%
%ADD28R,0.06115X0.10052*%
%ADD29R,0.06902X0.06115*%
%ADD30R,0.05328X0.06509*%
%ADD31C,0.13005*%
%ADD32R,0.05721X0.05721*%
%ADD33C,0.05721*%
%ADD34R,0.06706X0.06706*%
%ADD35C,0.06706*%
%ADD36R,0.06706X0.06706*%
D15*
X91500Y71547D02*
D03*
Y77453D02*
D03*
X83500Y22547D02*
D03*
Y28453D02*
D03*
X126000Y18953D02*
D03*
Y13047D02*
D03*
D19*
X31047Y72000D02*
D03*
X36953D02*
D03*
D23*
X54500Y66854D02*
D03*
X59500D02*
D03*
X64500D02*
D03*
X69500D02*
D03*
X54500Y86146D02*
D03*
X59500D02*
D03*
X64500D02*
D03*
X69500D02*
D03*
D24*
X148000Y66516D02*
D03*
Y43484D02*
D03*
D25*
X114839Y31000D02*
D03*
X107161D02*
D03*
D26*
X96000Y21500D02*
D03*
Y29374D02*
D03*
D27*
X101000Y74043D02*
D03*
Y66957D02*
D03*
X131000Y64957D02*
D03*
Y72043D02*
D03*
D28*
X32500Y54716D02*
D03*
Y44284D02*
D03*
X119000Y44783D02*
D03*
Y55216D02*
D03*
D29*
X32500Y23661D02*
D03*
Y31339D02*
D03*
D30*
X89945Y60000D02*
D03*
X83055D02*
D03*
D31*
X140000Y10000D02*
D03*
Y90000D02*
D03*
X30000D02*
D03*
Y10000D02*
D03*
D32*
X72500Y22362D02*
D03*
D33*
X62500Y12362D02*
D03*
X52500Y22362D02*
D03*
D34*
X114000Y90000D02*
D03*
D35*
X104000D02*
D03*
X14000Y66000D02*
D03*
X159500Y31000D02*
D03*
X14000Y21000D02*
D03*
D36*
Y76000D02*
D03*
X159500Y21000D02*
D03*
X14000Y31000D02*
D03*
M02*
