G04*
G04 #@! TF.GenerationSoftware,Altium Limited,Altium Designer,21.0.9 (235)*
G04*
G04 Layer_Color=8421504*
%FSLAX25Y25*%
%MOIN*%
G70*
G04*
G04 #@! TF.SameCoordinates,75D1A4E6-31BD-42C8-8B3C-3027E6905E36*
G04*
G04*
G04 #@! TF.FilePolarity,Positive*
G04*
G01*
G75*
%ADD13O,0.02756X0.09843*%
%ADD14R,0.09252X0.08661*%
%ADD15R,0.05315X0.03740*%
%ADD16R,0.05315X0.06102*%
%ADD17R,0.05709X0.04724*%
%ADD18R,0.05315X0.03937*%
%ADD19R,0.03740X0.05315*%
%ADD20R,0.05315X0.09252*%
%ADD21R,0.06102X0.05315*%
%ADD22R,0.04528X0.05709*%
D13*
X54500Y66854D02*
D03*
X59500D02*
D03*
X64500D02*
D03*
X69500D02*
D03*
X54500Y86146D02*
D03*
X59500D02*
D03*
X64500D02*
D03*
X69500D02*
D03*
D14*
X148000Y66516D02*
D03*
Y43484D02*
D03*
D15*
X91500Y71547D02*
D03*
Y77453D02*
D03*
X83500Y22547D02*
D03*
Y28453D02*
D03*
X126000Y18953D02*
D03*
Y13047D02*
D03*
D16*
X114839Y31000D02*
D03*
X107161D02*
D03*
D17*
X96000Y21500D02*
D03*
Y29374D02*
D03*
D18*
X101000Y74043D02*
D03*
Y66957D02*
D03*
X131000Y64957D02*
D03*
Y72043D02*
D03*
D19*
X31047Y72000D02*
D03*
X36953D02*
D03*
D20*
X32500Y54716D02*
D03*
Y44284D02*
D03*
X119000Y44783D02*
D03*
Y55216D02*
D03*
D21*
X32500Y23661D02*
D03*
Y31339D02*
D03*
D22*
X89945Y60000D02*
D03*
X83055D02*
D03*
M02*
