G04*
G04 #@! TF.GenerationSoftware,Altium Limited,Altium Designer,20.2.6 (244)*
G04*
G04 Layer_Color=32768*
%FSLAX25Y25*%
%MOIN*%
G70*
G04*
G04 #@! TF.SameCoordinates,16A80645-BAA7-4206-B01B-76556F111C33*
G04*
G04*
G04 #@! TF.FilePolarity,Positive*
G04*
G01*
G75*
%ADD39C,0.00394*%
%ADD40C,0.00197*%
D39*
X51200Y-12672D02*
Y-9128D01*
X49428Y-10900D02*
X52972D01*
X70100Y-32472D02*
Y-28928D01*
X68328Y-30700D02*
X71872D01*
X-9972Y-84800D02*
X-6428D01*
X-8200Y-86572D02*
Y-83028D01*
X71000Y-77772D02*
Y-74228D01*
X69228Y-76000D02*
X72772D01*
X71000Y-117670D02*
Y-113930D01*
X69130Y-115800D02*
X72870D01*
X43400Y3331D02*
Y7269D01*
X41431Y5300D02*
X45368D01*
X68728Y-59700D02*
X72272D01*
X70500Y-61472D02*
Y-57928D01*
X71000Y-94770D02*
Y-91030D01*
X69130Y-92900D02*
X72870D01*
D40*
X49035Y-6569D02*
X53365D01*
X49035Y-15231D02*
X53365D01*
Y-6569D01*
X49035Y-15231D02*
Y-6569D01*
X67935Y-26369D02*
X72265D01*
X67935Y-35031D02*
X72265D01*
Y-26369D01*
X67935Y-35031D02*
Y-26369D01*
X-6035Y-89131D02*
Y-80469D01*
X-10365Y-89131D02*
Y-80469D01*
X-6035D01*
X-10365Y-89131D02*
X-6035D01*
X66866Y-69307D02*
X75134D01*
X66866Y-82693D02*
X75134D01*
Y-69307D01*
X66866Y-82693D02*
Y-69307D01*
X68638Y-120328D02*
X73362D01*
X68638Y-111273D02*
X73362D01*
X68638Y-120328D02*
Y-111273D01*
X73362Y-120328D02*
Y-111273D01*
X35723Y11009D02*
X51077D01*
X35723Y-409D02*
X51077D01*
X35723D02*
Y11009D01*
X51077Y-409D02*
Y11009D01*
X68335Y-64031D02*
Y-55369D01*
X72665Y-64031D02*
Y-55369D01*
X68335Y-64031D02*
X72665D01*
X68335Y-55369D02*
X72665D01*
X66866Y-99396D02*
X75134D01*
X66866Y-86404D02*
X75134D01*
X66866Y-99396D02*
Y-86404D01*
X75134Y-99396D02*
Y-86404D01*
M02*
