M48
;Layer_Color=9474304
;FILE_FORMAT=2:5
INCH,LZ
;TYPE=PLATED
T1F00S00C0.02000
T2F00S00C0.02800
T3F00S00C0.03543
%
T01
X00104Y-01314
T02
X00187Y-0165
X00463Y-01404
X00651Y-0145
X00342Y-01109
X003934Y-010514
X00274Y-01045
Y-00979
X00169Y-00942
X00149Y-01006
X00135Y-01071
X00134Y-01135
X00412Y-00867
X00702Y-00411
T03
X0Y-017
Y-016
Y-015
Y-014
Y-013
Y-012
Y-011
Y-01
Y-009
Y-008
Y-007
Y-006
Y-005
Y-004
Y-003
X006
Y-004
Y-005
Y-006
Y-007
Y-008
Y-009
Y-01
Y-011
Y-012
Y-013
Y-014
Y-015
Y-016
Y-017
Y-002
Y-001
Y0
X0
Y-001
Y-002
M30
