G04*
G04 #@! TF.GenerationSoftware,Altium Limited,Altium Designer,20.2.6 (244)*
G04*
G04 Layer_Color=16711935*
%FSLAX25Y25*%
%MOIN*%
G70*
G04*
G04 #@! TF.SameCoordinates,D6E29031-34EE-49FC-8B92-4996805C0DD5*
G04*
G04*
G04 #@! TF.FilePolarity,Positive*
G04*
G01*
G75*
%ADD39C,0.00394*%
D39*
X49428Y-7553D02*
X52972D01*
X49428Y-14246D02*
X52972D01*
Y-7553D01*
X49428Y-14246D02*
Y-7553D01*
X68328Y-27354D02*
X71872D01*
X68328Y-34046D02*
X71872D01*
Y-27354D01*
X68328Y-34046D02*
Y-27354D01*
X-6428Y-88147D02*
Y-81454D01*
X-9972Y-88147D02*
Y-81454D01*
X-6428D01*
X-9972Y-88147D02*
X-6428D01*
X69228Y-72654D02*
X72772D01*
X69228Y-79347D02*
X72772D01*
Y-72654D01*
X69228Y-79347D02*
Y-72654D01*
X69130Y-119245D02*
X72870D01*
X69130Y-112355D02*
X72870D01*
X69130Y-119245D02*
Y-112355D01*
X72870Y-119245D02*
Y-112355D01*
X36707Y10615D02*
X50093D01*
X36707Y-15D02*
X50093D01*
X36707D02*
Y10615D01*
X50093Y-15D02*
Y10615D01*
X68728Y-63046D02*
Y-56353D01*
X72272Y-63046D02*
Y-56353D01*
X68728Y-63046D02*
X72272D01*
X68728Y-56353D02*
X72272D01*
X69130Y-96148D02*
X72870D01*
X69130Y-89652D02*
X72870D01*
X69130Y-96148D02*
Y-89652D01*
X72870Y-96148D02*
Y-89652D01*
M02*
