G04*
G04 #@! TF.GenerationSoftware,Altium Limited,Altium Designer,20.2.6 (244)*
G04*
G04 Layer_Color=255*
%FSLAX25Y25*%
%MOIN*%
G70*
G04*
G04 #@! TF.SameCoordinates,16A80645-BAA7-4206-B01B-76556F111C33*
G04*
G04*
G04 #@! TF.FilePolarity,Positive*
G04*
G01*
G75*
G04:AMPARAMS|DCode=13|XSize=161.42mil|YSize=141.73mil|CornerRadius=0mil|HoleSize=0mil|Usage=FLASHONLY|Rotation=225.000|XOffset=0mil|YOffset=0mil|HoleType=Round|Shape=Rectangle|*
%AMROTATEDRECTD13*
4,1,4,0.00696,0.10718,0.10718,0.00696,-0.00696,-0.10718,-0.10718,-0.00696,0.00696,0.10718,0.0*
%
%ADD13ROTATEDRECTD13*%

G04:AMPARAMS|DCode=14|XSize=31.5mil|YSize=11.81mil|CornerRadius=0mil|HoleSize=0mil|Usage=FLASHONLY|Rotation=135.000|XOffset=0mil|YOffset=0mil|HoleType=Round|Shape=Rectangle|*
%AMROTATEDRECTD14*
4,1,4,0.01531,-0.00696,0.00696,-0.01531,-0.01531,0.00696,-0.00696,0.01531,0.01531,-0.00696,0.0*
%
%ADD14ROTATEDRECTD14*%

G04:AMPARAMS|DCode=15|XSize=31.5mil|YSize=11.81mil|CornerRadius=0mil|HoleSize=0mil|Usage=FLASHONLY|Rotation=45.000|XOffset=0mil|YOffset=0mil|HoleType=Round|Shape=Rectangle|*
%AMROTATEDRECTD15*
4,1,4,-0.00696,-0.01531,-0.01531,-0.00696,0.00696,0.01531,0.01531,0.00696,-0.00696,-0.01531,0.0*
%
%ADD15ROTATEDRECTD15*%

%ADD16R,0.03347X0.01772*%
%ADD17R,0.07874X0.15748*%
%ADD18R,0.04331X0.10236*%
%ADD19R,0.03543X0.02953*%
%ADD20R,0.01181X0.02362*%
%ADD21R,0.02362X0.01181*%
%ADD22R,0.03347X0.02953*%
%ADD23R,0.04134X0.04134*%
%ADD24R,0.04134X0.03543*%
%ADD33C,0.05906*%
%ADD34R,0.05906X0.05906*%
D13*
X30000Y-131100D02*
D03*
D14*
X42945Y-131518D02*
D03*
X41553Y-132910D02*
D03*
X40161Y-134301D02*
D03*
X38769Y-135693D02*
D03*
X37377Y-137085D02*
D03*
X35985Y-138477D02*
D03*
X34593Y-139869D02*
D03*
X33202Y-141261D02*
D03*
X31809Y-142653D02*
D03*
X30418Y-144045D02*
D03*
X29582Y-118155D02*
D03*
X28190Y-119547D02*
D03*
X26798Y-120939D02*
D03*
X25407Y-122331D02*
D03*
X24015Y-123723D02*
D03*
X22623Y-125115D02*
D03*
X21231Y-126507D02*
D03*
X19839Y-127899D02*
D03*
X18447Y-129290D02*
D03*
X17055Y-130682D02*
D03*
D15*
X42945Y-127899D02*
D03*
X41553Y-126507D02*
D03*
X40161Y-125115D02*
D03*
X38769Y-123723D02*
D03*
X26868Y-143975D02*
D03*
X25476Y-142584D02*
D03*
X24084Y-141192D02*
D03*
X22692Y-139800D02*
D03*
X37377Y-122331D02*
D03*
X35985Y-120939D02*
D03*
X34593Y-119547D02*
D03*
X33202Y-118155D02*
D03*
X21300Y-138408D02*
D03*
X19908Y-137016D02*
D03*
X18517Y-135624D02*
D03*
X17124Y-134232D02*
D03*
D16*
X51200Y-13853D02*
D03*
Y-7947D02*
D03*
X70100Y-33653D02*
D03*
Y-27747D02*
D03*
X-8200Y-87753D02*
D03*
Y-81847D02*
D03*
X70500Y-62653D02*
D03*
Y-56747D02*
D03*
D17*
X30000Y-58524D02*
D03*
Y-86476D02*
D03*
Y-38976D02*
D03*
Y-11024D02*
D03*
D18*
X48518Y5300D02*
D03*
X38282D02*
D03*
D19*
X71000Y-103038D02*
D03*
X70900Y-139362D02*
D03*
Y-134638D02*
D03*
X71000Y-107762D02*
D03*
D20*
X50000Y-3300D02*
D03*
X9500Y0D02*
D03*
X71100Y-127700D02*
D03*
X68900D02*
D03*
X7300Y0D02*
D03*
X52200Y-3300D02*
D03*
X68800Y-67500D02*
D03*
X71000D02*
D03*
X68800Y-84400D02*
D03*
X71000D02*
D03*
D21*
X24600Y-153300D02*
D03*
X69400Y-13710D02*
D03*
X24600Y-151100D02*
D03*
X69400Y-11509D02*
D03*
D22*
X71000Y-118359D02*
D03*
Y-113241D02*
D03*
D23*
Y-73343D02*
D03*
Y-78658D02*
D03*
D24*
Y-95557D02*
D03*
Y-90242D02*
D03*
D33*
X0Y-100000D02*
D03*
Y-110000D02*
D03*
X60000Y-10000D02*
D03*
Y-120000D02*
D03*
Y-170000D02*
D03*
Y-160000D02*
D03*
Y-150000D02*
D03*
Y-140000D02*
D03*
Y-130000D02*
D03*
Y-110000D02*
D03*
Y-100000D02*
D03*
Y-90000D02*
D03*
Y-80000D02*
D03*
Y-70000D02*
D03*
Y-60000D02*
D03*
Y-50000D02*
D03*
Y-40000D02*
D03*
Y-30000D02*
D03*
Y-20000D02*
D03*
X0Y-170000D02*
D03*
Y-160000D02*
D03*
Y-150000D02*
D03*
Y-140000D02*
D03*
Y-130000D02*
D03*
Y-120000D02*
D03*
Y-90000D02*
D03*
Y-80000D02*
D03*
Y-70000D02*
D03*
Y-60000D02*
D03*
Y-50000D02*
D03*
Y-40000D02*
D03*
Y-30000D02*
D03*
Y-20000D02*
D03*
Y-10000D02*
D03*
D34*
X60000Y0D02*
D03*
X0D02*
D03*
M02*
