G04*
G04 #@! TF.GenerationSoftware,Altium Limited,Altium Designer,20.2.6 (244)*
G04*
G04 Layer_Color=32896*
%FSLAX25Y25*%
%MOIN*%
G70*
G04*
G04 #@! TF.SameCoordinates,D6E29031-34EE-49FC-8B92-4996805C0DD5*
G04*
G04*
G04 #@! TF.FilePolarity,Positive*
G04*
G01*
G75*
%ADD11C,0.01000*%
G36*
X43916Y9889D02*
X44033Y9878D01*
X44138Y9866D01*
X44238Y9849D01*
X44320Y9831D01*
X44396Y9814D01*
X44460Y9796D01*
X44519Y9778D01*
X44565Y9761D01*
X44606Y9743D01*
X44636Y9726D01*
X44659Y9714D01*
X44677Y9702D01*
X44682Y9697D01*
X44688D01*
X44729Y9656D01*
X44770Y9603D01*
X44799Y9544D01*
X44829Y9486D01*
X44875Y9346D01*
X44905Y9205D01*
X44922Y9076D01*
X44928Y9018D01*
Y8965D01*
X44934Y8924D01*
Y8895D01*
Y8872D01*
Y8866D01*
Y8720D01*
X44542D01*
X44536Y8878D01*
Y8959D01*
X44530Y9030D01*
X44524Y9094D01*
X44513Y9153D01*
X44501Y9205D01*
X44489Y9252D01*
X44478Y9293D01*
X44466Y9322D01*
X44442Y9375D01*
X44419Y9410D01*
X44402Y9427D01*
X44396Y9433D01*
X44366Y9451D01*
X44326Y9468D01*
X44273Y9486D01*
X44220Y9498D01*
X44097Y9515D01*
X43969Y9533D01*
X43846Y9539D01*
X43793D01*
X43746Y9544D01*
X43530D01*
X43425Y9539D01*
X43325Y9533D01*
X43243Y9527D01*
X43167Y9521D01*
X43103Y9509D01*
X43044Y9498D01*
X42998Y9492D01*
X42957Y9480D01*
X42922Y9468D01*
X42892Y9457D01*
X42875Y9451D01*
X42845Y9439D01*
X42840Y9433D01*
X42816Y9410D01*
X42793Y9375D01*
X42770Y9340D01*
X42758Y9293D01*
X42728Y9193D01*
X42711Y9094D01*
X42699Y8995D01*
Y8953D01*
X42693Y8913D01*
Y8883D01*
Y8860D01*
Y8842D01*
Y8837D01*
Y8760D01*
X42699Y8690D01*
X42711Y8632D01*
X42717Y8573D01*
X42734Y8527D01*
X42746Y8486D01*
X42775Y8415D01*
X42810Y8369D01*
X42834Y8339D01*
X42857Y8322D01*
X42863Y8316D01*
X42904Y8298D01*
X42951Y8287D01*
X43009Y8275D01*
X43080Y8263D01*
X43226Y8246D01*
X43384Y8234D01*
X43460Y8228D01*
X43600D01*
X43665Y8222D01*
X43922D01*
Y7871D01*
X43325D01*
X43243Y7865D01*
X43173Y7860D01*
X43103Y7854D01*
X43044Y7842D01*
X42998Y7830D01*
X42951Y7819D01*
X42910Y7807D01*
X42845Y7784D01*
X42805Y7760D01*
X42781Y7748D01*
X42775Y7743D01*
X42746Y7719D01*
X42723Y7684D01*
X42687Y7608D01*
X42658Y7520D01*
X42641Y7427D01*
X42629Y7345D01*
X42623Y7269D01*
Y7245D01*
Y7222D01*
Y7210D01*
Y7204D01*
Y7117D01*
X42629Y7035D01*
X42635Y6965D01*
X42647Y6900D01*
X42658Y6842D01*
X42676Y6795D01*
X42687Y6748D01*
X42699Y6713D01*
X42728Y6649D01*
X42758Y6613D01*
X42775Y6590D01*
X42781Y6584D01*
X42816Y6561D01*
X42857Y6543D01*
X42910Y6526D01*
X42963Y6508D01*
X43085Y6485D01*
X43208Y6473D01*
X43325Y6461D01*
X43378D01*
X43425Y6456D01*
X43653D01*
X43770Y6461D01*
X43881Y6467D01*
X43975Y6473D01*
X44062Y6479D01*
X44138Y6485D01*
X44203Y6497D01*
X44255Y6508D01*
X44302Y6514D01*
X44337Y6526D01*
X44372Y6532D01*
X44396Y6538D01*
X44413Y6543D01*
X44425Y6549D01*
X44431Y6555D01*
X44460Y6578D01*
X44484Y6608D01*
X44501Y6649D01*
X44524Y6690D01*
X44548Y6783D01*
X44571Y6883D01*
X44583Y6976D01*
Y7023D01*
X44589Y7058D01*
Y7087D01*
Y7117D01*
Y7128D01*
Y7134D01*
Y7351D01*
X44998D01*
Y7128D01*
X44993Y7011D01*
X44987Y6912D01*
X44975Y6812D01*
X44957Y6730D01*
X44934Y6655D01*
X44911Y6584D01*
X44887Y6526D01*
X44864Y6473D01*
X44840Y6432D01*
X44817Y6391D01*
X44793Y6362D01*
X44770Y6339D01*
X44753Y6321D01*
X44741Y6309D01*
X44729Y6298D01*
X44671Y6263D01*
X44600Y6233D01*
X44519Y6210D01*
X44431Y6186D01*
X44244Y6151D01*
X44051Y6128D01*
X43957Y6122D01*
X43869Y6116D01*
X43787Y6111D01*
X43717D01*
X43659Y6105D01*
X43431D01*
X43296Y6116D01*
X43173Y6122D01*
X43062Y6140D01*
X42963Y6151D01*
X42875Y6169D01*
X42799Y6192D01*
X42728Y6210D01*
X42670Y6227D01*
X42623Y6251D01*
X42582Y6268D01*
X42547Y6280D01*
X42524Y6298D01*
X42506Y6303D01*
X42500Y6315D01*
X42494D01*
X42448Y6362D01*
X42407Y6415D01*
X42372Y6473D01*
X42336Y6538D01*
X42290Y6678D01*
X42261Y6824D01*
X42237Y6959D01*
X42231Y7017D01*
Y7070D01*
X42225Y7117D01*
Y7146D01*
Y7169D01*
Y7175D01*
Y7257D01*
X42231Y7339D01*
X42237Y7409D01*
X42249Y7474D01*
X42261Y7532D01*
X42272Y7585D01*
X42284Y7631D01*
X42296Y7672D01*
X42319Y7737D01*
X42342Y7778D01*
X42360Y7807D01*
X42366Y7813D01*
X42395Y7842D01*
X42430Y7871D01*
X42512Y7924D01*
X42600Y7965D01*
X42693Y7994D01*
X42781Y8017D01*
X42851Y8035D01*
X42881Y8041D01*
X42904Y8047D01*
X42922D01*
Y8064D01*
X42851Y8076D01*
X42793Y8088D01*
X42687Y8117D01*
X42600Y8158D01*
X42530Y8193D01*
X42483Y8228D01*
X42448Y8257D01*
X42430Y8281D01*
X42424Y8287D01*
X42401Y8322D01*
X42383Y8369D01*
X42348Y8468D01*
X42325Y8579D01*
X42313Y8690D01*
X42301Y8790D01*
Y8837D01*
X42296Y8878D01*
Y8907D01*
Y8930D01*
Y8948D01*
Y8953D01*
Y9059D01*
X42307Y9153D01*
X42319Y9234D01*
X42336Y9316D01*
X42354Y9381D01*
X42377Y9445D01*
X42401Y9498D01*
X42424Y9544D01*
X42454Y9585D01*
X42477Y9620D01*
X42500Y9650D01*
X42518Y9673D01*
X42547Y9702D01*
X42553Y9708D01*
X42559D01*
X42612Y9743D01*
X42682Y9772D01*
X42758Y9796D01*
X42840Y9819D01*
X43015Y9849D01*
X43196Y9872D01*
X43284Y9878D01*
X43366Y9884D01*
X43442Y9889D01*
X43507Y9895D01*
X43782D01*
X43916Y9889D01*
D02*
G37*
G36*
X32456Y7977D02*
X32081D01*
X32058Y8041D01*
X32017Y8094D01*
X31964Y8140D01*
X31900Y8181D01*
X31830Y8217D01*
X31748Y8246D01*
X31584Y8287D01*
X31420Y8316D01*
X31344Y8322D01*
X31280Y8328D01*
X31227Y8333D01*
X31034D01*
X30935Y8328D01*
X30847Y8322D01*
X30765Y8310D01*
X30695Y8298D01*
X30631Y8281D01*
X30578Y8269D01*
X30525Y8257D01*
X30484Y8240D01*
X30455Y8228D01*
X30426Y8211D01*
X30403Y8199D01*
X30373Y8181D01*
X30367Y8175D01*
X30338Y8140D01*
X30309Y8100D01*
X30291Y8053D01*
X30268Y8000D01*
X30239Y7883D01*
X30221Y7760D01*
X30204Y7649D01*
Y7596D01*
X30198Y7550D01*
Y7514D01*
Y7485D01*
Y7468D01*
Y7462D01*
Y7339D01*
X30204Y7228D01*
X30209Y7123D01*
X30221Y7035D01*
X30233Y6953D01*
X30245Y6888D01*
X30262Y6824D01*
X30274Y6771D01*
X30286Y6730D01*
X30303Y6695D01*
X30315Y6666D01*
X30327Y6643D01*
X30338Y6625D01*
X30344Y6613D01*
X30350Y6608D01*
X30385Y6578D01*
X30426Y6555D01*
X30484Y6538D01*
X30543Y6520D01*
X30678Y6491D01*
X30818Y6473D01*
X30952Y6461D01*
X31017D01*
X31069Y6456D01*
X31292D01*
X31391Y6461D01*
X31485Y6467D01*
X31573Y6473D01*
X31643Y6485D01*
X31713Y6491D01*
X31766Y6502D01*
X31818Y6514D01*
X31859Y6526D01*
X31894Y6538D01*
X31918Y6543D01*
X31941Y6555D01*
X31970Y6567D01*
X31976Y6573D01*
X32006Y6602D01*
X32029Y6637D01*
X32046Y6678D01*
X32070Y6725D01*
X32093Y6824D01*
X32117Y6935D01*
X32128Y7035D01*
Y7082D01*
X32134Y7123D01*
Y7158D01*
Y7181D01*
Y7199D01*
Y7204D01*
X32526D01*
Y7058D01*
X32520Y6959D01*
X32514Y6865D01*
X32503Y6777D01*
X32485Y6701D01*
X32462Y6631D01*
X32438Y6567D01*
X32415Y6514D01*
X32386Y6467D01*
X32362Y6426D01*
X32339Y6391D01*
X32315Y6362D01*
X32292Y6339D01*
X32263Y6309D01*
X32251Y6298D01*
X32193Y6263D01*
X32122Y6233D01*
X32046Y6210D01*
X31959Y6186D01*
X31777Y6151D01*
X31590Y6128D01*
X31502Y6122D01*
X31420Y6116D01*
X31344Y6111D01*
X31280D01*
X31222Y6105D01*
X31146D01*
X30993Y6111D01*
X30859Y6116D01*
X30736Y6128D01*
X30625Y6146D01*
X30525Y6163D01*
X30438Y6186D01*
X30356Y6210D01*
X30291Y6233D01*
X30233Y6257D01*
X30180Y6280D01*
X30145Y6303D01*
X30110Y6321D01*
X30087Y6339D01*
X30069Y6350D01*
X30057Y6362D01*
X30011Y6415D01*
X29970Y6485D01*
X29940Y6561D01*
X29911Y6643D01*
X29864Y6824D01*
X29829Y7017D01*
X29823Y7105D01*
X29812Y7193D01*
X29806Y7269D01*
Y7339D01*
X29800Y7392D01*
Y7438D01*
Y7462D01*
Y7474D01*
Y7602D01*
X29812Y7713D01*
X29823Y7824D01*
X29841Y7918D01*
X29864Y8006D01*
X29888Y8082D01*
X29911Y8152D01*
X29935Y8217D01*
X29958Y8263D01*
X29981Y8310D01*
X30005Y8345D01*
X30028Y8374D01*
X30046Y8398D01*
X30057Y8415D01*
X30063Y8427D01*
X30069D01*
X30122Y8474D01*
X30192Y8515D01*
X30262Y8544D01*
X30338Y8573D01*
X30508Y8620D01*
X30672Y8655D01*
X30754Y8661D01*
X30830Y8673D01*
X30894Y8679D01*
X30958D01*
X31005Y8684D01*
X31075D01*
X31210Y8679D01*
X31333Y8673D01*
X31450Y8655D01*
X31549Y8638D01*
X31637Y8614D01*
X31719Y8585D01*
X31789Y8556D01*
X31848Y8532D01*
X31900Y8503D01*
X31941Y8474D01*
X31976Y8445D01*
X32006Y8421D01*
X32029Y8404D01*
X32041Y8386D01*
X32052Y8380D01*
Y8374D01*
X32058D01*
X32041Y9509D01*
X29952D01*
Y9860D01*
X32456D01*
Y7977D01*
D02*
G37*
G36*
X28016Y8778D02*
X28121Y8766D01*
X28215Y8743D01*
X28302Y8714D01*
X28378Y8679D01*
X28449Y8643D01*
X28513Y8602D01*
X28566Y8562D01*
X28613Y8521D01*
X28653Y8480D01*
X28683Y8445D01*
X28706Y8410D01*
X28730Y8380D01*
X28741Y8357D01*
X28753Y8345D01*
Y8339D01*
X28765Y8351D01*
X28753Y8743D01*
X29133D01*
Y6146D01*
X28753D01*
Y7620D01*
X28741Y7772D01*
X28718Y7901D01*
X28683Y8012D01*
X28630Y8111D01*
X28572Y8193D01*
X28507Y8263D01*
X28437Y8316D01*
X28367Y8363D01*
X28297Y8398D01*
X28226Y8421D01*
X28162Y8445D01*
X28104Y8456D01*
X28051Y8462D01*
X28016Y8468D01*
X27981D01*
X27881Y8462D01*
X27788Y8445D01*
X27711Y8421D01*
X27647Y8386D01*
X27589Y8351D01*
X27542Y8310D01*
X27507Y8263D01*
X27472Y8216D01*
X27448Y8164D01*
X27431Y8123D01*
X27419Y8076D01*
X27413Y8041D01*
X27407Y8006D01*
X27402Y7982D01*
Y7965D01*
Y7959D01*
X27396Y7842D01*
Y6146D01*
X27015D01*
Y7643D01*
Y7731D01*
X27010Y7807D01*
X26998Y7883D01*
X26992Y7947D01*
X26980Y8006D01*
X26963Y8059D01*
X26951Y8105D01*
X26934Y8146D01*
X26910Y8216D01*
X26881Y8257D01*
X26863Y8287D01*
X26858Y8292D01*
X26822Y8322D01*
X26787Y8351D01*
X26694Y8392D01*
X26594Y8427D01*
X26489Y8445D01*
X26395Y8456D01*
X26354Y8462D01*
X26319Y8468D01*
X26243D01*
X26126Y8462D01*
X26027Y8450D01*
X25945Y8427D01*
X25886Y8410D01*
X25840Y8386D01*
X25804Y8363D01*
X25787Y8351D01*
X25781Y8345D01*
X25740Y8292D01*
X25711Y8222D01*
X25688Y8140D01*
X25676Y8064D01*
X25664Y7994D01*
X25658Y7936D01*
Y7912D01*
Y7895D01*
Y7883D01*
Y7877D01*
Y6146D01*
X25278D01*
Y7842D01*
X25290Y8006D01*
X25319Y8152D01*
X25366Y8281D01*
X25424Y8386D01*
X25494Y8480D01*
X25570Y8556D01*
X25652Y8614D01*
X25740Y8667D01*
X25828Y8708D01*
X25910Y8737D01*
X25986Y8755D01*
X26056Y8772D01*
X26114Y8778D01*
X26161Y8784D01*
X26202D01*
X26319Y8778D01*
X26425Y8766D01*
X26524Y8743D01*
X26618Y8714D01*
X26694Y8679D01*
X26770Y8643D01*
X26834Y8602D01*
X26893Y8562D01*
X26939Y8521D01*
X26980Y8480D01*
X27015Y8445D01*
X27045Y8410D01*
X27062Y8380D01*
X27080Y8357D01*
X27086Y8345D01*
X27091Y8339D01*
X27103D01*
X27138Y8415D01*
X27179Y8485D01*
X27232Y8544D01*
X27290Y8597D01*
X27355Y8638D01*
X27419Y8673D01*
X27489Y8708D01*
X27559Y8731D01*
X27688Y8760D01*
X27747Y8772D01*
X27799Y8778D01*
X27840Y8784D01*
X27905D01*
X28016Y8778D01*
D02*
G37*
G36*
X23418Y8778D02*
X23523Y8766D01*
X23617Y8743D01*
X23704Y8714D01*
X23780Y8679D01*
X23851Y8643D01*
X23915Y8602D01*
X23968Y8562D01*
X24014Y8521D01*
X24055Y8480D01*
X24084Y8445D01*
X24108Y8410D01*
X24131Y8380D01*
X24143Y8357D01*
X24155Y8345D01*
Y8339D01*
X24167Y8351D01*
X24155Y8743D01*
X24535D01*
Y6146D01*
X24155D01*
Y7620D01*
X24143Y7772D01*
X24120Y7901D01*
X24084Y8012D01*
X24032Y8111D01*
X23973Y8193D01*
X23909Y8263D01*
X23839Y8316D01*
X23769Y8363D01*
X23698Y8398D01*
X23628Y8421D01*
X23564Y8445D01*
X23505Y8456D01*
X23453Y8462D01*
X23418Y8468D01*
X23383D01*
X23283Y8462D01*
X23189Y8445D01*
X23113Y8421D01*
X23049Y8386D01*
X22991Y8351D01*
X22944Y8310D01*
X22909Y8263D01*
X22874Y8216D01*
X22850Y8164D01*
X22833Y8123D01*
X22821Y8076D01*
X22815Y8041D01*
X22809Y8006D01*
X22803Y7982D01*
Y7965D01*
Y7959D01*
X22798Y7842D01*
Y6146D01*
X22417D01*
Y7643D01*
Y7731D01*
X22411Y7807D01*
X22400Y7883D01*
X22394Y7947D01*
X22382Y8006D01*
X22365Y8059D01*
X22353Y8105D01*
X22335Y8146D01*
X22312Y8216D01*
X22283Y8257D01*
X22265Y8287D01*
X22259Y8292D01*
X22224Y8322D01*
X22189Y8351D01*
X22096Y8392D01*
X21996Y8427D01*
X21891Y8445D01*
X21797Y8456D01*
X21756Y8462D01*
X21721Y8468D01*
X21645D01*
X21528Y8462D01*
X21429Y8450D01*
X21347Y8427D01*
X21288Y8410D01*
X21241Y8386D01*
X21206Y8363D01*
X21189Y8351D01*
X21183Y8345D01*
X21142Y8292D01*
X21113Y8222D01*
X21089Y8140D01*
X21078Y8064D01*
X21066Y7994D01*
X21060Y7936D01*
Y7912D01*
Y7895D01*
Y7883D01*
Y7877D01*
Y6146D01*
X20680D01*
Y7842D01*
X20692Y8006D01*
X20721Y8152D01*
X20768Y8281D01*
X20826Y8386D01*
X20896Y8480D01*
X20972Y8556D01*
X21054Y8614D01*
X21142Y8667D01*
X21230Y8708D01*
X21312Y8737D01*
X21388Y8755D01*
X21458Y8772D01*
X21516Y8778D01*
X21563Y8784D01*
X21604D01*
X21721Y8778D01*
X21826Y8766D01*
X21926Y8743D01*
X22019Y8714D01*
X22096Y8679D01*
X22172Y8643D01*
X22236Y8602D01*
X22295Y8562D01*
X22341Y8521D01*
X22382Y8480D01*
X22417Y8445D01*
X22446Y8410D01*
X22464Y8380D01*
X22482Y8357D01*
X22488Y8345D01*
X22493Y8339D01*
X22505D01*
X22540Y8415D01*
X22581Y8485D01*
X22634Y8544D01*
X22692Y8597D01*
X22757Y8638D01*
X22821Y8673D01*
X22891Y8708D01*
X22961Y8731D01*
X23090Y8760D01*
X23149Y8772D01*
X23201Y8778D01*
X23242Y8784D01*
X23306D01*
X23418Y8778D01*
D02*
G37*
G36*
X10378D02*
X10483Y8766D01*
X10577Y8743D01*
X10665Y8714D01*
X10741Y8679D01*
X10811Y8643D01*
X10875Y8602D01*
X10928Y8562D01*
X10975Y8521D01*
X11016Y8480D01*
X11045Y8445D01*
X11068Y8410D01*
X11092Y8380D01*
X11103Y8357D01*
X11115Y8345D01*
Y8339D01*
X11127Y8351D01*
X11115Y8743D01*
X11495D01*
Y6146D01*
X11115D01*
Y7620D01*
X11103Y7772D01*
X11080Y7901D01*
X11045Y8012D01*
X10992Y8111D01*
X10934Y8193D01*
X10869Y8263D01*
X10799Y8316D01*
X10729Y8363D01*
X10659Y8398D01*
X10589Y8421D01*
X10524Y8445D01*
X10466Y8456D01*
X10413Y8462D01*
X10378Y8468D01*
X10343D01*
X10243Y8462D01*
X10150Y8445D01*
X10074Y8421D01*
X10009Y8386D01*
X9951Y8351D01*
X9904Y8310D01*
X9869Y8263D01*
X9834Y8216D01*
X9811Y8164D01*
X9793Y8123D01*
X9781Y8076D01*
X9775Y8041D01*
X9770Y8006D01*
X9764Y7982D01*
Y7965D01*
Y7959D01*
X9758Y7842D01*
Y6146D01*
X9378D01*
Y7643D01*
Y7731D01*
X9372Y7807D01*
X9360Y7883D01*
X9354Y7947D01*
X9342Y8006D01*
X9325Y8059D01*
X9313Y8105D01*
X9296Y8146D01*
X9272Y8216D01*
X9243Y8257D01*
X9225Y8287D01*
X9220Y8292D01*
X9185Y8322D01*
X9149Y8351D01*
X9056Y8392D01*
X8956Y8427D01*
X8851Y8445D01*
X8758Y8456D01*
X8717Y8462D01*
X8681Y8468D01*
X8606D01*
X8489Y8462D01*
X8389Y8450D01*
X8307Y8427D01*
X8249Y8410D01*
X8202Y8386D01*
X8167Y8363D01*
X8149Y8351D01*
X8143Y8345D01*
X8102Y8292D01*
X8073Y8222D01*
X8050Y8140D01*
X8038Y8064D01*
X8026Y7994D01*
X8020Y7936D01*
Y7912D01*
Y7895D01*
Y7883D01*
Y7877D01*
Y6146D01*
X7640D01*
Y7842D01*
X7652Y8006D01*
X7681Y8152D01*
X7728Y8281D01*
X7786Y8386D01*
X7857Y8480D01*
X7933Y8556D01*
X8015Y8614D01*
X8102Y8667D01*
X8190Y8708D01*
X8272Y8737D01*
X8348Y8755D01*
X8418Y8772D01*
X8477Y8778D01*
X8524Y8784D01*
X8564D01*
X8681Y8778D01*
X8787Y8766D01*
X8886Y8743D01*
X8980Y8714D01*
X9056Y8679D01*
X9132Y8643D01*
X9196Y8602D01*
X9255Y8562D01*
X9302Y8521D01*
X9342Y8480D01*
X9378Y8445D01*
X9407Y8410D01*
X9425Y8380D01*
X9442Y8357D01*
X9448Y8345D01*
X9454Y8339D01*
X9465D01*
X9500Y8415D01*
X9542Y8485D01*
X9594Y8544D01*
X9653Y8597D01*
X9717Y8638D01*
X9781Y8673D01*
X9851Y8708D01*
X9922Y8731D01*
X10050Y8760D01*
X10109Y8772D01*
X10161Y8778D01*
X10203Y8784D01*
X10267D01*
X10378Y8778D01*
D02*
G37*
G36*
X5780D02*
X5885Y8766D01*
X5979Y8743D01*
X6067Y8714D01*
X6143Y8679D01*
X6213Y8643D01*
X6277Y8602D01*
X6330Y8562D01*
X6377Y8521D01*
X6418Y8480D01*
X6447Y8445D01*
X6470Y8410D01*
X6494Y8380D01*
X6505Y8357D01*
X6517Y8345D01*
Y8339D01*
X6529Y8351D01*
X6517Y8743D01*
X6897D01*
Y6146D01*
X6517D01*
Y7620D01*
X6505Y7772D01*
X6482Y7901D01*
X6447Y8012D01*
X6394Y8111D01*
X6336Y8193D01*
X6271Y8263D01*
X6201Y8316D01*
X6131Y8363D01*
X6061Y8398D01*
X5991Y8421D01*
X5926Y8445D01*
X5868Y8456D01*
X5815Y8462D01*
X5780Y8468D01*
X5745D01*
X5645Y8462D01*
X5552Y8445D01*
X5476Y8421D01*
X5411Y8386D01*
X5353Y8351D01*
X5306Y8310D01*
X5271Y8263D01*
X5236Y8216D01*
X5212Y8164D01*
X5195Y8123D01*
X5183Y8076D01*
X5177Y8041D01*
X5172Y8006D01*
X5166Y7982D01*
Y7965D01*
Y7959D01*
X5160Y7842D01*
Y6146D01*
X4780D01*
Y7643D01*
Y7731D01*
X4774Y7807D01*
X4762Y7883D01*
X4756Y7947D01*
X4744Y8006D01*
X4727Y8059D01*
X4715Y8105D01*
X4698Y8146D01*
X4674Y8216D01*
X4645Y8257D01*
X4628Y8287D01*
X4622Y8292D01*
X4586Y8322D01*
X4551Y8351D01*
X4458Y8392D01*
X4358Y8427D01*
X4253Y8445D01*
X4159Y8456D01*
X4118Y8462D01*
X4083Y8468D01*
X4007D01*
X3890Y8462D01*
X3791Y8450D01*
X3709Y8427D01*
X3650Y8410D01*
X3604Y8386D01*
X3569Y8363D01*
X3551Y8351D01*
X3545Y8345D01*
X3504Y8292D01*
X3475Y8222D01*
X3452Y8140D01*
X3440Y8064D01*
X3428Y7994D01*
X3422Y7936D01*
Y7912D01*
Y7895D01*
Y7883D01*
Y7877D01*
Y6146D01*
X3042D01*
Y7842D01*
X3054Y8006D01*
X3083Y8152D01*
X3130Y8281D01*
X3188Y8386D01*
X3259Y8480D01*
X3335Y8556D01*
X3416Y8614D01*
X3504Y8667D01*
X3592Y8708D01*
X3674Y8737D01*
X3750Y8755D01*
X3820Y8772D01*
X3879Y8778D01*
X3926Y8784D01*
X3966D01*
X4083Y8778D01*
X4189Y8766D01*
X4288Y8743D01*
X4382Y8714D01*
X4458Y8679D01*
X4534Y8643D01*
X4598Y8602D01*
X4657Y8562D01*
X4704Y8521D01*
X4744Y8480D01*
X4780Y8445D01*
X4809Y8410D01*
X4826Y8380D01*
X4844Y8357D01*
X4850Y8345D01*
X4856Y8339D01*
X4867D01*
X4902Y8415D01*
X4943Y8485D01*
X4996Y8544D01*
X5054Y8597D01*
X5119Y8638D01*
X5183Y8673D01*
X5253Y8708D01*
X5324Y8731D01*
X5452Y8760D01*
X5511Y8772D01*
X5564Y8778D01*
X5604Y8784D01*
X5669D01*
X5780Y8778D01*
D02*
G37*
G36*
X40558Y9884D02*
X40681Y9872D01*
X40786Y9860D01*
X40880Y9843D01*
X40968Y9819D01*
X41044Y9796D01*
X41108Y9778D01*
X41167Y9755D01*
X41213Y9732D01*
X41254Y9714D01*
X41284Y9691D01*
X41307Y9679D01*
X41324Y9667D01*
X41330Y9656D01*
X41336D01*
X41383Y9603D01*
X41418Y9544D01*
X41453Y9474D01*
X41482Y9404D01*
X41523Y9240D01*
X41559Y9076D01*
X41564Y9000D01*
X41576Y8924D01*
X41582Y8860D01*
Y8796D01*
X41588Y8749D01*
Y8714D01*
Y8684D01*
Y8679D01*
X41594Y8082D01*
X41588Y7409D01*
X41582Y7263D01*
X41576Y7134D01*
X41564Y7017D01*
X41547Y6906D01*
X41523Y6812D01*
X41500Y6725D01*
X41477Y6649D01*
X41453Y6584D01*
X41430Y6526D01*
X41406Y6479D01*
X41383Y6438D01*
X41360Y6409D01*
X41342Y6385D01*
X41330Y6368D01*
X41319Y6362D01*
Y6356D01*
X41260Y6309D01*
X41196Y6274D01*
X41114Y6239D01*
X41032Y6210D01*
X40845Y6169D01*
X40658Y6134D01*
X40564Y6128D01*
X40482Y6116D01*
X40400Y6111D01*
X40330D01*
X40277Y6105D01*
X40043D01*
X39909Y6116D01*
X39786Y6128D01*
X39669Y6140D01*
X39570Y6157D01*
X39482Y6175D01*
X39400Y6198D01*
X39330Y6222D01*
X39271Y6239D01*
X39224Y6263D01*
X39183Y6280D01*
X39148Y6298D01*
X39125Y6309D01*
X39107Y6321D01*
X39101Y6333D01*
X39096D01*
X39049Y6380D01*
X39008Y6438D01*
X38973Y6508D01*
X38938Y6578D01*
X38891Y6736D01*
X38862Y6900D01*
X38850Y6976D01*
X38838Y7046D01*
X38832Y7117D01*
Y7175D01*
X38827Y7222D01*
Y7263D01*
Y7286D01*
Y7292D01*
Y7415D01*
X38838Y7526D01*
X38850Y7626D01*
X38868Y7719D01*
X38885Y7801D01*
X38908Y7871D01*
X38932Y7936D01*
X38955Y7994D01*
X38979Y8047D01*
X39002Y8088D01*
X39026Y8117D01*
X39043Y8146D01*
X39061Y8170D01*
X39072Y8181D01*
X39078Y8193D01*
X39084D01*
X39137Y8234D01*
X39201Y8269D01*
X39271Y8304D01*
X39347Y8328D01*
X39511Y8369D01*
X39681Y8398D01*
X39757Y8410D01*
X39833Y8415D01*
X39903Y8421D01*
X39961D01*
X40014Y8427D01*
X40084D01*
X40231Y8421D01*
X40371Y8415D01*
X40488Y8398D01*
X40599Y8374D01*
X40699Y8351D01*
X40786Y8322D01*
X40862Y8292D01*
X40927Y8263D01*
X40985Y8228D01*
X41032Y8199D01*
X41067Y8170D01*
X41096Y8146D01*
X41120Y8123D01*
X41137Y8105D01*
X41143Y8100D01*
X41149Y8094D01*
X41155D01*
Y8848D01*
Y8930D01*
X41149Y9000D01*
X41137Y9071D01*
X41126Y9129D01*
X41114Y9182D01*
X41096Y9228D01*
X41079Y9269D01*
X41061Y9305D01*
X41032Y9357D01*
X41003Y9398D01*
X40979Y9416D01*
X40973Y9422D01*
X40933Y9445D01*
X40880Y9463D01*
X40821Y9480D01*
X40757Y9492D01*
X40611Y9515D01*
X40459Y9527D01*
X40318Y9539D01*
X40254D01*
X40195Y9544D01*
X40002D01*
X39926Y9539D01*
X39856Y9533D01*
X39792Y9527D01*
X39739Y9521D01*
X39687Y9515D01*
X39640Y9503D01*
X39605Y9498D01*
X39540Y9474D01*
X39499Y9463D01*
X39476Y9451D01*
X39470Y9445D01*
X39417Y9398D01*
X39382Y9340D01*
X39353Y9275D01*
X39336Y9211D01*
X39324Y9147D01*
X39318Y9094D01*
Y9059D01*
Y9053D01*
Y9047D01*
Y9036D01*
Y9012D01*
X39324Y8971D01*
X39330Y8936D01*
X39336Y8924D01*
Y8918D01*
X38926D01*
X38920Y9041D01*
X38926Y9129D01*
X38932Y9211D01*
X38943Y9287D01*
X38967Y9357D01*
X38985Y9416D01*
X39008Y9474D01*
X39037Y9521D01*
X39061Y9562D01*
X39113Y9632D01*
X39160Y9679D01*
X39195Y9708D01*
X39201Y9714D01*
X39207D01*
X39265Y9743D01*
X39336Y9772D01*
X39412Y9796D01*
X39499Y9819D01*
X39675Y9849D01*
X39856Y9872D01*
X39944Y9878D01*
X40020Y9884D01*
X40096Y9889D01*
X40160Y9895D01*
X40429D01*
X40558Y9884D01*
D02*
G37*
G36*
X13935Y9884D02*
X14058Y9872D01*
X14163Y9860D01*
X14256Y9843D01*
X14344Y9819D01*
X14420Y9796D01*
X14485Y9778D01*
X14543Y9755D01*
X14590Y9732D01*
X14631Y9714D01*
X14660Y9691D01*
X14684Y9679D01*
X14701Y9667D01*
X14707Y9656D01*
X14713D01*
X14760Y9603D01*
X14795Y9544D01*
X14830Y9474D01*
X14859Y9404D01*
X14900Y9240D01*
X14935Y9076D01*
X14941Y9000D01*
X14953Y8924D01*
X14958Y8860D01*
Y8796D01*
X14964Y8749D01*
Y8714D01*
Y8684D01*
Y8679D01*
X14970Y8082D01*
X14964Y7409D01*
X14958Y7263D01*
X14953Y7134D01*
X14941Y7017D01*
X14923Y6906D01*
X14900Y6812D01*
X14877Y6725D01*
X14853Y6649D01*
X14830Y6584D01*
X14807Y6526D01*
X14783Y6479D01*
X14760Y6438D01*
X14736Y6409D01*
X14719Y6385D01*
X14707Y6368D01*
X14695Y6362D01*
Y6356D01*
X14637Y6309D01*
X14572Y6274D01*
X14491Y6239D01*
X14409Y6210D01*
X14221Y6169D01*
X14034Y6134D01*
X13941Y6128D01*
X13859Y6116D01*
X13777Y6110D01*
X13707D01*
X13654Y6105D01*
X13420D01*
X13285Y6116D01*
X13163Y6128D01*
X13046Y6140D01*
X12946Y6157D01*
X12858Y6175D01*
X12776Y6198D01*
X12706Y6222D01*
X12648Y6239D01*
X12601Y6262D01*
X12560Y6280D01*
X12525Y6298D01*
X12502Y6309D01*
X12484Y6321D01*
X12478Y6333D01*
X12472D01*
X12426Y6380D01*
X12385Y6438D01*
X12349Y6508D01*
X12314Y6578D01*
X12268Y6736D01*
X12238Y6900D01*
X12227Y6976D01*
X12215Y7046D01*
X12209Y7117D01*
Y7175D01*
X12203Y7222D01*
Y7263D01*
Y7286D01*
Y7292D01*
Y7415D01*
X12215Y7526D01*
X12227Y7626D01*
X12244Y7719D01*
X12262Y7801D01*
X12285Y7871D01*
X12308Y7936D01*
X12332Y7994D01*
X12355Y8047D01*
X12379Y8088D01*
X12402Y8117D01*
X12420Y8146D01*
X12437Y8170D01*
X12449Y8181D01*
X12455Y8193D01*
X12461D01*
X12513Y8234D01*
X12578Y8269D01*
X12648Y8304D01*
X12724Y8328D01*
X12888Y8369D01*
X13057Y8398D01*
X13133Y8410D01*
X13209Y8415D01*
X13280Y8421D01*
X13338D01*
X13391Y8427D01*
X13461D01*
X13607Y8421D01*
X13748Y8415D01*
X13865Y8398D01*
X13976Y8374D01*
X14075Y8351D01*
X14163Y8322D01*
X14239Y8292D01*
X14303Y8263D01*
X14362Y8228D01*
X14409Y8199D01*
X14444Y8170D01*
X14473Y8146D01*
X14496Y8123D01*
X14514Y8105D01*
X14520Y8099D01*
X14526Y8094D01*
X14532D01*
Y8848D01*
Y8930D01*
X14526Y9000D01*
X14514Y9070D01*
X14502Y9129D01*
X14491Y9182D01*
X14473Y9228D01*
X14455Y9269D01*
X14438Y9305D01*
X14409Y9357D01*
X14379Y9398D01*
X14356Y9416D01*
X14350Y9421D01*
X14309Y9445D01*
X14256Y9463D01*
X14198Y9480D01*
X14134Y9492D01*
X13987Y9515D01*
X13835Y9527D01*
X13695Y9539D01*
X13631D01*
X13572Y9544D01*
X13379D01*
X13303Y9539D01*
X13233Y9533D01*
X13169Y9527D01*
X13116Y9521D01*
X13063Y9515D01*
X13016Y9503D01*
X12981Y9498D01*
X12917Y9474D01*
X12876Y9463D01*
X12853Y9451D01*
X12847Y9445D01*
X12794Y9398D01*
X12759Y9340D01*
X12730Y9275D01*
X12712Y9211D01*
X12700Y9147D01*
X12695Y9094D01*
Y9059D01*
Y9053D01*
Y9047D01*
Y9035D01*
Y9012D01*
X12700Y8971D01*
X12706Y8936D01*
X12712Y8924D01*
Y8918D01*
X12303D01*
X12297Y9041D01*
X12303Y9129D01*
X12308Y9211D01*
X12320Y9287D01*
X12344Y9357D01*
X12361Y9416D01*
X12385Y9474D01*
X12414Y9521D01*
X12437Y9562D01*
X12490Y9632D01*
X12537Y9679D01*
X12572Y9708D01*
X12578Y9714D01*
X12584D01*
X12642Y9743D01*
X12712Y9772D01*
X12788Y9796D01*
X12876Y9819D01*
X13051Y9849D01*
X13233Y9872D01*
X13321Y9878D01*
X13397Y9884D01*
X13473Y9889D01*
X13537Y9895D01*
X13806D01*
X13935Y9884D01*
D02*
G37*
G36*
X17954Y7503D02*
X18896Y6146D01*
X18445D01*
X17755Y7193D01*
X17064Y6146D01*
X16614D01*
X17556Y7520D01*
X16714Y8743D01*
X17170D01*
X17755Y7789D01*
X18346Y8743D01*
X18802D01*
X17954Y7503D01*
D02*
G37*
G36*
X46437Y7321D02*
X45279D01*
Y7672D01*
X46431D01*
X46437Y7321D01*
D02*
G37*
G36*
X49965Y6146D02*
X49544D01*
Y8942D01*
Y9217D01*
X49550Y9363D01*
Y9498D01*
X49544D01*
X49415Y9293D01*
X49292Y9082D01*
X49041Y8667D01*
X47485Y6146D01*
X46794D01*
Y9860D01*
X47215D01*
Y7035D01*
Y6760D01*
Y6619D01*
Y6479D01*
X47221D01*
X47397Y6771D01*
X47572Y7058D01*
X47929Y7637D01*
X49281Y9860D01*
X49965D01*
Y6146D01*
D02*
G37*
G36*
X52685D02*
X52264D01*
Y7854D01*
X50456D01*
Y8205D01*
X52264D01*
Y9509D01*
X50404D01*
Y9860D01*
X52685D01*
Y6146D01*
D02*
G37*
G36*
X55166Y9889D02*
X55329Y9884D01*
X55481Y9866D01*
X55622Y9849D01*
X55739Y9825D01*
X55850Y9802D01*
X55944Y9772D01*
X56020Y9743D01*
X56090Y9714D01*
X56148Y9685D01*
X56195Y9661D01*
X56230Y9638D01*
X56254Y9620D01*
X56277Y9603D01*
X56283Y9597D01*
X56289Y9591D01*
X56336Y9527D01*
X56376Y9439D01*
X56412Y9346D01*
X56447Y9240D01*
X56470Y9123D01*
X56494Y9000D01*
X56523Y8755D01*
X56534Y8638D01*
X56546Y8521D01*
X56552Y8421D01*
Y8328D01*
X56558Y8252D01*
Y8199D01*
Y8175D01*
Y8158D01*
Y8152D01*
Y8146D01*
Y8017D01*
Y7895D01*
X56552Y7778D01*
X56546Y7666D01*
X56540Y7561D01*
X56534Y7456D01*
X56523Y7275D01*
X56499Y7117D01*
X56482Y6976D01*
X56458Y6853D01*
X56435Y6748D01*
X56418Y6660D01*
X56394Y6590D01*
X56371Y6532D01*
X56353Y6485D01*
X56341Y6456D01*
X56330Y6432D01*
X56318Y6420D01*
Y6415D01*
X56265Y6362D01*
X56189Y6315D01*
X56107Y6268D01*
X56008Y6233D01*
X55903Y6204D01*
X55786Y6181D01*
X55558Y6146D01*
X55446Y6128D01*
X55341Y6122D01*
X55242Y6116D01*
X55154Y6111D01*
X55084Y6105D01*
X54978D01*
X54785Y6111D01*
X54610Y6122D01*
X54446Y6146D01*
X54306Y6169D01*
X54177Y6204D01*
X54066Y6239D01*
X53966Y6274D01*
X53885Y6315D01*
X53808Y6356D01*
X53750Y6391D01*
X53697Y6426D01*
X53662Y6461D01*
X53633Y6485D01*
X53615Y6508D01*
X53604Y6520D01*
X53598Y6526D01*
X53264Y6309D01*
X53095Y6596D01*
X53463Y6842D01*
X53452Y6900D01*
X53440Y6976D01*
X53428Y7058D01*
X53422Y7152D01*
X53411Y7351D01*
X53399Y7550D01*
Y7649D01*
Y7743D01*
X53393Y7824D01*
Y7901D01*
Y7959D01*
Y8006D01*
Y8035D01*
Y8047D01*
Y8269D01*
X53405Y8468D01*
X53416Y8643D01*
X53434Y8807D01*
X53457Y8948D01*
X53481Y9076D01*
X53504Y9182D01*
X53528Y9275D01*
X53551Y9357D01*
X53574Y9422D01*
X53598Y9474D01*
X53621Y9515D01*
X53639Y9550D01*
X53650Y9568D01*
X53656Y9579D01*
X53662Y9585D01*
X53721Y9638D01*
X53797Y9691D01*
X53879Y9732D01*
X53978Y9767D01*
X54083Y9796D01*
X54194Y9819D01*
X54417Y9854D01*
X54528Y9872D01*
X54633Y9878D01*
X54727Y9884D01*
X54809Y9889D01*
X54879Y9895D01*
X54978D01*
X55166Y9889D01*
D02*
G37*
G36*
X23024Y18700D02*
X23270Y18688D01*
X23481Y18653D01*
X23680Y18630D01*
X23856Y18595D01*
X24008Y18548D01*
X24137Y18512D01*
X24254Y18477D01*
X24359Y18431D01*
X24430Y18395D01*
X24500Y18372D01*
X24547Y18337D01*
X24582Y18325D01*
X24593Y18302D01*
X24605D01*
X24699Y18220D01*
X24781Y18114D01*
X24851Y17997D01*
X24910Y17857D01*
X25003Y17576D01*
X25062Y17295D01*
X25109Y17025D01*
X25120Y16908D01*
Y16803D01*
X25132Y16721D01*
Y16651D01*
Y16604D01*
Y16592D01*
Y16194D01*
X24113D01*
Y16615D01*
Y16768D01*
X24102Y16896D01*
X24090Y17014D01*
X24078Y17119D01*
X24055Y17213D01*
X24043Y17295D01*
X23996Y17435D01*
X23949Y17529D01*
X23914Y17587D01*
X23891Y17611D01*
X23879Y17623D01*
X23821Y17658D01*
X23750Y17681D01*
X23657Y17705D01*
X23563Y17728D01*
X23329Y17763D01*
X23095Y17786D01*
X22860Y17798D01*
X22755Y17810D01*
X22263D01*
X22064Y17798D01*
X21889D01*
X21725Y17786D01*
X21596Y17763D01*
X21467Y17751D01*
X21362Y17740D01*
X21280Y17716D01*
X21198Y17705D01*
X21139Y17681D01*
X21092Y17669D01*
X21057Y17658D01*
X21010Y17634D01*
X20999Y17623D01*
X20952Y17576D01*
X20917Y17517D01*
X20881Y17459D01*
X20846Y17377D01*
X20799Y17201D01*
X20776Y17014D01*
X20753Y16826D01*
X20741Y16674D01*
Y16615D01*
Y16569D01*
Y16545D01*
Y16533D01*
Y16393D01*
X20753Y16276D01*
X20764Y16159D01*
X20788Y16065D01*
X20835Y15901D01*
X20881Y15772D01*
X20940Y15690D01*
X20987Y15632D01*
X21022Y15608D01*
X21034Y15597D01*
X21104Y15573D01*
X21186Y15550D01*
X21303Y15527D01*
X21432Y15515D01*
X21572Y15491D01*
X21725Y15480D01*
X22041Y15468D01*
X22345Y15456D01*
X22474Y15445D01*
X22837D01*
X23142Y15456D01*
Y14531D01*
X21865D01*
X21713Y14519D01*
X21572Y14508D01*
X21455Y14496D01*
X21350Y14484D01*
X21256Y14461D01*
X21162Y14437D01*
X21092Y14426D01*
X20987Y14379D01*
X20905Y14344D01*
X20870Y14320D01*
X20858Y14309D01*
X20811Y14262D01*
X20776Y14203D01*
X20706Y14074D01*
X20659Y13911D01*
X20636Y13747D01*
X20612Y13594D01*
X20600Y13465D01*
Y13419D01*
Y13384D01*
Y13360D01*
Y13348D01*
Y13184D01*
X20612Y13032D01*
X20624Y12903D01*
X20647Y12786D01*
X20659Y12681D01*
X20682Y12587D01*
X20706Y12505D01*
X20729Y12435D01*
X20788Y12330D01*
X20823Y12259D01*
X20858Y12224D01*
X20870Y12213D01*
X20928Y12177D01*
X21010Y12142D01*
X21092Y12107D01*
X21198Y12084D01*
X21420Y12049D01*
X21654Y12014D01*
X21877Y12002D01*
X21971D01*
X22064Y11990D01*
X22497D01*
X22720Y12002D01*
X22931D01*
X23106Y12014D01*
X23270Y12025D01*
X23411Y12037D01*
X23528Y12060D01*
X23633Y12072D01*
X23715Y12084D01*
X23786Y12107D01*
X23844Y12119D01*
X23879Y12131D01*
X23938Y12142D01*
X23949Y12154D01*
X23996Y12201D01*
X24043Y12248D01*
X24078Y12318D01*
X24102Y12388D01*
X24148Y12564D01*
X24184Y12751D01*
X24207Y12927D01*
X24219Y13067D01*
Y13126D01*
Y13173D01*
Y13196D01*
Y13208D01*
Y13735D01*
X25249D01*
Y13196D01*
X25238Y12962D01*
X25226Y12751D01*
X25202Y12552D01*
X25156Y12376D01*
X25120Y12224D01*
X25074Y12084D01*
X25015Y11967D01*
X24968Y11850D01*
X24910Y11768D01*
X24863Y11686D01*
X24816Y11627D01*
X24769Y11569D01*
X24734Y11533D01*
X24711Y11510D01*
X24699Y11486D01*
X24687D01*
X24570Y11416D01*
X24418Y11346D01*
X24254Y11299D01*
X24078Y11252D01*
X23692Y11182D01*
X23305Y11124D01*
X23106Y11112D01*
X22931Y11100D01*
X22767Y11088D01*
X22626D01*
X22509Y11077D01*
X22052D01*
X21783Y11100D01*
X21537Y11124D01*
X21315Y11147D01*
X21116Y11182D01*
X20940Y11217D01*
X20776Y11252D01*
X20636Y11299D01*
X20518Y11346D01*
X20413Y11381D01*
X20331Y11416D01*
X20272Y11451D01*
X20214Y11486D01*
X20179Y11498D01*
X20167Y11522D01*
X20155D01*
X20050Y11615D01*
X19968Y11721D01*
X19886Y11850D01*
X19827Y11990D01*
X19722Y12283D01*
X19652Y12576D01*
X19617Y12845D01*
X19593Y12974D01*
Y13079D01*
X19582Y13161D01*
Y13231D01*
Y13278D01*
Y13290D01*
Y13465D01*
X19593Y13618D01*
X19605Y13758D01*
X19628Y13899D01*
X19652Y14016D01*
X19675Y14121D01*
X19710Y14215D01*
X19734Y14297D01*
X19792Y14437D01*
X19839Y14531D01*
X19874Y14590D01*
X19886Y14601D01*
X20015Y14730D01*
X20179Y14836D01*
X20355Y14918D01*
X20530Y14988D01*
X20593Y15001D01*
X20518Y15023D01*
X20355Y15105D01*
X20226Y15187D01*
X20120Y15257D01*
X20050Y15327D01*
X20015Y15374D01*
X20003Y15386D01*
X19956Y15468D01*
X19909Y15562D01*
X19839Y15772D01*
X19792Y15995D01*
X19757Y16229D01*
X19734Y16440D01*
Y16533D01*
X19722Y16604D01*
Y16674D01*
Y16721D01*
Y16756D01*
Y16768D01*
X19734Y16978D01*
X19746Y17166D01*
X19769Y17342D01*
X19804Y17505D01*
X19851Y17646D01*
X19898Y17775D01*
X19945Y17892D01*
X20003Y17986D01*
X20050Y18067D01*
X20109Y18138D01*
X20155Y18196D01*
X20190Y18243D01*
X20261Y18302D01*
X20272Y18325D01*
X20284D01*
X20401Y18395D01*
X20530Y18454D01*
X20694Y18512D01*
X20858Y18559D01*
X21221Y18630D01*
X21584Y18677D01*
X21760Y18688D01*
X21924Y18700D01*
X22076Y18712D01*
X22205Y18723D01*
X22767D01*
X23024Y18700D01*
D02*
G37*
G36*
X36608Y18700D02*
X36866Y18677D01*
X37100Y18653D01*
X37311Y18618D01*
X37498Y18571D01*
X37662Y18536D01*
X37814Y18489D01*
X37931Y18442D01*
X38037Y18407D01*
X38130Y18360D01*
X38201Y18325D01*
X38247Y18302D01*
X38294Y18278D01*
X38306Y18255D01*
X38318D01*
X38423Y18161D01*
X38505Y18044D01*
X38587Y17915D01*
X38657Y17775D01*
X38763Y17470D01*
X38833Y17178D01*
X38856Y17025D01*
X38868Y16897D01*
X38880Y16768D01*
X38891Y16662D01*
X38903Y16569D01*
Y16498D01*
Y16452D01*
Y16440D01*
X38915Y15948D01*
X37873D01*
Y16487D01*
Y16651D01*
X37861Y16803D01*
X37849Y16932D01*
X37826Y17049D01*
X37802Y17154D01*
X37779Y17236D01*
X37756Y17318D01*
X37720Y17388D01*
X37674Y17494D01*
X37627Y17552D01*
X37592Y17587D01*
X37580Y17599D01*
X37510Y17634D01*
X37428Y17669D01*
X37322Y17693D01*
X37205Y17716D01*
X36948Y17763D01*
X36678Y17786D01*
X36421Y17798D01*
X36303D01*
X36198Y17810D01*
X35823D01*
X35660Y17798D01*
X35507Y17786D01*
X35378Y17775D01*
X35261Y17751D01*
X35156Y17728D01*
X35062Y17705D01*
X34992Y17681D01*
X34863Y17634D01*
X34781Y17587D01*
X34734Y17564D01*
X34723Y17552D01*
X34676Y17494D01*
X34629Y17435D01*
X34559Y17271D01*
X34512Y17084D01*
X34477Y16897D01*
X34453Y16709D01*
Y16627D01*
X34442Y16557D01*
Y16498D01*
Y16452D01*
Y16428D01*
Y16417D01*
Y16229D01*
X34453Y16065D01*
X34465Y15925D01*
X34477Y15796D01*
X34500Y15679D01*
X34524Y15573D01*
X34547Y15480D01*
X34570Y15409D01*
X34594Y15339D01*
X34617Y15292D01*
X34664Y15222D01*
X34688Y15175D01*
X34699Y15164D01*
X34758Y15128D01*
X34840Y15081D01*
X34933Y15046D01*
X35039Y15011D01*
X35296Y14953D01*
X35566Y14894D01*
X35823Y14847D01*
X35941Y14836D01*
X36034Y14812D01*
X36128Y14800D01*
X36186D01*
X36233Y14789D01*
X36245D01*
X36549Y14754D01*
X36830Y14707D01*
X37076Y14660D01*
X37311Y14613D01*
X37510Y14566D01*
X37685Y14519D01*
X37849Y14473D01*
X37978Y14426D01*
X38095Y14379D01*
X38189Y14332D01*
X38271Y14297D01*
X38329Y14262D01*
X38376Y14238D01*
X38411Y14215D01*
X38423Y14203D01*
X38435D01*
X38517Y14121D01*
X38599Y14028D01*
X38657Y13922D01*
X38716Y13793D01*
X38798Y13536D01*
X38856Y13278D01*
X38891Y13021D01*
X38903Y12915D01*
Y12822D01*
X38915Y12740D01*
Y12681D01*
Y12634D01*
Y12622D01*
Y11147D01*
X33446D01*
Y12060D01*
X37861D01*
Y12189D01*
Y12388D01*
X37849Y12564D01*
X37837Y12716D01*
X37826Y12857D01*
X37814Y12985D01*
X37791Y13091D01*
X37767Y13184D01*
X37744Y13255D01*
X37732Y13325D01*
X37709Y13372D01*
X37674Y13454D01*
X37650Y13489D01*
X37639Y13501D01*
X37580Y13536D01*
X37498Y13583D01*
X37404Y13618D01*
X37287Y13653D01*
X37029Y13711D01*
X36760Y13758D01*
X36491Y13805D01*
X36374Y13817D01*
X36268Y13828D01*
X36186Y13840D01*
X36116Y13852D01*
X36058D01*
X35765Y13887D01*
X35507Y13922D01*
X35261Y13969D01*
X35039Y14016D01*
X34852Y14074D01*
X34676Y14121D01*
X34524Y14180D01*
X34395Y14227D01*
X34278Y14285D01*
X34184Y14332D01*
X34102Y14367D01*
X34043Y14414D01*
X33997Y14437D01*
X33961Y14461D01*
X33938Y14484D01*
X33844Y14578D01*
X33762Y14695D01*
X33704Y14824D01*
X33645Y14964D01*
X33552Y15269D01*
X33481Y15573D01*
X33470Y15726D01*
X33446Y15854D01*
X33435Y15983D01*
Y16089D01*
X33423Y16182D01*
Y16252D01*
Y16299D01*
Y16311D01*
Y16569D01*
X33446Y16791D01*
X33470Y17014D01*
X33505Y17201D01*
X33552Y17377D01*
X33599Y17529D01*
X33645Y17669D01*
X33692Y17798D01*
X33751Y17892D01*
X33798Y17986D01*
X33844Y18056D01*
X33891Y18114D01*
X33926Y18161D01*
X33950Y18196D01*
X33961Y18220D01*
X33973D01*
X34090Y18314D01*
X34219Y18384D01*
X34360Y18454D01*
X34524Y18512D01*
X34863Y18606D01*
X35203Y18665D01*
X35367Y18677D01*
X35519Y18700D01*
X35660Y18712D01*
X35777D01*
X35882Y18723D01*
X36327D01*
X36608Y18700D01*
D02*
G37*
G36*
X31549Y16346D02*
X30905Y15749D01*
X29160Y17810D01*
Y11147D01*
X28106D01*
Y18653D01*
X29465D01*
X31549Y16346D01*
D02*
G37*
G36*
X12111Y13454D02*
X9605D01*
Y14367D01*
X12099D01*
X12111Y13454D01*
D02*
G37*
G36*
X55063Y11147D02*
X54009D01*
Y17084D01*
Y17338D01*
X53962Y17260D01*
X51433Y11147D01*
X50461D01*
X47943Y17236D01*
X47885Y17389D01*
Y17084D01*
Y11147D01*
X46831D01*
Y18653D01*
X48482D01*
X50437Y13864D01*
X50754Y13103D01*
X50801Y13009D01*
X50836Y12903D01*
X50859Y12857D01*
X50883Y12810D01*
X50894Y12786D01*
Y12775D01*
X50962Y12600D01*
X51035Y12775D01*
X51164Y13103D01*
X51480Y13875D01*
X53447Y18653D01*
X55063D01*
Y11147D01*
D02*
G37*
G36*
X42943Y18700D02*
X43259Y18677D01*
X43540Y18653D01*
X43798Y18618D01*
X44020Y18571D01*
X44208Y18524D01*
X44383Y18489D01*
X44536Y18442D01*
X44653Y18395D01*
X44758Y18360D01*
X44840Y18314D01*
X44899Y18290D01*
X44934Y18267D01*
X44957Y18243D01*
X44969D01*
X45168Y18091D01*
X45320Y17927D01*
X45437Y17775D01*
X45531Y17623D01*
X45590Y17505D01*
X45636Y17400D01*
X45648Y17342D01*
X45660Y17330D01*
Y17318D01*
X45683Y17213D01*
X45695Y17072D01*
X45707Y16908D01*
X45718Y16733D01*
X45730Y16533D01*
X45742Y16334D01*
X45753Y15925D01*
Y15737D01*
Y15550D01*
X45765Y15374D01*
Y15222D01*
Y15093D01*
Y14999D01*
Y14941D01*
Y14918D01*
X45753Y14473D01*
X45742Y14074D01*
X45718Y13711D01*
X45683Y13384D01*
X45648Y13103D01*
X45601Y12845D01*
X45554Y12611D01*
X45508Y12423D01*
X45461Y12259D01*
X45414Y12119D01*
X45367Y12002D01*
X45332Y11920D01*
X45297Y11850D01*
X45273Y11803D01*
X45250Y11779D01*
Y11768D01*
X45133Y11650D01*
X44992Y11545D01*
X44828Y11451D01*
X44653Y11369D01*
X44454Y11299D01*
X44255Y11241D01*
X43845Y11159D01*
X43646Y11135D01*
X43458Y11112D01*
X43294Y11100D01*
X43142Y11088D01*
X43013Y11077D01*
X42463D01*
X42123Y11088D01*
X41819Y11112D01*
X41550Y11135D01*
X41304Y11170D01*
X41093Y11206D01*
X40905Y11241D01*
X40742Y11276D01*
X40613Y11311D01*
X40496Y11346D01*
X40402Y11381D01*
X40332Y11416D01*
X40273Y11440D01*
X40238Y11463D01*
X40226Y11475D01*
X40215D01*
X40121Y11557D01*
X40027Y11674D01*
X39957Y11803D01*
X39898Y11943D01*
X39793Y12259D01*
X39735Y12599D01*
X39711Y12751D01*
X39688Y12903D01*
X39676Y13044D01*
Y13173D01*
X39664Y13278D01*
Y13348D01*
Y13407D01*
Y13419D01*
Y13805D01*
X40718D01*
X40695Y13255D01*
Y13103D01*
X40707Y12962D01*
X40730Y12833D01*
X40742Y12728D01*
X40765Y12622D01*
X40800Y12540D01*
X40859Y12400D01*
X40917Y12295D01*
X40976Y12236D01*
X41011Y12201D01*
X41023Y12189D01*
X41093Y12154D01*
X41187Y12119D01*
X41304Y12095D01*
X41421Y12072D01*
X41714Y12037D01*
X42006Y12014D01*
X42287Y12002D01*
X42416D01*
X42533Y11990D01*
X43013D01*
X43236Y12014D01*
X43447Y12037D01*
X43622Y12060D01*
X43786Y12107D01*
X43927Y12142D01*
X44044Y12189D01*
X44137Y12236D01*
X44219Y12271D01*
X44290Y12318D01*
X44337Y12365D01*
X44383Y12400D01*
X44430Y12447D01*
X44442Y12470D01*
X44465Y12529D01*
X44477Y12587D01*
X44500Y12669D01*
X44524Y12763D01*
X44547Y12974D01*
X44583Y13231D01*
X44594Y13501D01*
X44618Y13805D01*
X44641Y14414D01*
X44653Y14718D01*
X44664Y15011D01*
Y15281D01*
X44676Y15527D01*
Y15632D01*
Y15726D01*
Y15808D01*
Y15878D01*
Y15936D01*
Y15971D01*
Y15995D01*
Y16007D01*
Y16229D01*
X44664Y16440D01*
X44641Y16615D01*
X44618Y16780D01*
X44594Y16920D01*
X44571Y17049D01*
X44536Y17154D01*
X44500Y17248D01*
X44477Y17330D01*
X44442Y17388D01*
X44418Y17435D01*
X44383Y17482D01*
X44348Y17529D01*
X44337Y17541D01*
X44255Y17587D01*
X44149Y17634D01*
X44009Y17669D01*
X43868Y17693D01*
X43704Y17728D01*
X43529Y17740D01*
X43166Y17775D01*
X42990Y17786D01*
X42826Y17798D01*
X42674D01*
X42533Y17810D01*
X42088D01*
X41936Y17798D01*
X41796Y17786D01*
X41667Y17775D01*
X41561Y17763D01*
X41456Y17740D01*
X41374Y17716D01*
X41304Y17705D01*
X41187Y17658D01*
X41116Y17623D01*
X41069Y17599D01*
X41058Y17587D01*
X41011Y17541D01*
X40976Y17482D01*
X40917Y17330D01*
X40870Y17166D01*
X40847Y16978D01*
X40824Y16815D01*
X40812Y16674D01*
Y16627D01*
Y16580D01*
Y16557D01*
Y16545D01*
X40800Y16206D01*
X39758D01*
Y16452D01*
Y16698D01*
X39781Y16920D01*
X39805Y17119D01*
X39840Y17306D01*
X39875Y17470D01*
X39922Y17611D01*
X39969Y17740D01*
X40016Y17857D01*
X40074Y17962D01*
X40121Y18044D01*
X40168Y18103D01*
X40203Y18161D01*
X40238Y18208D01*
X40262Y18232D01*
X40273Y18255D01*
X40285D01*
X40390Y18337D01*
X40519Y18407D01*
X40660Y18477D01*
X40800Y18524D01*
X41128Y18606D01*
X41444Y18665D01*
X41608Y18688D01*
X41749Y18700D01*
X41877Y18712D01*
X41995D01*
X42088Y18723D01*
X42603D01*
X42943Y18700D01*
D02*
G37*
G36*
X9089Y11147D02*
X4288D01*
X3246D01*
X2684Y12693D01*
X-841D01*
X-1403Y11147D01*
X-2468D01*
X295Y18653D01*
X1619D01*
X4288Y11212D01*
Y12131D01*
X8036D01*
Y18653D01*
X9089D01*
Y11147D01*
D02*
G37*
G36*
X61468Y17669D02*
X59091D01*
Y11147D01*
X58037D01*
Y17669D01*
X55684D01*
Y18653D01*
X61468D01*
Y17669D01*
D02*
G37*
G36*
X15858Y18712D02*
X16186Y18700D01*
X16490Y18677D01*
X16748Y18630D01*
X16982Y18595D01*
X17193Y18548D01*
X17368Y18489D01*
X17521Y18442D01*
X17650Y18384D01*
X17755Y18337D01*
X17837Y18278D01*
X17907Y18243D01*
X17954Y18208D01*
X17989Y18173D01*
X18001Y18161D01*
X18012Y18149D01*
X18094Y18021D01*
X18165Y17857D01*
X18223Y17669D01*
X18282Y17447D01*
X18317Y17213D01*
X18352Y16955D01*
X18411Y16452D01*
X18434Y16194D01*
X18446Y15960D01*
X18458Y15749D01*
Y15550D01*
X18469Y15386D01*
Y15269D01*
Y15222D01*
Y15187D01*
Y15175D01*
Y15164D01*
Y14906D01*
Y14660D01*
X18458Y14426D01*
X18446Y14215D01*
Y14004D01*
X18434Y13805D01*
X18399Y13454D01*
X18375Y13138D01*
X18340Y12857D01*
X18305Y12622D01*
X18258Y12423D01*
X18223Y12259D01*
X18188Y12119D01*
X18153Y12002D01*
X18118Y11920D01*
X18094Y11861D01*
X18071Y11826D01*
X18059Y11803D01*
Y11791D01*
X17942Y11662D01*
X17790Y11557D01*
X17626Y11463D01*
X17427Y11381D01*
X17228Y11311D01*
X17005Y11252D01*
X16572Y11170D01*
X16361Y11135D01*
X16162Y11112D01*
X15975Y11100D01*
X15823Y11088D01*
X15682Y11077D01*
X15495D01*
X15132Y11088D01*
X14816Y11112D01*
X14511Y11147D01*
X14254Y11194D01*
X14019Y11241D01*
X13809Y11299D01*
X13621Y11369D01*
X13469Y11440D01*
X13329Y11498D01*
X13223Y11569D01*
X13129Y11627D01*
X13059Y11686D01*
X13001Y11721D01*
X12966Y11756D01*
X12954Y11779D01*
X12942Y11791D01*
X12872Y11920D01*
X12801Y12084D01*
X12743Y12283D01*
X12696Y12517D01*
X12661Y12763D01*
X12626Y13021D01*
X12567Y13559D01*
X12556Y13817D01*
X12544Y14074D01*
X12532Y14297D01*
Y14496D01*
X12520Y14672D01*
Y14800D01*
Y14847D01*
Y14882D01*
Y14894D01*
Y14906D01*
Y15152D01*
Y15386D01*
X12544Y15808D01*
X12567Y16194D01*
X12591Y16533D01*
X12626Y16838D01*
X12661Y17096D01*
X12708Y17330D01*
X12743Y17517D01*
X12790Y17681D01*
X12837Y17822D01*
X12872Y17927D01*
X12907Y18009D01*
X12930Y18067D01*
X12954Y18103D01*
X12977Y18126D01*
Y18138D01*
X13083Y18243D01*
X13211Y18337D01*
X13375Y18407D01*
X13563Y18477D01*
X13762Y18536D01*
X13972Y18583D01*
X14406Y18653D01*
X14617Y18677D01*
X14816Y18688D01*
X15003Y18712D01*
X15167D01*
X15296Y18723D01*
X15495D01*
X15858Y18712D01*
D02*
G37*
%LPC*%
G36*
X40312Y8076D02*
X40090D01*
X39985Y8070D01*
X39885Y8064D01*
X39798Y8053D01*
X39722Y8047D01*
X39657Y8035D01*
X39593Y8023D01*
X39546Y8012D01*
X39505Y7994D01*
X39470Y7982D01*
X39441Y7971D01*
X39417Y7965D01*
X39388Y7947D01*
X39382Y7942D01*
X39353Y7912D01*
X39330Y7871D01*
X39306Y7824D01*
X39289Y7778D01*
X39265Y7661D01*
X39242Y7538D01*
X39230Y7427D01*
Y7374D01*
X39224Y7333D01*
Y7292D01*
Y7263D01*
Y7245D01*
Y7239D01*
Y7146D01*
X39230Y7058D01*
X39242Y6982D01*
X39248Y6912D01*
X39259Y6848D01*
X39277Y6795D01*
X39289Y6748D01*
X39306Y6707D01*
X39324Y6678D01*
X39336Y6649D01*
X39365Y6608D01*
X39382Y6584D01*
X39388Y6578D01*
X39423Y6555D01*
X39470Y6538D01*
X39523Y6520D01*
X39581Y6508D01*
X39716Y6485D01*
X39856Y6473D01*
X39985Y6461D01*
X40043D01*
X40096Y6456D01*
X40324D01*
X40429Y6461D01*
X40529Y6473D01*
X40617Y6479D01*
X40693Y6491D01*
X40763Y6508D01*
X40821Y6520D01*
X40874Y6538D01*
X40915Y6549D01*
X40950Y6561D01*
X40979Y6578D01*
X41003Y6590D01*
X41020Y6602D01*
X41032Y6608D01*
X41038Y6613D01*
X41067Y6649D01*
X41091Y6695D01*
X41108Y6748D01*
X41131Y6807D01*
X41155Y6941D01*
X41178Y7082D01*
X41190Y7210D01*
Y7269D01*
X41196Y7321D01*
Y7368D01*
Y7397D01*
Y7421D01*
Y7427D01*
Y7497D01*
X41190Y7567D01*
X41178Y7626D01*
X41167Y7678D01*
X41137Y7772D01*
X41102Y7842D01*
X41073Y7895D01*
X41044Y7930D01*
X41020Y7947D01*
X41014Y7953D01*
X40973Y7977D01*
X40927Y7994D01*
X40868Y8012D01*
X40810Y8023D01*
X40681Y8047D01*
X40541Y8059D01*
X40418Y8070D01*
X40359D01*
X40312Y8076D01*
D02*
G37*
G36*
X13689Y8076D02*
X13467D01*
X13362Y8070D01*
X13262Y8064D01*
X13174Y8053D01*
X13098Y8047D01*
X13034Y8035D01*
X12970Y8023D01*
X12923Y8012D01*
X12882Y7994D01*
X12847Y7982D01*
X12817Y7971D01*
X12794Y7965D01*
X12765Y7947D01*
X12759Y7942D01*
X12730Y7912D01*
X12706Y7871D01*
X12683Y7824D01*
X12665Y7778D01*
X12642Y7661D01*
X12619Y7538D01*
X12607Y7427D01*
Y7374D01*
X12601Y7333D01*
Y7292D01*
Y7263D01*
Y7245D01*
Y7239D01*
Y7146D01*
X12607Y7058D01*
X12619Y6982D01*
X12624Y6912D01*
X12636Y6848D01*
X12654Y6795D01*
X12665Y6748D01*
X12683Y6707D01*
X12700Y6678D01*
X12712Y6649D01*
X12741Y6608D01*
X12759Y6584D01*
X12765Y6578D01*
X12800Y6555D01*
X12847Y6538D01*
X12899Y6520D01*
X12958Y6508D01*
X13092Y6485D01*
X13233Y6473D01*
X13362Y6461D01*
X13420D01*
X13473Y6456D01*
X13701D01*
X13806Y6461D01*
X13905Y6473D01*
X13993Y6479D01*
X14069Y6491D01*
X14140Y6508D01*
X14198Y6520D01*
X14251Y6538D01*
X14292Y6549D01*
X14327Y6561D01*
X14356Y6578D01*
X14379Y6590D01*
X14397Y6602D01*
X14409Y6608D01*
X14414Y6613D01*
X14444Y6649D01*
X14467Y6695D01*
X14485Y6748D01*
X14508Y6807D01*
X14532Y6941D01*
X14555Y7081D01*
X14567Y7210D01*
Y7269D01*
X14572Y7321D01*
Y7368D01*
Y7397D01*
Y7421D01*
Y7427D01*
Y7497D01*
X14567Y7567D01*
X14555Y7626D01*
X14543Y7678D01*
X14514Y7772D01*
X14479Y7842D01*
X14450Y7895D01*
X14420Y7930D01*
X14397Y7947D01*
X14391Y7953D01*
X14350Y7977D01*
X14303Y7994D01*
X14245Y8012D01*
X14186Y8023D01*
X14058Y8047D01*
X13917Y8059D01*
X13794Y8070D01*
X13736D01*
X13689Y8076D01*
D02*
G37*
G36*
X55119Y9544D02*
X54815D01*
X54674Y9539D01*
X54545Y9527D01*
X54434Y9515D01*
X54335Y9498D01*
X54247Y9480D01*
X54177Y9463D01*
X54113Y9445D01*
X54066Y9422D01*
X54025Y9404D01*
X53990Y9386D01*
X53966Y9375D01*
X53949Y9357D01*
X53937Y9351D01*
X53931Y9340D01*
X53920Y9316D01*
X53908Y9287D01*
X53885Y9217D01*
X53867Y9123D01*
X53849Y9012D01*
X53838Y8889D01*
X53826Y8760D01*
X53808Y8486D01*
X53803Y8357D01*
X53797Y8228D01*
Y8105D01*
X53791Y8006D01*
Y7912D01*
Y7877D01*
Y7848D01*
Y7824D01*
Y7807D01*
Y7795D01*
Y7789D01*
Y7702D01*
Y7614D01*
X53797Y7538D01*
Y7468D01*
X53803Y7403D01*
Y7345D01*
X53808Y7298D01*
Y7251D01*
X53814Y7210D01*
X53820Y7175D01*
X53826Y7128D01*
X53832Y7099D01*
Y7087D01*
X54850Y7754D01*
X55043Y7474D01*
X53931Y6742D01*
X53972Y6690D01*
X54031Y6649D01*
X54095Y6608D01*
X54171Y6578D01*
X54253Y6549D01*
X54347Y6526D01*
X54528Y6491D01*
X54616Y6479D01*
X54698Y6473D01*
X54774Y6467D01*
X54844Y6461D01*
X54902Y6456D01*
X55142D01*
X55283Y6461D01*
X55405Y6473D01*
X55517Y6485D01*
X55610Y6502D01*
X55698Y6514D01*
X55768Y6532D01*
X55827Y6555D01*
X55879Y6573D01*
X55920Y6590D01*
X55949Y6602D01*
X55979Y6619D01*
X55996Y6631D01*
X56008Y6643D01*
X56014Y6649D01*
X56037Y6695D01*
X56061Y6766D01*
X56084Y6848D01*
X56096Y6941D01*
X56113Y7052D01*
X56125Y7164D01*
X56143Y7397D01*
X56148Y7514D01*
X56154Y7626D01*
Y7725D01*
X56160Y7819D01*
Y7895D01*
Y7953D01*
Y7971D01*
Y7988D01*
Y7994D01*
Y8000D01*
Y8205D01*
X56154Y8386D01*
X56148Y8550D01*
X56137Y8696D01*
X56125Y8819D01*
X56113Y8930D01*
X56102Y9024D01*
X56084Y9106D01*
X56072Y9170D01*
X56061Y9223D01*
X56049Y9264D01*
X56037Y9299D01*
X56025Y9322D01*
X56020Y9334D01*
X56014Y9346D01*
X55979Y9381D01*
X55926Y9410D01*
X55862Y9439D01*
X55786Y9463D01*
X55704Y9480D01*
X55622Y9498D01*
X55440Y9521D01*
X55353Y9527D01*
X55265Y9533D01*
X55189Y9539D01*
X55119Y9544D01*
D02*
G37*
G36*
X939Y17751D02*
X-560Y13536D01*
X2415D01*
X939Y17751D01*
D02*
G37*
G36*
X15729Y17810D02*
X15237D01*
X15003Y17798D01*
X14792Y17775D01*
X14605Y17751D01*
X14453Y17728D01*
X14312Y17693D01*
X14195Y17658D01*
X14090Y17634D01*
X14008Y17599D01*
X13937Y17564D01*
X13891Y17529D01*
X13844Y17505D01*
X13797Y17459D01*
X13785Y17447D01*
X13738Y17365D01*
X13703Y17236D01*
X13668Y17084D01*
X13645Y16896D01*
X13621Y16698D01*
X13598Y16487D01*
X13574Y16042D01*
X13563Y15831D01*
X13551Y15620D01*
Y15421D01*
X13539Y15257D01*
Y15105D01*
Y14999D01*
Y14929D01*
Y14918D01*
Y14906D01*
Y14508D01*
X13551Y14156D01*
X13563Y13852D01*
X13574Y13571D01*
X13598Y13325D01*
X13621Y13126D01*
X13645Y12939D01*
X13656Y12798D01*
X13680Y12669D01*
X13703Y12564D01*
X13727Y12494D01*
X13750Y12435D01*
X13762Y12388D01*
X13773Y12365D01*
X13785Y12341D01*
X13844Y12283D01*
X13926Y12224D01*
X14031Y12177D01*
X14160Y12142D01*
X14289Y12107D01*
X14429Y12072D01*
X14734Y12037D01*
X15015Y12014D01*
X15144Y12002D01*
X15261D01*
X15354Y11990D01*
X15753D01*
X15987Y12002D01*
X16197Y12025D01*
X16385Y12049D01*
X16549Y12072D01*
X16689Y12107D01*
X16806Y12131D01*
X16912Y12166D01*
X16994Y12201D01*
X17064Y12236D01*
X17111Y12259D01*
X17158Y12283D01*
X17205Y12330D01*
X17216Y12341D01*
X17251Y12423D01*
X17298Y12552D01*
X17322Y12704D01*
X17357Y12892D01*
X17368Y13091D01*
X17392Y13313D01*
X17415Y13758D01*
X17427Y13981D01*
X17439Y14191D01*
Y14379D01*
X17450Y14555D01*
Y14695D01*
Y14812D01*
Y14882D01*
Y14894D01*
Y14906D01*
Y15292D01*
X17439Y15644D01*
X17427Y15948D01*
X17415Y16229D01*
X17392Y16463D01*
X17380Y16674D01*
X17357Y16850D01*
X17333Y17002D01*
X17310Y17119D01*
X17287Y17224D01*
X17275Y17295D01*
X17251Y17353D01*
X17240Y17400D01*
X17228Y17424D01*
X17216Y17447D01*
X17158Y17505D01*
X17076Y17564D01*
X16970Y17611D01*
X16841Y17658D01*
X16713Y17693D01*
X16560Y17716D01*
X16268Y17763D01*
X15975Y17786D01*
X15846Y17798D01*
X15729Y17810D01*
D02*
G37*
%LPD*%
D11*
X54000Y1749D02*
X52001D01*
X53000D01*
Y-1250D01*
X49002Y1749D02*
X51001D01*
Y-1250D01*
X49002D01*
X51001Y250D02*
X50001D01*
X46003Y1250D02*
X46502Y1749D01*
X47502D01*
X48002Y1250D01*
Y750D01*
X47502Y250D01*
X46502D01*
X46003Y-250D01*
Y-750D01*
X46502Y-1250D01*
X47502D01*
X48002Y-750D01*
X45003Y1749D02*
X43004D01*
X44003D01*
Y-1250D01*
X42004Y-1749D02*
X40005D01*
X39005Y-1250D02*
Y1749D01*
X38005Y750D01*
X37005Y1749D01*
Y-1250D01*
X34506Y1749D02*
X35506D01*
X36006Y1250D01*
Y-750D01*
X35506Y-1250D01*
X34506D01*
X34007Y-750D01*
Y1250D01*
X34506Y1749D01*
X33007D02*
Y-1250D01*
X31507D01*
X31007Y-750D01*
Y1250D01*
X31507Y1749D01*
X33007D01*
X28008D02*
X30008D01*
Y-1250D01*
X28008D01*
X30008Y250D02*
X29008D01*
X52001Y-9000D02*
X52500Y-8501D01*
X53500D01*
X54000Y-9000D01*
Y-11000D01*
X53500Y-11500D01*
X52500D01*
X52001Y-11000D01*
Y-10000D01*
X53000D01*
X51001Y-11500D02*
Y-8501D01*
X49002Y-11500D01*
Y-8501D01*
X48002D02*
Y-11500D01*
X46502D01*
X46003Y-11000D01*
Y-9000D01*
X46502Y-8501D01*
X48002D01*
X45003Y-11500D02*
Y-8501D01*
X43503D01*
X43004Y-9000D01*
Y-10000D01*
X43503Y-10500D01*
X45003D01*
X52500Y-18500D02*
X53500D01*
X54000Y-19000D01*
Y-21000D01*
X53500Y-21499D01*
X52500D01*
X52001Y-21000D01*
Y-19000D01*
X52500Y-18500D01*
X51001Y-21499D02*
Y-19500D01*
X50001Y-18500D01*
X49002Y-19500D01*
Y-21499D01*
Y-20000D01*
X51001D01*
X48002Y-21499D02*
X47002D01*
X47502D01*
Y-18500D01*
X48002Y-19000D01*
X54000Y-28501D02*
Y-31499D01*
X52500D01*
X52001Y-31000D01*
Y-30500D01*
X52500Y-30000D01*
X54000D01*
X52500D01*
X52001Y-29500D01*
Y-29000D01*
X52500Y-28501D01*
X54000D01*
X51001Y-31499D02*
Y-28501D01*
X49501D01*
X49002Y-29000D01*
Y-30000D01*
X49501Y-30500D01*
X51001D01*
X50001D02*
X49002Y-31499D01*
X48002D02*
Y-29500D01*
X47002Y-28501D01*
X46003Y-29500D01*
Y-31499D01*
Y-30000D01*
X48002D01*
X52500Y-38500D02*
X53500D01*
X54000Y-39000D01*
Y-41000D01*
X53500Y-41500D01*
X52500D01*
X52001Y-41000D01*
Y-39000D01*
X52500Y-38500D01*
X51001Y-41500D02*
Y-39500D01*
X50001Y-38500D01*
X49002Y-39500D01*
Y-41500D01*
Y-40000D01*
X51001D01*
X46003Y-41500D02*
X48002D01*
X46003Y-39500D01*
Y-39000D01*
X46502Y-38500D01*
X47502D01*
X48002Y-39000D01*
X54000Y-48500D02*
Y-50500D01*
X53000Y-51499D01*
X52001Y-50500D01*
Y-48500D01*
X49002Y-49000D02*
X49501Y-48500D01*
X50501D01*
X51001Y-49000D01*
Y-49500D01*
X50501Y-50000D01*
X49501D01*
X49002Y-50500D01*
Y-51000D01*
X49501Y-51499D01*
X50501D01*
X51001Y-51000D01*
X54000Y-58500D02*
Y-60500D01*
X53000Y-61500D01*
X52001Y-60500D01*
Y-58500D01*
X49002Y-59000D02*
X49501Y-58500D01*
X50501D01*
X51001Y-59000D01*
Y-59500D01*
X50501Y-60000D01*
X49501D01*
X49002Y-60500D01*
Y-61000D01*
X49501Y-61500D01*
X50501D01*
X51001Y-61000D01*
X48002Y-61500D02*
Y-59500D01*
X47002Y-58500D01*
X46003Y-59500D01*
Y-61500D01*
Y-60000D01*
X48002D01*
X54000Y-68501D02*
Y-70500D01*
X53000Y-71500D01*
X52001Y-70500D01*
Y-68501D01*
X49002Y-69000D02*
X49501Y-68501D01*
X50501D01*
X51001Y-69000D01*
Y-71000D01*
X50501Y-71500D01*
X49501D01*
X49002Y-71000D01*
X48002Y-71500D02*
Y-68501D01*
X46502D01*
X46003Y-69000D01*
Y-70000D01*
X46502Y-70500D01*
X48002D01*
X52001Y-79000D02*
X52500Y-78500D01*
X53500D01*
X54000Y-79000D01*
Y-81000D01*
X53500Y-81499D01*
X52500D01*
X52001Y-81000D01*
X51001Y-81499D02*
Y-78500D01*
X49501D01*
X49002Y-79000D01*
Y-80000D01*
X49501Y-80500D01*
X51001D01*
X48002Y-78500D02*
X47002D01*
X47502D01*
Y-81499D01*
X48002D01*
X47002D01*
X52001Y-89000D02*
X52500Y-88500D01*
X53500D01*
X54000Y-89000D01*
Y-91000D01*
X53500Y-91500D01*
X52500D01*
X52001Y-91000D01*
X51001Y-91500D02*
Y-88500D01*
X49501D01*
X49002Y-89000D01*
Y-90000D01*
X49501Y-90500D01*
X51001D01*
X46502Y-88500D02*
X47502D01*
X48002Y-89000D01*
Y-91000D01*
X47502Y-91500D01*
X46502D01*
X46003Y-91000D01*
Y-89000D01*
X46502Y-88500D01*
X54000Y-98501D02*
Y-100500D01*
X53000Y-101499D01*
X52001Y-100500D01*
Y-98501D01*
X49002Y-99000D02*
X49501Y-98501D01*
X50501D01*
X51001Y-99000D01*
Y-101000D01*
X50501Y-101499D01*
X49501D01*
X49002Y-101000D01*
X46003Y-99000D02*
X46502Y-98501D01*
X47502D01*
X48002Y-99000D01*
Y-101000D01*
X47502Y-101499D01*
X46502D01*
X46003Y-101000D01*
X52001Y-108501D02*
X54000D01*
Y-110000D01*
X53000Y-109500D01*
X52500D01*
X52001Y-110000D01*
Y-111000D01*
X52500Y-111500D01*
X53500D01*
X54000Y-111000D01*
X51001Y-108501D02*
Y-110500D01*
X50001Y-111500D01*
X49002Y-110500D01*
Y-108501D01*
X46502D02*
X47502D01*
X48002Y-109000D01*
Y-111000D01*
X47502Y-111500D01*
X46502D01*
X46003Y-111000D01*
Y-109000D01*
X46502Y-108501D01*
X45003D02*
Y-111000D01*
X44503Y-111500D01*
X43503D01*
X43004Y-111000D01*
Y-108501D01*
X42004D02*
X40005D01*
X41004D01*
Y-111500D01*
X52001Y-119000D02*
X52500Y-118500D01*
X53500D01*
X54000Y-119000D01*
Y-121000D01*
X53500Y-121500D01*
X52500D01*
X52001Y-121000D01*
Y-120000D01*
X53000D01*
X51001Y-121500D02*
Y-118500D01*
X49002Y-121500D01*
Y-118500D01*
X48002D02*
Y-121500D01*
X46502D01*
X46003Y-121000D01*
Y-119000D01*
X46502Y-118500D01*
X48002D01*
X45003Y-121500D02*
Y-119500D01*
X44003Y-118500D01*
X43004Y-119500D01*
Y-121500D01*
Y-120000D01*
X45003D01*
X54000Y-131250D02*
Y-129250D01*
X53000Y-128251D01*
X52001Y-129250D01*
Y-131250D01*
Y-129750D01*
X54000D01*
X51001Y-128251D02*
X50001D01*
X50501D01*
Y-131250D01*
X51001D01*
X50001D01*
X48502D02*
Y-128251D01*
X46502Y-131250D01*
Y-128251D01*
X45503Y-131749D02*
X43503D01*
X42504Y-128251D02*
X41504D01*
X42004D01*
Y-131250D01*
X42504D01*
X41504D01*
X40005D02*
Y-128251D01*
X38505D01*
X38005Y-128750D01*
Y-129750D01*
X38505Y-130250D01*
X40005D01*
X39005D02*
X38005Y-131250D01*
X35006Y-128251D02*
X37005D01*
Y-131250D01*
X35006D01*
X37005Y-129750D02*
X36006D01*
X32007Y-128251D02*
X34007D01*
Y-129750D01*
X33007D01*
X34007D01*
Y-131250D01*
X54000Y-138251D02*
Y-141250D01*
X52500D01*
X52001Y-140750D01*
Y-138750D01*
X52500Y-138251D01*
X54000D01*
X51001Y-141250D02*
Y-138251D01*
X49501D01*
X49002Y-138750D01*
Y-139750D01*
X49501Y-140250D01*
X51001D01*
X50001D02*
X49002Y-141250D01*
X48002Y-138251D02*
Y-140250D01*
X47002Y-141250D01*
X46003Y-140250D01*
Y-138251D01*
X45003Y-141749D02*
X43004D01*
X40005Y-138251D02*
X42004D01*
Y-141250D01*
X40005D01*
X42004Y-139750D02*
X41004D01*
X39005Y-141250D02*
Y-138251D01*
X37005Y-141250D01*
Y-138251D01*
X36006Y-141250D02*
Y-138251D01*
X34007Y-141250D01*
Y-138251D01*
X33007Y-141749D02*
X31007D01*
X28008Y-138750D02*
X28508Y-138251D01*
X29508D01*
X30008Y-138750D01*
Y-140750D01*
X29508Y-141250D01*
X28508D01*
X28008Y-140750D01*
X25009Y-138251D02*
X27009D01*
Y-139750D01*
X26009D01*
X27009D01*
Y-141250D01*
X22010Y-138750D02*
X22510Y-138251D01*
X23510D01*
X24010Y-138750D01*
Y-140750D01*
X23510Y-141250D01*
X22510D01*
X22010Y-140750D01*
Y-139750D01*
X23010D01*
X19011Y-138251D02*
X20011Y-138750D01*
X21011Y-139750D01*
Y-140750D01*
X20511Y-141250D01*
X19511D01*
X19011Y-140750D01*
Y-140250D01*
X19511Y-139750D01*
X21011D01*
X54000Y-148501D02*
Y-151499D01*
X52500D01*
X52001Y-151000D01*
Y-149000D01*
X52500Y-148501D01*
X54000D01*
X51001D02*
X50001D01*
X50501D01*
Y-151499D01*
X51001D01*
X50001D01*
X48502D02*
Y-149500D01*
X47502Y-148501D01*
X46502Y-149500D01*
Y-151499D01*
Y-150000D01*
X48502D01*
X43503Y-149000D02*
X44003Y-148501D01*
X45003D01*
X45503Y-149000D01*
Y-151000D01*
X45003Y-151499D01*
X44003D01*
X43503Y-151000D01*
Y-150000D01*
X44503D01*
X42504Y-151499D02*
X41504D01*
X42004D01*
Y-148501D01*
X42504Y-149000D01*
X54000Y-158501D02*
Y-161500D01*
X52500D01*
X52001Y-161000D01*
Y-159000D01*
X52500Y-158501D01*
X54000D01*
X51001D02*
X50001D01*
X50501D01*
Y-161500D01*
X51001D01*
X50001D01*
X48502D02*
Y-159500D01*
X47502Y-158501D01*
X46502Y-159500D01*
Y-161500D01*
Y-160000D01*
X48502D01*
X43503Y-159000D02*
X44003Y-158501D01*
X45003D01*
X45503Y-159000D01*
Y-161000D01*
X45003Y-161500D01*
X44003D01*
X43503Y-161000D01*
Y-160000D01*
X44503D01*
X42504Y-159000D02*
X42004Y-158501D01*
X41004D01*
X40504Y-159000D01*
Y-161000D01*
X41004Y-161500D01*
X42004D01*
X42504Y-161000D01*
Y-159000D01*
X53992Y-170751D02*
Y-173750D01*
X52492D01*
X51992Y-173250D01*
Y-171250D01*
X52492Y-170751D01*
X53992D01*
X48993Y-171250D02*
X49493Y-170751D01*
X50493D01*
X50993Y-171250D01*
Y-173250D01*
X50493Y-173750D01*
X49493D01*
X48993Y-173250D01*
X47994Y-170751D02*
X46994D01*
X47494D01*
Y-173750D01*
X47994D01*
X46994D01*
X45494D02*
Y-170751D01*
X43495Y-173750D01*
Y-170751D01*
X42496Y-174249D02*
X40496D01*
X37497Y-171250D02*
X37997Y-170751D01*
X38997D01*
X39496Y-171250D01*
Y-173250D01*
X38997Y-173750D01*
X37997D01*
X37497Y-173250D01*
X34498Y-170751D02*
X36497D01*
Y-172250D01*
X35498D01*
X36497D01*
Y-173750D01*
X31499Y-171250D02*
X31999Y-170751D01*
X32998D01*
X33498Y-171250D01*
Y-173250D01*
X32998Y-173750D01*
X31999D01*
X31499Y-173250D01*
Y-172250D01*
X32499D01*
X28500Y-170751D02*
X30499D01*
Y-172250D01*
X29500Y-171750D01*
X29000D01*
X28500Y-172250D01*
Y-173250D01*
X29000Y-173750D01*
X30000D01*
X30499Y-173250D01*
X31992Y-165751D02*
Y-168750D01*
X30492D01*
X29992Y-168250D01*
Y-166250D01*
X30492Y-165751D01*
X31992D01*
X26993Y-166250D02*
X27493Y-165751D01*
X28493D01*
X28993Y-166250D01*
Y-168250D01*
X28493Y-168750D01*
X27493D01*
X26993Y-168250D01*
X23994Y-165751D02*
X25993D01*
Y-168750D01*
X23994D01*
X25993Y-167250D02*
X24994D01*
X22995Y-168750D02*
Y-165751D01*
X20995Y-168750D01*
Y-165751D01*
X19996Y-169249D02*
X17996D01*
X14997Y-166250D02*
X15497Y-165751D01*
X16497D01*
X16996Y-166250D01*
Y-168250D01*
X16497Y-168750D01*
X15497D01*
X14997Y-168250D01*
X11998Y-165751D02*
X13997D01*
Y-167250D01*
X12998D01*
X13997D01*
Y-168750D01*
X8999Y-166250D02*
X9499Y-165751D01*
X10498D01*
X10998Y-166250D01*
Y-168250D01*
X10498Y-168750D01*
X9499D01*
X8999Y-168250D01*
Y-167250D01*
X9999D01*
X6500Y-168750D02*
Y-165751D01*
X7999Y-167250D01*
X6000D01*
X13997Y-158501D02*
Y-161500D01*
X12498D01*
X11998Y-161000D01*
Y-159000D01*
X12498Y-158501D01*
X13997D01*
X8999Y-159000D02*
X9499Y-158501D01*
X10498D01*
X10998Y-159000D01*
Y-161000D01*
X10498Y-161500D01*
X9499D01*
X8999Y-161000D01*
X6500Y-158501D02*
X7500D01*
X7999Y-159000D01*
Y-161000D01*
X7500Y-161500D01*
X6500D01*
X6000Y-161000D01*
Y-159000D01*
X6500Y-158501D01*
X10998Y-148501D02*
Y-150500D01*
X9999Y-151499D01*
X8999Y-150500D01*
Y-148501D01*
X6000Y-149000D02*
X6500Y-148501D01*
X7500D01*
X7999Y-149000D01*
Y-149500D01*
X7500Y-150000D01*
X6500D01*
X6000Y-150500D01*
Y-151000D01*
X6500Y-151499D01*
X7500D01*
X7999Y-151000D01*
X12498Y-138500D02*
X13498D01*
X13997Y-139000D01*
Y-141000D01*
X13498Y-141499D01*
X12498D01*
X11998Y-141000D01*
Y-139000D01*
X12498Y-138500D01*
X10998D02*
Y-141499D01*
X9499D01*
X8999Y-141000D01*
Y-140500D01*
X9499Y-140000D01*
X10998D01*
X9499D01*
X8999Y-139500D01*
Y-139000D01*
X9499Y-138500D01*
X10998D01*
X6000Y-141499D02*
X7999D01*
X6000Y-139500D01*
Y-139000D01*
X6500Y-138500D01*
X7500D01*
X7999Y-139000D01*
X13997Y-128500D02*
Y-131500D01*
X12498D01*
X11998Y-131000D01*
Y-130500D01*
X12498Y-130000D01*
X13997D01*
X12498D01*
X11998Y-129500D01*
Y-129000D01*
X12498Y-128500D01*
X13997D01*
X10998Y-131500D02*
Y-128500D01*
X9499D01*
X8999Y-129000D01*
Y-130000D01*
X9499Y-130500D01*
X10998D01*
X9999D02*
X8999Y-131500D01*
X7999Y-128500D02*
Y-131500D01*
X6500D01*
X6000Y-131000D01*
Y-130500D01*
X6500Y-130000D01*
X7999D01*
X6500D01*
X6000Y-129500D01*
Y-129000D01*
X6500Y-128500D01*
X7999D01*
X11498Y-118500D02*
X12498D01*
X12998Y-119000D01*
Y-121000D01*
X12498Y-121500D01*
X11498D01*
X10998Y-121000D01*
Y-119000D01*
X11498Y-118500D01*
X9999D02*
Y-121500D01*
X8499D01*
X7999Y-121000D01*
Y-120500D01*
X8499Y-120000D01*
X9999D01*
X8499D01*
X7999Y-119500D01*
Y-119000D01*
X8499Y-118500D01*
X9999D01*
X7000Y-121500D02*
X6000D01*
X6500D01*
Y-118500D01*
X7000Y-119000D01*
X14997Y-109000D02*
X15497Y-108501D01*
X16497D01*
X16996Y-109000D01*
Y-111000D01*
X16497Y-111500D01*
X15497D01*
X14997Y-111000D01*
Y-110000D01*
X15997D01*
X13997Y-111500D02*
Y-108501D01*
X11998Y-111500D01*
Y-108501D01*
X10998D02*
Y-111500D01*
X9499D01*
X8999Y-111000D01*
Y-109000D01*
X9499Y-108501D01*
X10998D01*
X7999Y-111500D02*
Y-108501D01*
X6500D01*
X6000Y-109000D01*
Y-110000D01*
X6500Y-110500D01*
X7999D01*
X27993Y-101499D02*
X26993D01*
X27493D01*
Y-98501D01*
X27993Y-99000D01*
X25494Y-101499D02*
X24494D01*
X24994D01*
Y-98501D01*
X25494Y-99000D01*
X19996Y-100000D02*
X17996D01*
X11998Y-99000D02*
X12498Y-98501D01*
X13498D01*
X13997Y-99000D01*
Y-101000D01*
X13498Y-101499D01*
X12498D01*
X11998Y-101000D01*
Y-100000D01*
X12998D01*
X10998Y-101499D02*
Y-98501D01*
X8999Y-101499D01*
Y-98501D01*
X7999D02*
Y-101499D01*
X6500D01*
X6000Y-101000D01*
Y-99000D01*
X6500Y-98501D01*
X7999D01*
X26493Y-88750D02*
X26993Y-88251D01*
X27993D01*
X28493Y-88750D01*
Y-89250D01*
X27993Y-89750D01*
X26993D01*
X26493Y-90250D01*
Y-90750D01*
X26993Y-91250D01*
X27993D01*
X28493Y-90750D01*
X25494Y-91250D02*
Y-88251D01*
X23994D01*
X23494Y-88750D01*
Y-89750D01*
X23994Y-90250D01*
X25494D01*
X22495Y-88251D02*
X21495D01*
X21995D01*
Y-91250D01*
X22495D01*
X21495D01*
X19996Y-91749D02*
X17996D01*
X16996Y-91250D02*
Y-88251D01*
X15997Y-89250D01*
X14997Y-88251D01*
Y-91250D01*
X12498Y-88251D02*
X13498D01*
X13997Y-88750D01*
Y-90750D01*
X13498Y-91250D01*
X12498D01*
X11998Y-90750D01*
Y-88750D01*
X12498Y-88251D01*
X10998D02*
Y-91250D01*
X9499D01*
X8999Y-90750D01*
Y-88750D01*
X9499Y-88251D01*
X10998D01*
X6000D02*
X7999D01*
Y-91250D01*
X6000D01*
X7999Y-89750D02*
X7000D01*
X10998Y-81499D02*
Y-78500D01*
X8999Y-81499D01*
Y-78500D01*
X6000Y-79000D02*
X6500Y-78500D01*
X7500D01*
X7999Y-79000D01*
Y-81000D01*
X7500Y-81499D01*
X6500D01*
X6000Y-81000D01*
X22495Y-68251D02*
Y-70250D01*
X21495Y-71250D01*
X20495Y-70250D01*
Y-68251D01*
X17496Y-68750D02*
X17996Y-68251D01*
X18996D01*
X19496Y-68750D01*
Y-70750D01*
X18996Y-71250D01*
X17996D01*
X17496Y-70750D01*
X14497Y-68750D02*
X14997Y-68251D01*
X15997D01*
X16497Y-68750D01*
Y-70750D01*
X15997Y-71250D01*
X14997D01*
X14497Y-70750D01*
X13498Y-71749D02*
X11498D01*
X10498Y-68251D02*
X9499D01*
X9999D01*
Y-71250D01*
X10498D01*
X9499D01*
X6500Y-68251D02*
X7500D01*
X7999Y-68750D01*
Y-70750D01*
X7500Y-71250D01*
X6500D01*
X6000Y-70750D01*
Y-68750D01*
X6500Y-68251D01*
X13498Y-58500D02*
Y-61500D01*
X11998D01*
X11498Y-61000D01*
Y-59000D01*
X11998Y-58500D01*
X13498D01*
X10498D02*
X9499D01*
X9999D01*
Y-61500D01*
X10498D01*
X9499D01*
X7999D02*
Y-58500D01*
X6500D01*
X6000Y-59000D01*
Y-60000D01*
X6500Y-60500D01*
X7999D01*
X7000D02*
X6000Y-61500D01*
X14997Y-49000D02*
X15497Y-48500D01*
X16497D01*
X16996Y-49000D01*
Y-49500D01*
X16497Y-50000D01*
X15497D01*
X14997Y-50500D01*
Y-51000D01*
X15497Y-51499D01*
X16497D01*
X16996Y-51000D01*
X13997Y-48500D02*
X11998D01*
X12998D01*
Y-51499D01*
X8999Y-48500D02*
X10998D01*
Y-51499D01*
X8999D01*
X10998Y-50000D02*
X9999D01*
X7999Y-51499D02*
Y-48500D01*
X6500D01*
X6000Y-49000D01*
Y-50000D01*
X6500Y-50500D01*
X7999D01*
X26993Y-38750D02*
X27493Y-38251D01*
X28493D01*
X28993Y-38750D01*
Y-39250D01*
X28493Y-39750D01*
X27493D01*
X26993Y-40250D01*
Y-40750D01*
X27493Y-41250D01*
X28493D01*
X28993Y-40750D01*
X25993Y-38251D02*
Y-41250D01*
X24494D01*
X23994Y-40750D01*
Y-38750D01*
X24494Y-38251D01*
X25993D01*
X21495D02*
X22495D01*
X22995Y-38750D01*
Y-40750D01*
X22495Y-41250D01*
X21495D01*
X20995Y-40750D01*
Y-38750D01*
X21495Y-38251D01*
X19996Y-41749D02*
X17996D01*
X14997Y-38750D02*
X15497Y-38251D01*
X16497D01*
X16996Y-38750D01*
Y-40750D01*
X16497Y-41250D01*
X15497D01*
X14997Y-40750D01*
X11998Y-38251D02*
X13997D01*
Y-39750D01*
X12998D01*
X13997D01*
Y-41250D01*
X8999Y-38750D02*
X9499Y-38251D01*
X10498D01*
X10998Y-38750D01*
Y-40750D01*
X10498Y-41250D01*
X9499D01*
X8999Y-40750D01*
Y-39750D01*
X9999D01*
X7999Y-38750D02*
X7500Y-38251D01*
X6500D01*
X6000Y-38750D01*
Y-40750D01*
X6500Y-41250D01*
X7500D01*
X7999Y-40750D01*
Y-38750D01*
X25494Y-28750D02*
X25993Y-28251D01*
X26993D01*
X27493Y-28750D01*
Y-29250D01*
X26993Y-29750D01*
X25993D01*
X25494Y-30250D01*
Y-30750D01*
X25993Y-31250D01*
X26993D01*
X27493Y-30750D01*
X24494Y-28251D02*
Y-31250D01*
X22995D01*
X22495Y-30750D01*
Y-28750D01*
X22995Y-28251D01*
X24494D01*
X21495D02*
X20495D01*
X20995D01*
Y-31250D01*
X21495D01*
X20495D01*
X18996Y-31749D02*
X16996D01*
X13997Y-28750D02*
X14497Y-28251D01*
X15497D01*
X15997Y-28750D01*
Y-30750D01*
X15497Y-31250D01*
X14497D01*
X13997Y-30750D01*
X10998Y-28251D02*
X12998D01*
Y-29750D01*
X11998D01*
X12998D01*
Y-31250D01*
X7999Y-28750D02*
X8499Y-28251D01*
X9499D01*
X9999Y-28750D01*
Y-30750D01*
X9499Y-31250D01*
X8499D01*
X7999Y-30750D01*
Y-29750D01*
X8999D01*
X7000Y-31250D02*
X6000D01*
X6500D01*
Y-28251D01*
X7000Y-28750D01*
X26993Y-18750D02*
X27493Y-18251D01*
X28493D01*
X28993Y-18750D01*
Y-19250D01*
X28493Y-19750D01*
X27493D01*
X26993Y-20250D01*
Y-20750D01*
X27493Y-21250D01*
X28493D01*
X28993Y-20750D01*
X23994Y-18750D02*
X24494Y-18251D01*
X25494D01*
X25993Y-18750D01*
Y-20750D01*
X25494Y-21250D01*
X24494D01*
X23994Y-20750D01*
X22995Y-18251D02*
Y-21250D01*
Y-20250D01*
X20995Y-18251D01*
X22495Y-19750D01*
X20995Y-21250D01*
X19996Y-21749D02*
X17996D01*
X14997Y-18750D02*
X15497Y-18251D01*
X16497D01*
X16996Y-18750D01*
Y-20750D01*
X16497Y-21250D01*
X15497D01*
X14997Y-20750D01*
X11998Y-18251D02*
X13997D01*
Y-19750D01*
X12998D01*
X13997D01*
Y-21250D01*
X8999Y-18750D02*
X9499Y-18251D01*
X10498D01*
X10998Y-18750D01*
Y-20750D01*
X10498Y-21250D01*
X9499D01*
X8999Y-20750D01*
Y-19750D01*
X9999D01*
X6000Y-21250D02*
X7999D01*
X6000Y-19250D01*
Y-18750D01*
X6500Y-18251D01*
X7500D01*
X7999Y-18750D01*
X26993Y-8750D02*
X27493Y-8251D01*
X28493D01*
X28993Y-8750D01*
Y-10750D01*
X28493Y-11250D01*
X27493D01*
X26993Y-10750D01*
X23994Y-8750D02*
X24494Y-8251D01*
X25494D01*
X25993Y-8750D01*
Y-9250D01*
X25494Y-9750D01*
X24494D01*
X23994Y-10250D01*
Y-10750D01*
X24494Y-11250D01*
X25494D01*
X25993Y-10750D01*
X22995Y-11250D02*
Y-8251D01*
X20995Y-11250D01*
Y-8251D01*
X19996Y-11749D02*
X17996D01*
X14997Y-8750D02*
X15497Y-8251D01*
X16497D01*
X16996Y-8750D01*
Y-10750D01*
X16497Y-11250D01*
X15497D01*
X14997Y-10750D01*
X11998Y-8251D02*
X13997D01*
Y-9750D01*
X12998D01*
X13997D01*
Y-11250D01*
X8999Y-8750D02*
X9499Y-8251D01*
X10498D01*
X10998Y-8750D01*
Y-10750D01*
X10498Y-11250D01*
X9499D01*
X8999Y-10750D01*
Y-9750D01*
X9999D01*
X7999Y-8750D02*
X7500Y-8251D01*
X6500D01*
X6000Y-8750D01*
Y-9250D01*
X6500Y-9750D01*
X7000D01*
X6500D01*
X6000Y-10250D01*
Y-10750D01*
X6500Y-11250D01*
X7500D01*
X7999Y-10750D01*
X11998Y1000D02*
X12498Y1500D01*
X13498D01*
X13997Y1000D01*
Y-1000D01*
X13498Y-1500D01*
X12498D01*
X11998Y-1000D01*
X10998Y1500D02*
Y-1500D01*
X8999D01*
X7999Y1500D02*
Y-1500D01*
Y-500D01*
X6000Y1500D01*
X7500Y0D01*
X6000Y-1500D01*
M02*
